<?xml version="1.0" encoding="utf-8" standalone="no"?>
<!DOCTYPE svg PUBLIC "-//W3C//DTD SVG 1.1//EN"
  "http://www.w3.org/Graphics/SVG/1.1/DTD/svg11.dtd">
<svg xmlns:xlink="http://www.w3.org/1999/xlink" width="497.38125pt" height="337.074375pt" viewBox="0 0 497.38125 337.074375" xmlns="http://www.w3.org/2000/svg" version="1.1">
 <metadata>
  <rdf:RDF xmlns:dc="http://purl.org/dc/elements/1.1/" xmlns:cc="http://creativecommons.org/ns#" xmlns:rdf="http://www.w3.org/1999/02/22-rdf-syntax-ns#">
   <cc:Work>
    <dc:type rdf:resource="http://purl.org/dc/dcmitype/StillImage"/>
    <dc:date>2026-07-01T17:13:58.976087</dc:date>
    <dc:format>image/svg+xml</dc:format>
    <dc:creator>
     <cc:Agent>
      <dc:title>Matplotlib v3.10.8, https://matplotlib.org/</dc:title>
     </cc:Agent>
    </dc:creator>
   </cc:Work>
  </rdf:RDF>
 </metadata>
 <defs>
  <style type="text/css">*{stroke-linejoin: round; stroke-linecap: butt}</style>
 </defs>
 <g id="figure_1">
  <g id="patch_1">
   <path d="M 0 337.074375 
L 497.38125 337.074375 
L 497.38125 0 
L 0 0 
z
" style="fill: #ffffff"/>
  </g>
  <g id="axes_1">
   <g id="patch_2">
    <path d="M 43.78125 299.518125 
L 490.18125 299.518125 
L 490.18125 22.318125 
L 43.78125 22.318125 
z
" style="fill: #ffffff"/>
   </g>
   <g id="matplotlib.axis_1">
    <g id="xtick_1">
     <g id="line2d_1">
      <path d="M 64.072159 299.518125 
L 64.072159 22.318125 
" clip-path="url(#pd0c53b559b)" style="fill: none; stroke-dasharray: 1.85,0.8; stroke-dashoffset: 0; stroke: #b0b0b0; stroke-opacity: 0.6; stroke-width: 0.5"/>
     </g>
     <g id="line2d_2">
      <defs>
       <path id="m8851497af7" d="M 0 0 
L 0 3.5 
" style="stroke: #000000; stroke-width: 0.8"/>
      </defs>
      <g>
       <use xlink:href="#m8851497af7" x="64.072159" y="299.518125" style="stroke: #000000; stroke-width: 0.8"/>
      </g>
     </g>
     <g id="text_1">
      <!-- 0 -->
      <g transform="translate(60.890909 314.116563) scale(0.1 -0.1)">
       <defs>
        <path id="DejaVuSans-30" d="M 2034 4250 
Q 1547 4250 1301 3770 
Q 1056 3291 1056 2328 
Q 1056 1369 1301 889 
Q 1547 409 2034 409 
Q 2525 409 2770 889 
Q 3016 1369 3016 2328 
Q 3016 3291 2770 3770 
Q 2525 4250 2034 4250 
z
M 2034 4750 
Q 2819 4750 3233 4129 
Q 3647 3509 3647 2328 
Q 3647 1150 3233 529 
Q 2819 -91 2034 -91 
Q 1250 -91 836 529 
Q 422 1150 422 2328 
Q 422 3509 836 4129 
Q 1250 4750 2034 4750 
z
" transform="scale(0.015625)"/>
       </defs>
       <use xlink:href="#DejaVuSans-30"/>
      </g>
     </g>
    </g>
    <g id="xtick_2">
     <g id="line2d_3">
      <path d="M 118.544398 299.518125 
L 118.544398 22.318125 
" clip-path="url(#pd0c53b559b)" style="fill: none; stroke-dasharray: 1.85,0.8; stroke-dashoffset: 0; stroke: #b0b0b0; stroke-opacity: 0.6; stroke-width: 0.5"/>
     </g>
     <g id="line2d_4">
      <g>
       <use xlink:href="#m8851497af7" x="118.544398" y="299.518125" style="stroke: #000000; stroke-width: 0.8"/>
      </g>
     </g>
     <g id="text_2">
      <!-- 20 -->
      <g transform="translate(112.181898 314.116563) scale(0.1 -0.1)">
       <defs>
        <path id="DejaVuSans-32" d="M 1228 531 
L 3431 531 
L 3431 0 
L 469 0 
L 469 531 
Q 828 903 1448 1529 
Q 2069 2156 2228 2338 
Q 2531 2678 2651 2914 
Q 2772 3150 2772 3378 
Q 2772 3750 2511 3984 
Q 2250 4219 1831 4219 
Q 1534 4219 1204 4116 
Q 875 4013 500 3803 
L 500 4441 
Q 881 4594 1212 4672 
Q 1544 4750 1819 4750 
Q 2544 4750 2975 4387 
Q 3406 4025 3406 3419 
Q 3406 3131 3298 2873 
Q 3191 2616 2906 2266 
Q 2828 2175 2409 1742 
Q 1991 1309 1228 531 
z
" transform="scale(0.015625)"/>
       </defs>
       <use xlink:href="#DejaVuSans-32"/>
       <use xlink:href="#DejaVuSans-30" transform="translate(63.623047 0)"/>
      </g>
     </g>
    </g>
    <g id="xtick_3">
     <g id="line2d_5">
      <path d="M 173.016637 299.518125 
L 173.016637 22.318125 
" clip-path="url(#pd0c53b559b)" style="fill: none; stroke-dasharray: 1.85,0.8; stroke-dashoffset: 0; stroke: #b0b0b0; stroke-opacity: 0.6; stroke-width: 0.5"/>
     </g>
     <g id="line2d_6">
      <g>
       <use xlink:href="#m8851497af7" x="173.016637" y="299.518125" style="stroke: #000000; stroke-width: 0.8"/>
      </g>
     </g>
     <g id="text_3">
      <!-- 40 -->
      <g transform="translate(166.654137 314.116563) scale(0.1 -0.1)">
       <defs>
        <path id="DejaVuSans-34" d="M 2419 4116 
L 825 1625 
L 2419 1625 
L 2419 4116 
z
M 2253 4666 
L 3047 4666 
L 3047 1625 
L 3713 1625 
L 3713 1100 
L 3047 1100 
L 3047 0 
L 2419 0 
L 2419 1100 
L 313 1100 
L 313 1709 
L 2253 4666 
z
" transform="scale(0.015625)"/>
       </defs>
       <use xlink:href="#DejaVuSans-34"/>
       <use xlink:href="#DejaVuSans-30" transform="translate(63.623047 0)"/>
      </g>
     </g>
    </g>
    <g id="xtick_4">
     <g id="line2d_7">
      <path d="M 227.488877 299.518125 
L 227.488877 22.318125 
" clip-path="url(#pd0c53b559b)" style="fill: none; stroke-dasharray: 1.85,0.8; stroke-dashoffset: 0; stroke: #b0b0b0; stroke-opacity: 0.6; stroke-width: 0.5"/>
     </g>
     <g id="line2d_8">
      <g>
       <use xlink:href="#m8851497af7" x="227.488877" y="299.518125" style="stroke: #000000; stroke-width: 0.8"/>
      </g>
     </g>
     <g id="text_4">
      <!-- 60 -->
      <g transform="translate(221.126377 314.116563) scale(0.1 -0.1)">
       <defs>
        <path id="DejaVuSans-36" d="M 2113 2584 
Q 1688 2584 1439 2293 
Q 1191 2003 1191 1497 
Q 1191 994 1439 701 
Q 1688 409 2113 409 
Q 2538 409 2786 701 
Q 3034 994 3034 1497 
Q 3034 2003 2786 2293 
Q 2538 2584 2113 2584 
z
M 3366 4563 
L 3366 3988 
Q 3128 4100 2886 4159 
Q 2644 4219 2406 4219 
Q 1781 4219 1451 3797 
Q 1122 3375 1075 2522 
Q 1259 2794 1537 2939 
Q 1816 3084 2150 3084 
Q 2853 3084 3261 2657 
Q 3669 2231 3669 1497 
Q 3669 778 3244 343 
Q 2819 -91 2113 -91 
Q 1303 -91 875 529 
Q 447 1150 447 2328 
Q 447 3434 972 4092 
Q 1497 4750 2381 4750 
Q 2619 4750 2861 4703 
Q 3103 4656 3366 4563 
z
" transform="scale(0.015625)"/>
       </defs>
       <use xlink:href="#DejaVuSans-36"/>
       <use xlink:href="#DejaVuSans-30" transform="translate(63.623047 0)"/>
      </g>
     </g>
    </g>
    <g id="xtick_5">
     <g id="line2d_9">
      <path d="M 281.961116 299.518125 
L 281.961116 22.318125 
" clip-path="url(#pd0c53b559b)" style="fill: none; stroke-dasharray: 1.85,0.8; stroke-dashoffset: 0; stroke: #b0b0b0; stroke-opacity: 0.6; stroke-width: 0.5"/>
     </g>
     <g id="line2d_10">
      <g>
       <use xlink:href="#m8851497af7" x="281.961116" y="299.518125" style="stroke: #000000; stroke-width: 0.8"/>
      </g>
     </g>
     <g id="text_5">
      <!-- 80 -->
      <g transform="translate(275.598616 314.116563) scale(0.1 -0.1)">
       <defs>
        <path id="DejaVuSans-38" d="M 2034 2216 
Q 1584 2216 1326 1975 
Q 1069 1734 1069 1313 
Q 1069 891 1326 650 
Q 1584 409 2034 409 
Q 2484 409 2743 651 
Q 3003 894 3003 1313 
Q 3003 1734 2745 1975 
Q 2488 2216 2034 2216 
z
M 1403 2484 
Q 997 2584 770 2862 
Q 544 3141 544 3541 
Q 544 4100 942 4425 
Q 1341 4750 2034 4750 
Q 2731 4750 3128 4425 
Q 3525 4100 3525 3541 
Q 3525 3141 3298 2862 
Q 3072 2584 2669 2484 
Q 3125 2378 3379 2068 
Q 3634 1759 3634 1313 
Q 3634 634 3220 271 
Q 2806 -91 2034 -91 
Q 1263 -91 848 271 
Q 434 634 434 1313 
Q 434 1759 690 2068 
Q 947 2378 1403 2484 
z
M 1172 3481 
Q 1172 3119 1398 2916 
Q 1625 2713 2034 2713 
Q 2441 2713 2670 2916 
Q 2900 3119 2900 3481 
Q 2900 3844 2670 4047 
Q 2441 4250 2034 4250 
Q 1625 4250 1398 4047 
Q 1172 3844 1172 3481 
z
" transform="scale(0.015625)"/>
       </defs>
       <use xlink:href="#DejaVuSans-38"/>
       <use xlink:href="#DejaVuSans-30" transform="translate(63.623047 0)"/>
      </g>
     </g>
    </g>
    <g id="xtick_6">
     <g id="line2d_11">
      <path d="M 336.433355 299.518125 
L 336.433355 22.318125 
" clip-path="url(#pd0c53b559b)" style="fill: none; stroke-dasharray: 1.85,0.8; stroke-dashoffset: 0; stroke: #b0b0b0; stroke-opacity: 0.6; stroke-width: 0.5"/>
     </g>
     <g id="line2d_12">
      <g>
       <use xlink:href="#m8851497af7" x="336.433355" y="299.518125" style="stroke: #000000; stroke-width: 0.8"/>
      </g>
     </g>
     <g id="text_6">
      <!-- 100 -->
      <g transform="translate(326.889605 314.116563) scale(0.1 -0.1)">
       <defs>
        <path id="DejaVuSans-31" d="M 794 531 
L 1825 531 
L 1825 4091 
L 703 3866 
L 703 4441 
L 1819 4666 
L 2450 4666 
L 2450 531 
L 3481 531 
L 3481 0 
L 794 0 
L 794 531 
z
" transform="scale(0.015625)"/>
       </defs>
       <use xlink:href="#DejaVuSans-31"/>
       <use xlink:href="#DejaVuSans-30" transform="translate(63.623047 0)"/>
       <use xlink:href="#DejaVuSans-30" transform="translate(127.246094 0)"/>
      </g>
     </g>
    </g>
    <g id="xtick_7">
     <g id="line2d_13">
      <path d="M 390.905594 299.518125 
L 390.905594 22.318125 
" clip-path="url(#pd0c53b559b)" style="fill: none; stroke-dasharray: 1.85,0.8; stroke-dashoffset: 0; stroke: #b0b0b0; stroke-opacity: 0.6; stroke-width: 0.5"/>
     </g>
     <g id="line2d_14">
      <g>
       <use xlink:href="#m8851497af7" x="390.905594" y="299.518125" style="stroke: #000000; stroke-width: 0.8"/>
      </g>
     </g>
     <g id="text_7">
      <!-- 120 -->
      <g transform="translate(381.361844 314.116563) scale(0.1 -0.1)">
       <use xlink:href="#DejaVuSans-31"/>
       <use xlink:href="#DejaVuSans-32" transform="translate(63.623047 0)"/>
       <use xlink:href="#DejaVuSans-30" transform="translate(127.246094 0)"/>
      </g>
     </g>
    </g>
    <g id="xtick_8">
     <g id="line2d_15">
      <path d="M 445.377833 299.518125 
L 445.377833 22.318125 
" clip-path="url(#pd0c53b559b)" style="fill: none; stroke-dasharray: 1.85,0.8; stroke-dashoffset: 0; stroke: #b0b0b0; stroke-opacity: 0.6; stroke-width: 0.5"/>
     </g>
     <g id="line2d_16">
      <g>
       <use xlink:href="#m8851497af7" x="445.377833" y="299.518125" style="stroke: #000000; stroke-width: 0.8"/>
      </g>
     </g>
     <g id="text_8">
      <!-- 140 -->
      <g transform="translate(435.834083 314.116563) scale(0.1 -0.1)">
       <use xlink:href="#DejaVuSans-31"/>
       <use xlink:href="#DejaVuSans-34" transform="translate(63.623047 0)"/>
       <use xlink:href="#DejaVuSans-30" transform="translate(127.246094 0)"/>
      </g>
     </g>
    </g>
    <g id="text_9">
     <!-- Simulation Day -->
     <g transform="translate(228.885937 327.794688) scale(0.1 -0.1)">
      <defs>
       <path id="DejaVuSans-53" d="M 3425 4513 
L 3425 3897 
Q 3066 4069 2747 4153 
Q 2428 4238 2131 4238 
Q 1616 4238 1336 4038 
Q 1056 3838 1056 3469 
Q 1056 3159 1242 3001 
Q 1428 2844 1947 2747 
L 2328 2669 
Q 3034 2534 3370 2195 
Q 3706 1856 3706 1288 
Q 3706 609 3251 259 
Q 2797 -91 1919 -91 
Q 1588 -91 1214 -16 
Q 841 59 441 206 
L 441 856 
Q 825 641 1194 531 
Q 1563 422 1919 422 
Q 2459 422 2753 634 
Q 3047 847 3047 1241 
Q 3047 1584 2836 1778 
Q 2625 1972 2144 2069 
L 1759 2144 
Q 1053 2284 737 2584 
Q 422 2884 422 3419 
Q 422 4038 858 4394 
Q 1294 4750 2059 4750 
Q 2388 4750 2728 4690 
Q 3069 4631 3425 4513 
z
" transform="scale(0.015625)"/>
       <path id="DejaVuSans-69" d="M 603 3500 
L 1178 3500 
L 1178 0 
L 603 0 
L 603 3500 
z
M 603 4863 
L 1178 4863 
L 1178 4134 
L 603 4134 
L 603 4863 
z
" transform="scale(0.015625)"/>
       <path id="DejaVuSans-6d" d="M 3328 2828 
Q 3544 3216 3844 3400 
Q 4144 3584 4550 3584 
Q 5097 3584 5394 3201 
Q 5691 2819 5691 2113 
L 5691 0 
L 5113 0 
L 5113 2094 
Q 5113 2597 4934 2840 
Q 4756 3084 4391 3084 
Q 3944 3084 3684 2787 
Q 3425 2491 3425 1978 
L 3425 0 
L 2847 0 
L 2847 2094 
Q 2847 2600 2669 2842 
Q 2491 3084 2119 3084 
Q 1678 3084 1418 2786 
Q 1159 2488 1159 1978 
L 1159 0 
L 581 0 
L 581 3500 
L 1159 3500 
L 1159 2956 
Q 1356 3278 1631 3431 
Q 1906 3584 2284 3584 
Q 2666 3584 2933 3390 
Q 3200 3197 3328 2828 
z
" transform="scale(0.015625)"/>
       <path id="DejaVuSans-75" d="M 544 1381 
L 544 3500 
L 1119 3500 
L 1119 1403 
Q 1119 906 1312 657 
Q 1506 409 1894 409 
Q 2359 409 2629 706 
Q 2900 1003 2900 1516 
L 2900 3500 
L 3475 3500 
L 3475 0 
L 2900 0 
L 2900 538 
Q 2691 219 2414 64 
Q 2138 -91 1772 -91 
Q 1169 -91 856 284 
Q 544 659 544 1381 
z
M 1991 3584 
L 1991 3584 
z
" transform="scale(0.015625)"/>
       <path id="DejaVuSans-6c" d="M 603 4863 
L 1178 4863 
L 1178 0 
L 603 0 
L 603 4863 
z
" transform="scale(0.015625)"/>
       <path id="DejaVuSans-61" d="M 2194 1759 
Q 1497 1759 1228 1600 
Q 959 1441 959 1056 
Q 959 750 1161 570 
Q 1363 391 1709 391 
Q 2188 391 2477 730 
Q 2766 1069 2766 1631 
L 2766 1759 
L 2194 1759 
z
M 3341 1997 
L 3341 0 
L 2766 0 
L 2766 531 
Q 2569 213 2275 61 
Q 1981 -91 1556 -91 
Q 1019 -91 701 211 
Q 384 513 384 1019 
Q 384 1609 779 1909 
Q 1175 2209 1959 2209 
L 2766 2209 
L 2766 2266 
Q 2766 2663 2505 2880 
Q 2244 3097 1772 3097 
Q 1472 3097 1187 3025 
Q 903 2953 641 2809 
L 641 3341 
Q 956 3463 1253 3523 
Q 1550 3584 1831 3584 
Q 2591 3584 2966 3190 
Q 3341 2797 3341 1997 
z
" transform="scale(0.015625)"/>
       <path id="DejaVuSans-74" d="M 1172 4494 
L 1172 3500 
L 2356 3500 
L 2356 3053 
L 1172 3053 
L 1172 1153 
Q 1172 725 1289 603 
Q 1406 481 1766 481 
L 2356 481 
L 2356 0 
L 1766 0 
Q 1100 0 847 248 
Q 594 497 594 1153 
L 594 3053 
L 172 3053 
L 172 3500 
L 594 3500 
L 594 4494 
L 1172 4494 
z
" transform="scale(0.015625)"/>
       <path id="DejaVuSans-6f" d="M 1959 3097 
Q 1497 3097 1228 2736 
Q 959 2375 959 1747 
Q 959 1119 1226 758 
Q 1494 397 1959 397 
Q 2419 397 2687 759 
Q 2956 1122 2956 1747 
Q 2956 2369 2687 2733 
Q 2419 3097 1959 3097 
z
M 1959 3584 
Q 2709 3584 3137 3096 
Q 3566 2609 3566 1747 
Q 3566 888 3137 398 
Q 2709 -91 1959 -91 
Q 1206 -91 779 398 
Q 353 888 353 1747 
Q 353 2609 779 3096 
Q 1206 3584 1959 3584 
z
" transform="scale(0.015625)"/>
       <path id="DejaVuSans-6e" d="M 3513 2113 
L 3513 0 
L 2938 0 
L 2938 2094 
Q 2938 2591 2744 2837 
Q 2550 3084 2163 3084 
Q 1697 3084 1428 2787 
Q 1159 2491 1159 1978 
L 1159 0 
L 581 0 
L 581 3500 
L 1159 3500 
L 1159 2956 
Q 1366 3272 1645 3428 
Q 1925 3584 2291 3584 
Q 2894 3584 3203 3211 
Q 3513 2838 3513 2113 
z
" transform="scale(0.015625)"/>
       <path id="DejaVuSans-20" transform="scale(0.015625)"/>
       <path id="DejaVuSans-44" d="M 1259 4147 
L 1259 519 
L 2022 519 
Q 2988 519 3436 956 
Q 3884 1394 3884 2338 
Q 3884 3275 3436 3711 
Q 2988 4147 2022 4147 
L 1259 4147 
z
M 628 4666 
L 1925 4666 
Q 3281 4666 3915 4102 
Q 4550 3538 4550 2338 
Q 4550 1131 3912 565 
Q 3275 0 1925 0 
L 628 0 
L 628 4666 
z
" transform="scale(0.015625)"/>
       <path id="DejaVuSans-79" d="M 2059 -325 
Q 1816 -950 1584 -1140 
Q 1353 -1331 966 -1331 
L 506 -1331 
L 506 -850 
L 844 -850 
Q 1081 -850 1212 -737 
Q 1344 -625 1503 -206 
L 1606 56 
L 191 3500 
L 800 3500 
L 1894 763 
L 2988 3500 
L 3597 3500 
L 2059 -325 
z
" transform="scale(0.015625)"/>
      </defs>
      <use xlink:href="#DejaVuSans-53"/>
      <use xlink:href="#DejaVuSans-69" transform="translate(63.476562 0)"/>
      <use xlink:href="#DejaVuSans-6d" transform="translate(91.259766 0)"/>
      <use xlink:href="#DejaVuSans-75" transform="translate(188.671875 0)"/>
      <use xlink:href="#DejaVuSans-6c" transform="translate(252.050781 0)"/>
      <use xlink:href="#DejaVuSans-61" transform="translate(279.833984 0)"/>
      <use xlink:href="#DejaVuSans-74" transform="translate(341.113281 0)"/>
      <use xlink:href="#DejaVuSans-69" transform="translate(380.322266 0)"/>
      <use xlink:href="#DejaVuSans-6f" transform="translate(408.105469 0)"/>
      <use xlink:href="#DejaVuSans-6e" transform="translate(469.287109 0)"/>
      <use xlink:href="#DejaVuSans-20" transform="translate(532.666016 0)"/>
      <use xlink:href="#DejaVuSans-44" transform="translate(564.453125 0)"/>
      <use xlink:href="#DejaVuSans-61" transform="translate(641.455078 0)"/>
      <use xlink:href="#DejaVuSans-79" transform="translate(702.734375 0)"/>
     </g>
    </g>
   </g>
   <g id="matplotlib.axis_2">
    <g id="ytick_1">
     <g id="line2d_17">
      <path d="M 43.78125 286.918125 
L 490.18125 286.918125 
" clip-path="url(#pd0c53b559b)" style="fill: none; stroke-dasharray: 1.85,0.8; stroke-dashoffset: 0; stroke: #b0b0b0; stroke-opacity: 0.6; stroke-width: 0.5"/>
     </g>
     <g id="line2d_18">
      <defs>
       <path id="mb77365e4de" d="M 0 0 
L -3.5 0 
" style="stroke: #000000; stroke-width: 0.8"/>
      </defs>
      <g>
       <use xlink:href="#mb77365e4de" x="43.78125" y="286.918125" style="stroke: #000000; stroke-width: 0.8"/>
      </g>
     </g>
     <g id="text_10">
      <!-- 0.0 -->
      <g transform="translate(20.878125 290.717344) scale(0.1 -0.1)">
       <defs>
        <path id="DejaVuSans-2e" d="M 684 794 
L 1344 794 
L 1344 0 
L 684 0 
L 684 794 
z
" transform="scale(0.015625)"/>
       </defs>
       <use xlink:href="#DejaVuSans-30"/>
       <use xlink:href="#DejaVuSans-2e" transform="translate(63.623047 0)"/>
       <use xlink:href="#DejaVuSans-30" transform="translate(95.410156 0)"/>
      </g>
     </g>
    </g>
    <g id="ytick_2">
     <g id="line2d_19">
      <path d="M 43.78125 232.015531 
L 490.18125 232.015531 
" clip-path="url(#pd0c53b559b)" style="fill: none; stroke-dasharray: 1.85,0.8; stroke-dashoffset: 0; stroke: #b0b0b0; stroke-opacity: 0.6; stroke-width: 0.5"/>
     </g>
     <g id="line2d_20">
      <g>
       <use xlink:href="#mb77365e4de" x="43.78125" y="232.015531" style="stroke: #000000; stroke-width: 0.8"/>
      </g>
     </g>
     <g id="text_11">
      <!-- 0.2 -->
      <g transform="translate(20.878125 235.81475) scale(0.1 -0.1)">
       <use xlink:href="#DejaVuSans-30"/>
       <use xlink:href="#DejaVuSans-2e" transform="translate(63.623047 0)"/>
       <use xlink:href="#DejaVuSans-32" transform="translate(95.410156 0)"/>
      </g>
     </g>
    </g>
    <g id="ytick_3">
     <g id="line2d_21">
      <path d="M 43.78125 177.112938 
L 490.18125 177.112938 
" clip-path="url(#pd0c53b559b)" style="fill: none; stroke-dasharray: 1.85,0.8; stroke-dashoffset: 0; stroke: #b0b0b0; stroke-opacity: 0.6; stroke-width: 0.5"/>
     </g>
     <g id="line2d_22">
      <g>
       <use xlink:href="#mb77365e4de" x="43.78125" y="177.112938" style="stroke: #000000; stroke-width: 0.8"/>
      </g>
     </g>
     <g id="text_12">
      <!-- 0.4 -->
      <g transform="translate(20.878125 180.912156) scale(0.1 -0.1)">
       <use xlink:href="#DejaVuSans-30"/>
       <use xlink:href="#DejaVuSans-2e" transform="translate(63.623047 0)"/>
       <use xlink:href="#DejaVuSans-34" transform="translate(95.410156 0)"/>
      </g>
     </g>
    </g>
    <g id="ytick_4">
     <g id="line2d_23">
      <path d="M 43.78125 122.210344 
L 490.18125 122.210344 
" clip-path="url(#pd0c53b559b)" style="fill: none; stroke-dasharray: 1.85,0.8; stroke-dashoffset: 0; stroke: #b0b0b0; stroke-opacity: 0.6; stroke-width: 0.5"/>
     </g>
     <g id="line2d_24">
      <g>
       <use xlink:href="#mb77365e4de" x="43.78125" y="122.210344" style="stroke: #000000; stroke-width: 0.8"/>
      </g>
     </g>
     <g id="text_13">
      <!-- 0.6 -->
      <g transform="translate(20.878125 126.009563) scale(0.1 -0.1)">
       <use xlink:href="#DejaVuSans-30"/>
       <use xlink:href="#DejaVuSans-2e" transform="translate(63.623047 0)"/>
       <use xlink:href="#DejaVuSans-36" transform="translate(95.410156 0)"/>
      </g>
     </g>
    </g>
    <g id="ytick_5">
     <g id="line2d_25">
      <path d="M 43.78125 67.30775 
L 490.18125 67.30775 
" clip-path="url(#pd0c53b559b)" style="fill: none; stroke-dasharray: 1.85,0.8; stroke-dashoffset: 0; stroke: #b0b0b0; stroke-opacity: 0.6; stroke-width: 0.5"/>
     </g>
     <g id="line2d_26">
      <g>
       <use xlink:href="#mb77365e4de" x="43.78125" y="67.30775" style="stroke: #000000; stroke-width: 0.8"/>
      </g>
     </g>
     <g id="text_14">
      <!-- 0.8 -->
      <g transform="translate(20.878125 71.106969) scale(0.1 -0.1)">
       <use xlink:href="#DejaVuSans-30"/>
       <use xlink:href="#DejaVuSans-2e" transform="translate(63.623047 0)"/>
       <use xlink:href="#DejaVuSans-38" transform="translate(95.410156 0)"/>
      </g>
     </g>
    </g>
    <g id="text_15">
     <!-- Detection Ratio (Efficiency) -->
     <g transform="translate(14.798438 229.282969) rotate(-90) scale(0.1 -0.1)">
      <defs>
       <path id="DejaVuSans-65" d="M 3597 1894 
L 3597 1613 
L 953 1613 
Q 991 1019 1311 708 
Q 1631 397 2203 397 
Q 2534 397 2845 478 
Q 3156 559 3463 722 
L 3463 178 
Q 3153 47 2828 -22 
Q 2503 -91 2169 -91 
Q 1331 -91 842 396 
Q 353 884 353 1716 
Q 353 2575 817 3079 
Q 1281 3584 2069 3584 
Q 2775 3584 3186 3129 
Q 3597 2675 3597 1894 
z
M 3022 2063 
Q 3016 2534 2758 2815 
Q 2500 3097 2075 3097 
Q 1594 3097 1305 2825 
Q 1016 2553 972 2059 
L 3022 2063 
z
" transform="scale(0.015625)"/>
       <path id="DejaVuSans-63" d="M 3122 3366 
L 3122 2828 
Q 2878 2963 2633 3030 
Q 2388 3097 2138 3097 
Q 1578 3097 1268 2742 
Q 959 2388 959 1747 
Q 959 1106 1268 751 
Q 1578 397 2138 397 
Q 2388 397 2633 464 
Q 2878 531 3122 666 
L 3122 134 
Q 2881 22 2623 -34 
Q 2366 -91 2075 -91 
Q 1284 -91 818 406 
Q 353 903 353 1747 
Q 353 2603 823 3093 
Q 1294 3584 2113 3584 
Q 2378 3584 2631 3529 
Q 2884 3475 3122 3366 
z
" transform="scale(0.015625)"/>
       <path id="DejaVuSans-52" d="M 2841 2188 
Q 3044 2119 3236 1894 
Q 3428 1669 3622 1275 
L 4263 0 
L 3584 0 
L 2988 1197 
Q 2756 1666 2539 1819 
Q 2322 1972 1947 1972 
L 1259 1972 
L 1259 0 
L 628 0 
L 628 4666 
L 2053 4666 
Q 2853 4666 3247 4331 
Q 3641 3997 3641 3322 
Q 3641 2881 3436 2590 
Q 3231 2300 2841 2188 
z
M 1259 4147 
L 1259 2491 
L 2053 2491 
Q 2509 2491 2742 2702 
Q 2975 2913 2975 3322 
Q 2975 3731 2742 3939 
Q 2509 4147 2053 4147 
L 1259 4147 
z
" transform="scale(0.015625)"/>
       <path id="DejaVuSans-28" d="M 1984 4856 
Q 1566 4138 1362 3434 
Q 1159 2731 1159 2009 
Q 1159 1288 1364 580 
Q 1569 -128 1984 -844 
L 1484 -844 
Q 1016 -109 783 600 
Q 550 1309 550 2009 
Q 550 2706 781 3412 
Q 1013 4119 1484 4856 
L 1984 4856 
z
" transform="scale(0.015625)"/>
       <path id="DejaVuSans-45" d="M 628 4666 
L 3578 4666 
L 3578 4134 
L 1259 4134 
L 1259 2753 
L 3481 2753 
L 3481 2222 
L 1259 2222 
L 1259 531 
L 3634 531 
L 3634 0 
L 628 0 
L 628 4666 
z
" transform="scale(0.015625)"/>
       <path id="DejaVuSans-66" d="M 2375 4863 
L 2375 4384 
L 1825 4384 
Q 1516 4384 1395 4259 
Q 1275 4134 1275 3809 
L 1275 3500 
L 2222 3500 
L 2222 3053 
L 1275 3053 
L 1275 0 
L 697 0 
L 697 3053 
L 147 3053 
L 147 3500 
L 697 3500 
L 697 3744 
Q 697 4328 969 4595 
Q 1241 4863 1831 4863 
L 2375 4863 
z
" transform="scale(0.015625)"/>
       <path id="DejaVuSans-29" d="M 513 4856 
L 1013 4856 
Q 1481 4119 1714 3412 
Q 1947 2706 1947 2009 
Q 1947 1309 1714 600 
Q 1481 -109 1013 -844 
L 513 -844 
Q 928 -128 1133 580 
Q 1338 1288 1338 2009 
Q 1338 2731 1133 3434 
Q 928 4138 513 4856 
z
" transform="scale(0.015625)"/>
      </defs>
      <use xlink:href="#DejaVuSans-44"/>
      <use xlink:href="#DejaVuSans-65" transform="translate(77.001953 0)"/>
      <use xlink:href="#DejaVuSans-74" transform="translate(138.525391 0)"/>
      <use xlink:href="#DejaVuSans-65" transform="translate(177.734375 0)"/>
      <use xlink:href="#DejaVuSans-63" transform="translate(239.257812 0)"/>
      <use xlink:href="#DejaVuSans-74" transform="translate(294.238281 0)"/>
      <use xlink:href="#DejaVuSans-69" transform="translate(333.447266 0)"/>
      <use xlink:href="#DejaVuSans-6f" transform="translate(361.230469 0)"/>
      <use xlink:href="#DejaVuSans-6e" transform="translate(422.412109 0)"/>
      <use xlink:href="#DejaVuSans-20" transform="translate(485.791016 0)"/>
      <use xlink:href="#DejaVuSans-52" transform="translate(517.578125 0)"/>
      <use xlink:href="#DejaVuSans-61" transform="translate(584.810547 0)"/>
      <use xlink:href="#DejaVuSans-74" transform="translate(646.089844 0)"/>
      <use xlink:href="#DejaVuSans-69" transform="translate(685.298828 0)"/>
      <use xlink:href="#DejaVuSans-6f" transform="translate(713.082031 0)"/>
      <use xlink:href="#DejaVuSans-20" transform="translate(774.263672 0)"/>
      <use xlink:href="#DejaVuSans-28" transform="translate(806.050781 0)"/>
      <use xlink:href="#DejaVuSans-45" transform="translate(845.064453 0)"/>
      <use xlink:href="#DejaVuSans-66" transform="translate(908.248047 0)"/>
      <use xlink:href="#DejaVuSans-66" transform="translate(943.453125 0)"/>
      <use xlink:href="#DejaVuSans-69" transform="translate(978.658203 0)"/>
      <use xlink:href="#DejaVuSans-63" transform="translate(1006.441406 0)"/>
      <use xlink:href="#DejaVuSans-69" transform="translate(1061.421875 0)"/>
      <use xlink:href="#DejaVuSans-65" transform="translate(1089.205078 0)"/>
      <use xlink:href="#DejaVuSans-6e" transform="translate(1150.728516 0)"/>
      <use xlink:href="#DejaVuSans-63" transform="translate(1214.107422 0)"/>
      <use xlink:href="#DejaVuSans-79" transform="translate(1269.087891 0)"/>
      <use xlink:href="#DejaVuSans-29" transform="translate(1328.267578 0)"/>
     </g>
    </g>
   </g>
   <g id="line2d_27">
    <path d="M 64.072159 286.918125 
L 115.820786 286.918125 
L 118.544398 284.211582 
L 121.26801 279.965286 
L 126.715234 269.830399 
L 129.438846 264.342803 
L 134.88607 252.624036 
L 140.333294 239.529833 
L 143.056906 232.469858 
L 145.780518 224.763774 
L 153.951354 198.692557 
L 159.398578 179.597126 
L 164.845802 159.60943 
L 167.569414 152.741503 
L 170.293025 146.686241 
L 175.740249 117.235981 
L 178.463861 101.898776 
L 181.187473 85.39318 
L 183.911085 70.460337 
L 186.634697 57.483873 
L 189.358309 48.163904 
L 192.081921 42.573825 
L 194.805533 39.541825 
L 197.529145 37.491862 
L 205.699981 36.911487 
L 208.423593 37.833488 
L 211.147205 38.13699 
L 213.870817 38.088316 
L 216.594429 39.399624 
L 219.318041 39.125016 
L 222.041653 39.311912 
L 224.765265 39.670171 
L 230.212489 39.992447 
L 232.936101 38.725501 
L 238.383324 44.548983 
L 241.106936 44.861112 
L 243.830548 46.321817 
L 246.55416 46.117276 
L 249.277772 48.947467 
L 252.001384 47.704184 
L 257.448608 46.061919 
L 260.17222 49.95823 
L 262.895832 50.170994 
L 265.619444 52.42037 
L 268.343056 55.942272 
L 271.066668 56.540634 
L 273.79028 57.297315 
L 276.513892 54.889307 
L 279.237504 59.106533 
L 281.961116 60.146542 
L 284.684728 63.312491 
L 287.40834 64.629575 
L 290.131952 69.273572 
L 292.855564 72.827848 
L 295.579176 75.04051 
L 298.302788 71.286199 
L 301.026399 71.106043 
L 303.750011 71.100364 
L 306.473623 71.430129 
L 309.197235 75.904598 
L 311.920847 79.508327 
L 314.644459 82.654538 
L 317.368071 83.494172 
L 320.091683 92.24359 
L 325.538907 103.909479 
L 328.262519 99.860616 
L 330.986131 107.940507 
L 333.709743 113.143861 
L 336.433355 109.601136 
L 339.156967 114.835369 
L 341.880579 116.579309 
L 344.604191 123.655149 
L 347.327803 124.509929 
L 350.051415 116.839438 
L 352.775027 121.315193 
L 355.498639 120.641698 
L 358.222251 130.944848 
L 360.945863 129.594903 
L 366.393086 131.471022 
L 369.116698 139.10345 
L 371.84031 144.171381 
L 374.563922 150.582825 
L 377.287534 150.595358 
L 380.011146 148.752658 
L 382.734758 144.097189 
L 385.45837 148.76454 
L 388.181982 150.524889 
L 390.905594 141.892406 
L 393.629206 137.799969 
L 396.352818 142.437615 
L 399.07643 141.681613 
L 401.800042 143.976461 
L 404.523654 144.873624 
L 407.247266 137.040355 
L 409.970878 134.064313 
L 412.69449 134.955589 
L 415.418102 138.358166 
L 418.141714 143.350998 
L 420.865326 142.120076 
L 423.588938 142.202049 
L 426.31255 142.911322 
L 429.036162 148.919714 
L 431.759773 152.551251 
L 434.483385 158.812073 
L 439.930609 172.315624 
L 442.654221 167.39334 
L 445.377833 163.946252 
L 448.101445 163.210564 
L 450.825057 161.392964 
L 453.548669 159.424654 
L 456.272281 156.761114 
L 458.995893 154.314403 
L 461.719505 155.72518 
L 464.443117 159.032565 
L 467.166729 165.498927 
L 469.890341 176.096223 
L 469.890341 176.096223 
" clip-path="url(#pd0c53b559b)" style="fill: none; stroke: #1f77b4; stroke-width: 1.5; stroke-linecap: square"/>
   </g>
   <g id="line2d_28">
    <path d="M 64.072159 286.918125 
L 115.820786 286.918125 
L 118.544398 284.093071 
L 121.26801 279.815453 
L 126.715234 269.747321 
L 132.162458 258.13582 
L 134.88607 251.964546 
L 143.056906 230.515082 
L 145.780518 222.996571 
L 148.50413 214.508982 
L 153.951354 196.043564 
L 164.845802 155.124384 
L 167.569414 148.455748 
L 170.293025 142.84814 
L 173.016637 127.073258 
L 181.187473 76.733906 
L 183.911085 62.240805 
L 186.634697 50.945324 
L 189.358309 42.605248 
L 192.081921 38.594055 
L 194.805533 36.658978 
L 200.252757 35.216798 
L 202.976369 34.918125 
L 205.699981 36.610485 
L 208.423593 36.806309 
L 211.147205 36.656765 
L 213.870817 37.597369 
L 216.594429 38.222795 
L 219.318041 38.704869 
L 222.041653 38.836021 
L 224.765265 39.479917 
L 227.488877 41.280995 
L 232.936101 44.037191 
L 238.383324 43.439251 
L 241.106936 45.335916 
L 243.830548 45.714262 
L 246.55416 47.747559 
L 249.277772 48.337868 
L 252.001384 51.228643 
L 254.724996 54.526194 
L 257.448608 56.693758 
L 260.17222 56.262258 
L 262.895832 58.157318 
L 265.619444 61.519298 
L 268.343056 62.482149 
L 271.066668 63.756359 
L 273.79028 67.913294 
L 279.237504 74.01929 
L 281.961116 73.536196 
L 284.684728 75.0457 
L 287.40834 74.249458 
L 290.131952 76.214467 
L 292.855564 74.101253 
L 295.579176 76.144316 
L 298.302788 74.093464 
L 301.026399 78.447407 
L 303.750011 78.978661 
L 306.473623 82.296495 
L 309.197235 81.251266 
L 311.920847 82.608473 
L 314.644459 82.181028 
L 317.368071 84.79385 
L 320.091683 87.095964 
L 322.815295 89.831891 
L 325.538907 91.288194 
L 328.262519 87.47605 
L 330.986131 96.604513 
L 333.709743 104.312582 
L 336.433355 104.719252 
L 339.156967 112.896511 
L 341.880579 116.744927 
L 344.604191 115.508619 
L 347.327803 122.210344 
L 350.051415 128.056454 
L 352.775027 130.944848 
L 355.498639 134.26839 
L 358.222251 139.995691 
L 360.945863 150.294159 
L 363.669475 153.620963 
L 366.393086 159.419211 
L 369.116698 163.387289 
L 371.84031 165.188392 
L 374.563922 162.587139 
L 377.287534 151.559196 
L 380.011146 149.029122 
L 382.734758 140.765387 
L 385.45837 137.183779 
L 388.181982 131.812143 
L 390.905594 127.317562 
L 393.629206 119.879574 
L 396.352818 124.476965 
L 399.07643 129.685345 
L 401.800042 120.871256 
L 404.523654 122.748605 
L 407.247266 116.34696 
L 409.970878 118.405214 
L 412.69449 116.274928 
L 415.418102 111.106449 
L 418.141714 114.136433 
L 420.865326 126.384225 
L 423.588938 137.479113 
L 426.31255 138.358166 
L 429.036162 146.432077 
L 431.759773 148.849472 
L 434.483385 148.849472 
L 437.206997 158.289191 
L 439.930609 155.830472 
L 442.654221 152.014609 
L 445.377833 155.1519 
L 448.101445 162.803219 
L 450.825057 166.641824 
L 453.548669 177.397407 
L 456.272281 168.099079 
L 458.995893 170.046267 
L 461.719505 165.212868 
L 464.443117 165.68651 
L 467.166729 176.003794 
L 469.890341 164.463811 
L 469.890341 164.463811 
" clip-path="url(#pd0c53b559b)" style="fill: none; stroke: #ff7f0e; stroke-width: 1.5; stroke-linecap: square"/>
   </g>
   <g id="line2d_29">
    <path d="M 64.072159 286.918125 
L 115.820786 286.918125 
L 121.26801 285.385714 
L 126.715234 283.934288 
L 134.88607 281.625754 
L 140.333294 279.636985 
L 148.50413 275.905347 
L 153.951354 273.156427 
L 156.674966 271.606246 
L 162.12219 269.015923 
L 167.569414 265.339197 
L 170.293025 263.932913 
L 173.016637 258.853819 
L 175.740249 253.396405 
L 181.187473 243.105015 
L 186.634697 229.948492 
L 189.358309 223.95217 
L 192.081921 217.16713 
L 194.805533 209.616575 
L 197.529145 202.819221 
L 202.976369 187.375105 
L 208.423593 172.847179 
L 213.870817 154.068959 
L 222.041653 130.32805 
L 224.765265 122.83852 
L 227.488877 109.982775 
L 230.212489 99.873222 
L 232.936101 91.484209 
L 235.659712 89.621962 
L 238.383324 88.408115 
L 241.106936 88.936045 
L 243.830548 84.418208 
L 246.55416 86.765329 
L 249.277772 86.428701 
L 252.001384 87.919176 
L 254.724996 89.974402 
L 257.448608 92.762589 
L 260.17222 90.799726 
L 265.619444 97.428729 
L 268.343056 97.944004 
L 271.066668 96.336708 
L 273.79028 94.987536 
L 276.513892 97.809191 
L 279.237504 97.793509 
L 281.961116 97.122404 
L 284.684728 97.624842 
L 290.131952 102.813619 
L 292.855564 99.710705 
L 295.579176 97.119951 
L 301.026399 96.018281 
L 303.750011 96.181667 
L 306.473623 99.352491 
L 309.197235 101.013773 
L 311.920847 101.093962 
L 314.644459 100.916347 
L 317.368071 97.976531 
L 320.091683 102.501721 
L 322.815295 103.408086 
L 325.538907 97.410593 
L 328.262519 98.040398 
L 330.986131 95.769524 
L 333.709743 97.352166 
L 336.433355 95.135092 
L 339.156967 99.931031 
L 341.880579 106.893316 
L 344.604191 112.228054 
L 347.327803 111.477506 
L 350.051415 112.228054 
L 352.775027 106.873182 
L 355.498639 107.69065 
L 358.222251 117.0351 
L 360.945863 120.826245 
L 363.669475 116.813935 
L 366.393086 120.765539 
L 369.116698 125.736199 
L 371.84031 129.876922 
L 374.563922 123.45813 
L 377.287534 124.993425 
L 380.011146 126.893978 
L 382.734758 131.583958 
L 385.45837 127.918039 
L 388.181982 133.824354 
L 390.905594 139.000943 
L 393.629206 138.706898 
L 396.352818 140.927137 
L 399.07643 136.61917 
L 401.800042 140.927137 
L 404.523654 142.703939 
L 407.247266 143.365472 
L 409.970878 142.367818 
L 412.69449 146.46963 
L 415.418102 149.029122 
L 418.141714 149.661641 
L 420.865326 141.818413 
L 423.588938 147.710127 
L 426.31255 147.710127 
L 429.036162 148.425096 
L 431.759773 152.112649 
L 434.483385 153.857254 
L 437.206997 156.371958 
L 439.930609 153.97014 
L 442.654221 161.150069 
L 445.377833 166.371126 
L 448.101445 160.790545 
L 453.548669 161.916684 
L 456.272281 169.44096 
L 458.995893 170.104096 
L 467.166729 161.397325 
L 469.890341 157.561295 
L 469.890341 157.561295 
" clip-path="url(#pd0c53b559b)" style="fill: none; stroke: #2ca02c; stroke-width: 1.5; stroke-linecap: square"/>
   </g>
   <g id="line2d_30">
    <path d="M 64.072159 286.918125 
L 115.820786 286.918125 
L 121.26801 285.346452 
L 129.438846 283.036935 
L 132.162458 282.167592 
L 134.88607 281.151486 
L 137.609682 280.265416 
L 145.780518 276.99438 
L 148.50413 275.610182 
L 151.227742 274.505835 
L 153.951354 273.157274 
L 156.674966 271.612607 
L 159.398578 270.374221 
L 162.12219 268.640203 
L 170.293025 262.514941 
L 173.016637 257.656057 
L 175.740249 252.495958 
L 186.634697 230.087577 
L 192.081921 217.480006 
L 197.529145 204.107238 
L 200.252757 197.0245 
L 205.699981 180.306666 
L 208.423593 173.246558 
L 211.147205 163.098275 
L 213.870817 153.989307 
L 216.594429 147.021013 
L 219.318041 138.356773 
L 222.041653 133.692915 
L 224.765265 128.293153 
L 227.488877 118.553809 
L 230.212489 115.509294 
L 232.936101 112.009862 
L 235.659712 110.809457 
L 238.383324 109.898853 
L 241.106936 108.338036 
L 243.830548 108.925091 
L 246.55416 110.58167 
L 249.277772 109.845256 
L 252.001384 107.477309 
L 254.724996 106.248248 
L 257.448608 107.959032 
L 260.17222 107.081629 
L 265.619444 106.83549 
L 268.343056 107.322443 
L 271.066668 107.463045 
L 273.79028 109.90459 
L 276.513892 110.747881 
L 279.237504 110.181502 
L 281.961116 112.768497 
L 284.684728 115.751215 
L 287.40834 113.815225 
L 290.131952 113.31767 
L 292.855564 111.456228 
L 295.579176 111.313646 
L 298.302788 110.538139 
L 301.026399 114.240613 
L 303.750011 115.404997 
L 306.473623 118.820132 
L 309.197235 121.025396 
L 311.920847 115.155821 
L 320.091683 113.224291 
L 322.815295 118.94099 
L 325.538907 117.761946 
L 328.262519 122.947292 
L 330.986131 123.711098 
L 333.709743 121.57928 
L 336.433355 124.942464 
L 339.156967 126.454023 
L 341.880579 125.399131 
L 344.604191 123.903997 
L 347.327803 128.375876 
L 350.051415 125.660507 
L 352.775027 126.208852 
L 355.498639 127.244393 
L 358.222251 130.631981 
L 360.945863 132.346207 
L 363.669475 129.564897 
L 366.393086 128.943681 
L 369.116698 125.182777 
L 371.84031 123.454092 
L 374.563922 128.086207 
L 377.287534 129.25865 
L 380.011146 121.640421 
L 382.734758 117.394327 
L 385.45837 116.431124 
L 388.181982 120.607349 
L 390.905594 122.210344 
L 393.629206 122.005484 
L 396.352818 130.199901 
L 399.07643 134.993009 
L 401.800042 132.697356 
L 404.523654 134.064313 
L 407.247266 142.978741 
L 409.970878 145.470603 
L 412.69449 146.56563 
L 415.418102 152.757652 
L 418.141714 155.900572 
L 420.865326 150.678356 
L 423.588938 149.155159 
L 426.31255 148.206625 
L 429.036162 156.885666 
L 431.759773 161.179667 
L 434.483385 162.309849 
L 437.206997 153.371276 
L 439.930609 149.661641 
L 442.654221 148.727923 
L 445.377833 151.529076 
L 448.101445 156.153502 
L 450.825057 150.582825 
L 453.548669 160.954896 
L 456.272281 163.345822 
L 458.995893 167.258626 
L 461.719505 168.209814 
L 467.166729 162.204662 
L 469.890341 165.605576 
L 469.890341 165.605576 
" clip-path="url(#pd0c53b559b)" style="fill: none; stroke: #d62728; stroke-width: 1.5; stroke-linecap: square"/>
   </g>
   <g id="line2d_31">
    <path d="M 64.072159 286.918125 
L 115.820786 286.918125 
L 118.544398 286.05792 
L 134.88607 281.642946 
L 140.333294 279.86763 
L 143.056906 278.685399 
L 145.780518 277.699214 
L 148.50413 276.463095 
L 151.227742 275.512651 
L 153.951354 274.111605 
L 156.674966 273.006775 
L 159.398578 271.604171 
L 164.845802 268.350529 
L 170.293025 265.349249 
L 173.016637 260.310485 
L 175.740249 255.559258 
L 181.187473 244.416824 
L 186.634697 232.251325 
L 189.358309 225.784336 
L 192.081921 218.599484 
L 194.805533 211.932397 
L 197.529145 206.6583 
L 200.252757 200.592285 
L 205.699981 187.938055 
L 211.147205 176.182057 
L 216.594429 169.80399 
L 219.318041 165.462162 
L 222.041653 160.682234 
L 224.765265 157.386567 
L 227.488877 146.820961 
L 230.212489 139.270625 
L 232.936101 132.397572 
L 235.659712 125.098387 
L 238.383324 119.658933 
L 243.830548 114.667815 
L 246.55416 111.657829 
L 249.277772 112.14104 
L 252.001384 113.994992 
L 254.724996 113.017549 
L 257.448608 112.450873 
L 260.17222 112.48077 
L 262.895832 109.465099 
L 265.619444 108.639496 
L 268.343056 112.007207 
L 271.066668 114.169055 
L 273.79028 114.456707 
L 276.513892 111.960289 
L 279.237504 109.273882 
L 281.961116 112.198695 
L 284.684728 111.365387 
L 287.40834 110.743347 
L 290.131952 108.030204 
L 292.855564 110.635872 
L 295.579176 112.592371 
L 298.302788 116.768815 
L 301.026399 119.656735 
L 303.750011 120.707374 
L 306.473623 124.04043 
L 309.197235 122.496295 
L 311.920847 125.727236 
L 314.644459 126.950136 
L 317.368071 125.19754 
L 320.091683 120.172943 
L 322.815295 119.585519 
L 325.538907 122.77635 
L 328.262519 129.476864 
L 330.986131 127.797776 
L 333.709743 129.605899 
L 336.433355 130.859383 
L 339.156967 133.140027 
L 341.880579 129.122072 
L 344.604191 134.41092 
L 347.327803 135.697582 
L 350.051415 141.061611 
L 352.775027 143.05943 
L 355.498639 142.096323 
L 358.222251 137.452843 
L 360.945863 140.412552 
L 363.669475 140.462145 
L 366.393086 142.242371 
L 369.116698 141.934064 
L 371.84031 140.758518 
L 374.563922 142.911322 
L 377.287534 143.020198 
L 380.011146 142.242371 
L 382.734758 142.016054 
L 385.45837 135.565029 
L 388.181982 136.571785 
L 390.905594 134.660932 
L 393.629206 135.436179 
L 396.352818 136.698528 
L 399.07643 137.386671 
L 401.800042 134.99588 
L 404.523654 137.386671 
L 407.247266 141.975278 
L 409.970878 145.281115 
L 412.69449 147.057859 
L 415.418102 153.432423 
L 418.141714 148.144995 
L 420.865326 145.502353 
L 423.588938 143.958463 
L 429.036162 134.660932 
L 431.759773 138.926497 
L 434.483385 141.226885 
L 437.206997 147.423763 
L 439.930609 142.721706 
L 442.654221 143.628389 
L 445.377833 142.28226 
L 448.101445 140.119746 
L 450.825057 141.544322 
L 453.548669 144.382545 
L 456.272281 142.632333 
L 458.995893 149.295624 
L 461.719505 148.2244 
L 464.443117 148.563589 
L 467.166729 147.888301 
L 469.890341 146.846123 
L 469.890341 146.846123 
" clip-path="url(#pd0c53b559b)" style="fill: none; stroke: #9467bd; stroke-width: 1.5; stroke-linecap: square"/>
   </g>
   <g id="line2d_32">
    <path d="M 64.072159 286.918125 
L 115.820786 286.918125 
L 123.991622 284.449355 
L 129.438846 282.92137 
L 132.162458 282.247325 
L 137.609682 280.569233 
L 140.333294 279.96256 
L 145.780518 277.846989 
L 153.951354 274.072082 
L 156.674966 272.189805 
L 162.12219 269.323093 
L 164.845802 267.642005 
L 167.569414 266.379824 
L 170.293025 264.652978 
L 173.016637 259.567417 
L 175.740249 254.095366 
L 178.463861 248.057163 
L 181.187473 242.927848 
L 186.634697 231.390769 
L 192.081921 218.432561 
L 194.805533 212.45995 
L 197.529145 207.514201 
L 200.252757 201.272732 
L 202.976369 194.596278 
L 205.699981 189.153949 
L 208.423593 184.697658 
L 211.147205 181.15818 
L 213.870817 177.134234 
L 216.594429 175.091847 
L 219.318041 171.480709 
L 222.041653 167.091036 
L 224.765265 163.72948 
L 227.488877 157.603192 
L 230.212489 149.108745 
L 232.936101 144.813889 
L 235.659712 141.054799 
L 238.383324 134.375902 
L 241.106936 128.30701 
L 243.830548 122.685397 
L 246.55416 115.236327 
L 249.277772 111.446595 
L 252.001384 109.806713 
L 254.724996 108.668248 
L 257.448608 105.248911 
L 260.17222 104.643275 
L 262.895832 107.24518 
L 265.619444 108.712856 
L 268.343056 108.597716 
L 271.066668 108.954395 
L 273.79028 110.602681 
L 276.513892 109.342549 
L 279.237504 109.485369 
L 281.961116 106.613016 
L 284.684728 110.906869 
L 290.131952 113.486855 
L 292.855564 113.084055 
L 295.579176 111.514062 
L 298.302788 116.781257 
L 301.026399 116.585403 
L 303.750011 119.068328 
L 306.473623 119.656735 
L 309.197235 121.225143 
L 311.920847 121.745068 
L 314.644459 122.683642 
L 317.368071 124.390591 
L 320.091683 125.648075 
L 322.815295 128.8959 
L 325.538907 126.659173 
L 328.262519 128.345293 
L 330.986131 132.573484 
L 333.709743 135.935992 
L 336.433355 127.926883 
L 339.156967 125.830295 
L 341.880579 123.44411 
L 344.604191 119.795647 
L 347.327803 123.472473 
L 350.051415 120.93354 
L 352.775027 124.027451 
L 355.498639 125.479977 
L 358.222251 132.972887 
L 360.945863 136.356165 
L 363.669475 132.593477 
L 366.393086 137.312086 
L 369.116698 136.190845 
L 371.84031 144.799695 
L 377.287534 143.16203 
L 380.011146 146.313922 
L 382.734758 149.289672 
L 385.45837 142.874232 
L 388.181982 147.423763 
L 390.905594 147.399171 
L 393.629206 146.201393 
L 396.352818 146.542175 
L 399.07643 142.102588 
L 401.800042 146.52435 
L 404.523654 146.450963 
L 407.247266 138.599178 
L 409.970878 141.876945 
L 412.69449 139.598849 
L 415.418102 142.479616 
L 418.141714 140.88361 
L 420.865326 149.270597 
L 423.588938 153.890832 
L 426.31255 151.203849 
L 429.036162 150.428437 
L 431.759773 153.453256 
L 434.483385 152.265422 
L 437.206997 150.428437 
L 439.930609 151.92411 
L 442.654221 148.52729 
L 448.101445 144.877903 
L 450.825057 145.547686 
L 453.548669 142.594234 
L 456.272281 146.087253 
L 458.995893 146.049628 
L 461.719505 141.287903 
L 464.443117 145.677943 
L 467.166729 142.780709 
L 469.890341 148.231886 
L 469.890341 148.231886 
" clip-path="url(#pd0c53b559b)" style="fill: none; stroke: #8c564b; stroke-width: 1.5; stroke-linecap: square"/>
   </g>
   <g id="patch_3">
    <path d="M 43.78125 299.518125 
L 43.78125 22.318125 
" style="fill: none; stroke: #000000; stroke-width: 0.8; stroke-linejoin: miter; stroke-linecap: square"/>
   </g>
   <g id="patch_4">
    <path d="M 490.18125 299.518125 
L 490.18125 22.318125 
" style="fill: none; stroke: #000000; stroke-width: 0.8; stroke-linejoin: miter; stroke-linecap: square"/>
   </g>
   <g id="patch_5">
    <path d="M 43.78125 299.518125 
L 490.18125 299.518125 
" style="fill: none; stroke: #000000; stroke-width: 0.8; stroke-linejoin: miter; stroke-linecap: square"/>
   </g>
   <g id="patch_6">
    <path d="M 43.78125 22.318125 
L 490.18125 22.318125 
" style="fill: none; stroke: #000000; stroke-width: 0.8; stroke-linejoin: miter; stroke-linecap: square"/>
   </g>
   <g id="text_16">
    <!-- Detection Ratio: SBM-4k (Peak 25) -->
    <g transform="translate(163.664062 16.318125) scale(0.12 -0.12)">
     <defs>
      <path id="DejaVuSans-3a" d="M 750 794 
L 1409 794 
L 1409 0 
L 750 0 
L 750 794 
z
M 750 3309 
L 1409 3309 
L 1409 2516 
L 750 2516 
L 750 3309 
z
" transform="scale(0.015625)"/>
      <path id="DejaVuSans-42" d="M 1259 2228 
L 1259 519 
L 2272 519 
Q 2781 519 3026 730 
Q 3272 941 3272 1375 
Q 3272 1813 3026 2020 
Q 2781 2228 2272 2228 
L 1259 2228 
z
M 1259 4147 
L 1259 2741 
L 2194 2741 
Q 2656 2741 2882 2914 
Q 3109 3088 3109 3444 
Q 3109 3797 2882 3972 
Q 2656 4147 2194 4147 
L 1259 4147 
z
M 628 4666 
L 2241 4666 
Q 2963 4666 3353 4366 
Q 3744 4066 3744 3513 
Q 3744 3084 3544 2831 
Q 3344 2578 2956 2516 
Q 3422 2416 3680 2098 
Q 3938 1781 3938 1306 
Q 3938 681 3513 340 
Q 3088 0 2303 0 
L 628 0 
L 628 4666 
z
" transform="scale(0.015625)"/>
      <path id="DejaVuSans-4d" d="M 628 4666 
L 1569 4666 
L 2759 1491 
L 3956 4666 
L 4897 4666 
L 4897 0 
L 4281 0 
L 4281 4097 
L 3078 897 
L 2444 897 
L 1241 4097 
L 1241 0 
L 628 0 
L 628 4666 
z
" transform="scale(0.015625)"/>
      <path id="DejaVuSans-2d" d="M 313 2009 
L 1997 2009 
L 1997 1497 
L 313 1497 
L 313 2009 
z
" transform="scale(0.015625)"/>
      <path id="DejaVuSans-6b" d="M 581 4863 
L 1159 4863 
L 1159 1991 
L 2875 3500 
L 3609 3500 
L 1753 1863 
L 3688 0 
L 2938 0 
L 1159 1709 
L 1159 0 
L 581 0 
L 581 4863 
z
" transform="scale(0.015625)"/>
      <path id="DejaVuSans-50" d="M 1259 4147 
L 1259 2394 
L 2053 2394 
Q 2494 2394 2734 2622 
Q 2975 2850 2975 3272 
Q 2975 3691 2734 3919 
Q 2494 4147 2053 4147 
L 1259 4147 
z
M 628 4666 
L 2053 4666 
Q 2838 4666 3239 4311 
Q 3641 3956 3641 3272 
Q 3641 2581 3239 2228 
Q 2838 1875 2053 1875 
L 1259 1875 
L 1259 0 
L 628 0 
L 628 4666 
z
" transform="scale(0.015625)"/>
      <path id="DejaVuSans-35" d="M 691 4666 
L 3169 4666 
L 3169 4134 
L 1269 4134 
L 1269 2991 
Q 1406 3038 1543 3061 
Q 1681 3084 1819 3084 
Q 2600 3084 3056 2656 
Q 3513 2228 3513 1497 
Q 3513 744 3044 326 
Q 2575 -91 1722 -91 
Q 1428 -91 1123 -41 
Q 819 9 494 109 
L 494 744 
Q 775 591 1075 516 
Q 1375 441 1709 441 
Q 2250 441 2565 725 
Q 2881 1009 2881 1497 
Q 2881 1984 2565 2268 
Q 2250 2553 1709 2553 
Q 1456 2553 1204 2497 
Q 953 2441 691 2322 
L 691 4666 
z
" transform="scale(0.015625)"/>
     </defs>
     <use xlink:href="#DejaVuSans-44"/>
     <use xlink:href="#DejaVuSans-65" transform="translate(77.001953 0)"/>
     <use xlink:href="#DejaVuSans-74" transform="translate(138.525391 0)"/>
     <use xlink:href="#DejaVuSans-65" transform="translate(177.734375 0)"/>
     <use xlink:href="#DejaVuSans-63" transform="translate(239.257812 0)"/>
     <use xlink:href="#DejaVuSans-74" transform="translate(294.238281 0)"/>
     <use xlink:href="#DejaVuSans-69" transform="translate(333.447266 0)"/>
     <use xlink:href="#DejaVuSans-6f" transform="translate(361.230469 0)"/>
     <use xlink:href="#DejaVuSans-6e" transform="translate(422.412109 0)"/>
     <use xlink:href="#DejaVuSans-20" transform="translate(485.791016 0)"/>
     <use xlink:href="#DejaVuSans-52" transform="translate(517.578125 0)"/>
     <use xlink:href="#DejaVuSans-61" transform="translate(584.810547 0)"/>
     <use xlink:href="#DejaVuSans-74" transform="translate(646.089844 0)"/>
     <use xlink:href="#DejaVuSans-69" transform="translate(685.298828 0)"/>
     <use xlink:href="#DejaVuSans-6f" transform="translate(713.082031 0)"/>
     <use xlink:href="#DejaVuSans-3a" transform="translate(774.263672 0)"/>
     <use xlink:href="#DejaVuSans-20" transform="translate(807.955078 0)"/>
     <use xlink:href="#DejaVuSans-53" transform="translate(839.742188 0)"/>
     <use xlink:href="#DejaVuSans-42" transform="translate(903.21875 0)"/>
     <use xlink:href="#DejaVuSans-4d" transform="translate(971.822266 0)"/>
     <use xlink:href="#DejaVuSans-2d" transform="translate(1058.101562 0)"/>
     <use xlink:href="#DejaVuSans-34" transform="translate(1094.185547 0)"/>
     <use xlink:href="#DejaVuSans-6b" transform="translate(1157.808594 0)"/>
     <use xlink:href="#DejaVuSans-20" transform="translate(1215.71875 0)"/>
     <use xlink:href="#DejaVuSans-28" transform="translate(1247.505859 0)"/>
     <use xlink:href="#DejaVuSans-50" transform="translate(1286.519531 0)"/>
     <use xlink:href="#DejaVuSans-65" transform="translate(1343.197266 0)"/>
     <use xlink:href="#DejaVuSans-61" transform="translate(1404.720703 0)"/>
     <use xlink:href="#DejaVuSans-6b" transform="translate(1466 0)"/>
     <use xlink:href="#DejaVuSans-20" transform="translate(1523.910156 0)"/>
     <use xlink:href="#DejaVuSans-32" transform="translate(1555.697266 0)"/>
     <use xlink:href="#DejaVuSans-35" transform="translate(1619.320312 0)"/>
     <use xlink:href="#DejaVuSans-29" transform="translate(1682.943359 0)"/>
    </g>
   </g>
   <g id="legend_1">
    <g id="patch_7">
     <path d="M 377.536406 108.78 
L 483.88125 108.78 
Q 485.68125 108.78 485.68125 106.98 
L 485.68125 28.618125 
Q 485.68125 26.818125 483.88125 26.818125 
L 377.536406 26.818125 
Q 375.736406 26.818125 375.736406 28.618125 
L 375.736406 106.98 
Q 375.736406 108.78 377.536406 108.78 
z
" style="fill: #ffffff; opacity: 0.8; stroke: #cccccc; stroke-linejoin: miter"/>
    </g>
    <g id="line2d_33">
     <path d="M 379.336406 34.106719 
L 388.336406 34.106719 
L 397.336406 34.106719 
" style="fill: none; stroke: #1f77b4; stroke-width: 1.5; stroke-linecap: square"/>
    </g>
    <g id="text_17">
     <!-- LocalGNTS-14 -->
     <g transform="translate(404.536406 37.256719) scale(0.09 -0.09)">
      <defs>
       <path id="DejaVuSans-4c" d="M 628 4666 
L 1259 4666 
L 1259 531 
L 3531 531 
L 3531 0 
L 628 0 
L 628 4666 
z
" transform="scale(0.015625)"/>
       <path id="DejaVuSans-47" d="M 3809 666 
L 3809 1919 
L 2778 1919 
L 2778 2438 
L 4434 2438 
L 4434 434 
Q 4069 175 3628 42 
Q 3188 -91 2688 -91 
Q 1594 -91 976 548 
Q 359 1188 359 2328 
Q 359 3472 976 4111 
Q 1594 4750 2688 4750 
Q 3144 4750 3555 4637 
Q 3966 4525 4313 4306 
L 4313 3634 
Q 3963 3931 3569 4081 
Q 3175 4231 2741 4231 
Q 1884 4231 1454 3753 
Q 1025 3275 1025 2328 
Q 1025 1384 1454 906 
Q 1884 428 2741 428 
Q 3075 428 3337 486 
Q 3600 544 3809 666 
z
" transform="scale(0.015625)"/>
       <path id="DejaVuSans-4e" d="M 628 4666 
L 1478 4666 
L 3547 763 
L 3547 4666 
L 4159 4666 
L 4159 0 
L 3309 0 
L 1241 3903 
L 1241 0 
L 628 0 
L 628 4666 
z
" transform="scale(0.015625)"/>
       <path id="DejaVuSans-54" d="M -19 4666 
L 3928 4666 
L 3928 4134 
L 2272 4134 
L 2272 0 
L 1638 0 
L 1638 4134 
L -19 4134 
L -19 4666 
z
" transform="scale(0.015625)"/>
      </defs>
      <use xlink:href="#DejaVuSans-4c"/>
      <use xlink:href="#DejaVuSans-6f" transform="translate(53.962891 0)"/>
      <use xlink:href="#DejaVuSans-63" transform="translate(115.144531 0)"/>
      <use xlink:href="#DejaVuSans-61" transform="translate(170.125 0)"/>
      <use xlink:href="#DejaVuSans-6c" transform="translate(231.404297 0)"/>
      <use xlink:href="#DejaVuSans-47" transform="translate(259.1875 0)"/>
      <use xlink:href="#DejaVuSans-4e" transform="translate(336.677734 0)"/>
      <use xlink:href="#DejaVuSans-54" transform="translate(411.482422 0)"/>
      <use xlink:href="#DejaVuSans-53" transform="translate(472.566406 0)"/>
      <use xlink:href="#DejaVuSans-2d" transform="translate(536.042969 0)"/>
      <use xlink:href="#DejaVuSans-31" transform="translate(572.126953 0)"/>
      <use xlink:href="#DejaVuSans-34" transform="translate(635.75 0)"/>
     </g>
    </g>
    <g id="line2d_34">
     <path d="M 379.336406 47.317031 
L 388.336406 47.317031 
L 397.336406 47.317031 
" style="fill: none; stroke: #ff7f0e; stroke-width: 1.5; stroke-linecap: square"/>
    </g>
    <g id="text_18">
     <!-- GlobalGNTS-14 -->
     <g transform="translate(404.536406 50.467031) scale(0.09 -0.09)">
      <defs>
       <path id="DejaVuSans-62" d="M 3116 1747 
Q 3116 2381 2855 2742 
Q 2594 3103 2138 3103 
Q 1681 3103 1420 2742 
Q 1159 2381 1159 1747 
Q 1159 1113 1420 752 
Q 1681 391 2138 391 
Q 2594 391 2855 752 
Q 3116 1113 3116 1747 
z
M 1159 2969 
Q 1341 3281 1617 3432 
Q 1894 3584 2278 3584 
Q 2916 3584 3314 3078 
Q 3713 2572 3713 1747 
Q 3713 922 3314 415 
Q 2916 -91 2278 -91 
Q 1894 -91 1617 61 
Q 1341 213 1159 525 
L 1159 0 
L 581 0 
L 581 4863 
L 1159 4863 
L 1159 2969 
z
" transform="scale(0.015625)"/>
      </defs>
      <use xlink:href="#DejaVuSans-47"/>
      <use xlink:href="#DejaVuSans-6c" transform="translate(77.490234 0)"/>
      <use xlink:href="#DejaVuSans-6f" transform="translate(105.273438 0)"/>
      <use xlink:href="#DejaVuSans-62" transform="translate(166.455078 0)"/>
      <use xlink:href="#DejaVuSans-61" transform="translate(229.931641 0)"/>
      <use xlink:href="#DejaVuSans-6c" transform="translate(291.210938 0)"/>
      <use xlink:href="#DejaVuSans-47" transform="translate(318.994141 0)"/>
      <use xlink:href="#DejaVuSans-4e" transform="translate(396.484375 0)"/>
      <use xlink:href="#DejaVuSans-54" transform="translate(471.289062 0)"/>
      <use xlink:href="#DejaVuSans-53" transform="translate(532.373047 0)"/>
      <use xlink:href="#DejaVuSans-2d" transform="translate(595.849609 0)"/>
      <use xlink:href="#DejaVuSans-31" transform="translate(631.933594 0)"/>
      <use xlink:href="#DejaVuSans-34" transform="translate(695.556641 0)"/>
     </g>
    </g>
    <g id="line2d_35">
     <path d="M 379.336406 60.527344 
L 388.336406 60.527344 
L 397.336406 60.527344 
" style="fill: none; stroke: #2ca02c; stroke-width: 1.5; stroke-linecap: square"/>
    </g>
    <g id="text_19">
     <!-- Beta-Binomial-14 -->
     <g transform="translate(404.536406 63.677344) scale(0.09 -0.09)">
      <use xlink:href="#DejaVuSans-42"/>
      <use xlink:href="#DejaVuSans-65" transform="translate(68.603516 0)"/>
      <use xlink:href="#DejaVuSans-74" transform="translate(130.126953 0)"/>
      <use xlink:href="#DejaVuSans-61" transform="translate(169.335938 0)"/>
      <use xlink:href="#DejaVuSans-2d" transform="translate(230.615234 0)"/>
      <use xlink:href="#DejaVuSans-42" transform="translate(263.074219 0)"/>
      <use xlink:href="#DejaVuSans-69" transform="translate(331.677734 0)"/>
      <use xlink:href="#DejaVuSans-6e" transform="translate(359.460938 0)"/>
      <use xlink:href="#DejaVuSans-6f" transform="translate(422.839844 0)"/>
      <use xlink:href="#DejaVuSans-6d" transform="translate(484.021484 0)"/>
      <use xlink:href="#DejaVuSans-69" transform="translate(581.433594 0)"/>
      <use xlink:href="#DejaVuSans-61" transform="translate(609.216797 0)"/>
      <use xlink:href="#DejaVuSans-6c" transform="translate(670.496094 0)"/>
      <use xlink:href="#DejaVuSans-2d" transform="translate(698.279297 0)"/>
      <use xlink:href="#DejaVuSans-31" transform="translate(734.363281 0)"/>
      <use xlink:href="#DejaVuSans-34" transform="translate(797.986328 0)"/>
     </g>
    </g>
    <g id="line2d_36">
     <path d="M 379.336406 73.737656 
L 388.336406 73.737656 
L 397.336406 73.737656 
" style="fill: none; stroke: #d62728; stroke-width: 1.5; stroke-linecap: square"/>
    </g>
    <g id="text_20">
     <!-- Proportional -->
     <g transform="translate(404.536406 76.887656) scale(0.09 -0.09)">
      <defs>
       <path id="DejaVuSans-72" d="M 2631 2963 
Q 2534 3019 2420 3045 
Q 2306 3072 2169 3072 
Q 1681 3072 1420 2755 
Q 1159 2438 1159 1844 
L 1159 0 
L 581 0 
L 581 3500 
L 1159 3500 
L 1159 2956 
Q 1341 3275 1631 3429 
Q 1922 3584 2338 3584 
Q 2397 3584 2469 3576 
Q 2541 3569 2628 3553 
L 2631 2963 
z
" transform="scale(0.015625)"/>
       <path id="DejaVuSans-70" d="M 1159 525 
L 1159 -1331 
L 581 -1331 
L 581 3500 
L 1159 3500 
L 1159 2969 
Q 1341 3281 1617 3432 
Q 1894 3584 2278 3584 
Q 2916 3584 3314 3078 
Q 3713 2572 3713 1747 
Q 3713 922 3314 415 
Q 2916 -91 2278 -91 
Q 1894 -91 1617 61 
Q 1341 213 1159 525 
z
M 3116 1747 
Q 3116 2381 2855 2742 
Q 2594 3103 2138 3103 
Q 1681 3103 1420 2742 
Q 1159 2381 1159 1747 
Q 1159 1113 1420 752 
Q 1681 391 2138 391 
Q 2594 391 2855 752 
Q 3116 1113 3116 1747 
z
" transform="scale(0.015625)"/>
      </defs>
      <use xlink:href="#DejaVuSans-50"/>
      <use xlink:href="#DejaVuSans-72" transform="translate(58.552734 0)"/>
      <use xlink:href="#DejaVuSans-6f" transform="translate(97.416016 0)"/>
      <use xlink:href="#DejaVuSans-70" transform="translate(158.597656 0)"/>
      <use xlink:href="#DejaVuSans-6f" transform="translate(222.074219 0)"/>
      <use xlink:href="#DejaVuSans-72" transform="translate(283.255859 0)"/>
      <use xlink:href="#DejaVuSans-74" transform="translate(324.369141 0)"/>
      <use xlink:href="#DejaVuSans-69" transform="translate(363.578125 0)"/>
      <use xlink:href="#DejaVuSans-6f" transform="translate(391.361328 0)"/>
      <use xlink:href="#DejaVuSans-6e" transform="translate(452.542969 0)"/>
      <use xlink:href="#DejaVuSans-61" transform="translate(515.921875 0)"/>
      <use xlink:href="#DejaVuSans-6c" transform="translate(577.201172 0)"/>
     </g>
    </g>
    <g id="line2d_37">
     <path d="M 379.336406 86.947969 
L 388.336406 86.947969 
L 397.336406 86.947969 
" style="fill: none; stroke: #9467bd; stroke-width: 1.5; stroke-linecap: square"/>
    </g>
    <g id="text_21">
     <!-- Uniform -->
     <g transform="translate(404.536406 90.097969) scale(0.09 -0.09)">
      <defs>
       <path id="DejaVuSans-55" d="M 556 4666 
L 1191 4666 
L 1191 1831 
Q 1191 1081 1462 751 
Q 1734 422 2344 422 
Q 2950 422 3222 751 
Q 3494 1081 3494 1831 
L 3494 4666 
L 4128 4666 
L 4128 1753 
Q 4128 841 3676 375 
Q 3225 -91 2344 -91 
Q 1459 -91 1007 375 
Q 556 841 556 1753 
L 556 4666 
z
" transform="scale(0.015625)"/>
      </defs>
      <use xlink:href="#DejaVuSans-55"/>
      <use xlink:href="#DejaVuSans-6e" transform="translate(73.193359 0)"/>
      <use xlink:href="#DejaVuSans-69" transform="translate(136.572266 0)"/>
      <use xlink:href="#DejaVuSans-66" transform="translate(164.355469 0)"/>
      <use xlink:href="#DejaVuSans-6f" transform="translate(199.560547 0)"/>
      <use xlink:href="#DejaVuSans-72" transform="translate(260.742188 0)"/>
      <use xlink:href="#DejaVuSans-6d" transform="translate(300.105469 0)"/>
     </g>
    </g>
    <g id="line2d_38">
     <path d="M 379.336406 100.158281 
L 388.336406 100.158281 
L 397.336406 100.158281 
" style="fill: none; stroke: #8c564b; stroke-width: 1.5; stroke-linecap: square"/>
    </g>
    <g id="text_22">
     <!-- Random -->
     <g transform="translate(404.536406 103.308281) scale(0.09 -0.09)">
      <defs>
       <path id="DejaVuSans-64" d="M 2906 2969 
L 2906 4863 
L 3481 4863 
L 3481 0 
L 2906 0 
L 2906 525 
Q 2725 213 2448 61 
Q 2172 -91 1784 -91 
Q 1150 -91 751 415 
Q 353 922 353 1747 
Q 353 2572 751 3078 
Q 1150 3584 1784 3584 
Q 2172 3584 2448 3432 
Q 2725 3281 2906 2969 
z
M 947 1747 
Q 947 1113 1208 752 
Q 1469 391 1925 391 
Q 2381 391 2643 752 
Q 2906 1113 2906 1747 
Q 2906 2381 2643 2742 
Q 2381 3103 1925 3103 
Q 1469 3103 1208 2742 
Q 947 2381 947 1747 
z
" transform="scale(0.015625)"/>
      </defs>
      <use xlink:href="#DejaVuSans-52"/>
      <use xlink:href="#DejaVuSans-61" transform="translate(67.232422 0)"/>
      <use xlink:href="#DejaVuSans-6e" transform="translate(128.511719 0)"/>
      <use xlink:href="#DejaVuSans-64" transform="translate(191.890625 0)"/>
      <use xlink:href="#DejaVuSans-6f" transform="translate(255.367188 0)"/>
      <use xlink:href="#DejaVuSans-6d" transform="translate(316.548828 0)"/>
     </g>
    </g>
   </g>
  </g>
 </g>
 <defs>
  <clipPath id="pd0c53b559b">
   <rect x="43.78125" y="22.318125" width="446.4" height="277.2"/>
  </clipPath>
 </defs>
</svg>
