<?xml version="1.0" encoding="utf-8" standalone="no"?>
<!DOCTYPE svg PUBLIC "-//W3C//DTD SVG 1.1//EN"
  "http://www.w3.org/Graphics/SVG/1.1/DTD/svg11.dtd">
<svg xmlns:xlink="http://www.w3.org/1999/xlink" width="497.38125pt" height="337.074375pt" viewBox="0 0 497.38125 337.074375" xmlns="http://www.w3.org/2000/svg" version="1.1">
 <metadata>
  <rdf:RDF xmlns:dc="http://purl.org/dc/elements/1.1/" xmlns:cc="http://creativecommons.org/ns#" xmlns:rdf="http://www.w3.org/1999/02/22-rdf-syntax-ns#">
   <cc:Work>
    <dc:type rdf:resource="http://purl.org/dc/dcmitype/StillImage"/>
    <dc:date>2026-07-01T17:14:00.484851</dc:date>
    <dc:format>image/svg+xml</dc:format>
    <dc:creator>
     <cc:Agent>
      <dc:title>Matplotlib v3.10.8, https://matplotlib.org/</dc:title>
     </cc:Agent>
    </dc:creator>
   </cc:Work>
  </rdf:RDF>
 </metadata>
 <defs>
  <style type="text/css">*{stroke-linejoin: round; stroke-linecap: butt}</style>
 </defs>
 <g id="figure_1">
  <g id="patch_1">
   <path d="M 0 337.074375 
L 497.38125 337.074375 
L 497.38125 0 
L 0 0 
z
" style="fill: #ffffff"/>
  </g>
  <g id="axes_1">
   <g id="patch_2">
    <path d="M 43.78125 299.518125 
L 490.18125 299.518125 
L 490.18125 22.318125 
L 43.78125 22.318125 
z
" style="fill: #ffffff"/>
   </g>
   <g id="matplotlib.axis_1">
    <g id="xtick_1">
     <g id="line2d_1">
      <path d="M 64.072159 299.518125 
L 64.072159 22.318125 
" clip-path="url(#pf9ce144a43)" style="fill: none; stroke-dasharray: 1.85,0.8; stroke-dashoffset: 0; stroke: #b0b0b0; stroke-opacity: 0.6; stroke-width: 0.5"/>
     </g>
     <g id="line2d_2">
      <defs>
       <path id="m8ee05745bf" d="M 0 0 
L 0 3.5 
" style="stroke: #000000; stroke-width: 0.8"/>
      </defs>
      <g>
       <use xlink:href="#m8ee05745bf" x="64.072159" y="299.518125" style="stroke: #000000; stroke-width: 0.8"/>
      </g>
     </g>
     <g id="text_1">
      <!-- 0 -->
      <g transform="translate(60.890909 314.116563) scale(0.1 -0.1)">
       <defs>
        <path id="DejaVuSans-30" d="M 2034 4250 
Q 1547 4250 1301 3770 
Q 1056 3291 1056 2328 
Q 1056 1369 1301 889 
Q 1547 409 2034 409 
Q 2525 409 2770 889 
Q 3016 1369 3016 2328 
Q 3016 3291 2770 3770 
Q 2525 4250 2034 4250 
z
M 2034 4750 
Q 2819 4750 3233 4129 
Q 3647 3509 3647 2328 
Q 3647 1150 3233 529 
Q 2819 -91 2034 -91 
Q 1250 -91 836 529 
Q 422 1150 422 2328 
Q 422 3509 836 4129 
Q 1250 4750 2034 4750 
z
" transform="scale(0.015625)"/>
       </defs>
       <use xlink:href="#DejaVuSans-30"/>
      </g>
     </g>
    </g>
    <g id="xtick_2">
     <g id="line2d_3">
      <path d="M 118.544398 299.518125 
L 118.544398 22.318125 
" clip-path="url(#pf9ce144a43)" style="fill: none; stroke-dasharray: 1.85,0.8; stroke-dashoffset: 0; stroke: #b0b0b0; stroke-opacity: 0.6; stroke-width: 0.5"/>
     </g>
     <g id="line2d_4">
      <g>
       <use xlink:href="#m8ee05745bf" x="118.544398" y="299.518125" style="stroke: #000000; stroke-width: 0.8"/>
      </g>
     </g>
     <g id="text_2">
      <!-- 20 -->
      <g transform="translate(112.181898 314.116563) scale(0.1 -0.1)">
       <defs>
        <path id="DejaVuSans-32" d="M 1228 531 
L 3431 531 
L 3431 0 
L 469 0 
L 469 531 
Q 828 903 1448 1529 
Q 2069 2156 2228 2338 
Q 2531 2678 2651 2914 
Q 2772 3150 2772 3378 
Q 2772 3750 2511 3984 
Q 2250 4219 1831 4219 
Q 1534 4219 1204 4116 
Q 875 4013 500 3803 
L 500 4441 
Q 881 4594 1212 4672 
Q 1544 4750 1819 4750 
Q 2544 4750 2975 4387 
Q 3406 4025 3406 3419 
Q 3406 3131 3298 2873 
Q 3191 2616 2906 2266 
Q 2828 2175 2409 1742 
Q 1991 1309 1228 531 
z
" transform="scale(0.015625)"/>
       </defs>
       <use xlink:href="#DejaVuSans-32"/>
       <use xlink:href="#DejaVuSans-30" transform="translate(63.623047 0)"/>
      </g>
     </g>
    </g>
    <g id="xtick_3">
     <g id="line2d_5">
      <path d="M 173.016637 299.518125 
L 173.016637 22.318125 
" clip-path="url(#pf9ce144a43)" style="fill: none; stroke-dasharray: 1.85,0.8; stroke-dashoffset: 0; stroke: #b0b0b0; stroke-opacity: 0.6; stroke-width: 0.5"/>
     </g>
     <g id="line2d_6">
      <g>
       <use xlink:href="#m8ee05745bf" x="173.016637" y="299.518125" style="stroke: #000000; stroke-width: 0.8"/>
      </g>
     </g>
     <g id="text_3">
      <!-- 40 -->
      <g transform="translate(166.654137 314.116563) scale(0.1 -0.1)">
       <defs>
        <path id="DejaVuSans-34" d="M 2419 4116 
L 825 1625 
L 2419 1625 
L 2419 4116 
z
M 2253 4666 
L 3047 4666 
L 3047 1625 
L 3713 1625 
L 3713 1100 
L 3047 1100 
L 3047 0 
L 2419 0 
L 2419 1100 
L 313 1100 
L 313 1709 
L 2253 4666 
z
" transform="scale(0.015625)"/>
       </defs>
       <use xlink:href="#DejaVuSans-34"/>
       <use xlink:href="#DejaVuSans-30" transform="translate(63.623047 0)"/>
      </g>
     </g>
    </g>
    <g id="xtick_4">
     <g id="line2d_7">
      <path d="M 227.488877 299.518125 
L 227.488877 22.318125 
" clip-path="url(#pf9ce144a43)" style="fill: none; stroke-dasharray: 1.85,0.8; stroke-dashoffset: 0; stroke: #b0b0b0; stroke-opacity: 0.6; stroke-width: 0.5"/>
     </g>
     <g id="line2d_8">
      <g>
       <use xlink:href="#m8ee05745bf" x="227.488877" y="299.518125" style="stroke: #000000; stroke-width: 0.8"/>
      </g>
     </g>
     <g id="text_4">
      <!-- 60 -->
      <g transform="translate(221.126377 314.116563) scale(0.1 -0.1)">
       <defs>
        <path id="DejaVuSans-36" d="M 2113 2584 
Q 1688 2584 1439 2293 
Q 1191 2003 1191 1497 
Q 1191 994 1439 701 
Q 1688 409 2113 409 
Q 2538 409 2786 701 
Q 3034 994 3034 1497 
Q 3034 2003 2786 2293 
Q 2538 2584 2113 2584 
z
M 3366 4563 
L 3366 3988 
Q 3128 4100 2886 4159 
Q 2644 4219 2406 4219 
Q 1781 4219 1451 3797 
Q 1122 3375 1075 2522 
Q 1259 2794 1537 2939 
Q 1816 3084 2150 3084 
Q 2853 3084 3261 2657 
Q 3669 2231 3669 1497 
Q 3669 778 3244 343 
Q 2819 -91 2113 -91 
Q 1303 -91 875 529 
Q 447 1150 447 2328 
Q 447 3434 972 4092 
Q 1497 4750 2381 4750 
Q 2619 4750 2861 4703 
Q 3103 4656 3366 4563 
z
" transform="scale(0.015625)"/>
       </defs>
       <use xlink:href="#DejaVuSans-36"/>
       <use xlink:href="#DejaVuSans-30" transform="translate(63.623047 0)"/>
      </g>
     </g>
    </g>
    <g id="xtick_5">
     <g id="line2d_9">
      <path d="M 281.961116 299.518125 
L 281.961116 22.318125 
" clip-path="url(#pf9ce144a43)" style="fill: none; stroke-dasharray: 1.85,0.8; stroke-dashoffset: 0; stroke: #b0b0b0; stroke-opacity: 0.6; stroke-width: 0.5"/>
     </g>
     <g id="line2d_10">
      <g>
       <use xlink:href="#m8ee05745bf" x="281.961116" y="299.518125" style="stroke: #000000; stroke-width: 0.8"/>
      </g>
     </g>
     <g id="text_5">
      <!-- 80 -->
      <g transform="translate(275.598616 314.116563) scale(0.1 -0.1)">
       <defs>
        <path id="DejaVuSans-38" d="M 2034 2216 
Q 1584 2216 1326 1975 
Q 1069 1734 1069 1313 
Q 1069 891 1326 650 
Q 1584 409 2034 409 
Q 2484 409 2743 651 
Q 3003 894 3003 1313 
Q 3003 1734 2745 1975 
Q 2488 2216 2034 2216 
z
M 1403 2484 
Q 997 2584 770 2862 
Q 544 3141 544 3541 
Q 544 4100 942 4425 
Q 1341 4750 2034 4750 
Q 2731 4750 3128 4425 
Q 3525 4100 3525 3541 
Q 3525 3141 3298 2862 
Q 3072 2584 2669 2484 
Q 3125 2378 3379 2068 
Q 3634 1759 3634 1313 
Q 3634 634 3220 271 
Q 2806 -91 2034 -91 
Q 1263 -91 848 271 
Q 434 634 434 1313 
Q 434 1759 690 2068 
Q 947 2378 1403 2484 
z
M 1172 3481 
Q 1172 3119 1398 2916 
Q 1625 2713 2034 2713 
Q 2441 2713 2670 2916 
Q 2900 3119 2900 3481 
Q 2900 3844 2670 4047 
Q 2441 4250 2034 4250 
Q 1625 4250 1398 4047 
Q 1172 3844 1172 3481 
z
" transform="scale(0.015625)"/>
       </defs>
       <use xlink:href="#DejaVuSans-38"/>
       <use xlink:href="#DejaVuSans-30" transform="translate(63.623047 0)"/>
      </g>
     </g>
    </g>
    <g id="xtick_6">
     <g id="line2d_11">
      <path d="M 336.433355 299.518125 
L 336.433355 22.318125 
" clip-path="url(#pf9ce144a43)" style="fill: none; stroke-dasharray: 1.85,0.8; stroke-dashoffset: 0; stroke: #b0b0b0; stroke-opacity: 0.6; stroke-width: 0.5"/>
     </g>
     <g id="line2d_12">
      <g>
       <use xlink:href="#m8ee05745bf" x="336.433355" y="299.518125" style="stroke: #000000; stroke-width: 0.8"/>
      </g>
     </g>
     <g id="text_6">
      <!-- 100 -->
      <g transform="translate(326.889605 314.116563) scale(0.1 -0.1)">
       <defs>
        <path id="DejaVuSans-31" d="M 794 531 
L 1825 531 
L 1825 4091 
L 703 3866 
L 703 4441 
L 1819 4666 
L 2450 4666 
L 2450 531 
L 3481 531 
L 3481 0 
L 794 0 
L 794 531 
z
" transform="scale(0.015625)"/>
       </defs>
       <use xlink:href="#DejaVuSans-31"/>
       <use xlink:href="#DejaVuSans-30" transform="translate(63.623047 0)"/>
       <use xlink:href="#DejaVuSans-30" transform="translate(127.246094 0)"/>
      </g>
     </g>
    </g>
    <g id="xtick_7">
     <g id="line2d_13">
      <path d="M 390.905594 299.518125 
L 390.905594 22.318125 
" clip-path="url(#pf9ce144a43)" style="fill: none; stroke-dasharray: 1.85,0.8; stroke-dashoffset: 0; stroke: #b0b0b0; stroke-opacity: 0.6; stroke-width: 0.5"/>
     </g>
     <g id="line2d_14">
      <g>
       <use xlink:href="#m8ee05745bf" x="390.905594" y="299.518125" style="stroke: #000000; stroke-width: 0.8"/>
      </g>
     </g>
     <g id="text_7">
      <!-- 120 -->
      <g transform="translate(381.361844 314.116563) scale(0.1 -0.1)">
       <use xlink:href="#DejaVuSans-31"/>
       <use xlink:href="#DejaVuSans-32" transform="translate(63.623047 0)"/>
       <use xlink:href="#DejaVuSans-30" transform="translate(127.246094 0)"/>
      </g>
     </g>
    </g>
    <g id="xtick_8">
     <g id="line2d_15">
      <path d="M 445.377833 299.518125 
L 445.377833 22.318125 
" clip-path="url(#pf9ce144a43)" style="fill: none; stroke-dasharray: 1.85,0.8; stroke-dashoffset: 0; stroke: #b0b0b0; stroke-opacity: 0.6; stroke-width: 0.5"/>
     </g>
     <g id="line2d_16">
      <g>
       <use xlink:href="#m8ee05745bf" x="445.377833" y="299.518125" style="stroke: #000000; stroke-width: 0.8"/>
      </g>
     </g>
     <g id="text_8">
      <!-- 140 -->
      <g transform="translate(435.834083 314.116563) scale(0.1 -0.1)">
       <use xlink:href="#DejaVuSans-31"/>
       <use xlink:href="#DejaVuSans-34" transform="translate(63.623047 0)"/>
       <use xlink:href="#DejaVuSans-30" transform="translate(127.246094 0)"/>
      </g>
     </g>
    </g>
    <g id="text_9">
     <!-- Simulation Day -->
     <g transform="translate(228.885937 327.794688) scale(0.1 -0.1)">
      <defs>
       <path id="DejaVuSans-53" d="M 3425 4513 
L 3425 3897 
Q 3066 4069 2747 4153 
Q 2428 4238 2131 4238 
Q 1616 4238 1336 4038 
Q 1056 3838 1056 3469 
Q 1056 3159 1242 3001 
Q 1428 2844 1947 2747 
L 2328 2669 
Q 3034 2534 3370 2195 
Q 3706 1856 3706 1288 
Q 3706 609 3251 259 
Q 2797 -91 1919 -91 
Q 1588 -91 1214 -16 
Q 841 59 441 206 
L 441 856 
Q 825 641 1194 531 
Q 1563 422 1919 422 
Q 2459 422 2753 634 
Q 3047 847 3047 1241 
Q 3047 1584 2836 1778 
Q 2625 1972 2144 2069 
L 1759 2144 
Q 1053 2284 737 2584 
Q 422 2884 422 3419 
Q 422 4038 858 4394 
Q 1294 4750 2059 4750 
Q 2388 4750 2728 4690 
Q 3069 4631 3425 4513 
z
" transform="scale(0.015625)"/>
       <path id="DejaVuSans-69" d="M 603 3500 
L 1178 3500 
L 1178 0 
L 603 0 
L 603 3500 
z
M 603 4863 
L 1178 4863 
L 1178 4134 
L 603 4134 
L 603 4863 
z
" transform="scale(0.015625)"/>
       <path id="DejaVuSans-6d" d="M 3328 2828 
Q 3544 3216 3844 3400 
Q 4144 3584 4550 3584 
Q 5097 3584 5394 3201 
Q 5691 2819 5691 2113 
L 5691 0 
L 5113 0 
L 5113 2094 
Q 5113 2597 4934 2840 
Q 4756 3084 4391 3084 
Q 3944 3084 3684 2787 
Q 3425 2491 3425 1978 
L 3425 0 
L 2847 0 
L 2847 2094 
Q 2847 2600 2669 2842 
Q 2491 3084 2119 3084 
Q 1678 3084 1418 2786 
Q 1159 2488 1159 1978 
L 1159 0 
L 581 0 
L 581 3500 
L 1159 3500 
L 1159 2956 
Q 1356 3278 1631 3431 
Q 1906 3584 2284 3584 
Q 2666 3584 2933 3390 
Q 3200 3197 3328 2828 
z
" transform="scale(0.015625)"/>
       <path id="DejaVuSans-75" d="M 544 1381 
L 544 3500 
L 1119 3500 
L 1119 1403 
Q 1119 906 1312 657 
Q 1506 409 1894 409 
Q 2359 409 2629 706 
Q 2900 1003 2900 1516 
L 2900 3500 
L 3475 3500 
L 3475 0 
L 2900 0 
L 2900 538 
Q 2691 219 2414 64 
Q 2138 -91 1772 -91 
Q 1169 -91 856 284 
Q 544 659 544 1381 
z
M 1991 3584 
L 1991 3584 
z
" transform="scale(0.015625)"/>
       <path id="DejaVuSans-6c" d="M 603 4863 
L 1178 4863 
L 1178 0 
L 603 0 
L 603 4863 
z
" transform="scale(0.015625)"/>
       <path id="DejaVuSans-61" d="M 2194 1759 
Q 1497 1759 1228 1600 
Q 959 1441 959 1056 
Q 959 750 1161 570 
Q 1363 391 1709 391 
Q 2188 391 2477 730 
Q 2766 1069 2766 1631 
L 2766 1759 
L 2194 1759 
z
M 3341 1997 
L 3341 0 
L 2766 0 
L 2766 531 
Q 2569 213 2275 61 
Q 1981 -91 1556 -91 
Q 1019 -91 701 211 
Q 384 513 384 1019 
Q 384 1609 779 1909 
Q 1175 2209 1959 2209 
L 2766 2209 
L 2766 2266 
Q 2766 2663 2505 2880 
Q 2244 3097 1772 3097 
Q 1472 3097 1187 3025 
Q 903 2953 641 2809 
L 641 3341 
Q 956 3463 1253 3523 
Q 1550 3584 1831 3584 
Q 2591 3584 2966 3190 
Q 3341 2797 3341 1997 
z
" transform="scale(0.015625)"/>
       <path id="DejaVuSans-74" d="M 1172 4494 
L 1172 3500 
L 2356 3500 
L 2356 3053 
L 1172 3053 
L 1172 1153 
Q 1172 725 1289 603 
Q 1406 481 1766 481 
L 2356 481 
L 2356 0 
L 1766 0 
Q 1100 0 847 248 
Q 594 497 594 1153 
L 594 3053 
L 172 3053 
L 172 3500 
L 594 3500 
L 594 4494 
L 1172 4494 
z
" transform="scale(0.015625)"/>
       <path id="DejaVuSans-6f" d="M 1959 3097 
Q 1497 3097 1228 2736 
Q 959 2375 959 1747 
Q 959 1119 1226 758 
Q 1494 397 1959 397 
Q 2419 397 2687 759 
Q 2956 1122 2956 1747 
Q 2956 2369 2687 2733 
Q 2419 3097 1959 3097 
z
M 1959 3584 
Q 2709 3584 3137 3096 
Q 3566 2609 3566 1747 
Q 3566 888 3137 398 
Q 2709 -91 1959 -91 
Q 1206 -91 779 398 
Q 353 888 353 1747 
Q 353 2609 779 3096 
Q 1206 3584 1959 3584 
z
" transform="scale(0.015625)"/>
       <path id="DejaVuSans-6e" d="M 3513 2113 
L 3513 0 
L 2938 0 
L 2938 2094 
Q 2938 2591 2744 2837 
Q 2550 3084 2163 3084 
Q 1697 3084 1428 2787 
Q 1159 2491 1159 1978 
L 1159 0 
L 581 0 
L 581 3500 
L 1159 3500 
L 1159 2956 
Q 1366 3272 1645 3428 
Q 1925 3584 2291 3584 
Q 2894 3584 3203 3211 
Q 3513 2838 3513 2113 
z
" transform="scale(0.015625)"/>
       <path id="DejaVuSans-20" transform="scale(0.015625)"/>
       <path id="DejaVuSans-44" d="M 1259 4147 
L 1259 519 
L 2022 519 
Q 2988 519 3436 956 
Q 3884 1394 3884 2338 
Q 3884 3275 3436 3711 
Q 2988 4147 2022 4147 
L 1259 4147 
z
M 628 4666 
L 1925 4666 
Q 3281 4666 3915 4102 
Q 4550 3538 4550 2338 
Q 4550 1131 3912 565 
Q 3275 0 1925 0 
L 628 0 
L 628 4666 
z
" transform="scale(0.015625)"/>
       <path id="DejaVuSans-79" d="M 2059 -325 
Q 1816 -950 1584 -1140 
Q 1353 -1331 966 -1331 
L 506 -1331 
L 506 -850 
L 844 -850 
Q 1081 -850 1212 -737 
Q 1344 -625 1503 -206 
L 1606 56 
L 191 3500 
L 800 3500 
L 1894 763 
L 2988 3500 
L 3597 3500 
L 2059 -325 
z
" transform="scale(0.015625)"/>
      </defs>
      <use xlink:href="#DejaVuSans-53"/>
      <use xlink:href="#DejaVuSans-69" transform="translate(63.476562 0)"/>
      <use xlink:href="#DejaVuSans-6d" transform="translate(91.259766 0)"/>
      <use xlink:href="#DejaVuSans-75" transform="translate(188.671875 0)"/>
      <use xlink:href="#DejaVuSans-6c" transform="translate(252.050781 0)"/>
      <use xlink:href="#DejaVuSans-61" transform="translate(279.833984 0)"/>
      <use xlink:href="#DejaVuSans-74" transform="translate(341.113281 0)"/>
      <use xlink:href="#DejaVuSans-69" transform="translate(380.322266 0)"/>
      <use xlink:href="#DejaVuSans-6f" transform="translate(408.105469 0)"/>
      <use xlink:href="#DejaVuSans-6e" transform="translate(469.287109 0)"/>
      <use xlink:href="#DejaVuSans-20" transform="translate(532.666016 0)"/>
      <use xlink:href="#DejaVuSans-44" transform="translate(564.453125 0)"/>
      <use xlink:href="#DejaVuSans-61" transform="translate(641.455078 0)"/>
      <use xlink:href="#DejaVuSans-79" transform="translate(702.734375 0)"/>
     </g>
    </g>
   </g>
   <g id="matplotlib.axis_2">
    <g id="ytick_1">
     <g id="line2d_17">
      <path d="M 43.78125 286.918125 
L 490.18125 286.918125 
" clip-path="url(#pf9ce144a43)" style="fill: none; stroke-dasharray: 1.85,0.8; stroke-dashoffset: 0; stroke: #b0b0b0; stroke-opacity: 0.6; stroke-width: 0.5"/>
     </g>
     <g id="line2d_18">
      <defs>
       <path id="me3aa7734c6" d="M 0 0 
L -3.5 0 
" style="stroke: #000000; stroke-width: 0.8"/>
      </defs>
      <g>
       <use xlink:href="#me3aa7734c6" x="43.78125" y="286.918125" style="stroke: #000000; stroke-width: 0.8"/>
      </g>
     </g>
     <g id="text_10">
      <!-- 0.0 -->
      <g transform="translate(20.878125 290.717344) scale(0.1 -0.1)">
       <defs>
        <path id="DejaVuSans-2e" d="M 684 794 
L 1344 794 
L 1344 0 
L 684 0 
L 684 794 
z
" transform="scale(0.015625)"/>
       </defs>
       <use xlink:href="#DejaVuSans-30"/>
       <use xlink:href="#DejaVuSans-2e" transform="translate(63.623047 0)"/>
       <use xlink:href="#DejaVuSans-30" transform="translate(95.410156 0)"/>
      </g>
     </g>
    </g>
    <g id="ytick_2">
     <g id="line2d_19">
      <path d="M 43.78125 230.7298 
L 490.18125 230.7298 
" clip-path="url(#pf9ce144a43)" style="fill: none; stroke-dasharray: 1.85,0.8; stroke-dashoffset: 0; stroke: #b0b0b0; stroke-opacity: 0.6; stroke-width: 0.5"/>
     </g>
     <g id="line2d_20">
      <g>
       <use xlink:href="#me3aa7734c6" x="43.78125" y="230.7298" style="stroke: #000000; stroke-width: 0.8"/>
      </g>
     </g>
     <g id="text_11">
      <!-- 0.2 -->
      <g transform="translate(20.878125 234.529019) scale(0.1 -0.1)">
       <use xlink:href="#DejaVuSans-30"/>
       <use xlink:href="#DejaVuSans-2e" transform="translate(63.623047 0)"/>
       <use xlink:href="#DejaVuSans-32" transform="translate(95.410156 0)"/>
      </g>
     </g>
    </g>
    <g id="ytick_3">
     <g id="line2d_21">
      <path d="M 43.78125 174.541475 
L 490.18125 174.541475 
" clip-path="url(#pf9ce144a43)" style="fill: none; stroke-dasharray: 1.85,0.8; stroke-dashoffset: 0; stroke: #b0b0b0; stroke-opacity: 0.6; stroke-width: 0.5"/>
     </g>
     <g id="line2d_22">
      <g>
       <use xlink:href="#me3aa7734c6" x="43.78125" y="174.541475" style="stroke: #000000; stroke-width: 0.8"/>
      </g>
     </g>
     <g id="text_12">
      <!-- 0.4 -->
      <g transform="translate(20.878125 178.340694) scale(0.1 -0.1)">
       <use xlink:href="#DejaVuSans-30"/>
       <use xlink:href="#DejaVuSans-2e" transform="translate(63.623047 0)"/>
       <use xlink:href="#DejaVuSans-34" transform="translate(95.410156 0)"/>
      </g>
     </g>
    </g>
    <g id="ytick_4">
     <g id="line2d_23">
      <path d="M 43.78125 118.35315 
L 490.18125 118.35315 
" clip-path="url(#pf9ce144a43)" style="fill: none; stroke-dasharray: 1.85,0.8; stroke-dashoffset: 0; stroke: #b0b0b0; stroke-opacity: 0.6; stroke-width: 0.5"/>
     </g>
     <g id="line2d_24">
      <g>
       <use xlink:href="#me3aa7734c6" x="43.78125" y="118.35315" style="stroke: #000000; stroke-width: 0.8"/>
      </g>
     </g>
     <g id="text_13">
      <!-- 0.6 -->
      <g transform="translate(20.878125 122.152369) scale(0.1 -0.1)">
       <use xlink:href="#DejaVuSans-30"/>
       <use xlink:href="#DejaVuSans-2e" transform="translate(63.623047 0)"/>
       <use xlink:href="#DejaVuSans-36" transform="translate(95.410156 0)"/>
      </g>
     </g>
    </g>
    <g id="ytick_5">
     <g id="line2d_25">
      <path d="M 43.78125 62.164826 
L 490.18125 62.164826 
" clip-path="url(#pf9ce144a43)" style="fill: none; stroke-dasharray: 1.85,0.8; stroke-dashoffset: 0; stroke: #b0b0b0; stroke-opacity: 0.6; stroke-width: 0.5"/>
     </g>
     <g id="line2d_26">
      <g>
       <use xlink:href="#me3aa7734c6" x="43.78125" y="62.164826" style="stroke: #000000; stroke-width: 0.8"/>
      </g>
     </g>
     <g id="text_14">
      <!-- 0.8 -->
      <g transform="translate(20.878125 65.964044) scale(0.1 -0.1)">
       <use xlink:href="#DejaVuSans-30"/>
       <use xlink:href="#DejaVuSans-2e" transform="translate(63.623047 0)"/>
       <use xlink:href="#DejaVuSans-38" transform="translate(95.410156 0)"/>
      </g>
     </g>
    </g>
    <g id="text_15">
     <!-- Detection Ratio (Efficiency) -->
     <g transform="translate(14.798438 229.282969) rotate(-90) scale(0.1 -0.1)">
      <defs>
       <path id="DejaVuSans-65" d="M 3597 1894 
L 3597 1613 
L 953 1613 
Q 991 1019 1311 708 
Q 1631 397 2203 397 
Q 2534 397 2845 478 
Q 3156 559 3463 722 
L 3463 178 
Q 3153 47 2828 -22 
Q 2503 -91 2169 -91 
Q 1331 -91 842 396 
Q 353 884 353 1716 
Q 353 2575 817 3079 
Q 1281 3584 2069 3584 
Q 2775 3584 3186 3129 
Q 3597 2675 3597 1894 
z
M 3022 2063 
Q 3016 2534 2758 2815 
Q 2500 3097 2075 3097 
Q 1594 3097 1305 2825 
Q 1016 2553 972 2059 
L 3022 2063 
z
" transform="scale(0.015625)"/>
       <path id="DejaVuSans-63" d="M 3122 3366 
L 3122 2828 
Q 2878 2963 2633 3030 
Q 2388 3097 2138 3097 
Q 1578 3097 1268 2742 
Q 959 2388 959 1747 
Q 959 1106 1268 751 
Q 1578 397 2138 397 
Q 2388 397 2633 464 
Q 2878 531 3122 666 
L 3122 134 
Q 2881 22 2623 -34 
Q 2366 -91 2075 -91 
Q 1284 -91 818 406 
Q 353 903 353 1747 
Q 353 2603 823 3093 
Q 1294 3584 2113 3584 
Q 2378 3584 2631 3529 
Q 2884 3475 3122 3366 
z
" transform="scale(0.015625)"/>
       <path id="DejaVuSans-52" d="M 2841 2188 
Q 3044 2119 3236 1894 
Q 3428 1669 3622 1275 
L 4263 0 
L 3584 0 
L 2988 1197 
Q 2756 1666 2539 1819 
Q 2322 1972 1947 1972 
L 1259 1972 
L 1259 0 
L 628 0 
L 628 4666 
L 2053 4666 
Q 2853 4666 3247 4331 
Q 3641 3997 3641 3322 
Q 3641 2881 3436 2590 
Q 3231 2300 2841 2188 
z
M 1259 4147 
L 1259 2491 
L 2053 2491 
Q 2509 2491 2742 2702 
Q 2975 2913 2975 3322 
Q 2975 3731 2742 3939 
Q 2509 4147 2053 4147 
L 1259 4147 
z
" transform="scale(0.015625)"/>
       <path id="DejaVuSans-28" d="M 1984 4856 
Q 1566 4138 1362 3434 
Q 1159 2731 1159 2009 
Q 1159 1288 1364 580 
Q 1569 -128 1984 -844 
L 1484 -844 
Q 1016 -109 783 600 
Q 550 1309 550 2009 
Q 550 2706 781 3412 
Q 1013 4119 1484 4856 
L 1984 4856 
z
" transform="scale(0.015625)"/>
       <path id="DejaVuSans-45" d="M 628 4666 
L 3578 4666 
L 3578 4134 
L 1259 4134 
L 1259 2753 
L 3481 2753 
L 3481 2222 
L 1259 2222 
L 1259 531 
L 3634 531 
L 3634 0 
L 628 0 
L 628 4666 
z
" transform="scale(0.015625)"/>
       <path id="DejaVuSans-66" d="M 2375 4863 
L 2375 4384 
L 1825 4384 
Q 1516 4384 1395 4259 
Q 1275 4134 1275 3809 
L 1275 3500 
L 2222 3500 
L 2222 3053 
L 1275 3053 
L 1275 0 
L 697 0 
L 697 3053 
L 147 3053 
L 147 3500 
L 697 3500 
L 697 3744 
Q 697 4328 969 4595 
Q 1241 4863 1831 4863 
L 2375 4863 
z
" transform="scale(0.015625)"/>
       <path id="DejaVuSans-29" d="M 513 4856 
L 1013 4856 
Q 1481 4119 1714 3412 
Q 1947 2706 1947 2009 
Q 1947 1309 1714 600 
Q 1481 -109 1013 -844 
L 513 -844 
Q 928 -128 1133 580 
Q 1338 1288 1338 2009 
Q 1338 2731 1133 3434 
Q 928 4138 513 4856 
z
" transform="scale(0.015625)"/>
      </defs>
      <use xlink:href="#DejaVuSans-44"/>
      <use xlink:href="#DejaVuSans-65" transform="translate(77.001953 0)"/>
      <use xlink:href="#DejaVuSans-74" transform="translate(138.525391 0)"/>
      <use xlink:href="#DejaVuSans-65" transform="translate(177.734375 0)"/>
      <use xlink:href="#DejaVuSans-63" transform="translate(239.257812 0)"/>
      <use xlink:href="#DejaVuSans-74" transform="translate(294.238281 0)"/>
      <use xlink:href="#DejaVuSans-69" transform="translate(333.447266 0)"/>
      <use xlink:href="#DejaVuSans-6f" transform="translate(361.230469 0)"/>
      <use xlink:href="#DejaVuSans-6e" transform="translate(422.412109 0)"/>
      <use xlink:href="#DejaVuSans-20" transform="translate(485.791016 0)"/>
      <use xlink:href="#DejaVuSans-52" transform="translate(517.578125 0)"/>
      <use xlink:href="#DejaVuSans-61" transform="translate(584.810547 0)"/>
      <use xlink:href="#DejaVuSans-74" transform="translate(646.089844 0)"/>
      <use xlink:href="#DejaVuSans-69" transform="translate(685.298828 0)"/>
      <use xlink:href="#DejaVuSans-6f" transform="translate(713.082031 0)"/>
      <use xlink:href="#DejaVuSans-20" transform="translate(774.263672 0)"/>
      <use xlink:href="#DejaVuSans-28" transform="translate(806.050781 0)"/>
      <use xlink:href="#DejaVuSans-45" transform="translate(845.064453 0)"/>
      <use xlink:href="#DejaVuSans-66" transform="translate(908.248047 0)"/>
      <use xlink:href="#DejaVuSans-66" transform="translate(943.453125 0)"/>
      <use xlink:href="#DejaVuSans-69" transform="translate(978.658203 0)"/>
      <use xlink:href="#DejaVuSans-63" transform="translate(1006.441406 0)"/>
      <use xlink:href="#DejaVuSans-69" transform="translate(1061.421875 0)"/>
      <use xlink:href="#DejaVuSans-65" transform="translate(1089.205078 0)"/>
      <use xlink:href="#DejaVuSans-6e" transform="translate(1150.728516 0)"/>
      <use xlink:href="#DejaVuSans-63" transform="translate(1214.107422 0)"/>
      <use xlink:href="#DejaVuSans-79" transform="translate(1269.087891 0)"/>
      <use xlink:href="#DejaVuSans-29" transform="translate(1328.267578 0)"/>
     </g>
    </g>
   </g>
   <g id="line2d_27">
    <path d="M 64.072159 286.918125 
L 115.820786 286.918125 
L 118.544398 281.448718 
L 121.26801 274.568354 
L 123.991622 268.304205 
L 126.715234 263.28441 
L 134.88607 251.166273 
L 137.609682 247.779028 
L 143.056906 240.3953 
L 148.50413 232.196824 
L 151.227742 227.388656 
L 156.674966 216.20149 
L 159.398578 210.091046 
L 164.845802 197.383299 
L 170.293025 182.626351 
L 173.016637 159.343972 
L 175.740249 139.089234 
L 181.187473 112.849965 
L 183.911085 100.361312 
L 189.358309 73.734724 
L 192.081921 61.402135 
L 194.805533 52.185475 
L 197.529145 44.989512 
L 200.252757 39.380556 
L 202.976369 36.754202 
L 205.699981 35.24746 
L 208.423593 34.918125 
L 213.870817 35.631963 
L 216.594429 36.404458 
L 219.318041 36.842284 
L 222.041653 37.72637 
L 224.765265 38.429689 
L 227.488877 38.665082 
L 230.212489 38.637694 
L 232.936101 39.442901 
L 235.659712 39.991854 
L 238.383324 41.386503 
L 241.106936 41.205972 
L 243.830548 42.116588 
L 246.55416 43.273224 
L 249.277772 43.045187 
L 252.001384 43.557599 
L 254.724996 44.5323 
L 257.448608 46.369951 
L 260.17222 46.657066 
L 262.895832 49.37634 
L 265.619444 52.901674 
L 268.343056 55.950153 
L 271.066668 57.150464 
L 273.79028 59.820593 
L 276.513892 62.08796 
L 279.237504 63.386311 
L 281.961116 64.488079 
L 284.684728 64.524917 
L 287.40834 63.12531 
L 290.131952 64.883615 
L 292.855564 63.215075 
L 295.579176 68.221052 
L 298.302788 72.293193 
L 301.026399 74.141475 
L 303.750011 79.29383 
L 306.473623 79.117021 
L 309.197235 83.253503 
L 311.920847 82.531288 
L 314.644459 87.855209 
L 317.368071 89.104433 
L 320.091683 82.891355 
L 322.815295 82.900993 
L 325.538907 86.245536 
L 328.262519 89.252357 
L 330.986131 90.73516 
L 333.709743 95.87782 
L 336.433355 99.98389 
L 339.156967 103.695327 
L 341.880579 109.363018 
L 344.604191 112.5002 
L 347.327803 116.219417 
L 350.051415 114.494725 
L 352.775027 119.574636 
L 355.498639 126.026446 
L 358.222251 124.738187 
L 360.945863 128.472375 
L 363.669475 134.291185 
L 366.393086 134.683747 
L 369.116698 135.859061 
L 371.84031 133.80494 
L 374.563922 137.362136 
L 377.287534 137.93393 
L 380.011146 142.147186 
L 382.734758 143.580562 
L 385.45837 130.839445 
L 388.181982 129.832486 
L 390.905594 137.481091 
L 393.629206 134.49235 
L 396.352818 130.664075 
L 399.07643 118.998993 
L 401.800042 121.363239 
L 404.523654 130.465604 
L 407.247266 127.830699 
L 409.970878 139.677635 
L 412.69449 143.923885 
L 415.418102 153.928007 
L 418.141714 157.002923 
L 420.865326 148.855384 
L 423.588938 145.644622 
L 426.31255 150.327722 
L 429.036162 152.002656 
L 431.759773 151.236091 
L 434.483385 153.057704 
L 437.206997 154.710302 
L 439.930609 159.217387 
L 442.654221 166.278486 
L 445.377833 170.391201 
L 448.101445 159.788116 
L 450.825057 158.769314 
L 453.548669 162.409905 
L 456.272281 171.778115 
L 458.995893 158.662166 
L 461.719505 158.276434 
L 464.443117 161.233714 
L 467.166729 160.568717 
L 469.890341 169.859115 
L 469.890341 169.859115 
" clip-path="url(#pf9ce144a43)" style="fill: none; stroke: #1f77b4; stroke-width: 1.5; stroke-linecap: square"/>
   </g>
   <g id="line2d_28">
    <path d="M 64.072159 286.918125 
L 115.820786 286.918125 
L 118.544398 279.505925 
L 121.26801 270.708364 
L 123.991622 264.041917 
L 126.715234 258.346126 
L 132.162458 250.718051 
L 137.609682 245.31749 
L 140.333294 243.004462 
L 143.056906 239.690362 
L 148.50413 233.71124 
L 151.227742 229.959207 
L 156.674966 223.314541 
L 164.845802 210.342157 
L 167.569414 205.505113 
L 170.293025 199.887296 
L 173.016637 181.044325 
L 175.740249 164.478166 
L 178.463861 150.138888 
L 181.187473 137.994914 
L 183.911085 127.106356 
L 189.358309 103.578945 
L 192.081921 93.087885 
L 194.805533 81.607713 
L 197.529145 70.697806 
L 200.252757 62.587217 
L 205.699981 50.583487 
L 208.423593 47.502085 
L 211.147205 46.062976 
L 213.870817 45.085871 
L 216.594429 43.648912 
L 219.318041 42.58901 
L 222.041653 42.344912 
L 224.765265 42.492441 
L 227.488877 41.032311 
L 230.212489 39.009832 
L 232.936101 39.590565 
L 235.659712 40.048402 
L 238.383324 40.997283 
L 241.106936 42.561036 
L 243.830548 43.721556 
L 246.55416 44.732524 
L 252.001384 45.741115 
L 254.724996 44.930591 
L 257.448608 45.84266 
L 260.17222 45.730296 
L 262.895832 47.667669 
L 268.343056 51.089242 
L 271.066668 52.079742 
L 273.79028 54.383018 
L 276.513892 53.665206 
L 279.237504 51.998723 
L 281.961116 54.022653 
L 284.684728 57.200079 
L 287.40834 58.186891 
L 290.131952 56.333962 
L 292.855564 56.715122 
L 295.579176 57.819858 
L 298.302788 58.120969 
L 301.026399 58.023455 
L 303.750011 60.026581 
L 306.473623 59.519187 
L 309.197235 59.586134 
L 311.920847 63.283001 
L 314.644459 64.725687 
L 317.368071 58.207901 
L 320.091683 60.962017 
L 322.815295 60.144984 
L 325.538907 58.777586 
L 328.262519 59.185142 
L 330.986131 59.917293 
L 333.709743 61.204341 
L 336.433355 63.159309 
L 339.156967 60.264737 
L 341.880579 58.109998 
L 344.604191 59.043252 
L 347.327803 55.847795 
L 350.051415 53.985512 
L 352.775027 53.114357 
L 355.498639 51.534602 
L 358.222251 59.685929 
L 360.945863 67.432481 
L 363.669475 55.554434 
L 366.393086 59.127619 
L 369.116698 65.806661 
L 371.84031 74.166215 
L 374.563922 80.512034 
L 377.287534 84.51932 
L 380.011146 73.789996 
L 382.734758 78.690803 
L 385.45837 85.750048 
L 388.181982 90.643839 
L 390.905594 91.480473 
L 393.629206 89.839672 
L 396.352818 84.474896 
L 399.07643 90.704927 
L 401.800042 80.894267 
L 404.523654 82.596944 
L 407.247266 84.640155 
L 409.970878 80.512034 
L 412.69449 83.683758 
L 415.418102 89.66124 
L 418.141714 101.752054 
L 420.865326 95.367017 
L 423.588938 108.137091 
L 426.31255 123.579971 
L 429.036162 123.579971 
L 431.759773 115.612256 
L 434.483385 118.35315 
L 437.206997 124.267711 
L 439.930609 124.267711 
L 442.654221 126.380054 
L 445.377833 126.380054 
L 448.101445 142.433861 
L 450.825057 146.447313 
L 453.548669 162.055181 
L 456.272281 162.055181 
L 458.995893 159.217387 
L 461.719505 181.565016 
L 464.443117 179.499269 
L 469.890341 179.499269 
L 469.890341 179.499269 
" clip-path="url(#pf9ce144a43)" style="fill: none; stroke: #ff7f0e; stroke-width: 1.5; stroke-linecap: square"/>
   </g>
   <g id="line2d_29">
    <path d="M 64.072159 286.918125 
L 115.820786 286.918125 
L 118.544398 284.995299 
L 121.26801 283.752285 
L 123.991622 283.06961 
L 126.715234 282.518652 
L 143.056906 280.502295 
L 151.227742 278.707552 
L 153.951354 278.39072 
L 159.398578 276.911192 
L 162.12219 275.813613 
L 164.845802 274.992243 
L 167.569414 273.921531 
L 170.293025 272.493981 
L 175.740249 265.76836 
L 181.187473 258.288583 
L 183.911085 253.342957 
L 189.358309 244.526323 
L 192.081921 239.537287 
L 194.805533 233.844653 
L 200.252757 223.410248 
L 211.147205 197.524368 
L 213.870817 191.873942 
L 216.594429 183.953975 
L 219.318041 177.378591 
L 222.041653 169.386746 
L 224.765265 160.086621 
L 230.212489 131.89403 
L 235.659712 105.422783 
L 238.383324 94.151628 
L 241.106936 87.714561 
L 246.55416 75.693837 
L 249.277772 74.833197 
L 252.001384 74.241122 
L 254.724996 75.022969 
L 257.448608 74.394268 
L 260.17222 73.010293 
L 262.895832 73.494465 
L 268.343056 75.404603 
L 271.066668 74.187655 
L 273.79028 75.631449 
L 276.513892 76.832239 
L 279.237504 77.152237 
L 281.961116 78.201145 
L 284.684728 82.098456 
L 287.40834 75.449399 
L 290.131952 74.313653 
L 292.855564 76.307465 
L 295.579176 76.108162 
L 298.302788 78.080454 
L 301.026399 78.097421 
L 303.750011 76.590194 
L 306.473623 78.460498 
L 309.197235 75.532647 
L 311.920847 69.82687 
L 314.644459 69.574275 
L 317.368071 73.27182 
L 320.091683 76.561337 
L 322.815295 72.257635 
L 325.538907 75.228218 
L 328.262519 71.640371 
L 330.986131 75.781015 
L 333.709743 80.657186 
L 336.433355 79.467853 
L 339.156967 81.029498 
L 341.880579 77.547181 
L 344.604191 71.311762 
L 347.327803 74.22143 
L 350.051415 76.211907 
L 352.775027 83.737129 
L 355.498639 94.962536 
L 358.222251 92.934622 
L 360.945863 91.36072 
L 366.393086 103.8804 
L 369.116698 98.182982 
L 371.84031 101.158909 
L 374.563922 108.275896 
L 377.287534 112.146301 
L 380.011146 110.675243 
L 382.734758 113.899198 
L 385.45837 106.691423 
L 388.181982 113.497369 
L 390.905594 112.186139 
L 396.352818 105.132368 
L 399.07643 109.679785 
L 401.800042 116.770381 
L 404.523654 115.11929 
L 407.247266 130.619616 
L 412.69449 118.35315 
L 415.418102 114.522128 
L 418.141714 117.495313 
L 420.865326 127.935655 
L 423.588938 134.28055 
L 426.31255 132.068411 
L 429.036162 130.327711 
L 431.759773 122.638701 
L 434.483385 108.581268 
L 437.206997 102.938654 
L 439.930609 97.873294 
L 442.654221 93.94812 
L 445.377833 96.697234 
L 448.101445 100.609469 
L 450.825057 101.554579 
L 453.548669 94.694908 
L 456.272281 98.594619 
L 458.995893 105.866856 
L 461.719505 107.85643 
L 464.443117 115.231577 
L 467.166729 126.380054 
L 469.890341 124.099684 
L 469.890341 124.099684 
" clip-path="url(#pf9ce144a43)" style="fill: none; stroke: #2ca02c; stroke-width: 1.5; stroke-linecap: square"/>
   </g>
   <g id="line2d_30">
    <path d="M 64.072159 286.918125 
L 115.820786 286.918125 
L 118.544398 284.728001 
L 121.26801 283.206458 
L 123.991622 282.276718 
L 126.715234 281.675094 
L 129.438846 281.43514 
L 132.162458 281.066221 
L 137.609682 280.541253 
L 145.780518 279.490594 
L 153.951354 277.941447 
L 162.12219 275.436754 
L 164.845802 274.563188 
L 170.293025 272.657272 
L 178.463861 262.659648 
L 181.187473 258.694076 
L 183.911085 255.061451 
L 189.358309 246.49096 
L 194.805533 237.420227 
L 197.529145 232.040461 
L 200.252757 227.106114 
L 202.976369 221.746364 
L 208.423593 209.814075 
L 211.147205 203.959033 
L 213.870817 197.771179 
L 216.594429 192.039365 
L 224.765265 171.409327 
L 230.212489 144.068098 
L 232.936101 133.853378 
L 235.659712 124.711644 
L 238.383324 116.567213 
L 241.106936 111.192133 
L 243.830548 107.027163 
L 246.55416 102.601727 
L 249.277772 100.687332 
L 252.001384 100.488928 
L 254.724996 99.623709 
L 257.448608 98.882287 
L 260.17222 97.466767 
L 262.895832 98.928152 
L 265.619444 98.961423 
L 268.343056 99.416065 
L 271.066668 97.430566 
L 273.79028 97.456666 
L 276.513892 95.400244 
L 279.237504 97.015151 
L 281.961116 95.591931 
L 284.684728 96.391216 
L 287.40834 98.438301 
L 290.131952 101.059701 
L 292.855564 100.802335 
L 295.579176 99.623709 
L 298.302788 99.97184 
L 301.026399 102.550184 
L 303.750011 106.069063 
L 306.473623 105.2953 
L 309.197235 109.002221 
L 311.920847 109.414099 
L 314.644459 108.869134 
L 317.368071 110.577501 
L 320.091683 108.748309 
L 322.815295 112.318841 
L 325.538907 112.682769 
L 328.262519 111.593653 
L 330.986131 111.878324 
L 333.709743 106.475943 
L 336.433355 104.216216 
L 339.156967 106.312795 
L 341.880579 107.957652 
L 344.604191 111.245797 
L 347.327803 108.520194 
L 350.051415 106.677654 
L 352.775027 112.540565 
L 355.498639 116.373616 
L 358.222251 118.980953 
L 360.945863 122.638701 
L 363.669475 115.276556 
L 366.393086 116.852572 
L 369.116698 119.894903 
L 371.84031 121.189154 
L 374.563922 126.248895 
L 377.287534 127.464771 
L 380.011146 131.157973 
L 382.734758 131.396869 
L 385.45837 128.758396 
L 388.181982 125.77425 
L 390.905594 127.14598 
L 396.352818 115.860926 
L 399.07643 124.700785 
L 401.800042 128.590854 
L 404.523654 123.331863 
L 407.247266 120.299066 
L 409.970878 125.526128 
L 415.418102 130.699464 
L 418.141714 129.538789 
L 420.865326 133.21912 
L 423.588938 129.693913 
L 426.31255 131.279103 
L 429.036162 130.988802 
L 431.759773 137.362136 
L 434.483385 137.362136 
L 437.206997 143.745951 
L 439.930609 142.433861 
L 442.654221 145.775204 
L 445.377833 145.781574 
L 448.101445 148.389306 
L 450.825057 149.776005 
L 453.548669 141.742549 
L 456.272281 144.411504 
L 458.995893 145.109496 
L 461.719505 140.219543 
L 467.166729 154.059032 
L 469.890341 152.010513 
L 469.890341 152.010513 
" clip-path="url(#pf9ce144a43)" style="fill: none; stroke: #d62728; stroke-width: 1.5; stroke-linecap: square"/>
   </g>
   <g id="line2d_31">
    <path d="M 64.072159 286.918125 
L 115.820786 286.918125 
L 118.544398 284.907589 
L 121.26801 283.720076 
L 123.991622 282.942962 
L 129.438846 282.010531 
L 132.162458 281.677345 
L 134.88607 281.472036 
L 140.333294 280.453734 
L 143.056906 280.253126 
L 148.50413 279.064767 
L 151.227742 278.397695 
L 153.951354 277.859038 
L 156.674966 276.99387 
L 159.398578 276.347134 
L 162.12219 275.247338 
L 170.293025 271.678367 
L 175.740249 264.54973 
L 178.463861 260.602165 
L 181.187473 257.015455 
L 183.911085 253.054804 
L 186.634697 248.192475 
L 189.358309 243.056142 
L 192.081921 238.396173 
L 194.805533 233.253984 
L 208.423593 204.727398 
L 216.594429 188.094838 
L 219.318041 183.342056 
L 224.765265 175.950881 
L 227.488877 167.560562 
L 230.212489 160.74864 
L 232.936101 153.189912 
L 235.659712 144.791933 
L 238.383324 137.534509 
L 241.106936 129.348806 
L 243.830548 124.013399 
L 246.55416 119.107356 
L 249.277772 115.9168 
L 252.001384 111.41034 
L 254.724996 108.612043 
L 257.448608 107.608674 
L 260.17222 106.756992 
L 262.895832 106.720114 
L 265.619444 105.168164 
L 268.343056 103.815807 
L 271.066668 103.045291 
L 273.79028 102.07562 
L 279.237504 104.133631 
L 281.961116 103.537323 
L 284.684728 104.060137 
L 287.40834 104.351334 
L 290.131952 105.999244 
L 292.855564 109.192712 
L 295.579176 111.413825 
L 298.302788 112.039058 
L 301.026399 112.462439 
L 303.750011 115.034009 
L 306.473623 115.60209 
L 309.197235 118.095406 
L 311.920847 121.78786 
L 314.644459 119.995017 
L 317.368071 120.022111 
L 320.091683 122.394092 
L 322.815295 122.159133 
L 325.538907 122.948478 
L 328.262519 123.26281 
L 330.986131 127.736489 
L 333.709743 124.881255 
L 336.433355 129.903641 
L 339.156967 130.976959 
L 341.880579 128.208506 
L 344.604191 131.84873 
L 347.327803 130.097978 
L 350.051415 135.903499 
L 352.775027 135.912002 
L 355.498639 129.246805 
L 358.222251 130.351699 
L 360.945863 132.217802 
L 363.669475 138.975461 
L 366.393086 127.045267 
L 369.116698 125.695943 
L 371.84031 122.966854 
L 374.563922 123.599651 
L 377.287534 123.902615 
L 380.011146 122.228207 
L 382.734758 119.798509 
L 385.45837 123.190556 
L 388.181982 127.204736 
L 390.905594 123.281951 
L 393.629206 124.43323 
L 396.352818 122.944414 
L 399.07643 120.855464 
L 401.800042 115.809646 
L 404.523654 114.575784 
L 407.247266 117.632787 
L 409.970878 118.843878 
L 412.69449 120.342118 
L 418.141714 129.995776 
L 420.865326 136.555002 
L 423.588938 127.946279 
L 426.31255 129.590815 
L 429.036162 128.717987 
L 431.759773 140.219543 
L 434.483385 138.909855 
L 437.206997 135.964416 
L 439.930609 139.206549 
L 442.654221 134.741412 
L 445.377833 128.514869 
L 448.101445 119.58131 
L 450.825057 116.792364 
L 453.548669 120.6136 
L 456.272281 123.310944 
L 458.995893 124.635075 
L 461.719505 129.44766 
L 464.443117 139.150128 
L 467.166729 141.795961 
L 469.890341 150.295828 
L 469.890341 150.295828 
" clip-path="url(#pf9ce144a43)" style="fill: none; stroke: #9467bd; stroke-width: 1.5; stroke-linecap: square"/>
   </g>
   <g id="line2d_32">
    <path d="M 64.072159 286.918125 
L 115.820786 286.918125 
L 118.544398 284.784501 
L 121.26801 283.585923 
L 126.715234 282.318538 
L 129.438846 281.891336 
L 132.162458 281.688936 
L 137.609682 280.860926 
L 140.333294 280.342723 
L 145.780518 279.680144 
L 148.50413 279.169699 
L 153.951354 277.73007 
L 156.674966 277.026294 
L 159.398578 276.074348 
L 164.845802 274.467512 
L 170.293025 272.164403 
L 173.016637 268.362414 
L 175.740249 264.836539 
L 178.463861 260.913552 
L 186.634697 247.804488 
L 192.081921 238.620771 
L 194.805533 233.076103 
L 197.529145 228.79975 
L 200.252757 224.214551 
L 202.976369 218.515992 
L 205.699981 213.163783 
L 208.423593 208.624024 
L 219.318041 184.772832 
L 224.765265 177.478808 
L 230.212489 159.064452 
L 232.936101 151.089149 
L 238.383324 136.439835 
L 241.106936 131.599755 
L 246.55416 119.844622 
L 249.277772 114.494725 
L 252.001384 110.594265 
L 254.724996 108.98843 
L 257.448608 102.993589 
L 260.17222 100.633382 
L 262.895832 95.186394 
L 265.619444 92.145909 
L 268.343056 90.5682 
L 271.066668 91.358426 
L 273.79028 91.426473 
L 276.513892 91.989908 
L 279.237504 92.249913 
L 281.961116 89.730018 
L 284.684728 88.918201 
L 287.40834 89.473137 
L 290.131952 88.911297 
L 292.855564 90.623847 
L 295.579176 89.55271 
L 298.302788 93.977333 
L 301.026399 96.355293 
L 303.750011 94.882078 
L 306.473623 96.587366 
L 309.197235 97.184979 
L 314.644459 98.911563 
L 317.368071 102.833391 
L 320.091683 103.225524 
L 322.815295 103.908222 
L 325.538907 101.496653 
L 328.262519 101.616203 
L 330.986131 100.760204 
L 333.709743 98.438301 
L 336.433355 96.436762 
L 339.156967 99.101997 
L 341.880579 99.348276 
L 344.604191 103.695327 
L 347.327803 104.16969 
L 350.051415 108.22083 
L 352.775027 109.27806 
L 355.498639 109.586178 
L 358.222251 108.04522 
L 360.945863 105.256624 
L 363.669475 104.0831 
L 366.393086 104.306069 
L 369.116698 102.437144 
L 371.84031 110.256143 
L 374.563922 109.886416 
L 377.287534 114.433035 
L 380.011146 112.871363 
L 382.734758 116.396343 
L 385.45837 106.718194 
L 388.181982 106.63473 
L 390.905594 103.832572 
L 393.629206 103.979393 
L 396.352818 103.029062 
L 399.07643 105.440306 
L 401.800042 108.458351 
L 404.523654 113.085495 
L 407.247266 112.477247 
L 409.970878 106.583974 
L 412.69449 105.60119 
L 415.418102 116.272101 
L 418.141714 109.708793 
L 420.865326 102.620419 
L 423.588938 97.394013 
L 426.31255 92.771474 
L 429.036162 102.852923 
L 431.759773 96.279166 
L 434.483385 98.76456 
L 437.206997 99.623709 
L 439.930609 104.306069 
L 442.654221 114.229237 
L 445.377833 123.704419 
L 448.101445 127.621328 
L 450.825057 129.832486 
L 453.548669 136.096832 
L 456.272281 143.520838 
L 458.995893 144.968673 
L 461.719505 144.936874 
L 464.443117 154.165489 
L 469.890341 147.957752 
L 469.890341 147.957752 
" clip-path="url(#pf9ce144a43)" style="fill: none; stroke: #8c564b; stroke-width: 1.5; stroke-linecap: square"/>
   </g>
   <g id="patch_3">
    <path d="M 43.78125 299.518125 
L 43.78125 22.318125 
" style="fill: none; stroke: #000000; stroke-width: 0.8; stroke-linejoin: miter; stroke-linecap: square"/>
   </g>
   <g id="patch_4">
    <path d="M 490.18125 299.518125 
L 490.18125 22.318125 
" style="fill: none; stroke: #000000; stroke-width: 0.8; stroke-linejoin: miter; stroke-linecap: square"/>
   </g>
   <g id="patch_5">
    <path d="M 43.78125 299.518125 
L 490.18125 299.518125 
" style="fill: none; stroke: #000000; stroke-width: 0.8; stroke-linejoin: miter; stroke-linecap: square"/>
   </g>
   <g id="patch_6">
    <path d="M 43.78125 22.318125 
L 490.18125 22.318125 
" style="fill: none; stroke: #000000; stroke-width: 0.8; stroke-linejoin: miter; stroke-linecap: square"/>
   </g>
   <g id="text_16">
    <!-- Detection Ratio: SBM-4k (Peak 40) -->
    <g transform="translate(163.664062 16.318125) scale(0.12 -0.12)">
     <defs>
      <path id="DejaVuSans-3a" d="M 750 794 
L 1409 794 
L 1409 0 
L 750 0 
L 750 794 
z
M 750 3309 
L 1409 3309 
L 1409 2516 
L 750 2516 
L 750 3309 
z
" transform="scale(0.015625)"/>
      <path id="DejaVuSans-42" d="M 1259 2228 
L 1259 519 
L 2272 519 
Q 2781 519 3026 730 
Q 3272 941 3272 1375 
Q 3272 1813 3026 2020 
Q 2781 2228 2272 2228 
L 1259 2228 
z
M 1259 4147 
L 1259 2741 
L 2194 2741 
Q 2656 2741 2882 2914 
Q 3109 3088 3109 3444 
Q 3109 3797 2882 3972 
Q 2656 4147 2194 4147 
L 1259 4147 
z
M 628 4666 
L 2241 4666 
Q 2963 4666 3353 4366 
Q 3744 4066 3744 3513 
Q 3744 3084 3544 2831 
Q 3344 2578 2956 2516 
Q 3422 2416 3680 2098 
Q 3938 1781 3938 1306 
Q 3938 681 3513 340 
Q 3088 0 2303 0 
L 628 0 
L 628 4666 
z
" transform="scale(0.015625)"/>
      <path id="DejaVuSans-4d" d="M 628 4666 
L 1569 4666 
L 2759 1491 
L 3956 4666 
L 4897 4666 
L 4897 0 
L 4281 0 
L 4281 4097 
L 3078 897 
L 2444 897 
L 1241 4097 
L 1241 0 
L 628 0 
L 628 4666 
z
" transform="scale(0.015625)"/>
      <path id="DejaVuSans-2d" d="M 313 2009 
L 1997 2009 
L 1997 1497 
L 313 1497 
L 313 2009 
z
" transform="scale(0.015625)"/>
      <path id="DejaVuSans-6b" d="M 581 4863 
L 1159 4863 
L 1159 1991 
L 2875 3500 
L 3609 3500 
L 1753 1863 
L 3688 0 
L 2938 0 
L 1159 1709 
L 1159 0 
L 581 0 
L 581 4863 
z
" transform="scale(0.015625)"/>
      <path id="DejaVuSans-50" d="M 1259 4147 
L 1259 2394 
L 2053 2394 
Q 2494 2394 2734 2622 
Q 2975 2850 2975 3272 
Q 2975 3691 2734 3919 
Q 2494 4147 2053 4147 
L 1259 4147 
z
M 628 4666 
L 2053 4666 
Q 2838 4666 3239 4311 
Q 3641 3956 3641 3272 
Q 3641 2581 3239 2228 
Q 2838 1875 2053 1875 
L 1259 1875 
L 1259 0 
L 628 0 
L 628 4666 
z
" transform="scale(0.015625)"/>
     </defs>
     <use xlink:href="#DejaVuSans-44"/>
     <use xlink:href="#DejaVuSans-65" transform="translate(77.001953 0)"/>
     <use xlink:href="#DejaVuSans-74" transform="translate(138.525391 0)"/>
     <use xlink:href="#DejaVuSans-65" transform="translate(177.734375 0)"/>
     <use xlink:href="#DejaVuSans-63" transform="translate(239.257812 0)"/>
     <use xlink:href="#DejaVuSans-74" transform="translate(294.238281 0)"/>
     <use xlink:href="#DejaVuSans-69" transform="translate(333.447266 0)"/>
     <use xlink:href="#DejaVuSans-6f" transform="translate(361.230469 0)"/>
     <use xlink:href="#DejaVuSans-6e" transform="translate(422.412109 0)"/>
     <use xlink:href="#DejaVuSans-20" transform="translate(485.791016 0)"/>
     <use xlink:href="#DejaVuSans-52" transform="translate(517.578125 0)"/>
     <use xlink:href="#DejaVuSans-61" transform="translate(584.810547 0)"/>
     <use xlink:href="#DejaVuSans-74" transform="translate(646.089844 0)"/>
     <use xlink:href="#DejaVuSans-69" transform="translate(685.298828 0)"/>
     <use xlink:href="#DejaVuSans-6f" transform="translate(713.082031 0)"/>
     <use xlink:href="#DejaVuSans-3a" transform="translate(774.263672 0)"/>
     <use xlink:href="#DejaVuSans-20" transform="translate(807.955078 0)"/>
     <use xlink:href="#DejaVuSans-53" transform="translate(839.742188 0)"/>
     <use xlink:href="#DejaVuSans-42" transform="translate(903.21875 0)"/>
     <use xlink:href="#DejaVuSans-4d" transform="translate(971.822266 0)"/>
     <use xlink:href="#DejaVuSans-2d" transform="translate(1058.101562 0)"/>
     <use xlink:href="#DejaVuSans-34" transform="translate(1094.185547 0)"/>
     <use xlink:href="#DejaVuSans-6b" transform="translate(1157.808594 0)"/>
     <use xlink:href="#DejaVuSans-20" transform="translate(1215.71875 0)"/>
     <use xlink:href="#DejaVuSans-28" transform="translate(1247.505859 0)"/>
     <use xlink:href="#DejaVuSans-50" transform="translate(1286.519531 0)"/>
     <use xlink:href="#DejaVuSans-65" transform="translate(1343.197266 0)"/>
     <use xlink:href="#DejaVuSans-61" transform="translate(1404.720703 0)"/>
     <use xlink:href="#DejaVuSans-6b" transform="translate(1466 0)"/>
     <use xlink:href="#DejaVuSans-20" transform="translate(1523.910156 0)"/>
     <use xlink:href="#DejaVuSans-34" transform="translate(1555.697266 0)"/>
     <use xlink:href="#DejaVuSans-30" transform="translate(1619.320312 0)"/>
     <use xlink:href="#DejaVuSans-29" transform="translate(1682.943359 0)"/>
    </g>
   </g>
   <g id="legend_1">
    <g id="patch_7">
     <path d="M 50.08125 108.78 
L 156.426094 108.78 
Q 158.226094 108.78 158.226094 106.98 
L 158.226094 28.618125 
Q 158.226094 26.818125 156.426094 26.818125 
L 50.08125 26.818125 
Q 48.28125 26.818125 48.28125 28.618125 
L 48.28125 106.98 
Q 48.28125 108.78 50.08125 108.78 
z
" style="fill: #ffffff; opacity: 0.8; stroke: #cccccc; stroke-linejoin: miter"/>
    </g>
    <g id="line2d_33">
     <path d="M 51.88125 34.106719 
L 60.88125 34.106719 
L 69.88125 34.106719 
" style="fill: none; stroke: #1f77b4; stroke-width: 1.5; stroke-linecap: square"/>
    </g>
    <g id="text_17">
     <!-- LocalGNTS-14 -->
     <g transform="translate(77.08125 37.256719) scale(0.09 -0.09)">
      <defs>
       <path id="DejaVuSans-4c" d="M 628 4666 
L 1259 4666 
L 1259 531 
L 3531 531 
L 3531 0 
L 628 0 
L 628 4666 
z
" transform="scale(0.015625)"/>
       <path id="DejaVuSans-47" d="M 3809 666 
L 3809 1919 
L 2778 1919 
L 2778 2438 
L 4434 2438 
L 4434 434 
Q 4069 175 3628 42 
Q 3188 -91 2688 -91 
Q 1594 -91 976 548 
Q 359 1188 359 2328 
Q 359 3472 976 4111 
Q 1594 4750 2688 4750 
Q 3144 4750 3555 4637 
Q 3966 4525 4313 4306 
L 4313 3634 
Q 3963 3931 3569 4081 
Q 3175 4231 2741 4231 
Q 1884 4231 1454 3753 
Q 1025 3275 1025 2328 
Q 1025 1384 1454 906 
Q 1884 428 2741 428 
Q 3075 428 3337 486 
Q 3600 544 3809 666 
z
" transform="scale(0.015625)"/>
       <path id="DejaVuSans-4e" d="M 628 4666 
L 1478 4666 
L 3547 763 
L 3547 4666 
L 4159 4666 
L 4159 0 
L 3309 0 
L 1241 3903 
L 1241 0 
L 628 0 
L 628 4666 
z
" transform="scale(0.015625)"/>
       <path id="DejaVuSans-54" d="M -19 4666 
L 3928 4666 
L 3928 4134 
L 2272 4134 
L 2272 0 
L 1638 0 
L 1638 4134 
L -19 4134 
L -19 4666 
z
" transform="scale(0.015625)"/>
      </defs>
      <use xlink:href="#DejaVuSans-4c"/>
      <use xlink:href="#DejaVuSans-6f" transform="translate(53.962891 0)"/>
      <use xlink:href="#DejaVuSans-63" transform="translate(115.144531 0)"/>
      <use xlink:href="#DejaVuSans-61" transform="translate(170.125 0)"/>
      <use xlink:href="#DejaVuSans-6c" transform="translate(231.404297 0)"/>
      <use xlink:href="#DejaVuSans-47" transform="translate(259.1875 0)"/>
      <use xlink:href="#DejaVuSans-4e" transform="translate(336.677734 0)"/>
      <use xlink:href="#DejaVuSans-54" transform="translate(411.482422 0)"/>
      <use xlink:href="#DejaVuSans-53" transform="translate(472.566406 0)"/>
      <use xlink:href="#DejaVuSans-2d" transform="translate(536.042969 0)"/>
      <use xlink:href="#DejaVuSans-31" transform="translate(572.126953 0)"/>
      <use xlink:href="#DejaVuSans-34" transform="translate(635.75 0)"/>
     </g>
    </g>
    <g id="line2d_34">
     <path d="M 51.88125 47.317031 
L 60.88125 47.317031 
L 69.88125 47.317031 
" style="fill: none; stroke: #ff7f0e; stroke-width: 1.5; stroke-linecap: square"/>
    </g>
    <g id="text_18">
     <!-- GlobalGNTS-14 -->
     <g transform="translate(77.08125 50.467031) scale(0.09 -0.09)">
      <defs>
       <path id="DejaVuSans-62" d="M 3116 1747 
Q 3116 2381 2855 2742 
Q 2594 3103 2138 3103 
Q 1681 3103 1420 2742 
Q 1159 2381 1159 1747 
Q 1159 1113 1420 752 
Q 1681 391 2138 391 
Q 2594 391 2855 752 
Q 3116 1113 3116 1747 
z
M 1159 2969 
Q 1341 3281 1617 3432 
Q 1894 3584 2278 3584 
Q 2916 3584 3314 3078 
Q 3713 2572 3713 1747 
Q 3713 922 3314 415 
Q 2916 -91 2278 -91 
Q 1894 -91 1617 61 
Q 1341 213 1159 525 
L 1159 0 
L 581 0 
L 581 4863 
L 1159 4863 
L 1159 2969 
z
" transform="scale(0.015625)"/>
      </defs>
      <use xlink:href="#DejaVuSans-47"/>
      <use xlink:href="#DejaVuSans-6c" transform="translate(77.490234 0)"/>
      <use xlink:href="#DejaVuSans-6f" transform="translate(105.273438 0)"/>
      <use xlink:href="#DejaVuSans-62" transform="translate(166.455078 0)"/>
      <use xlink:href="#DejaVuSans-61" transform="translate(229.931641 0)"/>
      <use xlink:href="#DejaVuSans-6c" transform="translate(291.210938 0)"/>
      <use xlink:href="#DejaVuSans-47" transform="translate(318.994141 0)"/>
      <use xlink:href="#DejaVuSans-4e" transform="translate(396.484375 0)"/>
      <use xlink:href="#DejaVuSans-54" transform="translate(471.289062 0)"/>
      <use xlink:href="#DejaVuSans-53" transform="translate(532.373047 0)"/>
      <use xlink:href="#DejaVuSans-2d" transform="translate(595.849609 0)"/>
      <use xlink:href="#DejaVuSans-31" transform="translate(631.933594 0)"/>
      <use xlink:href="#DejaVuSans-34" transform="translate(695.556641 0)"/>
     </g>
    </g>
    <g id="line2d_35">
     <path d="M 51.88125 60.527344 
L 60.88125 60.527344 
L 69.88125 60.527344 
" style="fill: none; stroke: #2ca02c; stroke-width: 1.5; stroke-linecap: square"/>
    </g>
    <g id="text_19">
     <!-- Beta-Binomial-14 -->
     <g transform="translate(77.08125 63.677344) scale(0.09 -0.09)">
      <use xlink:href="#DejaVuSans-42"/>
      <use xlink:href="#DejaVuSans-65" transform="translate(68.603516 0)"/>
      <use xlink:href="#DejaVuSans-74" transform="translate(130.126953 0)"/>
      <use xlink:href="#DejaVuSans-61" transform="translate(169.335938 0)"/>
      <use xlink:href="#DejaVuSans-2d" transform="translate(230.615234 0)"/>
      <use xlink:href="#DejaVuSans-42" transform="translate(263.074219 0)"/>
      <use xlink:href="#DejaVuSans-69" transform="translate(331.677734 0)"/>
      <use xlink:href="#DejaVuSans-6e" transform="translate(359.460938 0)"/>
      <use xlink:href="#DejaVuSans-6f" transform="translate(422.839844 0)"/>
      <use xlink:href="#DejaVuSans-6d" transform="translate(484.021484 0)"/>
      <use xlink:href="#DejaVuSans-69" transform="translate(581.433594 0)"/>
      <use xlink:href="#DejaVuSans-61" transform="translate(609.216797 0)"/>
      <use xlink:href="#DejaVuSans-6c" transform="translate(670.496094 0)"/>
      <use xlink:href="#DejaVuSans-2d" transform="translate(698.279297 0)"/>
      <use xlink:href="#DejaVuSans-31" transform="translate(734.363281 0)"/>
      <use xlink:href="#DejaVuSans-34" transform="translate(797.986328 0)"/>
     </g>
    </g>
    <g id="line2d_36">
     <path d="M 51.88125 73.737656 
L 60.88125 73.737656 
L 69.88125 73.737656 
" style="fill: none; stroke: #d62728; stroke-width: 1.5; stroke-linecap: square"/>
    </g>
    <g id="text_20">
     <!-- Proportional -->
     <g transform="translate(77.08125 76.887656) scale(0.09 -0.09)">
      <defs>
       <path id="DejaVuSans-72" d="M 2631 2963 
Q 2534 3019 2420 3045 
Q 2306 3072 2169 3072 
Q 1681 3072 1420 2755 
Q 1159 2438 1159 1844 
L 1159 0 
L 581 0 
L 581 3500 
L 1159 3500 
L 1159 2956 
Q 1341 3275 1631 3429 
Q 1922 3584 2338 3584 
Q 2397 3584 2469 3576 
Q 2541 3569 2628 3553 
L 2631 2963 
z
" transform="scale(0.015625)"/>
       <path id="DejaVuSans-70" d="M 1159 525 
L 1159 -1331 
L 581 -1331 
L 581 3500 
L 1159 3500 
L 1159 2969 
Q 1341 3281 1617 3432 
Q 1894 3584 2278 3584 
Q 2916 3584 3314 3078 
Q 3713 2572 3713 1747 
Q 3713 922 3314 415 
Q 2916 -91 2278 -91 
Q 1894 -91 1617 61 
Q 1341 213 1159 525 
z
M 3116 1747 
Q 3116 2381 2855 2742 
Q 2594 3103 2138 3103 
Q 1681 3103 1420 2742 
Q 1159 2381 1159 1747 
Q 1159 1113 1420 752 
Q 1681 391 2138 391 
Q 2594 391 2855 752 
Q 3116 1113 3116 1747 
z
" transform="scale(0.015625)"/>
      </defs>
      <use xlink:href="#DejaVuSans-50"/>
      <use xlink:href="#DejaVuSans-72" transform="translate(58.552734 0)"/>
      <use xlink:href="#DejaVuSans-6f" transform="translate(97.416016 0)"/>
      <use xlink:href="#DejaVuSans-70" transform="translate(158.597656 0)"/>
      <use xlink:href="#DejaVuSans-6f" transform="translate(222.074219 0)"/>
      <use xlink:href="#DejaVuSans-72" transform="translate(283.255859 0)"/>
      <use xlink:href="#DejaVuSans-74" transform="translate(324.369141 0)"/>
      <use xlink:href="#DejaVuSans-69" transform="translate(363.578125 0)"/>
      <use xlink:href="#DejaVuSans-6f" transform="translate(391.361328 0)"/>
      <use xlink:href="#DejaVuSans-6e" transform="translate(452.542969 0)"/>
      <use xlink:href="#DejaVuSans-61" transform="translate(515.921875 0)"/>
      <use xlink:href="#DejaVuSans-6c" transform="translate(577.201172 0)"/>
     </g>
    </g>
    <g id="line2d_37">
     <path d="M 51.88125 86.947969 
L 60.88125 86.947969 
L 69.88125 86.947969 
" style="fill: none; stroke: #9467bd; stroke-width: 1.5; stroke-linecap: square"/>
    </g>
    <g id="text_21">
     <!-- Uniform -->
     <g transform="translate(77.08125 90.097969) scale(0.09 -0.09)">
      <defs>
       <path id="DejaVuSans-55" d="M 556 4666 
L 1191 4666 
L 1191 1831 
Q 1191 1081 1462 751 
Q 1734 422 2344 422 
Q 2950 422 3222 751 
Q 3494 1081 3494 1831 
L 3494 4666 
L 4128 4666 
L 4128 1753 
Q 4128 841 3676 375 
Q 3225 -91 2344 -91 
Q 1459 -91 1007 375 
Q 556 841 556 1753 
L 556 4666 
z
" transform="scale(0.015625)"/>
      </defs>
      <use xlink:href="#DejaVuSans-55"/>
      <use xlink:href="#DejaVuSans-6e" transform="translate(73.193359 0)"/>
      <use xlink:href="#DejaVuSans-69" transform="translate(136.572266 0)"/>
      <use xlink:href="#DejaVuSans-66" transform="translate(164.355469 0)"/>
      <use xlink:href="#DejaVuSans-6f" transform="translate(199.560547 0)"/>
      <use xlink:href="#DejaVuSans-72" transform="translate(260.742188 0)"/>
      <use xlink:href="#DejaVuSans-6d" transform="translate(300.105469 0)"/>
     </g>
    </g>
    <g id="line2d_38">
     <path d="M 51.88125 100.158281 
L 60.88125 100.158281 
L 69.88125 100.158281 
" style="fill: none; stroke: #8c564b; stroke-width: 1.5; stroke-linecap: square"/>
    </g>
    <g id="text_22">
     <!-- Random -->
     <g transform="translate(77.08125 103.308281) scale(0.09 -0.09)">
      <defs>
       <path id="DejaVuSans-64" d="M 2906 2969 
L 2906 4863 
L 3481 4863 
L 3481 0 
L 2906 0 
L 2906 525 
Q 2725 213 2448 61 
Q 2172 -91 1784 -91 
Q 1150 -91 751 415 
Q 353 922 353 1747 
Q 353 2572 751 3078 
Q 1150 3584 1784 3584 
Q 2172 3584 2448 3432 
Q 2725 3281 2906 2969 
z
M 947 1747 
Q 947 1113 1208 752 
Q 1469 391 1925 391 
Q 2381 391 2643 752 
Q 2906 1113 2906 1747 
Q 2906 2381 2643 2742 
Q 2381 3103 1925 3103 
Q 1469 3103 1208 2742 
Q 947 2381 947 1747 
z
" transform="scale(0.015625)"/>
      </defs>
      <use xlink:href="#DejaVuSans-52"/>
      <use xlink:href="#DejaVuSans-61" transform="translate(67.232422 0)"/>
      <use xlink:href="#DejaVuSans-6e" transform="translate(128.511719 0)"/>
      <use xlink:href="#DejaVuSans-64" transform="translate(191.890625 0)"/>
      <use xlink:href="#DejaVuSans-6f" transform="translate(255.367188 0)"/>
      <use xlink:href="#DejaVuSans-6d" transform="translate(316.548828 0)"/>
     </g>
    </g>
   </g>
  </g>
 </g>
 <defs>
  <clipPath id="pf9ce144a43">
   <rect x="43.78125" y="22.318125" width="446.4" height="277.2"/>
  </clipPath>
 </defs>
</svg>
