<?xml version="1.0" encoding="utf-8" standalone="no"?>
<!DOCTYPE svg PUBLIC "-//W3C//DTD SVG 1.1//EN"
  "http://www.w3.org/Graphics/SVG/1.1/DTD/svg11.dtd">
<svg xmlns:xlink="http://www.w3.org/1999/xlink" width="497.38125pt" height="337.074375pt" viewBox="0 0 497.38125 337.074375" xmlns="http://www.w3.org/2000/svg" version="1.1">
 <metadata>
  <rdf:RDF xmlns:dc="http://purl.org/dc/elements/1.1/" xmlns:cc="http://creativecommons.org/ns#" xmlns:rdf="http://www.w3.org/1999/02/22-rdf-syntax-ns#">
   <cc:Work>
    <dc:type rdf:resource="http://purl.org/dc/dcmitype/StillImage"/>
    <dc:date>2026-07-01T17:14:02.280589</dc:date>
    <dc:format>image/svg+xml</dc:format>
    <dc:creator>
     <cc:Agent>
      <dc:title>Matplotlib v3.10.8, https://matplotlib.org/</dc:title>
     </cc:Agent>
    </dc:creator>
   </cc:Work>
  </rdf:RDF>
 </metadata>
 <defs>
  <style type="text/css">*{stroke-linejoin: round; stroke-linecap: butt}</style>
 </defs>
 <g id="figure_1">
  <g id="patch_1">
   <path d="M 0 337.074375 
L 497.38125 337.074375 
L 497.38125 0 
L 0 0 
z
" style="fill: #ffffff"/>
  </g>
  <g id="axes_1">
   <g id="patch_2">
    <path d="M 43.78125 299.518125 
L 490.18125 299.518125 
L 490.18125 22.318125 
L 43.78125 22.318125 
z
" style="fill: #ffffff"/>
   </g>
   <g id="matplotlib.axis_1">
    <g id="xtick_1">
     <g id="line2d_1">
      <path d="M 64.072159 299.518125 
L 64.072159 22.318125 
" clip-path="url(#p9739459b44)" style="fill: none; stroke-dasharray: 1.85,0.8; stroke-dashoffset: 0; stroke: #b0b0b0; stroke-opacity: 0.6; stroke-width: 0.5"/>
     </g>
     <g id="line2d_2">
      <defs>
       <path id="md812ccaa8b" d="M 0 0 
L 0 3.5 
" style="stroke: #000000; stroke-width: 0.8"/>
      </defs>
      <g>
       <use xlink:href="#md812ccaa8b" x="64.072159" y="299.518125" style="stroke: #000000; stroke-width: 0.8"/>
      </g>
     </g>
     <g id="text_1">
      <!-- 0 -->
      <g transform="translate(60.890909 314.116563) scale(0.1 -0.1)">
       <defs>
        <path id="DejaVuSans-30" d="M 2034 4250 
Q 1547 4250 1301 3770 
Q 1056 3291 1056 2328 
Q 1056 1369 1301 889 
Q 1547 409 2034 409 
Q 2525 409 2770 889 
Q 3016 1369 3016 2328 
Q 3016 3291 2770 3770 
Q 2525 4250 2034 4250 
z
M 2034 4750 
Q 2819 4750 3233 4129 
Q 3647 3509 3647 2328 
Q 3647 1150 3233 529 
Q 2819 -91 2034 -91 
Q 1250 -91 836 529 
Q 422 1150 422 2328 
Q 422 3509 836 4129 
Q 1250 4750 2034 4750 
z
" transform="scale(0.015625)"/>
       </defs>
       <use xlink:href="#DejaVuSans-30"/>
      </g>
     </g>
    </g>
    <g id="xtick_2">
     <g id="line2d_3">
      <path d="M 118.544398 299.518125 
L 118.544398 22.318125 
" clip-path="url(#p9739459b44)" style="fill: none; stroke-dasharray: 1.85,0.8; stroke-dashoffset: 0; stroke: #b0b0b0; stroke-opacity: 0.6; stroke-width: 0.5"/>
     </g>
     <g id="line2d_4">
      <g>
       <use xlink:href="#md812ccaa8b" x="118.544398" y="299.518125" style="stroke: #000000; stroke-width: 0.8"/>
      </g>
     </g>
     <g id="text_2">
      <!-- 20 -->
      <g transform="translate(112.181898 314.116563) scale(0.1 -0.1)">
       <defs>
        <path id="DejaVuSans-32" d="M 1228 531 
L 3431 531 
L 3431 0 
L 469 0 
L 469 531 
Q 828 903 1448 1529 
Q 2069 2156 2228 2338 
Q 2531 2678 2651 2914 
Q 2772 3150 2772 3378 
Q 2772 3750 2511 3984 
Q 2250 4219 1831 4219 
Q 1534 4219 1204 4116 
Q 875 4013 500 3803 
L 500 4441 
Q 881 4594 1212 4672 
Q 1544 4750 1819 4750 
Q 2544 4750 2975 4387 
Q 3406 4025 3406 3419 
Q 3406 3131 3298 2873 
Q 3191 2616 2906 2266 
Q 2828 2175 2409 1742 
Q 1991 1309 1228 531 
z
" transform="scale(0.015625)"/>
       </defs>
       <use xlink:href="#DejaVuSans-32"/>
       <use xlink:href="#DejaVuSans-30" transform="translate(63.623047 0)"/>
      </g>
     </g>
    </g>
    <g id="xtick_3">
     <g id="line2d_5">
      <path d="M 173.016637 299.518125 
L 173.016637 22.318125 
" clip-path="url(#p9739459b44)" style="fill: none; stroke-dasharray: 1.85,0.8; stroke-dashoffset: 0; stroke: #b0b0b0; stroke-opacity: 0.6; stroke-width: 0.5"/>
     </g>
     <g id="line2d_6">
      <g>
       <use xlink:href="#md812ccaa8b" x="173.016637" y="299.518125" style="stroke: #000000; stroke-width: 0.8"/>
      </g>
     </g>
     <g id="text_3">
      <!-- 40 -->
      <g transform="translate(166.654137 314.116563) scale(0.1 -0.1)">
       <defs>
        <path id="DejaVuSans-34" d="M 2419 4116 
L 825 1625 
L 2419 1625 
L 2419 4116 
z
M 2253 4666 
L 3047 4666 
L 3047 1625 
L 3713 1625 
L 3713 1100 
L 3047 1100 
L 3047 0 
L 2419 0 
L 2419 1100 
L 313 1100 
L 313 1709 
L 2253 4666 
z
" transform="scale(0.015625)"/>
       </defs>
       <use xlink:href="#DejaVuSans-34"/>
       <use xlink:href="#DejaVuSans-30" transform="translate(63.623047 0)"/>
      </g>
     </g>
    </g>
    <g id="xtick_4">
     <g id="line2d_7">
      <path d="M 227.488877 299.518125 
L 227.488877 22.318125 
" clip-path="url(#p9739459b44)" style="fill: none; stroke-dasharray: 1.85,0.8; stroke-dashoffset: 0; stroke: #b0b0b0; stroke-opacity: 0.6; stroke-width: 0.5"/>
     </g>
     <g id="line2d_8">
      <g>
       <use xlink:href="#md812ccaa8b" x="227.488877" y="299.518125" style="stroke: #000000; stroke-width: 0.8"/>
      </g>
     </g>
     <g id="text_4">
      <!-- 60 -->
      <g transform="translate(221.126377 314.116563) scale(0.1 -0.1)">
       <defs>
        <path id="DejaVuSans-36" d="M 2113 2584 
Q 1688 2584 1439 2293 
Q 1191 2003 1191 1497 
Q 1191 994 1439 701 
Q 1688 409 2113 409 
Q 2538 409 2786 701 
Q 3034 994 3034 1497 
Q 3034 2003 2786 2293 
Q 2538 2584 2113 2584 
z
M 3366 4563 
L 3366 3988 
Q 3128 4100 2886 4159 
Q 2644 4219 2406 4219 
Q 1781 4219 1451 3797 
Q 1122 3375 1075 2522 
Q 1259 2794 1537 2939 
Q 1816 3084 2150 3084 
Q 2853 3084 3261 2657 
Q 3669 2231 3669 1497 
Q 3669 778 3244 343 
Q 2819 -91 2113 -91 
Q 1303 -91 875 529 
Q 447 1150 447 2328 
Q 447 3434 972 4092 
Q 1497 4750 2381 4750 
Q 2619 4750 2861 4703 
Q 3103 4656 3366 4563 
z
" transform="scale(0.015625)"/>
       </defs>
       <use xlink:href="#DejaVuSans-36"/>
       <use xlink:href="#DejaVuSans-30" transform="translate(63.623047 0)"/>
      </g>
     </g>
    </g>
    <g id="xtick_5">
     <g id="line2d_9">
      <path d="M 281.961116 299.518125 
L 281.961116 22.318125 
" clip-path="url(#p9739459b44)" style="fill: none; stroke-dasharray: 1.85,0.8; stroke-dashoffset: 0; stroke: #b0b0b0; stroke-opacity: 0.6; stroke-width: 0.5"/>
     </g>
     <g id="line2d_10">
      <g>
       <use xlink:href="#md812ccaa8b" x="281.961116" y="299.518125" style="stroke: #000000; stroke-width: 0.8"/>
      </g>
     </g>
     <g id="text_5">
      <!-- 80 -->
      <g transform="translate(275.598616 314.116563) scale(0.1 -0.1)">
       <defs>
        <path id="DejaVuSans-38" d="M 2034 2216 
Q 1584 2216 1326 1975 
Q 1069 1734 1069 1313 
Q 1069 891 1326 650 
Q 1584 409 2034 409 
Q 2484 409 2743 651 
Q 3003 894 3003 1313 
Q 3003 1734 2745 1975 
Q 2488 2216 2034 2216 
z
M 1403 2484 
Q 997 2584 770 2862 
Q 544 3141 544 3541 
Q 544 4100 942 4425 
Q 1341 4750 2034 4750 
Q 2731 4750 3128 4425 
Q 3525 4100 3525 3541 
Q 3525 3141 3298 2862 
Q 3072 2584 2669 2484 
Q 3125 2378 3379 2068 
Q 3634 1759 3634 1313 
Q 3634 634 3220 271 
Q 2806 -91 2034 -91 
Q 1263 -91 848 271 
Q 434 634 434 1313 
Q 434 1759 690 2068 
Q 947 2378 1403 2484 
z
M 1172 3481 
Q 1172 3119 1398 2916 
Q 1625 2713 2034 2713 
Q 2441 2713 2670 2916 
Q 2900 3119 2900 3481 
Q 2900 3844 2670 4047 
Q 2441 4250 2034 4250 
Q 1625 4250 1398 4047 
Q 1172 3844 1172 3481 
z
" transform="scale(0.015625)"/>
       </defs>
       <use xlink:href="#DejaVuSans-38"/>
       <use xlink:href="#DejaVuSans-30" transform="translate(63.623047 0)"/>
      </g>
     </g>
    </g>
    <g id="xtick_6">
     <g id="line2d_11">
      <path d="M 336.433355 299.518125 
L 336.433355 22.318125 
" clip-path="url(#p9739459b44)" style="fill: none; stroke-dasharray: 1.85,0.8; stroke-dashoffset: 0; stroke: #b0b0b0; stroke-opacity: 0.6; stroke-width: 0.5"/>
     </g>
     <g id="line2d_12">
      <g>
       <use xlink:href="#md812ccaa8b" x="336.433355" y="299.518125" style="stroke: #000000; stroke-width: 0.8"/>
      </g>
     </g>
     <g id="text_6">
      <!-- 100 -->
      <g transform="translate(326.889605 314.116563) scale(0.1 -0.1)">
       <defs>
        <path id="DejaVuSans-31" d="M 794 531 
L 1825 531 
L 1825 4091 
L 703 3866 
L 703 4441 
L 1819 4666 
L 2450 4666 
L 2450 531 
L 3481 531 
L 3481 0 
L 794 0 
L 794 531 
z
" transform="scale(0.015625)"/>
       </defs>
       <use xlink:href="#DejaVuSans-31"/>
       <use xlink:href="#DejaVuSans-30" transform="translate(63.623047 0)"/>
       <use xlink:href="#DejaVuSans-30" transform="translate(127.246094 0)"/>
      </g>
     </g>
    </g>
    <g id="xtick_7">
     <g id="line2d_13">
      <path d="M 390.905594 299.518125 
L 390.905594 22.318125 
" clip-path="url(#p9739459b44)" style="fill: none; stroke-dasharray: 1.85,0.8; stroke-dashoffset: 0; stroke: #b0b0b0; stroke-opacity: 0.6; stroke-width: 0.5"/>
     </g>
     <g id="line2d_14">
      <g>
       <use xlink:href="#md812ccaa8b" x="390.905594" y="299.518125" style="stroke: #000000; stroke-width: 0.8"/>
      </g>
     </g>
     <g id="text_7">
      <!-- 120 -->
      <g transform="translate(381.361844 314.116563) scale(0.1 -0.1)">
       <use xlink:href="#DejaVuSans-31"/>
       <use xlink:href="#DejaVuSans-32" transform="translate(63.623047 0)"/>
       <use xlink:href="#DejaVuSans-30" transform="translate(127.246094 0)"/>
      </g>
     </g>
    </g>
    <g id="xtick_8">
     <g id="line2d_15">
      <path d="M 445.377833 299.518125 
L 445.377833 22.318125 
" clip-path="url(#p9739459b44)" style="fill: none; stroke-dasharray: 1.85,0.8; stroke-dashoffset: 0; stroke: #b0b0b0; stroke-opacity: 0.6; stroke-width: 0.5"/>
     </g>
     <g id="line2d_16">
      <g>
       <use xlink:href="#md812ccaa8b" x="445.377833" y="299.518125" style="stroke: #000000; stroke-width: 0.8"/>
      </g>
     </g>
     <g id="text_8">
      <!-- 140 -->
      <g transform="translate(435.834083 314.116563) scale(0.1 -0.1)">
       <use xlink:href="#DejaVuSans-31"/>
       <use xlink:href="#DejaVuSans-34" transform="translate(63.623047 0)"/>
       <use xlink:href="#DejaVuSans-30" transform="translate(127.246094 0)"/>
      </g>
     </g>
    </g>
    <g id="text_9">
     <!-- Simulation Day -->
     <g transform="translate(228.885937 327.794688) scale(0.1 -0.1)">
      <defs>
       <path id="DejaVuSans-53" d="M 3425 4513 
L 3425 3897 
Q 3066 4069 2747 4153 
Q 2428 4238 2131 4238 
Q 1616 4238 1336 4038 
Q 1056 3838 1056 3469 
Q 1056 3159 1242 3001 
Q 1428 2844 1947 2747 
L 2328 2669 
Q 3034 2534 3370 2195 
Q 3706 1856 3706 1288 
Q 3706 609 3251 259 
Q 2797 -91 1919 -91 
Q 1588 -91 1214 -16 
Q 841 59 441 206 
L 441 856 
Q 825 641 1194 531 
Q 1563 422 1919 422 
Q 2459 422 2753 634 
Q 3047 847 3047 1241 
Q 3047 1584 2836 1778 
Q 2625 1972 2144 2069 
L 1759 2144 
Q 1053 2284 737 2584 
Q 422 2884 422 3419 
Q 422 4038 858 4394 
Q 1294 4750 2059 4750 
Q 2388 4750 2728 4690 
Q 3069 4631 3425 4513 
z
" transform="scale(0.015625)"/>
       <path id="DejaVuSans-69" d="M 603 3500 
L 1178 3500 
L 1178 0 
L 603 0 
L 603 3500 
z
M 603 4863 
L 1178 4863 
L 1178 4134 
L 603 4134 
L 603 4863 
z
" transform="scale(0.015625)"/>
       <path id="DejaVuSans-6d" d="M 3328 2828 
Q 3544 3216 3844 3400 
Q 4144 3584 4550 3584 
Q 5097 3584 5394 3201 
Q 5691 2819 5691 2113 
L 5691 0 
L 5113 0 
L 5113 2094 
Q 5113 2597 4934 2840 
Q 4756 3084 4391 3084 
Q 3944 3084 3684 2787 
Q 3425 2491 3425 1978 
L 3425 0 
L 2847 0 
L 2847 2094 
Q 2847 2600 2669 2842 
Q 2491 3084 2119 3084 
Q 1678 3084 1418 2786 
Q 1159 2488 1159 1978 
L 1159 0 
L 581 0 
L 581 3500 
L 1159 3500 
L 1159 2956 
Q 1356 3278 1631 3431 
Q 1906 3584 2284 3584 
Q 2666 3584 2933 3390 
Q 3200 3197 3328 2828 
z
" transform="scale(0.015625)"/>
       <path id="DejaVuSans-75" d="M 544 1381 
L 544 3500 
L 1119 3500 
L 1119 1403 
Q 1119 906 1312 657 
Q 1506 409 1894 409 
Q 2359 409 2629 706 
Q 2900 1003 2900 1516 
L 2900 3500 
L 3475 3500 
L 3475 0 
L 2900 0 
L 2900 538 
Q 2691 219 2414 64 
Q 2138 -91 1772 -91 
Q 1169 -91 856 284 
Q 544 659 544 1381 
z
M 1991 3584 
L 1991 3584 
z
" transform="scale(0.015625)"/>
       <path id="DejaVuSans-6c" d="M 603 4863 
L 1178 4863 
L 1178 0 
L 603 0 
L 603 4863 
z
" transform="scale(0.015625)"/>
       <path id="DejaVuSans-61" d="M 2194 1759 
Q 1497 1759 1228 1600 
Q 959 1441 959 1056 
Q 959 750 1161 570 
Q 1363 391 1709 391 
Q 2188 391 2477 730 
Q 2766 1069 2766 1631 
L 2766 1759 
L 2194 1759 
z
M 3341 1997 
L 3341 0 
L 2766 0 
L 2766 531 
Q 2569 213 2275 61 
Q 1981 -91 1556 -91 
Q 1019 -91 701 211 
Q 384 513 384 1019 
Q 384 1609 779 1909 
Q 1175 2209 1959 2209 
L 2766 2209 
L 2766 2266 
Q 2766 2663 2505 2880 
Q 2244 3097 1772 3097 
Q 1472 3097 1187 3025 
Q 903 2953 641 2809 
L 641 3341 
Q 956 3463 1253 3523 
Q 1550 3584 1831 3584 
Q 2591 3584 2966 3190 
Q 3341 2797 3341 1997 
z
" transform="scale(0.015625)"/>
       <path id="DejaVuSans-74" d="M 1172 4494 
L 1172 3500 
L 2356 3500 
L 2356 3053 
L 1172 3053 
L 1172 1153 
Q 1172 725 1289 603 
Q 1406 481 1766 481 
L 2356 481 
L 2356 0 
L 1766 0 
Q 1100 0 847 248 
Q 594 497 594 1153 
L 594 3053 
L 172 3053 
L 172 3500 
L 594 3500 
L 594 4494 
L 1172 4494 
z
" transform="scale(0.015625)"/>
       <path id="DejaVuSans-6f" d="M 1959 3097 
Q 1497 3097 1228 2736 
Q 959 2375 959 1747 
Q 959 1119 1226 758 
Q 1494 397 1959 397 
Q 2419 397 2687 759 
Q 2956 1122 2956 1747 
Q 2956 2369 2687 2733 
Q 2419 3097 1959 3097 
z
M 1959 3584 
Q 2709 3584 3137 3096 
Q 3566 2609 3566 1747 
Q 3566 888 3137 398 
Q 2709 -91 1959 -91 
Q 1206 -91 779 398 
Q 353 888 353 1747 
Q 353 2609 779 3096 
Q 1206 3584 1959 3584 
z
" transform="scale(0.015625)"/>
       <path id="DejaVuSans-6e" d="M 3513 2113 
L 3513 0 
L 2938 0 
L 2938 2094 
Q 2938 2591 2744 2837 
Q 2550 3084 2163 3084 
Q 1697 3084 1428 2787 
Q 1159 2491 1159 1978 
L 1159 0 
L 581 0 
L 581 3500 
L 1159 3500 
L 1159 2956 
Q 1366 3272 1645 3428 
Q 1925 3584 2291 3584 
Q 2894 3584 3203 3211 
Q 3513 2838 3513 2113 
z
" transform="scale(0.015625)"/>
       <path id="DejaVuSans-20" transform="scale(0.015625)"/>
       <path id="DejaVuSans-44" d="M 1259 4147 
L 1259 519 
L 2022 519 
Q 2988 519 3436 956 
Q 3884 1394 3884 2338 
Q 3884 3275 3436 3711 
Q 2988 4147 2022 4147 
L 1259 4147 
z
M 628 4666 
L 1925 4666 
Q 3281 4666 3915 4102 
Q 4550 3538 4550 2338 
Q 4550 1131 3912 565 
Q 3275 0 1925 0 
L 628 0 
L 628 4666 
z
" transform="scale(0.015625)"/>
       <path id="DejaVuSans-79" d="M 2059 -325 
Q 1816 -950 1584 -1140 
Q 1353 -1331 966 -1331 
L 506 -1331 
L 506 -850 
L 844 -850 
Q 1081 -850 1212 -737 
Q 1344 -625 1503 -206 
L 1606 56 
L 191 3500 
L 800 3500 
L 1894 763 
L 2988 3500 
L 3597 3500 
L 2059 -325 
z
" transform="scale(0.015625)"/>
      </defs>
      <use xlink:href="#DejaVuSans-53"/>
      <use xlink:href="#DejaVuSans-69" transform="translate(63.476562 0)"/>
      <use xlink:href="#DejaVuSans-6d" transform="translate(91.259766 0)"/>
      <use xlink:href="#DejaVuSans-75" transform="translate(188.671875 0)"/>
      <use xlink:href="#DejaVuSans-6c" transform="translate(252.050781 0)"/>
      <use xlink:href="#DejaVuSans-61" transform="translate(279.833984 0)"/>
      <use xlink:href="#DejaVuSans-74" transform="translate(341.113281 0)"/>
      <use xlink:href="#DejaVuSans-69" transform="translate(380.322266 0)"/>
      <use xlink:href="#DejaVuSans-6f" transform="translate(408.105469 0)"/>
      <use xlink:href="#DejaVuSans-6e" transform="translate(469.287109 0)"/>
      <use xlink:href="#DejaVuSans-20" transform="translate(532.666016 0)"/>
      <use xlink:href="#DejaVuSans-44" transform="translate(564.453125 0)"/>
      <use xlink:href="#DejaVuSans-61" transform="translate(641.455078 0)"/>
      <use xlink:href="#DejaVuSans-79" transform="translate(702.734375 0)"/>
     </g>
    </g>
   </g>
   <g id="matplotlib.axis_2">
    <g id="ytick_1">
     <g id="line2d_17">
      <path d="M 43.78125 286.918125 
L 490.18125 286.918125 
" clip-path="url(#p9739459b44)" style="fill: none; stroke-dasharray: 1.85,0.8; stroke-dashoffset: 0; stroke: #b0b0b0; stroke-opacity: 0.6; stroke-width: 0.5"/>
     </g>
     <g id="line2d_18">
      <defs>
       <path id="m0760981d23" d="M 0 0 
L -3.5 0 
" style="stroke: #000000; stroke-width: 0.8"/>
      </defs>
      <g>
       <use xlink:href="#m0760981d23" x="43.78125" y="286.918125" style="stroke: #000000; stroke-width: 0.8"/>
      </g>
     </g>
     <g id="text_10">
      <!-- 0.0 -->
      <g transform="translate(20.878125 290.717344) scale(0.1 -0.1)">
       <defs>
        <path id="DejaVuSans-2e" d="M 684 794 
L 1344 794 
L 1344 0 
L 684 0 
L 684 794 
z
" transform="scale(0.015625)"/>
       </defs>
       <use xlink:href="#DejaVuSans-30"/>
       <use xlink:href="#DejaVuSans-2e" transform="translate(63.623047 0)"/>
       <use xlink:href="#DejaVuSans-30" transform="translate(95.410156 0)"/>
      </g>
     </g>
    </g>
    <g id="ytick_2">
     <g id="line2d_19">
      <path d="M 43.78125 227.397084 
L 490.18125 227.397084 
" clip-path="url(#p9739459b44)" style="fill: none; stroke-dasharray: 1.85,0.8; stroke-dashoffset: 0; stroke: #b0b0b0; stroke-opacity: 0.6; stroke-width: 0.5"/>
     </g>
     <g id="line2d_20">
      <g>
       <use xlink:href="#m0760981d23" x="43.78125" y="227.397084" style="stroke: #000000; stroke-width: 0.8"/>
      </g>
     </g>
     <g id="text_11">
      <!-- 0.2 -->
      <g transform="translate(20.878125 231.196303) scale(0.1 -0.1)">
       <use xlink:href="#DejaVuSans-30"/>
       <use xlink:href="#DejaVuSans-2e" transform="translate(63.623047 0)"/>
       <use xlink:href="#DejaVuSans-32" transform="translate(95.410156 0)"/>
      </g>
     </g>
    </g>
    <g id="ytick_3">
     <g id="line2d_21">
      <path d="M 43.78125 167.876043 
L 490.18125 167.876043 
" clip-path="url(#p9739459b44)" style="fill: none; stroke-dasharray: 1.85,0.8; stroke-dashoffset: 0; stroke: #b0b0b0; stroke-opacity: 0.6; stroke-width: 0.5"/>
     </g>
     <g id="line2d_22">
      <g>
       <use xlink:href="#m0760981d23" x="43.78125" y="167.876043" style="stroke: #000000; stroke-width: 0.8"/>
      </g>
     </g>
     <g id="text_12">
      <!-- 0.4 -->
      <g transform="translate(20.878125 171.675261) scale(0.1 -0.1)">
       <use xlink:href="#DejaVuSans-30"/>
       <use xlink:href="#DejaVuSans-2e" transform="translate(63.623047 0)"/>
       <use xlink:href="#DejaVuSans-34" transform="translate(95.410156 0)"/>
      </g>
     </g>
    </g>
    <g id="ytick_4">
     <g id="line2d_23">
      <path d="M 43.78125 108.355001 
L 490.18125 108.355001 
" clip-path="url(#p9739459b44)" style="fill: none; stroke-dasharray: 1.85,0.8; stroke-dashoffset: 0; stroke: #b0b0b0; stroke-opacity: 0.6; stroke-width: 0.5"/>
     </g>
     <g id="line2d_24">
      <g>
       <use xlink:href="#m0760981d23" x="43.78125" y="108.355001" style="stroke: #000000; stroke-width: 0.8"/>
      </g>
     </g>
     <g id="text_13">
      <!-- 0.6 -->
      <g transform="translate(20.878125 112.15422) scale(0.1 -0.1)">
       <use xlink:href="#DejaVuSans-30"/>
       <use xlink:href="#DejaVuSans-2e" transform="translate(63.623047 0)"/>
       <use xlink:href="#DejaVuSans-36" transform="translate(95.410156 0)"/>
      </g>
     </g>
    </g>
    <g id="ytick_5">
     <g id="line2d_25">
      <path d="M 43.78125 48.83396 
L 490.18125 48.83396 
" clip-path="url(#p9739459b44)" style="fill: none; stroke-dasharray: 1.85,0.8; stroke-dashoffset: 0; stroke: #b0b0b0; stroke-opacity: 0.6; stroke-width: 0.5"/>
     </g>
     <g id="line2d_26">
      <g>
       <use xlink:href="#m0760981d23" x="43.78125" y="48.83396" style="stroke: #000000; stroke-width: 0.8"/>
      </g>
     </g>
     <g id="text_14">
      <!-- 0.8 -->
      <g transform="translate(20.878125 52.633179) scale(0.1 -0.1)">
       <use xlink:href="#DejaVuSans-30"/>
       <use xlink:href="#DejaVuSans-2e" transform="translate(63.623047 0)"/>
       <use xlink:href="#DejaVuSans-38" transform="translate(95.410156 0)"/>
      </g>
     </g>
    </g>
    <g id="text_15">
     <!-- Detection Ratio (Efficiency) -->
     <g transform="translate(14.798438 229.282969) rotate(-90) scale(0.1 -0.1)">
      <defs>
       <path id="DejaVuSans-65" d="M 3597 1894 
L 3597 1613 
L 953 1613 
Q 991 1019 1311 708 
Q 1631 397 2203 397 
Q 2534 397 2845 478 
Q 3156 559 3463 722 
L 3463 178 
Q 3153 47 2828 -22 
Q 2503 -91 2169 -91 
Q 1331 -91 842 396 
Q 353 884 353 1716 
Q 353 2575 817 3079 
Q 1281 3584 2069 3584 
Q 2775 3584 3186 3129 
Q 3597 2675 3597 1894 
z
M 3022 2063 
Q 3016 2534 2758 2815 
Q 2500 3097 2075 3097 
Q 1594 3097 1305 2825 
Q 1016 2553 972 2059 
L 3022 2063 
z
" transform="scale(0.015625)"/>
       <path id="DejaVuSans-63" d="M 3122 3366 
L 3122 2828 
Q 2878 2963 2633 3030 
Q 2388 3097 2138 3097 
Q 1578 3097 1268 2742 
Q 959 2388 959 1747 
Q 959 1106 1268 751 
Q 1578 397 2138 397 
Q 2388 397 2633 464 
Q 2878 531 3122 666 
L 3122 134 
Q 2881 22 2623 -34 
Q 2366 -91 2075 -91 
Q 1284 -91 818 406 
Q 353 903 353 1747 
Q 353 2603 823 3093 
Q 1294 3584 2113 3584 
Q 2378 3584 2631 3529 
Q 2884 3475 3122 3366 
z
" transform="scale(0.015625)"/>
       <path id="DejaVuSans-52" d="M 2841 2188 
Q 3044 2119 3236 1894 
Q 3428 1669 3622 1275 
L 4263 0 
L 3584 0 
L 2988 1197 
Q 2756 1666 2539 1819 
Q 2322 1972 1947 1972 
L 1259 1972 
L 1259 0 
L 628 0 
L 628 4666 
L 2053 4666 
Q 2853 4666 3247 4331 
Q 3641 3997 3641 3322 
Q 3641 2881 3436 2590 
Q 3231 2300 2841 2188 
z
M 1259 4147 
L 1259 2491 
L 2053 2491 
Q 2509 2491 2742 2702 
Q 2975 2913 2975 3322 
Q 2975 3731 2742 3939 
Q 2509 4147 2053 4147 
L 1259 4147 
z
" transform="scale(0.015625)"/>
       <path id="DejaVuSans-28" d="M 1984 4856 
Q 1566 4138 1362 3434 
Q 1159 2731 1159 2009 
Q 1159 1288 1364 580 
Q 1569 -128 1984 -844 
L 1484 -844 
Q 1016 -109 783 600 
Q 550 1309 550 2009 
Q 550 2706 781 3412 
Q 1013 4119 1484 4856 
L 1984 4856 
z
" transform="scale(0.015625)"/>
       <path id="DejaVuSans-45" d="M 628 4666 
L 3578 4666 
L 3578 4134 
L 1259 4134 
L 1259 2753 
L 3481 2753 
L 3481 2222 
L 1259 2222 
L 1259 531 
L 3634 531 
L 3634 0 
L 628 0 
L 628 4666 
z
" transform="scale(0.015625)"/>
       <path id="DejaVuSans-66" d="M 2375 4863 
L 2375 4384 
L 1825 4384 
Q 1516 4384 1395 4259 
Q 1275 4134 1275 3809 
L 1275 3500 
L 2222 3500 
L 2222 3053 
L 1275 3053 
L 1275 0 
L 697 0 
L 697 3053 
L 147 3053 
L 147 3500 
L 697 3500 
L 697 3744 
Q 697 4328 969 4595 
Q 1241 4863 1831 4863 
L 2375 4863 
z
" transform="scale(0.015625)"/>
       <path id="DejaVuSans-29" d="M 513 4856 
L 1013 4856 
Q 1481 4119 1714 3412 
Q 1947 2706 1947 2009 
Q 1947 1309 1714 600 
Q 1481 -109 1013 -844 
L 513 -844 
Q 928 -128 1133 580 
Q 1338 1288 1338 2009 
Q 1338 2731 1133 3434 
Q 928 4138 513 4856 
z
" transform="scale(0.015625)"/>
      </defs>
      <use xlink:href="#DejaVuSans-44"/>
      <use xlink:href="#DejaVuSans-65" transform="translate(77.001953 0)"/>
      <use xlink:href="#DejaVuSans-74" transform="translate(138.525391 0)"/>
      <use xlink:href="#DejaVuSans-65" transform="translate(177.734375 0)"/>
      <use xlink:href="#DejaVuSans-63" transform="translate(239.257812 0)"/>
      <use xlink:href="#DejaVuSans-74" transform="translate(294.238281 0)"/>
      <use xlink:href="#DejaVuSans-69" transform="translate(333.447266 0)"/>
      <use xlink:href="#DejaVuSans-6f" transform="translate(361.230469 0)"/>
      <use xlink:href="#DejaVuSans-6e" transform="translate(422.412109 0)"/>
      <use xlink:href="#DejaVuSans-20" transform="translate(485.791016 0)"/>
      <use xlink:href="#DejaVuSans-52" transform="translate(517.578125 0)"/>
      <use xlink:href="#DejaVuSans-61" transform="translate(584.810547 0)"/>
      <use xlink:href="#DejaVuSans-74" transform="translate(646.089844 0)"/>
      <use xlink:href="#DejaVuSans-69" transform="translate(685.298828 0)"/>
      <use xlink:href="#DejaVuSans-6f" transform="translate(713.082031 0)"/>
      <use xlink:href="#DejaVuSans-20" transform="translate(774.263672 0)"/>
      <use xlink:href="#DejaVuSans-28" transform="translate(806.050781 0)"/>
      <use xlink:href="#DejaVuSans-45" transform="translate(845.064453 0)"/>
      <use xlink:href="#DejaVuSans-66" transform="translate(908.248047 0)"/>
      <use xlink:href="#DejaVuSans-66" transform="translate(943.453125 0)"/>
      <use xlink:href="#DejaVuSans-69" transform="translate(978.658203 0)"/>
      <use xlink:href="#DejaVuSans-63" transform="translate(1006.441406 0)"/>
      <use xlink:href="#DejaVuSans-69" transform="translate(1061.421875 0)"/>
      <use xlink:href="#DejaVuSans-65" transform="translate(1089.205078 0)"/>
      <use xlink:href="#DejaVuSans-6e" transform="translate(1150.728516 0)"/>
      <use xlink:href="#DejaVuSans-63" transform="translate(1214.107422 0)"/>
      <use xlink:href="#DejaVuSans-79" transform="translate(1269.087891 0)"/>
      <use xlink:href="#DejaVuSans-29" transform="translate(1328.267578 0)"/>
     </g>
    </g>
   </g>
   <g id="line2d_27">
    <path d="M 64.072159 286.918125 
L 115.820786 286.918125 
L 118.544398 279.907326 
L 121.26801 273.958237 
L 123.991622 269.083615 
L 126.715234 265.478426 
L 129.438846 263.398689 
L 132.162458 261.72774 
L 134.88607 260.704454 
L 137.609682 260.465334 
L 140.333294 259.917862 
L 143.056906 259.149412 
L 145.780518 258.60301 
L 148.50413 257.77039 
L 151.227742 256.587915 
L 156.674966 253.419362 
L 159.398578 251.588405 
L 162.12219 249.377466 
L 164.845802 246.535061 
L 170.293025 240.277241 
L 175.740249 217.199095 
L 181.187473 191.786339 
L 183.911085 178.028648 
L 186.634697 163.146485 
L 192.081921 131.806763 
L 200.252757 89.177985 
L 202.976369 76.242572 
L 205.699981 64.9077 
L 208.423593 55.023117 
L 211.147205 48.016568 
L 213.870817 43.75914 
L 216.594429 40.985965 
L 219.318041 38.773884 
L 224.765265 36.492442 
L 227.488877 34.918125 
L 232.936101 37.049534 
L 235.659712 37.195872 
L 238.383324 37.97729 
L 241.106936 38.451887 
L 243.830548 38.481494 
L 246.55416 40.902643 
L 249.277772 43.841873 
L 252.001384 45.231512 
L 254.724996 47.287959 
L 257.448608 49.533492 
L 260.17222 48.513955 
L 262.895832 49.142537 
L 265.619444 47.382227 
L 268.343056 49.989709 
L 271.066668 52.441296 
L 273.79028 53.300185 
L 279.237504 55.474536 
L 281.961116 56.927183 
L 284.684728 57.575944 
L 287.40834 59.707997 
L 290.131952 60.298592 
L 292.855564 57.821826 
L 295.579176 59.376925 
L 298.302788 60.794788 
L 301.026399 65.505887 
L 303.750011 65.714255 
L 306.473623 64.881716 
L 309.197235 70.758131 
L 311.920847 72.419521 
L 314.644459 75.512485 
L 317.368071 76.028919 
L 320.091683 79.175947 
L 322.815295 80.279039 
L 325.538907 83.046842 
L 328.262519 86.677585 
L 330.986131 80.980345 
L 333.709743 82.71715 
L 336.433355 88.73708 
L 339.156967 88.054321 
L 341.880579 89.718559 
L 344.604191 89.526917 
L 347.327803 88.514654 
L 350.051415 86.874956 
L 352.775027 78.163169 
L 355.498639 79.927041 
L 358.222251 81.921185 
L 360.945863 84.174578 
L 363.669475 83.394565 
L 366.393086 86.230404 
L 369.116698 91.935404 
L 371.84031 93.104058 
L 374.563922 100.647241 
L 377.287534 103.35871 
L 380.011146 98.896231 
L 382.734758 101.203248 
L 385.45837 98.514829 
L 388.181982 102.154893 
L 393.629206 106.854471 
L 396.352818 112.67918 
L 399.07643 114.687027 
L 401.800042 109.376822 
L 404.523654 111.778778 
L 407.247266 114.334284 
L 409.970878 123.038606 
L 412.69449 119.600912 
L 415.418102 117.6381 
L 418.141714 115.831074 
L 420.865326 122.343817 
L 423.588938 122.343817 
L 426.31255 129.924553 
L 429.036162 140.923118 
L 431.759773 140.293121 
L 434.483385 144.127748 
L 437.206997 144.008694 
L 439.930609 146.783635 
L 442.654221 149.110788 
L 445.377833 147.836295 
L 448.101445 152.614237 
L 450.825057 151.507756 
L 453.548669 149.331799 
L 456.272281 150.336026 
L 458.995893 150.336026 
L 461.719505 139.546316 
L 464.443117 141.03322 
L 467.166729 138.841388 
L 469.890341 141.709788 
L 469.890341 141.709788 
" clip-path="url(#p9739459b44)" style="fill: none; stroke: #1f77b4; stroke-width: 1.5; stroke-linecap: square"/>
   </g>
   <g id="line2d_28">
    <path d="M 64.072159 286.918125 
L 115.820786 286.918125 
L 121.26801 275.132198 
L 123.991622 270.622324 
L 126.715234 267.318688 
L 129.438846 265.714223 
L 132.162458 264.478118 
L 134.88607 263.568952 
L 137.609682 262.487256 
L 140.333294 261.75606 
L 148.50413 258.043396 
L 151.227742 256.24077 
L 156.674966 252.031738 
L 162.12219 246.999752 
L 164.845802 244.377013 
L 170.293025 237.703914 
L 173.016637 225.373302 
L 175.740249 212.014112 
L 181.187473 183.574766 
L 183.911085 168.917751 
L 197.529145 92.919047 
L 200.252757 79.524223 
L 202.976369 66.749334 
L 205.699981 57.116629 
L 208.423593 49.475696 
L 211.147205 44.318887 
L 213.870817 42.303554 
L 216.594429 40.60609 
L 219.318041 40.128692 
L 222.041653 40.965282 
L 224.765265 42.039835 
L 227.488877 40.886303 
L 230.212489 40.878177 
L 232.936101 41.871861 
L 235.659712 43.518087 
L 238.383324 43.717474 
L 241.106936 44.853178 
L 243.830548 45.658139 
L 246.55416 47.154258 
L 249.277772 47.495755 
L 252.001384 47.533292 
L 254.724996 48.111298 
L 257.448608 48.417972 
L 260.17222 50.729303 
L 262.895832 53.332643 
L 265.619444 54.401265 
L 268.343056 53.971841 
L 271.066668 56.565748 
L 273.79028 54.992968 
L 281.961116 60.849945 
L 284.684728 61.647518 
L 287.40834 63.86826 
L 290.131952 64.610622 
L 292.855564 64.906003 
L 295.579176 64.071919 
L 298.302788 61.652723 
L 301.026399 65.088387 
L 303.750011 66.37873 
L 306.473623 68.039878 
L 309.197235 71.062497 
L 311.920847 72.96931 
L 314.644459 68.4739 
L 320.091683 66.185112 
L 322.815295 69.37046 
L 325.538907 70.091475 
L 328.262519 75.412538 
L 330.986131 75.479237 
L 333.709743 76.683255 
L 336.433355 79.236794 
L 339.156967 77.191379 
L 341.880579 78.287671 
L 344.604191 80.632873 
L 347.327803 84.081057 
L 350.051415 83.29351 
L 352.775027 93.518896 
L 355.498639 94.508717 
L 358.222251 94.944396 
L 360.945863 94.676253 
L 363.669475 96.072882 
L 366.393086 99.683062 
L 369.116698 102.197652 
L 371.84031 101.977747 
L 374.563922 100.228512 
L 377.287534 99.622184 
L 380.011146 105.247477 
L 382.734758 104.156422 
L 385.45837 100.756571 
L 388.181982 96.34637 
L 390.905594 99.096173 
L 393.629206 96.395166 
L 396.352818 95.390022 
L 399.07643 88.514654 
L 401.800042 84.740675 
L 404.523654 95.128103 
L 407.247266 95.128103 
L 409.970878 98.319477 
L 412.69449 106.970791 
L 415.418102 113.606858 
L 418.141714 115.357477 
L 420.865326 126.142899 
L 423.588938 128.430145 
L 426.31255 139.017356 
L 429.036162 139.886982 
L 431.759773 141.701127 
L 434.483385 142.680019 
L 437.206997 150.975006 
L 439.930609 156.929644 
L 442.654221 160.759396 
L 445.377833 157.592302 
L 448.101445 152.36258 
L 450.825057 152.832263 
L 453.548669 153.735685 
L 456.272281 146.963244 
L 458.995893 146.030554 
L 461.719505 140.528537 
L 464.443117 139.698528 
L 467.166729 137.311184 
L 469.890341 144.728971 
L 469.890341 144.728971 
" clip-path="url(#p9739459b44)" style="fill: none; stroke: #ff7f0e; stroke-width: 1.5; stroke-linecap: square"/>
   </g>
   <g id="line2d_29">
    <path d="M 64.072159 286.918125 
L 115.820786 286.918125 
L 118.544398 284.378025 
L 121.26801 282.791462 
L 123.991622 281.848258 
L 126.715234 281.39069 
L 129.438846 281.112596 
L 134.88607 281.12177 
L 137.609682 281.157764 
L 143.056906 280.930992 
L 148.50413 280.314835 
L 153.951354 279.509294 
L 156.674966 278.919679 
L 159.398578 278.51571 
L 162.12219 277.68874 
L 164.845802 277.084008 
L 170.293025 275.569144 
L 175.740249 270.543999 
L 178.463861 267.816047 
L 189.358309 256.029886 
L 192.081921 252.223218 
L 197.529145 244.284338 
L 202.976369 235.53725 
L 208.423593 225.841306 
L 213.870817 216.26046 
L 216.594429 210.885472 
L 219.318041 204.741246 
L 222.041653 199.551973 
L 224.765265 194.094139 
L 230.212489 171.447921 
L 238.383324 136.16297 
L 241.106936 124.851108 
L 243.830548 115.797673 
L 246.55416 107.501653 
L 249.277772 103.421198 
L 252.001384 97.673568 
L 254.724996 94.849376 
L 257.448608 92.221878 
L 260.17222 92.552207 
L 262.895832 91.713098 
L 265.619444 91.00796 
L 268.343056 88.011092 
L 271.066668 89.57753 
L 273.79028 89.070926 
L 276.513892 92.022771 
L 279.237504 88.858866 
L 281.961116 87.716396 
L 284.684728 87.084584 
L 287.40834 88.037723 
L 290.131952 85.921692 
L 292.855564 85.71284 
L 295.579176 80.757389 
L 298.302788 80.795787 
L 301.026399 79.743769 
L 303.750011 78.880334 
L 306.473623 78.561303 
L 309.197235 79.663515 
L 311.920847 83.023783 
L 314.644459 81.765371 
L 317.368071 78.15624 
L 320.091683 79.132571 
L 322.815295 82.341464 
L 325.538907 81.022076 
L 328.262519 81.35095 
L 330.986131 82.641912 
L 333.709743 80.416553 
L 336.433355 75.62902 
L 339.156967 76.551551 
L 341.880579 84.868943 
L 344.604191 86.502449 
L 347.327803 86.426197 
L 350.051415 85.729292 
L 352.775027 81.040551 
L 355.498639 81.377839 
L 358.222251 87.50753 
L 360.945863 86.114612 
L 366.393086 81.081671 
L 369.116698 82.644729 
L 371.84031 77.76524 
L 374.563922 79.466939 
L 377.287534 81.743205 
L 380.011146 81.127291 
L 382.734758 77.492239 
L 385.45837 75.00469 
L 388.181982 77.492239 
L 390.905594 74.701754 
L 393.629206 68.935364 
L 396.352818 68.051516 
L 399.07643 68.298187 
L 401.800042 67.079103 
L 404.523654 73.452611 
L 407.247266 72.768347 
L 409.970878 80.514514 
L 412.69449 81.618277 
L 415.418102 85.20793 
L 418.141714 96.450793 
L 420.865326 110.431317 
L 423.588938 109.39923 
L 426.31255 117.373341 
L 429.036162 117.907761 
L 431.759773 118.706487 
L 434.483385 123.235262 
L 437.206997 117.655164 
L 439.930609 122.45209 
L 442.654221 119.636767 
L 445.377833 108.355001 
L 448.101445 107.93877 
L 450.825057 105.048277 
L 453.548669 97.726244 
L 456.272281 100.647241 
L 458.995893 100.390918 
L 461.719505 106.150518 
L 464.443117 108.355001 
L 467.166729 96.908647 
L 469.890341 107.446283 
L 469.890341 107.446283 
" clip-path="url(#p9739459b44)" style="fill: none; stroke: #2ca02c; stroke-width: 1.5; stroke-linecap: square"/>
   </g>
   <g id="line2d_30">
    <path d="M 64.072159 286.918125 
L 115.820786 286.918125 
L 118.544398 284.794733 
L 121.26801 283.419662 
L 123.991622 282.651384 
L 126.715234 282.123166 
L 132.162458 281.757074 
L 140.333294 281.09143 
L 145.780518 280.259209 
L 151.227742 279.593499 
L 153.951354 279.189603 
L 170.293025 275.959443 
L 173.016637 273.621828 
L 175.740249 270.898587 
L 178.463861 268.469899 
L 181.187473 265.611389 
L 189.358309 256.402856 
L 192.081921 253.151514 
L 194.805533 248.763611 
L 197.529145 245.044415 
L 202.976369 236.9571 
L 205.699981 232.38075 
L 208.423593 227.087783 
L 211.147205 221.470525 
L 213.870817 216.547624 
L 216.594429 211.91888 
L 219.318041 205.638127 
L 224.765265 194.052267 
L 227.488877 184.797988 
L 232.936101 160.464049 
L 235.659712 150.369854 
L 238.383324 137.623243 
L 241.106936 128.987695 
L 243.830548 120.750228 
L 246.55416 116.438106 
L 249.277772 109.780122 
L 252.001384 107.154221 
L 254.724996 103.318415 
L 260.17222 101.070089 
L 262.895832 98.818803 
L 265.619444 98.884352 
L 268.343056 97.152556 
L 271.066668 97.098873 
L 273.79028 97.190319 
L 276.513892 94.97607 
L 279.237504 96.466697 
L 281.961116 95.985915 
L 284.684728 93.800586 
L 287.40834 90.36457 
L 290.131952 90.934209 
L 292.855564 89.099669 
L 295.579176 91.125226 
L 298.302788 91.564256 
L 301.026399 88.234423 
L 303.750011 90.941311 
L 306.473623 87.097487 
L 309.197235 87.449115 
L 311.920847 89.401374 
L 314.644459 89.454955 
L 317.368071 86.691093 
L 320.091683 86.717986 
L 322.815295 89.321172 
L 325.538907 88.942248 
L 328.262519 92.364274 
L 330.986131 93.776525 
L 333.709743 98.322281 
L 336.433355 101.228536 
L 339.156967 100.195702 
L 341.880579 100.111979 
L 344.604191 101.596202 
L 347.327803 103.301328 
L 350.051415 101.650062 
L 352.775027 101.374138 
L 355.498639 103.436949 
L 360.945863 110.915046 
L 363.669475 112.759025 
L 366.393086 113.66439 
L 369.116698 112.409963 
L 371.84031 113.629018 
L 374.563922 108.201597 
L 377.287534 107.098621 
L 380.011146 105.273531 
L 382.734758 108.02975 
L 385.45837 110.055603 
L 388.181982 109.894339 
L 390.905594 114.115102 
L 393.629206 119.458315 
L 396.352818 112.25802 
L 399.07643 114.620374 
L 401.800042 114.147317 
L 404.523654 111.856239 
L 407.247266 111.543629 
L 409.970878 114.848206 
L 412.69449 116.232786 
L 415.418102 119.995648 
L 418.141714 120.838815 
L 420.865326 128.195348 
L 423.588938 123.46072 
L 426.31255 122.722149 
L 429.036162 116.858007 
L 431.759773 126.017749 
L 434.483385 127.227527 
L 437.206997 127.874047 
L 439.930609 124.031325 
L 442.654221 118.486242 
L 445.377833 121.722015 
L 448.101445 130.021657 
L 450.825057 131.209072 
L 453.548669 138.115522 
L 456.272281 136.905745 
L 458.995893 141.774602 
L 461.719505 149.003517 
L 464.443117 151.315753 
L 467.166729 141.15231 
L 469.890341 138.115522 
L 469.890341 138.115522 
" clip-path="url(#p9739459b44)" style="fill: none; stroke: #d62728; stroke-width: 1.5; stroke-linecap: square"/>
   </g>
   <g id="line2d_31">
    <path d="M 64.072159 286.918125 
L 115.820786 286.918125 
L 118.544398 283.972187 
L 121.26801 282.21375 
L 123.991622 281.182318 
L 129.438846 280.594801 
L 134.88607 280.488087 
L 137.609682 280.675263 
L 140.333294 280.642654 
L 151.227742 279.902747 
L 153.951354 279.402137 
L 156.674966 279.129535 
L 162.12219 278.165031 
L 164.845802 277.764289 
L 170.293025 276.369193 
L 173.016637 273.890895 
L 175.740249 271.595096 
L 178.463861 269.138222 
L 181.187473 266.315687 
L 183.911085 263.001699 
L 189.358309 256.740184 
L 197.529145 246.627874 
L 202.976369 238.00241 
L 205.699981 234.459201 
L 208.423593 229.783541 
L 211.147205 224.468192 
L 213.870817 219.881854 
L 216.594429 214.480984 
L 219.318041 209.802518 
L 224.765265 198.816036 
L 230.212489 178.599381 
L 238.383324 150.221928 
L 243.830548 135.334605 
L 246.55416 128.96903 
L 249.277772 123.549235 
L 252.001384 118.530473 
L 254.724996 116.239488 
L 257.448608 112.983612 
L 260.17222 110.653014 
L 262.895832 106.064718 
L 265.619444 106.120894 
L 268.343056 105.735493 
L 271.066668 105.966811 
L 273.79028 103.49154 
L 276.513892 102.34891 
L 279.237504 99.589432 
L 281.961116 97.635217 
L 284.684728 98.613035 
L 287.40834 101.145295 
L 290.131952 100.517711 
L 292.855564 100.386216 
L 295.579176 101.060985 
L 298.302788 98.104424 
L 301.026399 97.345924 
L 303.750011 100.243379 
L 306.473623 95.640677 
L 309.197235 97.000938 
L 311.920847 96.354305 
L 314.644459 96.096953 
L 317.368071 98.630621 
L 320.091683 99.386077 
L 322.815295 96.450793 
L 325.538907 98.122571 
L 328.262519 99.660917 
L 330.986131 102.779811 
L 333.709743 102.995672 
L 336.433355 101.279073 
L 339.156967 102.788285 
L 341.880579 101.811272 
L 344.604191 103.387248 
L 347.327803 100.914871 
L 350.051415 99.879829 
L 352.775027 93.069836 
L 355.498639 91.125226 
L 358.222251 89.416488 
L 360.945863 92.541293 
L 363.669475 90.205593 
L 366.393086 93.358489 
L 369.116698 94.914766 
L 371.84031 101.147861 
L 374.563922 98.349309 
L 377.287534 95.273454 
L 380.011146 98.457425 
L 382.734758 101.183792 
L 385.45837 101.725539 
L 388.181982 107.620174 
L 390.905594 106.528269 
L 393.629206 107.89597 
L 396.352818 111.307742 
L 399.07643 112.236808 
L 401.800042 113.315088 
L 404.523654 111.099487 
L 407.247266 111.099487 
L 409.970878 113.095615 
L 412.69449 115.72929 
L 415.418102 111.652085 
L 418.141714 112.79687 
L 420.865326 111.430557 
L 423.588938 112.017835 
L 426.31255 117.124559 
L 429.036162 113.959255 
L 431.759773 104.830729 
L 434.483385 109.330756 
L 437.206997 107.362984 
L 439.930609 109.748471 
L 442.654221 110.215034 
L 445.377833 104.250102 
L 448.101445 102.735882 
L 450.825057 107.046847 
L 453.548669 110.11208 
L 456.272281 114.151058 
L 458.995893 109.963678 
L 461.719505 113.023318 
L 464.443117 108.114997 
L 467.166729 114.994799 
L 469.890341 113.315088 
L 469.890341 113.315088 
" clip-path="url(#p9739459b44)" style="fill: none; stroke: #9467bd; stroke-width: 1.5; stroke-linecap: square"/>
   </g>
   <g id="line2d_32">
    <path d="M 64.072159 286.918125 
L 115.820786 286.918125 
L 118.544398 283.731356 
L 121.26801 282.337153 
L 123.991622 281.342383 
L 126.715234 280.905899 
L 132.162458 280.624359 
L 143.056906 280.612548 
L 153.951354 279.606746 
L 156.674966 279.147351 
L 159.398578 278.837946 
L 164.845802 277.796569 
L 167.569414 277.121584 
L 170.293025 276.073782 
L 175.740249 271.172069 
L 186.634697 259.442189 
L 189.358309 256.342248 
L 194.805533 249.444609 
L 197.529145 245.133347 
L 200.252757 241.495035 
L 202.976369 237.158187 
L 205.699981 232.011118 
L 208.423593 226.567012 
L 211.147205 221.409821 
L 213.870817 215.900569 
L 216.594429 210.714117 
L 219.318041 204.206281 
L 222.041653 199.342256 
L 224.765265 194.013485 
L 227.488877 185.300302 
L 230.212489 175.588121 
L 238.383324 143.962897 
L 243.830548 125.682673 
L 246.55416 117.080599 
L 249.277772 110.55541 
L 252.001384 104.803239 
L 254.724996 100.394368 
L 257.448608 96.59966 
L 260.17222 93.380134 
L 262.895832 92.103719 
L 265.619444 93.39093 
L 268.343056 93.121214 
L 271.066668 93.58459 
L 273.79028 94.296905 
L 276.513892 93.009436 
L 279.237504 92.314721 
L 281.961116 96.092082 
L 284.684728 97.613695 
L 287.40834 96.110147 
L 290.131952 96.038611 
L 292.855564 98.797247 
L 295.579176 96.87785 
L 298.302788 96.618458 
L 301.026399 100.477216 
L 303.750011 104.12508 
L 306.473623 104.311109 
L 309.197235 102.949918 
L 311.920847 103.723283 
L 314.644459 103.081899 
L 317.368071 103.401169 
L 320.091683 100.476069 
L 322.815295 101.263472 
L 325.538907 97.381849 
L 328.262519 103.416203 
L 330.986131 104.357319 
L 333.709743 107.15349 
L 336.433355 105.287895 
L 341.880579 108.454702 
L 344.604191 108.046602 
L 347.327803 106.84541 
L 350.051415 108.801688 
L 352.775027 107.889993 
L 355.498639 109.685756 
L 358.222251 113.262656 
L 360.945863 112.114225 
L 363.669475 108.738184 
L 366.393086 104.724088 
L 369.116698 106.46972 
L 371.84031 107.376956 
L 377.287534 109.843027 
L 380.011146 114.699884 
L 382.734758 120.228764 
L 385.45837 117.29073 
L 388.181982 109.621406 
L 390.905594 114.662938 
L 393.629206 109.83073 
L 396.352818 117.448494 
L 399.07643 118.888219 
L 401.800042 123.361723 
L 404.523654 125.138551 
L 407.247266 129.362428 
L 409.970878 127.793954 
L 412.69449 124.588013 
L 415.418102 129.310634 
L 418.141714 133.17042 
L 420.865326 133.969319 
L 423.588938 139.5062 
L 426.31255 137.191282 
L 429.036162 138.59093 
L 431.759773 138.115522 
L 434.483385 131.467983 
L 439.930609 141.646431 
L 442.654221 146.632843 
L 445.377833 140.620616 
L 448.101445 139.608525 
L 450.825057 139.588815 
L 453.548669 135.593444 
L 456.272281 134.654996 
L 458.995893 129.127445 
L 461.719505 126.904367 
L 464.443117 119.515197 
L 467.166729 121.10951 
L 469.890341 123.995567 
L 469.890341 123.995567 
" clip-path="url(#p9739459b44)" style="fill: none; stroke: #8c564b; stroke-width: 1.5; stroke-linecap: square"/>
   </g>
   <g id="patch_3">
    <path d="M 43.78125 299.518125 
L 43.78125 22.318125 
" style="fill: none; stroke: #000000; stroke-width: 0.8; stroke-linejoin: miter; stroke-linecap: square"/>
   </g>
   <g id="patch_4">
    <path d="M 490.18125 299.518125 
L 490.18125 22.318125 
" style="fill: none; stroke: #000000; stroke-width: 0.8; stroke-linejoin: miter; stroke-linecap: square"/>
   </g>
   <g id="patch_5">
    <path d="M 43.78125 299.518125 
L 490.18125 299.518125 
" style="fill: none; stroke: #000000; stroke-width: 0.8; stroke-linejoin: miter; stroke-linecap: square"/>
   </g>
   <g id="patch_6">
    <path d="M 43.78125 22.318125 
L 490.18125 22.318125 
" style="fill: none; stroke: #000000; stroke-width: 0.8; stroke-linejoin: miter; stroke-linecap: square"/>
   </g>
   <g id="text_16">
    <!-- Detection Ratio: SBM-5k-Med (Peak 60) -->
    <g transform="translate(148.821562 16.318125) scale(0.12 -0.12)">
     <defs>
      <path id="DejaVuSans-3a" d="M 750 794 
L 1409 794 
L 1409 0 
L 750 0 
L 750 794 
z
M 750 3309 
L 1409 3309 
L 1409 2516 
L 750 2516 
L 750 3309 
z
" transform="scale(0.015625)"/>
      <path id="DejaVuSans-42" d="M 1259 2228 
L 1259 519 
L 2272 519 
Q 2781 519 3026 730 
Q 3272 941 3272 1375 
Q 3272 1813 3026 2020 
Q 2781 2228 2272 2228 
L 1259 2228 
z
M 1259 4147 
L 1259 2741 
L 2194 2741 
Q 2656 2741 2882 2914 
Q 3109 3088 3109 3444 
Q 3109 3797 2882 3972 
Q 2656 4147 2194 4147 
L 1259 4147 
z
M 628 4666 
L 2241 4666 
Q 2963 4666 3353 4366 
Q 3744 4066 3744 3513 
Q 3744 3084 3544 2831 
Q 3344 2578 2956 2516 
Q 3422 2416 3680 2098 
Q 3938 1781 3938 1306 
Q 3938 681 3513 340 
Q 3088 0 2303 0 
L 628 0 
L 628 4666 
z
" transform="scale(0.015625)"/>
      <path id="DejaVuSans-4d" d="M 628 4666 
L 1569 4666 
L 2759 1491 
L 3956 4666 
L 4897 4666 
L 4897 0 
L 4281 0 
L 4281 4097 
L 3078 897 
L 2444 897 
L 1241 4097 
L 1241 0 
L 628 0 
L 628 4666 
z
" transform="scale(0.015625)"/>
      <path id="DejaVuSans-2d" d="M 313 2009 
L 1997 2009 
L 1997 1497 
L 313 1497 
L 313 2009 
z
" transform="scale(0.015625)"/>
      <path id="DejaVuSans-35" d="M 691 4666 
L 3169 4666 
L 3169 4134 
L 1269 4134 
L 1269 2991 
Q 1406 3038 1543 3061 
Q 1681 3084 1819 3084 
Q 2600 3084 3056 2656 
Q 3513 2228 3513 1497 
Q 3513 744 3044 326 
Q 2575 -91 1722 -91 
Q 1428 -91 1123 -41 
Q 819 9 494 109 
L 494 744 
Q 775 591 1075 516 
Q 1375 441 1709 441 
Q 2250 441 2565 725 
Q 2881 1009 2881 1497 
Q 2881 1984 2565 2268 
Q 2250 2553 1709 2553 
Q 1456 2553 1204 2497 
Q 953 2441 691 2322 
L 691 4666 
z
" transform="scale(0.015625)"/>
      <path id="DejaVuSans-6b" d="M 581 4863 
L 1159 4863 
L 1159 1991 
L 2875 3500 
L 3609 3500 
L 1753 1863 
L 3688 0 
L 2938 0 
L 1159 1709 
L 1159 0 
L 581 0 
L 581 4863 
z
" transform="scale(0.015625)"/>
      <path id="DejaVuSans-64" d="M 2906 2969 
L 2906 4863 
L 3481 4863 
L 3481 0 
L 2906 0 
L 2906 525 
Q 2725 213 2448 61 
Q 2172 -91 1784 -91 
Q 1150 -91 751 415 
Q 353 922 353 1747 
Q 353 2572 751 3078 
Q 1150 3584 1784 3584 
Q 2172 3584 2448 3432 
Q 2725 3281 2906 2969 
z
M 947 1747 
Q 947 1113 1208 752 
Q 1469 391 1925 391 
Q 2381 391 2643 752 
Q 2906 1113 2906 1747 
Q 2906 2381 2643 2742 
Q 2381 3103 1925 3103 
Q 1469 3103 1208 2742 
Q 947 2381 947 1747 
z
" transform="scale(0.015625)"/>
      <path id="DejaVuSans-50" d="M 1259 4147 
L 1259 2394 
L 2053 2394 
Q 2494 2394 2734 2622 
Q 2975 2850 2975 3272 
Q 2975 3691 2734 3919 
Q 2494 4147 2053 4147 
L 1259 4147 
z
M 628 4666 
L 2053 4666 
Q 2838 4666 3239 4311 
Q 3641 3956 3641 3272 
Q 3641 2581 3239 2228 
Q 2838 1875 2053 1875 
L 1259 1875 
L 1259 0 
L 628 0 
L 628 4666 
z
" transform="scale(0.015625)"/>
     </defs>
     <use xlink:href="#DejaVuSans-44"/>
     <use xlink:href="#DejaVuSans-65" transform="translate(77.001953 0)"/>
     <use xlink:href="#DejaVuSans-74" transform="translate(138.525391 0)"/>
     <use xlink:href="#DejaVuSans-65" transform="translate(177.734375 0)"/>
     <use xlink:href="#DejaVuSans-63" transform="translate(239.257812 0)"/>
     <use xlink:href="#DejaVuSans-74" transform="translate(294.238281 0)"/>
     <use xlink:href="#DejaVuSans-69" transform="translate(333.447266 0)"/>
     <use xlink:href="#DejaVuSans-6f" transform="translate(361.230469 0)"/>
     <use xlink:href="#DejaVuSans-6e" transform="translate(422.412109 0)"/>
     <use xlink:href="#DejaVuSans-20" transform="translate(485.791016 0)"/>
     <use xlink:href="#DejaVuSans-52" transform="translate(517.578125 0)"/>
     <use xlink:href="#DejaVuSans-61" transform="translate(584.810547 0)"/>
     <use xlink:href="#DejaVuSans-74" transform="translate(646.089844 0)"/>
     <use xlink:href="#DejaVuSans-69" transform="translate(685.298828 0)"/>
     <use xlink:href="#DejaVuSans-6f" transform="translate(713.082031 0)"/>
     <use xlink:href="#DejaVuSans-3a" transform="translate(774.263672 0)"/>
     <use xlink:href="#DejaVuSans-20" transform="translate(807.955078 0)"/>
     <use xlink:href="#DejaVuSans-53" transform="translate(839.742188 0)"/>
     <use xlink:href="#DejaVuSans-42" transform="translate(903.21875 0)"/>
     <use xlink:href="#DejaVuSans-4d" transform="translate(971.822266 0)"/>
     <use xlink:href="#DejaVuSans-2d" transform="translate(1058.101562 0)"/>
     <use xlink:href="#DejaVuSans-35" transform="translate(1094.185547 0)"/>
     <use xlink:href="#DejaVuSans-6b" transform="translate(1157.808594 0)"/>
     <use xlink:href="#DejaVuSans-2d" transform="translate(1215.71875 0)"/>
     <use xlink:href="#DejaVuSans-4d" transform="translate(1251.802734 0)"/>
     <use xlink:href="#DejaVuSans-65" transform="translate(1338.082031 0)"/>
     <use xlink:href="#DejaVuSans-64" transform="translate(1399.605469 0)"/>
     <use xlink:href="#DejaVuSans-20" transform="translate(1463.082031 0)"/>
     <use xlink:href="#DejaVuSans-28" transform="translate(1494.869141 0)"/>
     <use xlink:href="#DejaVuSans-50" transform="translate(1533.882812 0)"/>
     <use xlink:href="#DejaVuSans-65" transform="translate(1590.560547 0)"/>
     <use xlink:href="#DejaVuSans-61" transform="translate(1652.083984 0)"/>
     <use xlink:href="#DejaVuSans-6b" transform="translate(1713.363281 0)"/>
     <use xlink:href="#DejaVuSans-20" transform="translate(1771.273438 0)"/>
     <use xlink:href="#DejaVuSans-36" transform="translate(1803.060547 0)"/>
     <use xlink:href="#DejaVuSans-30" transform="translate(1866.683594 0)"/>
     <use xlink:href="#DejaVuSans-29" transform="translate(1930.306641 0)"/>
    </g>
   </g>
   <g id="legend_1">
    <g id="patch_7">
     <path d="M 50.08125 108.78 
L 156.426094 108.78 
Q 158.226094 108.78 158.226094 106.98 
L 158.226094 28.618125 
Q 158.226094 26.818125 156.426094 26.818125 
L 50.08125 26.818125 
Q 48.28125 26.818125 48.28125 28.618125 
L 48.28125 106.98 
Q 48.28125 108.78 50.08125 108.78 
z
" style="fill: #ffffff; opacity: 0.8; stroke: #cccccc; stroke-linejoin: miter"/>
    </g>
    <g id="line2d_33">
     <path d="M 51.88125 34.106719 
L 60.88125 34.106719 
L 69.88125 34.106719 
" style="fill: none; stroke: #1f77b4; stroke-width: 1.5; stroke-linecap: square"/>
    </g>
    <g id="text_17">
     <!-- LocalGNTS-14 -->
     <g transform="translate(77.08125 37.256719) scale(0.09 -0.09)">
      <defs>
       <path id="DejaVuSans-4c" d="M 628 4666 
L 1259 4666 
L 1259 531 
L 3531 531 
L 3531 0 
L 628 0 
L 628 4666 
z
" transform="scale(0.015625)"/>
       <path id="DejaVuSans-47" d="M 3809 666 
L 3809 1919 
L 2778 1919 
L 2778 2438 
L 4434 2438 
L 4434 434 
Q 4069 175 3628 42 
Q 3188 -91 2688 -91 
Q 1594 -91 976 548 
Q 359 1188 359 2328 
Q 359 3472 976 4111 
Q 1594 4750 2688 4750 
Q 3144 4750 3555 4637 
Q 3966 4525 4313 4306 
L 4313 3634 
Q 3963 3931 3569 4081 
Q 3175 4231 2741 4231 
Q 1884 4231 1454 3753 
Q 1025 3275 1025 2328 
Q 1025 1384 1454 906 
Q 1884 428 2741 428 
Q 3075 428 3337 486 
Q 3600 544 3809 666 
z
" transform="scale(0.015625)"/>
       <path id="DejaVuSans-4e" d="M 628 4666 
L 1478 4666 
L 3547 763 
L 3547 4666 
L 4159 4666 
L 4159 0 
L 3309 0 
L 1241 3903 
L 1241 0 
L 628 0 
L 628 4666 
z
" transform="scale(0.015625)"/>
       <path id="DejaVuSans-54" d="M -19 4666 
L 3928 4666 
L 3928 4134 
L 2272 4134 
L 2272 0 
L 1638 0 
L 1638 4134 
L -19 4134 
L -19 4666 
z
" transform="scale(0.015625)"/>
      </defs>
      <use xlink:href="#DejaVuSans-4c"/>
      <use xlink:href="#DejaVuSans-6f" transform="translate(53.962891 0)"/>
      <use xlink:href="#DejaVuSans-63" transform="translate(115.144531 0)"/>
      <use xlink:href="#DejaVuSans-61" transform="translate(170.125 0)"/>
      <use xlink:href="#DejaVuSans-6c" transform="translate(231.404297 0)"/>
      <use xlink:href="#DejaVuSans-47" transform="translate(259.1875 0)"/>
      <use xlink:href="#DejaVuSans-4e" transform="translate(336.677734 0)"/>
      <use xlink:href="#DejaVuSans-54" transform="translate(411.482422 0)"/>
      <use xlink:href="#DejaVuSans-53" transform="translate(472.566406 0)"/>
      <use xlink:href="#DejaVuSans-2d" transform="translate(536.042969 0)"/>
      <use xlink:href="#DejaVuSans-31" transform="translate(572.126953 0)"/>
      <use xlink:href="#DejaVuSans-34" transform="translate(635.75 0)"/>
     </g>
    </g>
    <g id="line2d_34">
     <path d="M 51.88125 47.317031 
L 60.88125 47.317031 
L 69.88125 47.317031 
" style="fill: none; stroke: #ff7f0e; stroke-width: 1.5; stroke-linecap: square"/>
    </g>
    <g id="text_18">
     <!-- GlobalGNTS-14 -->
     <g transform="translate(77.08125 50.467031) scale(0.09 -0.09)">
      <defs>
       <path id="DejaVuSans-62" d="M 3116 1747 
Q 3116 2381 2855 2742 
Q 2594 3103 2138 3103 
Q 1681 3103 1420 2742 
Q 1159 2381 1159 1747 
Q 1159 1113 1420 752 
Q 1681 391 2138 391 
Q 2594 391 2855 752 
Q 3116 1113 3116 1747 
z
M 1159 2969 
Q 1341 3281 1617 3432 
Q 1894 3584 2278 3584 
Q 2916 3584 3314 3078 
Q 3713 2572 3713 1747 
Q 3713 922 3314 415 
Q 2916 -91 2278 -91 
Q 1894 -91 1617 61 
Q 1341 213 1159 525 
L 1159 0 
L 581 0 
L 581 4863 
L 1159 4863 
L 1159 2969 
z
" transform="scale(0.015625)"/>
      </defs>
      <use xlink:href="#DejaVuSans-47"/>
      <use xlink:href="#DejaVuSans-6c" transform="translate(77.490234 0)"/>
      <use xlink:href="#DejaVuSans-6f" transform="translate(105.273438 0)"/>
      <use xlink:href="#DejaVuSans-62" transform="translate(166.455078 0)"/>
      <use xlink:href="#DejaVuSans-61" transform="translate(229.931641 0)"/>
      <use xlink:href="#DejaVuSans-6c" transform="translate(291.210938 0)"/>
      <use xlink:href="#DejaVuSans-47" transform="translate(318.994141 0)"/>
      <use xlink:href="#DejaVuSans-4e" transform="translate(396.484375 0)"/>
      <use xlink:href="#DejaVuSans-54" transform="translate(471.289062 0)"/>
      <use xlink:href="#DejaVuSans-53" transform="translate(532.373047 0)"/>
      <use xlink:href="#DejaVuSans-2d" transform="translate(595.849609 0)"/>
      <use xlink:href="#DejaVuSans-31" transform="translate(631.933594 0)"/>
      <use xlink:href="#DejaVuSans-34" transform="translate(695.556641 0)"/>
     </g>
    </g>
    <g id="line2d_35">
     <path d="M 51.88125 60.527344 
L 60.88125 60.527344 
L 69.88125 60.527344 
" style="fill: none; stroke: #2ca02c; stroke-width: 1.5; stroke-linecap: square"/>
    </g>
    <g id="text_19">
     <!-- Beta-Binomial-14 -->
     <g transform="translate(77.08125 63.677344) scale(0.09 -0.09)">
      <use xlink:href="#DejaVuSans-42"/>
      <use xlink:href="#DejaVuSans-65" transform="translate(68.603516 0)"/>
      <use xlink:href="#DejaVuSans-74" transform="translate(130.126953 0)"/>
      <use xlink:href="#DejaVuSans-61" transform="translate(169.335938 0)"/>
      <use xlink:href="#DejaVuSans-2d" transform="translate(230.615234 0)"/>
      <use xlink:href="#DejaVuSans-42" transform="translate(263.074219 0)"/>
      <use xlink:href="#DejaVuSans-69" transform="translate(331.677734 0)"/>
      <use xlink:href="#DejaVuSans-6e" transform="translate(359.460938 0)"/>
      <use xlink:href="#DejaVuSans-6f" transform="translate(422.839844 0)"/>
      <use xlink:href="#DejaVuSans-6d" transform="translate(484.021484 0)"/>
      <use xlink:href="#DejaVuSans-69" transform="translate(581.433594 0)"/>
      <use xlink:href="#DejaVuSans-61" transform="translate(609.216797 0)"/>
      <use xlink:href="#DejaVuSans-6c" transform="translate(670.496094 0)"/>
      <use xlink:href="#DejaVuSans-2d" transform="translate(698.279297 0)"/>
      <use xlink:href="#DejaVuSans-31" transform="translate(734.363281 0)"/>
      <use xlink:href="#DejaVuSans-34" transform="translate(797.986328 0)"/>
     </g>
    </g>
    <g id="line2d_36">
     <path d="M 51.88125 73.737656 
L 60.88125 73.737656 
L 69.88125 73.737656 
" style="fill: none; stroke: #d62728; stroke-width: 1.5; stroke-linecap: square"/>
    </g>
    <g id="text_20">
     <!-- Proportional -->
     <g transform="translate(77.08125 76.887656) scale(0.09 -0.09)">
      <defs>
       <path id="DejaVuSans-72" d="M 2631 2963 
Q 2534 3019 2420 3045 
Q 2306 3072 2169 3072 
Q 1681 3072 1420 2755 
Q 1159 2438 1159 1844 
L 1159 0 
L 581 0 
L 581 3500 
L 1159 3500 
L 1159 2956 
Q 1341 3275 1631 3429 
Q 1922 3584 2338 3584 
Q 2397 3584 2469 3576 
Q 2541 3569 2628 3553 
L 2631 2963 
z
" transform="scale(0.015625)"/>
       <path id="DejaVuSans-70" d="M 1159 525 
L 1159 -1331 
L 581 -1331 
L 581 3500 
L 1159 3500 
L 1159 2969 
Q 1341 3281 1617 3432 
Q 1894 3584 2278 3584 
Q 2916 3584 3314 3078 
Q 3713 2572 3713 1747 
Q 3713 922 3314 415 
Q 2916 -91 2278 -91 
Q 1894 -91 1617 61 
Q 1341 213 1159 525 
z
M 3116 1747 
Q 3116 2381 2855 2742 
Q 2594 3103 2138 3103 
Q 1681 3103 1420 2742 
Q 1159 2381 1159 1747 
Q 1159 1113 1420 752 
Q 1681 391 2138 391 
Q 2594 391 2855 752 
Q 3116 1113 3116 1747 
z
" transform="scale(0.015625)"/>
      </defs>
      <use xlink:href="#DejaVuSans-50"/>
      <use xlink:href="#DejaVuSans-72" transform="translate(58.552734 0)"/>
      <use xlink:href="#DejaVuSans-6f" transform="translate(97.416016 0)"/>
      <use xlink:href="#DejaVuSans-70" transform="translate(158.597656 0)"/>
      <use xlink:href="#DejaVuSans-6f" transform="translate(222.074219 0)"/>
      <use xlink:href="#DejaVuSans-72" transform="translate(283.255859 0)"/>
      <use xlink:href="#DejaVuSans-74" transform="translate(324.369141 0)"/>
      <use xlink:href="#DejaVuSans-69" transform="translate(363.578125 0)"/>
      <use xlink:href="#DejaVuSans-6f" transform="translate(391.361328 0)"/>
      <use xlink:href="#DejaVuSans-6e" transform="translate(452.542969 0)"/>
      <use xlink:href="#DejaVuSans-61" transform="translate(515.921875 0)"/>
      <use xlink:href="#DejaVuSans-6c" transform="translate(577.201172 0)"/>
     </g>
    </g>
    <g id="line2d_37">
     <path d="M 51.88125 86.947969 
L 60.88125 86.947969 
L 69.88125 86.947969 
" style="fill: none; stroke: #9467bd; stroke-width: 1.5; stroke-linecap: square"/>
    </g>
    <g id="text_21">
     <!-- Uniform -->
     <g transform="translate(77.08125 90.097969) scale(0.09 -0.09)">
      <defs>
       <path id="DejaVuSans-55" d="M 556 4666 
L 1191 4666 
L 1191 1831 
Q 1191 1081 1462 751 
Q 1734 422 2344 422 
Q 2950 422 3222 751 
Q 3494 1081 3494 1831 
L 3494 4666 
L 4128 4666 
L 4128 1753 
Q 4128 841 3676 375 
Q 3225 -91 2344 -91 
Q 1459 -91 1007 375 
Q 556 841 556 1753 
L 556 4666 
z
" transform="scale(0.015625)"/>
      </defs>
      <use xlink:href="#DejaVuSans-55"/>
      <use xlink:href="#DejaVuSans-6e" transform="translate(73.193359 0)"/>
      <use xlink:href="#DejaVuSans-69" transform="translate(136.572266 0)"/>
      <use xlink:href="#DejaVuSans-66" transform="translate(164.355469 0)"/>
      <use xlink:href="#DejaVuSans-6f" transform="translate(199.560547 0)"/>
      <use xlink:href="#DejaVuSans-72" transform="translate(260.742188 0)"/>
      <use xlink:href="#DejaVuSans-6d" transform="translate(300.105469 0)"/>
     </g>
    </g>
    <g id="line2d_38">
     <path d="M 51.88125 100.158281 
L 60.88125 100.158281 
L 69.88125 100.158281 
" style="fill: none; stroke: #8c564b; stroke-width: 1.5; stroke-linecap: square"/>
    </g>
    <g id="text_22">
     <!-- Random -->
     <g transform="translate(77.08125 103.308281) scale(0.09 -0.09)">
      <use xlink:href="#DejaVuSans-52"/>
      <use xlink:href="#DejaVuSans-61" transform="translate(67.232422 0)"/>
      <use xlink:href="#DejaVuSans-6e" transform="translate(128.511719 0)"/>
      <use xlink:href="#DejaVuSans-64" transform="translate(191.890625 0)"/>
      <use xlink:href="#DejaVuSans-6f" transform="translate(255.367188 0)"/>
      <use xlink:href="#DejaVuSans-6d" transform="translate(316.548828 0)"/>
     </g>
    </g>
   </g>
  </g>
 </g>
 <defs>
  <clipPath id="p9739459b44">
   <rect x="43.78125" y="22.318125" width="446.4" height="277.2"/>
  </clipPath>
 </defs>
</svg>
