<?xml version="1.0" encoding="utf-8" standalone="no"?>
<!DOCTYPE svg PUBLIC "-//W3C//DTD SVG 1.1//EN"
  "http://www.w3.org/Graphics/SVG/1.1/DTD/svg11.dtd">
<svg xmlns:xlink="http://www.w3.org/1999/xlink" width="497.38125pt" height="337.074375pt" viewBox="0 0 497.38125 337.074375" xmlns="http://www.w3.org/2000/svg" version="1.1">
 <metadata>
  <rdf:RDF xmlns:dc="http://purl.org/dc/elements/1.1/" xmlns:cc="http://creativecommons.org/ns#" xmlns:rdf="http://www.w3.org/1999/02/22-rdf-syntax-ns#">
   <cc:Work>
    <dc:type rdf:resource="http://purl.org/dc/dcmitype/StillImage"/>
    <dc:date>2026-07-01T17:14:05.336440</dc:date>
    <dc:format>image/svg+xml</dc:format>
    <dc:creator>
     <cc:Agent>
      <dc:title>Matplotlib v3.10.8, https://matplotlib.org/</dc:title>
     </cc:Agent>
    </dc:creator>
   </cc:Work>
  </rdf:RDF>
 </metadata>
 <defs>
  <style type="text/css">*{stroke-linejoin: round; stroke-linecap: butt}</style>
 </defs>
 <g id="figure_1">
  <g id="patch_1">
   <path d="M 0 337.074375 
L 497.38125 337.074375 
L 497.38125 0 
L 0 0 
z
" style="fill: #ffffff"/>
  </g>
  <g id="axes_1">
   <g id="patch_2">
    <path d="M 43.78125 299.518125 
L 490.18125 299.518125 
L 490.18125 22.318125 
L 43.78125 22.318125 
z
" style="fill: #ffffff"/>
   </g>
   <g id="matplotlib.axis_1">
    <g id="xtick_1">
     <g id="line2d_1">
      <path d="M 64.072159 299.518125 
L 64.072159 22.318125 
" clip-path="url(#pf43c6eb64b)" style="fill: none; stroke-dasharray: 1.85,0.8; stroke-dashoffset: 0; stroke: #b0b0b0; stroke-opacity: 0.6; stroke-width: 0.5"/>
     </g>
     <g id="line2d_2">
      <defs>
       <path id="m0df18c28f4" d="M 0 0 
L 0 3.5 
" style="stroke: #000000; stroke-width: 0.8"/>
      </defs>
      <g>
       <use xlink:href="#m0df18c28f4" x="64.072159" y="299.518125" style="stroke: #000000; stroke-width: 0.8"/>
      </g>
     </g>
     <g id="text_1">
      <!-- 0 -->
      <g transform="translate(60.890909 314.116563) scale(0.1 -0.1)">
       <defs>
        <path id="DejaVuSans-30" d="M 2034 4250 
Q 1547 4250 1301 3770 
Q 1056 3291 1056 2328 
Q 1056 1369 1301 889 
Q 1547 409 2034 409 
Q 2525 409 2770 889 
Q 3016 1369 3016 2328 
Q 3016 3291 2770 3770 
Q 2525 4250 2034 4250 
z
M 2034 4750 
Q 2819 4750 3233 4129 
Q 3647 3509 3647 2328 
Q 3647 1150 3233 529 
Q 2819 -91 2034 -91 
Q 1250 -91 836 529 
Q 422 1150 422 2328 
Q 422 3509 836 4129 
Q 1250 4750 2034 4750 
z
" transform="scale(0.015625)"/>
       </defs>
       <use xlink:href="#DejaVuSans-30"/>
      </g>
     </g>
    </g>
    <g id="xtick_2">
     <g id="line2d_3">
      <path d="M 118.544398 299.518125 
L 118.544398 22.318125 
" clip-path="url(#pf43c6eb64b)" style="fill: none; stroke-dasharray: 1.85,0.8; stroke-dashoffset: 0; stroke: #b0b0b0; stroke-opacity: 0.6; stroke-width: 0.5"/>
     </g>
     <g id="line2d_4">
      <g>
       <use xlink:href="#m0df18c28f4" x="118.544398" y="299.518125" style="stroke: #000000; stroke-width: 0.8"/>
      </g>
     </g>
     <g id="text_2">
      <!-- 20 -->
      <g transform="translate(112.181898 314.116563) scale(0.1 -0.1)">
       <defs>
        <path id="DejaVuSans-32" d="M 1228 531 
L 3431 531 
L 3431 0 
L 469 0 
L 469 531 
Q 828 903 1448 1529 
Q 2069 2156 2228 2338 
Q 2531 2678 2651 2914 
Q 2772 3150 2772 3378 
Q 2772 3750 2511 3984 
Q 2250 4219 1831 4219 
Q 1534 4219 1204 4116 
Q 875 4013 500 3803 
L 500 4441 
Q 881 4594 1212 4672 
Q 1544 4750 1819 4750 
Q 2544 4750 2975 4387 
Q 3406 4025 3406 3419 
Q 3406 3131 3298 2873 
Q 3191 2616 2906 2266 
Q 2828 2175 2409 1742 
Q 1991 1309 1228 531 
z
" transform="scale(0.015625)"/>
       </defs>
       <use xlink:href="#DejaVuSans-32"/>
       <use xlink:href="#DejaVuSans-30" transform="translate(63.623047 0)"/>
      </g>
     </g>
    </g>
    <g id="xtick_3">
     <g id="line2d_5">
      <path d="M 173.016637 299.518125 
L 173.016637 22.318125 
" clip-path="url(#pf43c6eb64b)" style="fill: none; stroke-dasharray: 1.85,0.8; stroke-dashoffset: 0; stroke: #b0b0b0; stroke-opacity: 0.6; stroke-width: 0.5"/>
     </g>
     <g id="line2d_6">
      <g>
       <use xlink:href="#m0df18c28f4" x="173.016637" y="299.518125" style="stroke: #000000; stroke-width: 0.8"/>
      </g>
     </g>
     <g id="text_3">
      <!-- 40 -->
      <g transform="translate(166.654137 314.116563) scale(0.1 -0.1)">
       <defs>
        <path id="DejaVuSans-34" d="M 2419 4116 
L 825 1625 
L 2419 1625 
L 2419 4116 
z
M 2253 4666 
L 3047 4666 
L 3047 1625 
L 3713 1625 
L 3713 1100 
L 3047 1100 
L 3047 0 
L 2419 0 
L 2419 1100 
L 313 1100 
L 313 1709 
L 2253 4666 
z
" transform="scale(0.015625)"/>
       </defs>
       <use xlink:href="#DejaVuSans-34"/>
       <use xlink:href="#DejaVuSans-30" transform="translate(63.623047 0)"/>
      </g>
     </g>
    </g>
    <g id="xtick_4">
     <g id="line2d_7">
      <path d="M 227.488877 299.518125 
L 227.488877 22.318125 
" clip-path="url(#pf43c6eb64b)" style="fill: none; stroke-dasharray: 1.85,0.8; stroke-dashoffset: 0; stroke: #b0b0b0; stroke-opacity: 0.6; stroke-width: 0.5"/>
     </g>
     <g id="line2d_8">
      <g>
       <use xlink:href="#m0df18c28f4" x="227.488877" y="299.518125" style="stroke: #000000; stroke-width: 0.8"/>
      </g>
     </g>
     <g id="text_4">
      <!-- 60 -->
      <g transform="translate(221.126377 314.116563) scale(0.1 -0.1)">
       <defs>
        <path id="DejaVuSans-36" d="M 2113 2584 
Q 1688 2584 1439 2293 
Q 1191 2003 1191 1497 
Q 1191 994 1439 701 
Q 1688 409 2113 409 
Q 2538 409 2786 701 
Q 3034 994 3034 1497 
Q 3034 2003 2786 2293 
Q 2538 2584 2113 2584 
z
M 3366 4563 
L 3366 3988 
Q 3128 4100 2886 4159 
Q 2644 4219 2406 4219 
Q 1781 4219 1451 3797 
Q 1122 3375 1075 2522 
Q 1259 2794 1537 2939 
Q 1816 3084 2150 3084 
Q 2853 3084 3261 2657 
Q 3669 2231 3669 1497 
Q 3669 778 3244 343 
Q 2819 -91 2113 -91 
Q 1303 -91 875 529 
Q 447 1150 447 2328 
Q 447 3434 972 4092 
Q 1497 4750 2381 4750 
Q 2619 4750 2861 4703 
Q 3103 4656 3366 4563 
z
" transform="scale(0.015625)"/>
       </defs>
       <use xlink:href="#DejaVuSans-36"/>
       <use xlink:href="#DejaVuSans-30" transform="translate(63.623047 0)"/>
      </g>
     </g>
    </g>
    <g id="xtick_5">
     <g id="line2d_9">
      <path d="M 281.961116 299.518125 
L 281.961116 22.318125 
" clip-path="url(#pf43c6eb64b)" style="fill: none; stroke-dasharray: 1.85,0.8; stroke-dashoffset: 0; stroke: #b0b0b0; stroke-opacity: 0.6; stroke-width: 0.5"/>
     </g>
     <g id="line2d_10">
      <g>
       <use xlink:href="#m0df18c28f4" x="281.961116" y="299.518125" style="stroke: #000000; stroke-width: 0.8"/>
      </g>
     </g>
     <g id="text_5">
      <!-- 80 -->
      <g transform="translate(275.598616 314.116563) scale(0.1 -0.1)">
       <defs>
        <path id="DejaVuSans-38" d="M 2034 2216 
Q 1584 2216 1326 1975 
Q 1069 1734 1069 1313 
Q 1069 891 1326 650 
Q 1584 409 2034 409 
Q 2484 409 2743 651 
Q 3003 894 3003 1313 
Q 3003 1734 2745 1975 
Q 2488 2216 2034 2216 
z
M 1403 2484 
Q 997 2584 770 2862 
Q 544 3141 544 3541 
Q 544 4100 942 4425 
Q 1341 4750 2034 4750 
Q 2731 4750 3128 4425 
Q 3525 4100 3525 3541 
Q 3525 3141 3298 2862 
Q 3072 2584 2669 2484 
Q 3125 2378 3379 2068 
Q 3634 1759 3634 1313 
Q 3634 634 3220 271 
Q 2806 -91 2034 -91 
Q 1263 -91 848 271 
Q 434 634 434 1313 
Q 434 1759 690 2068 
Q 947 2378 1403 2484 
z
M 1172 3481 
Q 1172 3119 1398 2916 
Q 1625 2713 2034 2713 
Q 2441 2713 2670 2916 
Q 2900 3119 2900 3481 
Q 2900 3844 2670 4047 
Q 2441 4250 2034 4250 
Q 1625 4250 1398 4047 
Q 1172 3844 1172 3481 
z
" transform="scale(0.015625)"/>
       </defs>
       <use xlink:href="#DejaVuSans-38"/>
       <use xlink:href="#DejaVuSans-30" transform="translate(63.623047 0)"/>
      </g>
     </g>
    </g>
    <g id="xtick_6">
     <g id="line2d_11">
      <path d="M 336.433355 299.518125 
L 336.433355 22.318125 
" clip-path="url(#pf43c6eb64b)" style="fill: none; stroke-dasharray: 1.85,0.8; stroke-dashoffset: 0; stroke: #b0b0b0; stroke-opacity: 0.6; stroke-width: 0.5"/>
     </g>
     <g id="line2d_12">
      <g>
       <use xlink:href="#m0df18c28f4" x="336.433355" y="299.518125" style="stroke: #000000; stroke-width: 0.8"/>
      </g>
     </g>
     <g id="text_6">
      <!-- 100 -->
      <g transform="translate(326.889605 314.116563) scale(0.1 -0.1)">
       <defs>
        <path id="DejaVuSans-31" d="M 794 531 
L 1825 531 
L 1825 4091 
L 703 3866 
L 703 4441 
L 1819 4666 
L 2450 4666 
L 2450 531 
L 3481 531 
L 3481 0 
L 794 0 
L 794 531 
z
" transform="scale(0.015625)"/>
       </defs>
       <use xlink:href="#DejaVuSans-31"/>
       <use xlink:href="#DejaVuSans-30" transform="translate(63.623047 0)"/>
       <use xlink:href="#DejaVuSans-30" transform="translate(127.246094 0)"/>
      </g>
     </g>
    </g>
    <g id="xtick_7">
     <g id="line2d_13">
      <path d="M 390.905594 299.518125 
L 390.905594 22.318125 
" clip-path="url(#pf43c6eb64b)" style="fill: none; stroke-dasharray: 1.85,0.8; stroke-dashoffset: 0; stroke: #b0b0b0; stroke-opacity: 0.6; stroke-width: 0.5"/>
     </g>
     <g id="line2d_14">
      <g>
       <use xlink:href="#m0df18c28f4" x="390.905594" y="299.518125" style="stroke: #000000; stroke-width: 0.8"/>
      </g>
     </g>
     <g id="text_7">
      <!-- 120 -->
      <g transform="translate(381.361844 314.116563) scale(0.1 -0.1)">
       <use xlink:href="#DejaVuSans-31"/>
       <use xlink:href="#DejaVuSans-32" transform="translate(63.623047 0)"/>
       <use xlink:href="#DejaVuSans-30" transform="translate(127.246094 0)"/>
      </g>
     </g>
    </g>
    <g id="xtick_8">
     <g id="line2d_15">
      <path d="M 445.377833 299.518125 
L 445.377833 22.318125 
" clip-path="url(#pf43c6eb64b)" style="fill: none; stroke-dasharray: 1.85,0.8; stroke-dashoffset: 0; stroke: #b0b0b0; stroke-opacity: 0.6; stroke-width: 0.5"/>
     </g>
     <g id="line2d_16">
      <g>
       <use xlink:href="#m0df18c28f4" x="445.377833" y="299.518125" style="stroke: #000000; stroke-width: 0.8"/>
      </g>
     </g>
     <g id="text_8">
      <!-- 140 -->
      <g transform="translate(435.834083 314.116563) scale(0.1 -0.1)">
       <use xlink:href="#DejaVuSans-31"/>
       <use xlink:href="#DejaVuSans-34" transform="translate(63.623047 0)"/>
       <use xlink:href="#DejaVuSans-30" transform="translate(127.246094 0)"/>
      </g>
     </g>
    </g>
    <g id="text_9">
     <!-- Simulation Day -->
     <g transform="translate(228.885937 327.794688) scale(0.1 -0.1)">
      <defs>
       <path id="DejaVuSans-53" d="M 3425 4513 
L 3425 3897 
Q 3066 4069 2747 4153 
Q 2428 4238 2131 4238 
Q 1616 4238 1336 4038 
Q 1056 3838 1056 3469 
Q 1056 3159 1242 3001 
Q 1428 2844 1947 2747 
L 2328 2669 
Q 3034 2534 3370 2195 
Q 3706 1856 3706 1288 
Q 3706 609 3251 259 
Q 2797 -91 1919 -91 
Q 1588 -91 1214 -16 
Q 841 59 441 206 
L 441 856 
Q 825 641 1194 531 
Q 1563 422 1919 422 
Q 2459 422 2753 634 
Q 3047 847 3047 1241 
Q 3047 1584 2836 1778 
Q 2625 1972 2144 2069 
L 1759 2144 
Q 1053 2284 737 2584 
Q 422 2884 422 3419 
Q 422 4038 858 4394 
Q 1294 4750 2059 4750 
Q 2388 4750 2728 4690 
Q 3069 4631 3425 4513 
z
" transform="scale(0.015625)"/>
       <path id="DejaVuSans-69" d="M 603 3500 
L 1178 3500 
L 1178 0 
L 603 0 
L 603 3500 
z
M 603 4863 
L 1178 4863 
L 1178 4134 
L 603 4134 
L 603 4863 
z
" transform="scale(0.015625)"/>
       <path id="DejaVuSans-6d" d="M 3328 2828 
Q 3544 3216 3844 3400 
Q 4144 3584 4550 3584 
Q 5097 3584 5394 3201 
Q 5691 2819 5691 2113 
L 5691 0 
L 5113 0 
L 5113 2094 
Q 5113 2597 4934 2840 
Q 4756 3084 4391 3084 
Q 3944 3084 3684 2787 
Q 3425 2491 3425 1978 
L 3425 0 
L 2847 0 
L 2847 2094 
Q 2847 2600 2669 2842 
Q 2491 3084 2119 3084 
Q 1678 3084 1418 2786 
Q 1159 2488 1159 1978 
L 1159 0 
L 581 0 
L 581 3500 
L 1159 3500 
L 1159 2956 
Q 1356 3278 1631 3431 
Q 1906 3584 2284 3584 
Q 2666 3584 2933 3390 
Q 3200 3197 3328 2828 
z
" transform="scale(0.015625)"/>
       <path id="DejaVuSans-75" d="M 544 1381 
L 544 3500 
L 1119 3500 
L 1119 1403 
Q 1119 906 1312 657 
Q 1506 409 1894 409 
Q 2359 409 2629 706 
Q 2900 1003 2900 1516 
L 2900 3500 
L 3475 3500 
L 3475 0 
L 2900 0 
L 2900 538 
Q 2691 219 2414 64 
Q 2138 -91 1772 -91 
Q 1169 -91 856 284 
Q 544 659 544 1381 
z
M 1991 3584 
L 1991 3584 
z
" transform="scale(0.015625)"/>
       <path id="DejaVuSans-6c" d="M 603 4863 
L 1178 4863 
L 1178 0 
L 603 0 
L 603 4863 
z
" transform="scale(0.015625)"/>
       <path id="DejaVuSans-61" d="M 2194 1759 
Q 1497 1759 1228 1600 
Q 959 1441 959 1056 
Q 959 750 1161 570 
Q 1363 391 1709 391 
Q 2188 391 2477 730 
Q 2766 1069 2766 1631 
L 2766 1759 
L 2194 1759 
z
M 3341 1997 
L 3341 0 
L 2766 0 
L 2766 531 
Q 2569 213 2275 61 
Q 1981 -91 1556 -91 
Q 1019 -91 701 211 
Q 384 513 384 1019 
Q 384 1609 779 1909 
Q 1175 2209 1959 2209 
L 2766 2209 
L 2766 2266 
Q 2766 2663 2505 2880 
Q 2244 3097 1772 3097 
Q 1472 3097 1187 3025 
Q 903 2953 641 2809 
L 641 3341 
Q 956 3463 1253 3523 
Q 1550 3584 1831 3584 
Q 2591 3584 2966 3190 
Q 3341 2797 3341 1997 
z
" transform="scale(0.015625)"/>
       <path id="DejaVuSans-74" d="M 1172 4494 
L 1172 3500 
L 2356 3500 
L 2356 3053 
L 1172 3053 
L 1172 1153 
Q 1172 725 1289 603 
Q 1406 481 1766 481 
L 2356 481 
L 2356 0 
L 1766 0 
Q 1100 0 847 248 
Q 594 497 594 1153 
L 594 3053 
L 172 3053 
L 172 3500 
L 594 3500 
L 594 4494 
L 1172 4494 
z
" transform="scale(0.015625)"/>
       <path id="DejaVuSans-6f" d="M 1959 3097 
Q 1497 3097 1228 2736 
Q 959 2375 959 1747 
Q 959 1119 1226 758 
Q 1494 397 1959 397 
Q 2419 397 2687 759 
Q 2956 1122 2956 1747 
Q 2956 2369 2687 2733 
Q 2419 3097 1959 3097 
z
M 1959 3584 
Q 2709 3584 3137 3096 
Q 3566 2609 3566 1747 
Q 3566 888 3137 398 
Q 2709 -91 1959 -91 
Q 1206 -91 779 398 
Q 353 888 353 1747 
Q 353 2609 779 3096 
Q 1206 3584 1959 3584 
z
" transform="scale(0.015625)"/>
       <path id="DejaVuSans-6e" d="M 3513 2113 
L 3513 0 
L 2938 0 
L 2938 2094 
Q 2938 2591 2744 2837 
Q 2550 3084 2163 3084 
Q 1697 3084 1428 2787 
Q 1159 2491 1159 1978 
L 1159 0 
L 581 0 
L 581 3500 
L 1159 3500 
L 1159 2956 
Q 1366 3272 1645 3428 
Q 1925 3584 2291 3584 
Q 2894 3584 3203 3211 
Q 3513 2838 3513 2113 
z
" transform="scale(0.015625)"/>
       <path id="DejaVuSans-20" transform="scale(0.015625)"/>
       <path id="DejaVuSans-44" d="M 1259 4147 
L 1259 519 
L 2022 519 
Q 2988 519 3436 956 
Q 3884 1394 3884 2338 
Q 3884 3275 3436 3711 
Q 2988 4147 2022 4147 
L 1259 4147 
z
M 628 4666 
L 1925 4666 
Q 3281 4666 3915 4102 
Q 4550 3538 4550 2338 
Q 4550 1131 3912 565 
Q 3275 0 1925 0 
L 628 0 
L 628 4666 
z
" transform="scale(0.015625)"/>
       <path id="DejaVuSans-79" d="M 2059 -325 
Q 1816 -950 1584 -1140 
Q 1353 -1331 966 -1331 
L 506 -1331 
L 506 -850 
L 844 -850 
Q 1081 -850 1212 -737 
Q 1344 -625 1503 -206 
L 1606 56 
L 191 3500 
L 800 3500 
L 1894 763 
L 2988 3500 
L 3597 3500 
L 2059 -325 
z
" transform="scale(0.015625)"/>
      </defs>
      <use xlink:href="#DejaVuSans-53"/>
      <use xlink:href="#DejaVuSans-69" transform="translate(63.476562 0)"/>
      <use xlink:href="#DejaVuSans-6d" transform="translate(91.259766 0)"/>
      <use xlink:href="#DejaVuSans-75" transform="translate(188.671875 0)"/>
      <use xlink:href="#DejaVuSans-6c" transform="translate(252.050781 0)"/>
      <use xlink:href="#DejaVuSans-61" transform="translate(279.833984 0)"/>
      <use xlink:href="#DejaVuSans-74" transform="translate(341.113281 0)"/>
      <use xlink:href="#DejaVuSans-69" transform="translate(380.322266 0)"/>
      <use xlink:href="#DejaVuSans-6f" transform="translate(408.105469 0)"/>
      <use xlink:href="#DejaVuSans-6e" transform="translate(469.287109 0)"/>
      <use xlink:href="#DejaVuSans-20" transform="translate(532.666016 0)"/>
      <use xlink:href="#DejaVuSans-44" transform="translate(564.453125 0)"/>
      <use xlink:href="#DejaVuSans-61" transform="translate(641.455078 0)"/>
      <use xlink:href="#DejaVuSans-79" transform="translate(702.734375 0)"/>
     </g>
    </g>
   </g>
   <g id="matplotlib.axis_2">
    <g id="ytick_1">
     <g id="line2d_17">
      <path d="M 43.78125 286.918125 
L 490.18125 286.918125 
" clip-path="url(#pf43c6eb64b)" style="fill: none; stroke-dasharray: 1.85,0.8; stroke-dashoffset: 0; stroke: #b0b0b0; stroke-opacity: 0.6; stroke-width: 0.5"/>
     </g>
     <g id="line2d_18">
      <defs>
       <path id="mbc7154cb9c" d="M 0 0 
L -3.5 0 
" style="stroke: #000000; stroke-width: 0.8"/>
      </defs>
      <g>
       <use xlink:href="#mbc7154cb9c" x="43.78125" y="286.918125" style="stroke: #000000; stroke-width: 0.8"/>
      </g>
     </g>
     <g id="text_10">
      <!-- 0.0 -->
      <g transform="translate(20.878125 290.717344) scale(0.1 -0.1)">
       <defs>
        <path id="DejaVuSans-2e" d="M 684 794 
L 1344 794 
L 1344 0 
L 684 0 
L 684 794 
z
" transform="scale(0.015625)"/>
       </defs>
       <use xlink:href="#DejaVuSans-30"/>
       <use xlink:href="#DejaVuSans-2e" transform="translate(63.623047 0)"/>
       <use xlink:href="#DejaVuSans-30" transform="translate(95.410156 0)"/>
      </g>
     </g>
    </g>
    <g id="ytick_2">
     <g id="line2d_19">
      <path d="M 43.78125 252.839369 
L 490.18125 252.839369 
" clip-path="url(#pf43c6eb64b)" style="fill: none; stroke-dasharray: 1.85,0.8; stroke-dashoffset: 0; stroke: #b0b0b0; stroke-opacity: 0.6; stroke-width: 0.5"/>
     </g>
     <g id="line2d_20">
      <g>
       <use xlink:href="#mbc7154cb9c" x="43.78125" y="252.839369" style="stroke: #000000; stroke-width: 0.8"/>
      </g>
     </g>
     <g id="text_11">
      <!-- 0.1 -->
      <g transform="translate(20.878125 256.638587) scale(0.1 -0.1)">
       <use xlink:href="#DejaVuSans-30"/>
       <use xlink:href="#DejaVuSans-2e" transform="translate(63.623047 0)"/>
       <use xlink:href="#DejaVuSans-31" transform="translate(95.410156 0)"/>
      </g>
     </g>
    </g>
    <g id="ytick_3">
     <g id="line2d_21">
      <path d="M 43.78125 218.760612 
L 490.18125 218.760612 
" clip-path="url(#pf43c6eb64b)" style="fill: none; stroke-dasharray: 1.85,0.8; stroke-dashoffset: 0; stroke: #b0b0b0; stroke-opacity: 0.6; stroke-width: 0.5"/>
     </g>
     <g id="line2d_22">
      <g>
       <use xlink:href="#mbc7154cb9c" x="43.78125" y="218.760612" style="stroke: #000000; stroke-width: 0.8"/>
      </g>
     </g>
     <g id="text_12">
      <!-- 0.2 -->
      <g transform="translate(20.878125 222.559831) scale(0.1 -0.1)">
       <use xlink:href="#DejaVuSans-30"/>
       <use xlink:href="#DejaVuSans-2e" transform="translate(63.623047 0)"/>
       <use xlink:href="#DejaVuSans-32" transform="translate(95.410156 0)"/>
      </g>
     </g>
    </g>
    <g id="ytick_4">
     <g id="line2d_23">
      <path d="M 43.78125 184.681856 
L 490.18125 184.681856 
" clip-path="url(#pf43c6eb64b)" style="fill: none; stroke-dasharray: 1.85,0.8; stroke-dashoffset: 0; stroke: #b0b0b0; stroke-opacity: 0.6; stroke-width: 0.5"/>
     </g>
     <g id="line2d_24">
      <g>
       <use xlink:href="#mbc7154cb9c" x="43.78125" y="184.681856" style="stroke: #000000; stroke-width: 0.8"/>
      </g>
     </g>
     <g id="text_13">
      <!-- 0.3 -->
      <g transform="translate(20.878125 188.481074) scale(0.1 -0.1)">
       <defs>
        <path id="DejaVuSans-33" d="M 2597 2516 
Q 3050 2419 3304 2112 
Q 3559 1806 3559 1356 
Q 3559 666 3084 287 
Q 2609 -91 1734 -91 
Q 1441 -91 1130 -33 
Q 819 25 488 141 
L 488 750 
Q 750 597 1062 519 
Q 1375 441 1716 441 
Q 2309 441 2620 675 
Q 2931 909 2931 1356 
Q 2931 1769 2642 2001 
Q 2353 2234 1838 2234 
L 1294 2234 
L 1294 2753 
L 1863 2753 
Q 2328 2753 2575 2939 
Q 2822 3125 2822 3475 
Q 2822 3834 2567 4026 
Q 2313 4219 1838 4219 
Q 1578 4219 1281 4162 
Q 984 4106 628 3988 
L 628 4550 
Q 988 4650 1302 4700 
Q 1616 4750 1894 4750 
Q 2613 4750 3031 4423 
Q 3450 4097 3450 3541 
Q 3450 3153 3228 2886 
Q 3006 2619 2597 2516 
z
" transform="scale(0.015625)"/>
       </defs>
       <use xlink:href="#DejaVuSans-30"/>
       <use xlink:href="#DejaVuSans-2e" transform="translate(63.623047 0)"/>
       <use xlink:href="#DejaVuSans-33" transform="translate(95.410156 0)"/>
      </g>
     </g>
    </g>
    <g id="ytick_5">
     <g id="line2d_25">
      <path d="M 43.78125 150.603099 
L 490.18125 150.603099 
" clip-path="url(#pf43c6eb64b)" style="fill: none; stroke-dasharray: 1.85,0.8; stroke-dashoffset: 0; stroke: #b0b0b0; stroke-opacity: 0.6; stroke-width: 0.5"/>
     </g>
     <g id="line2d_26">
      <g>
       <use xlink:href="#mbc7154cb9c" x="43.78125" y="150.603099" style="stroke: #000000; stroke-width: 0.8"/>
      </g>
     </g>
     <g id="text_14">
      <!-- 0.4 -->
      <g transform="translate(20.878125 154.402318) scale(0.1 -0.1)">
       <use xlink:href="#DejaVuSans-30"/>
       <use xlink:href="#DejaVuSans-2e" transform="translate(63.623047 0)"/>
       <use xlink:href="#DejaVuSans-34" transform="translate(95.410156 0)"/>
      </g>
     </g>
    </g>
    <g id="ytick_6">
     <g id="line2d_27">
      <path d="M 43.78125 116.524343 
L 490.18125 116.524343 
" clip-path="url(#pf43c6eb64b)" style="fill: none; stroke-dasharray: 1.85,0.8; stroke-dashoffset: 0; stroke: #b0b0b0; stroke-opacity: 0.6; stroke-width: 0.5"/>
     </g>
     <g id="line2d_28">
      <g>
       <use xlink:href="#mbc7154cb9c" x="43.78125" y="116.524343" style="stroke: #000000; stroke-width: 0.8"/>
      </g>
     </g>
     <g id="text_15">
      <!-- 0.5 -->
      <g transform="translate(20.878125 120.323561) scale(0.1 -0.1)">
       <defs>
        <path id="DejaVuSans-35" d="M 691 4666 
L 3169 4666 
L 3169 4134 
L 1269 4134 
L 1269 2991 
Q 1406 3038 1543 3061 
Q 1681 3084 1819 3084 
Q 2600 3084 3056 2656 
Q 3513 2228 3513 1497 
Q 3513 744 3044 326 
Q 2575 -91 1722 -91 
Q 1428 -91 1123 -41 
Q 819 9 494 109 
L 494 744 
Q 775 591 1075 516 
Q 1375 441 1709 441 
Q 2250 441 2565 725 
Q 2881 1009 2881 1497 
Q 2881 1984 2565 2268 
Q 2250 2553 1709 2553 
Q 1456 2553 1204 2497 
Q 953 2441 691 2322 
L 691 4666 
z
" transform="scale(0.015625)"/>
       </defs>
       <use xlink:href="#DejaVuSans-30"/>
       <use xlink:href="#DejaVuSans-2e" transform="translate(63.623047 0)"/>
       <use xlink:href="#DejaVuSans-35" transform="translate(95.410156 0)"/>
      </g>
     </g>
    </g>
    <g id="ytick_7">
     <g id="line2d_29">
      <path d="M 43.78125 82.445586 
L 490.18125 82.445586 
" clip-path="url(#pf43c6eb64b)" style="fill: none; stroke-dasharray: 1.85,0.8; stroke-dashoffset: 0; stroke: #b0b0b0; stroke-opacity: 0.6; stroke-width: 0.5"/>
     </g>
     <g id="line2d_30">
      <g>
       <use xlink:href="#mbc7154cb9c" x="43.78125" y="82.445586" style="stroke: #000000; stroke-width: 0.8"/>
      </g>
     </g>
     <g id="text_16">
      <!-- 0.6 -->
      <g transform="translate(20.878125 86.244805) scale(0.1 -0.1)">
       <use xlink:href="#DejaVuSans-30"/>
       <use xlink:href="#DejaVuSans-2e" transform="translate(63.623047 0)"/>
       <use xlink:href="#DejaVuSans-36" transform="translate(95.410156 0)"/>
      </g>
     </g>
    </g>
    <g id="ytick_8">
     <g id="line2d_31">
      <path d="M 43.78125 48.36683 
L 490.18125 48.36683 
" clip-path="url(#pf43c6eb64b)" style="fill: none; stroke-dasharray: 1.85,0.8; stroke-dashoffset: 0; stroke: #b0b0b0; stroke-opacity: 0.6; stroke-width: 0.5"/>
     </g>
     <g id="line2d_32">
      <g>
       <use xlink:href="#mbc7154cb9c" x="43.78125" y="48.36683" style="stroke: #000000; stroke-width: 0.8"/>
      </g>
     </g>
     <g id="text_17">
      <!-- 0.7 -->
      <g transform="translate(20.878125 52.166048) scale(0.1 -0.1)">
       <defs>
        <path id="DejaVuSans-37" d="M 525 4666 
L 3525 4666 
L 3525 4397 
L 1831 0 
L 1172 0 
L 2766 4134 
L 525 4134 
L 525 4666 
z
" transform="scale(0.015625)"/>
       </defs>
       <use xlink:href="#DejaVuSans-30"/>
       <use xlink:href="#DejaVuSans-2e" transform="translate(63.623047 0)"/>
       <use xlink:href="#DejaVuSans-37" transform="translate(95.410156 0)"/>
      </g>
     </g>
    </g>
    <g id="text_18">
     <!-- Detection Ratio (Efficiency) -->
     <g transform="translate(14.798438 229.282969) rotate(-90) scale(0.1 -0.1)">
      <defs>
       <path id="DejaVuSans-65" d="M 3597 1894 
L 3597 1613 
L 953 1613 
Q 991 1019 1311 708 
Q 1631 397 2203 397 
Q 2534 397 2845 478 
Q 3156 559 3463 722 
L 3463 178 
Q 3153 47 2828 -22 
Q 2503 -91 2169 -91 
Q 1331 -91 842 396 
Q 353 884 353 1716 
Q 353 2575 817 3079 
Q 1281 3584 2069 3584 
Q 2775 3584 3186 3129 
Q 3597 2675 3597 1894 
z
M 3022 2063 
Q 3016 2534 2758 2815 
Q 2500 3097 2075 3097 
Q 1594 3097 1305 2825 
Q 1016 2553 972 2059 
L 3022 2063 
z
" transform="scale(0.015625)"/>
       <path id="DejaVuSans-63" d="M 3122 3366 
L 3122 2828 
Q 2878 2963 2633 3030 
Q 2388 3097 2138 3097 
Q 1578 3097 1268 2742 
Q 959 2388 959 1747 
Q 959 1106 1268 751 
Q 1578 397 2138 397 
Q 2388 397 2633 464 
Q 2878 531 3122 666 
L 3122 134 
Q 2881 22 2623 -34 
Q 2366 -91 2075 -91 
Q 1284 -91 818 406 
Q 353 903 353 1747 
Q 353 2603 823 3093 
Q 1294 3584 2113 3584 
Q 2378 3584 2631 3529 
Q 2884 3475 3122 3366 
z
" transform="scale(0.015625)"/>
       <path id="DejaVuSans-52" d="M 2841 2188 
Q 3044 2119 3236 1894 
Q 3428 1669 3622 1275 
L 4263 0 
L 3584 0 
L 2988 1197 
Q 2756 1666 2539 1819 
Q 2322 1972 1947 1972 
L 1259 1972 
L 1259 0 
L 628 0 
L 628 4666 
L 2053 4666 
Q 2853 4666 3247 4331 
Q 3641 3997 3641 3322 
Q 3641 2881 3436 2590 
Q 3231 2300 2841 2188 
z
M 1259 4147 
L 1259 2491 
L 2053 2491 
Q 2509 2491 2742 2702 
Q 2975 2913 2975 3322 
Q 2975 3731 2742 3939 
Q 2509 4147 2053 4147 
L 1259 4147 
z
" transform="scale(0.015625)"/>
       <path id="DejaVuSans-28" d="M 1984 4856 
Q 1566 4138 1362 3434 
Q 1159 2731 1159 2009 
Q 1159 1288 1364 580 
Q 1569 -128 1984 -844 
L 1484 -844 
Q 1016 -109 783 600 
Q 550 1309 550 2009 
Q 550 2706 781 3412 
Q 1013 4119 1484 4856 
L 1984 4856 
z
" transform="scale(0.015625)"/>
       <path id="DejaVuSans-45" d="M 628 4666 
L 3578 4666 
L 3578 4134 
L 1259 4134 
L 1259 2753 
L 3481 2753 
L 3481 2222 
L 1259 2222 
L 1259 531 
L 3634 531 
L 3634 0 
L 628 0 
L 628 4666 
z
" transform="scale(0.015625)"/>
       <path id="DejaVuSans-66" d="M 2375 4863 
L 2375 4384 
L 1825 4384 
Q 1516 4384 1395 4259 
Q 1275 4134 1275 3809 
L 1275 3500 
L 2222 3500 
L 2222 3053 
L 1275 3053 
L 1275 0 
L 697 0 
L 697 3053 
L 147 3053 
L 147 3500 
L 697 3500 
L 697 3744 
Q 697 4328 969 4595 
Q 1241 4863 1831 4863 
L 2375 4863 
z
" transform="scale(0.015625)"/>
       <path id="DejaVuSans-29" d="M 513 4856 
L 1013 4856 
Q 1481 4119 1714 3412 
Q 1947 2706 1947 2009 
Q 1947 1309 1714 600 
Q 1481 -109 1013 -844 
L 513 -844 
Q 928 -128 1133 580 
Q 1338 1288 1338 2009 
Q 1338 2731 1133 3434 
Q 928 4138 513 4856 
z
" transform="scale(0.015625)"/>
      </defs>
      <use xlink:href="#DejaVuSans-44"/>
      <use xlink:href="#DejaVuSans-65" transform="translate(77.001953 0)"/>
      <use xlink:href="#DejaVuSans-74" transform="translate(138.525391 0)"/>
      <use xlink:href="#DejaVuSans-65" transform="translate(177.734375 0)"/>
      <use xlink:href="#DejaVuSans-63" transform="translate(239.257812 0)"/>
      <use xlink:href="#DejaVuSans-74" transform="translate(294.238281 0)"/>
      <use xlink:href="#DejaVuSans-69" transform="translate(333.447266 0)"/>
      <use xlink:href="#DejaVuSans-6f" transform="translate(361.230469 0)"/>
      <use xlink:href="#DejaVuSans-6e" transform="translate(422.412109 0)"/>
      <use xlink:href="#DejaVuSans-20" transform="translate(485.791016 0)"/>
      <use xlink:href="#DejaVuSans-52" transform="translate(517.578125 0)"/>
      <use xlink:href="#DejaVuSans-61" transform="translate(584.810547 0)"/>
      <use xlink:href="#DejaVuSans-74" transform="translate(646.089844 0)"/>
      <use xlink:href="#DejaVuSans-69" transform="translate(685.298828 0)"/>
      <use xlink:href="#DejaVuSans-6f" transform="translate(713.082031 0)"/>
      <use xlink:href="#DejaVuSans-20" transform="translate(774.263672 0)"/>
      <use xlink:href="#DejaVuSans-28" transform="translate(806.050781 0)"/>
      <use xlink:href="#DejaVuSans-45" transform="translate(845.064453 0)"/>
      <use xlink:href="#DejaVuSans-66" transform="translate(908.248047 0)"/>
      <use xlink:href="#DejaVuSans-66" transform="translate(943.453125 0)"/>
      <use xlink:href="#DejaVuSans-69" transform="translate(978.658203 0)"/>
      <use xlink:href="#DejaVuSans-63" transform="translate(1006.441406 0)"/>
      <use xlink:href="#DejaVuSans-69" transform="translate(1061.421875 0)"/>
      <use xlink:href="#DejaVuSans-65" transform="translate(1089.205078 0)"/>
      <use xlink:href="#DejaVuSans-6e" transform="translate(1150.728516 0)"/>
      <use xlink:href="#DejaVuSans-63" transform="translate(1214.107422 0)"/>
      <use xlink:href="#DejaVuSans-79" transform="translate(1269.087891 0)"/>
      <use xlink:href="#DejaVuSans-29" transform="translate(1328.267578 0)"/>
     </g>
    </g>
   </g>
   <g id="line2d_33">
    <path d="M 64.072159 286.918125 
L 115.820786 286.918125 
L 118.544398 239.689414 
L 121.26801 215.670347 
L 123.991622 199.473834 
L 126.715234 189.760547 
L 129.438846 192.21651 
L 132.162458 193.251367 
L 134.88607 189.726004 
L 137.609682 183.862092 
L 140.333294 179.272529 
L 143.056906 185.428106 
L 145.780518 185.856985 
L 151.227742 188.637069 
L 153.951354 193.581403 
L 156.674966 192.254913 
L 159.398578 191.584274 
L 162.12219 191.848633 
L 164.845802 190.321175 
L 167.569414 192.283255 
L 170.293025 192.215054 
L 173.016637 184.017984 
L 175.740249 181.221551 
L 178.463861 177.379265 
L 181.187473 175.070859 
L 183.911085 172.56574 
L 186.634697 172.663743 
L 192.081921 167.104072 
L 194.805533 163.929331 
L 197.529145 161.416822 
L 200.252757 162.4332 
L 205.699981 160.958928 
L 208.423593 162.307855 
L 211.147205 163.473565 
L 213.870817 160.509088 
L 216.594429 158.134546 
L 219.318041 157.404806 
L 222.041653 158.361022 
L 224.765265 157.943714 
L 230.212489 152.059606 
L 232.936101 150.138858 
L 235.659712 147.667031 
L 238.383324 146.241285 
L 241.106936 143.191828 
L 243.830548 139.748862 
L 246.55416 138.602204 
L 249.277772 139.068513 
L 252.001384 136.378261 
L 254.724996 136.185164 
L 257.448608 133.108043 
L 262.895832 131.007997 
L 265.619444 131.561214 
L 268.343056 130.505187 
L 271.066668 129.146104 
L 273.79028 129.339865 
L 276.513892 128.665423 
L 279.237504 126.941129 
L 281.961116 124.348721 
L 284.684728 124.845347 
L 287.40834 123.418889 
L 290.131952 122.550916 
L 292.855564 121.822783 
L 295.579176 118.652998 
L 298.302788 117.509671 
L 303.750011 115.739432 
L 306.473623 114.461464 
L 309.197235 113.858153 
L 314.644459 111.331323 
L 317.368071 110.706358 
L 320.091683 108.795286 
L 322.815295 108.24032 
L 325.538907 105.705115 
L 328.262519 105.402985 
L 330.986131 102.951851 
L 333.709743 101.751176 
L 336.433355 101.420395 
L 339.156967 100.188372 
L 341.880579 99.258398 
L 344.604191 97.547681 
L 347.327803 94.186871 
L 350.051415 93.418007 
L 352.775027 91.90535 
L 355.498639 89.761148 
L 358.222251 90.207674 
L 360.945863 90.143121 
L 363.669475 89.193125 
L 366.393086 86.388271 
L 369.116698 85.251055 
L 371.84031 86.25283 
L 374.563922 86.170591 
L 377.287534 86.802687 
L 380.011146 85.529055 
L 382.734758 88.5476 
L 385.45837 84.88624 
L 388.181982 82.515229 
L 390.905594 79.435849 
L 393.629206 80.950269 
L 396.352818 79.738337 
L 399.07643 79.510204 
L 401.800042 77.966127 
L 404.523654 79.559885 
L 407.247266 80.75573 
L 409.970878 77.381791 
L 412.69449 78.858349 
L 415.418102 77.819511 
L 418.141714 75.71002 
L 420.865326 73.988085 
L 423.588938 72.718654 
L 426.31255 73.700984 
L 429.036162 75.152251 
L 431.759773 75.480585 
L 434.483385 73.801413 
L 437.206997 72.317927 
L 439.930609 72.551754 
L 442.654221 77.270177 
L 445.377833 79.374207 
L 448.101445 77.057267 
L 450.825057 79.079181 
L 453.548669 80.426104 
L 456.272281 79.314857 
L 458.995893 77.792474 
L 461.719505 81.471134 
L 464.443117 78.220947 
L 467.166729 80.021695 
L 469.890341 82.266067 
L 469.890341 82.266067 
" clip-path="url(#pf43c6eb64b)" style="fill: none; stroke: #1f77b4; stroke-width: 1.5; stroke-linecap: square"/>
   </g>
   <g id="line2d_34">
    <path d="M 64.072159 286.918125 
L 115.820786 286.918125 
L 118.544398 255.672321 
L 121.26801 232.909381 
L 126.715234 207.380068 
L 129.438846 201.721234 
L 132.162458 195.074668 
L 134.88607 190.862198 
L 137.609682 192.20456 
L 140.333294 192.858298 
L 143.056906 193.90801 
L 145.780518 193.928301 
L 148.50413 195.998453 
L 151.227742 196.705215 
L 153.951354 198.271544 
L 156.674966 198.956354 
L 159.398578 200.39693 
L 162.12219 203.400257 
L 164.845802 203.767172 
L 167.569414 204.99444 
L 170.293025 206.717548 
L 173.016637 198.252042 
L 175.740249 193.518219 
L 178.463861 187.039596 
L 181.187473 181.752133 
L 186.634697 172.76804 
L 189.358309 168.728776 
L 192.081921 166.778314 
L 194.805533 164.973659 
L 197.529145 163.998945 
L 200.252757 162.66165 
L 202.976369 160.10214 
L 205.699981 155.25989 
L 208.423593 151.743942 
L 211.147205 150.053358 
L 213.870817 147.739946 
L 216.594429 145.133225 
L 219.318041 142.233593 
L 222.041653 142.333915 
L 224.765265 139.401053 
L 227.488877 134.410429 
L 230.212489 130.220948 
L 232.936101 124.470167 
L 235.659712 121.258206 
L 238.383324 120.119363 
L 241.106936 115.827594 
L 243.830548 113.527663 
L 246.55416 110.767082 
L 249.277772 108.361926 
L 252.001384 106.868152 
L 254.724996 106.404118 
L 260.17222 104.988436 
L 262.895832 103.482697 
L 265.619444 103.58634 
L 268.343056 101.637276 
L 271.066668 101.230286 
L 273.79028 98.628823 
L 276.513892 97.065208 
L 279.237504 95.293788 
L 281.961116 91.228157 
L 284.684728 89.808489 
L 287.40834 88.56264 
L 290.131952 85.997537 
L 292.855564 82.268592 
L 295.579176 77.566301 
L 298.302788 76.803772 
L 301.026399 73.874881 
L 303.750011 71.937688 
L 306.473623 71.287443 
L 309.197235 69.740707 
L 311.920847 66.502199 
L 314.644459 65.215085 
L 317.368071 63.661058 
L 320.091683 60.787067 
L 322.815295 60.242928 
L 325.538907 62.023601 
L 328.262519 62.71578 
L 330.986131 62.509202 
L 333.709743 63.239689 
L 336.433355 63.216791 
L 339.156967 60.721623 
L 341.880579 58.834301 
L 344.604191 60.033431 
L 347.327803 60.151669 
L 350.051415 58.40361 
L 352.775027 55.619844 
L 355.498639 53.224904 
L 358.222251 52.603243 
L 360.945863 52.700544 
L 363.669475 51.163567 
L 366.393086 52.626674 
L 369.116698 52.626674 
L 371.84031 53.723065 
L 374.563922 56.702641 
L 377.287534 55.632871 
L 382.734758 59.909192 
L 385.45837 60.10256 
L 388.181982 62.044698 
L 390.905594 65.874904 
L 393.629206 67.818455 
L 396.352818 68.160694 
L 399.07643 70.841469 
L 401.800042 73.712692 
L 404.523654 75.82014 
L 407.247266 76.163114 
L 409.970878 76.740772 
L 412.69449 77.084883 
L 415.418102 75.367385 
L 418.141714 75.818025 
L 420.865326 79.100432 
L 423.588938 79.905555 
L 426.31255 78.972592 
L 429.036162 82.357413 
L 431.759773 79.799578 
L 434.483385 81.408612 
L 437.206997 78.498612 
L 439.930609 80.63876 
L 442.654221 80.459401 
L 445.377833 78.569329 
L 448.101445 79.991469 
L 450.825057 82.791563 
L 453.548669 88.274065 
L 456.272281 90.781397 
L 458.995893 91.384276 
L 461.719505 84.495436 
L 464.443117 88.501169 
L 467.166729 89.828218 
L 469.890341 89.757503 
L 469.890341 89.757503 
" clip-path="url(#pf43c6eb64b)" style="fill: none; stroke: #ff7f0e; stroke-width: 1.5; stroke-linecap: square"/>
   </g>
   <g id="line2d_35">
    <path d="M 64.072159 286.918125 
L 115.820786 286.918125 
L 118.544398 262.147223 
L 121.26801 238.421433 
L 123.991622 233.264719 
L 126.715234 230.381939 
L 129.438846 230.810051 
L 132.162458 228.204123 
L 134.88607 231.010447 
L 137.609682 233.210516 
L 140.333294 235.969818 
L 143.056906 239.990824 
L 145.780518 240.386663 
L 148.50413 241.107991 
L 151.227742 242.622886 
L 153.951354 245.366229 
L 156.674966 247.398456 
L 162.12219 252.719946 
L 164.845802 254.480665 
L 167.569414 257.223668 
L 170.293025 258.966596 
L 173.016637 257.569725 
L 175.740249 255.739267 
L 178.463861 252.918863 
L 181.187473 251.910839 
L 183.911085 250.409012 
L 189.358309 248.942077 
L 192.081921 248.698539 
L 194.805533 248.586414 
L 197.529145 249.205053 
L 200.252757 249.228758 
L 202.976369 248.475853 
L 205.699981 248.271373 
L 208.423593 247.675081 
L 211.147205 247.903592 
L 213.870817 248.794461 
L 216.594429 248.550892 
L 219.318041 247.953985 
L 222.041653 247.958626 
L 224.765265 247.794846 
L 227.488877 245.476749 
L 232.936101 241.306898 
L 235.659712 238.821744 
L 238.383324 235.862291 
L 241.106936 232.283477 
L 243.830548 229.524696 
L 246.55416 226.144508 
L 249.277772 223.394053 
L 254.724996 216.903517 
L 257.448608 212.797105 
L 260.17222 208.286569 
L 262.895832 205.184683 
L 265.619444 200.986867 
L 268.343056 195.474684 
L 273.79028 183.963457 
L 276.513892 178.403396 
L 279.237504 172.421977 
L 284.684728 157.613452 
L 290.131952 139.663433 
L 298.302788 111.762144 
L 301.026399 103.14733 
L 303.750011 95.656278 
L 306.473623 89.147803 
L 309.197235 83.782779 
L 314.644459 71.446039 
L 317.368071 66.208681 
L 320.091683 62.539422 
L 322.815295 58.188367 
L 328.262519 50.589357 
L 330.986131 47.971484 
L 333.709743 44.002063 
L 336.433355 42.710752 
L 339.156967 44.173102 
L 341.880579 43.758315 
L 344.604191 44.627781 
L 347.327803 47.155445 
L 350.051415 44.158675 
L 352.775027 43.315276 
L 355.498639 40.103676 
L 358.222251 42.754539 
L 360.945863 43.498436 
L 363.669475 39.757115 
L 366.393086 42.127057 
L 369.116698 42.352931 
L 371.84031 44.102183 
L 374.563922 47.402337 
L 377.287534 47.010461 
L 380.011146 44.134827 
L 382.734758 43.301069 
L 385.45837 45.021973 
L 388.181982 47.028389 
L 390.905594 49.752145 
L 393.629206 51.433339 
L 396.352818 54.005761 
L 399.07643 55.002202 
L 401.800042 55.502695 
L 404.523654 53.352299 
L 407.247266 50.099648 
L 409.970878 54.389697 
L 412.69449 57.326503 
L 415.418102 62.78156 
L 418.141714 63.522678 
L 420.865326 68.961851 
L 423.588938 71.633063 
L 426.31255 67.479248 
L 429.036162 60.788059 
L 431.759773 56.097155 
L 434.483385 63.487867 
L 437.206997 58.951017 
L 439.930609 50.328197 
L 442.654221 54.562967 
L 445.377833 53.313746 
L 448.101445 55.012894 
L 450.825057 53.19214 
L 453.548669 53.501985 
L 456.272281 51.249113 
L 458.995893 56.798687 
L 461.719505 60.903574 
L 464.443117 60.961153 
L 467.166729 59.726415 
L 469.890341 59.726415 
L 469.890341 59.726415 
" clip-path="url(#pf43c6eb64b)" style="fill: none; stroke: #2ca02c; stroke-width: 1.5; stroke-linecap: square"/>
   </g>
   <g id="line2d_36">
    <path d="M 64.072159 286.918125 
L 115.820786 286.918125 
L 118.544398 274.206208 
L 121.26801 267.424419 
L 123.991622 263.075328 
L 126.715234 260.758084 
L 129.438846 257.473088 
L 132.162458 257.638048 
L 134.88607 257.397373 
L 137.609682 258.787321 
L 140.333294 260.885742 
L 143.056906 262.016302 
L 145.780518 262.721481 
L 148.50413 264.083498 
L 151.227742 265.000134 
L 153.951354 266.36399 
L 159.398578 268.262663 
L 162.12219 268.935145 
L 164.845802 269.299693 
L 170.293025 270.317291 
L 173.016637 268.753835 
L 175.740249 267.024357 
L 178.463861 265.720248 
L 181.187473 264.648382 
L 183.911085 263.28905 
L 189.358309 260.902095 
L 192.081921 259.384295 
L 194.805533 258.059402 
L 200.252757 254.772176 
L 202.976369 253.389403 
L 205.699981 251.684814 
L 208.423593 250.411691 
L 213.870817 246.455979 
L 216.594429 245.177695 
L 219.318041 243.26797 
L 222.041653 241.07429 
L 224.765265 239.333898 
L 227.488877 234.557439 
L 238.383324 213.10497 
L 241.106936 206.390811 
L 243.830548 200.778711 
L 246.55416 193.240493 
L 249.277772 184.897245 
L 252.001384 177.906027 
L 254.724996 170.50472 
L 257.448608 163.447932 
L 260.17222 155.831053 
L 262.895832 148.746244 
L 265.619444 142.191254 
L 268.343056 134.636768 
L 271.066668 127.87312 
L 273.79028 122.364964 
L 276.513892 117.334456 
L 279.237504 112.830425 
L 284.684728 101.795029 
L 287.40834 95.281318 
L 290.131952 89.564049 
L 292.855564 83.347008 
L 295.579176 77.655561 
L 298.302788 74.750836 
L 301.026399 70.646243 
L 303.750011 68.432477 
L 306.473623 65.422799 
L 309.197235 61.446666 
L 311.920847 61.243555 
L 314.644459 59.925706 
L 317.368071 60.505925 
L 320.091683 58.897798 
L 322.815295 58.697324 
L 325.538907 59.556107 
L 328.262519 58.107472 
L 330.986131 60.103497 
L 333.709743 61.909043 
L 336.433355 60.879141 
L 339.156967 61.701995 
L 341.880579 63.559404 
L 344.604191 64.30989 
L 347.327803 63.792779 
L 350.051415 63.055231 
L 352.775027 64.703553 
L 355.498639 67.350298 
L 358.222251 65.066391 
L 360.945863 64.68768 
L 363.669475 68.450862 
L 366.393086 72.452145 
L 369.116698 72.962802 
L 371.84031 74.161248 
L 374.563922 69.872841 
L 377.287534 68.140923 
L 380.011146 71.135606 
L 382.734758 64.631691 
L 385.45837 65.777526 
L 388.181982 67.599395 
L 390.905594 67.280104 
L 393.629206 60.325866 
L 396.352818 60.037637 
L 399.07643 68.117018 
L 401.800042 62.121508 
L 404.523654 57.603128 
L 407.247266 54.916167 
L 409.970878 57.787919 
L 412.69449 62.169337 
L 415.418102 62.223027 
L 418.141714 71.82027 
L 420.865326 68.706325 
L 423.588938 69.153457 
L 426.31255 69.791871 
L 429.036162 76.027166 
L 431.759773 74.729641 
L 434.483385 79.482216 
L 437.206997 96.00572 
L 439.930609 88.868807 
L 442.654221 88.437455 
L 445.377833 82.841851 
L 448.101445 80.440953 
L 450.825057 78.659058 
L 453.548669 78.185742 
L 456.272281 78.048327 
L 458.995893 80.651967 
L 461.719505 81.511922 
L 464.443117 82.943086 
L 467.166729 72.348177 
L 469.890341 70.545068 
L 469.890341 70.545068 
" clip-path="url(#pf43c6eb64b)" style="fill: none; stroke: #d62728; stroke-width: 1.5; stroke-linecap: square"/>
   </g>
   <g id="line2d_37">
    <path d="M 64.072159 286.918125 
L 115.820786 286.918125 
L 118.544398 272.034905 
L 121.26801 259.524675 
L 123.991622 254.773722 
L 126.715234 251.3939 
L 132.162458 249.923539 
L 134.88607 251.570051 
L 137.609682 252.10951 
L 140.333294 253.577537 
L 143.056906 254.894913 
L 145.780518 256.820884 
L 148.50413 259.068464 
L 151.227742 261.086673 
L 156.674966 264.701344 
L 159.398578 265.459836 
L 164.845802 268.252076 
L 167.569414 269.015171 
L 170.293025 269.89413 
L 175.740249 267.392896 
L 181.187473 265.490531 
L 183.911085 264.663049 
L 186.634697 263.487172 
L 189.358309 262.607361 
L 194.805533 260.495785 
L 197.529145 259.472316 
L 200.252757 258.321459 
L 205.699981 255.150243 
L 208.423593 253.932528 
L 213.870817 250.415526 
L 216.594429 248.489973 
L 222.041653 243.738351 
L 224.765265 241.196972 
L 227.488877 235.852853 
L 232.936101 223.18602 
L 238.383324 210.69561 
L 243.830548 197.409601 
L 246.55416 189.70207 
L 249.277772 181.537031 
L 257.448608 158.602333 
L 262.895832 141.949961 
L 265.619444 132.503427 
L 268.343056 124.052094 
L 273.79028 109.793611 
L 279.237504 97.547658 
L 281.961116 89.581512 
L 284.684728 83.978464 
L 287.40834 80.333994 
L 290.131952 77.460266 
L 295.579176 67.271527 
L 298.302788 64.800298 
L 301.026399 63.48165 
L 303.750011 63.775486 
L 306.473623 63.607019 
L 309.197235 59.479064 
L 311.920847 62.339316 
L 314.644459 61.442365 
L 317.368071 65.276466 
L 320.091683 63.799573 
L 322.815295 65.263818 
L 325.538907 62.728949 
L 328.262519 64.665365 
L 330.986131 64.181155 
L 333.709743 62.21319 
L 336.433355 63.305895 
L 339.156967 65.540376 
L 341.880579 64.772512 
L 344.604191 66.60357 
L 347.327803 67.895106 
L 350.051415 65.747397 
L 352.775027 66.114446 
L 355.498639 68.242496 
L 358.222251 67.084851 
L 360.945863 66.916026 
L 363.669475 71.552377 
L 366.393086 77.242723 
L 369.116698 69.405805 
L 371.84031 70.105732 
L 374.563922 68.230918 
L 380.011146 57.46355 
L 382.734758 53.938091 
L 385.45837 58.251144 
L 388.181982 54.11044 
L 390.905594 53.79029 
L 393.629206 44.933835 
L 396.352818 44.520671 
L 399.07643 47.316784 
L 401.800042 44.081477 
L 404.523654 45.482421 
L 409.970878 40.594482 
L 412.69449 38.401562 
L 415.418102 34.918125 
L 418.141714 36.824025 
L 420.865326 36.630162 
L 423.588938 35.152618 
L 426.31255 35.734187 
L 429.036162 38.934317 
L 431.759773 43.278147 
L 434.483385 46.926882 
L 437.206997 55.378248 
L 439.930609 60.834667 
L 442.654221 60.330648 
L 445.377833 55.259162 
L 448.101445 54.473428 
L 450.825057 59.029508 
L 453.548669 63.210951 
L 456.272281 61.953785 
L 458.995893 69.44185 
L 461.719505 74.211793 
L 464.443117 82.445586 
L 467.166729 74.872529 
L 469.890341 85.543655 
L 469.890341 85.543655 
" clip-path="url(#pf43c6eb64b)" style="fill: none; stroke: #9467bd; stroke-width: 1.5; stroke-linecap: square"/>
   </g>
   <g id="line2d_38">
    <path d="M 64.072159 286.918125 
L 115.820786 286.918125 
L 118.544398 265.618902 
L 121.26801 257.284424 
L 123.991622 247.798132 
L 126.715234 239.862237 
L 129.438846 237.253974 
L 132.162458 237.349025 
L 134.88607 238.234187 
L 137.609682 242.487801 
L 140.333294 242.892937 
L 143.056906 245.663966 
L 145.780518 248.897654 
L 148.50413 250.09834 
L 151.227742 252.490275 
L 153.951354 254.674297 
L 159.398578 260.196078 
L 164.845802 263.344462 
L 167.569414 264.542891 
L 170.293025 265.364486 
L 173.016637 264.1003 
L 186.634697 260.539098 
L 189.358309 259.550669 
L 192.081921 258.86731 
L 194.805533 258.592501 
L 197.529145 257.694029 
L 200.252757 257.013375 
L 205.699981 255.143581 
L 208.423593 254.121591 
L 211.147205 252.682564 
L 213.870817 251.0039 
L 216.594429 249.547958 
L 219.318041 247.295705 
L 222.041653 245.373414 
L 224.765265 243.071104 
L 227.488877 239.178242 
L 230.212489 233.745039 
L 232.936101 229.226382 
L 235.659712 224.004145 
L 238.383324 219.29357 
L 246.55416 202.686188 
L 252.001384 192.976378 
L 257.448608 180.223733 
L 260.17222 175.473561 
L 262.895832 171.075407 
L 265.619444 167.024976 
L 268.343056 163.212302 
L 271.066668 159.787263 
L 273.79028 156.077126 
L 276.513892 154.709771 
L 279.237504 153.095345 
L 281.961116 149.482588 
L 284.684728 147.219893 
L 290.131952 144.649009 
L 292.855564 143.757585 
L 295.579176 144.108269 
L 298.302788 142.978172 
L 301.026399 144.476761 
L 303.750011 144.278187 
L 306.473623 145.39393 
L 309.197235 143.506627 
L 311.920847 143.324316 
L 314.644459 143.492141 
L 320.091683 141.959216 
L 322.815295 140.528535 
L 325.538907 139.801017 
L 328.262519 137.162963 
L 330.986131 135.650769 
L 333.709743 131.727214 
L 336.433355 127.281365 
L 339.156967 124.175762 
L 341.880579 119.440618 
L 344.604191 116.307465 
L 347.327803 110.50686 
L 350.051415 105.692859 
L 352.775027 102.058533 
L 358.222251 90.858721 
L 360.945863 87.26085 
L 363.669475 82.652752 
L 366.393086 79.472712 
L 369.116698 75.450352 
L 371.84031 71.963531 
L 374.563922 67.858944 
L 377.287534 67.160462 
L 380.011146 60.967378 
L 382.734758 60.938104 
L 385.45837 60.266833 
L 388.181982 58.799102 
L 390.905594 56.775873 
L 396.352818 58.615453 
L 399.07643 56.886519 
L 401.800042 57.634707 
L 404.523654 55.962697 
L 407.247266 58.260662 
L 409.970878 62.580582 
L 412.69449 64.797659 
L 415.418102 63.336003 
L 418.141714 64.979403 
L 420.865326 71.611696 
L 423.588938 77.365523 
L 426.31255 77.483369 
L 429.036162 76.276805 
L 431.759773 75.312823 
L 437.206997 79.519632 
L 439.930609 82.445586 
L 442.654221 82.445586 
L 445.377833 83.011992 
L 448.101445 78.879205 
L 450.825057 80.788261 
L 453.548669 73.925897 
L 456.272281 74.06742 
L 458.995893 75.84209 
L 461.719505 75.271111 
L 464.443117 86.096881 
L 467.166729 92.562717 
L 469.890341 93.942034 
L 469.890341 93.942034 
" clip-path="url(#pf43c6eb64b)" style="fill: none; stroke: #8c564b; stroke-width: 1.5; stroke-linecap: square"/>
   </g>
   <g id="patch_3">
    <path d="M 43.78125 299.518125 
L 43.78125 22.318125 
" style="fill: none; stroke: #000000; stroke-width: 0.8; stroke-linejoin: miter; stroke-linecap: square"/>
   </g>
   <g id="patch_4">
    <path d="M 490.18125 299.518125 
L 490.18125 22.318125 
" style="fill: none; stroke: #000000; stroke-width: 0.8; stroke-linejoin: miter; stroke-linecap: square"/>
   </g>
   <g id="patch_5">
    <path d="M 43.78125 299.518125 
L 490.18125 299.518125 
" style="fill: none; stroke: #000000; stroke-width: 0.8; stroke-linejoin: miter; stroke-linecap: square"/>
   </g>
   <g id="patch_6">
    <path d="M 43.78125 22.318125 
L 490.18125 22.318125 
" style="fill: none; stroke: #000000; stroke-width: 0.8; stroke-linejoin: miter; stroke-linecap: square"/>
   </g>
   <g id="text_19">
    <!-- Detection Ratio: SBM-5k-Med (Peak 100) -->
    <g transform="translate(145.004062 16.318125) scale(0.12 -0.12)">
     <defs>
      <path id="DejaVuSans-3a" d="M 750 794 
L 1409 794 
L 1409 0 
L 750 0 
L 750 794 
z
M 750 3309 
L 1409 3309 
L 1409 2516 
L 750 2516 
L 750 3309 
z
" transform="scale(0.015625)"/>
      <path id="DejaVuSans-42" d="M 1259 2228 
L 1259 519 
L 2272 519 
Q 2781 519 3026 730 
Q 3272 941 3272 1375 
Q 3272 1813 3026 2020 
Q 2781 2228 2272 2228 
L 1259 2228 
z
M 1259 4147 
L 1259 2741 
L 2194 2741 
Q 2656 2741 2882 2914 
Q 3109 3088 3109 3444 
Q 3109 3797 2882 3972 
Q 2656 4147 2194 4147 
L 1259 4147 
z
M 628 4666 
L 2241 4666 
Q 2963 4666 3353 4366 
Q 3744 4066 3744 3513 
Q 3744 3084 3544 2831 
Q 3344 2578 2956 2516 
Q 3422 2416 3680 2098 
Q 3938 1781 3938 1306 
Q 3938 681 3513 340 
Q 3088 0 2303 0 
L 628 0 
L 628 4666 
z
" transform="scale(0.015625)"/>
      <path id="DejaVuSans-4d" d="M 628 4666 
L 1569 4666 
L 2759 1491 
L 3956 4666 
L 4897 4666 
L 4897 0 
L 4281 0 
L 4281 4097 
L 3078 897 
L 2444 897 
L 1241 4097 
L 1241 0 
L 628 0 
L 628 4666 
z
" transform="scale(0.015625)"/>
      <path id="DejaVuSans-2d" d="M 313 2009 
L 1997 2009 
L 1997 1497 
L 313 1497 
L 313 2009 
z
" transform="scale(0.015625)"/>
      <path id="DejaVuSans-6b" d="M 581 4863 
L 1159 4863 
L 1159 1991 
L 2875 3500 
L 3609 3500 
L 1753 1863 
L 3688 0 
L 2938 0 
L 1159 1709 
L 1159 0 
L 581 0 
L 581 4863 
z
" transform="scale(0.015625)"/>
      <path id="DejaVuSans-64" d="M 2906 2969 
L 2906 4863 
L 3481 4863 
L 3481 0 
L 2906 0 
L 2906 525 
Q 2725 213 2448 61 
Q 2172 -91 1784 -91 
Q 1150 -91 751 415 
Q 353 922 353 1747 
Q 353 2572 751 3078 
Q 1150 3584 1784 3584 
Q 2172 3584 2448 3432 
Q 2725 3281 2906 2969 
z
M 947 1747 
Q 947 1113 1208 752 
Q 1469 391 1925 391 
Q 2381 391 2643 752 
Q 2906 1113 2906 1747 
Q 2906 2381 2643 2742 
Q 2381 3103 1925 3103 
Q 1469 3103 1208 2742 
Q 947 2381 947 1747 
z
" transform="scale(0.015625)"/>
      <path id="DejaVuSans-50" d="M 1259 4147 
L 1259 2394 
L 2053 2394 
Q 2494 2394 2734 2622 
Q 2975 2850 2975 3272 
Q 2975 3691 2734 3919 
Q 2494 4147 2053 4147 
L 1259 4147 
z
M 628 4666 
L 2053 4666 
Q 2838 4666 3239 4311 
Q 3641 3956 3641 3272 
Q 3641 2581 3239 2228 
Q 2838 1875 2053 1875 
L 1259 1875 
L 1259 0 
L 628 0 
L 628 4666 
z
" transform="scale(0.015625)"/>
     </defs>
     <use xlink:href="#DejaVuSans-44"/>
     <use xlink:href="#DejaVuSans-65" transform="translate(77.001953 0)"/>
     <use xlink:href="#DejaVuSans-74" transform="translate(138.525391 0)"/>
     <use xlink:href="#DejaVuSans-65" transform="translate(177.734375 0)"/>
     <use xlink:href="#DejaVuSans-63" transform="translate(239.257812 0)"/>
     <use xlink:href="#DejaVuSans-74" transform="translate(294.238281 0)"/>
     <use xlink:href="#DejaVuSans-69" transform="translate(333.447266 0)"/>
     <use xlink:href="#DejaVuSans-6f" transform="translate(361.230469 0)"/>
     <use xlink:href="#DejaVuSans-6e" transform="translate(422.412109 0)"/>
     <use xlink:href="#DejaVuSans-20" transform="translate(485.791016 0)"/>
     <use xlink:href="#DejaVuSans-52" transform="translate(517.578125 0)"/>
     <use xlink:href="#DejaVuSans-61" transform="translate(584.810547 0)"/>
     <use xlink:href="#DejaVuSans-74" transform="translate(646.089844 0)"/>
     <use xlink:href="#DejaVuSans-69" transform="translate(685.298828 0)"/>
     <use xlink:href="#DejaVuSans-6f" transform="translate(713.082031 0)"/>
     <use xlink:href="#DejaVuSans-3a" transform="translate(774.263672 0)"/>
     <use xlink:href="#DejaVuSans-20" transform="translate(807.955078 0)"/>
     <use xlink:href="#DejaVuSans-53" transform="translate(839.742188 0)"/>
     <use xlink:href="#DejaVuSans-42" transform="translate(903.21875 0)"/>
     <use xlink:href="#DejaVuSans-4d" transform="translate(971.822266 0)"/>
     <use xlink:href="#DejaVuSans-2d" transform="translate(1058.101562 0)"/>
     <use xlink:href="#DejaVuSans-35" transform="translate(1094.185547 0)"/>
     <use xlink:href="#DejaVuSans-6b" transform="translate(1157.808594 0)"/>
     <use xlink:href="#DejaVuSans-2d" transform="translate(1215.71875 0)"/>
     <use xlink:href="#DejaVuSans-4d" transform="translate(1251.802734 0)"/>
     <use xlink:href="#DejaVuSans-65" transform="translate(1338.082031 0)"/>
     <use xlink:href="#DejaVuSans-64" transform="translate(1399.605469 0)"/>
     <use xlink:href="#DejaVuSans-20" transform="translate(1463.082031 0)"/>
     <use xlink:href="#DejaVuSans-28" transform="translate(1494.869141 0)"/>
     <use xlink:href="#DejaVuSans-50" transform="translate(1533.882812 0)"/>
     <use xlink:href="#DejaVuSans-65" transform="translate(1590.560547 0)"/>
     <use xlink:href="#DejaVuSans-61" transform="translate(1652.083984 0)"/>
     <use xlink:href="#DejaVuSans-6b" transform="translate(1713.363281 0)"/>
     <use xlink:href="#DejaVuSans-20" transform="translate(1771.273438 0)"/>
     <use xlink:href="#DejaVuSans-31" transform="translate(1803.060547 0)"/>
     <use xlink:href="#DejaVuSans-30" transform="translate(1866.683594 0)"/>
     <use xlink:href="#DejaVuSans-30" transform="translate(1930.306641 0)"/>
     <use xlink:href="#DejaVuSans-29" transform="translate(1993.929688 0)"/>
    </g>
   </g>
   <g id="legend_1">
    <g id="patch_7">
     <path d="M 50.08125 108.78 
L 156.426094 108.78 
Q 158.226094 108.78 158.226094 106.98 
L 158.226094 28.618125 
Q 158.226094 26.818125 156.426094 26.818125 
L 50.08125 26.818125 
Q 48.28125 26.818125 48.28125 28.618125 
L 48.28125 106.98 
Q 48.28125 108.78 50.08125 108.78 
z
" style="fill: #ffffff; opacity: 0.8; stroke: #cccccc; stroke-linejoin: miter"/>
    </g>
    <g id="line2d_39">
     <path d="M 51.88125 34.106719 
L 60.88125 34.106719 
L 69.88125 34.106719 
" style="fill: none; stroke: #1f77b4; stroke-width: 1.5; stroke-linecap: square"/>
    </g>
    <g id="text_20">
     <!-- LocalGNTS-14 -->
     <g transform="translate(77.08125 37.256719) scale(0.09 -0.09)">
      <defs>
       <path id="DejaVuSans-4c" d="M 628 4666 
L 1259 4666 
L 1259 531 
L 3531 531 
L 3531 0 
L 628 0 
L 628 4666 
z
" transform="scale(0.015625)"/>
       <path id="DejaVuSans-47" d="M 3809 666 
L 3809 1919 
L 2778 1919 
L 2778 2438 
L 4434 2438 
L 4434 434 
Q 4069 175 3628 42 
Q 3188 -91 2688 -91 
Q 1594 -91 976 548 
Q 359 1188 359 2328 
Q 359 3472 976 4111 
Q 1594 4750 2688 4750 
Q 3144 4750 3555 4637 
Q 3966 4525 4313 4306 
L 4313 3634 
Q 3963 3931 3569 4081 
Q 3175 4231 2741 4231 
Q 1884 4231 1454 3753 
Q 1025 3275 1025 2328 
Q 1025 1384 1454 906 
Q 1884 428 2741 428 
Q 3075 428 3337 486 
Q 3600 544 3809 666 
z
" transform="scale(0.015625)"/>
       <path id="DejaVuSans-4e" d="M 628 4666 
L 1478 4666 
L 3547 763 
L 3547 4666 
L 4159 4666 
L 4159 0 
L 3309 0 
L 1241 3903 
L 1241 0 
L 628 0 
L 628 4666 
z
" transform="scale(0.015625)"/>
       <path id="DejaVuSans-54" d="M -19 4666 
L 3928 4666 
L 3928 4134 
L 2272 4134 
L 2272 0 
L 1638 0 
L 1638 4134 
L -19 4134 
L -19 4666 
z
" transform="scale(0.015625)"/>
      </defs>
      <use xlink:href="#DejaVuSans-4c"/>
      <use xlink:href="#DejaVuSans-6f" transform="translate(53.962891 0)"/>
      <use xlink:href="#DejaVuSans-63" transform="translate(115.144531 0)"/>
      <use xlink:href="#DejaVuSans-61" transform="translate(170.125 0)"/>
      <use xlink:href="#DejaVuSans-6c" transform="translate(231.404297 0)"/>
      <use xlink:href="#DejaVuSans-47" transform="translate(259.1875 0)"/>
      <use xlink:href="#DejaVuSans-4e" transform="translate(336.677734 0)"/>
      <use xlink:href="#DejaVuSans-54" transform="translate(411.482422 0)"/>
      <use xlink:href="#DejaVuSans-53" transform="translate(472.566406 0)"/>
      <use xlink:href="#DejaVuSans-2d" transform="translate(536.042969 0)"/>
      <use xlink:href="#DejaVuSans-31" transform="translate(572.126953 0)"/>
      <use xlink:href="#DejaVuSans-34" transform="translate(635.75 0)"/>
     </g>
    </g>
    <g id="line2d_40">
     <path d="M 51.88125 47.317031 
L 60.88125 47.317031 
L 69.88125 47.317031 
" style="fill: none; stroke: #ff7f0e; stroke-width: 1.5; stroke-linecap: square"/>
    </g>
    <g id="text_21">
     <!-- GlobalGNTS-14 -->
     <g transform="translate(77.08125 50.467031) scale(0.09 -0.09)">
      <defs>
       <path id="DejaVuSans-62" d="M 3116 1747 
Q 3116 2381 2855 2742 
Q 2594 3103 2138 3103 
Q 1681 3103 1420 2742 
Q 1159 2381 1159 1747 
Q 1159 1113 1420 752 
Q 1681 391 2138 391 
Q 2594 391 2855 752 
Q 3116 1113 3116 1747 
z
M 1159 2969 
Q 1341 3281 1617 3432 
Q 1894 3584 2278 3584 
Q 2916 3584 3314 3078 
Q 3713 2572 3713 1747 
Q 3713 922 3314 415 
Q 2916 -91 2278 -91 
Q 1894 -91 1617 61 
Q 1341 213 1159 525 
L 1159 0 
L 581 0 
L 581 4863 
L 1159 4863 
L 1159 2969 
z
" transform="scale(0.015625)"/>
      </defs>
      <use xlink:href="#DejaVuSans-47"/>
      <use xlink:href="#DejaVuSans-6c" transform="translate(77.490234 0)"/>
      <use xlink:href="#DejaVuSans-6f" transform="translate(105.273438 0)"/>
      <use xlink:href="#DejaVuSans-62" transform="translate(166.455078 0)"/>
      <use xlink:href="#DejaVuSans-61" transform="translate(229.931641 0)"/>
      <use xlink:href="#DejaVuSans-6c" transform="translate(291.210938 0)"/>
      <use xlink:href="#DejaVuSans-47" transform="translate(318.994141 0)"/>
      <use xlink:href="#DejaVuSans-4e" transform="translate(396.484375 0)"/>
      <use xlink:href="#DejaVuSans-54" transform="translate(471.289062 0)"/>
      <use xlink:href="#DejaVuSans-53" transform="translate(532.373047 0)"/>
      <use xlink:href="#DejaVuSans-2d" transform="translate(595.849609 0)"/>
      <use xlink:href="#DejaVuSans-31" transform="translate(631.933594 0)"/>
      <use xlink:href="#DejaVuSans-34" transform="translate(695.556641 0)"/>
     </g>
    </g>
    <g id="line2d_41">
     <path d="M 51.88125 60.527344 
L 60.88125 60.527344 
L 69.88125 60.527344 
" style="fill: none; stroke: #2ca02c; stroke-width: 1.5; stroke-linecap: square"/>
    </g>
    <g id="text_22">
     <!-- Beta-Binomial-14 -->
     <g transform="translate(77.08125 63.677344) scale(0.09 -0.09)">
      <use xlink:href="#DejaVuSans-42"/>
      <use xlink:href="#DejaVuSans-65" transform="translate(68.603516 0)"/>
      <use xlink:href="#DejaVuSans-74" transform="translate(130.126953 0)"/>
      <use xlink:href="#DejaVuSans-61" transform="translate(169.335938 0)"/>
      <use xlink:href="#DejaVuSans-2d" transform="translate(230.615234 0)"/>
      <use xlink:href="#DejaVuSans-42" transform="translate(263.074219 0)"/>
      <use xlink:href="#DejaVuSans-69" transform="translate(331.677734 0)"/>
      <use xlink:href="#DejaVuSans-6e" transform="translate(359.460938 0)"/>
      <use xlink:href="#DejaVuSans-6f" transform="translate(422.839844 0)"/>
      <use xlink:href="#DejaVuSans-6d" transform="translate(484.021484 0)"/>
      <use xlink:href="#DejaVuSans-69" transform="translate(581.433594 0)"/>
      <use xlink:href="#DejaVuSans-61" transform="translate(609.216797 0)"/>
      <use xlink:href="#DejaVuSans-6c" transform="translate(670.496094 0)"/>
      <use xlink:href="#DejaVuSans-2d" transform="translate(698.279297 0)"/>
      <use xlink:href="#DejaVuSans-31" transform="translate(734.363281 0)"/>
      <use xlink:href="#DejaVuSans-34" transform="translate(797.986328 0)"/>
     </g>
    </g>
    <g id="line2d_42">
     <path d="M 51.88125 73.737656 
L 60.88125 73.737656 
L 69.88125 73.737656 
" style="fill: none; stroke: #d62728; stroke-width: 1.5; stroke-linecap: square"/>
    </g>
    <g id="text_23">
     <!-- Proportional -->
     <g transform="translate(77.08125 76.887656) scale(0.09 -0.09)">
      <defs>
       <path id="DejaVuSans-72" d="M 2631 2963 
Q 2534 3019 2420 3045 
Q 2306 3072 2169 3072 
Q 1681 3072 1420 2755 
Q 1159 2438 1159 1844 
L 1159 0 
L 581 0 
L 581 3500 
L 1159 3500 
L 1159 2956 
Q 1341 3275 1631 3429 
Q 1922 3584 2338 3584 
Q 2397 3584 2469 3576 
Q 2541 3569 2628 3553 
L 2631 2963 
z
" transform="scale(0.015625)"/>
       <path id="DejaVuSans-70" d="M 1159 525 
L 1159 -1331 
L 581 -1331 
L 581 3500 
L 1159 3500 
L 1159 2969 
Q 1341 3281 1617 3432 
Q 1894 3584 2278 3584 
Q 2916 3584 3314 3078 
Q 3713 2572 3713 1747 
Q 3713 922 3314 415 
Q 2916 -91 2278 -91 
Q 1894 -91 1617 61 
Q 1341 213 1159 525 
z
M 3116 1747 
Q 3116 2381 2855 2742 
Q 2594 3103 2138 3103 
Q 1681 3103 1420 2742 
Q 1159 2381 1159 1747 
Q 1159 1113 1420 752 
Q 1681 391 2138 391 
Q 2594 391 2855 752 
Q 3116 1113 3116 1747 
z
" transform="scale(0.015625)"/>
      </defs>
      <use xlink:href="#DejaVuSans-50"/>
      <use xlink:href="#DejaVuSans-72" transform="translate(58.552734 0)"/>
      <use xlink:href="#DejaVuSans-6f" transform="translate(97.416016 0)"/>
      <use xlink:href="#DejaVuSans-70" transform="translate(158.597656 0)"/>
      <use xlink:href="#DejaVuSans-6f" transform="translate(222.074219 0)"/>
      <use xlink:href="#DejaVuSans-72" transform="translate(283.255859 0)"/>
      <use xlink:href="#DejaVuSans-74" transform="translate(324.369141 0)"/>
      <use xlink:href="#DejaVuSans-69" transform="translate(363.578125 0)"/>
      <use xlink:href="#DejaVuSans-6f" transform="translate(391.361328 0)"/>
      <use xlink:href="#DejaVuSans-6e" transform="translate(452.542969 0)"/>
      <use xlink:href="#DejaVuSans-61" transform="translate(515.921875 0)"/>
      <use xlink:href="#DejaVuSans-6c" transform="translate(577.201172 0)"/>
     </g>
    </g>
    <g id="line2d_43">
     <path d="M 51.88125 86.947969 
L 60.88125 86.947969 
L 69.88125 86.947969 
" style="fill: none; stroke: #9467bd; stroke-width: 1.5; stroke-linecap: square"/>
    </g>
    <g id="text_24">
     <!-- Uniform -->
     <g transform="translate(77.08125 90.097969) scale(0.09 -0.09)">
      <defs>
       <path id="DejaVuSans-55" d="M 556 4666 
L 1191 4666 
L 1191 1831 
Q 1191 1081 1462 751 
Q 1734 422 2344 422 
Q 2950 422 3222 751 
Q 3494 1081 3494 1831 
L 3494 4666 
L 4128 4666 
L 4128 1753 
Q 4128 841 3676 375 
Q 3225 -91 2344 -91 
Q 1459 -91 1007 375 
Q 556 841 556 1753 
L 556 4666 
z
" transform="scale(0.015625)"/>
      </defs>
      <use xlink:href="#DejaVuSans-55"/>
      <use xlink:href="#DejaVuSans-6e" transform="translate(73.193359 0)"/>
      <use xlink:href="#DejaVuSans-69" transform="translate(136.572266 0)"/>
      <use xlink:href="#DejaVuSans-66" transform="translate(164.355469 0)"/>
      <use xlink:href="#DejaVuSans-6f" transform="translate(199.560547 0)"/>
      <use xlink:href="#DejaVuSans-72" transform="translate(260.742188 0)"/>
      <use xlink:href="#DejaVuSans-6d" transform="translate(300.105469 0)"/>
     </g>
    </g>
    <g id="line2d_44">
     <path d="M 51.88125 100.158281 
L 60.88125 100.158281 
L 69.88125 100.158281 
" style="fill: none; stroke: #8c564b; stroke-width: 1.5; stroke-linecap: square"/>
    </g>
    <g id="text_25">
     <!-- Random -->
     <g transform="translate(77.08125 103.308281) scale(0.09 -0.09)">
      <use xlink:href="#DejaVuSans-52"/>
      <use xlink:href="#DejaVuSans-61" transform="translate(67.232422 0)"/>
      <use xlink:href="#DejaVuSans-6e" transform="translate(128.511719 0)"/>
      <use xlink:href="#DejaVuSans-64" transform="translate(191.890625 0)"/>
      <use xlink:href="#DejaVuSans-6f" transform="translate(255.367188 0)"/>
      <use xlink:href="#DejaVuSans-6d" transform="translate(316.548828 0)"/>
     </g>
    </g>
   </g>
  </g>
 </g>
 <defs>
  <clipPath id="pf43c6eb64b">
   <rect x="43.78125" y="22.318125" width="446.4" height="277.2"/>
  </clipPath>
 </defs>
</svg>
