<?xml version="1.0" encoding="utf-8" standalone="no"?>
<!DOCTYPE svg PUBLIC "-//W3C//DTD SVG 1.1//EN"
  "http://www.w3.org/Graphics/SVG/1.1/DTD/svg11.dtd">
<svg xmlns:xlink="http://www.w3.org/1999/xlink" width="497.38125pt" height="337.074375pt" viewBox="0 0 497.38125 337.074375" xmlns="http://www.w3.org/2000/svg" version="1.1">
 <metadata>
  <rdf:RDF xmlns:dc="http://purl.org/dc/elements/1.1/" xmlns:cc="http://creativecommons.org/ns#" xmlns:rdf="http://www.w3.org/1999/02/22-rdf-syntax-ns#">
   <cc:Work>
    <dc:type rdf:resource="http://purl.org/dc/dcmitype/StillImage"/>
    <dc:date>2026-07-01T17:14:03.458525</dc:date>
    <dc:format>image/svg+xml</dc:format>
    <dc:creator>
     <cc:Agent>
      <dc:title>Matplotlib v3.10.8, https://matplotlib.org/</dc:title>
     </cc:Agent>
    </dc:creator>
   </cc:Work>
  </rdf:RDF>
 </metadata>
 <defs>
  <style type="text/css">*{stroke-linejoin: round; stroke-linecap: butt}</style>
 </defs>
 <g id="figure_1">
  <g id="patch_1">
   <path d="M 0 337.074375 
L 497.38125 337.074375 
L 497.38125 0 
L 0 0 
z
" style="fill: #ffffff"/>
  </g>
  <g id="axes_1">
   <g id="patch_2">
    <path d="M 43.78125 299.518125 
L 490.18125 299.518125 
L 490.18125 22.318125 
L 43.78125 22.318125 
z
" style="fill: #ffffff"/>
   </g>
   <g id="matplotlib.axis_1">
    <g id="xtick_1">
     <g id="line2d_1">
      <path d="M 64.072159 299.518125 
L 64.072159 22.318125 
" clip-path="url(#p6f191e51c2)" style="fill: none; stroke-dasharray: 1.85,0.8; stroke-dashoffset: 0; stroke: #b0b0b0; stroke-opacity: 0.6; stroke-width: 0.5"/>
     </g>
     <g id="line2d_2">
      <defs>
       <path id="mf94e4fef43" d="M 0 0 
L 0 3.5 
" style="stroke: #000000; stroke-width: 0.8"/>
      </defs>
      <g>
       <use xlink:href="#mf94e4fef43" x="64.072159" y="299.518125" style="stroke: #000000; stroke-width: 0.8"/>
      </g>
     </g>
     <g id="text_1">
      <!-- 0 -->
      <g transform="translate(60.890909 314.116563) scale(0.1 -0.1)">
       <defs>
        <path id="DejaVuSans-30" d="M 2034 4250 
Q 1547 4250 1301 3770 
Q 1056 3291 1056 2328 
Q 1056 1369 1301 889 
Q 1547 409 2034 409 
Q 2525 409 2770 889 
Q 3016 1369 3016 2328 
Q 3016 3291 2770 3770 
Q 2525 4250 2034 4250 
z
M 2034 4750 
Q 2819 4750 3233 4129 
Q 3647 3509 3647 2328 
Q 3647 1150 3233 529 
Q 2819 -91 2034 -91 
Q 1250 -91 836 529 
Q 422 1150 422 2328 
Q 422 3509 836 4129 
Q 1250 4750 2034 4750 
z
" transform="scale(0.015625)"/>
       </defs>
       <use xlink:href="#DejaVuSans-30"/>
      </g>
     </g>
    </g>
    <g id="xtick_2">
     <g id="line2d_3">
      <path d="M 118.544398 299.518125 
L 118.544398 22.318125 
" clip-path="url(#p6f191e51c2)" style="fill: none; stroke-dasharray: 1.85,0.8; stroke-dashoffset: 0; stroke: #b0b0b0; stroke-opacity: 0.6; stroke-width: 0.5"/>
     </g>
     <g id="line2d_4">
      <g>
       <use xlink:href="#mf94e4fef43" x="118.544398" y="299.518125" style="stroke: #000000; stroke-width: 0.8"/>
      </g>
     </g>
     <g id="text_2">
      <!-- 20 -->
      <g transform="translate(112.181898 314.116563) scale(0.1 -0.1)">
       <defs>
        <path id="DejaVuSans-32" d="M 1228 531 
L 3431 531 
L 3431 0 
L 469 0 
L 469 531 
Q 828 903 1448 1529 
Q 2069 2156 2228 2338 
Q 2531 2678 2651 2914 
Q 2772 3150 2772 3378 
Q 2772 3750 2511 3984 
Q 2250 4219 1831 4219 
Q 1534 4219 1204 4116 
Q 875 4013 500 3803 
L 500 4441 
Q 881 4594 1212 4672 
Q 1544 4750 1819 4750 
Q 2544 4750 2975 4387 
Q 3406 4025 3406 3419 
Q 3406 3131 3298 2873 
Q 3191 2616 2906 2266 
Q 2828 2175 2409 1742 
Q 1991 1309 1228 531 
z
" transform="scale(0.015625)"/>
       </defs>
       <use xlink:href="#DejaVuSans-32"/>
       <use xlink:href="#DejaVuSans-30" transform="translate(63.623047 0)"/>
      </g>
     </g>
    </g>
    <g id="xtick_3">
     <g id="line2d_5">
      <path d="M 173.016637 299.518125 
L 173.016637 22.318125 
" clip-path="url(#p6f191e51c2)" style="fill: none; stroke-dasharray: 1.85,0.8; stroke-dashoffset: 0; stroke: #b0b0b0; stroke-opacity: 0.6; stroke-width: 0.5"/>
     </g>
     <g id="line2d_6">
      <g>
       <use xlink:href="#mf94e4fef43" x="173.016637" y="299.518125" style="stroke: #000000; stroke-width: 0.8"/>
      </g>
     </g>
     <g id="text_3">
      <!-- 40 -->
      <g transform="translate(166.654137 314.116563) scale(0.1 -0.1)">
       <defs>
        <path id="DejaVuSans-34" d="M 2419 4116 
L 825 1625 
L 2419 1625 
L 2419 4116 
z
M 2253 4666 
L 3047 4666 
L 3047 1625 
L 3713 1625 
L 3713 1100 
L 3047 1100 
L 3047 0 
L 2419 0 
L 2419 1100 
L 313 1100 
L 313 1709 
L 2253 4666 
z
" transform="scale(0.015625)"/>
       </defs>
       <use xlink:href="#DejaVuSans-34"/>
       <use xlink:href="#DejaVuSans-30" transform="translate(63.623047 0)"/>
      </g>
     </g>
    </g>
    <g id="xtick_4">
     <g id="line2d_7">
      <path d="M 227.488877 299.518125 
L 227.488877 22.318125 
" clip-path="url(#p6f191e51c2)" style="fill: none; stroke-dasharray: 1.85,0.8; stroke-dashoffset: 0; stroke: #b0b0b0; stroke-opacity: 0.6; stroke-width: 0.5"/>
     </g>
     <g id="line2d_8">
      <g>
       <use xlink:href="#mf94e4fef43" x="227.488877" y="299.518125" style="stroke: #000000; stroke-width: 0.8"/>
      </g>
     </g>
     <g id="text_4">
      <!-- 60 -->
      <g transform="translate(221.126377 314.116563) scale(0.1 -0.1)">
       <defs>
        <path id="DejaVuSans-36" d="M 2113 2584 
Q 1688 2584 1439 2293 
Q 1191 2003 1191 1497 
Q 1191 994 1439 701 
Q 1688 409 2113 409 
Q 2538 409 2786 701 
Q 3034 994 3034 1497 
Q 3034 2003 2786 2293 
Q 2538 2584 2113 2584 
z
M 3366 4563 
L 3366 3988 
Q 3128 4100 2886 4159 
Q 2644 4219 2406 4219 
Q 1781 4219 1451 3797 
Q 1122 3375 1075 2522 
Q 1259 2794 1537 2939 
Q 1816 3084 2150 3084 
Q 2853 3084 3261 2657 
Q 3669 2231 3669 1497 
Q 3669 778 3244 343 
Q 2819 -91 2113 -91 
Q 1303 -91 875 529 
Q 447 1150 447 2328 
Q 447 3434 972 4092 
Q 1497 4750 2381 4750 
Q 2619 4750 2861 4703 
Q 3103 4656 3366 4563 
z
" transform="scale(0.015625)"/>
       </defs>
       <use xlink:href="#DejaVuSans-36"/>
       <use xlink:href="#DejaVuSans-30" transform="translate(63.623047 0)"/>
      </g>
     </g>
    </g>
    <g id="xtick_5">
     <g id="line2d_9">
      <path d="M 281.961116 299.518125 
L 281.961116 22.318125 
" clip-path="url(#p6f191e51c2)" style="fill: none; stroke-dasharray: 1.85,0.8; stroke-dashoffset: 0; stroke: #b0b0b0; stroke-opacity: 0.6; stroke-width: 0.5"/>
     </g>
     <g id="line2d_10">
      <g>
       <use xlink:href="#mf94e4fef43" x="281.961116" y="299.518125" style="stroke: #000000; stroke-width: 0.8"/>
      </g>
     </g>
     <g id="text_5">
      <!-- 80 -->
      <g transform="translate(275.598616 314.116563) scale(0.1 -0.1)">
       <defs>
        <path id="DejaVuSans-38" d="M 2034 2216 
Q 1584 2216 1326 1975 
Q 1069 1734 1069 1313 
Q 1069 891 1326 650 
Q 1584 409 2034 409 
Q 2484 409 2743 651 
Q 3003 894 3003 1313 
Q 3003 1734 2745 1975 
Q 2488 2216 2034 2216 
z
M 1403 2484 
Q 997 2584 770 2862 
Q 544 3141 544 3541 
Q 544 4100 942 4425 
Q 1341 4750 2034 4750 
Q 2731 4750 3128 4425 
Q 3525 4100 3525 3541 
Q 3525 3141 3298 2862 
Q 3072 2584 2669 2484 
Q 3125 2378 3379 2068 
Q 3634 1759 3634 1313 
Q 3634 634 3220 271 
Q 2806 -91 2034 -91 
Q 1263 -91 848 271 
Q 434 634 434 1313 
Q 434 1759 690 2068 
Q 947 2378 1403 2484 
z
M 1172 3481 
Q 1172 3119 1398 2916 
Q 1625 2713 2034 2713 
Q 2441 2713 2670 2916 
Q 2900 3119 2900 3481 
Q 2900 3844 2670 4047 
Q 2441 4250 2034 4250 
Q 1625 4250 1398 4047 
Q 1172 3844 1172 3481 
z
" transform="scale(0.015625)"/>
       </defs>
       <use xlink:href="#DejaVuSans-38"/>
       <use xlink:href="#DejaVuSans-30" transform="translate(63.623047 0)"/>
      </g>
     </g>
    </g>
    <g id="xtick_6">
     <g id="line2d_11">
      <path d="M 336.433355 299.518125 
L 336.433355 22.318125 
" clip-path="url(#p6f191e51c2)" style="fill: none; stroke-dasharray: 1.85,0.8; stroke-dashoffset: 0; stroke: #b0b0b0; stroke-opacity: 0.6; stroke-width: 0.5"/>
     </g>
     <g id="line2d_12">
      <g>
       <use xlink:href="#mf94e4fef43" x="336.433355" y="299.518125" style="stroke: #000000; stroke-width: 0.8"/>
      </g>
     </g>
     <g id="text_6">
      <!-- 100 -->
      <g transform="translate(326.889605 314.116563) scale(0.1 -0.1)">
       <defs>
        <path id="DejaVuSans-31" d="M 794 531 
L 1825 531 
L 1825 4091 
L 703 3866 
L 703 4441 
L 1819 4666 
L 2450 4666 
L 2450 531 
L 3481 531 
L 3481 0 
L 794 0 
L 794 531 
z
" transform="scale(0.015625)"/>
       </defs>
       <use xlink:href="#DejaVuSans-31"/>
       <use xlink:href="#DejaVuSans-30" transform="translate(63.623047 0)"/>
       <use xlink:href="#DejaVuSans-30" transform="translate(127.246094 0)"/>
      </g>
     </g>
    </g>
    <g id="xtick_7">
     <g id="line2d_13">
      <path d="M 390.905594 299.518125 
L 390.905594 22.318125 
" clip-path="url(#p6f191e51c2)" style="fill: none; stroke-dasharray: 1.85,0.8; stroke-dashoffset: 0; stroke: #b0b0b0; stroke-opacity: 0.6; stroke-width: 0.5"/>
     </g>
     <g id="line2d_14">
      <g>
       <use xlink:href="#mf94e4fef43" x="390.905594" y="299.518125" style="stroke: #000000; stroke-width: 0.8"/>
      </g>
     </g>
     <g id="text_7">
      <!-- 120 -->
      <g transform="translate(381.361844 314.116563) scale(0.1 -0.1)">
       <use xlink:href="#DejaVuSans-31"/>
       <use xlink:href="#DejaVuSans-32" transform="translate(63.623047 0)"/>
       <use xlink:href="#DejaVuSans-30" transform="translate(127.246094 0)"/>
      </g>
     </g>
    </g>
    <g id="xtick_8">
     <g id="line2d_15">
      <path d="M 445.377833 299.518125 
L 445.377833 22.318125 
" clip-path="url(#p6f191e51c2)" style="fill: none; stroke-dasharray: 1.85,0.8; stroke-dashoffset: 0; stroke: #b0b0b0; stroke-opacity: 0.6; stroke-width: 0.5"/>
     </g>
     <g id="line2d_16">
      <g>
       <use xlink:href="#mf94e4fef43" x="445.377833" y="299.518125" style="stroke: #000000; stroke-width: 0.8"/>
      </g>
     </g>
     <g id="text_8">
      <!-- 140 -->
      <g transform="translate(435.834083 314.116563) scale(0.1 -0.1)">
       <use xlink:href="#DejaVuSans-31"/>
       <use xlink:href="#DejaVuSans-34" transform="translate(63.623047 0)"/>
       <use xlink:href="#DejaVuSans-30" transform="translate(127.246094 0)"/>
      </g>
     </g>
    </g>
    <g id="text_9">
     <!-- Simulation Day -->
     <g transform="translate(228.885937 327.794688) scale(0.1 -0.1)">
      <defs>
       <path id="DejaVuSans-53" d="M 3425 4513 
L 3425 3897 
Q 3066 4069 2747 4153 
Q 2428 4238 2131 4238 
Q 1616 4238 1336 4038 
Q 1056 3838 1056 3469 
Q 1056 3159 1242 3001 
Q 1428 2844 1947 2747 
L 2328 2669 
Q 3034 2534 3370 2195 
Q 3706 1856 3706 1288 
Q 3706 609 3251 259 
Q 2797 -91 1919 -91 
Q 1588 -91 1214 -16 
Q 841 59 441 206 
L 441 856 
Q 825 641 1194 531 
Q 1563 422 1919 422 
Q 2459 422 2753 634 
Q 3047 847 3047 1241 
Q 3047 1584 2836 1778 
Q 2625 1972 2144 2069 
L 1759 2144 
Q 1053 2284 737 2584 
Q 422 2884 422 3419 
Q 422 4038 858 4394 
Q 1294 4750 2059 4750 
Q 2388 4750 2728 4690 
Q 3069 4631 3425 4513 
z
" transform="scale(0.015625)"/>
       <path id="DejaVuSans-69" d="M 603 3500 
L 1178 3500 
L 1178 0 
L 603 0 
L 603 3500 
z
M 603 4863 
L 1178 4863 
L 1178 4134 
L 603 4134 
L 603 4863 
z
" transform="scale(0.015625)"/>
       <path id="DejaVuSans-6d" d="M 3328 2828 
Q 3544 3216 3844 3400 
Q 4144 3584 4550 3584 
Q 5097 3584 5394 3201 
Q 5691 2819 5691 2113 
L 5691 0 
L 5113 0 
L 5113 2094 
Q 5113 2597 4934 2840 
Q 4756 3084 4391 3084 
Q 3944 3084 3684 2787 
Q 3425 2491 3425 1978 
L 3425 0 
L 2847 0 
L 2847 2094 
Q 2847 2600 2669 2842 
Q 2491 3084 2119 3084 
Q 1678 3084 1418 2786 
Q 1159 2488 1159 1978 
L 1159 0 
L 581 0 
L 581 3500 
L 1159 3500 
L 1159 2956 
Q 1356 3278 1631 3431 
Q 1906 3584 2284 3584 
Q 2666 3584 2933 3390 
Q 3200 3197 3328 2828 
z
" transform="scale(0.015625)"/>
       <path id="DejaVuSans-75" d="M 544 1381 
L 544 3500 
L 1119 3500 
L 1119 1403 
Q 1119 906 1312 657 
Q 1506 409 1894 409 
Q 2359 409 2629 706 
Q 2900 1003 2900 1516 
L 2900 3500 
L 3475 3500 
L 3475 0 
L 2900 0 
L 2900 538 
Q 2691 219 2414 64 
Q 2138 -91 1772 -91 
Q 1169 -91 856 284 
Q 544 659 544 1381 
z
M 1991 3584 
L 1991 3584 
z
" transform="scale(0.015625)"/>
       <path id="DejaVuSans-6c" d="M 603 4863 
L 1178 4863 
L 1178 0 
L 603 0 
L 603 4863 
z
" transform="scale(0.015625)"/>
       <path id="DejaVuSans-61" d="M 2194 1759 
Q 1497 1759 1228 1600 
Q 959 1441 959 1056 
Q 959 750 1161 570 
Q 1363 391 1709 391 
Q 2188 391 2477 730 
Q 2766 1069 2766 1631 
L 2766 1759 
L 2194 1759 
z
M 3341 1997 
L 3341 0 
L 2766 0 
L 2766 531 
Q 2569 213 2275 61 
Q 1981 -91 1556 -91 
Q 1019 -91 701 211 
Q 384 513 384 1019 
Q 384 1609 779 1909 
Q 1175 2209 1959 2209 
L 2766 2209 
L 2766 2266 
Q 2766 2663 2505 2880 
Q 2244 3097 1772 3097 
Q 1472 3097 1187 3025 
Q 903 2953 641 2809 
L 641 3341 
Q 956 3463 1253 3523 
Q 1550 3584 1831 3584 
Q 2591 3584 2966 3190 
Q 3341 2797 3341 1997 
z
" transform="scale(0.015625)"/>
       <path id="DejaVuSans-74" d="M 1172 4494 
L 1172 3500 
L 2356 3500 
L 2356 3053 
L 1172 3053 
L 1172 1153 
Q 1172 725 1289 603 
Q 1406 481 1766 481 
L 2356 481 
L 2356 0 
L 1766 0 
Q 1100 0 847 248 
Q 594 497 594 1153 
L 594 3053 
L 172 3053 
L 172 3500 
L 594 3500 
L 594 4494 
L 1172 4494 
z
" transform="scale(0.015625)"/>
       <path id="DejaVuSans-6f" d="M 1959 3097 
Q 1497 3097 1228 2736 
Q 959 2375 959 1747 
Q 959 1119 1226 758 
Q 1494 397 1959 397 
Q 2419 397 2687 759 
Q 2956 1122 2956 1747 
Q 2956 2369 2687 2733 
Q 2419 3097 1959 3097 
z
M 1959 3584 
Q 2709 3584 3137 3096 
Q 3566 2609 3566 1747 
Q 3566 888 3137 398 
Q 2709 -91 1959 -91 
Q 1206 -91 779 398 
Q 353 888 353 1747 
Q 353 2609 779 3096 
Q 1206 3584 1959 3584 
z
" transform="scale(0.015625)"/>
       <path id="DejaVuSans-6e" d="M 3513 2113 
L 3513 0 
L 2938 0 
L 2938 2094 
Q 2938 2591 2744 2837 
Q 2550 3084 2163 3084 
Q 1697 3084 1428 2787 
Q 1159 2491 1159 1978 
L 1159 0 
L 581 0 
L 581 3500 
L 1159 3500 
L 1159 2956 
Q 1366 3272 1645 3428 
Q 1925 3584 2291 3584 
Q 2894 3584 3203 3211 
Q 3513 2838 3513 2113 
z
" transform="scale(0.015625)"/>
       <path id="DejaVuSans-20" transform="scale(0.015625)"/>
       <path id="DejaVuSans-44" d="M 1259 4147 
L 1259 519 
L 2022 519 
Q 2988 519 3436 956 
Q 3884 1394 3884 2338 
Q 3884 3275 3436 3711 
Q 2988 4147 2022 4147 
L 1259 4147 
z
M 628 4666 
L 1925 4666 
Q 3281 4666 3915 4102 
Q 4550 3538 4550 2338 
Q 4550 1131 3912 565 
Q 3275 0 1925 0 
L 628 0 
L 628 4666 
z
" transform="scale(0.015625)"/>
       <path id="DejaVuSans-79" d="M 2059 -325 
Q 1816 -950 1584 -1140 
Q 1353 -1331 966 -1331 
L 506 -1331 
L 506 -850 
L 844 -850 
Q 1081 -850 1212 -737 
Q 1344 -625 1503 -206 
L 1606 56 
L 191 3500 
L 800 3500 
L 1894 763 
L 2988 3500 
L 3597 3500 
L 2059 -325 
z
" transform="scale(0.015625)"/>
      </defs>
      <use xlink:href="#DejaVuSans-53"/>
      <use xlink:href="#DejaVuSans-69" transform="translate(63.476562 0)"/>
      <use xlink:href="#DejaVuSans-6d" transform="translate(91.259766 0)"/>
      <use xlink:href="#DejaVuSans-75" transform="translate(188.671875 0)"/>
      <use xlink:href="#DejaVuSans-6c" transform="translate(252.050781 0)"/>
      <use xlink:href="#DejaVuSans-61" transform="translate(279.833984 0)"/>
      <use xlink:href="#DejaVuSans-74" transform="translate(341.113281 0)"/>
      <use xlink:href="#DejaVuSans-69" transform="translate(380.322266 0)"/>
      <use xlink:href="#DejaVuSans-6f" transform="translate(408.105469 0)"/>
      <use xlink:href="#DejaVuSans-6e" transform="translate(469.287109 0)"/>
      <use xlink:href="#DejaVuSans-20" transform="translate(532.666016 0)"/>
      <use xlink:href="#DejaVuSans-44" transform="translate(564.453125 0)"/>
      <use xlink:href="#DejaVuSans-61" transform="translate(641.455078 0)"/>
      <use xlink:href="#DejaVuSans-79" transform="translate(702.734375 0)"/>
     </g>
    </g>
   </g>
   <g id="matplotlib.axis_2">
    <g id="ytick_1">
     <g id="line2d_17">
      <path d="M 43.78125 286.918125 
L 490.18125 286.918125 
" clip-path="url(#p6f191e51c2)" style="fill: none; stroke-dasharray: 1.85,0.8; stroke-dashoffset: 0; stroke: #b0b0b0; stroke-opacity: 0.6; stroke-width: 0.5"/>
     </g>
     <g id="line2d_18">
      <defs>
       <path id="mb041b5b801" d="M 0 0 
L -3.5 0 
" style="stroke: #000000; stroke-width: 0.8"/>
      </defs>
      <g>
       <use xlink:href="#mb041b5b801" x="43.78125" y="286.918125" style="stroke: #000000; stroke-width: 0.8"/>
      </g>
     </g>
     <g id="text_10">
      <!-- 0.0 -->
      <g transform="translate(20.878125 290.717344) scale(0.1 -0.1)">
       <defs>
        <path id="DejaVuSans-2e" d="M 684 794 
L 1344 794 
L 1344 0 
L 684 0 
L 684 794 
z
" transform="scale(0.015625)"/>
       </defs>
       <use xlink:href="#DejaVuSans-30"/>
       <use xlink:href="#DejaVuSans-2e" transform="translate(63.623047 0)"/>
       <use xlink:href="#DejaVuSans-30" transform="translate(95.410156 0)"/>
      </g>
     </g>
    </g>
    <g id="ytick_2">
     <g id="line2d_19">
      <path d="M 43.78125 250.798125 
L 490.18125 250.798125 
" clip-path="url(#p6f191e51c2)" style="fill: none; stroke-dasharray: 1.85,0.8; stroke-dashoffset: 0; stroke: #b0b0b0; stroke-opacity: 0.6; stroke-width: 0.5"/>
     </g>
     <g id="line2d_20">
      <g>
       <use xlink:href="#mb041b5b801" x="43.78125" y="250.798125" style="stroke: #000000; stroke-width: 0.8"/>
      </g>
     </g>
     <g id="text_11">
      <!-- 0.1 -->
      <g transform="translate(20.878125 254.597344) scale(0.1 -0.1)">
       <use xlink:href="#DejaVuSans-30"/>
       <use xlink:href="#DejaVuSans-2e" transform="translate(63.623047 0)"/>
       <use xlink:href="#DejaVuSans-31" transform="translate(95.410156 0)"/>
      </g>
     </g>
    </g>
    <g id="ytick_3">
     <g id="line2d_21">
      <path d="M 43.78125 214.678125 
L 490.18125 214.678125 
" clip-path="url(#p6f191e51c2)" style="fill: none; stroke-dasharray: 1.85,0.8; stroke-dashoffset: 0; stroke: #b0b0b0; stroke-opacity: 0.6; stroke-width: 0.5"/>
     </g>
     <g id="line2d_22">
      <g>
       <use xlink:href="#mb041b5b801" x="43.78125" y="214.678125" style="stroke: #000000; stroke-width: 0.8"/>
      </g>
     </g>
     <g id="text_12">
      <!-- 0.2 -->
      <g transform="translate(20.878125 218.477344) scale(0.1 -0.1)">
       <use xlink:href="#DejaVuSans-30"/>
       <use xlink:href="#DejaVuSans-2e" transform="translate(63.623047 0)"/>
       <use xlink:href="#DejaVuSans-32" transform="translate(95.410156 0)"/>
      </g>
     </g>
    </g>
    <g id="ytick_4">
     <g id="line2d_23">
      <path d="M 43.78125 178.558125 
L 490.18125 178.558125 
" clip-path="url(#p6f191e51c2)" style="fill: none; stroke-dasharray: 1.85,0.8; stroke-dashoffset: 0; stroke: #b0b0b0; stroke-opacity: 0.6; stroke-width: 0.5"/>
     </g>
     <g id="line2d_24">
      <g>
       <use xlink:href="#mb041b5b801" x="43.78125" y="178.558125" style="stroke: #000000; stroke-width: 0.8"/>
      </g>
     </g>
     <g id="text_13">
      <!-- 0.3 -->
      <g transform="translate(20.878125 182.357344) scale(0.1 -0.1)">
       <defs>
        <path id="DejaVuSans-33" d="M 2597 2516 
Q 3050 2419 3304 2112 
Q 3559 1806 3559 1356 
Q 3559 666 3084 287 
Q 2609 -91 1734 -91 
Q 1441 -91 1130 -33 
Q 819 25 488 141 
L 488 750 
Q 750 597 1062 519 
Q 1375 441 1716 441 
Q 2309 441 2620 675 
Q 2931 909 2931 1356 
Q 2931 1769 2642 2001 
Q 2353 2234 1838 2234 
L 1294 2234 
L 1294 2753 
L 1863 2753 
Q 2328 2753 2575 2939 
Q 2822 3125 2822 3475 
Q 2822 3834 2567 4026 
Q 2313 4219 1838 4219 
Q 1578 4219 1281 4162 
Q 984 4106 628 3988 
L 628 4550 
Q 988 4650 1302 4700 
Q 1616 4750 1894 4750 
Q 2613 4750 3031 4423 
Q 3450 4097 3450 3541 
Q 3450 3153 3228 2886 
Q 3006 2619 2597 2516 
z
" transform="scale(0.015625)"/>
       </defs>
       <use xlink:href="#DejaVuSans-30"/>
       <use xlink:href="#DejaVuSans-2e" transform="translate(63.623047 0)"/>
       <use xlink:href="#DejaVuSans-33" transform="translate(95.410156 0)"/>
      </g>
     </g>
    </g>
    <g id="ytick_5">
     <g id="line2d_25">
      <path d="M 43.78125 142.438125 
L 490.18125 142.438125 
" clip-path="url(#p6f191e51c2)" style="fill: none; stroke-dasharray: 1.85,0.8; stroke-dashoffset: 0; stroke: #b0b0b0; stroke-opacity: 0.6; stroke-width: 0.5"/>
     </g>
     <g id="line2d_26">
      <g>
       <use xlink:href="#mb041b5b801" x="43.78125" y="142.438125" style="stroke: #000000; stroke-width: 0.8"/>
      </g>
     </g>
     <g id="text_14">
      <!-- 0.4 -->
      <g transform="translate(20.878125 146.237344) scale(0.1 -0.1)">
       <use xlink:href="#DejaVuSans-30"/>
       <use xlink:href="#DejaVuSans-2e" transform="translate(63.623047 0)"/>
       <use xlink:href="#DejaVuSans-34" transform="translate(95.410156 0)"/>
      </g>
     </g>
    </g>
    <g id="ytick_6">
     <g id="line2d_27">
      <path d="M 43.78125 106.318125 
L 490.18125 106.318125 
" clip-path="url(#p6f191e51c2)" style="fill: none; stroke-dasharray: 1.85,0.8; stroke-dashoffset: 0; stroke: #b0b0b0; stroke-opacity: 0.6; stroke-width: 0.5"/>
     </g>
     <g id="line2d_28">
      <g>
       <use xlink:href="#mb041b5b801" x="43.78125" y="106.318125" style="stroke: #000000; stroke-width: 0.8"/>
      </g>
     </g>
     <g id="text_15">
      <!-- 0.5 -->
      <g transform="translate(20.878125 110.117344) scale(0.1 -0.1)">
       <defs>
        <path id="DejaVuSans-35" d="M 691 4666 
L 3169 4666 
L 3169 4134 
L 1269 4134 
L 1269 2991 
Q 1406 3038 1543 3061 
Q 1681 3084 1819 3084 
Q 2600 3084 3056 2656 
Q 3513 2228 3513 1497 
Q 3513 744 3044 326 
Q 2575 -91 1722 -91 
Q 1428 -91 1123 -41 
Q 819 9 494 109 
L 494 744 
Q 775 591 1075 516 
Q 1375 441 1709 441 
Q 2250 441 2565 725 
Q 2881 1009 2881 1497 
Q 2881 1984 2565 2268 
Q 2250 2553 1709 2553 
Q 1456 2553 1204 2497 
Q 953 2441 691 2322 
L 691 4666 
z
" transform="scale(0.015625)"/>
       </defs>
       <use xlink:href="#DejaVuSans-30"/>
       <use xlink:href="#DejaVuSans-2e" transform="translate(63.623047 0)"/>
       <use xlink:href="#DejaVuSans-35" transform="translate(95.410156 0)"/>
      </g>
     </g>
    </g>
    <g id="ytick_7">
     <g id="line2d_29">
      <path d="M 43.78125 70.198125 
L 490.18125 70.198125 
" clip-path="url(#p6f191e51c2)" style="fill: none; stroke-dasharray: 1.85,0.8; stroke-dashoffset: 0; stroke: #b0b0b0; stroke-opacity: 0.6; stroke-width: 0.5"/>
     </g>
     <g id="line2d_30">
      <g>
       <use xlink:href="#mb041b5b801" x="43.78125" y="70.198125" style="stroke: #000000; stroke-width: 0.8"/>
      </g>
     </g>
     <g id="text_16">
      <!-- 0.6 -->
      <g transform="translate(20.878125 73.997344) scale(0.1 -0.1)">
       <use xlink:href="#DejaVuSans-30"/>
       <use xlink:href="#DejaVuSans-2e" transform="translate(63.623047 0)"/>
       <use xlink:href="#DejaVuSans-36" transform="translate(95.410156 0)"/>
      </g>
     </g>
    </g>
    <g id="ytick_8">
     <g id="line2d_31">
      <path d="M 43.78125 34.078125 
L 490.18125 34.078125 
" clip-path="url(#p6f191e51c2)" style="fill: none; stroke-dasharray: 1.85,0.8; stroke-dashoffset: 0; stroke: #b0b0b0; stroke-opacity: 0.6; stroke-width: 0.5"/>
     </g>
     <g id="line2d_32">
      <g>
       <use xlink:href="#mb041b5b801" x="43.78125" y="34.078125" style="stroke: #000000; stroke-width: 0.8"/>
      </g>
     </g>
     <g id="text_17">
      <!-- 0.7 -->
      <g transform="translate(20.878125 37.877344) scale(0.1 -0.1)">
       <defs>
        <path id="DejaVuSans-37" d="M 525 4666 
L 3525 4666 
L 3525 4397 
L 1831 0 
L 1172 0 
L 2766 4134 
L 525 4134 
L 525 4666 
z
" transform="scale(0.015625)"/>
       </defs>
       <use xlink:href="#DejaVuSans-30"/>
       <use xlink:href="#DejaVuSans-2e" transform="translate(63.623047 0)"/>
       <use xlink:href="#DejaVuSans-37" transform="translate(95.410156 0)"/>
      </g>
     </g>
    </g>
    <g id="text_18">
     <!-- Detection Ratio (Efficiency) -->
     <g transform="translate(14.798438 229.282969) rotate(-90) scale(0.1 -0.1)">
      <defs>
       <path id="DejaVuSans-65" d="M 3597 1894 
L 3597 1613 
L 953 1613 
Q 991 1019 1311 708 
Q 1631 397 2203 397 
Q 2534 397 2845 478 
Q 3156 559 3463 722 
L 3463 178 
Q 3153 47 2828 -22 
Q 2503 -91 2169 -91 
Q 1331 -91 842 396 
Q 353 884 353 1716 
Q 353 2575 817 3079 
Q 1281 3584 2069 3584 
Q 2775 3584 3186 3129 
Q 3597 2675 3597 1894 
z
M 3022 2063 
Q 3016 2534 2758 2815 
Q 2500 3097 2075 3097 
Q 1594 3097 1305 2825 
Q 1016 2553 972 2059 
L 3022 2063 
z
" transform="scale(0.015625)"/>
       <path id="DejaVuSans-63" d="M 3122 3366 
L 3122 2828 
Q 2878 2963 2633 3030 
Q 2388 3097 2138 3097 
Q 1578 3097 1268 2742 
Q 959 2388 959 1747 
Q 959 1106 1268 751 
Q 1578 397 2138 397 
Q 2388 397 2633 464 
Q 2878 531 3122 666 
L 3122 134 
Q 2881 22 2623 -34 
Q 2366 -91 2075 -91 
Q 1284 -91 818 406 
Q 353 903 353 1747 
Q 353 2603 823 3093 
Q 1294 3584 2113 3584 
Q 2378 3584 2631 3529 
Q 2884 3475 3122 3366 
z
" transform="scale(0.015625)"/>
       <path id="DejaVuSans-52" d="M 2841 2188 
Q 3044 2119 3236 1894 
Q 3428 1669 3622 1275 
L 4263 0 
L 3584 0 
L 2988 1197 
Q 2756 1666 2539 1819 
Q 2322 1972 1947 1972 
L 1259 1972 
L 1259 0 
L 628 0 
L 628 4666 
L 2053 4666 
Q 2853 4666 3247 4331 
Q 3641 3997 3641 3322 
Q 3641 2881 3436 2590 
Q 3231 2300 2841 2188 
z
M 1259 4147 
L 1259 2491 
L 2053 2491 
Q 2509 2491 2742 2702 
Q 2975 2913 2975 3322 
Q 2975 3731 2742 3939 
Q 2509 4147 2053 4147 
L 1259 4147 
z
" transform="scale(0.015625)"/>
       <path id="DejaVuSans-28" d="M 1984 4856 
Q 1566 4138 1362 3434 
Q 1159 2731 1159 2009 
Q 1159 1288 1364 580 
Q 1569 -128 1984 -844 
L 1484 -844 
Q 1016 -109 783 600 
Q 550 1309 550 2009 
Q 550 2706 781 3412 
Q 1013 4119 1484 4856 
L 1984 4856 
z
" transform="scale(0.015625)"/>
       <path id="DejaVuSans-45" d="M 628 4666 
L 3578 4666 
L 3578 4134 
L 1259 4134 
L 1259 2753 
L 3481 2753 
L 3481 2222 
L 1259 2222 
L 1259 531 
L 3634 531 
L 3634 0 
L 628 0 
L 628 4666 
z
" transform="scale(0.015625)"/>
       <path id="DejaVuSans-66" d="M 2375 4863 
L 2375 4384 
L 1825 4384 
Q 1516 4384 1395 4259 
Q 1275 4134 1275 3809 
L 1275 3500 
L 2222 3500 
L 2222 3053 
L 1275 3053 
L 1275 0 
L 697 0 
L 697 3053 
L 147 3053 
L 147 3500 
L 697 3500 
L 697 3744 
Q 697 4328 969 4595 
Q 1241 4863 1831 4863 
L 2375 4863 
z
" transform="scale(0.015625)"/>
       <path id="DejaVuSans-29" d="M 513 4856 
L 1013 4856 
Q 1481 4119 1714 3412 
Q 1947 2706 1947 2009 
Q 1947 1309 1714 600 
Q 1481 -109 1013 -844 
L 513 -844 
Q 928 -128 1133 580 
Q 1338 1288 1338 2009 
Q 1338 2731 1133 3434 
Q 928 4138 513 4856 
z
" transform="scale(0.015625)"/>
      </defs>
      <use xlink:href="#DejaVuSans-44"/>
      <use xlink:href="#DejaVuSans-65" transform="translate(77.001953 0)"/>
      <use xlink:href="#DejaVuSans-74" transform="translate(138.525391 0)"/>
      <use xlink:href="#DejaVuSans-65" transform="translate(177.734375 0)"/>
      <use xlink:href="#DejaVuSans-63" transform="translate(239.257812 0)"/>
      <use xlink:href="#DejaVuSans-74" transform="translate(294.238281 0)"/>
      <use xlink:href="#DejaVuSans-69" transform="translate(333.447266 0)"/>
      <use xlink:href="#DejaVuSans-6f" transform="translate(361.230469 0)"/>
      <use xlink:href="#DejaVuSans-6e" transform="translate(422.412109 0)"/>
      <use xlink:href="#DejaVuSans-20" transform="translate(485.791016 0)"/>
      <use xlink:href="#DejaVuSans-52" transform="translate(517.578125 0)"/>
      <use xlink:href="#DejaVuSans-61" transform="translate(584.810547 0)"/>
      <use xlink:href="#DejaVuSans-74" transform="translate(646.089844 0)"/>
      <use xlink:href="#DejaVuSans-69" transform="translate(685.298828 0)"/>
      <use xlink:href="#DejaVuSans-6f" transform="translate(713.082031 0)"/>
      <use xlink:href="#DejaVuSans-20" transform="translate(774.263672 0)"/>
      <use xlink:href="#DejaVuSans-28" transform="translate(806.050781 0)"/>
      <use xlink:href="#DejaVuSans-45" transform="translate(845.064453 0)"/>
      <use xlink:href="#DejaVuSans-66" transform="translate(908.248047 0)"/>
      <use xlink:href="#DejaVuSans-66" transform="translate(943.453125 0)"/>
      <use xlink:href="#DejaVuSans-69" transform="translate(978.658203 0)"/>
      <use xlink:href="#DejaVuSans-63" transform="translate(1006.441406 0)"/>
      <use xlink:href="#DejaVuSans-69" transform="translate(1061.421875 0)"/>
      <use xlink:href="#DejaVuSans-65" transform="translate(1089.205078 0)"/>
      <use xlink:href="#DejaVuSans-6e" transform="translate(1150.728516 0)"/>
      <use xlink:href="#DejaVuSans-63" transform="translate(1214.107422 0)"/>
      <use xlink:href="#DejaVuSans-79" transform="translate(1269.087891 0)"/>
      <use xlink:href="#DejaVuSans-29" transform="translate(1328.267578 0)"/>
     </g>
    </g>
   </g>
   <g id="line2d_33">
    <path d="M 64.072159 286.918125 
L 115.820786 286.918125 
L 118.544398 242.884909 
L 121.26801 210.522186 
L 123.991622 186.805999 
L 126.715234 172.739402 
L 129.438846 166.168125 
L 132.162458 162.818684 
L 134.88607 160.76195 
L 137.609682 160.799511 
L 140.333294 161.170226 
L 143.056906 161.903491 
L 145.780518 163.380666 
L 148.50413 166.025187 
L 151.227742 167.117727 
L 153.951354 165.275723 
L 156.674966 165.329256 
L 159.398578 164.994074 
L 162.12219 167.109771 
L 167.569414 173.236875 
L 170.293025 174.539103 
L 173.016637 170.574729 
L 175.740249 163.513902 
L 178.463861 158.786704 
L 181.187473 158.403735 
L 183.911085 155.688495 
L 186.634697 158.60515 
L 189.358309 154.838997 
L 192.081921 153.389402 
L 194.805533 150.097127 
L 197.529145 146.071711 
L 200.252757 143.173481 
L 202.976369 142.607702 
L 205.699981 143.037627 
L 208.423593 143.273641 
L 211.147205 141.514421 
L 213.870817 141.481917 
L 216.594429 139.230148 
L 219.318041 139.236103 
L 224.765265 132.862058 
L 227.488877 128.625013 
L 230.212489 128.012665 
L 232.936101 126.149544 
L 235.659712 124.14141 
L 238.383324 123.175967 
L 241.106936 118.47788 
L 243.830548 117.063205 
L 246.55416 116.154131 
L 249.277772 117.158216 
L 252.001384 117.143163 
L 254.724996 114.87899 
L 257.448608 113.902915 
L 260.17222 114.004679 
L 262.895832 112.399623 
L 265.619444 112.592747 
L 268.343056 113.820391 
L 271.066668 117.425642 
L 273.79028 117.062422 
L 276.513892 114.337176 
L 279.237504 112.650137 
L 281.961116 112.032879 
L 284.684728 110.569997 
L 287.40834 108.408403 
L 290.131952 106.871264 
L 292.855564 106.318125 
L 295.579176 105.412687 
L 298.302788 105.266903 
L 301.026399 105.39778 
L 303.750011 104.743957 
L 306.473623 101.050926 
L 309.197235 100.337026 
L 311.920847 100.840972 
L 314.644459 101.755289 
L 320.091683 97.07393 
L 322.815295 96.141338 
L 325.538907 93.628151 
L 328.262519 90.419151 
L 330.986131 87.969227 
L 333.709743 87.525532 
L 336.433355 87.686089 
L 339.156967 86.494125 
L 341.880579 86.30871 
L 344.604191 86.965026 
L 347.327803 85.190665 
L 350.051415 81.814607 
L 352.775027 81.670028 
L 355.498639 82.083369 
L 358.222251 79.865649 
L 360.945863 81.923144 
L 363.669475 82.539453 
L 366.393086 81.158396 
L 371.84031 80.881505 
L 374.563922 82.891238 
L 377.287534 82.317764 
L 380.011146 83.592168 
L 382.734758 86.598076 
L 385.45837 92.201748 
L 388.181982 93.87455 
L 390.905594 91.606002 
L 393.629206 95.361961 
L 396.352818 91.069576 
L 399.07643 92.779169 
L 401.800042 93.50612 
L 404.523654 97.411824 
L 407.247266 98.302591 
L 409.970878 100.451176 
L 412.69449 101.919558 
L 415.418102 102.216587 
L 418.141714 104.572549 
L 420.865326 102.724757 
L 423.588938 106.318125 
L 426.31255 104.347943 
L 429.036162 106.855625 
L 431.759773 106.996562 
L 434.483385 104.258049 
L 437.206997 100.691957 
L 439.930609 99.524395 
L 442.654221 102.342653 
L 445.377833 102.29201 
L 448.101445 98.326975 
L 450.825057 101.747839 
L 453.548669 104.401554 
L 456.272281 107.502387 
L 458.995893 109.31315 
L 461.719505 107.980552 
L 464.443117 109.782512 
L 467.166729 112.762772 
L 469.890341 115.131525 
L 469.890341 115.131525 
" clip-path="url(#p6f191e51c2)" style="fill: none; stroke: #1f77b4; stroke-width: 1.5; stroke-linecap: square"/>
   </g>
   <g id="line2d_34">
    <path d="M 64.072159 286.918125 
L 115.820786 286.918125 
L 118.544398 233.080727 
L 121.26801 190.10163 
L 123.991622 177.252583 
L 126.715234 171.46607 
L 129.438846 171.641529 
L 132.162458 172.059548 
L 134.88607 169.401957 
L 137.609682 167.863376 
L 140.333294 169.528125 
L 143.056906 167.92749 
L 145.780518 169.514081 
L 148.50413 168.509704 
L 151.227742 167.722125 
L 153.951354 163.882831 
L 156.674966 167.13477 
L 159.398578 166.373587 
L 162.12219 166.789602 
L 164.845802 168.447612 
L 167.569414 166.518125 
L 170.293025 166.169139 
L 173.016637 164.841245 
L 175.740249 163.745406 
L 178.463861 162.167537 
L 181.187473 164.404159 
L 183.911085 160.722473 
L 186.634697 157.861338 
L 189.358309 155.825258 
L 192.081921 153.0399 
L 194.805533 153.096486 
L 197.529145 155.365762 
L 200.252757 155.47424 
L 202.976369 151.857126 
L 205.699981 151.542344 
L 211.147205 148.904621 
L 213.870817 147.191704 
L 216.594429 144.245897 
L 219.318041 144.601205 
L 222.041653 142.371205 
L 224.765265 140.973801 
L 227.488877 139.358622 
L 230.212489 139.133027 
L 232.936101 135.714555 
L 235.659712 136.039032 
L 238.383324 127.929673 
L 241.106936 125.438721 
L 243.830548 124.574508 
L 246.55416 124.556937 
L 249.277772 127.178125 
L 252.001384 125.66319 
L 254.724996 125.325066 
L 257.448608 125.33575 
L 260.17222 123.989882 
L 262.895832 120.846095 
L 265.619444 120.057265 
L 268.343056 118.473894 
L 271.066668 117.761825 
L 273.79028 114.607319 
L 276.513892 116.089031 
L 279.237504 113.521359 
L 281.961116 111.551058 
L 284.684728 106.96451 
L 287.40834 103.939271 
L 290.131952 102.410143 
L 292.855564 99.619601 
L 295.579176 95.360669 
L 298.302788 92.641361 
L 301.026399 91.117458 
L 303.750011 90.507106 
L 306.473623 87.231441 
L 309.197235 85.447555 
L 311.920847 85.936934 
L 314.644459 85.779301 
L 317.368071 86.778268 
L 320.091683 88.877902 
L 322.815295 85.56709 
L 325.538907 87.787506 
L 328.262519 85.865722 
L 330.986131 83.771786 
L 333.709743 85.550663 
L 336.433355 90.24051 
L 339.156967 90.044279 
L 341.880579 87.747222 
L 344.604191 84.784731 
L 347.327803 84.559089 
L 350.051415 83.277224 
L 352.775027 86.11888 
L 355.498639 87.635366 
L 358.222251 87.599001 
L 360.945863 89.980662 
L 363.669475 87.554489 
L 366.393086 90.178634 
L 369.116698 91.337056 
L 371.84031 90.225056 
L 374.563922 87.971458 
L 377.287534 88.143337 
L 380.011146 86.075916 
L 382.734758 84.342461 
L 385.45837 86.720462 
L 388.181982 84.549375 
L 390.905594 84.523337 
L 393.629206 85.487675 
L 396.352818 85.544886 
L 399.07643 84.723479 
L 401.800042 83.528125 
L 404.523654 83.960192 
L 407.247266 84.531107 
L 409.970878 84.538904 
L 412.69449 83.228758 
L 415.418102 85.708067 
L 418.141714 87.16536 
L 420.865326 88.49267 
L 423.588938 88.695728 
L 426.31255 88.210473 
L 429.036162 90.379306 
L 431.759773 90.429206 
L 434.483385 91.104538 
L 437.206997 87.833478 
L 439.930609 89.51523 
L 442.654221 94.87515 
L 445.377833 96.270837 
L 448.101445 94.637528 
L 450.825057 91.591086 
L 453.548669 86.954011 
L 456.272281 88.523713 
L 458.995893 91.95069 
L 461.719505 94.278125 
L 464.443117 94.970812 
L 467.166729 97.342523 
L 469.890341 99.377206 
L 469.890341 99.377206 
" clip-path="url(#p6f191e51c2)" style="fill: none; stroke: #ff7f0e; stroke-width: 1.5; stroke-linecap: square"/>
   </g>
   <g id="line2d_35">
    <path d="M 64.072159 286.918125 
L 115.820786 286.918125 
L 118.544398 262.978944 
L 121.26801 254.825442 
L 123.991622 241.217515 
L 126.715234 235.597421 
L 129.438846 230.831168 
L 132.162458 226.718125 
L 134.88607 223.926593 
L 137.609682 224.800928 
L 140.333294 223.01351 
L 143.056906 224.260982 
L 145.780518 224.279319 
L 148.50413 225.591075 
L 151.227742 225.977527 
L 153.951354 228.947755 
L 156.674966 231.497765 
L 159.398578 233.329994 
L 162.12219 236.413798 
L 164.845802 239.873262 
L 170.293025 245.224454 
L 175.740249 240.445835 
L 178.463861 240.998641 
L 181.187473 239.926455 
L 183.911085 239.594368 
L 186.634697 239.653938 
L 189.358309 239.556888 
L 192.081921 240.52276 
L 194.805533 241.203663 
L 197.529145 241.269927 
L 200.252757 240.567191 
L 202.976369 241.021691 
L 205.699981 240.687981 
L 208.423593 240.134928 
L 211.147205 240.271567 
L 213.870817 238.867746 
L 219.318041 237.587043 
L 222.041653 236.076755 
L 224.765265 234.128787 
L 227.488877 230.351498 
L 230.212489 225.766443 
L 241.106936 205.718125 
L 243.830548 200.26661 
L 246.55416 193.916654 
L 249.277772 188.032831 
L 252.001384 181.279319 
L 257.448608 168.735221 
L 262.895832 153.791881 
L 265.619444 145.680178 
L 268.343056 138.955666 
L 271.066668 131.568923 
L 273.79028 121.371961 
L 284.684728 85.12611 
L 287.40834 78.644152 
L 290.131952 74.966442 
L 292.855564 72.240332 
L 295.579176 68.943781 
L 298.302788 70.277481 
L 301.026399 73.660019 
L 303.750011 75.998417 
L 306.473623 79.704886 
L 309.197235 85.169393 
L 311.920847 88.86957 
L 314.644459 94.634489 
L 317.368071 99.279752 
L 320.091683 108.671731 
L 322.815295 111.186473 
L 325.538907 113.869345 
L 328.262519 114.483551 
L 330.986131 119.485182 
L 333.709743 122.943757 
L 336.433355 130.626526 
L 339.156967 132.141622 
L 341.880579 136.307055 
L 344.604191 138.571101 
L 347.327803 137.38099 
L 350.051415 141.967287 
L 352.775027 144.41078 
L 355.498639 147.082125 
L 358.222251 144.542203 
L 360.945863 142.224292 
L 366.393086 138.002336 
L 369.116698 134.317379 
L 371.84031 135.631197 
L 374.563922 131.426668 
L 377.287534 128.250374 
L 380.011146 121.829116 
L 382.734758 122.880688 
L 388.181982 113.610184 
L 390.905594 106.318125 
L 393.629206 101.516352 
L 396.352818 98.816279 
L 399.07643 91.196798 
L 401.800042 85.062323 
L 404.523654 79.854886 
L 407.247266 76.055422 
L 409.970878 67.5687 
L 412.69449 59.576735 
L 415.418102 56.5766 
L 418.141714 54.162972 
L 420.865326 53.454326 
L 423.588938 43.854967 
L 426.31255 39.707216 
L 429.036162 34.918125 
L 431.759773 37.418703 
L 434.483385 43.381761 
L 437.206997 42.645048 
L 439.930609 46.118125 
L 442.654221 45.484441 
L 445.377833 48.526125 
L 448.101445 52.002336 
L 453.548669 45.129213 
L 456.272281 47.877624 
L 458.995893 48.510178 
L 464.443117 44.398125 
L 467.166729 46.118125 
L 469.890341 46.118125 
L 469.890341 46.118125 
" clip-path="url(#p6f191e51c2)" style="fill: none; stroke: #2ca02c; stroke-width: 1.5; stroke-linecap: square"/>
   </g>
   <g id="line2d_36">
    <path d="M 64.072159 286.918125 
L 115.820786 286.918125 
L 118.544398 240.905386 
L 121.26801 212.150778 
L 123.991622 189.482703 
L 126.715234 180.518125 
L 129.438846 176.98769 
L 132.162458 181.201052 
L 134.88607 178.558125 
L 137.609682 180.466905 
L 140.333294 177.204516 
L 143.056906 179.895903 
L 145.780518 179.115724 
L 148.50413 182.901669 
L 151.227742 189.630625 
L 153.951354 189.864385 
L 156.674966 190.751501 
L 159.398578 189.968956 
L 162.12219 192.99 
L 164.845802 195.484652 
L 167.569414 197.31274 
L 170.293025 195.956587 
L 173.016637 188.409034 
L 175.740249 187.817388 
L 178.463861 183.516877 
L 181.187473 183.109724 
L 183.911085 180.359122 
L 186.634697 176.874264 
L 189.358309 175.327881 
L 192.081921 174.911394 
L 197.529145 175.614725 
L 200.252757 175.73683 
L 202.976369 172.529285 
L 205.699981 169.817521 
L 208.423593 170.035788 
L 211.147205 171.015239 
L 213.870817 172.877789 
L 216.594429 174.154585 
L 219.318041 174.100651 
L 222.041653 175.139152 
L 224.765265 178.915749 
L 227.488877 175.402893 
L 230.212489 172.115573 
L 232.936101 170.299399 
L 235.659712 167.068682 
L 238.383324 163.653063 
L 241.106936 161.985189 
L 243.830548 161.462797 
L 246.55416 161.869356 
L 249.277772 160.657545 
L 252.001384 159.218424 
L 254.724996 160.405555 
L 257.448608 159.687125 
L 260.17222 158.719976 
L 262.895832 158.35255 
L 265.619444 156.862752 
L 268.343056 154.878998 
L 271.066668 153.035761 
L 273.79028 151.726835 
L 276.513892 150.818559 
L 279.237504 150.856336 
L 281.961116 147.220279 
L 284.684728 142.339324 
L 287.40834 138.179003 
L 290.131952 134.304264 
L 292.855564 130.87504 
L 295.579176 128.17471 
L 298.302788 126.186672 
L 301.026399 123.546696 
L 303.750011 121.620279 
L 306.473623 120.668125 
L 309.197235 118.043082 
L 311.920847 113.43693 
L 314.644459 113.979943 
L 317.368071 110.801923 
L 320.091683 106.412041 
L 322.815295 105.890501 
L 325.538907 104.330313 
L 328.262519 105.236099 
L 330.986131 106.968665 
L 333.709743 106.982283 
L 336.433355 106.422217 
L 339.156967 104.465003 
L 341.880579 100.865031 
L 344.604191 99.662105 
L 347.327803 99.193642 
L 350.051415 97.915448 
L 352.775027 99.183021 
L 355.498639 96.032297 
L 358.222251 94.237242 
L 360.945863 93.413629 
L 363.669475 91.353394 
L 366.393086 90.559308 
L 369.116698 89.567017 
L 371.84031 90.928824 
L 374.563922 89.55117 
L 377.287534 88.381575 
L 380.011146 88.930261 
L 382.734758 89.192908 
L 385.45837 87.392287 
L 388.181982 87.179093 
L 390.905594 84.125071 
L 393.629206 82.998894 
L 396.352818 82.510215 
L 399.07643 83.062309 
L 401.800042 82.82328 
L 404.523654 81.892715 
L 407.247266 82.021303 
L 409.970878 76.649547 
L 412.69449 77.705178 
L 415.418102 76.392517 
L 418.141714 73.936176 
L 420.865326 75.303742 
L 423.588938 77.790372 
L 426.31255 77.022099 
L 429.036162 75.6502 
L 431.759773 73.915622 
L 434.483385 75.938025 
L 437.206997 74.943818 
L 439.930609 76.331198 
L 442.654221 74.891211 
L 445.377833 76.266285 
L 448.101445 71.031893 
L 450.825057 69.771751 
L 453.548669 72.269298 
L 456.272281 70.784912 
L 458.995893 76.471066 
L 461.719505 73.465959 
L 464.443117 70.975659 
L 467.166729 66.204959 
L 469.890341 68.856205 
L 469.890341 68.856205 
" clip-path="url(#p6f191e51c2)" style="fill: none; stroke: #d62728; stroke-width: 1.5; stroke-linecap: square"/>
   </g>
   <g id="line2d_37">
    <path d="M 64.072159 286.918125 
L 115.820786 286.918125 
L 118.544398 261.444707 
L 121.26801 247.232138 
L 123.991622 238.205356 
L 126.715234 233.112426 
L 129.438846 231.315216 
L 132.162458 226.974295 
L 134.88607 225.466329 
L 137.609682 225.219584 
L 140.333294 226.529114 
L 143.056906 228.040733 
L 148.50413 227.877845 
L 151.227742 229.54546 
L 153.951354 231.388815 
L 156.674966 234.113898 
L 159.398578 238.890745 
L 162.12219 240.846036 
L 167.569414 244.411505 
L 170.293025 247.184182 
L 173.016637 244.460812 
L 175.740249 242.951679 
L 178.463861 240.647754 
L 181.187473 240.114344 
L 183.911085 239.894854 
L 189.358309 240.654593 
L 194.805533 240.690559 
L 197.529145 240.727802 
L 200.252757 240.394597 
L 202.976369 240.460586 
L 205.699981 238.645827 
L 213.870817 235.810116 
L 216.594429 234.652992 
L 219.318041 232.886438 
L 222.041653 231.363045 
L 224.765265 229.079965 
L 227.488877 225.192015 
L 238.383324 208.434679 
L 241.106936 204.770295 
L 243.830548 200.554181 
L 252.001384 191.016657 
L 254.724996 188.22809 
L 257.448608 185.033913 
L 260.17222 181.553612 
L 262.895832 178.766224 
L 273.79028 164.568511 
L 276.513892 161.608154 
L 279.237504 159.5813 
L 287.40834 142.16053 
L 290.131952 135.722089 
L 292.855564 131.273273 
L 295.579176 127.493848 
L 298.302788 122.320657 
L 301.026399 119.13027 
L 303.750011 113.181783 
L 306.473623 107.613354 
L 309.197235 105.312491 
L 311.920847 103.888529 
L 314.644459 99.744936 
L 317.368071 95.325082 
L 320.091683 91.729267 
L 322.815295 90.505222 
L 325.538907 86.601968 
L 328.262519 82.920891 
L 330.986131 80.121583 
L 333.709743 77.571788 
L 336.433355 73.103219 
L 339.156967 71.879078 
L 341.880579 72.208356 
L 344.604191 71.639322 
L 347.327803 67.108914 
L 350.051415 63.890266 
L 352.775027 59.309007 
L 355.498639 55.257707 
L 358.222251 52.714037 
L 360.945863 51.660836 
L 363.669475 50.336993 
L 366.393086 50.577384 
L 369.116698 51.002506 
L 371.84031 51.888093 
L 374.563922 49.500147 
L 377.287534 51.128827 
L 380.011146 54.847125 
L 385.45837 56.151458 
L 388.181982 56.633409 
L 390.905594 58.195868 
L 393.629206 57.980194 
L 396.352818 60.775516 
L 399.07643 58.025817 
L 401.800042 59.677737 
L 404.523654 58.182253 
L 407.247266 64.467186 
L 409.970878 66.921581 
L 412.69449 63.512256 
L 415.418102 56.750106 
L 418.141714 51.738764 
L 420.865326 53.200478 
L 423.588938 49.668795 
L 426.31255 50.787377 
L 429.036162 51.767392 
L 431.759773 55.267061 
L 434.483385 55.796582 
L 437.206997 57.175268 
L 439.930609 69.710017 
L 442.654221 68.163195 
L 445.377833 54.056587 
L 448.101445 57.562992 
L 450.825057 64.641202 
L 453.548669 69.344897 
L 456.272281 64.081028 
L 458.995893 65.838815 
L 461.719505 70.843125 
L 464.443117 76.353103 
L 467.166729 65.427559 
L 469.890341 67.057255 
L 469.890341 67.057255 
" clip-path="url(#p6f191e51c2)" style="fill: none; stroke: #9467bd; stroke-width: 1.5; stroke-linecap: square"/>
   </g>
   <g id="line2d_38">
    <path d="M 64.072159 286.918125 
L 115.820786 286.918125 
L 118.544398 268.127374 
L 121.26801 257.615476 
L 123.991622 250.850397 
L 126.715234 246.682017 
L 129.438846 247.737108 
L 132.162458 247.859423 
L 134.88607 245.571971 
L 137.609682 247.142255 
L 140.333294 247.519296 
L 145.780518 246.761058 
L 148.50413 246.892215 
L 151.227742 248.073745 
L 153.951354 248.803966 
L 156.674966 250.220205 
L 159.398578 252.162134 
L 164.845802 254.598471 
L 167.569414 256.877729 
L 170.293025 258.217216 
L 173.016637 255.570005 
L 175.740249 253.186428 
L 178.463861 252.010936 
L 181.187473 250.613273 
L 183.911085 249.435106 
L 189.358309 246.835898 
L 192.081921 245.048151 
L 194.805533 243.665835 
L 200.252757 240.17036 
L 202.976369 238.55637 
L 213.870817 233.515828 
L 216.594429 232.06557 
L 219.318041 229.766226 
L 222.041653 228.364334 
L 224.765265 227.1267 
L 227.488877 220.644564 
L 230.212489 215.488156 
L 232.936101 211.432362 
L 235.659712 206.672537 
L 241.106936 198.562344 
L 243.830548 195.302187 
L 246.55416 190.45704 
L 249.277772 186.50009 
L 252.001384 182.7394 
L 257.448608 175.963631 
L 260.17222 172.996047 
L 262.895832 170.869627 
L 265.619444 167.524038 
L 273.79028 160.760101 
L 276.513892 157.366382 
L 279.237504 155.549421 
L 281.961116 151.533214 
L 284.684728 148.262208 
L 287.40834 144.339178 
L 290.131952 141.164183 
L 292.855564 136.720878 
L 295.579176 135.788828 
L 298.302788 133.094147 
L 301.026399 132.943725 
L 303.750011 133.553557 
L 306.473623 132.761784 
L 309.197235 129.299571 
L 311.920847 128.516993 
L 314.644459 126.768843 
L 317.368071 126.161683 
L 320.091683 126.991035 
L 322.815295 125.220301 
L 325.538907 126.016466 
L 328.262519 124.260257 
L 330.986131 125.25845 
L 333.709743 127.64036 
L 339.156967 126.507712 
L 341.880579 126.700429 
L 344.604191 126.677736 
L 347.327803 126.319428 
L 350.051415 126.812267 
L 352.775027 126.149307 
L 355.498639 124.11504 
L 358.222251 123.457668 
L 360.945863 125.91875 
L 363.669475 125.46388 
L 366.393086 122.813605 
L 369.116698 122.847617 
L 371.84031 126.284858 
L 374.563922 125.790072 
L 377.287534 127.01781 
L 380.011146 127.460576 
L 382.734758 125.232314 
L 385.45837 125.423093 
L 388.181982 121.955442 
L 390.905594 119.477421 
L 393.629206 118.109075 
L 396.352818 116.970136 
L 399.07643 113.712573 
L 401.800042 108.701409 
L 404.523654 105.06299 
L 407.247266 105.305955 
L 409.970878 103.437017 
L 412.69449 101.928542 
L 415.418102 102.58605 
L 418.141714 100.547072 
L 420.865326 96.776338 
L 423.588938 94.828662 
L 426.31255 94.278125 
L 429.036162 93.346854 
L 431.759773 89.484293 
L 434.483385 87.532309 
L 437.206997 86.445574 
L 439.930609 83.940903 
L 442.654221 84.757406 
L 445.377833 81.978502 
L 448.101445 84.157053 
L 450.825057 83.040792 
L 453.548669 80.758872 
L 456.272281 80.2728 
L 458.995893 74.660362 
L 461.719505 74.922944 
L 464.443117 73.452179 
L 467.166729 68.822125 
L 469.890341 70.344954 
L 469.890341 70.344954 
" clip-path="url(#p6f191e51c2)" style="fill: none; stroke: #8c564b; stroke-width: 1.5; stroke-linecap: square"/>
   </g>
   <g id="patch_3">
    <path d="M 43.78125 299.518125 
L 43.78125 22.318125 
" style="fill: none; stroke: #000000; stroke-width: 0.8; stroke-linejoin: miter; stroke-linecap: square"/>
   </g>
   <g id="patch_4">
    <path d="M 490.18125 299.518125 
L 490.18125 22.318125 
" style="fill: none; stroke: #000000; stroke-width: 0.8; stroke-linejoin: miter; stroke-linecap: square"/>
   </g>
   <g id="patch_5">
    <path d="M 43.78125 299.518125 
L 490.18125 299.518125 
" style="fill: none; stroke: #000000; stroke-width: 0.8; stroke-linejoin: miter; stroke-linecap: square"/>
   </g>
   <g id="patch_6">
    <path d="M 43.78125 22.318125 
L 490.18125 22.318125 
" style="fill: none; stroke: #000000; stroke-width: 0.8; stroke-linejoin: miter; stroke-linecap: square"/>
   </g>
   <g id="text_19">
    <!-- Detection Ratio: SBM-4k (Peak 80) -->
    <g transform="translate(163.664062 16.318125) scale(0.12 -0.12)">
     <defs>
      <path id="DejaVuSans-3a" d="M 750 794 
L 1409 794 
L 1409 0 
L 750 0 
L 750 794 
z
M 750 3309 
L 1409 3309 
L 1409 2516 
L 750 2516 
L 750 3309 
z
" transform="scale(0.015625)"/>
      <path id="DejaVuSans-42" d="M 1259 2228 
L 1259 519 
L 2272 519 
Q 2781 519 3026 730 
Q 3272 941 3272 1375 
Q 3272 1813 3026 2020 
Q 2781 2228 2272 2228 
L 1259 2228 
z
M 1259 4147 
L 1259 2741 
L 2194 2741 
Q 2656 2741 2882 2914 
Q 3109 3088 3109 3444 
Q 3109 3797 2882 3972 
Q 2656 4147 2194 4147 
L 1259 4147 
z
M 628 4666 
L 2241 4666 
Q 2963 4666 3353 4366 
Q 3744 4066 3744 3513 
Q 3744 3084 3544 2831 
Q 3344 2578 2956 2516 
Q 3422 2416 3680 2098 
Q 3938 1781 3938 1306 
Q 3938 681 3513 340 
Q 3088 0 2303 0 
L 628 0 
L 628 4666 
z
" transform="scale(0.015625)"/>
      <path id="DejaVuSans-4d" d="M 628 4666 
L 1569 4666 
L 2759 1491 
L 3956 4666 
L 4897 4666 
L 4897 0 
L 4281 0 
L 4281 4097 
L 3078 897 
L 2444 897 
L 1241 4097 
L 1241 0 
L 628 0 
L 628 4666 
z
" transform="scale(0.015625)"/>
      <path id="DejaVuSans-2d" d="M 313 2009 
L 1997 2009 
L 1997 1497 
L 313 1497 
L 313 2009 
z
" transform="scale(0.015625)"/>
      <path id="DejaVuSans-6b" d="M 581 4863 
L 1159 4863 
L 1159 1991 
L 2875 3500 
L 3609 3500 
L 1753 1863 
L 3688 0 
L 2938 0 
L 1159 1709 
L 1159 0 
L 581 0 
L 581 4863 
z
" transform="scale(0.015625)"/>
      <path id="DejaVuSans-50" d="M 1259 4147 
L 1259 2394 
L 2053 2394 
Q 2494 2394 2734 2622 
Q 2975 2850 2975 3272 
Q 2975 3691 2734 3919 
Q 2494 4147 2053 4147 
L 1259 4147 
z
M 628 4666 
L 2053 4666 
Q 2838 4666 3239 4311 
Q 3641 3956 3641 3272 
Q 3641 2581 3239 2228 
Q 2838 1875 2053 1875 
L 1259 1875 
L 1259 0 
L 628 0 
L 628 4666 
z
" transform="scale(0.015625)"/>
     </defs>
     <use xlink:href="#DejaVuSans-44"/>
     <use xlink:href="#DejaVuSans-65" transform="translate(77.001953 0)"/>
     <use xlink:href="#DejaVuSans-74" transform="translate(138.525391 0)"/>
     <use xlink:href="#DejaVuSans-65" transform="translate(177.734375 0)"/>
     <use xlink:href="#DejaVuSans-63" transform="translate(239.257812 0)"/>
     <use xlink:href="#DejaVuSans-74" transform="translate(294.238281 0)"/>
     <use xlink:href="#DejaVuSans-69" transform="translate(333.447266 0)"/>
     <use xlink:href="#DejaVuSans-6f" transform="translate(361.230469 0)"/>
     <use xlink:href="#DejaVuSans-6e" transform="translate(422.412109 0)"/>
     <use xlink:href="#DejaVuSans-20" transform="translate(485.791016 0)"/>
     <use xlink:href="#DejaVuSans-52" transform="translate(517.578125 0)"/>
     <use xlink:href="#DejaVuSans-61" transform="translate(584.810547 0)"/>
     <use xlink:href="#DejaVuSans-74" transform="translate(646.089844 0)"/>
     <use xlink:href="#DejaVuSans-69" transform="translate(685.298828 0)"/>
     <use xlink:href="#DejaVuSans-6f" transform="translate(713.082031 0)"/>
     <use xlink:href="#DejaVuSans-3a" transform="translate(774.263672 0)"/>
     <use xlink:href="#DejaVuSans-20" transform="translate(807.955078 0)"/>
     <use xlink:href="#DejaVuSans-53" transform="translate(839.742188 0)"/>
     <use xlink:href="#DejaVuSans-42" transform="translate(903.21875 0)"/>
     <use xlink:href="#DejaVuSans-4d" transform="translate(971.822266 0)"/>
     <use xlink:href="#DejaVuSans-2d" transform="translate(1058.101562 0)"/>
     <use xlink:href="#DejaVuSans-34" transform="translate(1094.185547 0)"/>
     <use xlink:href="#DejaVuSans-6b" transform="translate(1157.808594 0)"/>
     <use xlink:href="#DejaVuSans-20" transform="translate(1215.71875 0)"/>
     <use xlink:href="#DejaVuSans-28" transform="translate(1247.505859 0)"/>
     <use xlink:href="#DejaVuSans-50" transform="translate(1286.519531 0)"/>
     <use xlink:href="#DejaVuSans-65" transform="translate(1343.197266 0)"/>
     <use xlink:href="#DejaVuSans-61" transform="translate(1404.720703 0)"/>
     <use xlink:href="#DejaVuSans-6b" transform="translate(1466 0)"/>
     <use xlink:href="#DejaVuSans-20" transform="translate(1523.910156 0)"/>
     <use xlink:href="#DejaVuSans-38" transform="translate(1555.697266 0)"/>
     <use xlink:href="#DejaVuSans-30" transform="translate(1619.320312 0)"/>
     <use xlink:href="#DejaVuSans-29" transform="translate(1682.943359 0)"/>
    </g>
   </g>
   <g id="legend_1">
    <g id="patch_7">
     <path d="M 50.08125 108.78 
L 156.426094 108.78 
Q 158.226094 108.78 158.226094 106.98 
L 158.226094 28.618125 
Q 158.226094 26.818125 156.426094 26.818125 
L 50.08125 26.818125 
Q 48.28125 26.818125 48.28125 28.618125 
L 48.28125 106.98 
Q 48.28125 108.78 50.08125 108.78 
z
" style="fill: #ffffff; opacity: 0.8; stroke: #cccccc; stroke-linejoin: miter"/>
    </g>
    <g id="line2d_39">
     <path d="M 51.88125 34.106719 
L 60.88125 34.106719 
L 69.88125 34.106719 
" style="fill: none; stroke: #1f77b4; stroke-width: 1.5; stroke-linecap: square"/>
    </g>
    <g id="text_20">
     <!-- LocalGNTS-14 -->
     <g transform="translate(77.08125 37.256719) scale(0.09 -0.09)">
      <defs>
       <path id="DejaVuSans-4c" d="M 628 4666 
L 1259 4666 
L 1259 531 
L 3531 531 
L 3531 0 
L 628 0 
L 628 4666 
z
" transform="scale(0.015625)"/>
       <path id="DejaVuSans-47" d="M 3809 666 
L 3809 1919 
L 2778 1919 
L 2778 2438 
L 4434 2438 
L 4434 434 
Q 4069 175 3628 42 
Q 3188 -91 2688 -91 
Q 1594 -91 976 548 
Q 359 1188 359 2328 
Q 359 3472 976 4111 
Q 1594 4750 2688 4750 
Q 3144 4750 3555 4637 
Q 3966 4525 4313 4306 
L 4313 3634 
Q 3963 3931 3569 4081 
Q 3175 4231 2741 4231 
Q 1884 4231 1454 3753 
Q 1025 3275 1025 2328 
Q 1025 1384 1454 906 
Q 1884 428 2741 428 
Q 3075 428 3337 486 
Q 3600 544 3809 666 
z
" transform="scale(0.015625)"/>
       <path id="DejaVuSans-4e" d="M 628 4666 
L 1478 4666 
L 3547 763 
L 3547 4666 
L 4159 4666 
L 4159 0 
L 3309 0 
L 1241 3903 
L 1241 0 
L 628 0 
L 628 4666 
z
" transform="scale(0.015625)"/>
       <path id="DejaVuSans-54" d="M -19 4666 
L 3928 4666 
L 3928 4134 
L 2272 4134 
L 2272 0 
L 1638 0 
L 1638 4134 
L -19 4134 
L -19 4666 
z
" transform="scale(0.015625)"/>
      </defs>
      <use xlink:href="#DejaVuSans-4c"/>
      <use xlink:href="#DejaVuSans-6f" transform="translate(53.962891 0)"/>
      <use xlink:href="#DejaVuSans-63" transform="translate(115.144531 0)"/>
      <use xlink:href="#DejaVuSans-61" transform="translate(170.125 0)"/>
      <use xlink:href="#DejaVuSans-6c" transform="translate(231.404297 0)"/>
      <use xlink:href="#DejaVuSans-47" transform="translate(259.1875 0)"/>
      <use xlink:href="#DejaVuSans-4e" transform="translate(336.677734 0)"/>
      <use xlink:href="#DejaVuSans-54" transform="translate(411.482422 0)"/>
      <use xlink:href="#DejaVuSans-53" transform="translate(472.566406 0)"/>
      <use xlink:href="#DejaVuSans-2d" transform="translate(536.042969 0)"/>
      <use xlink:href="#DejaVuSans-31" transform="translate(572.126953 0)"/>
      <use xlink:href="#DejaVuSans-34" transform="translate(635.75 0)"/>
     </g>
    </g>
    <g id="line2d_40">
     <path d="M 51.88125 47.317031 
L 60.88125 47.317031 
L 69.88125 47.317031 
" style="fill: none; stroke: #ff7f0e; stroke-width: 1.5; stroke-linecap: square"/>
    </g>
    <g id="text_21">
     <!-- GlobalGNTS-14 -->
     <g transform="translate(77.08125 50.467031) scale(0.09 -0.09)">
      <defs>
       <path id="DejaVuSans-62" d="M 3116 1747 
Q 3116 2381 2855 2742 
Q 2594 3103 2138 3103 
Q 1681 3103 1420 2742 
Q 1159 2381 1159 1747 
Q 1159 1113 1420 752 
Q 1681 391 2138 391 
Q 2594 391 2855 752 
Q 3116 1113 3116 1747 
z
M 1159 2969 
Q 1341 3281 1617 3432 
Q 1894 3584 2278 3584 
Q 2916 3584 3314 3078 
Q 3713 2572 3713 1747 
Q 3713 922 3314 415 
Q 2916 -91 2278 -91 
Q 1894 -91 1617 61 
Q 1341 213 1159 525 
L 1159 0 
L 581 0 
L 581 4863 
L 1159 4863 
L 1159 2969 
z
" transform="scale(0.015625)"/>
      </defs>
      <use xlink:href="#DejaVuSans-47"/>
      <use xlink:href="#DejaVuSans-6c" transform="translate(77.490234 0)"/>
      <use xlink:href="#DejaVuSans-6f" transform="translate(105.273438 0)"/>
      <use xlink:href="#DejaVuSans-62" transform="translate(166.455078 0)"/>
      <use xlink:href="#DejaVuSans-61" transform="translate(229.931641 0)"/>
      <use xlink:href="#DejaVuSans-6c" transform="translate(291.210938 0)"/>
      <use xlink:href="#DejaVuSans-47" transform="translate(318.994141 0)"/>
      <use xlink:href="#DejaVuSans-4e" transform="translate(396.484375 0)"/>
      <use xlink:href="#DejaVuSans-54" transform="translate(471.289062 0)"/>
      <use xlink:href="#DejaVuSans-53" transform="translate(532.373047 0)"/>
      <use xlink:href="#DejaVuSans-2d" transform="translate(595.849609 0)"/>
      <use xlink:href="#DejaVuSans-31" transform="translate(631.933594 0)"/>
      <use xlink:href="#DejaVuSans-34" transform="translate(695.556641 0)"/>
     </g>
    </g>
    <g id="line2d_41">
     <path d="M 51.88125 60.527344 
L 60.88125 60.527344 
L 69.88125 60.527344 
" style="fill: none; stroke: #2ca02c; stroke-width: 1.5; stroke-linecap: square"/>
    </g>
    <g id="text_22">
     <!-- Beta-Binomial-14 -->
     <g transform="translate(77.08125 63.677344) scale(0.09 -0.09)">
      <use xlink:href="#DejaVuSans-42"/>
      <use xlink:href="#DejaVuSans-65" transform="translate(68.603516 0)"/>
      <use xlink:href="#DejaVuSans-74" transform="translate(130.126953 0)"/>
      <use xlink:href="#DejaVuSans-61" transform="translate(169.335938 0)"/>
      <use xlink:href="#DejaVuSans-2d" transform="translate(230.615234 0)"/>
      <use xlink:href="#DejaVuSans-42" transform="translate(263.074219 0)"/>
      <use xlink:href="#DejaVuSans-69" transform="translate(331.677734 0)"/>
      <use xlink:href="#DejaVuSans-6e" transform="translate(359.460938 0)"/>
      <use xlink:href="#DejaVuSans-6f" transform="translate(422.839844 0)"/>
      <use xlink:href="#DejaVuSans-6d" transform="translate(484.021484 0)"/>
      <use xlink:href="#DejaVuSans-69" transform="translate(581.433594 0)"/>
      <use xlink:href="#DejaVuSans-61" transform="translate(609.216797 0)"/>
      <use xlink:href="#DejaVuSans-6c" transform="translate(670.496094 0)"/>
      <use xlink:href="#DejaVuSans-2d" transform="translate(698.279297 0)"/>
      <use xlink:href="#DejaVuSans-31" transform="translate(734.363281 0)"/>
      <use xlink:href="#DejaVuSans-34" transform="translate(797.986328 0)"/>
     </g>
    </g>
    <g id="line2d_42">
     <path d="M 51.88125 73.737656 
L 60.88125 73.737656 
L 69.88125 73.737656 
" style="fill: none; stroke: #d62728; stroke-width: 1.5; stroke-linecap: square"/>
    </g>
    <g id="text_23">
     <!-- Proportional -->
     <g transform="translate(77.08125 76.887656) scale(0.09 -0.09)">
      <defs>
       <path id="DejaVuSans-72" d="M 2631 2963 
Q 2534 3019 2420 3045 
Q 2306 3072 2169 3072 
Q 1681 3072 1420 2755 
Q 1159 2438 1159 1844 
L 1159 0 
L 581 0 
L 581 3500 
L 1159 3500 
L 1159 2956 
Q 1341 3275 1631 3429 
Q 1922 3584 2338 3584 
Q 2397 3584 2469 3576 
Q 2541 3569 2628 3553 
L 2631 2963 
z
" transform="scale(0.015625)"/>
       <path id="DejaVuSans-70" d="M 1159 525 
L 1159 -1331 
L 581 -1331 
L 581 3500 
L 1159 3500 
L 1159 2969 
Q 1341 3281 1617 3432 
Q 1894 3584 2278 3584 
Q 2916 3584 3314 3078 
Q 3713 2572 3713 1747 
Q 3713 922 3314 415 
Q 2916 -91 2278 -91 
Q 1894 -91 1617 61 
Q 1341 213 1159 525 
z
M 3116 1747 
Q 3116 2381 2855 2742 
Q 2594 3103 2138 3103 
Q 1681 3103 1420 2742 
Q 1159 2381 1159 1747 
Q 1159 1113 1420 752 
Q 1681 391 2138 391 
Q 2594 391 2855 752 
Q 3116 1113 3116 1747 
z
" transform="scale(0.015625)"/>
      </defs>
      <use xlink:href="#DejaVuSans-50"/>
      <use xlink:href="#DejaVuSans-72" transform="translate(58.552734 0)"/>
      <use xlink:href="#DejaVuSans-6f" transform="translate(97.416016 0)"/>
      <use xlink:href="#DejaVuSans-70" transform="translate(158.597656 0)"/>
      <use xlink:href="#DejaVuSans-6f" transform="translate(222.074219 0)"/>
      <use xlink:href="#DejaVuSans-72" transform="translate(283.255859 0)"/>
      <use xlink:href="#DejaVuSans-74" transform="translate(324.369141 0)"/>
      <use xlink:href="#DejaVuSans-69" transform="translate(363.578125 0)"/>
      <use xlink:href="#DejaVuSans-6f" transform="translate(391.361328 0)"/>
      <use xlink:href="#DejaVuSans-6e" transform="translate(452.542969 0)"/>
      <use xlink:href="#DejaVuSans-61" transform="translate(515.921875 0)"/>
      <use xlink:href="#DejaVuSans-6c" transform="translate(577.201172 0)"/>
     </g>
    </g>
    <g id="line2d_43">
     <path d="M 51.88125 86.947969 
L 60.88125 86.947969 
L 69.88125 86.947969 
" style="fill: none; stroke: #9467bd; stroke-width: 1.5; stroke-linecap: square"/>
    </g>
    <g id="text_24">
     <!-- Uniform -->
     <g transform="translate(77.08125 90.097969) scale(0.09 -0.09)">
      <defs>
       <path id="DejaVuSans-55" d="M 556 4666 
L 1191 4666 
L 1191 1831 
Q 1191 1081 1462 751 
Q 1734 422 2344 422 
Q 2950 422 3222 751 
Q 3494 1081 3494 1831 
L 3494 4666 
L 4128 4666 
L 4128 1753 
Q 4128 841 3676 375 
Q 3225 -91 2344 -91 
Q 1459 -91 1007 375 
Q 556 841 556 1753 
L 556 4666 
z
" transform="scale(0.015625)"/>
      </defs>
      <use xlink:href="#DejaVuSans-55"/>
      <use xlink:href="#DejaVuSans-6e" transform="translate(73.193359 0)"/>
      <use xlink:href="#DejaVuSans-69" transform="translate(136.572266 0)"/>
      <use xlink:href="#DejaVuSans-66" transform="translate(164.355469 0)"/>
      <use xlink:href="#DejaVuSans-6f" transform="translate(199.560547 0)"/>
      <use xlink:href="#DejaVuSans-72" transform="translate(260.742188 0)"/>
      <use xlink:href="#DejaVuSans-6d" transform="translate(300.105469 0)"/>
     </g>
    </g>
    <g id="line2d_44">
     <path d="M 51.88125 100.158281 
L 60.88125 100.158281 
L 69.88125 100.158281 
" style="fill: none; stroke: #8c564b; stroke-width: 1.5; stroke-linecap: square"/>
    </g>
    <g id="text_25">
     <!-- Random -->
     <g transform="translate(77.08125 103.308281) scale(0.09 -0.09)">
      <defs>
       <path id="DejaVuSans-64" d="M 2906 2969 
L 2906 4863 
L 3481 4863 
L 3481 0 
L 2906 0 
L 2906 525 
Q 2725 213 2448 61 
Q 2172 -91 1784 -91 
Q 1150 -91 751 415 
Q 353 922 353 1747 
Q 353 2572 751 3078 
Q 1150 3584 1784 3584 
Q 2172 3584 2448 3432 
Q 2725 3281 2906 2969 
z
M 947 1747 
Q 947 1113 1208 752 
Q 1469 391 1925 391 
Q 2381 391 2643 752 
Q 2906 1113 2906 1747 
Q 2906 2381 2643 2742 
Q 2381 3103 1925 3103 
Q 1469 3103 1208 2742 
Q 947 2381 947 1747 
z
" transform="scale(0.015625)"/>
      </defs>
      <use xlink:href="#DejaVuSans-52"/>
      <use xlink:href="#DejaVuSans-61" transform="translate(67.232422 0)"/>
      <use xlink:href="#DejaVuSans-6e" transform="translate(128.511719 0)"/>
      <use xlink:href="#DejaVuSans-64" transform="translate(191.890625 0)"/>
      <use xlink:href="#DejaVuSans-6f" transform="translate(255.367188 0)"/>
      <use xlink:href="#DejaVuSans-6d" transform="translate(316.548828 0)"/>
     </g>
    </g>
   </g>
  </g>
 </g>
 <defs>
  <clipPath id="p6f191e51c2">
   <rect x="43.78125" y="22.318125" width="446.4" height="277.2"/>
  </clipPath>
 </defs>
</svg>
