<?xml version="1.0" encoding="utf-8" standalone="no"?>
<!DOCTYPE svg PUBLIC "-//W3C//DTD SVG 1.1//EN"
  "http://www.w3.org/Graphics/SVG/1.1/DTD/svg11.dtd">
<svg xmlns:xlink="http://www.w3.org/1999/xlink" width="497.38125pt" height="337.074375pt" viewBox="0 0 497.38125 337.074375" xmlns="http://www.w3.org/2000/svg" version="1.1">
 <metadata>
  <rdf:RDF xmlns:dc="http://purl.org/dc/elements/1.1/" xmlns:cc="http://creativecommons.org/ns#" xmlns:rdf="http://www.w3.org/1999/02/22-rdf-syntax-ns#">
   <cc:Work>
    <dc:type rdf:resource="http://purl.org/dc/dcmitype/StillImage"/>
    <dc:date>2026-07-02T08:47:33.723172</dc:date>
    <dc:format>image/svg+xml</dc:format>
    <dc:creator>
     <cc:Agent>
      <dc:title>Matplotlib v3.10.8, https://matplotlib.org/</dc:title>
     </cc:Agent>
    </dc:creator>
   </cc:Work>
  </rdf:RDF>
 </metadata>
 <defs>
  <style type="text/css">*{stroke-linejoin: round; stroke-linecap: butt}</style>
 </defs>
 <g id="figure_1">
  <g id="patch_1">
   <path d="M 0 337.074375 
L 497.38125 337.074375 
L 497.38125 0 
L 0 0 
z
" style="fill: #ffffff"/>
  </g>
  <g id="axes_1">
   <g id="patch_2">
    <path d="M 43.78125 299.518125 
L 490.18125 299.518125 
L 490.18125 22.318125 
L 43.78125 22.318125 
z
" style="fill: #ffffff"/>
   </g>
   <g id="matplotlib.axis_1">
    <g id="xtick_1">
     <g id="line2d_1">
      <path d="M 64.072159 299.518125 
L 64.072159 22.318125 
" clip-path="url(#p18fbc7b205)" style="fill: none; stroke-dasharray: 1.85,0.8; stroke-dashoffset: 0; stroke: #b0b0b0; stroke-opacity: 0.6; stroke-width: 0.5"/>
     </g>
     <g id="line2d_2">
      <defs>
       <path id="m832145d70f" d="M 0 0 
L 0 3.5 
" style="stroke: #000000; stroke-width: 0.8"/>
      </defs>
      <g>
       <use xlink:href="#m832145d70f" x="64.072159" y="299.518125" style="stroke: #000000; stroke-width: 0.8"/>
      </g>
     </g>
     <g id="text_1">
      <!-- 0 -->
      <g transform="translate(60.890909 314.116563) scale(0.1 -0.1)">
       <defs>
        <path id="DejaVuSans-30" d="M 2034 4250 
Q 1547 4250 1301 3770 
Q 1056 3291 1056 2328 
Q 1056 1369 1301 889 
Q 1547 409 2034 409 
Q 2525 409 2770 889 
Q 3016 1369 3016 2328 
Q 3016 3291 2770 3770 
Q 2525 4250 2034 4250 
z
M 2034 4750 
Q 2819 4750 3233 4129 
Q 3647 3509 3647 2328 
Q 3647 1150 3233 529 
Q 2819 -91 2034 -91 
Q 1250 -91 836 529 
Q 422 1150 422 2328 
Q 422 3509 836 4129 
Q 1250 4750 2034 4750 
z
" transform="scale(0.015625)"/>
       </defs>
       <use xlink:href="#DejaVuSans-30"/>
      </g>
     </g>
    </g>
    <g id="xtick_2">
     <g id="line2d_3">
      <path d="M 118.544398 299.518125 
L 118.544398 22.318125 
" clip-path="url(#p18fbc7b205)" style="fill: none; stroke-dasharray: 1.85,0.8; stroke-dashoffset: 0; stroke: #b0b0b0; stroke-opacity: 0.6; stroke-width: 0.5"/>
     </g>
     <g id="line2d_4">
      <g>
       <use xlink:href="#m832145d70f" x="118.544398" y="299.518125" style="stroke: #000000; stroke-width: 0.8"/>
      </g>
     </g>
     <g id="text_2">
      <!-- 20 -->
      <g transform="translate(112.181898 314.116563) scale(0.1 -0.1)">
       <defs>
        <path id="DejaVuSans-32" d="M 1228 531 
L 3431 531 
L 3431 0 
L 469 0 
L 469 531 
Q 828 903 1448 1529 
Q 2069 2156 2228 2338 
Q 2531 2678 2651 2914 
Q 2772 3150 2772 3378 
Q 2772 3750 2511 3984 
Q 2250 4219 1831 4219 
Q 1534 4219 1204 4116 
Q 875 4013 500 3803 
L 500 4441 
Q 881 4594 1212 4672 
Q 1544 4750 1819 4750 
Q 2544 4750 2975 4387 
Q 3406 4025 3406 3419 
Q 3406 3131 3298 2873 
Q 3191 2616 2906 2266 
Q 2828 2175 2409 1742 
Q 1991 1309 1228 531 
z
" transform="scale(0.015625)"/>
       </defs>
       <use xlink:href="#DejaVuSans-32"/>
       <use xlink:href="#DejaVuSans-30" transform="translate(63.623047 0)"/>
      </g>
     </g>
    </g>
    <g id="xtick_3">
     <g id="line2d_5">
      <path d="M 173.016637 299.518125 
L 173.016637 22.318125 
" clip-path="url(#p18fbc7b205)" style="fill: none; stroke-dasharray: 1.85,0.8; stroke-dashoffset: 0; stroke: #b0b0b0; stroke-opacity: 0.6; stroke-width: 0.5"/>
     </g>
     <g id="line2d_6">
      <g>
       <use xlink:href="#m832145d70f" x="173.016637" y="299.518125" style="stroke: #000000; stroke-width: 0.8"/>
      </g>
     </g>
     <g id="text_3">
      <!-- 40 -->
      <g transform="translate(166.654137 314.116563) scale(0.1 -0.1)">
       <defs>
        <path id="DejaVuSans-34" d="M 2419 4116 
L 825 1625 
L 2419 1625 
L 2419 4116 
z
M 2253 4666 
L 3047 4666 
L 3047 1625 
L 3713 1625 
L 3713 1100 
L 3047 1100 
L 3047 0 
L 2419 0 
L 2419 1100 
L 313 1100 
L 313 1709 
L 2253 4666 
z
" transform="scale(0.015625)"/>
       </defs>
       <use xlink:href="#DejaVuSans-34"/>
       <use xlink:href="#DejaVuSans-30" transform="translate(63.623047 0)"/>
      </g>
     </g>
    </g>
    <g id="xtick_4">
     <g id="line2d_7">
      <path d="M 227.488877 299.518125 
L 227.488877 22.318125 
" clip-path="url(#p18fbc7b205)" style="fill: none; stroke-dasharray: 1.85,0.8; stroke-dashoffset: 0; stroke: #b0b0b0; stroke-opacity: 0.6; stroke-width: 0.5"/>
     </g>
     <g id="line2d_8">
      <g>
       <use xlink:href="#m832145d70f" x="227.488877" y="299.518125" style="stroke: #000000; stroke-width: 0.8"/>
      </g>
     </g>
     <g id="text_4">
      <!-- 60 -->
      <g transform="translate(221.126377 314.116563) scale(0.1 -0.1)">
       <defs>
        <path id="DejaVuSans-36" d="M 2113 2584 
Q 1688 2584 1439 2293 
Q 1191 2003 1191 1497 
Q 1191 994 1439 701 
Q 1688 409 2113 409 
Q 2538 409 2786 701 
Q 3034 994 3034 1497 
Q 3034 2003 2786 2293 
Q 2538 2584 2113 2584 
z
M 3366 4563 
L 3366 3988 
Q 3128 4100 2886 4159 
Q 2644 4219 2406 4219 
Q 1781 4219 1451 3797 
Q 1122 3375 1075 2522 
Q 1259 2794 1537 2939 
Q 1816 3084 2150 3084 
Q 2853 3084 3261 2657 
Q 3669 2231 3669 1497 
Q 3669 778 3244 343 
Q 2819 -91 2113 -91 
Q 1303 -91 875 529 
Q 447 1150 447 2328 
Q 447 3434 972 4092 
Q 1497 4750 2381 4750 
Q 2619 4750 2861 4703 
Q 3103 4656 3366 4563 
z
" transform="scale(0.015625)"/>
       </defs>
       <use xlink:href="#DejaVuSans-36"/>
       <use xlink:href="#DejaVuSans-30" transform="translate(63.623047 0)"/>
      </g>
     </g>
    </g>
    <g id="xtick_5">
     <g id="line2d_9">
      <path d="M 281.961116 299.518125 
L 281.961116 22.318125 
" clip-path="url(#p18fbc7b205)" style="fill: none; stroke-dasharray: 1.85,0.8; stroke-dashoffset: 0; stroke: #b0b0b0; stroke-opacity: 0.6; stroke-width: 0.5"/>
     </g>
     <g id="line2d_10">
      <g>
       <use xlink:href="#m832145d70f" x="281.961116" y="299.518125" style="stroke: #000000; stroke-width: 0.8"/>
      </g>
     </g>
     <g id="text_5">
      <!-- 80 -->
      <g transform="translate(275.598616 314.116563) scale(0.1 -0.1)">
       <defs>
        <path id="DejaVuSans-38" d="M 2034 2216 
Q 1584 2216 1326 1975 
Q 1069 1734 1069 1313 
Q 1069 891 1326 650 
Q 1584 409 2034 409 
Q 2484 409 2743 651 
Q 3003 894 3003 1313 
Q 3003 1734 2745 1975 
Q 2488 2216 2034 2216 
z
M 1403 2484 
Q 997 2584 770 2862 
Q 544 3141 544 3541 
Q 544 4100 942 4425 
Q 1341 4750 2034 4750 
Q 2731 4750 3128 4425 
Q 3525 4100 3525 3541 
Q 3525 3141 3298 2862 
Q 3072 2584 2669 2484 
Q 3125 2378 3379 2068 
Q 3634 1759 3634 1313 
Q 3634 634 3220 271 
Q 2806 -91 2034 -91 
Q 1263 -91 848 271 
Q 434 634 434 1313 
Q 434 1759 690 2068 
Q 947 2378 1403 2484 
z
M 1172 3481 
Q 1172 3119 1398 2916 
Q 1625 2713 2034 2713 
Q 2441 2713 2670 2916 
Q 2900 3119 2900 3481 
Q 2900 3844 2670 4047 
Q 2441 4250 2034 4250 
Q 1625 4250 1398 4047 
Q 1172 3844 1172 3481 
z
" transform="scale(0.015625)"/>
       </defs>
       <use xlink:href="#DejaVuSans-38"/>
       <use xlink:href="#DejaVuSans-30" transform="translate(63.623047 0)"/>
      </g>
     </g>
    </g>
    <g id="xtick_6">
     <g id="line2d_11">
      <path d="M 336.433355 299.518125 
L 336.433355 22.318125 
" clip-path="url(#p18fbc7b205)" style="fill: none; stroke-dasharray: 1.85,0.8; stroke-dashoffset: 0; stroke: #b0b0b0; stroke-opacity: 0.6; stroke-width: 0.5"/>
     </g>
     <g id="line2d_12">
      <g>
       <use xlink:href="#m832145d70f" x="336.433355" y="299.518125" style="stroke: #000000; stroke-width: 0.8"/>
      </g>
     </g>
     <g id="text_6">
      <!-- 100 -->
      <g transform="translate(326.889605 314.116563) scale(0.1 -0.1)">
       <defs>
        <path id="DejaVuSans-31" d="M 794 531 
L 1825 531 
L 1825 4091 
L 703 3866 
L 703 4441 
L 1819 4666 
L 2450 4666 
L 2450 531 
L 3481 531 
L 3481 0 
L 794 0 
L 794 531 
z
" transform="scale(0.015625)"/>
       </defs>
       <use xlink:href="#DejaVuSans-31"/>
       <use xlink:href="#DejaVuSans-30" transform="translate(63.623047 0)"/>
       <use xlink:href="#DejaVuSans-30" transform="translate(127.246094 0)"/>
      </g>
     </g>
    </g>
    <g id="xtick_7">
     <g id="line2d_13">
      <path d="M 390.905594 299.518125 
L 390.905594 22.318125 
" clip-path="url(#p18fbc7b205)" style="fill: none; stroke-dasharray: 1.85,0.8; stroke-dashoffset: 0; stroke: #b0b0b0; stroke-opacity: 0.6; stroke-width: 0.5"/>
     </g>
     <g id="line2d_14">
      <g>
       <use xlink:href="#m832145d70f" x="390.905594" y="299.518125" style="stroke: #000000; stroke-width: 0.8"/>
      </g>
     </g>
     <g id="text_7">
      <!-- 120 -->
      <g transform="translate(381.361844 314.116563) scale(0.1 -0.1)">
       <use xlink:href="#DejaVuSans-31"/>
       <use xlink:href="#DejaVuSans-32" transform="translate(63.623047 0)"/>
       <use xlink:href="#DejaVuSans-30" transform="translate(127.246094 0)"/>
      </g>
     </g>
    </g>
    <g id="xtick_8">
     <g id="line2d_15">
      <path d="M 445.377833 299.518125 
L 445.377833 22.318125 
" clip-path="url(#p18fbc7b205)" style="fill: none; stroke-dasharray: 1.85,0.8; stroke-dashoffset: 0; stroke: #b0b0b0; stroke-opacity: 0.6; stroke-width: 0.5"/>
     </g>
     <g id="line2d_16">
      <g>
       <use xlink:href="#m832145d70f" x="445.377833" y="299.518125" style="stroke: #000000; stroke-width: 0.8"/>
      </g>
     </g>
     <g id="text_8">
      <!-- 140 -->
      <g transform="translate(435.834083 314.116563) scale(0.1 -0.1)">
       <use xlink:href="#DejaVuSans-31"/>
       <use xlink:href="#DejaVuSans-34" transform="translate(63.623047 0)"/>
       <use xlink:href="#DejaVuSans-30" transform="translate(127.246094 0)"/>
      </g>
     </g>
    </g>
    <g id="text_9">
     <!-- Simulation Day -->
     <g transform="translate(228.885937 327.794688) scale(0.1 -0.1)">
      <defs>
       <path id="DejaVuSans-53" d="M 3425 4513 
L 3425 3897 
Q 3066 4069 2747 4153 
Q 2428 4238 2131 4238 
Q 1616 4238 1336 4038 
Q 1056 3838 1056 3469 
Q 1056 3159 1242 3001 
Q 1428 2844 1947 2747 
L 2328 2669 
Q 3034 2534 3370 2195 
Q 3706 1856 3706 1288 
Q 3706 609 3251 259 
Q 2797 -91 1919 -91 
Q 1588 -91 1214 -16 
Q 841 59 441 206 
L 441 856 
Q 825 641 1194 531 
Q 1563 422 1919 422 
Q 2459 422 2753 634 
Q 3047 847 3047 1241 
Q 3047 1584 2836 1778 
Q 2625 1972 2144 2069 
L 1759 2144 
Q 1053 2284 737 2584 
Q 422 2884 422 3419 
Q 422 4038 858 4394 
Q 1294 4750 2059 4750 
Q 2388 4750 2728 4690 
Q 3069 4631 3425 4513 
z
" transform="scale(0.015625)"/>
       <path id="DejaVuSans-69" d="M 603 3500 
L 1178 3500 
L 1178 0 
L 603 0 
L 603 3500 
z
M 603 4863 
L 1178 4863 
L 1178 4134 
L 603 4134 
L 603 4863 
z
" transform="scale(0.015625)"/>
       <path id="DejaVuSans-6d" d="M 3328 2828 
Q 3544 3216 3844 3400 
Q 4144 3584 4550 3584 
Q 5097 3584 5394 3201 
Q 5691 2819 5691 2113 
L 5691 0 
L 5113 0 
L 5113 2094 
Q 5113 2597 4934 2840 
Q 4756 3084 4391 3084 
Q 3944 3084 3684 2787 
Q 3425 2491 3425 1978 
L 3425 0 
L 2847 0 
L 2847 2094 
Q 2847 2600 2669 2842 
Q 2491 3084 2119 3084 
Q 1678 3084 1418 2786 
Q 1159 2488 1159 1978 
L 1159 0 
L 581 0 
L 581 3500 
L 1159 3500 
L 1159 2956 
Q 1356 3278 1631 3431 
Q 1906 3584 2284 3584 
Q 2666 3584 2933 3390 
Q 3200 3197 3328 2828 
z
" transform="scale(0.015625)"/>
       <path id="DejaVuSans-75" d="M 544 1381 
L 544 3500 
L 1119 3500 
L 1119 1403 
Q 1119 906 1312 657 
Q 1506 409 1894 409 
Q 2359 409 2629 706 
Q 2900 1003 2900 1516 
L 2900 3500 
L 3475 3500 
L 3475 0 
L 2900 0 
L 2900 538 
Q 2691 219 2414 64 
Q 2138 -91 1772 -91 
Q 1169 -91 856 284 
Q 544 659 544 1381 
z
M 1991 3584 
L 1991 3584 
z
" transform="scale(0.015625)"/>
       <path id="DejaVuSans-6c" d="M 603 4863 
L 1178 4863 
L 1178 0 
L 603 0 
L 603 4863 
z
" transform="scale(0.015625)"/>
       <path id="DejaVuSans-61" d="M 2194 1759 
Q 1497 1759 1228 1600 
Q 959 1441 959 1056 
Q 959 750 1161 570 
Q 1363 391 1709 391 
Q 2188 391 2477 730 
Q 2766 1069 2766 1631 
L 2766 1759 
L 2194 1759 
z
M 3341 1997 
L 3341 0 
L 2766 0 
L 2766 531 
Q 2569 213 2275 61 
Q 1981 -91 1556 -91 
Q 1019 -91 701 211 
Q 384 513 384 1019 
Q 384 1609 779 1909 
Q 1175 2209 1959 2209 
L 2766 2209 
L 2766 2266 
Q 2766 2663 2505 2880 
Q 2244 3097 1772 3097 
Q 1472 3097 1187 3025 
Q 903 2953 641 2809 
L 641 3341 
Q 956 3463 1253 3523 
Q 1550 3584 1831 3584 
Q 2591 3584 2966 3190 
Q 3341 2797 3341 1997 
z
" transform="scale(0.015625)"/>
       <path id="DejaVuSans-74" d="M 1172 4494 
L 1172 3500 
L 2356 3500 
L 2356 3053 
L 1172 3053 
L 1172 1153 
Q 1172 725 1289 603 
Q 1406 481 1766 481 
L 2356 481 
L 2356 0 
L 1766 0 
Q 1100 0 847 248 
Q 594 497 594 1153 
L 594 3053 
L 172 3053 
L 172 3500 
L 594 3500 
L 594 4494 
L 1172 4494 
z
" transform="scale(0.015625)"/>
       <path id="DejaVuSans-6f" d="M 1959 3097 
Q 1497 3097 1228 2736 
Q 959 2375 959 1747 
Q 959 1119 1226 758 
Q 1494 397 1959 397 
Q 2419 397 2687 759 
Q 2956 1122 2956 1747 
Q 2956 2369 2687 2733 
Q 2419 3097 1959 3097 
z
M 1959 3584 
Q 2709 3584 3137 3096 
Q 3566 2609 3566 1747 
Q 3566 888 3137 398 
Q 2709 -91 1959 -91 
Q 1206 -91 779 398 
Q 353 888 353 1747 
Q 353 2609 779 3096 
Q 1206 3584 1959 3584 
z
" transform="scale(0.015625)"/>
       <path id="DejaVuSans-6e" d="M 3513 2113 
L 3513 0 
L 2938 0 
L 2938 2094 
Q 2938 2591 2744 2837 
Q 2550 3084 2163 3084 
Q 1697 3084 1428 2787 
Q 1159 2491 1159 1978 
L 1159 0 
L 581 0 
L 581 3500 
L 1159 3500 
L 1159 2956 
Q 1366 3272 1645 3428 
Q 1925 3584 2291 3584 
Q 2894 3584 3203 3211 
Q 3513 2838 3513 2113 
z
" transform="scale(0.015625)"/>
       <path id="DejaVuSans-20" transform="scale(0.015625)"/>
       <path id="DejaVuSans-44" d="M 1259 4147 
L 1259 519 
L 2022 519 
Q 2988 519 3436 956 
Q 3884 1394 3884 2338 
Q 3884 3275 3436 3711 
Q 2988 4147 2022 4147 
L 1259 4147 
z
M 628 4666 
L 1925 4666 
Q 3281 4666 3915 4102 
Q 4550 3538 4550 2338 
Q 4550 1131 3912 565 
Q 3275 0 1925 0 
L 628 0 
L 628 4666 
z
" transform="scale(0.015625)"/>
       <path id="DejaVuSans-79" d="M 2059 -325 
Q 1816 -950 1584 -1140 
Q 1353 -1331 966 -1331 
L 506 -1331 
L 506 -850 
L 844 -850 
Q 1081 -850 1212 -737 
Q 1344 -625 1503 -206 
L 1606 56 
L 191 3500 
L 800 3500 
L 1894 763 
L 2988 3500 
L 3597 3500 
L 2059 -325 
z
" transform="scale(0.015625)"/>
      </defs>
      <use xlink:href="#DejaVuSans-53"/>
      <use xlink:href="#DejaVuSans-69" transform="translate(63.476562 0)"/>
      <use xlink:href="#DejaVuSans-6d" transform="translate(91.259766 0)"/>
      <use xlink:href="#DejaVuSans-75" transform="translate(188.671875 0)"/>
      <use xlink:href="#DejaVuSans-6c" transform="translate(252.050781 0)"/>
      <use xlink:href="#DejaVuSans-61" transform="translate(279.833984 0)"/>
      <use xlink:href="#DejaVuSans-74" transform="translate(341.113281 0)"/>
      <use xlink:href="#DejaVuSans-69" transform="translate(380.322266 0)"/>
      <use xlink:href="#DejaVuSans-6f" transform="translate(408.105469 0)"/>
      <use xlink:href="#DejaVuSans-6e" transform="translate(469.287109 0)"/>
      <use xlink:href="#DejaVuSans-20" transform="translate(532.666016 0)"/>
      <use xlink:href="#DejaVuSans-44" transform="translate(564.453125 0)"/>
      <use xlink:href="#DejaVuSans-61" transform="translate(641.455078 0)"/>
      <use xlink:href="#DejaVuSans-79" transform="translate(702.734375 0)"/>
     </g>
    </g>
   </g>
   <g id="matplotlib.axis_2">
    <g id="ytick_1">
     <g id="line2d_17">
      <path d="M 43.78125 286.918125 
L 490.18125 286.918125 
" clip-path="url(#p18fbc7b205)" style="fill: none; stroke-dasharray: 1.85,0.8; stroke-dashoffset: 0; stroke: #b0b0b0; stroke-opacity: 0.6; stroke-width: 0.5"/>
     </g>
     <g id="line2d_18">
      <defs>
       <path id="m5de85f01af" d="M 0 0 
L -3.5 0 
" style="stroke: #000000; stroke-width: 0.8"/>
      </defs>
      <g>
       <use xlink:href="#m5de85f01af" x="43.78125" y="286.918125" style="stroke: #000000; stroke-width: 0.8"/>
      </g>
     </g>
     <g id="text_10">
      <!-- 0.0 -->
      <g transform="translate(20.878125 290.717344) scale(0.1 -0.1)">
       <defs>
        <path id="DejaVuSans-2e" d="M 684 794 
L 1344 794 
L 1344 0 
L 684 0 
L 684 794 
z
" transform="scale(0.015625)"/>
       </defs>
       <use xlink:href="#DejaVuSans-30"/>
       <use xlink:href="#DejaVuSans-2e" transform="translate(63.623047 0)"/>
       <use xlink:href="#DejaVuSans-30" transform="translate(95.410156 0)"/>
      </g>
     </g>
    </g>
    <g id="ytick_2">
     <g id="line2d_19">
      <path d="M 43.78125 254.890448 
L 490.18125 254.890448 
" clip-path="url(#p18fbc7b205)" style="fill: none; stroke-dasharray: 1.85,0.8; stroke-dashoffset: 0; stroke: #b0b0b0; stroke-opacity: 0.6; stroke-width: 0.5"/>
     </g>
     <g id="line2d_20">
      <g>
       <use xlink:href="#m5de85f01af" x="43.78125" y="254.890448" style="stroke: #000000; stroke-width: 0.8"/>
      </g>
     </g>
     <g id="text_11">
      <!-- 0.1 -->
      <g transform="translate(20.878125 258.689667) scale(0.1 -0.1)">
       <use xlink:href="#DejaVuSans-30"/>
       <use xlink:href="#DejaVuSans-2e" transform="translate(63.623047 0)"/>
       <use xlink:href="#DejaVuSans-31" transform="translate(95.410156 0)"/>
      </g>
     </g>
    </g>
    <g id="ytick_3">
     <g id="line2d_21">
      <path d="M 43.78125 222.862772 
L 490.18125 222.862772 
" clip-path="url(#p18fbc7b205)" style="fill: none; stroke-dasharray: 1.85,0.8; stroke-dashoffset: 0; stroke: #b0b0b0; stroke-opacity: 0.6; stroke-width: 0.5"/>
     </g>
     <g id="line2d_22">
      <g>
       <use xlink:href="#m5de85f01af" x="43.78125" y="222.862772" style="stroke: #000000; stroke-width: 0.8"/>
      </g>
     </g>
     <g id="text_12">
      <!-- 0.2 -->
      <g transform="translate(20.878125 226.661991) scale(0.1 -0.1)">
       <use xlink:href="#DejaVuSans-30"/>
       <use xlink:href="#DejaVuSans-2e" transform="translate(63.623047 0)"/>
       <use xlink:href="#DejaVuSans-32" transform="translate(95.410156 0)"/>
      </g>
     </g>
    </g>
    <g id="ytick_4">
     <g id="line2d_23">
      <path d="M 43.78125 190.835095 
L 490.18125 190.835095 
" clip-path="url(#p18fbc7b205)" style="fill: none; stroke-dasharray: 1.85,0.8; stroke-dashoffset: 0; stroke: #b0b0b0; stroke-opacity: 0.6; stroke-width: 0.5"/>
     </g>
     <g id="line2d_24">
      <g>
       <use xlink:href="#m5de85f01af" x="43.78125" y="190.835095" style="stroke: #000000; stroke-width: 0.8"/>
      </g>
     </g>
     <g id="text_13">
      <!-- 0.3 -->
      <g transform="translate(20.878125 194.634314) scale(0.1 -0.1)">
       <defs>
        <path id="DejaVuSans-33" d="M 2597 2516 
Q 3050 2419 3304 2112 
Q 3559 1806 3559 1356 
Q 3559 666 3084 287 
Q 2609 -91 1734 -91 
Q 1441 -91 1130 -33 
Q 819 25 488 141 
L 488 750 
Q 750 597 1062 519 
Q 1375 441 1716 441 
Q 2309 441 2620 675 
Q 2931 909 2931 1356 
Q 2931 1769 2642 2001 
Q 2353 2234 1838 2234 
L 1294 2234 
L 1294 2753 
L 1863 2753 
Q 2328 2753 2575 2939 
Q 2822 3125 2822 3475 
Q 2822 3834 2567 4026 
Q 2313 4219 1838 4219 
Q 1578 4219 1281 4162 
Q 984 4106 628 3988 
L 628 4550 
Q 988 4650 1302 4700 
Q 1616 4750 1894 4750 
Q 2613 4750 3031 4423 
Q 3450 4097 3450 3541 
Q 3450 3153 3228 2886 
Q 3006 2619 2597 2516 
z
" transform="scale(0.015625)"/>
       </defs>
       <use xlink:href="#DejaVuSans-30"/>
       <use xlink:href="#DejaVuSans-2e" transform="translate(63.623047 0)"/>
       <use xlink:href="#DejaVuSans-33" transform="translate(95.410156 0)"/>
      </g>
     </g>
    </g>
    <g id="ytick_5">
     <g id="line2d_25">
      <path d="M 43.78125 158.807419 
L 490.18125 158.807419 
" clip-path="url(#p18fbc7b205)" style="fill: none; stroke-dasharray: 1.85,0.8; stroke-dashoffset: 0; stroke: #b0b0b0; stroke-opacity: 0.6; stroke-width: 0.5"/>
     </g>
     <g id="line2d_26">
      <g>
       <use xlink:href="#m5de85f01af" x="43.78125" y="158.807419" style="stroke: #000000; stroke-width: 0.8"/>
      </g>
     </g>
     <g id="text_14">
      <!-- 0.4 -->
      <g transform="translate(20.878125 162.606637) scale(0.1 -0.1)">
       <use xlink:href="#DejaVuSans-30"/>
       <use xlink:href="#DejaVuSans-2e" transform="translate(63.623047 0)"/>
       <use xlink:href="#DejaVuSans-34" transform="translate(95.410156 0)"/>
      </g>
     </g>
    </g>
    <g id="ytick_6">
     <g id="line2d_27">
      <path d="M 43.78125 126.779742 
L 490.18125 126.779742 
" clip-path="url(#p18fbc7b205)" style="fill: none; stroke-dasharray: 1.85,0.8; stroke-dashoffset: 0; stroke: #b0b0b0; stroke-opacity: 0.6; stroke-width: 0.5"/>
     </g>
     <g id="line2d_28">
      <g>
       <use xlink:href="#m5de85f01af" x="43.78125" y="126.779742" style="stroke: #000000; stroke-width: 0.8"/>
      </g>
     </g>
     <g id="text_15">
      <!-- 0.5 -->
      <g transform="translate(20.878125 130.578961) scale(0.1 -0.1)">
       <defs>
        <path id="DejaVuSans-35" d="M 691 4666 
L 3169 4666 
L 3169 4134 
L 1269 4134 
L 1269 2991 
Q 1406 3038 1543 3061 
Q 1681 3084 1819 3084 
Q 2600 3084 3056 2656 
Q 3513 2228 3513 1497 
Q 3513 744 3044 326 
Q 2575 -91 1722 -91 
Q 1428 -91 1123 -41 
Q 819 9 494 109 
L 494 744 
Q 775 591 1075 516 
Q 1375 441 1709 441 
Q 2250 441 2565 725 
Q 2881 1009 2881 1497 
Q 2881 1984 2565 2268 
Q 2250 2553 1709 2553 
Q 1456 2553 1204 2497 
Q 953 2441 691 2322 
L 691 4666 
z
" transform="scale(0.015625)"/>
       </defs>
       <use xlink:href="#DejaVuSans-30"/>
       <use xlink:href="#DejaVuSans-2e" transform="translate(63.623047 0)"/>
       <use xlink:href="#DejaVuSans-35" transform="translate(95.410156 0)"/>
      </g>
     </g>
    </g>
    <g id="ytick_7">
     <g id="line2d_29">
      <path d="M 43.78125 94.752065 
L 490.18125 94.752065 
" clip-path="url(#p18fbc7b205)" style="fill: none; stroke-dasharray: 1.85,0.8; stroke-dashoffset: 0; stroke: #b0b0b0; stroke-opacity: 0.6; stroke-width: 0.5"/>
     </g>
     <g id="line2d_30">
      <g>
       <use xlink:href="#m5de85f01af" x="43.78125" y="94.752065" style="stroke: #000000; stroke-width: 0.8"/>
      </g>
     </g>
     <g id="text_16">
      <!-- 0.6 -->
      <g transform="translate(20.878125 98.551284) scale(0.1 -0.1)">
       <use xlink:href="#DejaVuSans-30"/>
       <use xlink:href="#DejaVuSans-2e" transform="translate(63.623047 0)"/>
       <use xlink:href="#DejaVuSans-36" transform="translate(95.410156 0)"/>
      </g>
     </g>
    </g>
    <g id="ytick_8">
     <g id="line2d_31">
      <path d="M 43.78125 62.724389 
L 490.18125 62.724389 
" clip-path="url(#p18fbc7b205)" style="fill: none; stroke-dasharray: 1.85,0.8; stroke-dashoffset: 0; stroke: #b0b0b0; stroke-opacity: 0.6; stroke-width: 0.5"/>
     </g>
     <g id="line2d_32">
      <g>
       <use xlink:href="#m5de85f01af" x="43.78125" y="62.724389" style="stroke: #000000; stroke-width: 0.8"/>
      </g>
     </g>
     <g id="text_17">
      <!-- 0.7 -->
      <g transform="translate(20.878125 66.523607) scale(0.1 -0.1)">
       <defs>
        <path id="DejaVuSans-37" d="M 525 4666 
L 3525 4666 
L 3525 4397 
L 1831 0 
L 1172 0 
L 2766 4134 
L 525 4134 
L 525 4666 
z
" transform="scale(0.015625)"/>
       </defs>
       <use xlink:href="#DejaVuSans-30"/>
       <use xlink:href="#DejaVuSans-2e" transform="translate(63.623047 0)"/>
       <use xlink:href="#DejaVuSans-37" transform="translate(95.410156 0)"/>
      </g>
     </g>
    </g>
    <g id="ytick_9">
     <g id="line2d_33">
      <path d="M 43.78125 30.696712 
L 490.18125 30.696712 
" clip-path="url(#p18fbc7b205)" style="fill: none; stroke-dasharray: 1.85,0.8; stroke-dashoffset: 0; stroke: #b0b0b0; stroke-opacity: 0.6; stroke-width: 0.5"/>
     </g>
     <g id="line2d_34">
      <g>
       <use xlink:href="#m5de85f01af" x="43.78125" y="30.696712" style="stroke: #000000; stroke-width: 0.8"/>
      </g>
     </g>
     <g id="text_18">
      <!-- 0.8 -->
      <g transform="translate(20.878125 34.495931) scale(0.1 -0.1)">
       <use xlink:href="#DejaVuSans-30"/>
       <use xlink:href="#DejaVuSans-2e" transform="translate(63.623047 0)"/>
       <use xlink:href="#DejaVuSans-38" transform="translate(95.410156 0)"/>
      </g>
     </g>
    </g>
    <g id="text_19">
     <!-- Detection Ratio (Efficiency) -->
     <g transform="translate(14.798438 229.282969) rotate(-90) scale(0.1 -0.1)">
      <defs>
       <path id="DejaVuSans-65" d="M 3597 1894 
L 3597 1613 
L 953 1613 
Q 991 1019 1311 708 
Q 1631 397 2203 397 
Q 2534 397 2845 478 
Q 3156 559 3463 722 
L 3463 178 
Q 3153 47 2828 -22 
Q 2503 -91 2169 -91 
Q 1331 -91 842 396 
Q 353 884 353 1716 
Q 353 2575 817 3079 
Q 1281 3584 2069 3584 
Q 2775 3584 3186 3129 
Q 3597 2675 3597 1894 
z
M 3022 2063 
Q 3016 2534 2758 2815 
Q 2500 3097 2075 3097 
Q 1594 3097 1305 2825 
Q 1016 2553 972 2059 
L 3022 2063 
z
" transform="scale(0.015625)"/>
       <path id="DejaVuSans-63" d="M 3122 3366 
L 3122 2828 
Q 2878 2963 2633 3030 
Q 2388 3097 2138 3097 
Q 1578 3097 1268 2742 
Q 959 2388 959 1747 
Q 959 1106 1268 751 
Q 1578 397 2138 397 
Q 2388 397 2633 464 
Q 2878 531 3122 666 
L 3122 134 
Q 2881 22 2623 -34 
Q 2366 -91 2075 -91 
Q 1284 -91 818 406 
Q 353 903 353 1747 
Q 353 2603 823 3093 
Q 1294 3584 2113 3584 
Q 2378 3584 2631 3529 
Q 2884 3475 3122 3366 
z
" transform="scale(0.015625)"/>
       <path id="DejaVuSans-52" d="M 2841 2188 
Q 3044 2119 3236 1894 
Q 3428 1669 3622 1275 
L 4263 0 
L 3584 0 
L 2988 1197 
Q 2756 1666 2539 1819 
Q 2322 1972 1947 1972 
L 1259 1972 
L 1259 0 
L 628 0 
L 628 4666 
L 2053 4666 
Q 2853 4666 3247 4331 
Q 3641 3997 3641 3322 
Q 3641 2881 3436 2590 
Q 3231 2300 2841 2188 
z
M 1259 4147 
L 1259 2491 
L 2053 2491 
Q 2509 2491 2742 2702 
Q 2975 2913 2975 3322 
Q 2975 3731 2742 3939 
Q 2509 4147 2053 4147 
L 1259 4147 
z
" transform="scale(0.015625)"/>
       <path id="DejaVuSans-28" d="M 1984 4856 
Q 1566 4138 1362 3434 
Q 1159 2731 1159 2009 
Q 1159 1288 1364 580 
Q 1569 -128 1984 -844 
L 1484 -844 
Q 1016 -109 783 600 
Q 550 1309 550 2009 
Q 550 2706 781 3412 
Q 1013 4119 1484 4856 
L 1984 4856 
z
" transform="scale(0.015625)"/>
       <path id="DejaVuSans-45" d="M 628 4666 
L 3578 4666 
L 3578 4134 
L 1259 4134 
L 1259 2753 
L 3481 2753 
L 3481 2222 
L 1259 2222 
L 1259 531 
L 3634 531 
L 3634 0 
L 628 0 
L 628 4666 
z
" transform="scale(0.015625)"/>
       <path id="DejaVuSans-66" d="M 2375 4863 
L 2375 4384 
L 1825 4384 
Q 1516 4384 1395 4259 
Q 1275 4134 1275 3809 
L 1275 3500 
L 2222 3500 
L 2222 3053 
L 1275 3053 
L 1275 0 
L 697 0 
L 697 3053 
L 147 3053 
L 147 3500 
L 697 3500 
L 697 3744 
Q 697 4328 969 4595 
Q 1241 4863 1831 4863 
L 2375 4863 
z
" transform="scale(0.015625)"/>
       <path id="DejaVuSans-29" d="M 513 4856 
L 1013 4856 
Q 1481 4119 1714 3412 
Q 1947 2706 1947 2009 
Q 1947 1309 1714 600 
Q 1481 -109 1013 -844 
L 513 -844 
Q 928 -128 1133 580 
Q 1338 1288 1338 2009 
Q 1338 2731 1133 3434 
Q 928 4138 513 4856 
z
" transform="scale(0.015625)"/>
      </defs>
      <use xlink:href="#DejaVuSans-44"/>
      <use xlink:href="#DejaVuSans-65" transform="translate(77.001953 0)"/>
      <use xlink:href="#DejaVuSans-74" transform="translate(138.525391 0)"/>
      <use xlink:href="#DejaVuSans-65" transform="translate(177.734375 0)"/>
      <use xlink:href="#DejaVuSans-63" transform="translate(239.257812 0)"/>
      <use xlink:href="#DejaVuSans-74" transform="translate(294.238281 0)"/>
      <use xlink:href="#DejaVuSans-69" transform="translate(333.447266 0)"/>
      <use xlink:href="#DejaVuSans-6f" transform="translate(361.230469 0)"/>
      <use xlink:href="#DejaVuSans-6e" transform="translate(422.412109 0)"/>
      <use xlink:href="#DejaVuSans-20" transform="translate(485.791016 0)"/>
      <use xlink:href="#DejaVuSans-52" transform="translate(517.578125 0)"/>
      <use xlink:href="#DejaVuSans-61" transform="translate(584.810547 0)"/>
      <use xlink:href="#DejaVuSans-74" transform="translate(646.089844 0)"/>
      <use xlink:href="#DejaVuSans-69" transform="translate(685.298828 0)"/>
      <use xlink:href="#DejaVuSans-6f" transform="translate(713.082031 0)"/>
      <use xlink:href="#DejaVuSans-20" transform="translate(774.263672 0)"/>
      <use xlink:href="#DejaVuSans-28" transform="translate(806.050781 0)"/>
      <use xlink:href="#DejaVuSans-45" transform="translate(845.064453 0)"/>
      <use xlink:href="#DejaVuSans-66" transform="translate(908.248047 0)"/>
      <use xlink:href="#DejaVuSans-66" transform="translate(943.453125 0)"/>
      <use xlink:href="#DejaVuSans-69" transform="translate(978.658203 0)"/>
      <use xlink:href="#DejaVuSans-63" transform="translate(1006.441406 0)"/>
      <use xlink:href="#DejaVuSans-69" transform="translate(1061.421875 0)"/>
      <use xlink:href="#DejaVuSans-65" transform="translate(1089.205078 0)"/>
      <use xlink:href="#DejaVuSans-6e" transform="translate(1150.728516 0)"/>
      <use xlink:href="#DejaVuSans-63" transform="translate(1214.107422 0)"/>
      <use xlink:href="#DejaVuSans-79" transform="translate(1269.087891 0)"/>
      <use xlink:href="#DejaVuSans-29" transform="translate(1328.267578 0)"/>
     </g>
    </g>
   </g>
   <g id="line2d_35">
    <path d="M 64.072159 286.918125 
L 115.820786 286.918125 
L 118.544398 280.839968 
L 121.26801 273.460681 
L 123.991622 267.89803 
L 126.715234 263.767988 
L 129.438846 260.559222 
L 132.162458 258.093216 
L 134.88607 256.762291 
L 137.609682 255.93583 
L 148.50413 252.010396 
L 151.227742 250.757845 
L 156.674966 247.291696 
L 162.12219 243.100987 
L 164.845802 240.935187 
L 170.293025 235.932624 
L 173.016637 224.784287 
L 178.463861 199.000054 
L 181.187473 186.505825 
L 186.634697 158.640382 
L 189.358309 143.93157 
L 192.081921 129.837485 
L 194.805533 114.978118 
L 197.529145 101.115023 
L 200.252757 88.171956 
L 202.976369 77.155321 
L 205.699981 67.463953 
L 208.423593 59.235623 
L 211.147205 50.156703 
L 213.870817 45.404528 
L 216.594429 41.829789 
L 219.318041 40.429317 
L 222.041653 39.916052 
L 224.765265 39.793775 
L 227.488877 35.951379 
L 230.212489 35.609512 
L 232.936101 34.918125 
L 235.659712 35.131917 
L 238.383324 35.764315 
L 241.106936 36.67731 
L 243.830548 36.720429 
L 249.277772 39.740762 
L 252.001384 41.386707 
L 254.724996 41.799243 
L 257.448608 44.009804 
L 260.17222 47.334466 
L 262.895832 48.137173 
L 265.619444 50.648379 
L 268.343056 46.165187 
L 271.066668 48.128169 
L 273.79028 49.700686 
L 276.513892 49.451448 
L 279.237504 50.202474 
L 281.961116 49.285122 
L 284.684728 49.85857 
L 287.40834 50.909735 
L 290.131952 49.57555 
L 292.855564 55.214893 
L 295.579176 55.904299 
L 298.302788 56.785482 
L 301.026399 57.938644 
L 303.750011 61.711348 
L 306.473623 63.535216 
L 309.197235 65.090549 
L 311.920847 66.114505 
L 314.644459 63.975832 
L 317.368071 62.389271 
L 320.091683 62.523588 
L 322.815295 62.830091 
L 325.538907 58.472927 
L 328.262519 62.363174 
L 330.986131 67.317749 
L 333.709743 69.28584 
L 336.433355 66.388572 
L 339.156967 71.293197 
L 341.880579 72.915013 
L 344.604191 80.43381 
L 347.327803 79.391853 
L 350.051415 79.238659 
L 352.775027 89.356098 
L 355.498639 93.663306 
L 358.222251 93.631563 
L 360.945863 98.803759 
L 363.669475 100.005817 
L 366.393086 92.685764 
L 369.116698 90.070279 
L 371.84031 96.068271 
L 374.563922 89.032837 
L 377.287534 93.369576 
L 380.011146 93.097499 
L 382.734758 99.790127 
L 385.45837 95.256438 
L 388.181982 94.752065 
L 390.905594 98.036955 
L 393.629206 92.464374 
L 396.352818 93.874595 
L 399.07643 92.095392 
L 401.800042 93.226938 
L 404.523654 98.429885 
L 407.247266 96.89746 
L 409.970878 99.703204 
L 412.69449 100.090011 
L 415.418102 95.395838 
L 418.141714 100.788695 
L 420.865326 97.124486 
L 423.588938 98.1234 
L 426.31255 101.122211 
L 429.036162 100.54238 
L 431.759773 108.373031 
L 434.483385 97.748807 
L 437.206997 97.486135 
L 439.930609 89.514835 
L 442.654221 93.504234 
L 445.377833 91.529154 
L 448.101445 105.297764 
L 450.825057 94.346652 
L 453.548669 95.611869 
L 456.272281 97.458629 
L 458.995893 96.543823 
L 461.719505 97.865867 
L 464.443117 100.282024 
L 467.166729 107.939932 
L 469.890341 121.999492 
L 469.890341 121.999492 
" clip-path="url(#p18fbc7b205)" style="fill: none; stroke: #1f77b4; stroke-width: 1.5; stroke-linecap: square"/>
   </g>
   <g id="line2d_36">
    <path d="M 64.072159 286.918125 
L 115.820786 286.918125 
L 118.544398 282.406463 
L 121.26801 276.184333 
L 123.991622 271.245173 
L 126.715234 266.788029 
L 129.438846 263.729113 
L 132.162458 261.292571 
L 134.88607 259.635483 
L 137.609682 258.148993 
L 140.333294 256.859638 
L 143.056906 255.23655 
L 148.50413 252.513642 
L 151.227742 250.618977 
L 153.951354 249.197894 
L 159.398578 244.841113 
L 167.569414 236.02198 
L 170.293025 232.732998 
L 175.740249 206.991128 
L 178.463861 193.502882 
L 183.911085 165.212954 
L 189.358309 134.320091 
L 194.805533 103.643487 
L 197.529145 88.942851 
L 200.252757 76.572235 
L 202.976369 66.440894 
L 205.699981 57.847025 
L 208.423593 52.132688 
L 211.147205 47.206064 
L 213.870817 44.263562 
L 216.594429 42.274262 
L 219.318041 44.556142 
L 222.041653 44.158168 
L 224.765265 44.222409 
L 227.488877 43.625953 
L 230.212489 42.304553 
L 232.936101 41.597669 
L 235.659712 43.139268 
L 238.383324 43.092384 
L 241.106936 44.038641 
L 243.830548 45.281853 
L 246.55416 47.204195 
L 249.277772 47.512288 
L 252.001384 47.226175 
L 254.724996 47.527186 
L 257.448608 47.165254 
L 260.17222 49.546789 
L 262.895832 49.614614 
L 265.619444 47.389925 
L 268.343056 47.525504 
L 271.066668 46.013364 
L 273.79028 46.540311 
L 276.513892 49.438834 
L 279.237504 49.928461 
L 281.961116 45.646508 
L 284.684728 47.618048 
L 287.40834 50.178985 
L 290.131952 50.382016 
L 292.855564 52.41813 
L 295.579176 51.339818 
L 298.302788 53.300236 
L 301.026399 53.264256 
L 303.750011 54.851433 
L 306.473623 54.346577 
L 309.197235 52.232564 
L 311.920847 56.338353 
L 317.368071 54.757042 
L 320.091683 58.465095 
L 322.815295 61.38748 
L 325.538907 65.047006 
L 328.262519 66.532748 
L 330.986131 68.429724 
L 333.709743 73.176936 
L 336.433355 75.746631 
L 339.156967 75.345774 
L 341.880579 76.386544 
L 344.604191 79.087197 
L 347.327803 84.211311 
L 355.498639 92.119653 
L 358.222251 92.204409 
L 360.945863 91.350896 
L 363.669475 92.3942 
L 366.393086 99.835823 
L 369.116698 95.180529 
L 371.84031 92.978907 
L 374.563922 96.575705 
L 377.287534 95.708115 
L 380.011146 94.010111 
L 382.734758 98.004876 
L 385.45837 99.214938 
L 388.181982 96.308066 
L 390.905594 98.755525 
L 393.629206 101.424498 
L 396.352818 101.350042 
L 399.07643 103.082134 
L 401.800042 114.806779 
L 404.523654 121.516978 
L 407.247266 122.94868 
L 409.970878 113.968671 
L 412.69449 120.309504 
L 415.418102 111.766768 
L 418.141714 112.37576 
L 420.865326 112.064323 
L 423.588938 104.661181 
L 426.31255 113.004397 
L 429.036162 115.764932 
L 431.759773 110.333097 
L 434.483385 110.849746 
L 437.206997 109.373396 
L 439.930609 118.81706 
L 442.654221 118.81706 
L 445.377833 123.260217 
L 448.101445 124.154523 
L 450.825057 127.684479 
L 453.548669 136.845583 
L 456.272281 134.228039 
L 458.995893 119.985992 
L 461.719505 123.903004 
L 464.443117 131.517564 
L 467.166729 133.25933 
L 469.890341 132.239005 
L 469.890341 132.239005 
" clip-path="url(#p18fbc7b205)" style="fill: none; stroke: #ff7f0e; stroke-width: 1.5; stroke-linecap: square"/>
   </g>
   <g id="line2d_37">
    <path d="M 64.072159 286.918125 
L 115.820786 286.918125 
L 118.544398 284.635991 
L 121.26801 283.309498 
L 123.991622 282.230773 
L 129.438846 281.443567 
L 132.162458 281.065074 
L 134.88607 281.022383 
L 140.333294 280.732805 
L 145.780518 280.04427 
L 148.50413 279.544847 
L 151.227742 279.217155 
L 156.674966 278.291689 
L 164.845802 276.839486 
L 170.293025 275.027143 
L 178.463861 266.726392 
L 181.187473 263.595837 
L 186.634697 256.967557 
L 189.358309 252.754319 
L 192.081921 249.34756 
L 197.529145 240.725591 
L 200.252757 235.423179 
L 202.976369 230.58467 
L 205.699981 226.437109 
L 211.147205 215.556121 
L 213.870817 208.373342 
L 219.318041 196.455174 
L 222.041653 190.100221 
L 224.765265 182.668226 
L 230.212489 156.904784 
L 232.936101 144.612326 
L 235.659712 133.268026 
L 238.383324 119.139838 
L 241.106936 105.647422 
L 243.830548 94.235852 
L 246.55416 86.222501 
L 249.277772 78.612134 
L 252.001384 72.646584 
L 254.724996 71.899277 
L 257.448608 69.402374 
L 260.17222 67.66508 
L 262.895832 65.305622 
L 265.619444 64.787796 
L 268.343056 67.741231 
L 271.066668 69.884471 
L 273.79028 71.12579 
L 276.513892 71.516743 
L 279.237504 73.077014 
L 281.961116 70.487116 
L 284.684728 72.052315 
L 287.40834 72.527592 
L 290.131952 73.296932 
L 292.855564 73.616392 
L 295.579176 74.413815 
L 298.302788 74.686533 
L 301.026399 71.912352 
L 303.750011 63.826078 
L 306.473623 66.209265 
L 309.197235 69.694364 
L 311.920847 69.698515 
L 314.644459 62.06305 
L 317.368071 58.991101 
L 320.091683 61.788515 
L 322.815295 58.227352 
L 325.538907 56.901175 
L 328.262519 50.62783 
L 330.986131 54.459182 
L 333.709743 52.00297 
L 336.433355 58.047781 
L 339.156967 55.935112 
L 341.880579 56.719199 
L 344.604191 56.793337 
L 347.327803 58.626853 
L 350.051415 55.464782 
L 352.775027 54.962807 
L 355.498639 50.876 
L 358.222251 52.758072 
L 360.945863 52.641602 
L 363.669475 56.400453 
L 366.393086 61.887064 
L 369.116698 58.943343 
L 371.84031 59.475204 
L 374.563922 62.120093 
L 377.287534 64.60837 
L 380.011146 63.499252 
L 382.734758 68.607023 
L 385.45837 67.4181 
L 388.181982 70.049104 
L 390.905594 68.086488 
L 393.629206 64.716541 
L 396.352818 67.439123 
L 399.07643 58.867653 
L 401.800042 56.885088 
L 404.523654 61.47191 
L 407.247266 70.827777 
L 409.970878 74.734767 
L 412.69449 74.089048 
L 415.418102 77.081623 
L 418.141714 71.079435 
L 420.865326 84.152978 
L 423.588938 78.855116 
L 426.31255 81.367365 
L 429.036162 87.361063 
L 431.759773 86.066594 
L 434.483385 92.464374 
L 437.206997 107.113625 
L 439.930609 113.795549 
L 442.654221 103.055537 
L 445.377833 100.090011 
L 448.101445 110.618988 
L 450.825057 116.303399 
L 453.548669 121.060514 
L 456.272281 118.2009 
L 458.995893 121.160851 
L 461.719505 120.848691 
L 464.443117 128.276362 
L 467.166729 139.763935 
L 469.890341 119.29664 
L 469.890341 119.29664 
" clip-path="url(#p18fbc7b205)" style="fill: none; stroke: #2ca02c; stroke-width: 1.5; stroke-linecap: square"/>
   </g>
   <g id="line2d_38">
    <path d="M 64.072159 286.918125 
L 115.820786 286.918125 
L 118.544398 284.207265 
L 121.26801 282.479997 
L 123.991622 281.599327 
L 126.715234 280.84988 
L 129.438846 280.303858 
L 132.162458 279.962049 
L 134.88607 279.483761 
L 137.609682 279.490907 
L 143.056906 279.34657 
L 148.50413 278.644134 
L 151.227742 278.63279 
L 153.951354 278.213725 
L 156.674966 277.554153 
L 162.12219 276.579697 
L 164.845802 275.905301 
L 167.569414 275.372061 
L 170.293025 274.539932 
L 173.016637 271.777678 
L 175.740249 269.235253 
L 178.463861 266.372481 
L 181.187473 263.297533 
L 186.634697 256.519191 
L 189.358309 253.612604 
L 192.081921 250.007305 
L 194.805533 246.637221 
L 197.529145 242.315017 
L 200.252757 238.3247 
L 205.699981 228.780518 
L 208.423593 224.31217 
L 211.147205 218.891915 
L 213.870817 214.01324 
L 216.594429 208.59021 
L 219.318041 201.977329 
L 222.041653 195.949203 
L 224.765265 189.12423 
L 227.488877 177.467802 
L 230.212489 165.203408 
L 235.659712 137.720326 
L 238.383324 126.219164 
L 241.106936 116.341312 
L 243.830548 109.405251 
L 246.55416 101.436487 
L 252.001384 94.383224 
L 254.724996 91.847595 
L 260.17222 87.559158 
L 262.895832 86.279628 
L 265.619444 84.404662 
L 268.343056 82.349785 
L 271.066668 82.337668 
L 273.79028 81.012211 
L 276.513892 80.072713 
L 279.237504 77.967507 
L 284.684728 75.702146 
L 287.40834 78.161829 
L 290.131952 76.982209 
L 292.855564 78.236051 
L 295.579176 78.897353 
L 298.302788 80.161007 
L 301.026399 81.11652 
L 303.750011 84.513986 
L 306.473623 82.356566 
L 309.197235 78.756913 
L 311.920847 81.136435 
L 314.644459 78.718284 
L 317.368071 84.104342 
L 320.091683 87.137093 
L 322.815295 89.788712 
L 325.538907 88.464423 
L 328.262519 90.266104 
L 330.986131 89.405026 
L 333.709743 84.457455 
L 336.433355 81.235798 
L 339.156967 81.750141 
L 341.880579 81.112903 
L 344.604191 84.097568 
L 347.327803 85.163738 
L 350.051415 84.564613 
L 352.775027 90.992609 
L 355.498639 93.711723 
L 358.222251 91.627414 
L 360.945863 89.387023 
L 363.669475 93.920178 
L 366.393086 90.02667 
L 369.116698 91.244712 
L 371.84031 98.97128 
L 374.563922 92.464374 
L 377.287534 87.958316 
L 380.011146 84.69209 
L 382.734758 88.088589 
L 385.45837 80.86594 
L 388.181982 88.164813 
L 390.905594 86.147615 
L 393.629206 82.991903 
L 396.352818 88.169302 
L 399.07643 86.24679 
L 401.800042 81.223133 
L 404.523654 80.925139 
L 407.247266 82.296858 
L 409.970878 80.691134 
L 412.69449 88.413254 
L 415.418102 85.893346 
L 418.141714 90.100001 
L 420.865326 99.790127 
L 423.588938 95.488334 
L 426.31255 93.217805 
L 429.036162 96.693137 
L 431.759773 104.481992 
L 434.483385 100.090011 
L 437.206997 102.143068 
L 439.930609 109.92307 
L 442.654221 109.467484 
L 445.377833 113.053595 
L 448.101445 111.127118 
L 450.825057 107.070402 
L 453.548669 104.606735 
L 456.272281 102.822031 
L 458.995893 82.647117 
L 461.719505 92.65189 
L 464.443117 90.445823 
L 467.166729 89.82473 
L 469.890341 100.774363 
L 469.890341 100.774363 
" clip-path="url(#p18fbc7b205)" style="fill: none; stroke: #d62728; stroke-width: 1.5; stroke-linecap: square"/>
   </g>
   <g id="line2d_39">
    <path d="M 64.072159 286.918125 
L 115.820786 286.918125 
L 118.544398 284.04978 
L 121.26801 282.104458 
L 123.991622 281.010014 
L 129.438846 279.849998 
L 137.609682 280.022529 
L 145.780518 279.490032 
L 151.227742 279.15595 
L 153.951354 278.676377 
L 156.674966 278.504656 
L 162.12219 277.495768 
L 167.569414 276.287718 
L 170.293025 275.422305 
L 175.740249 270.721136 
L 178.463861 268.027736 
L 189.358309 256.01623 
L 192.081921 252.29547 
L 194.805533 249.240651 
L 197.529145 245.327244 
L 205.699981 233.085449 
L 208.423593 227.816517 
L 211.147205 222.290384 
L 213.870817 217.338107 
L 216.594429 211.954795 
L 222.041653 200.617172 
L 224.765265 194.744255 
L 227.488877 183.822263 
L 230.212489 172.122209 
L 235.659712 150.190792 
L 238.383324 140.521438 
L 241.106936 130.030312 
L 243.830548 120.054638 
L 246.55416 110.567938 
L 249.277772 103.349028 
L 252.001384 97.767854 
L 254.724996 93.205457 
L 257.448608 89.124112 
L 260.17222 86.22661 
L 262.895832 85.363337 
L 265.619444 85.765768 
L 268.343056 84.629062 
L 271.066668 84.961315 
L 273.79028 84.578568 
L 276.513892 83.631067 
L 279.237504 82.472679 
L 281.961116 81.010086 
L 284.684728 78.382364 
L 287.40834 76.564742 
L 290.131952 79.213886 
L 292.855564 81.684103 
L 295.579176 80.672687 
L 298.302788 80.059907 
L 301.026399 81.579392 
L 306.473623 79.227733 
L 309.197235 79.399349 
L 311.920847 82.610346 
L 314.644459 85.201396 
L 317.368071 82.988549 
L 320.091683 83.432325 
L 322.815295 83.233339 
L 325.538907 79.053174 
L 328.262519 77.975663 
L 330.986131 77.649392 
L 333.709743 77.463769 
L 336.433355 82.328518 
L 339.156967 83.434014 
L 341.880579 83.162283 
L 344.604191 80.329866 
L 347.327803 87.664521 
L 350.051415 89.771519 
L 352.775027 85.180576 
L 355.498639 87.225177 
L 358.222251 85.739252 
L 360.945863 83.877947 
L 363.669475 89.151597 
L 366.393086 85.024461 
L 369.116698 84.488003 
L 371.84031 77.467287 
L 374.563922 72.343262 
L 377.287534 84.864326 
L 380.011146 82.076801 
L 382.734758 71.079435 
L 385.45837 65.915338 
L 388.181982 66.954459 
L 390.905594 69.718939 
L 393.629206 72.158898 
L 396.352818 68.607023 
L 399.07643 73.841433 
L 401.800042 73.400281 
L 404.523654 72.048902 
L 407.247266 67.78139 
L 409.970878 68.086488 
L 412.69449 65.067877 
L 415.418102 64.5498 
L 418.141714 71.650135 
L 420.865326 71.55961 
L 423.588938 86.034473 
L 426.31255 89.674507 
L 429.036162 89.661574 
L 431.759773 92.064428 
L 434.483385 103.90283 
L 437.206997 118.671469 
L 439.930609 118.772823 
L 442.654221 121.546461 
L 445.377833 124.752674 
L 450.825057 132.860946 
L 453.548669 136.0781 
L 456.272281 130.833878 
L 458.995893 121.613988 
L 461.719505 127.812893 
L 464.443117 126.779742 
L 467.166729 127.812893 
L 469.890341 124.644563 
L 469.890341 124.644563 
" clip-path="url(#p18fbc7b205)" style="fill: none; stroke: #9467bd; stroke-width: 1.5; stroke-linecap: square"/>
   </g>
   <g id="line2d_40">
    <path d="M 64.072159 286.918125 
L 115.820786 286.918125 
L 118.544398 284.208408 
L 121.26801 282.510876 
L 126.715234 280.950235 
L 129.438846 280.521821 
L 132.162458 280.630122 
L 134.88607 280.299958 
L 148.50413 279.794585 
L 151.227742 279.527581 
L 156.674966 278.536006 
L 159.398578 277.875016 
L 162.12219 277.48656 
L 164.845802 276.947082 
L 167.569414 276.203379 
L 170.293025 275.594146 
L 173.016637 273.210162 
L 175.740249 270.383907 
L 181.187473 264.278311 
L 183.911085 261.595876 
L 189.358309 254.985265 
L 192.081921 251.203809 
L 194.805533 247.642864 
L 197.529145 243.845865 
L 200.252757 239.26939 
L 202.976369 235.065093 
L 205.699981 229.906263 
L 208.423593 224.499969 
L 216.594429 209.507273 
L 219.318041 203.976136 
L 222.041653 197.99036 
L 224.765265 191.696794 
L 227.488877 179.314956 
L 230.212489 168.062565 
L 235.659712 147.16433 
L 238.383324 135.25879 
L 243.830548 113.068897 
L 246.55416 106.684168 
L 249.277772 101.229573 
L 252.001384 98.482956 
L 254.724996 95.910485 
L 260.17222 87.827162 
L 262.895832 84.679869 
L 265.619444 83.795229 
L 268.343056 79.482233 
L 271.066668 77.448898 
L 273.79028 78.050397 
L 276.513892 78.308737 
L 279.237504 77.940195 
L 281.961116 75.652579 
L 284.684728 74.496851 
L 287.40834 74.134861 
L 290.131952 74.680364 
L 292.855564 73.220854 
L 295.579176 74.63175 
L 298.302788 72.508145 
L 301.026399 71.025566 
L 303.750011 72.739235 
L 306.473623 73.862941 
L 309.197235 73.035916 
L 311.920847 73.148491 
L 314.644459 71.430559 
L 317.368071 66.830501 
L 320.091683 65.090549 
L 322.815295 60.813647 
L 325.538907 66.13562 
L 328.262519 63.619572 
L 330.986131 65.787003 
L 333.709743 65.981441 
L 336.433355 59.127698 
L 339.156967 60.733968 
L 341.880579 62.096395 
L 344.604191 61.682838 
L 347.327803 64.027442 
L 350.051415 66.81603 
L 352.775027 65.418305 
L 355.498639 69.161713 
L 358.222251 74.234335 
L 360.945863 76.209726 
L 363.669475 72.227106 
L 366.393086 77.081623 
L 369.116698 79.793031 
L 371.84031 79.622427 
L 374.563922 81.308349 
L 377.287534 77.862872 
L 382.734758 84.695593 
L 385.45837 88.96929 
L 388.181982 88.045909 
L 390.905594 83.78539 
L 393.629206 84.429095 
L 396.352818 90.137908 
L 399.07643 91.96705 
L 401.800042 86.56234 
L 404.523654 92.947689 
L 407.247266 90.065088 
L 409.970878 88.574138 
L 412.69449 86.122847 
L 415.418102 85.893346 
L 418.141714 86.095936 
L 420.865326 91.889256 
L 423.588938 88.651555 
L 426.31255 88.746876 
L 429.036162 95.983899 
L 431.759773 90.619462 
L 434.483385 80.287953 
L 437.206997 85.419497 
L 439.930609 76.386544 
L 442.654221 75.671747 
L 445.377833 78.041973 
L 448.101445 74.179543 
L 450.825057 77.506393 
L 453.548669 75.94216 
L 456.272281 78.608033 
L 458.995893 88.036585 
L 461.719505 95.256438 
L 464.443117 101.360951 
L 467.166729 98.819072 
L 469.890341 93.693299 
L 469.890341 93.693299 
" clip-path="url(#p18fbc7b205)" style="fill: none; stroke: #8c564b; stroke-width: 1.5; stroke-linecap: square"/>
   </g>
   <g id="patch_3">
    <path d="M 43.78125 299.518125 
L 43.78125 22.318125 
" style="fill: none; stroke: #000000; stroke-width: 0.8; stroke-linejoin: miter; stroke-linecap: square"/>
   </g>
   <g id="patch_4">
    <path d="M 490.18125 299.518125 
L 490.18125 22.318125 
" style="fill: none; stroke: #000000; stroke-width: 0.8; stroke-linejoin: miter; stroke-linecap: square"/>
   </g>
   <g id="patch_5">
    <path d="M 43.78125 299.518125 
L 490.18125 299.518125 
" style="fill: none; stroke: #000000; stroke-width: 0.8; stroke-linejoin: miter; stroke-linecap: square"/>
   </g>
   <g id="patch_6">
    <path d="M 43.78125 22.318125 
L 490.18125 22.318125 
" style="fill: none; stroke: #000000; stroke-width: 0.8; stroke-linejoin: miter; stroke-linecap: square"/>
   </g>
   <g id="text_20">
    <!-- Detection Ratio: SBM-5k-Med (Peak 40) -->
    <g transform="translate(148.821562 16.318125) scale(0.12 -0.12)">
     <defs>
      <path id="DejaVuSans-3a" d="M 750 794 
L 1409 794 
L 1409 0 
L 750 0 
L 750 794 
z
M 750 3309 
L 1409 3309 
L 1409 2516 
L 750 2516 
L 750 3309 
z
" transform="scale(0.015625)"/>
      <path id="DejaVuSans-42" d="M 1259 2228 
L 1259 519 
L 2272 519 
Q 2781 519 3026 730 
Q 3272 941 3272 1375 
Q 3272 1813 3026 2020 
Q 2781 2228 2272 2228 
L 1259 2228 
z
M 1259 4147 
L 1259 2741 
L 2194 2741 
Q 2656 2741 2882 2914 
Q 3109 3088 3109 3444 
Q 3109 3797 2882 3972 
Q 2656 4147 2194 4147 
L 1259 4147 
z
M 628 4666 
L 2241 4666 
Q 2963 4666 3353 4366 
Q 3744 4066 3744 3513 
Q 3744 3084 3544 2831 
Q 3344 2578 2956 2516 
Q 3422 2416 3680 2098 
Q 3938 1781 3938 1306 
Q 3938 681 3513 340 
Q 3088 0 2303 0 
L 628 0 
L 628 4666 
z
" transform="scale(0.015625)"/>
      <path id="DejaVuSans-4d" d="M 628 4666 
L 1569 4666 
L 2759 1491 
L 3956 4666 
L 4897 4666 
L 4897 0 
L 4281 0 
L 4281 4097 
L 3078 897 
L 2444 897 
L 1241 4097 
L 1241 0 
L 628 0 
L 628 4666 
z
" transform="scale(0.015625)"/>
      <path id="DejaVuSans-2d" d="M 313 2009 
L 1997 2009 
L 1997 1497 
L 313 1497 
L 313 2009 
z
" transform="scale(0.015625)"/>
      <path id="DejaVuSans-6b" d="M 581 4863 
L 1159 4863 
L 1159 1991 
L 2875 3500 
L 3609 3500 
L 1753 1863 
L 3688 0 
L 2938 0 
L 1159 1709 
L 1159 0 
L 581 0 
L 581 4863 
z
" transform="scale(0.015625)"/>
      <path id="DejaVuSans-64" d="M 2906 2969 
L 2906 4863 
L 3481 4863 
L 3481 0 
L 2906 0 
L 2906 525 
Q 2725 213 2448 61 
Q 2172 -91 1784 -91 
Q 1150 -91 751 415 
Q 353 922 353 1747 
Q 353 2572 751 3078 
Q 1150 3584 1784 3584 
Q 2172 3584 2448 3432 
Q 2725 3281 2906 2969 
z
M 947 1747 
Q 947 1113 1208 752 
Q 1469 391 1925 391 
Q 2381 391 2643 752 
Q 2906 1113 2906 1747 
Q 2906 2381 2643 2742 
Q 2381 3103 1925 3103 
Q 1469 3103 1208 2742 
Q 947 2381 947 1747 
z
" transform="scale(0.015625)"/>
      <path id="DejaVuSans-50" d="M 1259 4147 
L 1259 2394 
L 2053 2394 
Q 2494 2394 2734 2622 
Q 2975 2850 2975 3272 
Q 2975 3691 2734 3919 
Q 2494 4147 2053 4147 
L 1259 4147 
z
M 628 4666 
L 2053 4666 
Q 2838 4666 3239 4311 
Q 3641 3956 3641 3272 
Q 3641 2581 3239 2228 
Q 2838 1875 2053 1875 
L 1259 1875 
L 1259 0 
L 628 0 
L 628 4666 
z
" transform="scale(0.015625)"/>
     </defs>
     <use xlink:href="#DejaVuSans-44"/>
     <use xlink:href="#DejaVuSans-65" transform="translate(77.001953 0)"/>
     <use xlink:href="#DejaVuSans-74" transform="translate(138.525391 0)"/>
     <use xlink:href="#DejaVuSans-65" transform="translate(177.734375 0)"/>
     <use xlink:href="#DejaVuSans-63" transform="translate(239.257812 0)"/>
     <use xlink:href="#DejaVuSans-74" transform="translate(294.238281 0)"/>
     <use xlink:href="#DejaVuSans-69" transform="translate(333.447266 0)"/>
     <use xlink:href="#DejaVuSans-6f" transform="translate(361.230469 0)"/>
     <use xlink:href="#DejaVuSans-6e" transform="translate(422.412109 0)"/>
     <use xlink:href="#DejaVuSans-20" transform="translate(485.791016 0)"/>
     <use xlink:href="#DejaVuSans-52" transform="translate(517.578125 0)"/>
     <use xlink:href="#DejaVuSans-61" transform="translate(584.810547 0)"/>
     <use xlink:href="#DejaVuSans-74" transform="translate(646.089844 0)"/>
     <use xlink:href="#DejaVuSans-69" transform="translate(685.298828 0)"/>
     <use xlink:href="#DejaVuSans-6f" transform="translate(713.082031 0)"/>
     <use xlink:href="#DejaVuSans-3a" transform="translate(774.263672 0)"/>
     <use xlink:href="#DejaVuSans-20" transform="translate(807.955078 0)"/>
     <use xlink:href="#DejaVuSans-53" transform="translate(839.742188 0)"/>
     <use xlink:href="#DejaVuSans-42" transform="translate(903.21875 0)"/>
     <use xlink:href="#DejaVuSans-4d" transform="translate(971.822266 0)"/>
     <use xlink:href="#DejaVuSans-2d" transform="translate(1058.101562 0)"/>
     <use xlink:href="#DejaVuSans-35" transform="translate(1094.185547 0)"/>
     <use xlink:href="#DejaVuSans-6b" transform="translate(1157.808594 0)"/>
     <use xlink:href="#DejaVuSans-2d" transform="translate(1215.71875 0)"/>
     <use xlink:href="#DejaVuSans-4d" transform="translate(1251.802734 0)"/>
     <use xlink:href="#DejaVuSans-65" transform="translate(1338.082031 0)"/>
     <use xlink:href="#DejaVuSans-64" transform="translate(1399.605469 0)"/>
     <use xlink:href="#DejaVuSans-20" transform="translate(1463.082031 0)"/>
     <use xlink:href="#DejaVuSans-28" transform="translate(1494.869141 0)"/>
     <use xlink:href="#DejaVuSans-50" transform="translate(1533.882812 0)"/>
     <use xlink:href="#DejaVuSans-65" transform="translate(1590.560547 0)"/>
     <use xlink:href="#DejaVuSans-61" transform="translate(1652.083984 0)"/>
     <use xlink:href="#DejaVuSans-6b" transform="translate(1713.363281 0)"/>
     <use xlink:href="#DejaVuSans-20" transform="translate(1771.273438 0)"/>
     <use xlink:href="#DejaVuSans-34" transform="translate(1803.060547 0)"/>
     <use xlink:href="#DejaVuSans-30" transform="translate(1866.683594 0)"/>
     <use xlink:href="#DejaVuSans-29" transform="translate(1930.306641 0)"/>
    </g>
   </g>
   <g id="legend_1">
    <g id="patch_7">
     <path d="M 50.08125 108.78 
L 156.426094 108.78 
Q 158.226094 108.78 158.226094 106.98 
L 158.226094 28.618125 
Q 158.226094 26.818125 156.426094 26.818125 
L 50.08125 26.818125 
Q 48.28125 26.818125 48.28125 28.618125 
L 48.28125 106.98 
Q 48.28125 108.78 50.08125 108.78 
z
" style="fill: #ffffff; opacity: 0.8; stroke: #cccccc; stroke-linejoin: miter"/>
    </g>
    <g id="line2d_41">
     <path d="M 51.88125 34.106719 
L 60.88125 34.106719 
L 69.88125 34.106719 
" style="fill: none; stroke: #1f77b4; stroke-width: 1.5; stroke-linecap: square"/>
    </g>
    <g id="text_21">
     <!-- LocalGNTS-14 -->
     <g transform="translate(77.08125 37.256719) scale(0.09 -0.09)">
      <defs>
       <path id="DejaVuSans-4c" d="M 628 4666 
L 1259 4666 
L 1259 531 
L 3531 531 
L 3531 0 
L 628 0 
L 628 4666 
z
" transform="scale(0.015625)"/>
       <path id="DejaVuSans-47" d="M 3809 666 
L 3809 1919 
L 2778 1919 
L 2778 2438 
L 4434 2438 
L 4434 434 
Q 4069 175 3628 42 
Q 3188 -91 2688 -91 
Q 1594 -91 976 548 
Q 359 1188 359 2328 
Q 359 3472 976 4111 
Q 1594 4750 2688 4750 
Q 3144 4750 3555 4637 
Q 3966 4525 4313 4306 
L 4313 3634 
Q 3963 3931 3569 4081 
Q 3175 4231 2741 4231 
Q 1884 4231 1454 3753 
Q 1025 3275 1025 2328 
Q 1025 1384 1454 906 
Q 1884 428 2741 428 
Q 3075 428 3337 486 
Q 3600 544 3809 666 
z
" transform="scale(0.015625)"/>
       <path id="DejaVuSans-4e" d="M 628 4666 
L 1478 4666 
L 3547 763 
L 3547 4666 
L 4159 4666 
L 4159 0 
L 3309 0 
L 1241 3903 
L 1241 0 
L 628 0 
L 628 4666 
z
" transform="scale(0.015625)"/>
       <path id="DejaVuSans-54" d="M -19 4666 
L 3928 4666 
L 3928 4134 
L 2272 4134 
L 2272 0 
L 1638 0 
L 1638 4134 
L -19 4134 
L -19 4666 
z
" transform="scale(0.015625)"/>
      </defs>
      <use xlink:href="#DejaVuSans-4c"/>
      <use xlink:href="#DejaVuSans-6f" transform="translate(53.962891 0)"/>
      <use xlink:href="#DejaVuSans-63" transform="translate(115.144531 0)"/>
      <use xlink:href="#DejaVuSans-61" transform="translate(170.125 0)"/>
      <use xlink:href="#DejaVuSans-6c" transform="translate(231.404297 0)"/>
      <use xlink:href="#DejaVuSans-47" transform="translate(259.1875 0)"/>
      <use xlink:href="#DejaVuSans-4e" transform="translate(336.677734 0)"/>
      <use xlink:href="#DejaVuSans-54" transform="translate(411.482422 0)"/>
      <use xlink:href="#DejaVuSans-53" transform="translate(472.566406 0)"/>
      <use xlink:href="#DejaVuSans-2d" transform="translate(536.042969 0)"/>
      <use xlink:href="#DejaVuSans-31" transform="translate(572.126953 0)"/>
      <use xlink:href="#DejaVuSans-34" transform="translate(635.75 0)"/>
     </g>
    </g>
    <g id="line2d_42">
     <path d="M 51.88125 47.317031 
L 60.88125 47.317031 
L 69.88125 47.317031 
" style="fill: none; stroke: #ff7f0e; stroke-width: 1.5; stroke-linecap: square"/>
    </g>
    <g id="text_22">
     <!-- GlobalGNTS-14 -->
     <g transform="translate(77.08125 50.467031) scale(0.09 -0.09)">
      <defs>
       <path id="DejaVuSans-62" d="M 3116 1747 
Q 3116 2381 2855 2742 
Q 2594 3103 2138 3103 
Q 1681 3103 1420 2742 
Q 1159 2381 1159 1747 
Q 1159 1113 1420 752 
Q 1681 391 2138 391 
Q 2594 391 2855 752 
Q 3116 1113 3116 1747 
z
M 1159 2969 
Q 1341 3281 1617 3432 
Q 1894 3584 2278 3584 
Q 2916 3584 3314 3078 
Q 3713 2572 3713 1747 
Q 3713 922 3314 415 
Q 2916 -91 2278 -91 
Q 1894 -91 1617 61 
Q 1341 213 1159 525 
L 1159 0 
L 581 0 
L 581 4863 
L 1159 4863 
L 1159 2969 
z
" transform="scale(0.015625)"/>
      </defs>
      <use xlink:href="#DejaVuSans-47"/>
      <use xlink:href="#DejaVuSans-6c" transform="translate(77.490234 0)"/>
      <use xlink:href="#DejaVuSans-6f" transform="translate(105.273438 0)"/>
      <use xlink:href="#DejaVuSans-62" transform="translate(166.455078 0)"/>
      <use xlink:href="#DejaVuSans-61" transform="translate(229.931641 0)"/>
      <use xlink:href="#DejaVuSans-6c" transform="translate(291.210938 0)"/>
      <use xlink:href="#DejaVuSans-47" transform="translate(318.994141 0)"/>
      <use xlink:href="#DejaVuSans-4e" transform="translate(396.484375 0)"/>
      <use xlink:href="#DejaVuSans-54" transform="translate(471.289062 0)"/>
      <use xlink:href="#DejaVuSans-53" transform="translate(532.373047 0)"/>
      <use xlink:href="#DejaVuSans-2d" transform="translate(595.849609 0)"/>
      <use xlink:href="#DejaVuSans-31" transform="translate(631.933594 0)"/>
      <use xlink:href="#DejaVuSans-34" transform="translate(695.556641 0)"/>
     </g>
    </g>
    <g id="line2d_43">
     <path d="M 51.88125 60.527344 
L 60.88125 60.527344 
L 69.88125 60.527344 
" style="fill: none; stroke: #2ca02c; stroke-width: 1.5; stroke-linecap: square"/>
    </g>
    <g id="text_23">
     <!-- Beta-Binomial-14 -->
     <g transform="translate(77.08125 63.677344) scale(0.09 -0.09)">
      <use xlink:href="#DejaVuSans-42"/>
      <use xlink:href="#DejaVuSans-65" transform="translate(68.603516 0)"/>
      <use xlink:href="#DejaVuSans-74" transform="translate(130.126953 0)"/>
      <use xlink:href="#DejaVuSans-61" transform="translate(169.335938 0)"/>
      <use xlink:href="#DejaVuSans-2d" transform="translate(230.615234 0)"/>
      <use xlink:href="#DejaVuSans-42" transform="translate(263.074219 0)"/>
      <use xlink:href="#DejaVuSans-69" transform="translate(331.677734 0)"/>
      <use xlink:href="#DejaVuSans-6e" transform="translate(359.460938 0)"/>
      <use xlink:href="#DejaVuSans-6f" transform="translate(422.839844 0)"/>
      <use xlink:href="#DejaVuSans-6d" transform="translate(484.021484 0)"/>
      <use xlink:href="#DejaVuSans-69" transform="translate(581.433594 0)"/>
      <use xlink:href="#DejaVuSans-61" transform="translate(609.216797 0)"/>
      <use xlink:href="#DejaVuSans-6c" transform="translate(670.496094 0)"/>
      <use xlink:href="#DejaVuSans-2d" transform="translate(698.279297 0)"/>
      <use xlink:href="#DejaVuSans-31" transform="translate(734.363281 0)"/>
      <use xlink:href="#DejaVuSans-34" transform="translate(797.986328 0)"/>
     </g>
    </g>
    <g id="line2d_44">
     <path d="M 51.88125 73.737656 
L 60.88125 73.737656 
L 69.88125 73.737656 
" style="fill: none; stroke: #d62728; stroke-width: 1.5; stroke-linecap: square"/>
    </g>
    <g id="text_24">
     <!-- Proportional -->
     <g transform="translate(77.08125 76.887656) scale(0.09 -0.09)">
      <defs>
       <path id="DejaVuSans-72" d="M 2631 2963 
Q 2534 3019 2420 3045 
Q 2306 3072 2169 3072 
Q 1681 3072 1420 2755 
Q 1159 2438 1159 1844 
L 1159 0 
L 581 0 
L 581 3500 
L 1159 3500 
L 1159 2956 
Q 1341 3275 1631 3429 
Q 1922 3584 2338 3584 
Q 2397 3584 2469 3576 
Q 2541 3569 2628 3553 
L 2631 2963 
z
" transform="scale(0.015625)"/>
       <path id="DejaVuSans-70" d="M 1159 525 
L 1159 -1331 
L 581 -1331 
L 581 3500 
L 1159 3500 
L 1159 2969 
Q 1341 3281 1617 3432 
Q 1894 3584 2278 3584 
Q 2916 3584 3314 3078 
Q 3713 2572 3713 1747 
Q 3713 922 3314 415 
Q 2916 -91 2278 -91 
Q 1894 -91 1617 61 
Q 1341 213 1159 525 
z
M 3116 1747 
Q 3116 2381 2855 2742 
Q 2594 3103 2138 3103 
Q 1681 3103 1420 2742 
Q 1159 2381 1159 1747 
Q 1159 1113 1420 752 
Q 1681 391 2138 391 
Q 2594 391 2855 752 
Q 3116 1113 3116 1747 
z
" transform="scale(0.015625)"/>
      </defs>
      <use xlink:href="#DejaVuSans-50"/>
      <use xlink:href="#DejaVuSans-72" transform="translate(58.552734 0)"/>
      <use xlink:href="#DejaVuSans-6f" transform="translate(97.416016 0)"/>
      <use xlink:href="#DejaVuSans-70" transform="translate(158.597656 0)"/>
      <use xlink:href="#DejaVuSans-6f" transform="translate(222.074219 0)"/>
      <use xlink:href="#DejaVuSans-72" transform="translate(283.255859 0)"/>
      <use xlink:href="#DejaVuSans-74" transform="translate(324.369141 0)"/>
      <use xlink:href="#DejaVuSans-69" transform="translate(363.578125 0)"/>
      <use xlink:href="#DejaVuSans-6f" transform="translate(391.361328 0)"/>
      <use xlink:href="#DejaVuSans-6e" transform="translate(452.542969 0)"/>
      <use xlink:href="#DejaVuSans-61" transform="translate(515.921875 0)"/>
      <use xlink:href="#DejaVuSans-6c" transform="translate(577.201172 0)"/>
     </g>
    </g>
    <g id="line2d_45">
     <path d="M 51.88125 86.947969 
L 60.88125 86.947969 
L 69.88125 86.947969 
" style="fill: none; stroke: #9467bd; stroke-width: 1.5; stroke-linecap: square"/>
    </g>
    <g id="text_25">
     <!-- Uniform -->
     <g transform="translate(77.08125 90.097969) scale(0.09 -0.09)">
      <defs>
       <path id="DejaVuSans-55" d="M 556 4666 
L 1191 4666 
L 1191 1831 
Q 1191 1081 1462 751 
Q 1734 422 2344 422 
Q 2950 422 3222 751 
Q 3494 1081 3494 1831 
L 3494 4666 
L 4128 4666 
L 4128 1753 
Q 4128 841 3676 375 
Q 3225 -91 2344 -91 
Q 1459 -91 1007 375 
Q 556 841 556 1753 
L 556 4666 
z
" transform="scale(0.015625)"/>
      </defs>
      <use xlink:href="#DejaVuSans-55"/>
      <use xlink:href="#DejaVuSans-6e" transform="translate(73.193359 0)"/>
      <use xlink:href="#DejaVuSans-69" transform="translate(136.572266 0)"/>
      <use xlink:href="#DejaVuSans-66" transform="translate(164.355469 0)"/>
      <use xlink:href="#DejaVuSans-6f" transform="translate(199.560547 0)"/>
      <use xlink:href="#DejaVuSans-72" transform="translate(260.742188 0)"/>
      <use xlink:href="#DejaVuSans-6d" transform="translate(300.105469 0)"/>
     </g>
    </g>
    <g id="line2d_46">
     <path d="M 51.88125 100.158281 
L 60.88125 100.158281 
L 69.88125 100.158281 
" style="fill: none; stroke: #8c564b; stroke-width: 1.5; stroke-linecap: square"/>
    </g>
    <g id="text_26">
     <!-- Random -->
     <g transform="translate(77.08125 103.308281) scale(0.09 -0.09)">
      <use xlink:href="#DejaVuSans-52"/>
      <use xlink:href="#DejaVuSans-61" transform="translate(67.232422 0)"/>
      <use xlink:href="#DejaVuSans-6e" transform="translate(128.511719 0)"/>
      <use xlink:href="#DejaVuSans-64" transform="translate(191.890625 0)"/>
      <use xlink:href="#DejaVuSans-6f" transform="translate(255.367188 0)"/>
      <use xlink:href="#DejaVuSans-6d" transform="translate(316.548828 0)"/>
     </g>
    </g>
   </g>
  </g>
 </g>
 <defs>
  <clipPath id="p18fbc7b205">
   <rect x="43.78125" y="22.318125" width="446.4" height="277.2"/>
  </clipPath>
 </defs>
</svg>
