<?xml version="1.0" encoding="utf-8" standalone="no"?>
<!DOCTYPE svg PUBLIC "-//W3C//DTD SVG 1.1//EN"
  "http://www.w3.org/Graphics/SVG/1.1/DTD/svg11.dtd">
<svg xmlns:xlink="http://www.w3.org/1999/xlink" width="497.38125pt" height="337.074375pt" viewBox="0 0 497.38125 337.074375" xmlns="http://www.w3.org/2000/svg" version="1.1">
 <metadata>
  <rdf:RDF xmlns:dc="http://purl.org/dc/elements/1.1/" xmlns:cc="http://creativecommons.org/ns#" xmlns:rdf="http://www.w3.org/1999/02/22-rdf-syntax-ns#">
   <cc:Work>
    <dc:type rdf:resource="http://purl.org/dc/dcmitype/StillImage"/>
    <dc:date>2026-07-01T09:39:58.198667</dc:date>
    <dc:format>image/svg+xml</dc:format>
    <dc:creator>
     <cc:Agent>
      <dc:title>Matplotlib v3.10.8, https://matplotlib.org/</dc:title>
     </cc:Agent>
    </dc:creator>
   </cc:Work>
  </rdf:RDF>
 </metadata>
 <defs>
  <style type="text/css">*{stroke-linejoin: round; stroke-linecap: butt}</style>
 </defs>
 <g id="figure_1">
  <g id="patch_1">
   <path d="M 0 337.074375 
L 497.38125 337.074375 
L 497.38125 0 
L 0 0 
z
" style="fill: #ffffff"/>
  </g>
  <g id="axes_1">
   <g id="patch_2">
    <path d="M 43.78125 299.518125 
L 490.18125 299.518125 
L 490.18125 22.318125 
L 43.78125 22.318125 
z
" style="fill: #ffffff"/>
   </g>
   <g id="matplotlib.axis_1">
    <g id="xtick_1">
     <g id="line2d_1">
      <path d="M 64.072159 299.518125 
L 64.072159 22.318125 
" clip-path="url(#p88ba2f5150)" style="fill: none; stroke-dasharray: 1.85,0.8; stroke-dashoffset: 0; stroke: #b0b0b0; stroke-opacity: 0.6; stroke-width: 0.5"/>
     </g>
     <g id="line2d_2">
      <defs>
       <path id="m5dcc300799" d="M 0 0 
L 0 3.5 
" style="stroke: #000000; stroke-width: 0.8"/>
      </defs>
      <g>
       <use xlink:href="#m5dcc300799" x="64.072159" y="299.518125" style="stroke: #000000; stroke-width: 0.8"/>
      </g>
     </g>
     <g id="text_1">
      <!-- 0 -->
      <g transform="translate(60.890909 314.116563) scale(0.1 -0.1)">
       <defs>
        <path id="DejaVuSans-30" d="M 2034 4250 
Q 1547 4250 1301 3770 
Q 1056 3291 1056 2328 
Q 1056 1369 1301 889 
Q 1547 409 2034 409 
Q 2525 409 2770 889 
Q 3016 1369 3016 2328 
Q 3016 3291 2770 3770 
Q 2525 4250 2034 4250 
z
M 2034 4750 
Q 2819 4750 3233 4129 
Q 3647 3509 3647 2328 
Q 3647 1150 3233 529 
Q 2819 -91 2034 -91 
Q 1250 -91 836 529 
Q 422 1150 422 2328 
Q 422 3509 836 4129 
Q 1250 4750 2034 4750 
z
" transform="scale(0.015625)"/>
       </defs>
       <use xlink:href="#DejaVuSans-30"/>
      </g>
     </g>
    </g>
    <g id="xtick_2">
     <g id="line2d_3">
      <path d="M 145.561754 299.518125 
L 145.561754 22.318125 
" clip-path="url(#p88ba2f5150)" style="fill: none; stroke-dasharray: 1.85,0.8; stroke-dashoffset: 0; stroke: #b0b0b0; stroke-opacity: 0.6; stroke-width: 0.5"/>
     </g>
     <g id="line2d_4">
      <g>
       <use xlink:href="#m5dcc300799" x="145.561754" y="299.518125" style="stroke: #000000; stroke-width: 0.8"/>
      </g>
     </g>
     <g id="text_2">
      <!-- 50 -->
      <g transform="translate(139.199254 314.116563) scale(0.1 -0.1)">
       <defs>
        <path id="DejaVuSans-35" d="M 691 4666 
L 3169 4666 
L 3169 4134 
L 1269 4134 
L 1269 2991 
Q 1406 3038 1543 3061 
Q 1681 3084 1819 3084 
Q 2600 3084 3056 2656 
Q 3513 2228 3513 1497 
Q 3513 744 3044 326 
Q 2575 -91 1722 -91 
Q 1428 -91 1123 -41 
Q 819 9 494 109 
L 494 744 
Q 775 591 1075 516 
Q 1375 441 1709 441 
Q 2250 441 2565 725 
Q 2881 1009 2881 1497 
Q 2881 1984 2565 2268 
Q 2250 2553 1709 2553 
Q 1456 2553 1204 2497 
Q 953 2441 691 2322 
L 691 4666 
z
" transform="scale(0.015625)"/>
       </defs>
       <use xlink:href="#DejaVuSans-35"/>
       <use xlink:href="#DejaVuSans-30" transform="translate(63.623047 0)"/>
      </g>
     </g>
    </g>
    <g id="xtick_3">
     <g id="line2d_5">
      <path d="M 227.051349 299.518125 
L 227.051349 22.318125 
" clip-path="url(#p88ba2f5150)" style="fill: none; stroke-dasharray: 1.85,0.8; stroke-dashoffset: 0; stroke: #b0b0b0; stroke-opacity: 0.6; stroke-width: 0.5"/>
     </g>
     <g id="line2d_6">
      <g>
       <use xlink:href="#m5dcc300799" x="227.051349" y="299.518125" style="stroke: #000000; stroke-width: 0.8"/>
      </g>
     </g>
     <g id="text_3">
      <!-- 100 -->
      <g transform="translate(217.507599 314.116563) scale(0.1 -0.1)">
       <defs>
        <path id="DejaVuSans-31" d="M 794 531 
L 1825 531 
L 1825 4091 
L 703 3866 
L 703 4441 
L 1819 4666 
L 2450 4666 
L 2450 531 
L 3481 531 
L 3481 0 
L 794 0 
L 794 531 
z
" transform="scale(0.015625)"/>
       </defs>
       <use xlink:href="#DejaVuSans-31"/>
       <use xlink:href="#DejaVuSans-30" transform="translate(63.623047 0)"/>
       <use xlink:href="#DejaVuSans-30" transform="translate(127.246094 0)"/>
      </g>
     </g>
    </g>
    <g id="xtick_4">
     <g id="line2d_7">
      <path d="M 308.540943 299.518125 
L 308.540943 22.318125 
" clip-path="url(#p88ba2f5150)" style="fill: none; stroke-dasharray: 1.85,0.8; stroke-dashoffset: 0; stroke: #b0b0b0; stroke-opacity: 0.6; stroke-width: 0.5"/>
     </g>
     <g id="line2d_8">
      <g>
       <use xlink:href="#m5dcc300799" x="308.540943" y="299.518125" style="stroke: #000000; stroke-width: 0.8"/>
      </g>
     </g>
     <g id="text_4">
      <!-- 150 -->
      <g transform="translate(298.997193 314.116563) scale(0.1 -0.1)">
       <use xlink:href="#DejaVuSans-31"/>
       <use xlink:href="#DejaVuSans-35" transform="translate(63.623047 0)"/>
       <use xlink:href="#DejaVuSans-30" transform="translate(127.246094 0)"/>
      </g>
     </g>
    </g>
    <g id="xtick_5">
     <g id="line2d_9">
      <path d="M 390.030538 299.518125 
L 390.030538 22.318125 
" clip-path="url(#p88ba2f5150)" style="fill: none; stroke-dasharray: 1.85,0.8; stroke-dashoffset: 0; stroke: #b0b0b0; stroke-opacity: 0.6; stroke-width: 0.5"/>
     </g>
     <g id="line2d_10">
      <g>
       <use xlink:href="#m5dcc300799" x="390.030538" y="299.518125" style="stroke: #000000; stroke-width: 0.8"/>
      </g>
     </g>
     <g id="text_5">
      <!-- 200 -->
      <g transform="translate(380.486788 314.116563) scale(0.1 -0.1)">
       <defs>
        <path id="DejaVuSans-32" d="M 1228 531 
L 3431 531 
L 3431 0 
L 469 0 
L 469 531 
Q 828 903 1448 1529 
Q 2069 2156 2228 2338 
Q 2531 2678 2651 2914 
Q 2772 3150 2772 3378 
Q 2772 3750 2511 3984 
Q 2250 4219 1831 4219 
Q 1534 4219 1204 4116 
Q 875 4013 500 3803 
L 500 4441 
Q 881 4594 1212 4672 
Q 1544 4750 1819 4750 
Q 2544 4750 2975 4387 
Q 3406 4025 3406 3419 
Q 3406 3131 3298 2873 
Q 3191 2616 2906 2266 
Q 2828 2175 2409 1742 
Q 1991 1309 1228 531 
z
" transform="scale(0.015625)"/>
       </defs>
       <use xlink:href="#DejaVuSans-32"/>
       <use xlink:href="#DejaVuSans-30" transform="translate(63.623047 0)"/>
       <use xlink:href="#DejaVuSans-30" transform="translate(127.246094 0)"/>
      </g>
     </g>
    </g>
    <g id="xtick_6">
     <g id="line2d_11">
      <path d="M 471.520133 299.518125 
L 471.520133 22.318125 
" clip-path="url(#p88ba2f5150)" style="fill: none; stroke-dasharray: 1.85,0.8; stroke-dashoffset: 0; stroke: #b0b0b0; stroke-opacity: 0.6; stroke-width: 0.5"/>
     </g>
     <g id="line2d_12">
      <g>
       <use xlink:href="#m5dcc300799" x="471.520133" y="299.518125" style="stroke: #000000; stroke-width: 0.8"/>
      </g>
     </g>
     <g id="text_6">
      <!-- 250 -->
      <g transform="translate(461.976383 314.116563) scale(0.1 -0.1)">
       <use xlink:href="#DejaVuSans-32"/>
       <use xlink:href="#DejaVuSans-35" transform="translate(63.623047 0)"/>
       <use xlink:href="#DejaVuSans-30" transform="translate(127.246094 0)"/>
      </g>
     </g>
    </g>
    <g id="text_7">
     <!-- Simulation Day -->
     <g transform="translate(228.885937 327.794688) scale(0.1 -0.1)">
      <defs>
       <path id="DejaVuSans-53" d="M 3425 4513 
L 3425 3897 
Q 3066 4069 2747 4153 
Q 2428 4238 2131 4238 
Q 1616 4238 1336 4038 
Q 1056 3838 1056 3469 
Q 1056 3159 1242 3001 
Q 1428 2844 1947 2747 
L 2328 2669 
Q 3034 2534 3370 2195 
Q 3706 1856 3706 1288 
Q 3706 609 3251 259 
Q 2797 -91 1919 -91 
Q 1588 -91 1214 -16 
Q 841 59 441 206 
L 441 856 
Q 825 641 1194 531 
Q 1563 422 1919 422 
Q 2459 422 2753 634 
Q 3047 847 3047 1241 
Q 3047 1584 2836 1778 
Q 2625 1972 2144 2069 
L 1759 2144 
Q 1053 2284 737 2584 
Q 422 2884 422 3419 
Q 422 4038 858 4394 
Q 1294 4750 2059 4750 
Q 2388 4750 2728 4690 
Q 3069 4631 3425 4513 
z
" transform="scale(0.015625)"/>
       <path id="DejaVuSans-69" d="M 603 3500 
L 1178 3500 
L 1178 0 
L 603 0 
L 603 3500 
z
M 603 4863 
L 1178 4863 
L 1178 4134 
L 603 4134 
L 603 4863 
z
" transform="scale(0.015625)"/>
       <path id="DejaVuSans-6d" d="M 3328 2828 
Q 3544 3216 3844 3400 
Q 4144 3584 4550 3584 
Q 5097 3584 5394 3201 
Q 5691 2819 5691 2113 
L 5691 0 
L 5113 0 
L 5113 2094 
Q 5113 2597 4934 2840 
Q 4756 3084 4391 3084 
Q 3944 3084 3684 2787 
Q 3425 2491 3425 1978 
L 3425 0 
L 2847 0 
L 2847 2094 
Q 2847 2600 2669 2842 
Q 2491 3084 2119 3084 
Q 1678 3084 1418 2786 
Q 1159 2488 1159 1978 
L 1159 0 
L 581 0 
L 581 3500 
L 1159 3500 
L 1159 2956 
Q 1356 3278 1631 3431 
Q 1906 3584 2284 3584 
Q 2666 3584 2933 3390 
Q 3200 3197 3328 2828 
z
" transform="scale(0.015625)"/>
       <path id="DejaVuSans-75" d="M 544 1381 
L 544 3500 
L 1119 3500 
L 1119 1403 
Q 1119 906 1312 657 
Q 1506 409 1894 409 
Q 2359 409 2629 706 
Q 2900 1003 2900 1516 
L 2900 3500 
L 3475 3500 
L 3475 0 
L 2900 0 
L 2900 538 
Q 2691 219 2414 64 
Q 2138 -91 1772 -91 
Q 1169 -91 856 284 
Q 544 659 544 1381 
z
M 1991 3584 
L 1991 3584 
z
" transform="scale(0.015625)"/>
       <path id="DejaVuSans-6c" d="M 603 4863 
L 1178 4863 
L 1178 0 
L 603 0 
L 603 4863 
z
" transform="scale(0.015625)"/>
       <path id="DejaVuSans-61" d="M 2194 1759 
Q 1497 1759 1228 1600 
Q 959 1441 959 1056 
Q 959 750 1161 570 
Q 1363 391 1709 391 
Q 2188 391 2477 730 
Q 2766 1069 2766 1631 
L 2766 1759 
L 2194 1759 
z
M 3341 1997 
L 3341 0 
L 2766 0 
L 2766 531 
Q 2569 213 2275 61 
Q 1981 -91 1556 -91 
Q 1019 -91 701 211 
Q 384 513 384 1019 
Q 384 1609 779 1909 
Q 1175 2209 1959 2209 
L 2766 2209 
L 2766 2266 
Q 2766 2663 2505 2880 
Q 2244 3097 1772 3097 
Q 1472 3097 1187 3025 
Q 903 2953 641 2809 
L 641 3341 
Q 956 3463 1253 3523 
Q 1550 3584 1831 3584 
Q 2591 3584 2966 3190 
Q 3341 2797 3341 1997 
z
" transform="scale(0.015625)"/>
       <path id="DejaVuSans-74" d="M 1172 4494 
L 1172 3500 
L 2356 3500 
L 2356 3053 
L 1172 3053 
L 1172 1153 
Q 1172 725 1289 603 
Q 1406 481 1766 481 
L 2356 481 
L 2356 0 
L 1766 0 
Q 1100 0 847 248 
Q 594 497 594 1153 
L 594 3053 
L 172 3053 
L 172 3500 
L 594 3500 
L 594 4494 
L 1172 4494 
z
" transform="scale(0.015625)"/>
       <path id="DejaVuSans-6f" d="M 1959 3097 
Q 1497 3097 1228 2736 
Q 959 2375 959 1747 
Q 959 1119 1226 758 
Q 1494 397 1959 397 
Q 2419 397 2687 759 
Q 2956 1122 2956 1747 
Q 2956 2369 2687 2733 
Q 2419 3097 1959 3097 
z
M 1959 3584 
Q 2709 3584 3137 3096 
Q 3566 2609 3566 1747 
Q 3566 888 3137 398 
Q 2709 -91 1959 -91 
Q 1206 -91 779 398 
Q 353 888 353 1747 
Q 353 2609 779 3096 
Q 1206 3584 1959 3584 
z
" transform="scale(0.015625)"/>
       <path id="DejaVuSans-6e" d="M 3513 2113 
L 3513 0 
L 2938 0 
L 2938 2094 
Q 2938 2591 2744 2837 
Q 2550 3084 2163 3084 
Q 1697 3084 1428 2787 
Q 1159 2491 1159 1978 
L 1159 0 
L 581 0 
L 581 3500 
L 1159 3500 
L 1159 2956 
Q 1366 3272 1645 3428 
Q 1925 3584 2291 3584 
Q 2894 3584 3203 3211 
Q 3513 2838 3513 2113 
z
" transform="scale(0.015625)"/>
       <path id="DejaVuSans-20" transform="scale(0.015625)"/>
       <path id="DejaVuSans-44" d="M 1259 4147 
L 1259 519 
L 2022 519 
Q 2988 519 3436 956 
Q 3884 1394 3884 2338 
Q 3884 3275 3436 3711 
Q 2988 4147 2022 4147 
L 1259 4147 
z
M 628 4666 
L 1925 4666 
Q 3281 4666 3915 4102 
Q 4550 3538 4550 2338 
Q 4550 1131 3912 565 
Q 3275 0 1925 0 
L 628 0 
L 628 4666 
z
" transform="scale(0.015625)"/>
       <path id="DejaVuSans-79" d="M 2059 -325 
Q 1816 -950 1584 -1140 
Q 1353 -1331 966 -1331 
L 506 -1331 
L 506 -850 
L 844 -850 
Q 1081 -850 1212 -737 
Q 1344 -625 1503 -206 
L 1606 56 
L 191 3500 
L 800 3500 
L 1894 763 
L 2988 3500 
L 3597 3500 
L 2059 -325 
z
" transform="scale(0.015625)"/>
      </defs>
      <use xlink:href="#DejaVuSans-53"/>
      <use xlink:href="#DejaVuSans-69" transform="translate(63.476562 0)"/>
      <use xlink:href="#DejaVuSans-6d" transform="translate(91.259766 0)"/>
      <use xlink:href="#DejaVuSans-75" transform="translate(188.671875 0)"/>
      <use xlink:href="#DejaVuSans-6c" transform="translate(252.050781 0)"/>
      <use xlink:href="#DejaVuSans-61" transform="translate(279.833984 0)"/>
      <use xlink:href="#DejaVuSans-74" transform="translate(341.113281 0)"/>
      <use xlink:href="#DejaVuSans-69" transform="translate(380.322266 0)"/>
      <use xlink:href="#DejaVuSans-6f" transform="translate(408.105469 0)"/>
      <use xlink:href="#DejaVuSans-6e" transform="translate(469.287109 0)"/>
      <use xlink:href="#DejaVuSans-20" transform="translate(532.666016 0)"/>
      <use xlink:href="#DejaVuSans-44" transform="translate(564.453125 0)"/>
      <use xlink:href="#DejaVuSans-61" transform="translate(641.455078 0)"/>
      <use xlink:href="#DejaVuSans-79" transform="translate(702.734375 0)"/>
     </g>
    </g>
   </g>
   <g id="matplotlib.axis_2">
    <g id="ytick_1">
     <g id="line2d_13">
      <path d="M 43.78125 286.918125 
L 490.18125 286.918125 
" clip-path="url(#p88ba2f5150)" style="fill: none; stroke-dasharray: 1.85,0.8; stroke-dashoffset: 0; stroke: #b0b0b0; stroke-opacity: 0.6; stroke-width: 0.5"/>
     </g>
     <g id="line2d_14">
      <defs>
       <path id="m4c4497a606" d="M 0 0 
L -3.5 0 
" style="stroke: #000000; stroke-width: 0.8"/>
      </defs>
      <g>
       <use xlink:href="#m4c4497a606" x="43.78125" y="286.918125" style="stroke: #000000; stroke-width: 0.8"/>
      </g>
     </g>
     <g id="text_8">
      <!-- 0.0 -->
      <g transform="translate(20.878125 290.717344) scale(0.1 -0.1)">
       <defs>
        <path id="DejaVuSans-2e" d="M 684 794 
L 1344 794 
L 1344 0 
L 684 0 
L 684 794 
z
" transform="scale(0.015625)"/>
       </defs>
       <use xlink:href="#DejaVuSans-30"/>
       <use xlink:href="#DejaVuSans-2e" transform="translate(63.623047 0)"/>
       <use xlink:href="#DejaVuSans-30" transform="translate(95.410156 0)"/>
      </g>
     </g>
    </g>
    <g id="ytick_2">
     <g id="line2d_15">
      <path d="M 43.78125 251.772894 
L 490.18125 251.772894 
" clip-path="url(#p88ba2f5150)" style="fill: none; stroke-dasharray: 1.85,0.8; stroke-dashoffset: 0; stroke: #b0b0b0; stroke-opacity: 0.6; stroke-width: 0.5"/>
     </g>
     <g id="line2d_16">
      <g>
       <use xlink:href="#m4c4497a606" x="43.78125" y="251.772894" style="stroke: #000000; stroke-width: 0.8"/>
      </g>
     </g>
     <g id="text_9">
      <!-- 0.1 -->
      <g transform="translate(20.878125 255.572113) scale(0.1 -0.1)">
       <use xlink:href="#DejaVuSans-30"/>
       <use xlink:href="#DejaVuSans-2e" transform="translate(63.623047 0)"/>
       <use xlink:href="#DejaVuSans-31" transform="translate(95.410156 0)"/>
      </g>
     </g>
    </g>
    <g id="ytick_3">
     <g id="line2d_17">
      <path d="M 43.78125 216.627664 
L 490.18125 216.627664 
" clip-path="url(#p88ba2f5150)" style="fill: none; stroke-dasharray: 1.85,0.8; stroke-dashoffset: 0; stroke: #b0b0b0; stroke-opacity: 0.6; stroke-width: 0.5"/>
     </g>
     <g id="line2d_18">
      <g>
       <use xlink:href="#m4c4497a606" x="43.78125" y="216.627664" style="stroke: #000000; stroke-width: 0.8"/>
      </g>
     </g>
     <g id="text_10">
      <!-- 0.2 -->
      <g transform="translate(20.878125 220.426882) scale(0.1 -0.1)">
       <use xlink:href="#DejaVuSans-30"/>
       <use xlink:href="#DejaVuSans-2e" transform="translate(63.623047 0)"/>
       <use xlink:href="#DejaVuSans-32" transform="translate(95.410156 0)"/>
      </g>
     </g>
    </g>
    <g id="ytick_4">
     <g id="line2d_19">
      <path d="M 43.78125 181.482433 
L 490.18125 181.482433 
" clip-path="url(#p88ba2f5150)" style="fill: none; stroke-dasharray: 1.85,0.8; stroke-dashoffset: 0; stroke: #b0b0b0; stroke-opacity: 0.6; stroke-width: 0.5"/>
     </g>
     <g id="line2d_20">
      <g>
       <use xlink:href="#m4c4497a606" x="43.78125" y="181.482433" style="stroke: #000000; stroke-width: 0.8"/>
      </g>
     </g>
     <g id="text_11">
      <!-- 0.3 -->
      <g transform="translate(20.878125 185.281652) scale(0.1 -0.1)">
       <defs>
        <path id="DejaVuSans-33" d="M 2597 2516 
Q 3050 2419 3304 2112 
Q 3559 1806 3559 1356 
Q 3559 666 3084 287 
Q 2609 -91 1734 -91 
Q 1441 -91 1130 -33 
Q 819 25 488 141 
L 488 750 
Q 750 597 1062 519 
Q 1375 441 1716 441 
Q 2309 441 2620 675 
Q 2931 909 2931 1356 
Q 2931 1769 2642 2001 
Q 2353 2234 1838 2234 
L 1294 2234 
L 1294 2753 
L 1863 2753 
Q 2328 2753 2575 2939 
Q 2822 3125 2822 3475 
Q 2822 3834 2567 4026 
Q 2313 4219 1838 4219 
Q 1578 4219 1281 4162 
Q 984 4106 628 3988 
L 628 4550 
Q 988 4650 1302 4700 
Q 1616 4750 1894 4750 
Q 2613 4750 3031 4423 
Q 3450 4097 3450 3541 
Q 3450 3153 3228 2886 
Q 3006 2619 2597 2516 
z
" transform="scale(0.015625)"/>
       </defs>
       <use xlink:href="#DejaVuSans-30"/>
       <use xlink:href="#DejaVuSans-2e" transform="translate(63.623047 0)"/>
       <use xlink:href="#DejaVuSans-33" transform="translate(95.410156 0)"/>
      </g>
     </g>
    </g>
    <g id="ytick_5">
     <g id="line2d_21">
      <path d="M 43.78125 146.337202 
L 490.18125 146.337202 
" clip-path="url(#p88ba2f5150)" style="fill: none; stroke-dasharray: 1.85,0.8; stroke-dashoffset: 0; stroke: #b0b0b0; stroke-opacity: 0.6; stroke-width: 0.5"/>
     </g>
     <g id="line2d_22">
      <g>
       <use xlink:href="#m4c4497a606" x="43.78125" y="146.337202" style="stroke: #000000; stroke-width: 0.8"/>
      </g>
     </g>
     <g id="text_12">
      <!-- 0.4 -->
      <g transform="translate(20.878125 150.136421) scale(0.1 -0.1)">
       <defs>
        <path id="DejaVuSans-34" d="M 2419 4116 
L 825 1625 
L 2419 1625 
L 2419 4116 
z
M 2253 4666 
L 3047 4666 
L 3047 1625 
L 3713 1625 
L 3713 1100 
L 3047 1100 
L 3047 0 
L 2419 0 
L 2419 1100 
L 313 1100 
L 313 1709 
L 2253 4666 
z
" transform="scale(0.015625)"/>
       </defs>
       <use xlink:href="#DejaVuSans-30"/>
       <use xlink:href="#DejaVuSans-2e" transform="translate(63.623047 0)"/>
       <use xlink:href="#DejaVuSans-34" transform="translate(95.410156 0)"/>
      </g>
     </g>
    </g>
    <g id="ytick_6">
     <g id="line2d_23">
      <path d="M 43.78125 111.191972 
L 490.18125 111.191972 
" clip-path="url(#p88ba2f5150)" style="fill: none; stroke-dasharray: 1.85,0.8; stroke-dashoffset: 0; stroke: #b0b0b0; stroke-opacity: 0.6; stroke-width: 0.5"/>
     </g>
     <g id="line2d_24">
      <g>
       <use xlink:href="#m4c4497a606" x="43.78125" y="111.191972" style="stroke: #000000; stroke-width: 0.8"/>
      </g>
     </g>
     <g id="text_13">
      <!-- 0.5 -->
      <g transform="translate(20.878125 114.99119) scale(0.1 -0.1)">
       <use xlink:href="#DejaVuSans-30"/>
       <use xlink:href="#DejaVuSans-2e" transform="translate(63.623047 0)"/>
       <use xlink:href="#DejaVuSans-35" transform="translate(95.410156 0)"/>
      </g>
     </g>
    </g>
    <g id="ytick_7">
     <g id="line2d_25">
      <path d="M 43.78125 76.046741 
L 490.18125 76.046741 
" clip-path="url(#p88ba2f5150)" style="fill: none; stroke-dasharray: 1.85,0.8; stroke-dashoffset: 0; stroke: #b0b0b0; stroke-opacity: 0.6; stroke-width: 0.5"/>
     </g>
     <g id="line2d_26">
      <g>
       <use xlink:href="#m4c4497a606" x="43.78125" y="76.046741" style="stroke: #000000; stroke-width: 0.8"/>
      </g>
     </g>
     <g id="text_14">
      <!-- 0.6 -->
      <g transform="translate(20.878125 79.84596) scale(0.1 -0.1)">
       <defs>
        <path id="DejaVuSans-36" d="M 2113 2584 
Q 1688 2584 1439 2293 
Q 1191 2003 1191 1497 
Q 1191 994 1439 701 
Q 1688 409 2113 409 
Q 2538 409 2786 701 
Q 3034 994 3034 1497 
Q 3034 2003 2786 2293 
Q 2538 2584 2113 2584 
z
M 3366 4563 
L 3366 3988 
Q 3128 4100 2886 4159 
Q 2644 4219 2406 4219 
Q 1781 4219 1451 3797 
Q 1122 3375 1075 2522 
Q 1259 2794 1537 2939 
Q 1816 3084 2150 3084 
Q 2853 3084 3261 2657 
Q 3669 2231 3669 1497 
Q 3669 778 3244 343 
Q 2819 -91 2113 -91 
Q 1303 -91 875 529 
Q 447 1150 447 2328 
Q 447 3434 972 4092 
Q 1497 4750 2381 4750 
Q 2619 4750 2861 4703 
Q 3103 4656 3366 4563 
z
" transform="scale(0.015625)"/>
       </defs>
       <use xlink:href="#DejaVuSans-30"/>
       <use xlink:href="#DejaVuSans-2e" transform="translate(63.623047 0)"/>
       <use xlink:href="#DejaVuSans-36" transform="translate(95.410156 0)"/>
      </g>
     </g>
    </g>
    <g id="ytick_8">
     <g id="line2d_27">
      <path d="M 43.78125 40.90151 
L 490.18125 40.90151 
" clip-path="url(#p88ba2f5150)" style="fill: none; stroke-dasharray: 1.85,0.8; stroke-dashoffset: 0; stroke: #b0b0b0; stroke-opacity: 0.6; stroke-width: 0.5"/>
     </g>
     <g id="line2d_28">
      <g>
       <use xlink:href="#m4c4497a606" x="43.78125" y="40.90151" style="stroke: #000000; stroke-width: 0.8"/>
      </g>
     </g>
     <g id="text_15">
      <!-- 0.7 -->
      <g transform="translate(20.878125 44.700729) scale(0.1 -0.1)">
       <defs>
        <path id="DejaVuSans-37" d="M 525 4666 
L 3525 4666 
L 3525 4397 
L 1831 0 
L 1172 0 
L 2766 4134 
L 525 4134 
L 525 4666 
z
" transform="scale(0.015625)"/>
       </defs>
       <use xlink:href="#DejaVuSans-30"/>
       <use xlink:href="#DejaVuSans-2e" transform="translate(63.623047 0)"/>
       <use xlink:href="#DejaVuSans-37" transform="translate(95.410156 0)"/>
      </g>
     </g>
    </g>
    <g id="text_16">
     <!-- Detection Ratio (Efficiency) -->
     <g transform="translate(14.798438 229.282969) rotate(-90) scale(0.1 -0.1)">
      <defs>
       <path id="DejaVuSans-65" d="M 3597 1894 
L 3597 1613 
L 953 1613 
Q 991 1019 1311 708 
Q 1631 397 2203 397 
Q 2534 397 2845 478 
Q 3156 559 3463 722 
L 3463 178 
Q 3153 47 2828 -22 
Q 2503 -91 2169 -91 
Q 1331 -91 842 396 
Q 353 884 353 1716 
Q 353 2575 817 3079 
Q 1281 3584 2069 3584 
Q 2775 3584 3186 3129 
Q 3597 2675 3597 1894 
z
M 3022 2063 
Q 3016 2534 2758 2815 
Q 2500 3097 2075 3097 
Q 1594 3097 1305 2825 
Q 1016 2553 972 2059 
L 3022 2063 
z
" transform="scale(0.015625)"/>
       <path id="DejaVuSans-63" d="M 3122 3366 
L 3122 2828 
Q 2878 2963 2633 3030 
Q 2388 3097 2138 3097 
Q 1578 3097 1268 2742 
Q 959 2388 959 1747 
Q 959 1106 1268 751 
Q 1578 397 2138 397 
Q 2388 397 2633 464 
Q 2878 531 3122 666 
L 3122 134 
Q 2881 22 2623 -34 
Q 2366 -91 2075 -91 
Q 1284 -91 818 406 
Q 353 903 353 1747 
Q 353 2603 823 3093 
Q 1294 3584 2113 3584 
Q 2378 3584 2631 3529 
Q 2884 3475 3122 3366 
z
" transform="scale(0.015625)"/>
       <path id="DejaVuSans-52" d="M 2841 2188 
Q 3044 2119 3236 1894 
Q 3428 1669 3622 1275 
L 4263 0 
L 3584 0 
L 2988 1197 
Q 2756 1666 2539 1819 
Q 2322 1972 1947 1972 
L 1259 1972 
L 1259 0 
L 628 0 
L 628 4666 
L 2053 4666 
Q 2853 4666 3247 4331 
Q 3641 3997 3641 3322 
Q 3641 2881 3436 2590 
Q 3231 2300 2841 2188 
z
M 1259 4147 
L 1259 2491 
L 2053 2491 
Q 2509 2491 2742 2702 
Q 2975 2913 2975 3322 
Q 2975 3731 2742 3939 
Q 2509 4147 2053 4147 
L 1259 4147 
z
" transform="scale(0.015625)"/>
       <path id="DejaVuSans-28" d="M 1984 4856 
Q 1566 4138 1362 3434 
Q 1159 2731 1159 2009 
Q 1159 1288 1364 580 
Q 1569 -128 1984 -844 
L 1484 -844 
Q 1016 -109 783 600 
Q 550 1309 550 2009 
Q 550 2706 781 3412 
Q 1013 4119 1484 4856 
L 1984 4856 
z
" transform="scale(0.015625)"/>
       <path id="DejaVuSans-45" d="M 628 4666 
L 3578 4666 
L 3578 4134 
L 1259 4134 
L 1259 2753 
L 3481 2753 
L 3481 2222 
L 1259 2222 
L 1259 531 
L 3634 531 
L 3634 0 
L 628 0 
L 628 4666 
z
" transform="scale(0.015625)"/>
       <path id="DejaVuSans-66" d="M 2375 4863 
L 2375 4384 
L 1825 4384 
Q 1516 4384 1395 4259 
Q 1275 4134 1275 3809 
L 1275 3500 
L 2222 3500 
L 2222 3053 
L 1275 3053 
L 1275 0 
L 697 0 
L 697 3053 
L 147 3053 
L 147 3500 
L 697 3500 
L 697 3744 
Q 697 4328 969 4595 
Q 1241 4863 1831 4863 
L 2375 4863 
z
" transform="scale(0.015625)"/>
       <path id="DejaVuSans-29" d="M 513 4856 
L 1013 4856 
Q 1481 4119 1714 3412 
Q 1947 2706 1947 2009 
Q 1947 1309 1714 600 
Q 1481 -109 1013 -844 
L 513 -844 
Q 928 -128 1133 580 
Q 1338 1288 1338 2009 
Q 1338 2731 1133 3434 
Q 928 4138 513 4856 
z
" transform="scale(0.015625)"/>
      </defs>
      <use xlink:href="#DejaVuSans-44"/>
      <use xlink:href="#DejaVuSans-65" transform="translate(77.001953 0)"/>
      <use xlink:href="#DejaVuSans-74" transform="translate(138.525391 0)"/>
      <use xlink:href="#DejaVuSans-65" transform="translate(177.734375 0)"/>
      <use xlink:href="#DejaVuSans-63" transform="translate(239.257812 0)"/>
      <use xlink:href="#DejaVuSans-74" transform="translate(294.238281 0)"/>
      <use xlink:href="#DejaVuSans-69" transform="translate(333.447266 0)"/>
      <use xlink:href="#DejaVuSans-6f" transform="translate(361.230469 0)"/>
      <use xlink:href="#DejaVuSans-6e" transform="translate(422.412109 0)"/>
      <use xlink:href="#DejaVuSans-20" transform="translate(485.791016 0)"/>
      <use xlink:href="#DejaVuSans-52" transform="translate(517.578125 0)"/>
      <use xlink:href="#DejaVuSans-61" transform="translate(584.810547 0)"/>
      <use xlink:href="#DejaVuSans-74" transform="translate(646.089844 0)"/>
      <use xlink:href="#DejaVuSans-69" transform="translate(685.298828 0)"/>
      <use xlink:href="#DejaVuSans-6f" transform="translate(713.082031 0)"/>
      <use xlink:href="#DejaVuSans-20" transform="translate(774.263672 0)"/>
      <use xlink:href="#DejaVuSans-28" transform="translate(806.050781 0)"/>
      <use xlink:href="#DejaVuSans-45" transform="translate(845.064453 0)"/>
      <use xlink:href="#DejaVuSans-66" transform="translate(908.248047 0)"/>
      <use xlink:href="#DejaVuSans-66" transform="translate(943.453125 0)"/>
      <use xlink:href="#DejaVuSans-69" transform="translate(978.658203 0)"/>
      <use xlink:href="#DejaVuSans-63" transform="translate(1006.441406 0)"/>
      <use xlink:href="#DejaVuSans-69" transform="translate(1061.421875 0)"/>
      <use xlink:href="#DejaVuSans-65" transform="translate(1089.205078 0)"/>
      <use xlink:href="#DejaVuSans-6e" transform="translate(1150.728516 0)"/>
      <use xlink:href="#DejaVuSans-63" transform="translate(1214.107422 0)"/>
      <use xlink:href="#DejaVuSans-79" transform="translate(1269.087891 0)"/>
      <use xlink:href="#DejaVuSans-29" transform="translate(1328.267578 0)"/>
     </g>
    </g>
   </g>
   <g id="line2d_29">
    <path d="M 64.072159 286.918125 
L 160.229881 286.918125 
L 161.859673 235.476719 
L 165.119257 215.333902 
L 166.749048 208.213989 
L 168.37884 195.401583 
L 171.638424 181.49659 
L 173.268216 179.988727 
L 174.898008 173.619386 
L 176.5278 153.412905 
L 178.157592 146.19057 
L 179.787384 126.181711 
L 181.417176 120.48059 
L 183.046967 114.097496 
L 184.676759 109.095867 
L 191.195927 87.455818 
L 192.825719 83.191971 
L 194.455511 79.797884 
L 196.085303 76.874616 
L 197.715094 72.24391 
L 199.344886 68.738029 
L 200.974678 66.40779 
L 202.60447 64.787709 
L 204.234262 61.86494 
L 205.864054 59.888571 
L 207.493846 58.272314 
L 209.123638 56.974532 
L 210.75343 120.616199 
L 212.383222 119.319605 
L 214.013013 117.481888 
L 215.642805 117.194035 
L 218.902389 114.516001 
L 220.532181 113.453867 
L 222.161973 113.076915 
L 223.791765 111.847371 
L 225.421557 111.322842 
L 227.051349 110.967703 
L 228.68114 109.28276 
L 230.310932 111.053084 
L 231.940724 111.08433 
L 233.570516 111.536617 
L 235.200308 112.137609 
L 236.8301 113.923754 
L 238.459892 113.69171 
L 240.089684 113.962331 
L 241.719476 111.101182 
L 243.349268 110.099166 
L 244.979059 109.636149 
L 246.608851 108.520672 
L 248.238643 110.226206 
L 249.868435 110.012452 
L 251.498227 109.124562 
L 253.128019 112.228561 
L 254.757811 112.786934 
L 256.387603 114.335996 
L 259.647186 108.742042 
L 261.276978 109.877904 
L 262.90677 111.273474 
L 264.536562 114.585946 
L 266.166354 117.613833 
L 267.796146 118.30291 
L 269.425938 113.992525 
L 271.05573 116.157297 
L 272.685522 115.731624 
L 274.315314 117.405064 
L 275.945105 120.570091 
L 277.574897 119.07465 
L 279.204689 120.718784 
L 280.834481 117.747656 
L 282.464273 119.151529 
L 284.094065 121.284109 
L 285.723857 122.130992 
L 287.353649 120.930666 
L 288.983441 124.547439 
L 290.613232 121.311871 
L 292.243024 123.736521 
L 293.872816 124.711313 
L 295.502608 124.804866 
L 297.1324 123.887472 
L 300.391984 123.650306 
L 302.021776 120.236951 
L 303.651568 118.459761 
L 305.28136 122.12138 
L 306.911151 123.010435 
L 308.540943 117.889068 
L 311.800527 125.750409 
L 313.430319 123.051626 
L 316.689903 131.137603 
L 318.319695 132.091233 
L 319.949487 127.163451 
L 321.579278 131.076555 
L 323.20907 129.759004 
L 324.838862 134.129065 
L 326.468654 135.499052 
L 328.098446 134.970821 
L 329.728238 130.809316 
L 331.35803 129.395019 
L 332.987822 131.604701 
L 334.617614 124.55841 
L 336.247406 127.465602 
L 337.877197 131.159105 
L 339.506989 131.654526 
L 341.136781 136.532799 
L 342.766573 133.905707 
L 344.396365 135.030409 
L 346.026157 130.584271 
L 347.655949 123.770141 
L 349.285741 120.550914 
L 352.545324 129.174669 
L 354.175116 137.64375 
L 355.804908 139.871353 
L 357.4347 136.425505 
L 359.064492 128.023017 
L 360.694284 121.412444 
L 362.324076 118.73641 
L 365.58366 133.172283 
L 367.213452 137.068716 
L 368.843243 139.728941 
L 370.473035 139.379623 
L 372.102827 141.151594 
L 373.732619 131.433752 
L 375.362411 132.645821 
L 376.992203 138.499677 
L 378.621995 138.765408 
L 380.251787 141.027668 
L 381.881579 152.364141 
L 383.51137 158.959868 
L 385.141162 163.849157 
L 386.770954 157.427997 
L 388.400746 161.230046 
L 391.66033 169.212634 
L 393.290122 176.640308 
L 394.919914 167.523211 
L 396.549706 173.934493 
L 398.179498 176.135902 
L 399.809289 158.52632 
L 401.439081 160.842461 
L 403.068873 160.910757 
L 404.698665 163.666387 
L 406.328457 154.153986 
L 407.958249 151.406885 
L 409.588041 153.454219 
L 411.217833 145.65065 
L 414.477416 152.269926 
L 416.107208 146.828744 
L 417.737 156.559625 
L 419.366792 154.074941 
L 420.996584 160.443698 
L 422.626376 156.802535 
L 425.88596 156.106207 
L 427.515752 166.609628 
L 429.145544 155.087406 
L 430.775335 157.891061 
L 432.405127 157.700649 
L 434.034919 151.747228 
L 435.664711 148.234787 
L 437.294503 138.733667 
L 438.924295 139.394934 
L 440.554087 134.699008 
L 442.183879 143.115556 
L 443.813671 139.709816 
L 447.073254 152.771811 
L 448.703046 152.991331 
L 450.332838 149.781739 
L 451.96263 155.653478 
L 453.592422 156.953586 
L 455.222214 156.019297 
L 456.852006 154.876711 
L 458.481798 152.497019 
L 460.11159 143.780851 
L 461.741381 131.153098 
L 463.371173 145.956397 
L 465.000965 143.768448 
L 466.630757 144.440476 
L 468.260549 148.761499 
L 469.890341 150.924046 
L 469.890341 150.924046 
" clip-path="url(#p88ba2f5150)" style="fill: none; stroke: #1f77b4; stroke-width: 2; stroke-linecap: square"/>
   </g>
   <g id="line2d_30">
    <path d="M 64.072159 286.918125 
L 160.229881 286.918125 
L 161.859673 239.052959 
L 163.489465 227.672727 
L 165.119257 218.597773 
L 166.749048 208.633986 
L 168.37884 199.500765 
L 170.008632 181.507549 
L 171.638424 169.556534 
L 173.268216 164.781218 
L 174.898008 159.063468 
L 176.5278 154.181963 
L 178.157592 146.717201 
L 179.787384 141.879104 
L 181.417176 142.848829 
L 183.046967 130.186868 
L 184.676759 127.620829 
L 186.306551 121.133954 
L 187.936343 116.072479 
L 189.566135 109.848294 
L 191.195927 103.044178 
L 192.825719 97.739413 
L 194.455511 94.306029 
L 196.085303 90.147704 
L 197.715094 87.168792 
L 199.344886 86.371742 
L 200.974678 84.459427 
L 202.60447 81.580162 
L 204.234262 86.862882 
L 205.864054 87.312114 
L 207.493846 87.474268 
L 209.123638 86.208239 
L 210.75343 82.704411 
L 212.383222 80.984071 
L 214.013013 78.416587 
L 215.642805 76.353923 
L 217.272597 75.166021 
L 218.902389 76.675835 
L 220.532181 76.156625 
L 222.161973 75.967197 
L 223.791765 90.045861 
L 225.421557 89.907864 
L 227.051349 45.275183 
L 228.68114 45.064541 
L 230.310932 43.330813 
L 231.940724 42.936592 
L 233.570516 112.460259 
L 235.200308 113.162906 
L 236.8301 112.48805 
L 238.459892 112.744476 
L 240.089684 113.899044 
L 241.719476 113.587458 
L 243.349268 112.875081 
L 244.979059 113.8147 
L 246.608851 112.753743 
L 248.238643 114.122407 
L 249.868435 114.875564 
L 251.498227 113.76189 
L 253.128019 111.62097 
L 254.757811 112.841411 
L 256.387603 115.6177 
L 258.017395 116.118049 
L 259.647186 120.373526 
L 261.276978 119.671581 
L 262.90677 122.279637 
L 264.536562 121.488966 
L 266.166354 121.249705 
L 267.796146 123.356228 
L 269.425938 122.8116 
L 271.05573 124.239691 
L 272.685522 123.095251 
L 274.315314 120.823249 
L 275.945105 125.114561 
L 277.574897 126.686155 
L 279.204689 128.706067 
L 280.834481 125.576507 
L 282.464273 126.345182 
L 285.723857 130.033999 
L 287.353649 132.012696 
L 288.983441 132.224461 
L 290.613232 130.779308 
L 292.243024 131.012807 
L 293.872816 134.210205 
L 295.502608 137.718638 
L 297.1324 136.770902 
L 298.762192 132.469571 
L 302.021776 123.302635 
L 303.651568 130.007292 
L 305.28136 133.456749 
L 306.911151 134.016264 
L 308.540943 134.049933 
L 310.170735 134.548089 
L 311.800527 130.868656 
L 313.430319 135.407268 
L 315.060111 136.652751 
L 316.689903 138.489791 
L 318.319695 140.698364 
L 319.949487 138.331084 
L 321.579278 134.2642 
L 323.20907 131.543852 
L 324.838862 130.897088 
L 326.468654 137.184278 
L 328.098446 132.77909 
L 331.35803 139.979722 
L 332.987822 136.497367 
L 334.617614 132.064682 
L 336.247406 135.071381 
L 337.877197 137.099554 
L 339.506989 142.761244 
L 341.136781 145.363295 
L 342.766573 151.305542 
L 344.396365 150.050219 
L 346.026157 147.63715 
L 347.655949 143.459629 
L 349.285741 141.573913 
L 350.915533 142.159677 
L 352.545324 143.296488 
L 354.175116 143.316048 
L 355.804908 139.632813 
L 357.4347 132.234809 
L 359.064492 125.404087 
L 360.694284 135.749233 
L 362.324076 139.177139 
L 363.953868 136.393012 
L 365.58366 144.824422 
L 367.213452 151.693785 
L 368.843243 156.768512 
L 370.473035 154.008142 
L 372.102827 148.992996 
L 373.732619 154.893298 
L 375.362411 157.975009 
L 376.992203 161.45523 
L 378.621995 159.294192 
L 380.251787 166.301495 
L 381.881579 171.768465 
L 383.51137 159.808019 
L 385.141162 157.352747 
L 386.770954 165.344841 
L 388.400746 162.67178 
L 390.030538 154.23766 
L 393.290122 160.963 
L 394.919914 165.902771 
L 396.549706 161.929861 
L 398.179498 159.772828 
L 399.809289 159.315628 
L 401.439081 166.272079 
L 403.068873 164.93738 
L 404.698665 168.718816 
L 406.328457 179.817521 
L 407.958249 183.29319 
L 409.588041 183.036764 
L 411.217833 171.186282 
L 412.847625 179.115706 
L 414.477416 173.865612 
L 416.107208 172.233688 
L 417.737 164.579838 
L 419.366792 162.570658 
L 420.996584 175.899077 
L 422.626376 179.756623 
L 425.88596 174.950004 
L 427.515752 171.675949 
L 429.145544 167.015478 
L 430.775335 168.090116 
L 432.405127 158.263997 
L 434.034919 150.348647 
L 435.664711 153.137336 
L 437.294503 150.973882 
L 438.924295 150.511125 
L 440.554087 157.430892 
L 442.183879 160.894729 
L 443.813671 163.911351 
L 445.443462 172.531681 
L 447.073254 172.04349 
L 448.703046 183.210487 
L 450.332838 172.614421 
L 451.96263 173.160707 
L 453.592422 162.991848 
L 455.222214 166.619305 
L 456.852006 167.837609 
L 458.481798 160.26003 
L 460.11159 160.13864 
L 461.741381 168.415109 
L 463.371173 169.507117 
L 465.000965 178.786097 
L 466.630757 189.785484 
L 468.260549 178.010083 
L 469.890341 168.468048 
L 469.890341 168.468048 
" clip-path="url(#p88ba2f5150)" style="fill: none; stroke: #ff7f0e; stroke-width: 2; stroke-linecap: square"/>
   </g>
   <g id="line2d_31">
    <path d="M 64.072159 286.918125 
L 160.229881 286.918125 
L 161.859673 276.629683 
L 163.489465 259.092698 
L 165.119257 252.834354 
L 166.749048 248.262794 
L 168.37884 235.65597 
L 171.638424 220.526359 
L 173.268216 220.143034 
L 174.898008 222.141819 
L 176.5278 221.646296 
L 178.157592 221.020661 
L 179.787384 221.627868 
L 181.417176 211.010405 
L 183.046967 214.060398 
L 184.676759 215.646282 
L 186.306551 209.700717 
L 187.936343 209.25799 
L 189.566135 203.249077 
L 191.195927 200.542394 
L 192.825719 195.554874 
L 194.455511 197.648752 
L 196.085303 192.954167 
L 197.715094 192.483613 
L 199.344886 189.500725 
L 200.974678 192.018959 
L 202.60447 183.205714 
L 204.234262 170.436132 
L 205.864054 168.110704 
L 207.493846 168.008054 
L 209.123638 163.995871 
L 210.75343 156.421048 
L 212.383222 137.591978 
L 214.013013 120.328726 
L 215.642805 110.404266 
L 220.532181 92.218585 
L 222.161973 87.254532 
L 223.791765 73.200291 
L 225.421557 69.427771 
L 227.051349 64.876141 
L 228.68114 65.823419 
L 230.310932 64.439399 
L 231.940724 70.002651 
L 233.570516 69.857438 
L 235.200308 70.139617 
L 236.8301 92.262954 
L 238.459892 115.961585 
L 240.089684 117.497415 
L 241.719476 118.187316 
L 243.349268 117.737837 
L 244.979059 120.443445 
L 246.608851 117.919695 
L 248.238643 116.310236 
L 249.868435 116.043324 
L 251.498227 114.85955 
L 253.128019 114.296626 
L 254.757811 112.51613 
L 256.387603 114.918212 
L 258.017395 114.772152 
L 261.276978 112.462397 
L 262.90677 111.721462 
L 264.536562 113.706189 
L 266.166354 112.021251 
L 267.796146 112.517129 
L 269.425938 112.464415 
L 271.05573 40.915547 
L 272.685522 43.230869 
L 274.315314 40.836741 
L 275.945105 39.380384 
L 277.574897 40.051122 
L 279.204689 41.950862 
L 280.834481 38.66719 
L 282.464273 38.959856 
L 284.094065 36.72241 
L 285.723857 34.918125 
L 287.353649 34.955815 
L 288.983441 36.158344 
L 290.613232 39.026386 
L 292.243024 39.315449 
L 293.872816 42.083049 
L 295.502608 41.72067 
L 297.1324 43.926353 
L 298.762192 45.411432 
L 302.021776 51.543262 
L 303.651568 48.992449 
L 305.28136 52.666708 
L 306.911151 51.430494 
L 308.540943 46.450358 
L 310.170735 44.756588 
L 311.800527 42.494365 
L 313.430319 41.915972 
L 315.060111 42.760023 
L 316.689903 45.077428 
L 318.319695 47.745493 
L 319.949487 49.548655 
L 321.579278 51.886121 
L 323.20907 57.09342 
L 324.838862 61.083189 
L 326.468654 63.079562 
L 328.098446 58.738079 
L 329.728238 52.082215 
L 331.35803 49.027303 
L 332.987822 49.832205 
L 334.617614 47.207261 
L 336.247406 49.916586 
L 337.877197 49.073114 
L 339.506989 43.669803 
L 341.136781 44.046083 
L 342.766573 51.294454 
L 344.396365 53.338421 
L 346.026157 53.517859 
L 347.655949 55.344589 
L 349.285741 60.806104 
L 350.915533 55.076399 
L 352.545324 125.893783 
L 354.175116 133.598402 
L 355.804908 139.803722 
L 357.4347 133.77012 
L 359.064492 138.222955 
L 360.694284 139.207138 
L 362.324076 131.688965 
L 363.953868 127.953672 
L 365.58366 132.143409 
L 367.213452 137.295278 
L 368.843243 121.857272 
L 370.473035 129.35051 
L 372.102827 129.321277 
L 373.732619 124.570079 
L 375.362411 129.618811 
L 376.992203 123.822058 
L 378.621995 127.724575 
L 380.251787 134.699625 
L 381.881579 140.798604 
L 383.51137 135.222074 
L 385.141162 131.711237 
L 386.770954 133.617976 
L 388.400746 124.960843 
L 390.030538 122.406 
L 391.66033 116.360388 
L 393.290122 114.650054 
L 394.919914 110.319382 
L 396.549706 109.214183 
L 398.179498 113.50924 
L 399.809289 114.281662 
L 401.439081 123.110032 
L 403.068873 117.181006 
L 404.698665 103.555862 
L 406.328457 111.348647 
L 407.958249 110.809438 
L 409.588041 103.397859 
L 411.217833 88.55777 
L 412.847625 94.91418 
L 414.477416 98.596187 
L 416.107208 111.931871 
L 417.737 119.637384 
L 419.366792 115.190395 
L 420.996584 85.840019 
L 422.626376 80.040517 
L 424.256168 82.655246 
L 425.88596 78.692081 
L 427.515752 75.194735 
L 429.145544 75.441368 
L 430.775335 90.690587 
L 432.405127 90.868088 
L 434.034919 101.195106 
L 435.664711 100.510578 
L 437.294503 86.690725 
L 438.924295 76.716174 
L 440.554087 80.316722 
L 442.183879 82.829154 
L 443.813671 87.659948 
L 445.443462 84.687954 
L 447.073254 70.629861 
L 448.703046 70.928503 
L 450.332838 76.464308 
L 451.96263 77.640958 
L 453.592422 90.289808 
L 455.222214 90.033108 
L 456.852006 91.879493 
L 458.481798 89.791658 
L 460.11159 91.320136 
L 461.741381 84.50763 
L 463.371173 84.148757 
L 465.000965 86.776437 
L 466.630757 89.789427 
L 468.260549 95.876389 
L 469.890341 97.524382 
L 469.890341 97.524382 
" clip-path="url(#p88ba2f5150)" style="fill: none; stroke: #2ca02c; stroke-width: 2; stroke-linecap: square"/>
   </g>
   <g id="line2d_32">
    <path d="M 64.072159 286.918125 
L 160.229881 286.918125 
L 161.859673 249.83424 
L 163.489465 245.782358 
L 165.119257 225.318288 
L 166.749048 221.442217 
L 168.37884 205.162464 
L 170.008632 205.588346 
L 171.638424 203.860656 
L 173.268216 186.742069 
L 174.898008 184.489825 
L 176.5278 181.772055 
L 178.157592 179.271469 
L 179.787384 178.058554 
L 181.417176 176.231923 
L 183.046967 174.903112 
L 186.306551 168.68439 
L 187.936343 167.061698 
L 189.566135 163.812867 
L 191.195927 160.957007 
L 192.825719 157.731509 
L 196.085303 149.078775 
L 197.715094 146.563002 
L 199.344886 143.386706 
L 200.974678 139.161291 
L 204.234262 130.19347 
L 207.493846 121.452112 
L 209.123638 118.25287 
L 210.75343 105.270216 
L 212.383222 166.016804 
L 214.013013 157.896048 
L 215.642805 150.763103 
L 218.902389 141.319213 
L 220.532181 136.752411 
L 222.161973 135.251145 
L 223.791765 134.090782 
L 225.421557 131.94458 
L 227.051349 130.628899 
L 228.68114 130.299964 
L 230.310932 127.69014 
L 231.940724 126.290975 
L 233.570516 127.427479 
L 235.200308 124.678659 
L 236.8301 124.12361 
L 238.459892 122.099534 
L 240.089684 120.693077 
L 241.719476 116.946211 
L 243.349268 117.903851 
L 244.979059 114.984876 
L 246.608851 115.738028 
L 248.238643 116.199137 
L 249.868435 114.616683 
L 251.498227 113.828072 
L 253.128019 112.466908 
L 254.757811 111.307122 
L 256.387603 110.787248 
L 258.017395 108.533859 
L 259.647186 108.912452 
L 264.536562 100.940358 
L 266.166354 99.729955 
L 267.796146 101.060193 
L 269.425938 102.170314 
L 271.05573 102.932166 
L 272.685522 107.078525 
L 274.315314 105.292678 
L 275.945105 104.345177 
L 277.574897 108.02462 
L 279.204689 109.132281 
L 280.834481 111.753974 
L 282.464273 111.92426 
L 284.094065 109.827482 
L 285.723857 108.32545 
L 287.353649 106.543093 
L 288.983441 103.800105 
L 290.613232 103.577938 
L 292.243024 101.495487 
L 293.872816 102.018285 
L 295.502608 105.345474 
L 297.1324 107.806985 
L 298.762192 108.703264 
L 300.391984 108.056055 
L 302.021776 110.833347 
L 303.651568 111.442943 
L 305.28136 109.432973 
L 306.911151 107.797552 
L 308.540943 110.706194 
L 310.170735 114.421378 
L 311.800527 122.067102 
L 313.430319 123.152303 
L 315.060111 116.376857 
L 316.689903 112.771075 
L 318.319695 107.085713 
L 319.949487 109.852551 
L 321.579278 104.172811 
L 323.20907 103.040243 
L 324.838862 110.817806 
L 326.468654 116.699093 
L 328.098446 108.520325 
L 329.728238 105.087341 
L 331.35803 108.558532 
L 332.987822 109.594771 
L 334.617614 111.567974 
L 336.247406 116.417916 
L 337.877197 114.116008 
L 339.506989 117.451072 
L 341.136781 114.373968 
L 342.766573 118.270609 
L 344.396365 114.949231 
L 346.026157 116.599035 
L 347.655949 106.198943 
L 349.285741 104.750708 
L 350.915533 108.512142 
L 352.545324 118.315177 
L 354.175116 121.179803 
L 355.804908 128.353663 
L 357.4347 128.956406 
L 359.064492 128.144377 
L 362.324076 115.581076 
L 363.953868 114.68853 
L 365.58366 112.985391 
L 367.213452 110.471707 
L 368.843243 117.139505 
L 370.473035 123.314401 
L 372.102827 117.765284 
L 373.732619 115.158204 
L 375.362411 117.320481 
L 376.992203 98.755967 
L 378.621995 107.914388 
L 380.251787 108.622323 
L 381.881579 117.181941 
L 383.51137 116.392715 
L 385.141162 110.836319 
L 386.770954 108.135865 
L 388.400746 106.293145 
L 390.030538 168.202965 
L 391.66033 162.121727 
L 393.290122 160.340308 
L 394.919914 167.917607 
L 396.549706 169.057351 
L 399.809289 176.800421 
L 401.439081 186.338024 
L 403.068873 185.945128 
L 404.698665 189.192469 
L 406.328457 201.172774 
L 407.958249 202.704745 
L 411.217833 164.418208 
L 412.847625 157.786027 
L 414.477416 159.884091 
L 416.107208 160.685366 
L 417.737 156.880771 
L 419.366792 160.290644 
L 420.996584 158.399952 
L 422.626376 146.513701 
L 424.256168 147.705064 
L 425.88596 151.18482 
L 427.515752 146.88492 
L 429.145544 137.441748 
L 432.405127 126.213026 
L 434.034919 128.377768 
L 435.664711 132.909072 
L 437.294503 138.427022 
L 438.924295 143.101189 
L 440.554087 151.39371 
L 442.183879 150.93135 
L 443.813671 142.119775 
L 445.443462 146.797369 
L 447.073254 146.337202 
L 448.703046 150.3538 
L 450.332838 148.110721 
L 451.96263 143.756608 
L 453.592422 145.007832 
L 455.222214 149.201704 
L 456.852006 150.408277 
L 458.481798 150.196286 
L 460.11159 151.511361 
L 461.741381 157.863326 
L 463.371173 155.170246 
L 465.000965 148.273969 
L 466.630757 147.044147 
L 468.260549 218.832855 
L 469.890341 221.782297 
L 469.890341 221.782297 
" clip-path="url(#p88ba2f5150)" style="fill: none; stroke: #d62728; stroke-width: 2; stroke-linecap: square"/>
   </g>
   <g id="line2d_33">
    <path d="M 64.072159 286.918125 
L 160.229881 286.918125 
L 161.859673 257.837672 
L 163.489465 253.338823 
L 165.119257 237.908269 
L 166.749048 239.175425 
L 168.37884 236.211597 
L 170.008632 228.368938 
L 171.638424 233.021005 
L 173.268216 231.156144 
L 174.898008 214.554767 
L 176.5278 212.614922 
L 178.157592 206.322785 
L 179.787384 181.120258 
L 181.417176 178.935024 
L 183.046967 177.578698 
L 189.566135 168.547166 
L 194.455511 160.894043 
L 196.085303 158.60904 
L 197.715094 155.645224 
L 199.344886 153.842027 
L 200.974678 150.490755 
L 202.60447 147.648534 
L 204.234262 145.194478 
L 207.493846 139.299874 
L 209.123638 135.579233 
L 210.75343 123.707458 
L 212.383222 114.329025 
L 214.013013 105.926833 
L 215.642805 98.957132 
L 217.272597 92.575859 
L 218.902389 87.834966 
L 222.161973 79.911579 
L 223.791765 77.39045 
L 227.051349 73.469512 
L 228.68114 70.340501 
L 230.310932 68.234423 
L 231.940724 65.711043 
L 233.570516 63.536643 
L 235.200308 61.742543 
L 236.8301 59.535221 
L 238.459892 128.113213 
L 241.719476 124.684168 
L 243.349268 125.190531 
L 244.979059 123.706765 
L 246.608851 121.79304 
L 248.238643 120.832652 
L 249.868435 120.204937 
L 251.498227 116.834498 
L 253.128019 114.512772 
L 254.757811 113.596055 
L 256.387603 112.405502 
L 258.017395 113.025648 
L 259.647186 110.910567 
L 261.276978 107.386688 
L 262.90677 108.328964 
L 264.536562 109.624925 
L 266.166354 109.676716 
L 267.796146 110.051843 
L 269.425938 109.82523 
L 271.05573 107.957304 
L 272.685522 110.955962 
L 274.315314 110.35335 
L 275.945105 109.275893 
L 279.204689 105.263447 
L 280.834481 105.289244 
L 282.464273 104.927072 
L 284.094065 106.798009 
L 285.723857 106.482264 
L 287.353649 106.387904 
L 288.983441 104.290915 
L 290.613232 103.40007 
L 292.243024 100.927611 
L 293.872816 104.333941 
L 295.502608 103.195621 
L 297.1324 105.20738 
L 298.762192 107.402629 
L 300.391984 110.335053 
L 302.021776 116.01809 
L 303.651568 109.482656 
L 305.28136 108.134783 
L 306.911151 107.421028 
L 308.540943 108.24838 
L 310.170735 108.162409 
L 311.800527 107.845538 
L 313.430319 103.188779 
L 315.060111 105.399271 
L 316.689903 107.841609 
L 318.319695 106.568132 
L 319.949487 100.988329 
L 321.579278 100.343413 
L 323.20907 101.410925 
L 324.838862 102.280587 
L 326.468654 104.791509 
L 328.098446 99.771769 
L 329.728238 108.445756 
L 331.35803 107.208177 
L 332.987822 95.757555 
L 334.617614 95.308888 
L 336.247406 96.564861 
L 337.877197 100.088334 
L 339.506989 106.707755 
L 341.136781 105.423021 
L 342.766573 111.154959 
L 344.396365 110.578366 
L 346.026157 112.745878 
L 347.655949 108.83558 
L 349.285741 108.679269 
L 350.915533 109.375674 
L 352.545324 111.372952 
L 354.175116 112.626054 
L 355.804908 109.343004 
L 357.4347 114.225599 
L 359.064492 111.917134 
L 360.694284 101.321182 
L 362.324076 99.177568 
L 363.953868 105.820882 
L 365.58366 99.447423 
L 367.213452 101.000869 
L 368.843243 106.869296 
L 370.473035 106.667356 
L 372.102827 97.573667 
L 373.732619 99.905252 
L 375.362411 94.400361 
L 376.992203 89.703776 
L 378.621995 97.093494 
L 380.251787 87.476084 
L 381.881579 79.728124 
L 383.51137 77.350708 
L 385.141162 81.402205 
L 386.770954 74.066335 
L 388.400746 70.650632 
L 390.030538 76.253289 
L 391.66033 72.766447 
L 393.290122 68.579989 
L 394.919914 69.918854 
L 396.549706 74.889016 
L 398.179498 83.78706 
L 399.809289 83.496002 
L 401.439081 159.482431 
L 403.068873 163.682781 
L 404.698665 165.060271 
L 406.328457 159.140108 
L 407.958249 166.355324 
L 409.588041 166.273386 
L 411.217833 173.191067 
L 412.847625 180.618914 
L 414.477416 179.444095 
L 416.107208 180.111103 
L 417.737 183.772598 
L 419.366792 192.701872 
L 420.996584 189.39011 
L 422.626376 187.766456 
L 424.256168 178.471629 
L 425.88596 174.092923 
L 427.515752 168.935182 
L 429.145544 169.767356 
L 430.775335 168.563898 
L 432.405127 177.589423 
L 434.034919 180.818579 
L 435.664711 177.319336 
L 437.294503 169.665486 
L 438.924295 156.6014 
L 440.554087 159.307466 
L 442.183879 159.483633 
L 443.813671 170.710648 
L 445.443462 165.183196 
L 447.073254 156.991756 
L 448.703046 156.425185 
L 450.332838 156.657627 
L 451.96263 152.945707 
L 455.222214 140.135103 
L 456.852006 143.245724 
L 458.481798 141.316455 
L 460.11159 130.888749 
L 461.741381 132.390682 
L 463.371173 130.438169 
L 465.000965 136.820955 
L 466.630757 135.031743 
L 468.260549 142.153246 
L 469.890341 148.65447 
L 469.890341 148.65447 
" clip-path="url(#p88ba2f5150)" style="fill: none; stroke: #9467bd; stroke-width: 2; stroke-linecap: square"/>
   </g>
   <g id="line2d_34">
    <path d="M 64.072159 286.918125 
L 160.229881 286.918125 
L 161.859673 258.719867 
L 163.489465 254.272317 
L 165.119257 238.840297 
L 166.749048 236.087925 
L 168.37884 231.802978 
L 170.008632 231.578819 
L 171.638424 229.092471 
L 173.268216 226.878061 
L 174.898008 232.52425 
L 176.5278 230.253892 
L 178.157592 223.17724 
L 179.787384 218.228705 
L 181.417176 219.465833 
L 183.046967 214.324831 
L 184.676759 211.76921 
L 186.306551 209.70676 
L 187.936343 207.310088 
L 189.566135 199.952695 
L 191.195927 191.426505 
L 192.825719 180.844706 
L 196.085303 176.700569 
L 197.715094 174.847134 
L 199.344886 172.389778 
L 200.974678 168.762891 
L 202.60447 168.528223 
L 204.234262 166.272975 
L 205.864054 163.465252 
L 207.493846 159.262637 
L 209.123638 156.611206 
L 210.75343 145.920258 
L 212.383222 136.208687 
L 214.013013 127.494287 
L 215.642805 130.085978 
L 217.272597 127.517066 
L 218.902389 94.185561 
L 222.161973 84.744778 
L 223.791765 80.64353 
L 225.421557 78.209256 
L 227.051349 75.010368 
L 228.68114 72.113417 
L 230.310932 71.318582 
L 231.940724 69.593426 
L 233.570516 68.065503 
L 235.200308 66.07714 
L 236.8301 62.236762 
L 238.459892 59.639539 
L 240.089684 58.809639 
L 241.719476 57.277999 
L 243.349268 55.515912 
L 244.979059 55.064555 
L 246.608851 54.134295 
L 249.868435 51.567816 
L 251.498227 48.558824 
L 253.128019 44.808432 
L 254.757811 43.485582 
L 256.387603 44.000749 
L 258.017395 44.363903 
L 259.647186 42.221003 
L 262.90677 42.273829 
L 264.536562 41.656856 
L 266.166354 42.601111 
L 267.796146 43.197274 
L 269.425938 42.395515 
L 271.05573 38.881567 
L 272.685522 41.809275 
L 274.315314 44.218707 
L 275.945105 44.696858 
L 277.574897 112.721331 
L 279.204689 111.614792 
L 280.834481 111.268851 
L 282.464273 106.122597 
L 284.094065 105.535461 
L 285.723857 106.594226 
L 287.353649 106.663024 
L 288.983441 106.536648 
L 290.613232 105.112031 
L 292.243024 99.158879 
L 293.872816 96.043274 
L 295.502608 100.76455 
L 297.1324 98.396347 
L 298.762192 98.01629 
L 300.391984 93.612408 
L 302.021776 96.123626 
L 303.651568 93.179194 
L 305.28136 91.831584 
L 306.911151 92.197882 
L 308.540943 98.175479 
L 310.170735 98.604468 
L 311.800527 100.2619 
L 313.430319 100.988962 
L 315.060111 105.414216 
L 316.689903 102.747872 
L 318.319695 96.644381 
L 319.949487 96.703625 
L 321.579278 99.109303 
L 323.20907 101.763522 
L 324.838862 104.020473 
L 326.468654 110.952635 
L 328.098446 113.854865 
L 329.728238 110.136887 
L 331.35803 112.116529 
L 332.987822 110.284448 
L 334.617614 111.926255 
L 336.247406 108.78191 
L 337.877197 111.727602 
L 339.506989 104.505968 
L 341.136781 99.841785 
L 342.766573 98.6548 
L 344.396365 95.050179 
L 346.026157 94.737614 
L 347.655949 92.630701 
L 349.285741 94.982256 
L 350.915533 92.565835 
L 352.545324 93.712051 
L 354.175116 93.228854 
L 355.804908 95.026993 
L 357.4347 91.054341 
L 359.064492 90.633361 
L 360.694284 81.479065 
L 362.324076 87.092159 
L 363.953868 87.615117 
L 365.58366 80.119515 
L 367.213452 81.994637 
L 368.843243 80.481838 
L 370.473035 83.411734 
L 372.102827 82.378051 
L 373.732619 73.472724 
L 375.362411 66.986723 
L 376.992203 68.608077 
L 378.621995 64.759395 
L 380.251787 64.455639 
L 381.881579 62.529344 
L 383.51137 67.73413 
L 385.141162 66.367707 
L 386.770954 66.443678 
L 388.400746 70.153845 
L 390.030538 69.352411 
L 391.66033 65.548815 
L 393.290122 64.97535 
L 394.919914 67.125259 
L 396.549706 65.801977 
L 398.179498 65.905331 
L 399.809289 70.369197 
L 401.439081 66.650273 
L 403.068873 60.036136 
L 404.698665 61.509395 
L 406.328457 63.581437 
L 407.958249 61.87678 
L 409.588041 49.853597 
L 411.217833 51.764581 
L 412.847625 53.04259 
L 414.477416 60.734754 
L 416.107208 63.290324 
L 419.366792 67.260433 
L 420.996584 67.923551 
L 422.626376 74.209082 
L 424.256168 75.383623 
L 425.88596 72.731153 
L 427.515752 76.046741 
L 429.145544 74.745066 
L 430.775335 74.057388 
L 432.405127 70.189202 
L 434.034919 66.907319 
L 435.664711 73.803428 
L 437.294503 72.307887 
L 438.924295 76.046741 
L 440.554087 81.730606 
L 442.183879 140.653337 
L 443.813671 137.730207 
L 445.443462 121.121894 
L 447.073254 123.287408 
L 448.703046 127.927796 
L 450.332838 200.784417 
L 451.96263 202.382753 
L 453.592422 197.102535 
L 455.222214 195.540525 
L 456.852006 201.298361 
L 458.481798 204.195337 
L 460.11159 202.84522 
L 461.741381 203.506777 
L 463.371173 199.891839 
L 465.000965 201.326339 
L 466.630757 205.601709 
L 468.260549 206.979953 
L 469.890341 209.228668 
L 469.890341 209.228668 
" clip-path="url(#p88ba2f5150)" style="fill: none; stroke: #8c564b; stroke-width: 2; stroke-linecap: square"/>
   </g>
   <g id="patch_3">
    <path d="M 43.78125 299.518125 
L 43.78125 22.318125 
" style="fill: none; stroke: #000000; stroke-width: 0.8; stroke-linejoin: miter; stroke-linecap: square"/>
   </g>
   <g id="patch_4">
    <path d="M 490.18125 299.518125 
L 490.18125 22.318125 
" style="fill: none; stroke: #000000; stroke-width: 0.8; stroke-linejoin: miter; stroke-linecap: square"/>
   </g>
   <g id="patch_5">
    <path d="M 43.78125 299.518125 
L 490.18125 299.518125 
" style="fill: none; stroke: #000000; stroke-width: 0.8; stroke-linejoin: miter; stroke-linecap: square"/>
   </g>
   <g id="patch_6">
    <path d="M 43.78125 22.318125 
L 490.18125 22.318125 
" style="fill: none; stroke: #000000; stroke-width: 0.8; stroke-linejoin: miter; stroke-linecap: square"/>
   </g>
   <g id="text_17">
    <!-- Detection Ratio vs Time - Peak 100 -->
    <g transform="translate(161.773125 16.318125) scale(0.12 -0.12)">
     <defs>
      <path id="DejaVuSans-76" d="M 191 3500 
L 800 3500 
L 1894 563 
L 2988 3500 
L 3597 3500 
L 2284 0 
L 1503 0 
L 191 3500 
z
" transform="scale(0.015625)"/>
      <path id="DejaVuSans-73" d="M 2834 3397 
L 2834 2853 
Q 2591 2978 2328 3040 
Q 2066 3103 1784 3103 
Q 1356 3103 1142 2972 
Q 928 2841 928 2578 
Q 928 2378 1081 2264 
Q 1234 2150 1697 2047 
L 1894 2003 
Q 2506 1872 2764 1633 
Q 3022 1394 3022 966 
Q 3022 478 2636 193 
Q 2250 -91 1575 -91 
Q 1294 -91 989 -36 
Q 684 19 347 128 
L 347 722 
Q 666 556 975 473 
Q 1284 391 1588 391 
Q 1994 391 2212 530 
Q 2431 669 2431 922 
Q 2431 1156 2273 1281 
Q 2116 1406 1581 1522 
L 1381 1569 
Q 847 1681 609 1914 
Q 372 2147 372 2553 
Q 372 3047 722 3315 
Q 1072 3584 1716 3584 
Q 2034 3584 2315 3537 
Q 2597 3491 2834 3397 
z
" transform="scale(0.015625)"/>
      <path id="DejaVuSans-54" d="M -19 4666 
L 3928 4666 
L 3928 4134 
L 2272 4134 
L 2272 0 
L 1638 0 
L 1638 4134 
L -19 4134 
L -19 4666 
z
" transform="scale(0.015625)"/>
      <path id="DejaVuSans-2d" d="M 313 2009 
L 1997 2009 
L 1997 1497 
L 313 1497 
L 313 2009 
z
" transform="scale(0.015625)"/>
      <path id="DejaVuSans-50" d="M 1259 4147 
L 1259 2394 
L 2053 2394 
Q 2494 2394 2734 2622 
Q 2975 2850 2975 3272 
Q 2975 3691 2734 3919 
Q 2494 4147 2053 4147 
L 1259 4147 
z
M 628 4666 
L 2053 4666 
Q 2838 4666 3239 4311 
Q 3641 3956 3641 3272 
Q 3641 2581 3239 2228 
Q 2838 1875 2053 1875 
L 1259 1875 
L 1259 0 
L 628 0 
L 628 4666 
z
" transform="scale(0.015625)"/>
      <path id="DejaVuSans-6b" d="M 581 4863 
L 1159 4863 
L 1159 1991 
L 2875 3500 
L 3609 3500 
L 1753 1863 
L 3688 0 
L 2938 0 
L 1159 1709 
L 1159 0 
L 581 0 
L 581 4863 
z
" transform="scale(0.015625)"/>
     </defs>
     <use xlink:href="#DejaVuSans-44"/>
     <use xlink:href="#DejaVuSans-65" transform="translate(77.001953 0)"/>
     <use xlink:href="#DejaVuSans-74" transform="translate(138.525391 0)"/>
     <use xlink:href="#DejaVuSans-65" transform="translate(177.734375 0)"/>
     <use xlink:href="#DejaVuSans-63" transform="translate(239.257812 0)"/>
     <use xlink:href="#DejaVuSans-74" transform="translate(294.238281 0)"/>
     <use xlink:href="#DejaVuSans-69" transform="translate(333.447266 0)"/>
     <use xlink:href="#DejaVuSans-6f" transform="translate(361.230469 0)"/>
     <use xlink:href="#DejaVuSans-6e" transform="translate(422.412109 0)"/>
     <use xlink:href="#DejaVuSans-20" transform="translate(485.791016 0)"/>
     <use xlink:href="#DejaVuSans-52" transform="translate(517.578125 0)"/>
     <use xlink:href="#DejaVuSans-61" transform="translate(584.810547 0)"/>
     <use xlink:href="#DejaVuSans-74" transform="translate(646.089844 0)"/>
     <use xlink:href="#DejaVuSans-69" transform="translate(685.298828 0)"/>
     <use xlink:href="#DejaVuSans-6f" transform="translate(713.082031 0)"/>
     <use xlink:href="#DejaVuSans-20" transform="translate(774.263672 0)"/>
     <use xlink:href="#DejaVuSans-76" transform="translate(806.050781 0)"/>
     <use xlink:href="#DejaVuSans-73" transform="translate(865.230469 0)"/>
     <use xlink:href="#DejaVuSans-20" transform="translate(917.330078 0)"/>
     <use xlink:href="#DejaVuSans-54" transform="translate(949.117188 0)"/>
     <use xlink:href="#DejaVuSans-69" transform="translate(1007.076172 0)"/>
     <use xlink:href="#DejaVuSans-6d" transform="translate(1034.859375 0)"/>
     <use xlink:href="#DejaVuSans-65" transform="translate(1132.271484 0)"/>
     <use xlink:href="#DejaVuSans-20" transform="translate(1193.794922 0)"/>
     <use xlink:href="#DejaVuSans-2d" transform="translate(1225.582031 0)"/>
     <use xlink:href="#DejaVuSans-20" transform="translate(1261.666016 0)"/>
     <use xlink:href="#DejaVuSans-50" transform="translate(1293.453125 0)"/>
     <use xlink:href="#DejaVuSans-65" transform="translate(1350.130859 0)"/>
     <use xlink:href="#DejaVuSans-61" transform="translate(1411.654297 0)"/>
     <use xlink:href="#DejaVuSans-6b" transform="translate(1472.933594 0)"/>
     <use xlink:href="#DejaVuSans-20" transform="translate(1530.84375 0)"/>
     <use xlink:href="#DejaVuSans-31" transform="translate(1562.630859 0)"/>
     <use xlink:href="#DejaVuSans-30" transform="translate(1626.253906 0)"/>
     <use xlink:href="#DejaVuSans-30" transform="translate(1689.876953 0)"/>
    </g>
   </g>
   <g id="legend_1">
    <g id="patch_7">
     <path d="M 50.08125 108.78 
L 156.426094 108.78 
Q 158.226094 108.78 158.226094 106.98 
L 158.226094 28.618125 
Q 158.226094 26.818125 156.426094 26.818125 
L 50.08125 26.818125 
Q 48.28125 26.818125 48.28125 28.618125 
L 48.28125 106.98 
Q 48.28125 108.78 50.08125 108.78 
z
" style="fill: #ffffff; opacity: 0.8; stroke: #cccccc; stroke-linejoin: miter"/>
    </g>
    <g id="line2d_35">
     <path d="M 51.88125 34.106719 
L 60.88125 34.106719 
L 69.88125 34.106719 
" style="fill: none; stroke: #1f77b4; stroke-width: 2; stroke-linecap: square"/>
    </g>
    <g id="text_18">
     <!-- LocalGNTS-14 -->
     <g transform="translate(77.08125 37.256719) scale(0.09 -0.09)">
      <defs>
       <path id="DejaVuSans-4c" d="M 628 4666 
L 1259 4666 
L 1259 531 
L 3531 531 
L 3531 0 
L 628 0 
L 628 4666 
z
" transform="scale(0.015625)"/>
       <path id="DejaVuSans-47" d="M 3809 666 
L 3809 1919 
L 2778 1919 
L 2778 2438 
L 4434 2438 
L 4434 434 
Q 4069 175 3628 42 
Q 3188 -91 2688 -91 
Q 1594 -91 976 548 
Q 359 1188 359 2328 
Q 359 3472 976 4111 
Q 1594 4750 2688 4750 
Q 3144 4750 3555 4637 
Q 3966 4525 4313 4306 
L 4313 3634 
Q 3963 3931 3569 4081 
Q 3175 4231 2741 4231 
Q 1884 4231 1454 3753 
Q 1025 3275 1025 2328 
Q 1025 1384 1454 906 
Q 1884 428 2741 428 
Q 3075 428 3337 486 
Q 3600 544 3809 666 
z
" transform="scale(0.015625)"/>
       <path id="DejaVuSans-4e" d="M 628 4666 
L 1478 4666 
L 3547 763 
L 3547 4666 
L 4159 4666 
L 4159 0 
L 3309 0 
L 1241 3903 
L 1241 0 
L 628 0 
L 628 4666 
z
" transform="scale(0.015625)"/>
      </defs>
      <use xlink:href="#DejaVuSans-4c"/>
      <use xlink:href="#DejaVuSans-6f" transform="translate(53.962891 0)"/>
      <use xlink:href="#DejaVuSans-63" transform="translate(115.144531 0)"/>
      <use xlink:href="#DejaVuSans-61" transform="translate(170.125 0)"/>
      <use xlink:href="#DejaVuSans-6c" transform="translate(231.404297 0)"/>
      <use xlink:href="#DejaVuSans-47" transform="translate(259.1875 0)"/>
      <use xlink:href="#DejaVuSans-4e" transform="translate(336.677734 0)"/>
      <use xlink:href="#DejaVuSans-54" transform="translate(411.482422 0)"/>
      <use xlink:href="#DejaVuSans-53" transform="translate(472.566406 0)"/>
      <use xlink:href="#DejaVuSans-2d" transform="translate(536.042969 0)"/>
      <use xlink:href="#DejaVuSans-31" transform="translate(572.126953 0)"/>
      <use xlink:href="#DejaVuSans-34" transform="translate(635.75 0)"/>
     </g>
    </g>
    <g id="line2d_36">
     <path d="M 51.88125 47.317031 
L 60.88125 47.317031 
L 69.88125 47.317031 
" style="fill: none; stroke: #ff7f0e; stroke-width: 2; stroke-linecap: square"/>
    </g>
    <g id="text_19">
     <!-- GlobalGNTS-14 -->
     <g transform="translate(77.08125 50.467031) scale(0.09 -0.09)">
      <defs>
       <path id="DejaVuSans-62" d="M 3116 1747 
Q 3116 2381 2855 2742 
Q 2594 3103 2138 3103 
Q 1681 3103 1420 2742 
Q 1159 2381 1159 1747 
Q 1159 1113 1420 752 
Q 1681 391 2138 391 
Q 2594 391 2855 752 
Q 3116 1113 3116 1747 
z
M 1159 2969 
Q 1341 3281 1617 3432 
Q 1894 3584 2278 3584 
Q 2916 3584 3314 3078 
Q 3713 2572 3713 1747 
Q 3713 922 3314 415 
Q 2916 -91 2278 -91 
Q 1894 -91 1617 61 
Q 1341 213 1159 525 
L 1159 0 
L 581 0 
L 581 4863 
L 1159 4863 
L 1159 2969 
z
" transform="scale(0.015625)"/>
      </defs>
      <use xlink:href="#DejaVuSans-47"/>
      <use xlink:href="#DejaVuSans-6c" transform="translate(77.490234 0)"/>
      <use xlink:href="#DejaVuSans-6f" transform="translate(105.273438 0)"/>
      <use xlink:href="#DejaVuSans-62" transform="translate(166.455078 0)"/>
      <use xlink:href="#DejaVuSans-61" transform="translate(229.931641 0)"/>
      <use xlink:href="#DejaVuSans-6c" transform="translate(291.210938 0)"/>
      <use xlink:href="#DejaVuSans-47" transform="translate(318.994141 0)"/>
      <use xlink:href="#DejaVuSans-4e" transform="translate(396.484375 0)"/>
      <use xlink:href="#DejaVuSans-54" transform="translate(471.289062 0)"/>
      <use xlink:href="#DejaVuSans-53" transform="translate(532.373047 0)"/>
      <use xlink:href="#DejaVuSans-2d" transform="translate(595.849609 0)"/>
      <use xlink:href="#DejaVuSans-31" transform="translate(631.933594 0)"/>
      <use xlink:href="#DejaVuSans-34" transform="translate(695.556641 0)"/>
     </g>
    </g>
    <g id="line2d_37">
     <path d="M 51.88125 60.527344 
L 60.88125 60.527344 
L 69.88125 60.527344 
" style="fill: none; stroke: #2ca02c; stroke-width: 2; stroke-linecap: square"/>
    </g>
    <g id="text_20">
     <!-- Beta-Binomial-14 -->
     <g transform="translate(77.08125 63.677344) scale(0.09 -0.09)">
      <defs>
       <path id="DejaVuSans-42" d="M 1259 2228 
L 1259 519 
L 2272 519 
Q 2781 519 3026 730 
Q 3272 941 3272 1375 
Q 3272 1813 3026 2020 
Q 2781 2228 2272 2228 
L 1259 2228 
z
M 1259 4147 
L 1259 2741 
L 2194 2741 
Q 2656 2741 2882 2914 
Q 3109 3088 3109 3444 
Q 3109 3797 2882 3972 
Q 2656 4147 2194 4147 
L 1259 4147 
z
M 628 4666 
L 2241 4666 
Q 2963 4666 3353 4366 
Q 3744 4066 3744 3513 
Q 3744 3084 3544 2831 
Q 3344 2578 2956 2516 
Q 3422 2416 3680 2098 
Q 3938 1781 3938 1306 
Q 3938 681 3513 340 
Q 3088 0 2303 0 
L 628 0 
L 628 4666 
z
" transform="scale(0.015625)"/>
      </defs>
      <use xlink:href="#DejaVuSans-42"/>
      <use xlink:href="#DejaVuSans-65" transform="translate(68.603516 0)"/>
      <use xlink:href="#DejaVuSans-74" transform="translate(130.126953 0)"/>
      <use xlink:href="#DejaVuSans-61" transform="translate(169.335938 0)"/>
      <use xlink:href="#DejaVuSans-2d" transform="translate(230.615234 0)"/>
      <use xlink:href="#DejaVuSans-42" transform="translate(263.074219 0)"/>
      <use xlink:href="#DejaVuSans-69" transform="translate(331.677734 0)"/>
      <use xlink:href="#DejaVuSans-6e" transform="translate(359.460938 0)"/>
      <use xlink:href="#DejaVuSans-6f" transform="translate(422.839844 0)"/>
      <use xlink:href="#DejaVuSans-6d" transform="translate(484.021484 0)"/>
      <use xlink:href="#DejaVuSans-69" transform="translate(581.433594 0)"/>
      <use xlink:href="#DejaVuSans-61" transform="translate(609.216797 0)"/>
      <use xlink:href="#DejaVuSans-6c" transform="translate(670.496094 0)"/>
      <use xlink:href="#DejaVuSans-2d" transform="translate(698.279297 0)"/>
      <use xlink:href="#DejaVuSans-31" transform="translate(734.363281 0)"/>
      <use xlink:href="#DejaVuSans-34" transform="translate(797.986328 0)"/>
     </g>
    </g>
    <g id="line2d_38">
     <path d="M 51.88125 73.737656 
L 60.88125 73.737656 
L 69.88125 73.737656 
" style="fill: none; stroke: #d62728; stroke-width: 2; stroke-linecap: square"/>
    </g>
    <g id="text_21">
     <!-- Proportional -->
     <g transform="translate(77.08125 76.887656) scale(0.09 -0.09)">
      <defs>
       <path id="DejaVuSans-72" d="M 2631 2963 
Q 2534 3019 2420 3045 
Q 2306 3072 2169 3072 
Q 1681 3072 1420 2755 
Q 1159 2438 1159 1844 
L 1159 0 
L 581 0 
L 581 3500 
L 1159 3500 
L 1159 2956 
Q 1341 3275 1631 3429 
Q 1922 3584 2338 3584 
Q 2397 3584 2469 3576 
Q 2541 3569 2628 3553 
L 2631 2963 
z
" transform="scale(0.015625)"/>
       <path id="DejaVuSans-70" d="M 1159 525 
L 1159 -1331 
L 581 -1331 
L 581 3500 
L 1159 3500 
L 1159 2969 
Q 1341 3281 1617 3432 
Q 1894 3584 2278 3584 
Q 2916 3584 3314 3078 
Q 3713 2572 3713 1747 
Q 3713 922 3314 415 
Q 2916 -91 2278 -91 
Q 1894 -91 1617 61 
Q 1341 213 1159 525 
z
M 3116 1747 
Q 3116 2381 2855 2742 
Q 2594 3103 2138 3103 
Q 1681 3103 1420 2742 
Q 1159 2381 1159 1747 
Q 1159 1113 1420 752 
Q 1681 391 2138 391 
Q 2594 391 2855 752 
Q 3116 1113 3116 1747 
z
" transform="scale(0.015625)"/>
      </defs>
      <use xlink:href="#DejaVuSans-50"/>
      <use xlink:href="#DejaVuSans-72" transform="translate(58.552734 0)"/>
      <use xlink:href="#DejaVuSans-6f" transform="translate(97.416016 0)"/>
      <use xlink:href="#DejaVuSans-70" transform="translate(158.597656 0)"/>
      <use xlink:href="#DejaVuSans-6f" transform="translate(222.074219 0)"/>
      <use xlink:href="#DejaVuSans-72" transform="translate(283.255859 0)"/>
      <use xlink:href="#DejaVuSans-74" transform="translate(324.369141 0)"/>
      <use xlink:href="#DejaVuSans-69" transform="translate(363.578125 0)"/>
      <use xlink:href="#DejaVuSans-6f" transform="translate(391.361328 0)"/>
      <use xlink:href="#DejaVuSans-6e" transform="translate(452.542969 0)"/>
      <use xlink:href="#DejaVuSans-61" transform="translate(515.921875 0)"/>
      <use xlink:href="#DejaVuSans-6c" transform="translate(577.201172 0)"/>
     </g>
    </g>
    <g id="line2d_39">
     <path d="M 51.88125 86.947969 
L 60.88125 86.947969 
L 69.88125 86.947969 
" style="fill: none; stroke: #9467bd; stroke-width: 2; stroke-linecap: square"/>
    </g>
    <g id="text_22">
     <!-- Uniform -->
     <g transform="translate(77.08125 90.097969) scale(0.09 -0.09)">
      <defs>
       <path id="DejaVuSans-55" d="M 556 4666 
L 1191 4666 
L 1191 1831 
Q 1191 1081 1462 751 
Q 1734 422 2344 422 
Q 2950 422 3222 751 
Q 3494 1081 3494 1831 
L 3494 4666 
L 4128 4666 
L 4128 1753 
Q 4128 841 3676 375 
Q 3225 -91 2344 -91 
Q 1459 -91 1007 375 
Q 556 841 556 1753 
L 556 4666 
z
" transform="scale(0.015625)"/>
      </defs>
      <use xlink:href="#DejaVuSans-55"/>
      <use xlink:href="#DejaVuSans-6e" transform="translate(73.193359 0)"/>
      <use xlink:href="#DejaVuSans-69" transform="translate(136.572266 0)"/>
      <use xlink:href="#DejaVuSans-66" transform="translate(164.355469 0)"/>
      <use xlink:href="#DejaVuSans-6f" transform="translate(199.560547 0)"/>
      <use xlink:href="#DejaVuSans-72" transform="translate(260.742188 0)"/>
      <use xlink:href="#DejaVuSans-6d" transform="translate(300.105469 0)"/>
     </g>
    </g>
    <g id="line2d_40">
     <path d="M 51.88125 100.158281 
L 60.88125 100.158281 
L 69.88125 100.158281 
" style="fill: none; stroke: #8c564b; stroke-width: 2; stroke-linecap: square"/>
    </g>
    <g id="text_23">
     <!-- Random -->
     <g transform="translate(77.08125 103.308281) scale(0.09 -0.09)">
      <defs>
       <path id="DejaVuSans-64" d="M 2906 2969 
L 2906 4863 
L 3481 4863 
L 3481 0 
L 2906 0 
L 2906 525 
Q 2725 213 2448 61 
Q 2172 -91 1784 -91 
Q 1150 -91 751 415 
Q 353 922 353 1747 
Q 353 2572 751 3078 
Q 1150 3584 1784 3584 
Q 2172 3584 2448 3432 
Q 2725 3281 2906 2969 
z
M 947 1747 
Q 947 1113 1208 752 
Q 1469 391 1925 391 
Q 2381 391 2643 752 
Q 2906 1113 2906 1747 
Q 2906 2381 2643 2742 
Q 2381 3103 1925 3103 
Q 1469 3103 1208 2742 
Q 947 2381 947 1747 
z
" transform="scale(0.015625)"/>
      </defs>
      <use xlink:href="#DejaVuSans-52"/>
      <use xlink:href="#DejaVuSans-61" transform="translate(67.232422 0)"/>
      <use xlink:href="#DejaVuSans-6e" transform="translate(128.511719 0)"/>
      <use xlink:href="#DejaVuSans-64" transform="translate(191.890625 0)"/>
      <use xlink:href="#DejaVuSans-6f" transform="translate(255.367188 0)"/>
      <use xlink:href="#DejaVuSans-6d" transform="translate(316.548828 0)"/>
     </g>
    </g>
   </g>
  </g>
 </g>
 <defs>
  <clipPath id="p88ba2f5150">
   <rect x="43.78125" y="22.318125" width="446.4" height="277.2"/>
  </clipPath>
 </defs>
</svg>
