<?xml version="1.0" encoding="utf-8" standalone="no"?>
<!DOCTYPE svg PUBLIC "-//W3C//DTD SVG 1.1//EN"
  "http://www.w3.org/Graphics/SVG/1.1/DTD/svg11.dtd">
<svg xmlns:xlink="http://www.w3.org/1999/xlink" width="497.38125pt" height="337.074375pt" viewBox="0 0 497.38125 337.074375" xmlns="http://www.w3.org/2000/svg" version="1.1">
 <metadata>
  <rdf:RDF xmlns:dc="http://purl.org/dc/elements/1.1/" xmlns:cc="http://creativecommons.org/ns#" xmlns:rdf="http://www.w3.org/1999/02/22-rdf-syntax-ns#">
   <cc:Work>
    <dc:type rdf:resource="http://purl.org/dc/dcmitype/StillImage"/>
    <dc:date>2026-07-02T08:47:34.345163</dc:date>
    <dc:format>image/svg+xml</dc:format>
    <dc:creator>
     <cc:Agent>
      <dc:title>Matplotlib v3.10.8, https://matplotlib.org/</dc:title>
     </cc:Agent>
    </dc:creator>
   </cc:Work>
  </rdf:RDF>
 </metadata>
 <defs>
  <style type="text/css">*{stroke-linejoin: round; stroke-linecap: butt}</style>
 </defs>
 <g id="figure_1">
  <g id="patch_1">
   <path d="M 0 337.074375 
L 497.38125 337.074375 
L 497.38125 0 
L 0 0 
z
" style="fill: #ffffff"/>
  </g>
  <g id="axes_1">
   <g id="patch_2">
    <path d="M 43.78125 299.518125 
L 490.18125 299.518125 
L 490.18125 22.318125 
L 43.78125 22.318125 
z
" style="fill: #ffffff"/>
   </g>
   <g id="matplotlib.axis_1">
    <g id="xtick_1">
     <g id="line2d_1">
      <path d="M 64.072159 299.518125 
L 64.072159 22.318125 
" clip-path="url(#pc32caae40d)" style="fill: none; stroke-dasharray: 1.85,0.8; stroke-dashoffset: 0; stroke: #b0b0b0; stroke-opacity: 0.6; stroke-width: 0.5"/>
     </g>
     <g id="line2d_2">
      <defs>
       <path id="m7b44a8bf6d" d="M 0 0 
L 0 3.5 
" style="stroke: #000000; stroke-width: 0.8"/>
      </defs>
      <g>
       <use xlink:href="#m7b44a8bf6d" x="64.072159" y="299.518125" style="stroke: #000000; stroke-width: 0.8"/>
      </g>
     </g>
     <g id="text_1">
      <!-- 0 -->
      <g transform="translate(60.890909 314.116563) scale(0.1 -0.1)">
       <defs>
        <path id="DejaVuSans-30" d="M 2034 4250 
Q 1547 4250 1301 3770 
Q 1056 3291 1056 2328 
Q 1056 1369 1301 889 
Q 1547 409 2034 409 
Q 2525 409 2770 889 
Q 3016 1369 3016 2328 
Q 3016 3291 2770 3770 
Q 2525 4250 2034 4250 
z
M 2034 4750 
Q 2819 4750 3233 4129 
Q 3647 3509 3647 2328 
Q 3647 1150 3233 529 
Q 2819 -91 2034 -91 
Q 1250 -91 836 529 
Q 422 1150 422 2328 
Q 422 3509 836 4129 
Q 1250 4750 2034 4750 
z
" transform="scale(0.015625)"/>
       </defs>
       <use xlink:href="#DejaVuSans-30"/>
      </g>
     </g>
    </g>
    <g id="xtick_2">
     <g id="line2d_3">
      <path d="M 118.544398 299.518125 
L 118.544398 22.318125 
" clip-path="url(#pc32caae40d)" style="fill: none; stroke-dasharray: 1.85,0.8; stroke-dashoffset: 0; stroke: #b0b0b0; stroke-opacity: 0.6; stroke-width: 0.5"/>
     </g>
     <g id="line2d_4">
      <g>
       <use xlink:href="#m7b44a8bf6d" x="118.544398" y="299.518125" style="stroke: #000000; stroke-width: 0.8"/>
      </g>
     </g>
     <g id="text_2">
      <!-- 20 -->
      <g transform="translate(112.181898 314.116563) scale(0.1 -0.1)">
       <defs>
        <path id="DejaVuSans-32" d="M 1228 531 
L 3431 531 
L 3431 0 
L 469 0 
L 469 531 
Q 828 903 1448 1529 
Q 2069 2156 2228 2338 
Q 2531 2678 2651 2914 
Q 2772 3150 2772 3378 
Q 2772 3750 2511 3984 
Q 2250 4219 1831 4219 
Q 1534 4219 1204 4116 
Q 875 4013 500 3803 
L 500 4441 
Q 881 4594 1212 4672 
Q 1544 4750 1819 4750 
Q 2544 4750 2975 4387 
Q 3406 4025 3406 3419 
Q 3406 3131 3298 2873 
Q 3191 2616 2906 2266 
Q 2828 2175 2409 1742 
Q 1991 1309 1228 531 
z
" transform="scale(0.015625)"/>
       </defs>
       <use xlink:href="#DejaVuSans-32"/>
       <use xlink:href="#DejaVuSans-30" transform="translate(63.623047 0)"/>
      </g>
     </g>
    </g>
    <g id="xtick_3">
     <g id="line2d_5">
      <path d="M 173.016637 299.518125 
L 173.016637 22.318125 
" clip-path="url(#pc32caae40d)" style="fill: none; stroke-dasharray: 1.85,0.8; stroke-dashoffset: 0; stroke: #b0b0b0; stroke-opacity: 0.6; stroke-width: 0.5"/>
     </g>
     <g id="line2d_6">
      <g>
       <use xlink:href="#m7b44a8bf6d" x="173.016637" y="299.518125" style="stroke: #000000; stroke-width: 0.8"/>
      </g>
     </g>
     <g id="text_3">
      <!-- 40 -->
      <g transform="translate(166.654137 314.116563) scale(0.1 -0.1)">
       <defs>
        <path id="DejaVuSans-34" d="M 2419 4116 
L 825 1625 
L 2419 1625 
L 2419 4116 
z
M 2253 4666 
L 3047 4666 
L 3047 1625 
L 3713 1625 
L 3713 1100 
L 3047 1100 
L 3047 0 
L 2419 0 
L 2419 1100 
L 313 1100 
L 313 1709 
L 2253 4666 
z
" transform="scale(0.015625)"/>
       </defs>
       <use xlink:href="#DejaVuSans-34"/>
       <use xlink:href="#DejaVuSans-30" transform="translate(63.623047 0)"/>
      </g>
     </g>
    </g>
    <g id="xtick_4">
     <g id="line2d_7">
      <path d="M 227.488877 299.518125 
L 227.488877 22.318125 
" clip-path="url(#pc32caae40d)" style="fill: none; stroke-dasharray: 1.85,0.8; stroke-dashoffset: 0; stroke: #b0b0b0; stroke-opacity: 0.6; stroke-width: 0.5"/>
     </g>
     <g id="line2d_8">
      <g>
       <use xlink:href="#m7b44a8bf6d" x="227.488877" y="299.518125" style="stroke: #000000; stroke-width: 0.8"/>
      </g>
     </g>
     <g id="text_4">
      <!-- 60 -->
      <g transform="translate(221.126377 314.116563) scale(0.1 -0.1)">
       <defs>
        <path id="DejaVuSans-36" d="M 2113 2584 
Q 1688 2584 1439 2293 
Q 1191 2003 1191 1497 
Q 1191 994 1439 701 
Q 1688 409 2113 409 
Q 2538 409 2786 701 
Q 3034 994 3034 1497 
Q 3034 2003 2786 2293 
Q 2538 2584 2113 2584 
z
M 3366 4563 
L 3366 3988 
Q 3128 4100 2886 4159 
Q 2644 4219 2406 4219 
Q 1781 4219 1451 3797 
Q 1122 3375 1075 2522 
Q 1259 2794 1537 2939 
Q 1816 3084 2150 3084 
Q 2853 3084 3261 2657 
Q 3669 2231 3669 1497 
Q 3669 778 3244 343 
Q 2819 -91 2113 -91 
Q 1303 -91 875 529 
Q 447 1150 447 2328 
Q 447 3434 972 4092 
Q 1497 4750 2381 4750 
Q 2619 4750 2861 4703 
Q 3103 4656 3366 4563 
z
" transform="scale(0.015625)"/>
       </defs>
       <use xlink:href="#DejaVuSans-36"/>
       <use xlink:href="#DejaVuSans-30" transform="translate(63.623047 0)"/>
      </g>
     </g>
    </g>
    <g id="xtick_5">
     <g id="line2d_9">
      <path d="M 281.961116 299.518125 
L 281.961116 22.318125 
" clip-path="url(#pc32caae40d)" style="fill: none; stroke-dasharray: 1.85,0.8; stroke-dashoffset: 0; stroke: #b0b0b0; stroke-opacity: 0.6; stroke-width: 0.5"/>
     </g>
     <g id="line2d_10">
      <g>
       <use xlink:href="#m7b44a8bf6d" x="281.961116" y="299.518125" style="stroke: #000000; stroke-width: 0.8"/>
      </g>
     </g>
     <g id="text_5">
      <!-- 80 -->
      <g transform="translate(275.598616 314.116563) scale(0.1 -0.1)">
       <defs>
        <path id="DejaVuSans-38" d="M 2034 2216 
Q 1584 2216 1326 1975 
Q 1069 1734 1069 1313 
Q 1069 891 1326 650 
Q 1584 409 2034 409 
Q 2484 409 2743 651 
Q 3003 894 3003 1313 
Q 3003 1734 2745 1975 
Q 2488 2216 2034 2216 
z
M 1403 2484 
Q 997 2584 770 2862 
Q 544 3141 544 3541 
Q 544 4100 942 4425 
Q 1341 4750 2034 4750 
Q 2731 4750 3128 4425 
Q 3525 4100 3525 3541 
Q 3525 3141 3298 2862 
Q 3072 2584 2669 2484 
Q 3125 2378 3379 2068 
Q 3634 1759 3634 1313 
Q 3634 634 3220 271 
Q 2806 -91 2034 -91 
Q 1263 -91 848 271 
Q 434 634 434 1313 
Q 434 1759 690 2068 
Q 947 2378 1403 2484 
z
M 1172 3481 
Q 1172 3119 1398 2916 
Q 1625 2713 2034 2713 
Q 2441 2713 2670 2916 
Q 2900 3119 2900 3481 
Q 2900 3844 2670 4047 
Q 2441 4250 2034 4250 
Q 1625 4250 1398 4047 
Q 1172 3844 1172 3481 
z
" transform="scale(0.015625)"/>
       </defs>
       <use xlink:href="#DejaVuSans-38"/>
       <use xlink:href="#DejaVuSans-30" transform="translate(63.623047 0)"/>
      </g>
     </g>
    </g>
    <g id="xtick_6">
     <g id="line2d_11">
      <path d="M 336.433355 299.518125 
L 336.433355 22.318125 
" clip-path="url(#pc32caae40d)" style="fill: none; stroke-dasharray: 1.85,0.8; stroke-dashoffset: 0; stroke: #b0b0b0; stroke-opacity: 0.6; stroke-width: 0.5"/>
     </g>
     <g id="line2d_12">
      <g>
       <use xlink:href="#m7b44a8bf6d" x="336.433355" y="299.518125" style="stroke: #000000; stroke-width: 0.8"/>
      </g>
     </g>
     <g id="text_6">
      <!-- 100 -->
      <g transform="translate(326.889605 314.116563) scale(0.1 -0.1)">
       <defs>
        <path id="DejaVuSans-31" d="M 794 531 
L 1825 531 
L 1825 4091 
L 703 3866 
L 703 4441 
L 1819 4666 
L 2450 4666 
L 2450 531 
L 3481 531 
L 3481 0 
L 794 0 
L 794 531 
z
" transform="scale(0.015625)"/>
       </defs>
       <use xlink:href="#DejaVuSans-31"/>
       <use xlink:href="#DejaVuSans-30" transform="translate(63.623047 0)"/>
       <use xlink:href="#DejaVuSans-30" transform="translate(127.246094 0)"/>
      </g>
     </g>
    </g>
    <g id="xtick_7">
     <g id="line2d_13">
      <path d="M 390.905594 299.518125 
L 390.905594 22.318125 
" clip-path="url(#pc32caae40d)" style="fill: none; stroke-dasharray: 1.85,0.8; stroke-dashoffset: 0; stroke: #b0b0b0; stroke-opacity: 0.6; stroke-width: 0.5"/>
     </g>
     <g id="line2d_14">
      <g>
       <use xlink:href="#m7b44a8bf6d" x="390.905594" y="299.518125" style="stroke: #000000; stroke-width: 0.8"/>
      </g>
     </g>
     <g id="text_7">
      <!-- 120 -->
      <g transform="translate(381.361844 314.116563) scale(0.1 -0.1)">
       <use xlink:href="#DejaVuSans-31"/>
       <use xlink:href="#DejaVuSans-32" transform="translate(63.623047 0)"/>
       <use xlink:href="#DejaVuSans-30" transform="translate(127.246094 0)"/>
      </g>
     </g>
    </g>
    <g id="xtick_8">
     <g id="line2d_15">
      <path d="M 445.377833 299.518125 
L 445.377833 22.318125 
" clip-path="url(#pc32caae40d)" style="fill: none; stroke-dasharray: 1.85,0.8; stroke-dashoffset: 0; stroke: #b0b0b0; stroke-opacity: 0.6; stroke-width: 0.5"/>
     </g>
     <g id="line2d_16">
      <g>
       <use xlink:href="#m7b44a8bf6d" x="445.377833" y="299.518125" style="stroke: #000000; stroke-width: 0.8"/>
      </g>
     </g>
     <g id="text_8">
      <!-- 140 -->
      <g transform="translate(435.834083 314.116563) scale(0.1 -0.1)">
       <use xlink:href="#DejaVuSans-31"/>
       <use xlink:href="#DejaVuSans-34" transform="translate(63.623047 0)"/>
       <use xlink:href="#DejaVuSans-30" transform="translate(127.246094 0)"/>
      </g>
     </g>
    </g>
    <g id="text_9">
     <!-- Simulation Day -->
     <g transform="translate(228.885937 327.794688) scale(0.1 -0.1)">
      <defs>
       <path id="DejaVuSans-53" d="M 3425 4513 
L 3425 3897 
Q 3066 4069 2747 4153 
Q 2428 4238 2131 4238 
Q 1616 4238 1336 4038 
Q 1056 3838 1056 3469 
Q 1056 3159 1242 3001 
Q 1428 2844 1947 2747 
L 2328 2669 
Q 3034 2534 3370 2195 
Q 3706 1856 3706 1288 
Q 3706 609 3251 259 
Q 2797 -91 1919 -91 
Q 1588 -91 1214 -16 
Q 841 59 441 206 
L 441 856 
Q 825 641 1194 531 
Q 1563 422 1919 422 
Q 2459 422 2753 634 
Q 3047 847 3047 1241 
Q 3047 1584 2836 1778 
Q 2625 1972 2144 2069 
L 1759 2144 
Q 1053 2284 737 2584 
Q 422 2884 422 3419 
Q 422 4038 858 4394 
Q 1294 4750 2059 4750 
Q 2388 4750 2728 4690 
Q 3069 4631 3425 4513 
z
" transform="scale(0.015625)"/>
       <path id="DejaVuSans-69" d="M 603 3500 
L 1178 3500 
L 1178 0 
L 603 0 
L 603 3500 
z
M 603 4863 
L 1178 4863 
L 1178 4134 
L 603 4134 
L 603 4863 
z
" transform="scale(0.015625)"/>
       <path id="DejaVuSans-6d" d="M 3328 2828 
Q 3544 3216 3844 3400 
Q 4144 3584 4550 3584 
Q 5097 3584 5394 3201 
Q 5691 2819 5691 2113 
L 5691 0 
L 5113 0 
L 5113 2094 
Q 5113 2597 4934 2840 
Q 4756 3084 4391 3084 
Q 3944 3084 3684 2787 
Q 3425 2491 3425 1978 
L 3425 0 
L 2847 0 
L 2847 2094 
Q 2847 2600 2669 2842 
Q 2491 3084 2119 3084 
Q 1678 3084 1418 2786 
Q 1159 2488 1159 1978 
L 1159 0 
L 581 0 
L 581 3500 
L 1159 3500 
L 1159 2956 
Q 1356 3278 1631 3431 
Q 1906 3584 2284 3584 
Q 2666 3584 2933 3390 
Q 3200 3197 3328 2828 
z
" transform="scale(0.015625)"/>
       <path id="DejaVuSans-75" d="M 544 1381 
L 544 3500 
L 1119 3500 
L 1119 1403 
Q 1119 906 1312 657 
Q 1506 409 1894 409 
Q 2359 409 2629 706 
Q 2900 1003 2900 1516 
L 2900 3500 
L 3475 3500 
L 3475 0 
L 2900 0 
L 2900 538 
Q 2691 219 2414 64 
Q 2138 -91 1772 -91 
Q 1169 -91 856 284 
Q 544 659 544 1381 
z
M 1991 3584 
L 1991 3584 
z
" transform="scale(0.015625)"/>
       <path id="DejaVuSans-6c" d="M 603 4863 
L 1178 4863 
L 1178 0 
L 603 0 
L 603 4863 
z
" transform="scale(0.015625)"/>
       <path id="DejaVuSans-61" d="M 2194 1759 
Q 1497 1759 1228 1600 
Q 959 1441 959 1056 
Q 959 750 1161 570 
Q 1363 391 1709 391 
Q 2188 391 2477 730 
Q 2766 1069 2766 1631 
L 2766 1759 
L 2194 1759 
z
M 3341 1997 
L 3341 0 
L 2766 0 
L 2766 531 
Q 2569 213 2275 61 
Q 1981 -91 1556 -91 
Q 1019 -91 701 211 
Q 384 513 384 1019 
Q 384 1609 779 1909 
Q 1175 2209 1959 2209 
L 2766 2209 
L 2766 2266 
Q 2766 2663 2505 2880 
Q 2244 3097 1772 3097 
Q 1472 3097 1187 3025 
Q 903 2953 641 2809 
L 641 3341 
Q 956 3463 1253 3523 
Q 1550 3584 1831 3584 
Q 2591 3584 2966 3190 
Q 3341 2797 3341 1997 
z
" transform="scale(0.015625)"/>
       <path id="DejaVuSans-74" d="M 1172 4494 
L 1172 3500 
L 2356 3500 
L 2356 3053 
L 1172 3053 
L 1172 1153 
Q 1172 725 1289 603 
Q 1406 481 1766 481 
L 2356 481 
L 2356 0 
L 1766 0 
Q 1100 0 847 248 
Q 594 497 594 1153 
L 594 3053 
L 172 3053 
L 172 3500 
L 594 3500 
L 594 4494 
L 1172 4494 
z
" transform="scale(0.015625)"/>
       <path id="DejaVuSans-6f" d="M 1959 3097 
Q 1497 3097 1228 2736 
Q 959 2375 959 1747 
Q 959 1119 1226 758 
Q 1494 397 1959 397 
Q 2419 397 2687 759 
Q 2956 1122 2956 1747 
Q 2956 2369 2687 2733 
Q 2419 3097 1959 3097 
z
M 1959 3584 
Q 2709 3584 3137 3096 
Q 3566 2609 3566 1747 
Q 3566 888 3137 398 
Q 2709 -91 1959 -91 
Q 1206 -91 779 398 
Q 353 888 353 1747 
Q 353 2609 779 3096 
Q 1206 3584 1959 3584 
z
" transform="scale(0.015625)"/>
       <path id="DejaVuSans-6e" d="M 3513 2113 
L 3513 0 
L 2938 0 
L 2938 2094 
Q 2938 2591 2744 2837 
Q 2550 3084 2163 3084 
Q 1697 3084 1428 2787 
Q 1159 2491 1159 1978 
L 1159 0 
L 581 0 
L 581 3500 
L 1159 3500 
L 1159 2956 
Q 1366 3272 1645 3428 
Q 1925 3584 2291 3584 
Q 2894 3584 3203 3211 
Q 3513 2838 3513 2113 
z
" transform="scale(0.015625)"/>
       <path id="DejaVuSans-20" transform="scale(0.015625)"/>
       <path id="DejaVuSans-44" d="M 1259 4147 
L 1259 519 
L 2022 519 
Q 2988 519 3436 956 
Q 3884 1394 3884 2338 
Q 3884 3275 3436 3711 
Q 2988 4147 2022 4147 
L 1259 4147 
z
M 628 4666 
L 1925 4666 
Q 3281 4666 3915 4102 
Q 4550 3538 4550 2338 
Q 4550 1131 3912 565 
Q 3275 0 1925 0 
L 628 0 
L 628 4666 
z
" transform="scale(0.015625)"/>
       <path id="DejaVuSans-79" d="M 2059 -325 
Q 1816 -950 1584 -1140 
Q 1353 -1331 966 -1331 
L 506 -1331 
L 506 -850 
L 844 -850 
Q 1081 -850 1212 -737 
Q 1344 -625 1503 -206 
L 1606 56 
L 191 3500 
L 800 3500 
L 1894 763 
L 2988 3500 
L 3597 3500 
L 2059 -325 
z
" transform="scale(0.015625)"/>
      </defs>
      <use xlink:href="#DejaVuSans-53"/>
      <use xlink:href="#DejaVuSans-69" transform="translate(63.476562 0)"/>
      <use xlink:href="#DejaVuSans-6d" transform="translate(91.259766 0)"/>
      <use xlink:href="#DejaVuSans-75" transform="translate(188.671875 0)"/>
      <use xlink:href="#DejaVuSans-6c" transform="translate(252.050781 0)"/>
      <use xlink:href="#DejaVuSans-61" transform="translate(279.833984 0)"/>
      <use xlink:href="#DejaVuSans-74" transform="translate(341.113281 0)"/>
      <use xlink:href="#DejaVuSans-69" transform="translate(380.322266 0)"/>
      <use xlink:href="#DejaVuSans-6f" transform="translate(408.105469 0)"/>
      <use xlink:href="#DejaVuSans-6e" transform="translate(469.287109 0)"/>
      <use xlink:href="#DejaVuSans-20" transform="translate(532.666016 0)"/>
      <use xlink:href="#DejaVuSans-44" transform="translate(564.453125 0)"/>
      <use xlink:href="#DejaVuSans-61" transform="translate(641.455078 0)"/>
      <use xlink:href="#DejaVuSans-79" transform="translate(702.734375 0)"/>
     </g>
    </g>
   </g>
   <g id="matplotlib.axis_2">
    <g id="ytick_1">
     <g id="line2d_17">
      <path d="M 43.78125 286.918125 
L 490.18125 286.918125 
" clip-path="url(#pc32caae40d)" style="fill: none; stroke-dasharray: 1.85,0.8; stroke-dashoffset: 0; stroke: #b0b0b0; stroke-opacity: 0.6; stroke-width: 0.5"/>
     </g>
     <g id="line2d_18">
      <defs>
       <path id="m7044fc0961" d="M 0 0 
L -3.5 0 
" style="stroke: #000000; stroke-width: 0.8"/>
      </defs>
      <g>
       <use xlink:href="#m7044fc0961" x="43.78125" y="286.918125" style="stroke: #000000; stroke-width: 0.8"/>
      </g>
     </g>
     <g id="text_10">
      <!-- 0.0 -->
      <g transform="translate(20.878125 290.717344) scale(0.1 -0.1)">
       <defs>
        <path id="DejaVuSans-2e" d="M 684 794 
L 1344 794 
L 1344 0 
L 684 0 
L 684 794 
z
" transform="scale(0.015625)"/>
       </defs>
       <use xlink:href="#DejaVuSans-30"/>
       <use xlink:href="#DejaVuSans-2e" transform="translate(63.623047 0)"/>
       <use xlink:href="#DejaVuSans-30" transform="translate(95.410156 0)"/>
      </g>
     </g>
    </g>
    <g id="ytick_2">
     <g id="line2d_19">
      <path d="M 43.78125 246.339663 
L 490.18125 246.339663 
" clip-path="url(#pc32caae40d)" style="fill: none; stroke-dasharray: 1.85,0.8; stroke-dashoffset: 0; stroke: #b0b0b0; stroke-opacity: 0.6; stroke-width: 0.5"/>
     </g>
     <g id="line2d_20">
      <g>
       <use xlink:href="#m7044fc0961" x="43.78125" y="246.339663" style="stroke: #000000; stroke-width: 0.8"/>
      </g>
     </g>
     <g id="text_11">
      <!-- 0.1 -->
      <g transform="translate(20.878125 250.138882) scale(0.1 -0.1)">
       <use xlink:href="#DejaVuSans-30"/>
       <use xlink:href="#DejaVuSans-2e" transform="translate(63.623047 0)"/>
       <use xlink:href="#DejaVuSans-31" transform="translate(95.410156 0)"/>
      </g>
     </g>
    </g>
    <g id="ytick_3">
     <g id="line2d_21">
      <path d="M 43.78125 205.761202 
L 490.18125 205.761202 
" clip-path="url(#pc32caae40d)" style="fill: none; stroke-dasharray: 1.85,0.8; stroke-dashoffset: 0; stroke: #b0b0b0; stroke-opacity: 0.6; stroke-width: 0.5"/>
     </g>
     <g id="line2d_22">
      <g>
       <use xlink:href="#m7044fc0961" x="43.78125" y="205.761202" style="stroke: #000000; stroke-width: 0.8"/>
      </g>
     </g>
     <g id="text_12">
      <!-- 0.2 -->
      <g transform="translate(20.878125 209.560421) scale(0.1 -0.1)">
       <use xlink:href="#DejaVuSans-30"/>
       <use xlink:href="#DejaVuSans-2e" transform="translate(63.623047 0)"/>
       <use xlink:href="#DejaVuSans-32" transform="translate(95.410156 0)"/>
      </g>
     </g>
    </g>
    <g id="ytick_4">
     <g id="line2d_23">
      <path d="M 43.78125 165.18274 
L 490.18125 165.18274 
" clip-path="url(#pc32caae40d)" style="fill: none; stroke-dasharray: 1.85,0.8; stroke-dashoffset: 0; stroke: #b0b0b0; stroke-opacity: 0.6; stroke-width: 0.5"/>
     </g>
     <g id="line2d_24">
      <g>
       <use xlink:href="#m7044fc0961" x="43.78125" y="165.18274" style="stroke: #000000; stroke-width: 0.8"/>
      </g>
     </g>
     <g id="text_13">
      <!-- 0.3 -->
      <g transform="translate(20.878125 168.981959) scale(0.1 -0.1)">
       <defs>
        <path id="DejaVuSans-33" d="M 2597 2516 
Q 3050 2419 3304 2112 
Q 3559 1806 3559 1356 
Q 3559 666 3084 287 
Q 2609 -91 1734 -91 
Q 1441 -91 1130 -33 
Q 819 25 488 141 
L 488 750 
Q 750 597 1062 519 
Q 1375 441 1716 441 
Q 2309 441 2620 675 
Q 2931 909 2931 1356 
Q 2931 1769 2642 2001 
Q 2353 2234 1838 2234 
L 1294 2234 
L 1294 2753 
L 1863 2753 
Q 2328 2753 2575 2939 
Q 2822 3125 2822 3475 
Q 2822 3834 2567 4026 
Q 2313 4219 1838 4219 
Q 1578 4219 1281 4162 
Q 984 4106 628 3988 
L 628 4550 
Q 988 4650 1302 4700 
Q 1616 4750 1894 4750 
Q 2613 4750 3031 4423 
Q 3450 4097 3450 3541 
Q 3450 3153 3228 2886 
Q 3006 2619 2597 2516 
z
" transform="scale(0.015625)"/>
       </defs>
       <use xlink:href="#DejaVuSans-30"/>
       <use xlink:href="#DejaVuSans-2e" transform="translate(63.623047 0)"/>
       <use xlink:href="#DejaVuSans-33" transform="translate(95.410156 0)"/>
      </g>
     </g>
    </g>
    <g id="ytick_5">
     <g id="line2d_25">
      <path d="M 43.78125 124.604279 
L 490.18125 124.604279 
" clip-path="url(#pc32caae40d)" style="fill: none; stroke-dasharray: 1.85,0.8; stroke-dashoffset: 0; stroke: #b0b0b0; stroke-opacity: 0.6; stroke-width: 0.5"/>
     </g>
     <g id="line2d_26">
      <g>
       <use xlink:href="#m7044fc0961" x="43.78125" y="124.604279" style="stroke: #000000; stroke-width: 0.8"/>
      </g>
     </g>
     <g id="text_14">
      <!-- 0.4 -->
      <g transform="translate(20.878125 128.403498) scale(0.1 -0.1)">
       <use xlink:href="#DejaVuSans-30"/>
       <use xlink:href="#DejaVuSans-2e" transform="translate(63.623047 0)"/>
       <use xlink:href="#DejaVuSans-34" transform="translate(95.410156 0)"/>
      </g>
     </g>
    </g>
    <g id="ytick_6">
     <g id="line2d_27">
      <path d="M 43.78125 84.025817 
L 490.18125 84.025817 
" clip-path="url(#pc32caae40d)" style="fill: none; stroke-dasharray: 1.85,0.8; stroke-dashoffset: 0; stroke: #b0b0b0; stroke-opacity: 0.6; stroke-width: 0.5"/>
     </g>
     <g id="line2d_28">
      <g>
       <use xlink:href="#m7044fc0961" x="43.78125" y="84.025817" style="stroke: #000000; stroke-width: 0.8"/>
      </g>
     </g>
     <g id="text_15">
      <!-- 0.5 -->
      <g transform="translate(20.878125 87.825036) scale(0.1 -0.1)">
       <defs>
        <path id="DejaVuSans-35" d="M 691 4666 
L 3169 4666 
L 3169 4134 
L 1269 4134 
L 1269 2991 
Q 1406 3038 1543 3061 
Q 1681 3084 1819 3084 
Q 2600 3084 3056 2656 
Q 3513 2228 3513 1497 
Q 3513 744 3044 326 
Q 2575 -91 1722 -91 
Q 1428 -91 1123 -41 
Q 819 9 494 109 
L 494 744 
Q 775 591 1075 516 
Q 1375 441 1709 441 
Q 2250 441 2565 725 
Q 2881 1009 2881 1497 
Q 2881 1984 2565 2268 
Q 2250 2553 1709 2553 
Q 1456 2553 1204 2497 
Q 953 2441 691 2322 
L 691 4666 
z
" transform="scale(0.015625)"/>
       </defs>
       <use xlink:href="#DejaVuSans-30"/>
       <use xlink:href="#DejaVuSans-2e" transform="translate(63.623047 0)"/>
       <use xlink:href="#DejaVuSans-35" transform="translate(95.410156 0)"/>
      </g>
     </g>
    </g>
    <g id="ytick_7">
     <g id="line2d_29">
      <path d="M 43.78125 43.447356 
L 490.18125 43.447356 
" clip-path="url(#pc32caae40d)" style="fill: none; stroke-dasharray: 1.85,0.8; stroke-dashoffset: 0; stroke: #b0b0b0; stroke-opacity: 0.6; stroke-width: 0.5"/>
     </g>
     <g id="line2d_30">
      <g>
       <use xlink:href="#m7044fc0961" x="43.78125" y="43.447356" style="stroke: #000000; stroke-width: 0.8"/>
      </g>
     </g>
     <g id="text_16">
      <!-- 0.6 -->
      <g transform="translate(20.878125 47.246575) scale(0.1 -0.1)">
       <use xlink:href="#DejaVuSans-30"/>
       <use xlink:href="#DejaVuSans-2e" transform="translate(63.623047 0)"/>
       <use xlink:href="#DejaVuSans-36" transform="translate(95.410156 0)"/>
      </g>
     </g>
    </g>
    <g id="text_17">
     <!-- Detection Ratio (Efficiency) -->
     <g transform="translate(14.798438 229.282969) rotate(-90) scale(0.1 -0.1)">
      <defs>
       <path id="DejaVuSans-65" d="M 3597 1894 
L 3597 1613 
L 953 1613 
Q 991 1019 1311 708 
Q 1631 397 2203 397 
Q 2534 397 2845 478 
Q 3156 559 3463 722 
L 3463 178 
Q 3153 47 2828 -22 
Q 2503 -91 2169 -91 
Q 1331 -91 842 396 
Q 353 884 353 1716 
Q 353 2575 817 3079 
Q 1281 3584 2069 3584 
Q 2775 3584 3186 3129 
Q 3597 2675 3597 1894 
z
M 3022 2063 
Q 3016 2534 2758 2815 
Q 2500 3097 2075 3097 
Q 1594 3097 1305 2825 
Q 1016 2553 972 2059 
L 3022 2063 
z
" transform="scale(0.015625)"/>
       <path id="DejaVuSans-63" d="M 3122 3366 
L 3122 2828 
Q 2878 2963 2633 3030 
Q 2388 3097 2138 3097 
Q 1578 3097 1268 2742 
Q 959 2388 959 1747 
Q 959 1106 1268 751 
Q 1578 397 2138 397 
Q 2388 397 2633 464 
Q 2878 531 3122 666 
L 3122 134 
Q 2881 22 2623 -34 
Q 2366 -91 2075 -91 
Q 1284 -91 818 406 
Q 353 903 353 1747 
Q 353 2603 823 3093 
Q 1294 3584 2113 3584 
Q 2378 3584 2631 3529 
Q 2884 3475 3122 3366 
z
" transform="scale(0.015625)"/>
       <path id="DejaVuSans-52" d="M 2841 2188 
Q 3044 2119 3236 1894 
Q 3428 1669 3622 1275 
L 4263 0 
L 3584 0 
L 2988 1197 
Q 2756 1666 2539 1819 
Q 2322 1972 1947 1972 
L 1259 1972 
L 1259 0 
L 628 0 
L 628 4666 
L 2053 4666 
Q 2853 4666 3247 4331 
Q 3641 3997 3641 3322 
Q 3641 2881 3436 2590 
Q 3231 2300 2841 2188 
z
M 1259 4147 
L 1259 2491 
L 2053 2491 
Q 2509 2491 2742 2702 
Q 2975 2913 2975 3322 
Q 2975 3731 2742 3939 
Q 2509 4147 2053 4147 
L 1259 4147 
z
" transform="scale(0.015625)"/>
       <path id="DejaVuSans-28" d="M 1984 4856 
Q 1566 4138 1362 3434 
Q 1159 2731 1159 2009 
Q 1159 1288 1364 580 
Q 1569 -128 1984 -844 
L 1484 -844 
Q 1016 -109 783 600 
Q 550 1309 550 2009 
Q 550 2706 781 3412 
Q 1013 4119 1484 4856 
L 1984 4856 
z
" transform="scale(0.015625)"/>
       <path id="DejaVuSans-45" d="M 628 4666 
L 3578 4666 
L 3578 4134 
L 1259 4134 
L 1259 2753 
L 3481 2753 
L 3481 2222 
L 1259 2222 
L 1259 531 
L 3634 531 
L 3634 0 
L 628 0 
L 628 4666 
z
" transform="scale(0.015625)"/>
       <path id="DejaVuSans-66" d="M 2375 4863 
L 2375 4384 
L 1825 4384 
Q 1516 4384 1395 4259 
Q 1275 4134 1275 3809 
L 1275 3500 
L 2222 3500 
L 2222 3053 
L 1275 3053 
L 1275 0 
L 697 0 
L 697 3053 
L 147 3053 
L 147 3500 
L 697 3500 
L 697 3744 
Q 697 4328 969 4595 
Q 1241 4863 1831 4863 
L 2375 4863 
z
" transform="scale(0.015625)"/>
       <path id="DejaVuSans-29" d="M 513 4856 
L 1013 4856 
Q 1481 4119 1714 3412 
Q 1947 2706 1947 2009 
Q 1947 1309 1714 600 
Q 1481 -109 1013 -844 
L 513 -844 
Q 928 -128 1133 580 
Q 1338 1288 1338 2009 
Q 1338 2731 1133 3434 
Q 928 4138 513 4856 
z
" transform="scale(0.015625)"/>
      </defs>
      <use xlink:href="#DejaVuSans-44"/>
      <use xlink:href="#DejaVuSans-65" transform="translate(77.001953 0)"/>
      <use xlink:href="#DejaVuSans-74" transform="translate(138.525391 0)"/>
      <use xlink:href="#DejaVuSans-65" transform="translate(177.734375 0)"/>
      <use xlink:href="#DejaVuSans-63" transform="translate(239.257812 0)"/>
      <use xlink:href="#DejaVuSans-74" transform="translate(294.238281 0)"/>
      <use xlink:href="#DejaVuSans-69" transform="translate(333.447266 0)"/>
      <use xlink:href="#DejaVuSans-6f" transform="translate(361.230469 0)"/>
      <use xlink:href="#DejaVuSans-6e" transform="translate(422.412109 0)"/>
      <use xlink:href="#DejaVuSans-20" transform="translate(485.791016 0)"/>
      <use xlink:href="#DejaVuSans-52" transform="translate(517.578125 0)"/>
      <use xlink:href="#DejaVuSans-61" transform="translate(584.810547 0)"/>
      <use xlink:href="#DejaVuSans-74" transform="translate(646.089844 0)"/>
      <use xlink:href="#DejaVuSans-69" transform="translate(685.298828 0)"/>
      <use xlink:href="#DejaVuSans-6f" transform="translate(713.082031 0)"/>
      <use xlink:href="#DejaVuSans-20" transform="translate(774.263672 0)"/>
      <use xlink:href="#DejaVuSans-28" transform="translate(806.050781 0)"/>
      <use xlink:href="#DejaVuSans-45" transform="translate(845.064453 0)"/>
      <use xlink:href="#DejaVuSans-66" transform="translate(908.248047 0)"/>
      <use xlink:href="#DejaVuSans-66" transform="translate(943.453125 0)"/>
      <use xlink:href="#DejaVuSans-69" transform="translate(978.658203 0)"/>
      <use xlink:href="#DejaVuSans-63" transform="translate(1006.441406 0)"/>
      <use xlink:href="#DejaVuSans-69" transform="translate(1061.421875 0)"/>
      <use xlink:href="#DejaVuSans-65" transform="translate(1089.205078 0)"/>
      <use xlink:href="#DejaVuSans-6e" transform="translate(1150.728516 0)"/>
      <use xlink:href="#DejaVuSans-63" transform="translate(1214.107422 0)"/>
      <use xlink:href="#DejaVuSans-79" transform="translate(1269.087891 0)"/>
      <use xlink:href="#DejaVuSans-29" transform="translate(1328.267578 0)"/>
     </g>
    </g>
   </g>
   <g id="line2d_31">
    <path d="M 64.072159 286.918125 
L 115.820786 286.918125 
L 118.544398 202.672184 
L 121.26801 175.120323 
L 123.991622 155.312304 
L 126.715234 140.726361 
L 129.438846 124.331023 
L 132.162458 123.795406 
L 134.88607 110.314189 
L 137.609682 105.52434 
L 140.333294 99.632918 
L 143.056906 100.366137 
L 145.780518 111.299865 
L 148.50413 113.939427 
L 151.227742 117.084947 
L 153.951354 111.122184 
L 156.674966 100.335488 
L 159.398578 92.958183 
L 162.12219 93.129959 
L 164.845802 96.039178 
L 167.569414 107.740503 
L 170.293025 112.443958 
L 173.016637 105.835088 
L 175.740249 107.007147 
L 178.463861 95.409214 
L 181.187473 95.484851 
L 183.911085 93.308472 
L 186.634697 99.827399 
L 189.358309 102.351574 
L 192.081921 98.332326 
L 194.805533 104.883905 
L 197.529145 97.888025 
L 200.252757 89.06662 
L 202.976369 92.24264 
L 205.699981 93.276226 
L 208.423593 89.00477 
L 211.147205 86.546219 
L 213.870817 96.898139 
L 216.594429 95.297612 
L 219.318041 99.733609 
L 222.041653 95.260896 
L 224.765265 91.779663 
L 227.488877 99.030715 
L 230.212489 92.617348 
L 232.936101 80.721382 
L 235.659712 73.347275 
L 238.383324 77.480904 
L 241.106936 73.553956 
L 243.830548 74.80344 
L 246.55416 77.564279 
L 249.277772 84.025817 
L 252.001384 79.459109 
L 254.724996 77.351728 
L 257.448608 79.369273 
L 260.17222 75.377948 
L 262.895832 75.145009 
L 265.619444 77.918691 
L 268.343056 82.62656 
L 271.066668 96.213694 
L 273.79028 91.22058 
L 276.513892 87.636001 
L 279.237504 84.75303 
L 281.961116 84.025817 
L 284.684728 84.025817 
L 287.40834 92.261298 
L 290.131952 87.714768 
L 292.855564 81.812447 
L 295.579176 76.340503 
L 298.302788 78.412196 
L 301.026399 88.067497 
L 303.750011 84.834153 
L 306.473623 102.611372 
L 309.197235 103.196744 
L 311.920847 92.778035 
L 314.644459 94.369347 
L 317.368071 97.658897 
L 320.091683 103.196744 
L 322.815295 106.749756 
L 325.538907 104.074464 
L 328.262519 105.850886 
L 330.986131 113.010433 
L 333.709743 104.234214 
L 336.433355 109.678868 
L 339.156967 122.814053 
L 341.880579 118.560678 
L 344.604191 118.426243 
L 347.327803 112.402364 
L 350.051415 109.478257 
L 352.775027 110.741175 
L 355.498639 116.219062 
L 358.222251 122.814053 
L 360.945863 125.77622 
L 363.669475 127.874338 
L 366.393086 127.55544 
L 369.116698 110.879211 
L 371.84031 115.459837 
L 374.563922 109.118506 
L 377.287534 105.941014 
L 380.011146 108.966068 
L 382.734758 112.43074 
L 385.45837 107.020279 
L 388.181982 109.969424 
L 390.905594 98.904587 
L 393.629206 99.127834 
L 396.352818 102.928827 
L 399.07643 104.376717 
L 401.800042 97.055599 
L 404.523654 100.378332 
L 407.247266 91.994397 
L 409.970878 87.054061 
L 412.69449 90.687953 
L 415.418102 90.406079 
L 418.141714 90.768462 
L 420.865326 89.993238 
L 423.588938 106.180724 
L 426.31255 103.121564 
L 429.036162 102.790424 
L 431.759773 107.481575 
L 434.483385 113.18043 
L 437.206997 110.958425 
L 439.930609 114.169817 
L 442.654221 112.842406 
L 445.377833 108.88157 
L 448.101445 110.186717 
L 450.825057 102.682581 
L 453.548669 100.090604 
L 456.272281 100.476545 
L 458.995893 102.89952 
L 461.719505 101.516533 
L 464.443117 103.89361 
L 467.166729 107.109373 
L 469.890341 106.705622 
L 469.890341 106.705622 
" clip-path="url(#pc32caae40d)" style="fill: none; stroke: #1f77b4; stroke-width: 1.5; stroke-linecap: square"/>
   </g>
   <g id="line2d_32">
    <path d="M 64.072159 286.918125 
L 115.820786 286.918125 
L 118.544398 230.911394 
L 121.26801 182.397845 
L 123.991622 154.597055 
L 126.715234 147.764168 
L 129.438846 145.817959 
L 132.162458 139.450057 
L 134.88607 136.55613 
L 137.609682 131.847116 
L 140.333294 130.427197 
L 143.056906 127.59705 
L 145.780518 126.312846 
L 148.50413 124.604279 
L 151.227742 122.017604 
L 153.951354 114.961872 
L 156.674966 116.905598 
L 159.398578 125.407813 
L 162.12219 128.371718 
L 164.845802 125.220271 
L 167.569414 127.50274 
L 170.293025 119.919242 
L 173.016637 115.181565 
L 175.740249 113.862921 
L 178.463861 117.469604 
L 181.187473 118.880735 
L 183.911085 115.439016 
L 186.634697 114.853977 
L 189.358309 115.023253 
L 192.081921 125.439513 
L 194.805533 126.83157 
L 197.529145 116.658846 
L 200.252757 114.530605 
L 202.976369 114.351358 
L 205.699981 119.326939 
L 208.423593 120.442385 
L 211.147205 119.148351 
L 213.870817 120.635391 
L 216.594429 118.414344 
L 219.318041 124.467189 
L 222.041653 113.010433 
L 224.765265 103.314875 
L 227.488877 103.383034 
L 230.212489 108.315741 
L 232.936101 104.890629 
L 235.659712 102.535291 
L 238.383324 99.632918 
L 241.106936 99.524535 
L 243.830548 99.952517 
L 246.55416 96.490191 
L 249.277772 93.326483 
L 252.001384 96.447795 
L 254.724996 95.471024 
L 257.448608 95.834364 
L 260.17222 99.578538 
L 262.895832 107.285077 
L 265.619444 109.654319 
L 268.343056 101.637997 
L 271.066668 104.455946 
L 273.79028 99.68768 
L 276.513892 100.93351 
L 279.237504 104.714299 
L 281.961116 107.140131 
L 284.684728 99.745402 
L 287.40834 100.964878 
L 290.131952 104.91179 
L 295.579176 104.352005 
L 298.302788 108.28468 
L 301.026399 101.155562 
L 303.750011 95.424262 
L 306.473623 90.244739 
L 309.197235 87.912643 
L 311.920847 92.080143 
L 314.644459 92.914433 
L 317.368071 94.746155 
L 320.091683 92.530285 
L 322.815295 94.369347 
L 325.538907 93.764648 
L 328.262519 97.605224 
L 330.986131 103.55769 
L 333.709743 95.723386 
L 336.433355 97.128452 
L 339.156967 98.659376 
L 341.880579 97.39469 
L 344.604191 88.393362 
L 347.327803 94.030369 
L 350.051415 88.552826 
L 352.775027 92.586674 
L 355.498639 94.298846 
L 358.222251 91.862859 
L 360.945863 92.659533 
L 366.393086 100.185382 
L 369.116698 92.2884 
L 371.84031 88.262548 
L 374.563922 87.872117 
L 377.287534 90.412258 
L 380.011146 89.456025 
L 382.734758 95.324905 
L 385.45837 97.037913 
L 388.181982 95.194201 
L 390.905594 94.559729 
L 393.629206 91.370335 
L 396.352818 90.631613 
L 399.07643 86.424072 
L 401.800042 88.8797 
L 404.523654 91.57764 
L 407.247266 95.324905 
L 409.970878 93.201851 
L 412.69449 94.430551 
L 415.418102 99.78938 
L 418.141714 107.358433 
L 420.865326 104.835285 
L 423.588938 106.686517 
L 426.31255 98.254628 
L 429.036162 92.055856 
L 431.759773 99.215616 
L 434.483385 100.600118 
L 437.206997 95.235337 
L 439.930609 94.227107 
L 442.654221 98.761013 
L 445.377833 96.027897 
L 448.101445 86.29277 
L 450.825057 83.444464 
L 453.548669 90.903523 
L 456.272281 94.884842 
L 458.995893 102.575971 
L 461.719505 106.441681 
L 464.443117 106.067043 
L 467.166729 106.067043 
L 469.890341 92.993433 
L 469.890341 92.993433 
" clip-path="url(#pc32caae40d)" style="fill: none; stroke: #ff7f0e; stroke-width: 1.5; stroke-linecap: square"/>
   </g>
   <g id="line2d_33">
    <path d="M 64.072159 286.918125 
L 115.820786 286.918125 
L 118.544398 235.715019 
L 121.26801 205.273773 
L 123.991622 191.308599 
L 126.715234 180.412977 
L 129.438846 178.708894 
L 132.162458 163.190516 
L 134.88607 159.26721 
L 137.609682 164.585998 
L 140.333294 159.864204 
L 143.056906 170.844851 
L 145.780518 165.733579 
L 148.50413 158.968021 
L 151.227742 153.472178 
L 153.951354 154.884085 
L 156.674966 153.600798 
L 159.398578 154.115887 
L 162.12219 151.656587 
L 164.845802 155.270444 
L 167.569414 170.979663 
L 170.293025 169.016356 
L 173.016637 162.712747 
L 175.740249 160.237452 
L 178.463861 155.420001 
L 181.187473 143.779459 
L 183.911085 141.183288 
L 186.634697 130.382007 
L 189.358309 128.074805 
L 192.081921 126.843999 
L 194.805533 119.597845 
L 197.529145 119.254707 
L 200.252757 119.451458 
L 202.976369 115.215285 
L 205.699981 116.361779 
L 208.423593 116.296877 
L 211.147205 122.958351 
L 213.870817 123.61456 
L 216.594429 112.654793 
L 219.318041 106.294485 
L 222.041653 105.449229 
L 224.765265 99.386749 
L 227.488877 107.21351 
L 230.212489 105.40021 
L 232.936101 102.530653 
L 235.659712 99.892603 
L 238.383324 99.685291 
L 241.106936 98.275779 
L 243.830548 102.713267 
L 246.55416 100.766107 
L 249.277772 100.601986 
L 252.001384 105.331148 
L 254.724996 106.927811 
L 257.448608 104.020051 
L 260.17222 101.918151 
L 262.895832 101.016799 
L 265.619444 103.553788 
L 268.343056 100.656334 
L 271.066668 109.594897 
L 273.79028 110.81028 
L 276.513892 102.045858 
L 279.237504 102.907504 
L 281.961116 103.283392 
L 284.684728 98.617387 
L 287.40834 97.922551 
L 290.131952 96.248245 
L 292.855564 100.495486 
L 295.579176 98.343519 
L 298.302788 95.376436 
L 301.026399 92.198362 
L 303.750011 90.455503 
L 306.473623 87.962 
L 309.197235 86.548457 
L 311.920847 77.855568 
L 314.644459 87.020538 
L 317.368071 87.755455 
L 320.091683 87.031629 
L 322.815295 77.602783 
L 325.538907 74.364279 
L 328.262519 74.697435 
L 330.986131 77.734583 
L 333.709743 76.331299 
L 336.433355 84.025817 
L 339.156967 81.085349 
L 341.880579 75.46496 
L 344.604191 70.443069 
L 347.327803 75.8063 
L 350.051415 77.904067 
L 352.775027 77.877566 
L 355.498639 67.079959 
L 358.222251 65.326065 
L 360.945863 64.172393 
L 363.669475 64.077173 
L 366.393086 65.671256 
L 369.116698 62.828114 
L 371.84031 57.07521 
L 374.563922 59.385149 
L 377.287534 50.747185 
L 380.011146 58.664279 
L 382.734758 63.848682 
L 385.45837 66.793868 
L 388.181982 68.766507 
L 390.905594 65.788307 
L 393.629206 65.058548 
L 396.352818 64.841158 
L 399.07643 57.561603 
L 401.800042 58.290215 
L 404.523654 51.341038 
L 407.247266 39.643125 
L 409.970878 34.918125 
L 412.69449 37.307194 
L 415.418102 35.718125 
L 418.141714 40.548894 
L 420.865326 46.398517 
L 423.588938 41.311647 
L 426.31255 43.138774 
L 429.036162 46.98992 
L 431.759773 37.204516 
L 434.483385 36.286451 
L 437.206997 42.077619 
L 439.930609 49.220024 
L 442.654221 51.077494 
L 445.377833 57.561603 
L 448.101445 62.668732 
L 450.825057 56.358684 
L 453.548669 50.686706 
L 456.272281 59.756403 
L 458.995893 56.448222 
L 461.719505 63.736587 
L 464.443117 65.76551 
L 467.166729 66.693309 
L 469.890341 71.211566 
L 469.890341 71.211566 
" clip-path="url(#pc32caae40d)" style="fill: none; stroke: #2ca02c; stroke-width: 1.5; stroke-linecap: square"/>
   </g>
   <g id="line2d_34">
    <path d="M 64.072159 286.918125 
L 115.820786 286.918125 
L 118.544398 233.179081 
L 121.26801 192.305132 
L 126.715234 148.951356 
L 129.438846 140.995579 
L 132.162458 134.013777 
L 134.88607 120.915328 
L 137.609682 115.500758 
L 140.333294 109.327682 
L 143.056906 112.736993 
L 145.780518 109.568079 
L 148.50413 109.509875 
L 151.227742 107.839468 
L 153.951354 114.850726 
L 156.674966 117.916515 
L 159.398578 122.629221 
L 162.12219 122.096118 
L 164.845802 120.62777 
L 167.569414 115.966735 
L 170.293025 121.200346 
L 173.016637 116.665015 
L 175.740249 110.904713 
L 178.463861 111.049528 
L 181.187473 99.022205 
L 183.911085 98.549562 
L 186.634697 96.900822 
L 189.358309 91.965082 
L 192.081921 93.771736 
L 194.805533 93.08351 
L 197.529145 97.796788 
L 200.252757 98.806052 
L 202.976369 98.326597 
L 205.699981 89.484803 
L 208.423593 85.887215 
L 211.147205 91.882695 
L 213.870817 97.367942 
L 216.594429 101.80739 
L 219.318041 97.796788 
L 222.041653 91.505718 
L 224.765265 91.119954 
L 227.488877 87.853974 
L 230.212489 93.314863 
L 232.936101 101.171646 
L 235.659712 100.082043 
L 238.383324 111.109802 
L 241.106936 104.98183 
L 246.55416 104.029284 
L 249.277772 99.195336 
L 252.001384 99.488741 
L 254.724996 101.872826 
L 260.17222 93.86586 
L 262.895832 101.443486 
L 265.619444 99.920606 
L 268.343056 100.501991 
L 271.066668 92.518984 
L 273.79028 80.699714 
L 276.513892 84.514714 
L 279.237504 80.086161 
L 281.961116 77.513225 
L 284.684728 79.494724 
L 287.40834 75.828148 
L 290.131952 76.161774 
L 292.855564 68.335479 
L 295.579176 74.155381 
L 298.302788 79.050257 
L 301.026399 82.358209 
L 303.750011 76.678742 
L 306.473623 74.418104 
L 309.197235 81.746128 
L 311.920847 81.168179 
L 314.644459 87.960017 
L 317.368071 92.456246 
L 320.091683 96.356289 
L 322.815295 87.46467 
L 325.538907 91.252119 
L 328.262519 94.645525 
L 330.986131 93.424099 
L 333.709743 94.645525 
L 336.433355 89.569323 
L 339.156967 83.457492 
L 341.880579 83.451052 
L 344.604191 82.261536 
L 347.327803 77.109034 
L 350.051415 80.507454 
L 352.775027 90.174069 
L 355.498639 90.242573 
L 358.222251 93.144573 
L 360.945863 91.744546 
L 363.669475 90.714575 
L 366.393086 82.330338 
L 369.116698 73.287784 
L 371.84031 72.023737 
L 374.563922 77.739013 
L 377.287534 79.44068 
L 380.011146 78.82345 
L 382.734758 72.691052 
L 385.45837 72.431971 
L 388.181982 67.414751 
L 390.905594 73.220902 
L 393.629206 65.468594 
L 396.352818 69.755105 
L 399.07643 68.322078 
L 401.800042 63.862607 
L 404.523654 65.004663 
L 407.247266 71.10274 
L 409.970878 69.719308 
L 412.69449 71.709671 
L 415.418102 76.271971 
L 418.141714 86.577922 
L 420.865326 79.399608 
L 423.588938 73.687356 
L 426.31255 82.725226 
L 429.036162 92.506846 
L 431.759773 82.055989 
L 434.483385 72.642421 
L 437.206997 71.132995 
L 439.930609 76.4087 
L 442.654221 82.636144 
L 445.377833 87.636001 
L 448.101445 81.875015 
L 450.825057 81.085349 
L 453.548669 73.426965 
L 456.272281 79.414628 
L 458.995893 81.61998 
L 461.719505 84.025817 
L 464.443117 85.610913 
L 467.166729 82.376286 
L 469.890341 79.816433 
L 469.890341 79.816433 
" clip-path="url(#pc32caae40d)" style="fill: none; stroke: #d62728; stroke-width: 1.5; stroke-linecap: square"/>
   </g>
   <g id="line2d_35">
    <path d="M 64.072159 286.918125 
L 115.820786 286.918125 
L 118.544398 240.05586 
L 121.26801 208.804587 
L 123.991622 193.275521 
L 126.715234 185.926887 
L 129.438846 174.642207 
L 132.162458 173.089892 
L 137.609682 168.267653 
L 140.333294 166.940376 
L 143.056906 164.134588 
L 145.780518 167.190155 
L 148.50413 168.446043 
L 151.227742 161.269082 
L 153.951354 157.713073 
L 156.674966 152.297636 
L 159.398578 152.065232 
L 162.12219 151.656587 
L 164.845802 153.444184 
L 167.569414 156.132868 
L 170.293025 156.261235 
L 173.016637 152.213218 
L 175.740249 151.656587 
L 178.463861 145.316202 
L 181.187473 143.48526 
L 183.911085 145.44731 
L 186.634697 146.801903 
L 189.358309 145.644963 
L 192.081921 145.838886 
L 194.805533 144.579883 
L 197.529145 143.840767 
L 200.252757 145.880293 
L 202.976369 141.227906 
L 205.699981 139.028119 
L 208.423593 138.039653 
L 211.147205 139.481563 
L 213.870817 142.915699 
L 216.594429 137.95362 
L 219.318041 139.633339 
L 222.041653 137.915732 
L 224.765265 137.483709 
L 227.488877 137.829243 
L 230.212489 134.748894 
L 232.936101 135.608607 
L 235.659712 127.517189 
L 238.383324 125.996476 
L 241.106936 128.25634 
L 243.830548 121.598467 
L 246.55416 120.625998 
L 249.277772 117.775795 
L 252.001384 117.127249 
L 254.724996 115.665943 
L 257.448608 113.903125 
L 260.17222 110.696179 
L 262.895832 112.395523 
L 265.619444 111.28582 
L 268.343056 108.419358 
L 271.066668 106.569407 
L 273.79028 105.728724 
L 276.513892 103.234556 
L 279.237504 104.234214 
L 281.961116 107.104566 
L 284.684728 104.315048 
L 287.40834 106.748147 
L 290.131952 102.770183 
L 292.855564 101.31076 
L 295.579176 98.488609 
L 298.302788 93.667394 
L 301.026399 89.726226 
L 303.750011 88.243953 
L 306.473623 89.786167 
L 309.197235 87.46467 
L 311.920847 87.086693 
L 314.644459 87.995449 
L 317.368071 89.986745 
L 320.091683 87.373875 
L 322.815295 92.808059 
L 325.538907 91.320822 
L 328.262519 90.061515 
L 330.986131 89.622846 
L 333.709743 90.174069 
L 336.433355 86.424072 
L 339.156967 90.014374 
L 341.880579 87.431683 
L 344.604191 86.966286 
L 347.327803 81.280657 
L 350.051415 81.502281 
L 352.775027 90.052321 
L 355.498639 92.426628 
L 358.222251 91.977349 
L 360.945863 87.585331 
L 363.669475 86.369888 
L 366.393086 82.448934 
L 369.116698 81.093077 
L 371.84031 79.918686 
L 374.563922 79.591013 
L 377.287534 80.387748 
L 380.011146 73.981644 
L 382.734758 72.91644 
L 385.45837 79.897195 
L 388.181982 81.015546 
L 390.905594 75.151191 
L 393.629206 83.715109 
L 396.352818 82.123702 
L 399.07643 81.731397 
L 404.523654 75.414089 
L 407.247266 78.504938 
L 409.970878 80.527674 
L 412.69449 82.273725 
L 415.418102 85.796256 
L 418.141714 79.307392 
L 420.865326 79.631038 
L 423.588938 79.483452 
L 426.31255 74.364279 
L 429.036162 74.51524 
L 434.483385 79.214142 
L 437.206997 88.166477 
L 439.930609 96.530115 
L 442.654221 100.207412 
L 445.377833 99.889825 
L 448.101445 101.92808 
L 450.825057 101.1071 
L 453.548669 100.521127 
L 456.272281 90.817192 
L 458.995893 97.323199 
L 461.719505 96.164673 
L 464.443117 102.627884 
L 467.166729 90.487356 
L 469.890341 90.174069 
L 469.890341 90.174069 
" clip-path="url(#pc32caae40d)" style="fill: none; stroke: #9467bd; stroke-width: 1.5; stroke-linecap: square"/>
   </g>
   <g id="line2d_36">
    <path d="M 64.072159 286.918125 
L 115.820786 286.918125 
L 118.544398 231.640964 
L 121.26801 200.555802 
L 123.991622 176.874839 
L 126.715234 162.675083 
L 129.438846 149.783158 
L 132.162458 139.056882 
L 134.88607 136.385123 
L 137.609682 140.877389 
L 140.333294 135.271813 
L 143.056906 138.986518 
L 145.780518 133.999292 
L 148.50413 128.392931 
L 151.227742 129.652317 
L 153.951354 125.185355 
L 156.674966 123.649492 
L 159.398578 130.991629 
L 162.12219 133.031409 
L 164.845802 134.414456 
L 167.569414 130.51292 
L 170.293025 137.745662 
L 173.016637 136.049486 
L 175.740249 137.596136 
L 178.463861 135.261249 
L 181.187473 130.081126 
L 186.634697 114.865448 
L 189.358309 110.744146 
L 192.081921 106.294485 
L 197.529145 118.50949 
L 200.252757 117.452519 
L 202.976369 116.100704 
L 205.699981 117.592559 
L 208.423593 121.216603 
L 211.147205 119.00725 
L 213.870817 105.642381 
L 216.594429 100.902257 
L 219.318041 102.805323 
L 222.041653 99.924095 
L 224.765265 96.266121 
L 227.488877 95.873543 
L 230.212489 101.084741 
L 232.936101 101.232232 
L 235.659712 104.816902 
L 238.383324 106.017641 
L 241.106936 99.904346 
L 243.830548 94.403025 
L 246.55416 101.293248 
L 249.277772 103.91722 
L 252.001384 97.007958 
L 254.724996 93.401617 
L 257.448608 95.256019 
L 260.17222 97.299146 
L 262.895832 99.9172 
L 265.619444 106.974139 
L 268.343056 106.974139 
L 271.066668 105.999713 
L 273.79028 120.087466 
L 276.513892 115.945584 
L 279.237504 117.841202 
L 281.961116 111.625139 
L 284.684728 105.990306 
L 287.40834 102.052166 
L 290.131952 105.066501 
L 292.855564 108.641428 
L 295.579176 112.475661 
L 298.302788 110.780847 
L 303.750011 112.153217 
L 306.473623 112.900434 
L 309.197235 119.786057 
L 311.920847 107.917809 
L 314.644459 108.955874 
L 320.091683 92.813996 
L 322.815295 92.609723 
L 325.538907 98.181095 
L 328.262519 91.569758 
L 330.986131 89.552067 
L 333.709743 92.045276 
L 336.433355 88.856587 
L 339.156967 79.077224 
L 341.880579 77.750797 
L 344.604191 74.726587 
L 347.327803 79.267149 
L 350.051415 78.778602 
L 352.775027 81.82525 
L 355.498639 83.151281 
L 358.222251 76.051884 
L 360.945863 80.931599 
L 363.669475 84.025817 
L 366.393086 89.953008 
L 369.116698 97.612356 
L 371.84031 93.60051 
L 374.563922 96.937146 
L 377.287534 99.703859 
L 380.011146 104.501188 
L 382.734758 107.923064 
L 385.45837 112.357626 
L 388.181982 107.174604 
L 390.905594 111.612052 
L 393.629206 107.659427 
L 396.352818 107.264584 
L 399.07643 95.173746 
L 401.800042 90.310092 
L 404.523654 91.811752 
L 407.247266 93.731372 
L 409.970878 93.248195 
L 412.69449 78.492391 
L 415.418102 76.511287 
L 418.141714 86.870102 
L 420.865326 92.558671 
L 423.588938 90.725092 
L 426.31255 85.471606 
L 429.036162 94.004128 
L 431.759773 91.119954 
L 434.483385 85.478507 
L 437.206997 88.8797 
L 439.930609 90.821253 
L 442.654221 90.821253 
L 445.377833 94.292657 
L 448.101445 96.189625 
L 450.825057 89.536473 
L 453.548669 86.014958 
L 456.272281 90.53841 
L 458.995893 92.58455 
L 461.719505 99.403963 
L 464.443117 94.807534 
L 467.166729 87.46467 
L 469.890341 82.006988 
L 469.890341 82.006988 
" clip-path="url(#pc32caae40d)" style="fill: none; stroke: #8c564b; stroke-width: 1.5; stroke-linecap: square"/>
   </g>
   <g id="patch_3">
    <path d="M 43.78125 299.518125 
L 43.78125 22.318125 
" style="fill: none; stroke: #000000; stroke-width: 0.8; stroke-linejoin: miter; stroke-linecap: square"/>
   </g>
   <g id="patch_4">
    <path d="M 490.18125 299.518125 
L 490.18125 22.318125 
" style="fill: none; stroke: #000000; stroke-width: 0.8; stroke-linejoin: miter; stroke-linecap: square"/>
   </g>
   <g id="patch_5">
    <path d="M 43.78125 299.518125 
L 490.18125 299.518125 
" style="fill: none; stroke: #000000; stroke-width: 0.8; stroke-linejoin: miter; stroke-linecap: square"/>
   </g>
   <g id="patch_6">
    <path d="M 43.78125 22.318125 
L 490.18125 22.318125 
" style="fill: none; stroke: #000000; stroke-width: 0.8; stroke-linejoin: miter; stroke-linecap: square"/>
   </g>
   <g id="text_18">
    <!-- Detection Ratio: SBM-5k-Med (Peak 80) -->
    <g transform="translate(148.821562 16.318125) scale(0.12 -0.12)">
     <defs>
      <path id="DejaVuSans-3a" d="M 750 794 
L 1409 794 
L 1409 0 
L 750 0 
L 750 794 
z
M 750 3309 
L 1409 3309 
L 1409 2516 
L 750 2516 
L 750 3309 
z
" transform="scale(0.015625)"/>
      <path id="DejaVuSans-42" d="M 1259 2228 
L 1259 519 
L 2272 519 
Q 2781 519 3026 730 
Q 3272 941 3272 1375 
Q 3272 1813 3026 2020 
Q 2781 2228 2272 2228 
L 1259 2228 
z
M 1259 4147 
L 1259 2741 
L 2194 2741 
Q 2656 2741 2882 2914 
Q 3109 3088 3109 3444 
Q 3109 3797 2882 3972 
Q 2656 4147 2194 4147 
L 1259 4147 
z
M 628 4666 
L 2241 4666 
Q 2963 4666 3353 4366 
Q 3744 4066 3744 3513 
Q 3744 3084 3544 2831 
Q 3344 2578 2956 2516 
Q 3422 2416 3680 2098 
Q 3938 1781 3938 1306 
Q 3938 681 3513 340 
Q 3088 0 2303 0 
L 628 0 
L 628 4666 
z
" transform="scale(0.015625)"/>
      <path id="DejaVuSans-4d" d="M 628 4666 
L 1569 4666 
L 2759 1491 
L 3956 4666 
L 4897 4666 
L 4897 0 
L 4281 0 
L 4281 4097 
L 3078 897 
L 2444 897 
L 1241 4097 
L 1241 0 
L 628 0 
L 628 4666 
z
" transform="scale(0.015625)"/>
      <path id="DejaVuSans-2d" d="M 313 2009 
L 1997 2009 
L 1997 1497 
L 313 1497 
L 313 2009 
z
" transform="scale(0.015625)"/>
      <path id="DejaVuSans-6b" d="M 581 4863 
L 1159 4863 
L 1159 1991 
L 2875 3500 
L 3609 3500 
L 1753 1863 
L 3688 0 
L 2938 0 
L 1159 1709 
L 1159 0 
L 581 0 
L 581 4863 
z
" transform="scale(0.015625)"/>
      <path id="DejaVuSans-64" d="M 2906 2969 
L 2906 4863 
L 3481 4863 
L 3481 0 
L 2906 0 
L 2906 525 
Q 2725 213 2448 61 
Q 2172 -91 1784 -91 
Q 1150 -91 751 415 
Q 353 922 353 1747 
Q 353 2572 751 3078 
Q 1150 3584 1784 3584 
Q 2172 3584 2448 3432 
Q 2725 3281 2906 2969 
z
M 947 1747 
Q 947 1113 1208 752 
Q 1469 391 1925 391 
Q 2381 391 2643 752 
Q 2906 1113 2906 1747 
Q 2906 2381 2643 2742 
Q 2381 3103 1925 3103 
Q 1469 3103 1208 2742 
Q 947 2381 947 1747 
z
" transform="scale(0.015625)"/>
      <path id="DejaVuSans-50" d="M 1259 4147 
L 1259 2394 
L 2053 2394 
Q 2494 2394 2734 2622 
Q 2975 2850 2975 3272 
Q 2975 3691 2734 3919 
Q 2494 4147 2053 4147 
L 1259 4147 
z
M 628 4666 
L 2053 4666 
Q 2838 4666 3239 4311 
Q 3641 3956 3641 3272 
Q 3641 2581 3239 2228 
Q 2838 1875 2053 1875 
L 1259 1875 
L 1259 0 
L 628 0 
L 628 4666 
z
" transform="scale(0.015625)"/>
     </defs>
     <use xlink:href="#DejaVuSans-44"/>
     <use xlink:href="#DejaVuSans-65" transform="translate(77.001953 0)"/>
     <use xlink:href="#DejaVuSans-74" transform="translate(138.525391 0)"/>
     <use xlink:href="#DejaVuSans-65" transform="translate(177.734375 0)"/>
     <use xlink:href="#DejaVuSans-63" transform="translate(239.257812 0)"/>
     <use xlink:href="#DejaVuSans-74" transform="translate(294.238281 0)"/>
     <use xlink:href="#DejaVuSans-69" transform="translate(333.447266 0)"/>
     <use xlink:href="#DejaVuSans-6f" transform="translate(361.230469 0)"/>
     <use xlink:href="#DejaVuSans-6e" transform="translate(422.412109 0)"/>
     <use xlink:href="#DejaVuSans-20" transform="translate(485.791016 0)"/>
     <use xlink:href="#DejaVuSans-52" transform="translate(517.578125 0)"/>
     <use xlink:href="#DejaVuSans-61" transform="translate(584.810547 0)"/>
     <use xlink:href="#DejaVuSans-74" transform="translate(646.089844 0)"/>
     <use xlink:href="#DejaVuSans-69" transform="translate(685.298828 0)"/>
     <use xlink:href="#DejaVuSans-6f" transform="translate(713.082031 0)"/>
     <use xlink:href="#DejaVuSans-3a" transform="translate(774.263672 0)"/>
     <use xlink:href="#DejaVuSans-20" transform="translate(807.955078 0)"/>
     <use xlink:href="#DejaVuSans-53" transform="translate(839.742188 0)"/>
     <use xlink:href="#DejaVuSans-42" transform="translate(903.21875 0)"/>
     <use xlink:href="#DejaVuSans-4d" transform="translate(971.822266 0)"/>
     <use xlink:href="#DejaVuSans-2d" transform="translate(1058.101562 0)"/>
     <use xlink:href="#DejaVuSans-35" transform="translate(1094.185547 0)"/>
     <use xlink:href="#DejaVuSans-6b" transform="translate(1157.808594 0)"/>
     <use xlink:href="#DejaVuSans-2d" transform="translate(1215.71875 0)"/>
     <use xlink:href="#DejaVuSans-4d" transform="translate(1251.802734 0)"/>
     <use xlink:href="#DejaVuSans-65" transform="translate(1338.082031 0)"/>
     <use xlink:href="#DejaVuSans-64" transform="translate(1399.605469 0)"/>
     <use xlink:href="#DejaVuSans-20" transform="translate(1463.082031 0)"/>
     <use xlink:href="#DejaVuSans-28" transform="translate(1494.869141 0)"/>
     <use xlink:href="#DejaVuSans-50" transform="translate(1533.882812 0)"/>
     <use xlink:href="#DejaVuSans-65" transform="translate(1590.560547 0)"/>
     <use xlink:href="#DejaVuSans-61" transform="translate(1652.083984 0)"/>
     <use xlink:href="#DejaVuSans-6b" transform="translate(1713.363281 0)"/>
     <use xlink:href="#DejaVuSans-20" transform="translate(1771.273438 0)"/>
     <use xlink:href="#DejaVuSans-38" transform="translate(1803.060547 0)"/>
     <use xlink:href="#DejaVuSans-30" transform="translate(1866.683594 0)"/>
     <use xlink:href="#DejaVuSans-29" transform="translate(1930.306641 0)"/>
    </g>
   </g>
   <g id="legend_1">
    <g id="patch_7">
     <path d="M 377.536406 295.018125 
L 483.88125 295.018125 
Q 485.68125 295.018125 485.68125 293.218125 
L 485.68125 214.85625 
Q 485.68125 213.05625 483.88125 213.05625 
L 377.536406 213.05625 
Q 375.736406 213.05625 375.736406 214.85625 
L 375.736406 293.218125 
Q 375.736406 295.018125 377.536406 295.018125 
z
" style="fill: #ffffff; opacity: 0.8; stroke: #cccccc; stroke-linejoin: miter"/>
    </g>
    <g id="line2d_37">
     <path d="M 379.336406 220.344844 
L 388.336406 220.344844 
L 397.336406 220.344844 
" style="fill: none; stroke: #1f77b4; stroke-width: 1.5; stroke-linecap: square"/>
    </g>
    <g id="text_19">
     <!-- LocalGNTS-14 -->
     <g transform="translate(404.536406 223.494844) scale(0.09 -0.09)">
      <defs>
       <path id="DejaVuSans-4c" d="M 628 4666 
L 1259 4666 
L 1259 531 
L 3531 531 
L 3531 0 
L 628 0 
L 628 4666 
z
" transform="scale(0.015625)"/>
       <path id="DejaVuSans-47" d="M 3809 666 
L 3809 1919 
L 2778 1919 
L 2778 2438 
L 4434 2438 
L 4434 434 
Q 4069 175 3628 42 
Q 3188 -91 2688 -91 
Q 1594 -91 976 548 
Q 359 1188 359 2328 
Q 359 3472 976 4111 
Q 1594 4750 2688 4750 
Q 3144 4750 3555 4637 
Q 3966 4525 4313 4306 
L 4313 3634 
Q 3963 3931 3569 4081 
Q 3175 4231 2741 4231 
Q 1884 4231 1454 3753 
Q 1025 3275 1025 2328 
Q 1025 1384 1454 906 
Q 1884 428 2741 428 
Q 3075 428 3337 486 
Q 3600 544 3809 666 
z
" transform="scale(0.015625)"/>
       <path id="DejaVuSans-4e" d="M 628 4666 
L 1478 4666 
L 3547 763 
L 3547 4666 
L 4159 4666 
L 4159 0 
L 3309 0 
L 1241 3903 
L 1241 0 
L 628 0 
L 628 4666 
z
" transform="scale(0.015625)"/>
       <path id="DejaVuSans-54" d="M -19 4666 
L 3928 4666 
L 3928 4134 
L 2272 4134 
L 2272 0 
L 1638 0 
L 1638 4134 
L -19 4134 
L -19 4666 
z
" transform="scale(0.015625)"/>
      </defs>
      <use xlink:href="#DejaVuSans-4c"/>
      <use xlink:href="#DejaVuSans-6f" transform="translate(53.962891 0)"/>
      <use xlink:href="#DejaVuSans-63" transform="translate(115.144531 0)"/>
      <use xlink:href="#DejaVuSans-61" transform="translate(170.125 0)"/>
      <use xlink:href="#DejaVuSans-6c" transform="translate(231.404297 0)"/>
      <use xlink:href="#DejaVuSans-47" transform="translate(259.1875 0)"/>
      <use xlink:href="#DejaVuSans-4e" transform="translate(336.677734 0)"/>
      <use xlink:href="#DejaVuSans-54" transform="translate(411.482422 0)"/>
      <use xlink:href="#DejaVuSans-53" transform="translate(472.566406 0)"/>
      <use xlink:href="#DejaVuSans-2d" transform="translate(536.042969 0)"/>
      <use xlink:href="#DejaVuSans-31" transform="translate(572.126953 0)"/>
      <use xlink:href="#DejaVuSans-34" transform="translate(635.75 0)"/>
     </g>
    </g>
    <g id="line2d_38">
     <path d="M 379.336406 233.555156 
L 388.336406 233.555156 
L 397.336406 233.555156 
" style="fill: none; stroke: #ff7f0e; stroke-width: 1.5; stroke-linecap: square"/>
    </g>
    <g id="text_20">
     <!-- GlobalGNTS-14 -->
     <g transform="translate(404.536406 236.705156) scale(0.09 -0.09)">
      <defs>
       <path id="DejaVuSans-62" d="M 3116 1747 
Q 3116 2381 2855 2742 
Q 2594 3103 2138 3103 
Q 1681 3103 1420 2742 
Q 1159 2381 1159 1747 
Q 1159 1113 1420 752 
Q 1681 391 2138 391 
Q 2594 391 2855 752 
Q 3116 1113 3116 1747 
z
M 1159 2969 
Q 1341 3281 1617 3432 
Q 1894 3584 2278 3584 
Q 2916 3584 3314 3078 
Q 3713 2572 3713 1747 
Q 3713 922 3314 415 
Q 2916 -91 2278 -91 
Q 1894 -91 1617 61 
Q 1341 213 1159 525 
L 1159 0 
L 581 0 
L 581 4863 
L 1159 4863 
L 1159 2969 
z
" transform="scale(0.015625)"/>
      </defs>
      <use xlink:href="#DejaVuSans-47"/>
      <use xlink:href="#DejaVuSans-6c" transform="translate(77.490234 0)"/>
      <use xlink:href="#DejaVuSans-6f" transform="translate(105.273438 0)"/>
      <use xlink:href="#DejaVuSans-62" transform="translate(166.455078 0)"/>
      <use xlink:href="#DejaVuSans-61" transform="translate(229.931641 0)"/>
      <use xlink:href="#DejaVuSans-6c" transform="translate(291.210938 0)"/>
      <use xlink:href="#DejaVuSans-47" transform="translate(318.994141 0)"/>
      <use xlink:href="#DejaVuSans-4e" transform="translate(396.484375 0)"/>
      <use xlink:href="#DejaVuSans-54" transform="translate(471.289062 0)"/>
      <use xlink:href="#DejaVuSans-53" transform="translate(532.373047 0)"/>
      <use xlink:href="#DejaVuSans-2d" transform="translate(595.849609 0)"/>
      <use xlink:href="#DejaVuSans-31" transform="translate(631.933594 0)"/>
      <use xlink:href="#DejaVuSans-34" transform="translate(695.556641 0)"/>
     </g>
    </g>
    <g id="line2d_39">
     <path d="M 379.336406 246.765469 
L 388.336406 246.765469 
L 397.336406 246.765469 
" style="fill: none; stroke: #2ca02c; stroke-width: 1.5; stroke-linecap: square"/>
    </g>
    <g id="text_21">
     <!-- Beta-Binomial-14 -->
     <g transform="translate(404.536406 249.915469) scale(0.09 -0.09)">
      <use xlink:href="#DejaVuSans-42"/>
      <use xlink:href="#DejaVuSans-65" transform="translate(68.603516 0)"/>
      <use xlink:href="#DejaVuSans-74" transform="translate(130.126953 0)"/>
      <use xlink:href="#DejaVuSans-61" transform="translate(169.335938 0)"/>
      <use xlink:href="#DejaVuSans-2d" transform="translate(230.615234 0)"/>
      <use xlink:href="#DejaVuSans-42" transform="translate(263.074219 0)"/>
      <use xlink:href="#DejaVuSans-69" transform="translate(331.677734 0)"/>
      <use xlink:href="#DejaVuSans-6e" transform="translate(359.460938 0)"/>
      <use xlink:href="#DejaVuSans-6f" transform="translate(422.839844 0)"/>
      <use xlink:href="#DejaVuSans-6d" transform="translate(484.021484 0)"/>
      <use xlink:href="#DejaVuSans-69" transform="translate(581.433594 0)"/>
      <use xlink:href="#DejaVuSans-61" transform="translate(609.216797 0)"/>
      <use xlink:href="#DejaVuSans-6c" transform="translate(670.496094 0)"/>
      <use xlink:href="#DejaVuSans-2d" transform="translate(698.279297 0)"/>
      <use xlink:href="#DejaVuSans-31" transform="translate(734.363281 0)"/>
      <use xlink:href="#DejaVuSans-34" transform="translate(797.986328 0)"/>
     </g>
    </g>
    <g id="line2d_40">
     <path d="M 379.336406 259.975781 
L 388.336406 259.975781 
L 397.336406 259.975781 
" style="fill: none; stroke: #d62728; stroke-width: 1.5; stroke-linecap: square"/>
    </g>
    <g id="text_22">
     <!-- Proportional -->
     <g transform="translate(404.536406 263.125781) scale(0.09 -0.09)">
      <defs>
       <path id="DejaVuSans-72" d="M 2631 2963 
Q 2534 3019 2420 3045 
Q 2306 3072 2169 3072 
Q 1681 3072 1420 2755 
Q 1159 2438 1159 1844 
L 1159 0 
L 581 0 
L 581 3500 
L 1159 3500 
L 1159 2956 
Q 1341 3275 1631 3429 
Q 1922 3584 2338 3584 
Q 2397 3584 2469 3576 
Q 2541 3569 2628 3553 
L 2631 2963 
z
" transform="scale(0.015625)"/>
       <path id="DejaVuSans-70" d="M 1159 525 
L 1159 -1331 
L 581 -1331 
L 581 3500 
L 1159 3500 
L 1159 2969 
Q 1341 3281 1617 3432 
Q 1894 3584 2278 3584 
Q 2916 3584 3314 3078 
Q 3713 2572 3713 1747 
Q 3713 922 3314 415 
Q 2916 -91 2278 -91 
Q 1894 -91 1617 61 
Q 1341 213 1159 525 
z
M 3116 1747 
Q 3116 2381 2855 2742 
Q 2594 3103 2138 3103 
Q 1681 3103 1420 2742 
Q 1159 2381 1159 1747 
Q 1159 1113 1420 752 
Q 1681 391 2138 391 
Q 2594 391 2855 752 
Q 3116 1113 3116 1747 
z
" transform="scale(0.015625)"/>
      </defs>
      <use xlink:href="#DejaVuSans-50"/>
      <use xlink:href="#DejaVuSans-72" transform="translate(58.552734 0)"/>
      <use xlink:href="#DejaVuSans-6f" transform="translate(97.416016 0)"/>
      <use xlink:href="#DejaVuSans-70" transform="translate(158.597656 0)"/>
      <use xlink:href="#DejaVuSans-6f" transform="translate(222.074219 0)"/>
      <use xlink:href="#DejaVuSans-72" transform="translate(283.255859 0)"/>
      <use xlink:href="#DejaVuSans-74" transform="translate(324.369141 0)"/>
      <use xlink:href="#DejaVuSans-69" transform="translate(363.578125 0)"/>
      <use xlink:href="#DejaVuSans-6f" transform="translate(391.361328 0)"/>
      <use xlink:href="#DejaVuSans-6e" transform="translate(452.542969 0)"/>
      <use xlink:href="#DejaVuSans-61" transform="translate(515.921875 0)"/>
      <use xlink:href="#DejaVuSans-6c" transform="translate(577.201172 0)"/>
     </g>
    </g>
    <g id="line2d_41">
     <path d="M 379.336406 273.186094 
L 388.336406 273.186094 
L 397.336406 273.186094 
" style="fill: none; stroke: #9467bd; stroke-width: 1.5; stroke-linecap: square"/>
    </g>
    <g id="text_23">
     <!-- Uniform -->
     <g transform="translate(404.536406 276.336094) scale(0.09 -0.09)">
      <defs>
       <path id="DejaVuSans-55" d="M 556 4666 
L 1191 4666 
L 1191 1831 
Q 1191 1081 1462 751 
Q 1734 422 2344 422 
Q 2950 422 3222 751 
Q 3494 1081 3494 1831 
L 3494 4666 
L 4128 4666 
L 4128 1753 
Q 4128 841 3676 375 
Q 3225 -91 2344 -91 
Q 1459 -91 1007 375 
Q 556 841 556 1753 
L 556 4666 
z
" transform="scale(0.015625)"/>
      </defs>
      <use xlink:href="#DejaVuSans-55"/>
      <use xlink:href="#DejaVuSans-6e" transform="translate(73.193359 0)"/>
      <use xlink:href="#DejaVuSans-69" transform="translate(136.572266 0)"/>
      <use xlink:href="#DejaVuSans-66" transform="translate(164.355469 0)"/>
      <use xlink:href="#DejaVuSans-6f" transform="translate(199.560547 0)"/>
      <use xlink:href="#DejaVuSans-72" transform="translate(260.742188 0)"/>
      <use xlink:href="#DejaVuSans-6d" transform="translate(300.105469 0)"/>
     </g>
    </g>
    <g id="line2d_42">
     <path d="M 379.336406 286.396406 
L 388.336406 286.396406 
L 397.336406 286.396406 
" style="fill: none; stroke: #8c564b; stroke-width: 1.5; stroke-linecap: square"/>
    </g>
    <g id="text_24">
     <!-- Random -->
     <g transform="translate(404.536406 289.546406) scale(0.09 -0.09)">
      <use xlink:href="#DejaVuSans-52"/>
      <use xlink:href="#DejaVuSans-61" transform="translate(67.232422 0)"/>
      <use xlink:href="#DejaVuSans-6e" transform="translate(128.511719 0)"/>
      <use xlink:href="#DejaVuSans-64" transform="translate(191.890625 0)"/>
      <use xlink:href="#DejaVuSans-6f" transform="translate(255.367188 0)"/>
      <use xlink:href="#DejaVuSans-6d" transform="translate(316.548828 0)"/>
     </g>
    </g>
   </g>
  </g>
 </g>
 <defs>
  <clipPath id="pc32caae40d">
   <rect x="43.78125" y="22.318125" width="446.4" height="277.2"/>
  </clipPath>
 </defs>
</svg>
