<?xml version="1.0" encoding="utf-8" standalone="no"?>
<!DOCTYPE svg PUBLIC "-//W3C//DTD SVG 1.1//EN"
  "http://www.w3.org/Graphics/SVG/1.1/DTD/svg11.dtd">
<svg xmlns:xlink="http://www.w3.org/1999/xlink" width="497.38125pt" height="337.074375pt" viewBox="0 0 497.38125 337.074375" xmlns="http://www.w3.org/2000/svg" version="1.1">
 <metadata>
  <rdf:RDF xmlns:dc="http://purl.org/dc/elements/1.1/" xmlns:cc="http://creativecommons.org/ns#" xmlns:rdf="http://www.w3.org/1999/02/22-rdf-syntax-ns#">
   <cc:Work>
    <dc:type rdf:resource="http://purl.org/dc/dcmitype/StillImage"/>
    <dc:date>2026-07-01T09:39:57.362253</dc:date>
    <dc:format>image/svg+xml</dc:format>
    <dc:creator>
     <cc:Agent>
      <dc:title>Matplotlib v3.10.8, https://matplotlib.org/</dc:title>
     </cc:Agent>
    </dc:creator>
   </cc:Work>
  </rdf:RDF>
 </metadata>
 <defs>
  <style type="text/css">*{stroke-linejoin: round; stroke-linecap: butt}</style>
 </defs>
 <g id="figure_1">
  <g id="patch_1">
   <path d="M 0 337.074375 
L 497.38125 337.074375 
L 497.38125 0 
L 0 0 
z
" style="fill: #ffffff"/>
  </g>
  <g id="axes_1">
   <g id="patch_2">
    <path d="M 43.78125 299.518125 
L 490.18125 299.518125 
L 490.18125 22.318125 
L 43.78125 22.318125 
z
" style="fill: #ffffff"/>
   </g>
   <g id="matplotlib.axis_1">
    <g id="xtick_1">
     <g id="line2d_1">
      <path d="M 64.072159 299.518125 
L 64.072159 22.318125 
" clip-path="url(#p01e85f458b)" style="fill: none; stroke-dasharray: 1.85,0.8; stroke-dashoffset: 0; stroke: #b0b0b0; stroke-opacity: 0.6; stroke-width: 0.5"/>
     </g>
     <g id="line2d_2">
      <defs>
       <path id="m7dd66a4de3" d="M 0 0 
L 0 3.5 
" style="stroke: #000000; stroke-width: 0.8"/>
      </defs>
      <g>
       <use xlink:href="#m7dd66a4de3" x="64.072159" y="299.518125" style="stroke: #000000; stroke-width: 0.8"/>
      </g>
     </g>
     <g id="text_1">
      <!-- 0 -->
      <g transform="translate(60.890909 314.116563) scale(0.1 -0.1)">
       <defs>
        <path id="DejaVuSans-30" d="M 2034 4250 
Q 1547 4250 1301 3770 
Q 1056 3291 1056 2328 
Q 1056 1369 1301 889 
Q 1547 409 2034 409 
Q 2525 409 2770 889 
Q 3016 1369 3016 2328 
Q 3016 3291 2770 3770 
Q 2525 4250 2034 4250 
z
M 2034 4750 
Q 2819 4750 3233 4129 
Q 3647 3509 3647 2328 
Q 3647 1150 3233 529 
Q 2819 -91 2034 -91 
Q 1250 -91 836 529 
Q 422 1150 422 2328 
Q 422 3509 836 4129 
Q 1250 4750 2034 4750 
z
" transform="scale(0.015625)"/>
       </defs>
       <use xlink:href="#DejaVuSans-30"/>
      </g>
     </g>
    </g>
    <g id="xtick_2">
     <g id="line2d_3">
      <path d="M 115.054343 299.518125 
L 115.054343 22.318125 
" clip-path="url(#p01e85f458b)" style="fill: none; stroke-dasharray: 1.85,0.8; stroke-dashoffset: 0; stroke: #b0b0b0; stroke-opacity: 0.6; stroke-width: 0.5"/>
     </g>
     <g id="line2d_4">
      <g>
       <use xlink:href="#m7dd66a4de3" x="115.054343" y="299.518125" style="stroke: #000000; stroke-width: 0.8"/>
      </g>
     </g>
     <g id="text_2">
      <!-- 25 -->
      <g transform="translate(108.691843 314.116563) scale(0.1 -0.1)">
       <defs>
        <path id="DejaVuSans-32" d="M 1228 531 
L 3431 531 
L 3431 0 
L 469 0 
L 469 531 
Q 828 903 1448 1529 
Q 2069 2156 2228 2338 
Q 2531 2678 2651 2914 
Q 2772 3150 2772 3378 
Q 2772 3750 2511 3984 
Q 2250 4219 1831 4219 
Q 1534 4219 1204 4116 
Q 875 4013 500 3803 
L 500 4441 
Q 881 4594 1212 4672 
Q 1544 4750 1819 4750 
Q 2544 4750 2975 4387 
Q 3406 4025 3406 3419 
Q 3406 3131 3298 2873 
Q 3191 2616 2906 2266 
Q 2828 2175 2409 1742 
Q 1991 1309 1228 531 
z
" transform="scale(0.015625)"/>
        <path id="DejaVuSans-35" d="M 691 4666 
L 3169 4666 
L 3169 4134 
L 1269 4134 
L 1269 2991 
Q 1406 3038 1543 3061 
Q 1681 3084 1819 3084 
Q 2600 3084 3056 2656 
Q 3513 2228 3513 1497 
Q 3513 744 3044 326 
Q 2575 -91 1722 -91 
Q 1428 -91 1123 -41 
Q 819 9 494 109 
L 494 744 
Q 775 591 1075 516 
Q 1375 441 1709 441 
Q 2250 441 2565 725 
Q 2881 1009 2881 1497 
Q 2881 1984 2565 2268 
Q 2250 2553 1709 2553 
Q 1456 2553 1204 2497 
Q 953 2441 691 2322 
L 691 4666 
z
" transform="scale(0.015625)"/>
       </defs>
       <use xlink:href="#DejaVuSans-32"/>
       <use xlink:href="#DejaVuSans-35" transform="translate(63.623047 0)"/>
      </g>
     </g>
    </g>
    <g id="xtick_3">
     <g id="line2d_5">
      <path d="M 166.036526 299.518125 
L 166.036526 22.318125 
" clip-path="url(#p01e85f458b)" style="fill: none; stroke-dasharray: 1.85,0.8; stroke-dashoffset: 0; stroke: #b0b0b0; stroke-opacity: 0.6; stroke-width: 0.5"/>
     </g>
     <g id="line2d_6">
      <g>
       <use xlink:href="#m7dd66a4de3" x="166.036526" y="299.518125" style="stroke: #000000; stroke-width: 0.8"/>
      </g>
     </g>
     <g id="text_3">
      <!-- 50 -->
      <g transform="translate(159.674026 314.116563) scale(0.1 -0.1)">
       <use xlink:href="#DejaVuSans-35"/>
       <use xlink:href="#DejaVuSans-30" transform="translate(63.623047 0)"/>
      </g>
     </g>
    </g>
    <g id="xtick_4">
     <g id="line2d_7">
      <path d="M 217.01871 299.518125 
L 217.01871 22.318125 
" clip-path="url(#p01e85f458b)" style="fill: none; stroke-dasharray: 1.85,0.8; stroke-dashoffset: 0; stroke: #b0b0b0; stroke-opacity: 0.6; stroke-width: 0.5"/>
     </g>
     <g id="line2d_8">
      <g>
       <use xlink:href="#m7dd66a4de3" x="217.01871" y="299.518125" style="stroke: #000000; stroke-width: 0.8"/>
      </g>
     </g>
     <g id="text_4">
      <!-- 75 -->
      <g transform="translate(210.65621 314.116563) scale(0.1 -0.1)">
       <defs>
        <path id="DejaVuSans-37" d="M 525 4666 
L 3525 4666 
L 3525 4397 
L 1831 0 
L 1172 0 
L 2766 4134 
L 525 4134 
L 525 4666 
z
" transform="scale(0.015625)"/>
       </defs>
       <use xlink:href="#DejaVuSans-37"/>
       <use xlink:href="#DejaVuSans-35" transform="translate(63.623047 0)"/>
      </g>
     </g>
    </g>
    <g id="xtick_5">
     <g id="line2d_9">
      <path d="M 268.000894 299.518125 
L 268.000894 22.318125 
" clip-path="url(#p01e85f458b)" style="fill: none; stroke-dasharray: 1.85,0.8; stroke-dashoffset: 0; stroke: #b0b0b0; stroke-opacity: 0.6; stroke-width: 0.5"/>
     </g>
     <g id="line2d_10">
      <g>
       <use xlink:href="#m7dd66a4de3" x="268.000894" y="299.518125" style="stroke: #000000; stroke-width: 0.8"/>
      </g>
     </g>
     <g id="text_5">
      <!-- 100 -->
      <g transform="translate(258.457144 314.116563) scale(0.1 -0.1)">
       <defs>
        <path id="DejaVuSans-31" d="M 794 531 
L 1825 531 
L 1825 4091 
L 703 3866 
L 703 4441 
L 1819 4666 
L 2450 4666 
L 2450 531 
L 3481 531 
L 3481 0 
L 794 0 
L 794 531 
z
" transform="scale(0.015625)"/>
       </defs>
       <use xlink:href="#DejaVuSans-31"/>
       <use xlink:href="#DejaVuSans-30" transform="translate(63.623047 0)"/>
       <use xlink:href="#DejaVuSans-30" transform="translate(127.246094 0)"/>
      </g>
     </g>
    </g>
    <g id="xtick_6">
     <g id="line2d_11">
      <path d="M 318.983077 299.518125 
L 318.983077 22.318125 
" clip-path="url(#p01e85f458b)" style="fill: none; stroke-dasharray: 1.85,0.8; stroke-dashoffset: 0; stroke: #b0b0b0; stroke-opacity: 0.6; stroke-width: 0.5"/>
     </g>
     <g id="line2d_12">
      <g>
       <use xlink:href="#m7dd66a4de3" x="318.983077" y="299.518125" style="stroke: #000000; stroke-width: 0.8"/>
      </g>
     </g>
     <g id="text_6">
      <!-- 125 -->
      <g transform="translate(309.439327 314.116563) scale(0.1 -0.1)">
       <use xlink:href="#DejaVuSans-31"/>
       <use xlink:href="#DejaVuSans-32" transform="translate(63.623047 0)"/>
       <use xlink:href="#DejaVuSans-35" transform="translate(127.246094 0)"/>
      </g>
     </g>
    </g>
    <g id="xtick_7">
     <g id="line2d_13">
      <path d="M 369.965261 299.518125 
L 369.965261 22.318125 
" clip-path="url(#p01e85f458b)" style="fill: none; stroke-dasharray: 1.85,0.8; stroke-dashoffset: 0; stroke: #b0b0b0; stroke-opacity: 0.6; stroke-width: 0.5"/>
     </g>
     <g id="line2d_14">
      <g>
       <use xlink:href="#m7dd66a4de3" x="369.965261" y="299.518125" style="stroke: #000000; stroke-width: 0.8"/>
      </g>
     </g>
     <g id="text_7">
      <!-- 150 -->
      <g transform="translate(360.421511 314.116563) scale(0.1 -0.1)">
       <use xlink:href="#DejaVuSans-31"/>
       <use xlink:href="#DejaVuSans-35" transform="translate(63.623047 0)"/>
       <use xlink:href="#DejaVuSans-30" transform="translate(127.246094 0)"/>
      </g>
     </g>
    </g>
    <g id="xtick_8">
     <g id="line2d_15">
      <path d="M 420.947445 299.518125 
L 420.947445 22.318125 
" clip-path="url(#p01e85f458b)" style="fill: none; stroke-dasharray: 1.85,0.8; stroke-dashoffset: 0; stroke: #b0b0b0; stroke-opacity: 0.6; stroke-width: 0.5"/>
     </g>
     <g id="line2d_16">
      <g>
       <use xlink:href="#m7dd66a4de3" x="420.947445" y="299.518125" style="stroke: #000000; stroke-width: 0.8"/>
      </g>
     </g>
     <g id="text_8">
      <!-- 175 -->
      <g transform="translate(411.403695 314.116563) scale(0.1 -0.1)">
       <use xlink:href="#DejaVuSans-31"/>
       <use xlink:href="#DejaVuSans-37" transform="translate(63.623047 0)"/>
       <use xlink:href="#DejaVuSans-35" transform="translate(127.246094 0)"/>
      </g>
     </g>
    </g>
    <g id="xtick_9">
     <g id="line2d_17">
      <path d="M 471.929628 299.518125 
L 471.929628 22.318125 
" clip-path="url(#p01e85f458b)" style="fill: none; stroke-dasharray: 1.85,0.8; stroke-dashoffset: 0; stroke: #b0b0b0; stroke-opacity: 0.6; stroke-width: 0.5"/>
     </g>
     <g id="line2d_18">
      <g>
       <use xlink:href="#m7dd66a4de3" x="471.929628" y="299.518125" style="stroke: #000000; stroke-width: 0.8"/>
      </g>
     </g>
     <g id="text_9">
      <!-- 200 -->
      <g transform="translate(462.385878 314.116563) scale(0.1 -0.1)">
       <use xlink:href="#DejaVuSans-32"/>
       <use xlink:href="#DejaVuSans-30" transform="translate(63.623047 0)"/>
       <use xlink:href="#DejaVuSans-30" transform="translate(127.246094 0)"/>
      </g>
     </g>
    </g>
    <g id="text_10">
     <!-- Simulation Day -->
     <g transform="translate(228.885937 327.794688) scale(0.1 -0.1)">
      <defs>
       <path id="DejaVuSans-53" d="M 3425 4513 
L 3425 3897 
Q 3066 4069 2747 4153 
Q 2428 4238 2131 4238 
Q 1616 4238 1336 4038 
Q 1056 3838 1056 3469 
Q 1056 3159 1242 3001 
Q 1428 2844 1947 2747 
L 2328 2669 
Q 3034 2534 3370 2195 
Q 3706 1856 3706 1288 
Q 3706 609 3251 259 
Q 2797 -91 1919 -91 
Q 1588 -91 1214 -16 
Q 841 59 441 206 
L 441 856 
Q 825 641 1194 531 
Q 1563 422 1919 422 
Q 2459 422 2753 634 
Q 3047 847 3047 1241 
Q 3047 1584 2836 1778 
Q 2625 1972 2144 2069 
L 1759 2144 
Q 1053 2284 737 2584 
Q 422 2884 422 3419 
Q 422 4038 858 4394 
Q 1294 4750 2059 4750 
Q 2388 4750 2728 4690 
Q 3069 4631 3425 4513 
z
" transform="scale(0.015625)"/>
       <path id="DejaVuSans-69" d="M 603 3500 
L 1178 3500 
L 1178 0 
L 603 0 
L 603 3500 
z
M 603 4863 
L 1178 4863 
L 1178 4134 
L 603 4134 
L 603 4863 
z
" transform="scale(0.015625)"/>
       <path id="DejaVuSans-6d" d="M 3328 2828 
Q 3544 3216 3844 3400 
Q 4144 3584 4550 3584 
Q 5097 3584 5394 3201 
Q 5691 2819 5691 2113 
L 5691 0 
L 5113 0 
L 5113 2094 
Q 5113 2597 4934 2840 
Q 4756 3084 4391 3084 
Q 3944 3084 3684 2787 
Q 3425 2491 3425 1978 
L 3425 0 
L 2847 0 
L 2847 2094 
Q 2847 2600 2669 2842 
Q 2491 3084 2119 3084 
Q 1678 3084 1418 2786 
Q 1159 2488 1159 1978 
L 1159 0 
L 581 0 
L 581 3500 
L 1159 3500 
L 1159 2956 
Q 1356 3278 1631 3431 
Q 1906 3584 2284 3584 
Q 2666 3584 2933 3390 
Q 3200 3197 3328 2828 
z
" transform="scale(0.015625)"/>
       <path id="DejaVuSans-75" d="M 544 1381 
L 544 3500 
L 1119 3500 
L 1119 1403 
Q 1119 906 1312 657 
Q 1506 409 1894 409 
Q 2359 409 2629 706 
Q 2900 1003 2900 1516 
L 2900 3500 
L 3475 3500 
L 3475 0 
L 2900 0 
L 2900 538 
Q 2691 219 2414 64 
Q 2138 -91 1772 -91 
Q 1169 -91 856 284 
Q 544 659 544 1381 
z
M 1991 3584 
L 1991 3584 
z
" transform="scale(0.015625)"/>
       <path id="DejaVuSans-6c" d="M 603 4863 
L 1178 4863 
L 1178 0 
L 603 0 
L 603 4863 
z
" transform="scale(0.015625)"/>
       <path id="DejaVuSans-61" d="M 2194 1759 
Q 1497 1759 1228 1600 
Q 959 1441 959 1056 
Q 959 750 1161 570 
Q 1363 391 1709 391 
Q 2188 391 2477 730 
Q 2766 1069 2766 1631 
L 2766 1759 
L 2194 1759 
z
M 3341 1997 
L 3341 0 
L 2766 0 
L 2766 531 
Q 2569 213 2275 61 
Q 1981 -91 1556 -91 
Q 1019 -91 701 211 
Q 384 513 384 1019 
Q 384 1609 779 1909 
Q 1175 2209 1959 2209 
L 2766 2209 
L 2766 2266 
Q 2766 2663 2505 2880 
Q 2244 3097 1772 3097 
Q 1472 3097 1187 3025 
Q 903 2953 641 2809 
L 641 3341 
Q 956 3463 1253 3523 
Q 1550 3584 1831 3584 
Q 2591 3584 2966 3190 
Q 3341 2797 3341 1997 
z
" transform="scale(0.015625)"/>
       <path id="DejaVuSans-74" d="M 1172 4494 
L 1172 3500 
L 2356 3500 
L 2356 3053 
L 1172 3053 
L 1172 1153 
Q 1172 725 1289 603 
Q 1406 481 1766 481 
L 2356 481 
L 2356 0 
L 1766 0 
Q 1100 0 847 248 
Q 594 497 594 1153 
L 594 3053 
L 172 3053 
L 172 3500 
L 594 3500 
L 594 4494 
L 1172 4494 
z
" transform="scale(0.015625)"/>
       <path id="DejaVuSans-6f" d="M 1959 3097 
Q 1497 3097 1228 2736 
Q 959 2375 959 1747 
Q 959 1119 1226 758 
Q 1494 397 1959 397 
Q 2419 397 2687 759 
Q 2956 1122 2956 1747 
Q 2956 2369 2687 2733 
Q 2419 3097 1959 3097 
z
M 1959 3584 
Q 2709 3584 3137 3096 
Q 3566 2609 3566 1747 
Q 3566 888 3137 398 
Q 2709 -91 1959 -91 
Q 1206 -91 779 398 
Q 353 888 353 1747 
Q 353 2609 779 3096 
Q 1206 3584 1959 3584 
z
" transform="scale(0.015625)"/>
       <path id="DejaVuSans-6e" d="M 3513 2113 
L 3513 0 
L 2938 0 
L 2938 2094 
Q 2938 2591 2744 2837 
Q 2550 3084 2163 3084 
Q 1697 3084 1428 2787 
Q 1159 2491 1159 1978 
L 1159 0 
L 581 0 
L 581 3500 
L 1159 3500 
L 1159 2956 
Q 1366 3272 1645 3428 
Q 1925 3584 2291 3584 
Q 2894 3584 3203 3211 
Q 3513 2838 3513 2113 
z
" transform="scale(0.015625)"/>
       <path id="DejaVuSans-20" transform="scale(0.015625)"/>
       <path id="DejaVuSans-44" d="M 1259 4147 
L 1259 519 
L 2022 519 
Q 2988 519 3436 956 
Q 3884 1394 3884 2338 
Q 3884 3275 3436 3711 
Q 2988 4147 2022 4147 
L 1259 4147 
z
M 628 4666 
L 1925 4666 
Q 3281 4666 3915 4102 
Q 4550 3538 4550 2338 
Q 4550 1131 3912 565 
Q 3275 0 1925 0 
L 628 0 
L 628 4666 
z
" transform="scale(0.015625)"/>
       <path id="DejaVuSans-79" d="M 2059 -325 
Q 1816 -950 1584 -1140 
Q 1353 -1331 966 -1331 
L 506 -1331 
L 506 -850 
L 844 -850 
Q 1081 -850 1212 -737 
Q 1344 -625 1503 -206 
L 1606 56 
L 191 3500 
L 800 3500 
L 1894 763 
L 2988 3500 
L 3597 3500 
L 2059 -325 
z
" transform="scale(0.015625)"/>
      </defs>
      <use xlink:href="#DejaVuSans-53"/>
      <use xlink:href="#DejaVuSans-69" transform="translate(63.476562 0)"/>
      <use xlink:href="#DejaVuSans-6d" transform="translate(91.259766 0)"/>
      <use xlink:href="#DejaVuSans-75" transform="translate(188.671875 0)"/>
      <use xlink:href="#DejaVuSans-6c" transform="translate(252.050781 0)"/>
      <use xlink:href="#DejaVuSans-61" transform="translate(279.833984 0)"/>
      <use xlink:href="#DejaVuSans-74" transform="translate(341.113281 0)"/>
      <use xlink:href="#DejaVuSans-69" transform="translate(380.322266 0)"/>
      <use xlink:href="#DejaVuSans-6f" transform="translate(408.105469 0)"/>
      <use xlink:href="#DejaVuSans-6e" transform="translate(469.287109 0)"/>
      <use xlink:href="#DejaVuSans-20" transform="translate(532.666016 0)"/>
      <use xlink:href="#DejaVuSans-44" transform="translate(564.453125 0)"/>
      <use xlink:href="#DejaVuSans-61" transform="translate(641.455078 0)"/>
      <use xlink:href="#DejaVuSans-79" transform="translate(702.734375 0)"/>
     </g>
    </g>
   </g>
   <g id="matplotlib.axis_2">
    <g id="ytick_1">
     <g id="line2d_19">
      <path d="M 43.78125 286.918125 
L 490.18125 286.918125 
" clip-path="url(#p01e85f458b)" style="fill: none; stroke-dasharray: 1.85,0.8; stroke-dashoffset: 0; stroke: #b0b0b0; stroke-opacity: 0.6; stroke-width: 0.5"/>
     </g>
     <g id="line2d_20">
      <defs>
       <path id="md0e0eb005c" d="M 0 0 
L -3.5 0 
" style="stroke: #000000; stroke-width: 0.8"/>
      </defs>
      <g>
       <use xlink:href="#md0e0eb005c" x="43.78125" y="286.918125" style="stroke: #000000; stroke-width: 0.8"/>
      </g>
     </g>
     <g id="text_11">
      <!-- 0.0 -->
      <g transform="translate(20.878125 290.717344) scale(0.1 -0.1)">
       <defs>
        <path id="DejaVuSans-2e" d="M 684 794 
L 1344 794 
L 1344 0 
L 684 0 
L 684 794 
z
" transform="scale(0.015625)"/>
       </defs>
       <use xlink:href="#DejaVuSans-30"/>
       <use xlink:href="#DejaVuSans-2e" transform="translate(63.623047 0)"/>
       <use xlink:href="#DejaVuSans-30" transform="translate(95.410156 0)"/>
      </g>
     </g>
    </g>
    <g id="ytick_2">
     <g id="line2d_21">
      <path d="M 43.78125 252.90863 
L 490.18125 252.90863 
" clip-path="url(#p01e85f458b)" style="fill: none; stroke-dasharray: 1.85,0.8; stroke-dashoffset: 0; stroke: #b0b0b0; stroke-opacity: 0.6; stroke-width: 0.5"/>
     </g>
     <g id="line2d_22">
      <g>
       <use xlink:href="#md0e0eb005c" x="43.78125" y="252.90863" style="stroke: #000000; stroke-width: 0.8"/>
      </g>
     </g>
     <g id="text_12">
      <!-- 0.1 -->
      <g transform="translate(20.878125 256.707848) scale(0.1 -0.1)">
       <use xlink:href="#DejaVuSans-30"/>
       <use xlink:href="#DejaVuSans-2e" transform="translate(63.623047 0)"/>
       <use xlink:href="#DejaVuSans-31" transform="translate(95.410156 0)"/>
      </g>
     </g>
    </g>
    <g id="ytick_3">
     <g id="line2d_23">
      <path d="M 43.78125 218.899134 
L 490.18125 218.899134 
" clip-path="url(#p01e85f458b)" style="fill: none; stroke-dasharray: 1.85,0.8; stroke-dashoffset: 0; stroke: #b0b0b0; stroke-opacity: 0.6; stroke-width: 0.5"/>
     </g>
     <g id="line2d_24">
      <g>
       <use xlink:href="#md0e0eb005c" x="43.78125" y="218.899134" style="stroke: #000000; stroke-width: 0.8"/>
      </g>
     </g>
     <g id="text_13">
      <!-- 0.2 -->
      <g transform="translate(20.878125 222.698353) scale(0.1 -0.1)">
       <use xlink:href="#DejaVuSans-30"/>
       <use xlink:href="#DejaVuSans-2e" transform="translate(63.623047 0)"/>
       <use xlink:href="#DejaVuSans-32" transform="translate(95.410156 0)"/>
      </g>
     </g>
    </g>
    <g id="ytick_4">
     <g id="line2d_25">
      <path d="M 43.78125 184.889639 
L 490.18125 184.889639 
" clip-path="url(#p01e85f458b)" style="fill: none; stroke-dasharray: 1.85,0.8; stroke-dashoffset: 0; stroke: #b0b0b0; stroke-opacity: 0.6; stroke-width: 0.5"/>
     </g>
     <g id="line2d_26">
      <g>
       <use xlink:href="#md0e0eb005c" x="43.78125" y="184.889639" style="stroke: #000000; stroke-width: 0.8"/>
      </g>
     </g>
     <g id="text_14">
      <!-- 0.3 -->
      <g transform="translate(20.878125 188.688858) scale(0.1 -0.1)">
       <defs>
        <path id="DejaVuSans-33" d="M 2597 2516 
Q 3050 2419 3304 2112 
Q 3559 1806 3559 1356 
Q 3559 666 3084 287 
Q 2609 -91 1734 -91 
Q 1441 -91 1130 -33 
Q 819 25 488 141 
L 488 750 
Q 750 597 1062 519 
Q 1375 441 1716 441 
Q 2309 441 2620 675 
Q 2931 909 2931 1356 
Q 2931 1769 2642 2001 
Q 2353 2234 1838 2234 
L 1294 2234 
L 1294 2753 
L 1863 2753 
Q 2328 2753 2575 2939 
Q 2822 3125 2822 3475 
Q 2822 3834 2567 4026 
Q 2313 4219 1838 4219 
Q 1578 4219 1281 4162 
Q 984 4106 628 3988 
L 628 4550 
Q 988 4650 1302 4700 
Q 1616 4750 1894 4750 
Q 2613 4750 3031 4423 
Q 3450 4097 3450 3541 
Q 3450 3153 3228 2886 
Q 3006 2619 2597 2516 
z
" transform="scale(0.015625)"/>
       </defs>
       <use xlink:href="#DejaVuSans-30"/>
       <use xlink:href="#DejaVuSans-2e" transform="translate(63.623047 0)"/>
       <use xlink:href="#DejaVuSans-33" transform="translate(95.410156 0)"/>
      </g>
     </g>
    </g>
    <g id="ytick_5">
     <g id="line2d_27">
      <path d="M 43.78125 150.880143 
L 490.18125 150.880143 
" clip-path="url(#p01e85f458b)" style="fill: none; stroke-dasharray: 1.85,0.8; stroke-dashoffset: 0; stroke: #b0b0b0; stroke-opacity: 0.6; stroke-width: 0.5"/>
     </g>
     <g id="line2d_28">
      <g>
       <use xlink:href="#md0e0eb005c" x="43.78125" y="150.880143" style="stroke: #000000; stroke-width: 0.8"/>
      </g>
     </g>
     <g id="text_15">
      <!-- 0.4 -->
      <g transform="translate(20.878125 154.679362) scale(0.1 -0.1)">
       <defs>
        <path id="DejaVuSans-34" d="M 2419 4116 
L 825 1625 
L 2419 1625 
L 2419 4116 
z
M 2253 4666 
L 3047 4666 
L 3047 1625 
L 3713 1625 
L 3713 1100 
L 3047 1100 
L 3047 0 
L 2419 0 
L 2419 1100 
L 313 1100 
L 313 1709 
L 2253 4666 
z
" transform="scale(0.015625)"/>
       </defs>
       <use xlink:href="#DejaVuSans-30"/>
       <use xlink:href="#DejaVuSans-2e" transform="translate(63.623047 0)"/>
       <use xlink:href="#DejaVuSans-34" transform="translate(95.410156 0)"/>
      </g>
     </g>
    </g>
    <g id="ytick_6">
     <g id="line2d_29">
      <path d="M 43.78125 116.870648 
L 490.18125 116.870648 
" clip-path="url(#p01e85f458b)" style="fill: none; stroke-dasharray: 1.85,0.8; stroke-dashoffset: 0; stroke: #b0b0b0; stroke-opacity: 0.6; stroke-width: 0.5"/>
     </g>
     <g id="line2d_30">
      <g>
       <use xlink:href="#md0e0eb005c" x="43.78125" y="116.870648" style="stroke: #000000; stroke-width: 0.8"/>
      </g>
     </g>
     <g id="text_16">
      <!-- 0.5 -->
      <g transform="translate(20.878125 120.669867) scale(0.1 -0.1)">
       <use xlink:href="#DejaVuSans-30"/>
       <use xlink:href="#DejaVuSans-2e" transform="translate(63.623047 0)"/>
       <use xlink:href="#DejaVuSans-35" transform="translate(95.410156 0)"/>
      </g>
     </g>
    </g>
    <g id="ytick_7">
     <g id="line2d_31">
      <path d="M 43.78125 82.861153 
L 490.18125 82.861153 
" clip-path="url(#p01e85f458b)" style="fill: none; stroke-dasharray: 1.85,0.8; stroke-dashoffset: 0; stroke: #b0b0b0; stroke-opacity: 0.6; stroke-width: 0.5"/>
     </g>
     <g id="line2d_32">
      <g>
       <use xlink:href="#md0e0eb005c" x="43.78125" y="82.861153" style="stroke: #000000; stroke-width: 0.8"/>
      </g>
     </g>
     <g id="text_17">
      <!-- 0.6 -->
      <g transform="translate(20.878125 86.660371) scale(0.1 -0.1)">
       <defs>
        <path id="DejaVuSans-36" d="M 2113 2584 
Q 1688 2584 1439 2293 
Q 1191 2003 1191 1497 
Q 1191 994 1439 701 
Q 1688 409 2113 409 
Q 2538 409 2786 701 
Q 3034 994 3034 1497 
Q 3034 2003 2786 2293 
Q 2538 2584 2113 2584 
z
M 3366 4563 
L 3366 3988 
Q 3128 4100 2886 4159 
Q 2644 4219 2406 4219 
Q 1781 4219 1451 3797 
Q 1122 3375 1075 2522 
Q 1259 2794 1537 2939 
Q 1816 3084 2150 3084 
Q 2853 3084 3261 2657 
Q 3669 2231 3669 1497 
Q 3669 778 3244 343 
Q 2819 -91 2113 -91 
Q 1303 -91 875 529 
Q 447 1150 447 2328 
Q 447 3434 972 4092 
Q 1497 4750 2381 4750 
Q 2619 4750 2861 4703 
Q 3103 4656 3366 4563 
z
" transform="scale(0.015625)"/>
       </defs>
       <use xlink:href="#DejaVuSans-30"/>
       <use xlink:href="#DejaVuSans-2e" transform="translate(63.623047 0)"/>
       <use xlink:href="#DejaVuSans-36" transform="translate(95.410156 0)"/>
      </g>
     </g>
    </g>
    <g id="ytick_8">
     <g id="line2d_33">
      <path d="M 43.78125 48.851657 
L 490.18125 48.851657 
" clip-path="url(#p01e85f458b)" style="fill: none; stroke-dasharray: 1.85,0.8; stroke-dashoffset: 0; stroke: #b0b0b0; stroke-opacity: 0.6; stroke-width: 0.5"/>
     </g>
     <g id="line2d_34">
      <g>
       <use xlink:href="#md0e0eb005c" x="43.78125" y="48.851657" style="stroke: #000000; stroke-width: 0.8"/>
      </g>
     </g>
     <g id="text_18">
      <!-- 0.7 -->
      <g transform="translate(20.878125 52.650876) scale(0.1 -0.1)">
       <use xlink:href="#DejaVuSans-30"/>
       <use xlink:href="#DejaVuSans-2e" transform="translate(63.623047 0)"/>
       <use xlink:href="#DejaVuSans-37" transform="translate(95.410156 0)"/>
      </g>
     </g>
    </g>
    <g id="text_19">
     <!-- Detection Ratio (Efficiency) -->
     <g transform="translate(14.798438 229.282969) rotate(-90) scale(0.1 -0.1)">
      <defs>
       <path id="DejaVuSans-65" d="M 3597 1894 
L 3597 1613 
L 953 1613 
Q 991 1019 1311 708 
Q 1631 397 2203 397 
Q 2534 397 2845 478 
Q 3156 559 3463 722 
L 3463 178 
Q 3153 47 2828 -22 
Q 2503 -91 2169 -91 
Q 1331 -91 842 396 
Q 353 884 353 1716 
Q 353 2575 817 3079 
Q 1281 3584 2069 3584 
Q 2775 3584 3186 3129 
Q 3597 2675 3597 1894 
z
M 3022 2063 
Q 3016 2534 2758 2815 
Q 2500 3097 2075 3097 
Q 1594 3097 1305 2825 
Q 1016 2553 972 2059 
L 3022 2063 
z
" transform="scale(0.015625)"/>
       <path id="DejaVuSans-63" d="M 3122 3366 
L 3122 2828 
Q 2878 2963 2633 3030 
Q 2388 3097 2138 3097 
Q 1578 3097 1268 2742 
Q 959 2388 959 1747 
Q 959 1106 1268 751 
Q 1578 397 2138 397 
Q 2388 397 2633 464 
Q 2878 531 3122 666 
L 3122 134 
Q 2881 22 2623 -34 
Q 2366 -91 2075 -91 
Q 1284 -91 818 406 
Q 353 903 353 1747 
Q 353 2603 823 3093 
Q 1294 3584 2113 3584 
Q 2378 3584 2631 3529 
Q 2884 3475 3122 3366 
z
" transform="scale(0.015625)"/>
       <path id="DejaVuSans-52" d="M 2841 2188 
Q 3044 2119 3236 1894 
Q 3428 1669 3622 1275 
L 4263 0 
L 3584 0 
L 2988 1197 
Q 2756 1666 2539 1819 
Q 2322 1972 1947 1972 
L 1259 1972 
L 1259 0 
L 628 0 
L 628 4666 
L 2053 4666 
Q 2853 4666 3247 4331 
Q 3641 3997 3641 3322 
Q 3641 2881 3436 2590 
Q 3231 2300 2841 2188 
z
M 1259 4147 
L 1259 2491 
L 2053 2491 
Q 2509 2491 2742 2702 
Q 2975 2913 2975 3322 
Q 2975 3731 2742 3939 
Q 2509 4147 2053 4147 
L 1259 4147 
z
" transform="scale(0.015625)"/>
       <path id="DejaVuSans-28" d="M 1984 4856 
Q 1566 4138 1362 3434 
Q 1159 2731 1159 2009 
Q 1159 1288 1364 580 
Q 1569 -128 1984 -844 
L 1484 -844 
Q 1016 -109 783 600 
Q 550 1309 550 2009 
Q 550 2706 781 3412 
Q 1013 4119 1484 4856 
L 1984 4856 
z
" transform="scale(0.015625)"/>
       <path id="DejaVuSans-45" d="M 628 4666 
L 3578 4666 
L 3578 4134 
L 1259 4134 
L 1259 2753 
L 3481 2753 
L 3481 2222 
L 1259 2222 
L 1259 531 
L 3634 531 
L 3634 0 
L 628 0 
L 628 4666 
z
" transform="scale(0.015625)"/>
       <path id="DejaVuSans-66" d="M 2375 4863 
L 2375 4384 
L 1825 4384 
Q 1516 4384 1395 4259 
Q 1275 4134 1275 3809 
L 1275 3500 
L 2222 3500 
L 2222 3053 
L 1275 3053 
L 1275 0 
L 697 0 
L 697 3053 
L 147 3053 
L 147 3500 
L 697 3500 
L 697 3744 
Q 697 4328 969 4595 
Q 1241 4863 1831 4863 
L 2375 4863 
z
" transform="scale(0.015625)"/>
       <path id="DejaVuSans-29" d="M 513 4856 
L 1013 4856 
Q 1481 4119 1714 3412 
Q 1947 2706 1947 2009 
Q 1947 1309 1714 600 
Q 1481 -109 1013 -844 
L 513 -844 
Q 928 -128 1133 580 
Q 1338 1288 1338 2009 
Q 1338 2731 1133 3434 
Q 928 4138 513 4856 
z
" transform="scale(0.015625)"/>
      </defs>
      <use xlink:href="#DejaVuSans-44"/>
      <use xlink:href="#DejaVuSans-65" transform="translate(77.001953 0)"/>
      <use xlink:href="#DejaVuSans-74" transform="translate(138.525391 0)"/>
      <use xlink:href="#DejaVuSans-65" transform="translate(177.734375 0)"/>
      <use xlink:href="#DejaVuSans-63" transform="translate(239.257812 0)"/>
      <use xlink:href="#DejaVuSans-74" transform="translate(294.238281 0)"/>
      <use xlink:href="#DejaVuSans-69" transform="translate(333.447266 0)"/>
      <use xlink:href="#DejaVuSans-6f" transform="translate(361.230469 0)"/>
      <use xlink:href="#DejaVuSans-6e" transform="translate(422.412109 0)"/>
      <use xlink:href="#DejaVuSans-20" transform="translate(485.791016 0)"/>
      <use xlink:href="#DejaVuSans-52" transform="translate(517.578125 0)"/>
      <use xlink:href="#DejaVuSans-61" transform="translate(584.810547 0)"/>
      <use xlink:href="#DejaVuSans-74" transform="translate(646.089844 0)"/>
      <use xlink:href="#DejaVuSans-69" transform="translate(685.298828 0)"/>
      <use xlink:href="#DejaVuSans-6f" transform="translate(713.082031 0)"/>
      <use xlink:href="#DejaVuSans-20" transform="translate(774.263672 0)"/>
      <use xlink:href="#DejaVuSans-28" transform="translate(806.050781 0)"/>
      <use xlink:href="#DejaVuSans-45" transform="translate(845.064453 0)"/>
      <use xlink:href="#DejaVuSans-66" transform="translate(908.248047 0)"/>
      <use xlink:href="#DejaVuSans-66" transform="translate(943.453125 0)"/>
      <use xlink:href="#DejaVuSans-69" transform="translate(978.658203 0)"/>
      <use xlink:href="#DejaVuSans-63" transform="translate(1006.441406 0)"/>
      <use xlink:href="#DejaVuSans-69" transform="translate(1061.421875 0)"/>
      <use xlink:href="#DejaVuSans-65" transform="translate(1089.205078 0)"/>
      <use xlink:href="#DejaVuSans-6e" transform="translate(1150.728516 0)"/>
      <use xlink:href="#DejaVuSans-63" transform="translate(1214.107422 0)"/>
      <use xlink:href="#DejaVuSans-79" transform="translate(1269.087891 0)"/>
      <use xlink:href="#DejaVuSans-29" transform="translate(1328.267578 0)"/>
     </g>
    </g>
   </g>
   <g id="line2d_35">
    <path d="M 64.072159 286.918125 
L 143.604366 286.918125 
L 145.643653 256.348343 
L 147.68294 243.275995 
L 149.722228 231.81045 
L 151.761515 222.80624 
L 153.800802 219.535421 
L 155.84009 213.457333 
L 157.879377 207.777093 
L 159.918664 201.282991 
L 163.997239 190.955357 
L 166.036526 188.391686 
L 168.075814 180.806192 
L 170.115101 174.739413 
L 174.193676 161.750809 
L 176.232963 152.771407 
L 178.27225 148.796315 
L 180.311538 142.425154 
L 182.350825 137.910475 
L 184.390112 131.327076 
L 186.4294 110.404686 
L 188.468687 91.533793 
L 190.507975 77.93069 
L 192.547262 67.310676 
L 194.586549 63.028991 
L 196.625837 60.825806 
L 198.665124 59.890115 
L 200.704411 61.614755 
L 202.743699 61.968732 
L 204.782986 61.733957 
L 206.822273 60.324001 
L 208.861561 57.570487 
L 210.900848 45.961512 
L 212.940135 46.271962 
L 214.979423 52.673489 
L 217.01871 49.671155 
L 219.057997 45.919307 
L 221.097285 48.668316 
L 223.136572 50.077497 
L 225.175859 49.259978 
L 227.215147 52.676029 
L 229.254434 53.739877 
L 231.293721 52.893994 
L 233.333009 55.145599 
L 235.372296 58.825988 
L 237.411583 55.694959 
L 239.450871 59.454849 
L 241.490158 57.043014 
L 243.529446 57.816904 
L 245.568733 58.433937 
L 247.60802 60.46489 
L 249.647308 57.579611 
L 251.686595 62.490969 
L 253.725882 57.518215 
L 255.76517 62.124973 
L 257.804457 57.896227 
L 259.843744 55.864084 
L 261.883032 59.612789 
L 263.922319 62.529085 
L 265.961606 60.494004 
L 268.000894 55.897868 
L 270.040181 54.785354 
L 274.118756 59.882449 
L 276.158043 67.592923 
L 278.19733 69.684554 
L 280.236618 75.050683 
L 282.275905 75.112606 
L 284.315192 82.444551 
L 286.35448 80.477203 
L 288.393767 78.079051 
L 290.433054 68.407523 
L 292.472342 65.188052 
L 294.511629 70.768982 
L 296.550917 79.703794 
L 298.590204 84.330302 
L 300.629491 83.939733 
L 302.668779 91.694878 
L 304.708066 96.80084 
L 306.747353 77.648108 
L 308.786641 73.172077 
L 310.825928 76.194557 
L 312.865215 68.315956 
L 314.904503 74.561342 
L 316.94379 61.594256 
L 318.983077 62.88449 
L 321.022365 63.988664 
L 325.100939 62.026708 
L 327.140227 58.423735 
L 329.179514 59.339733 
L 331.218801 60.432043 
L 333.258089 60.63163 
L 335.297376 59.57721 
L 337.336663 60.659155 
L 339.375951 63.172425 
L 341.415238 62.850023 
L 343.454525 65.7521 
L 345.493813 63.241379 
L 347.5331 62.985882 
L 349.572388 61.086281 
L 351.611675 64.390245 
L 355.69025 71.59863 
L 357.729537 70.214487 
L 359.768824 72.661097 
L 361.808112 70.648684 
L 363.847399 71.321236 
L 365.886686 63.509278 
L 367.925974 63.278522 
L 372.004548 67.268843 
L 374.043836 73.483448 
L 376.083123 78.715023 
L 378.12241 82.137166 
L 380.161698 80.3676 
L 382.200985 85.708494 
L 384.240272 86.483959 
L 386.27956 89.475119 
L 388.318847 88.487576 
L 390.358134 92.019237 
L 392.397422 89.801497 
L 394.436709 89.806173 
L 396.475996 83.10192 
L 398.515284 86.882074 
L 400.554571 86.5911 
L 402.593858 85.384164 
L 404.633146 83.465731 
L 406.672433 82.521345 
L 408.711721 83.443098 
L 410.751008 76.240575 
L 412.790295 77.792417 
L 414.829583 82.173039 
L 416.86887 85.360563 
L 418.908157 85.417589 
L 420.947445 87.728263 
L 422.986732 82.804658 
L 425.026019 83.257235 
L 427.065307 154.250461 
L 429.104594 151.012769 
L 431.143881 148.146006 
L 433.183169 142.871365 
L 435.222456 136.804966 
L 437.261743 136.70467 
L 439.301031 137.942001 
L 441.340318 142.756189 
L 443.379605 149.447564 
L 445.418893 150.615963 
L 447.45818 150.515409 
L 449.497467 143.953784 
L 451.536755 138.605082 
L 453.576042 130.270985 
L 455.615329 138.572782 
L 459.693904 146.651743 
L 461.733192 147.613179 
L 463.772479 146.481283 
L 465.811766 141.120687 
L 467.851054 139.188686 
L 469.890341 139.014284 
L 469.890341 139.014284 
" clip-path="url(#p01e85f458b)" style="fill: none; stroke: #1f77b4; stroke-width: 2; stroke-linecap: square"/>
   </g>
   <g id="line2d_36">
    <path d="M 64.072159 286.918125 
L 143.604366 286.918125 
L 145.643653 251.003028 
L 147.68294 242.401378 
L 149.722228 236.417567 
L 151.761515 219.011073 
L 153.800802 216.138315 
L 155.84009 210.909692 
L 157.879377 204.701756 
L 159.918664 201.424795 
L 161.957952 200.11489 
L 163.997239 198.147706 
L 166.036526 188.706538 
L 168.075814 182.995834 
L 170.115101 180.617813 
L 172.154388 175.249601 
L 174.193676 162.704941 
L 176.232963 157.051744 
L 178.27225 144.190685 
L 180.311538 137.685504 
L 182.350825 129.623253 
L 184.390112 130.079977 
L 186.4294 115.016078 
L 188.468687 98.427362 
L 190.507975 76.590033 
L 192.547262 66.052342 
L 194.586549 60.328742 
L 196.625837 64.33824 
L 198.665124 73.561845 
L 200.704411 72.170546 
L 202.743699 79.392227 
L 204.782986 79.338724 
L 206.822273 80.506182 
L 208.861561 80.942723 
L 210.900848 82.788364 
L 212.940135 81.434733 
L 214.979423 81.02441 
L 217.01871 74.176903 
L 219.057997 75.241527 
L 221.097285 71.359606 
L 223.136572 71.66919 
L 225.175859 74.688064 
L 227.215147 82.125283 
L 229.254434 73.742995 
L 231.293721 72.989142 
L 233.333009 78.153665 
L 235.372296 78.912941 
L 237.411583 77.954023 
L 239.450871 80.839436 
L 241.490158 81.714415 
L 243.529446 78.476721 
L 245.568733 80.570393 
L 247.60802 76.785636 
L 249.647308 80.234343 
L 251.686595 84.540787 
L 253.725882 83.635253 
L 255.76517 78.102984 
L 257.804457 69.797486 
L 259.843744 66.120712 
L 261.883032 71.790082 
L 263.922319 70.784108 
L 265.961606 70.720101 
L 268.000894 70.208337 
L 270.040181 71.274979 
L 272.079468 75.489107 
L 274.118756 72.02081 
L 276.158043 78.639269 
L 278.19733 78.395412 
L 280.236618 76.825325 
L 282.275905 75.725228 
L 284.315192 82.991031 
L 286.35448 88.182907 
L 288.393767 92.164318 
L 290.433054 86.048503 
L 292.472342 92.28474 
L 294.511629 96.861346 
L 296.550917 102.841076 
L 298.590204 105.367923 
L 300.629491 105.15659 
L 302.668779 106.308276 
L 304.708066 106.181896 
L 306.747353 99.690923 
L 308.786641 102.371629 
L 310.825928 104.783857 
L 312.865215 109.587085 
L 314.904503 98.913691 
L 316.94379 106.396158 
L 318.983077 108.244596 
L 321.022365 104.566304 
L 323.061652 111.199539 
L 325.100939 117.448351 
L 327.140227 115.627075 
L 329.179514 127.405336 
L 331.218801 124.831589 
L 333.258089 124.551534 
L 335.297376 116.042409 
L 337.336663 109.251248 
L 339.375951 102.968506 
L 341.415238 100.711194 
L 343.454525 100.683956 
L 345.493813 101.210789 
L 347.5331 110.85256 
L 349.572388 106.497381 
L 351.611675 112.070411 
L 353.650962 114.869261 
L 355.69025 116.724598 
L 357.729537 117.712502 
L 359.768824 117.073782 
L 361.808112 97.372847 
L 363.847399 100.068004 
L 365.886686 103.885285 
L 367.925974 92.032127 
L 369.965261 92.272069 
L 372.004548 95.166644 
L 374.043836 98.78779 
L 376.083123 86.659398 
L 378.12241 83.039452 
L 380.161698 81.023478 
L 382.200985 83.390387 
L 384.240272 85.453245 
L 386.27956 83.15144 
L 388.318847 84.383894 
L 390.358134 85.9876 
L 392.397422 83.712004 
L 394.436709 152.829553 
L 396.475996 157.365195 
L 398.515284 154.207728 
L 400.554571 152.84458 
L 402.593858 149.42636 
L 404.633146 155.290281 
L 406.672433 158.228895 
L 408.711721 149.998858 
L 410.751008 147.542355 
L 412.790295 144.740859 
L 414.829583 139.667676 
L 416.86887 147.035561 
L 418.908157 152.576878 
L 420.947445 152.228213 
L 422.986732 148.371255 
L 425.026019 148.275947 
L 427.065307 152.43042 
L 429.104594 143.815885 
L 431.143881 146.181261 
L 433.183169 149.715482 
L 435.222456 151.508662 
L 437.261743 146.473771 
L 439.301031 140.486356 
L 441.340318 146.163153 
L 443.379605 147.229362 
L 445.418893 152.619525 
L 447.45818 156.429531 
L 449.497467 160.770916 
L 451.536755 154.518978 
L 453.576042 158.782525 
L 455.615329 159.122625 
L 457.654617 152.943178 
L 459.693904 152.749704 
L 461.733192 144.884293 
L 463.772479 147.49382 
L 465.811766 138.31639 
L 467.851054 145.330318 
L 469.890341 145.121627 
L 469.890341 145.121627 
" clip-path="url(#p01e85f458b)" style="fill: none; stroke: #ff7f0e; stroke-width: 2; stroke-linecap: square"/>
   </g>
   <g id="line2d_37">
    <path d="M 64.072159 286.918125 
L 143.604366 286.918125 
L 145.643653 269.251917 
L 147.68294 259.45744 
L 149.722228 254.101266 
L 151.761515 252.191836 
L 153.800802 249.809337 
L 155.84009 245.114617 
L 157.879377 240.748848 
L 159.918664 241.215909 
L 161.957952 239.41853 
L 163.997239 238.443459 
L 166.036526 238.623324 
L 168.075814 240.033143 
L 170.115101 240.706813 
L 172.154388 239.600042 
L 174.193676 237.602095 
L 178.27225 232.769305 
L 180.311538 232.13966 
L 182.350825 228.154927 
L 184.390112 223.402773 
L 192.547262 195.728172 
L 194.586549 180.360462 
L 196.625837 173.2552 
L 198.665124 161.937786 
L 202.743699 144.659471 
L 204.782986 133.554536 
L 206.822273 121.726465 
L 208.861561 115.872916 
L 210.900848 110.874741 
L 212.940135 104.723799 
L 214.979423 102.123373 
L 217.01871 98.236038 
L 219.057997 93.110324 
L 221.097285 94.940606 
L 223.136572 93.579176 
L 225.175859 94.049565 
L 227.215147 84.661686 
L 229.254434 84.751026 
L 231.293721 82.247929 
L 233.333009 82.810153 
L 235.372296 81.730772 
L 237.411583 83.107994 
L 239.450871 80.409085 
L 241.490158 78.616506 
L 243.529446 79.691208 
L 245.568733 79.198431 
L 247.60802 77.554167 
L 249.647308 76.570902 
L 251.686595 77.075638 
L 253.725882 80.007896 
L 255.76517 80.937796 
L 257.804457 74.703786 
L 259.843744 73.305314 
L 261.883032 76.625712 
L 263.922319 74.146353 
L 265.961606 75.872924 
L 268.000894 76.839852 
L 270.040181 78.569014 
L 272.079468 69.152513 
L 274.118756 65.736851 
L 276.158043 67.559591 
L 278.19733 71.650151 
L 280.236618 70.111645 
L 282.275905 61.92041 
L 284.315192 63.319102 
L 286.35448 56.48666 
L 288.393767 50.306312 
L 290.433054 47.476231 
L 292.472342 53.49547 
L 294.511629 47.043033 
L 296.550917 40.998553 
L 298.590204 41.147223 
L 300.629491 34.918125 
L 302.668779 36.984311 
L 304.708066 35.824077 
L 306.747353 37.648994 
L 308.786641 38.837263 
L 310.825928 39.368314 
L 312.865215 46.706068 
L 314.904503 47.990127 
L 316.94379 48.519941 
L 323.061652 52.79463 
L 325.100939 54.817122 
L 327.140227 53.552531 
L 329.179514 56.576918 
L 331.218801 57.504416 
L 333.258089 53.912465 
L 335.297376 51.667304 
L 337.336663 51.737156 
L 339.375951 54.05886 
L 341.415238 57.688773 
L 343.454525 54.942674 
L 345.493813 55.756666 
L 347.5331 53.361734 
L 349.572388 52.987168 
L 351.611675 56.732481 
L 353.650962 54.777564 
L 355.69025 57.272179 
L 357.729537 57.988724 
L 359.768824 58.366834 
L 361.808112 123.801335 
L 363.847399 124.686863 
L 365.886686 131.552669 
L 369.965261 138.569894 
L 372.004548 144.369306 
L 374.043836 146.136504 
L 376.083123 148.330096 
L 378.12241 141.149867 
L 380.161698 137.502641 
L 382.200985 139.09651 
L 384.240272 139.79451 
L 386.27956 147.409995 
L 388.318847 147.970863 
L 390.358134 144.11212 
L 392.397422 134.61055 
L 394.436709 129.911116 
L 396.475996 139.359467 
L 398.515284 131.136444 
L 400.554571 132.752894 
L 402.593858 126.54982 
L 404.633146 131.388723 
L 406.672433 128.28076 
L 410.751008 124.203271 
L 412.790295 126.362288 
L 414.829583 137.661709 
L 416.86887 135.614872 
L 418.908157 140.811543 
L 420.947445 139.276138 
L 422.986732 134.490999 
L 425.026019 118.121899 
L 427.065307 118.291957 
L 429.104594 113.934486 
L 431.143881 116.488802 
L 433.183169 120.097464 
L 435.222456 125.229095 
L 437.261743 122.125086 
L 439.301031 115.079822 
L 441.340318 120.250715 
L 443.379605 118.177131 
L 445.418893 113.755493 
L 447.45818 115.694416 
L 449.497467 123.124121 
L 451.536755 114.441398 
L 453.576042 115.607438 
L 455.615329 123.634343 
L 457.654617 121.364812 
L 459.693904 127.761235 
L 461.733192 131.820276 
L 463.772479 130.075659 
L 465.811766 123.779734 
L 467.851054 121.803411 
L 469.890341 116.090017 
L 469.890341 116.090017 
" clip-path="url(#p01e85f458b)" style="fill: none; stroke: #2ca02c; stroke-width: 2; stroke-linecap: square"/>
   </g>
   <g id="line2d_38">
    <path d="M 64.072159 286.918125 
L 143.604366 286.918125 
L 145.643653 259.892047 
L 147.68294 251.9997 
L 149.722228 250.789166 
L 151.761515 249.893755 
L 153.800802 247.07703 
L 155.84009 247.602644 
L 157.879377 242.956194 
L 159.918664 240.567373 
L 161.957952 236.84758 
L 163.997239 235.840176 
L 166.036526 237.340578 
L 168.075814 235.978644 
L 170.115101 237.913113 
L 172.154388 234.00077 
L 174.193676 231.364438 
L 176.232963 227.238759 
L 178.27225 225.476873 
L 180.311538 219.294163 
L 182.350825 218.358447 
L 184.390112 219.688002 
L 186.4294 204.863897 
L 188.468687 195.697604 
L 190.507975 191.972506 
L 192.547262 183.595886 
L 196.625837 169.993858 
L 200.704411 159.769392 
L 202.743699 151.093013 
L 206.822273 127.893117 
L 208.861561 110.310452 
L 210.900848 97.979839 
L 212.940135 94.575338 
L 214.979423 94.402023 
L 217.01871 90.285016 
L 219.057997 90.181798 
L 221.097285 88.239615 
L 223.136572 90.681842 
L 225.175859 85.46202 
L 227.215147 79.477124 
L 229.254434 82.411852 
L 231.293721 81.519148 
L 233.333009 83.554303 
L 235.372296 84.822634 
L 237.411583 78.434319 
L 239.450871 79.164045 
L 241.490158 81.347666 
L 243.529446 77.18794 
L 245.568733 73.292446 
L 247.60802 73.160933 
L 251.686595 73.297294 
L 253.725882 68.778403 
L 255.76517 69.118116 
L 257.804457 71.228687 
L 259.843744 71.685357 
L 261.883032 67.029589 
L 263.922319 67.265151 
L 265.961606 63.108452 
L 268.000894 51.313908 
L 270.040181 42.707377 
L 272.079468 44.854691 
L 274.118756 45.794002 
L 276.158043 46.89587 
L 278.19733 45.956216 
L 280.236618 44.306335 
L 282.275905 45.432693 
L 284.315192 44.093239 
L 286.35448 42.050553 
L 290.433054 38.956203 
L 292.472342 43.358011 
L 294.511629 46.288218 
L 296.550917 48.09159 
L 298.590204 47.797217 
L 300.629491 47.659003 
L 302.668779 50.869597 
L 304.708066 47.445431 
L 306.747353 43.724324 
L 308.786641 47.865818 
L 310.825928 45.96421 
L 312.865215 48.567105 
L 314.904503 46.633188 
L 316.94379 49.442422 
L 321.022365 47.476241 
L 323.061652 52.674743 
L 325.100939 53.588199 
L 327.140227 49.17046 
L 329.179514 47.524061 
L 331.218801 45.720438 
L 333.258089 46.27163 
L 335.297376 45.633964 
L 337.336663 45.259691 
L 339.375951 43.951018 
L 341.415238 47.828531 
L 343.454525 46.765751 
L 345.493813 115.994707 
L 347.5331 121.768634 
L 349.572388 123.204255 
L 351.611675 124.365466 
L 353.650962 121.668498 
L 355.69025 121.220887 
L 357.729537 128.386522 
L 359.768824 134.961062 
L 361.808112 139.241659 
L 363.847399 139.934174 
L 365.886686 148.66089 
L 367.925974 150.030257 
L 369.965261 152.0514 
L 372.004548 153.862533 
L 374.043836 153.769987 
L 376.083123 150.049897 
L 378.12241 144.08491 
L 382.200985 136.845936 
L 384.240272 138.3514 
L 386.27956 132.868332 
L 388.318847 132.315327 
L 390.358134 128.662499 
L 392.397422 117.933051 
L 394.436709 115.392323 
L 396.475996 118.399474 
L 398.515284 118.282967 
L 400.554571 121.036553 
L 402.593858 126.373909 
L 404.633146 129.382538 
L 406.672433 128.121767 
L 408.711721 132.85727 
L 410.751008 131.617825 
L 412.790295 132.051635 
L 414.829583 136.14027 
L 416.86887 130.24874 
L 418.908157 132.182596 
L 420.947445 134.849467 
L 422.986732 139.522248 
L 425.026019 131.184309 
L 427.065307 127.830377 
L 429.104594 115.561533 
L 431.143881 114.725283 
L 433.183169 113.409985 
L 435.222456 115.610908 
L 437.261743 120.816064 
L 439.301031 118.924793 
L 441.340318 123.070222 
L 443.379605 123.814565 
L 445.418893 108.911963 
L 447.45818 113.594529 
L 449.497467 116.93376 
L 451.536755 105.566987 
L 453.576042 90.395002 
L 455.615329 88.89047 
L 457.654617 86.050307 
L 459.693904 93.209496 
L 461.733192 93.262737 
L 463.772479 96.928863 
L 465.811766 98.984534 
L 467.851054 97.413441 
L 469.890341 99.402847 
L 469.890341 99.402847 
" clip-path="url(#p01e85f458b)" style="fill: none; stroke: #d62728; stroke-width: 2; stroke-linecap: square"/>
   </g>
   <g id="line2d_39">
    <path d="M 64.072159 286.918125 
L 143.604366 286.918125 
L 145.643653 256.936983 
L 147.68294 253.897359 
L 149.722228 249.333376 
L 151.761515 242.256089 
L 153.800802 240.646549 
L 155.84009 240.985363 
L 157.879377 238.332154 
L 159.918664 236.933195 
L 161.957952 234.220857 
L 163.997239 229.460071 
L 166.036526 229.104952 
L 168.075814 229.827544 
L 170.115101 217.859706 
L 172.154388 216.256445 
L 176.232963 206.178863 
L 178.27225 199.846591 
L 180.311538 197.751986 
L 182.350825 197.20528 
L 184.390112 194.983655 
L 186.4294 190.605986 
L 188.468687 187.941118 
L 190.507975 184.567193 
L 194.586549 153.517962 
L 196.625837 146.662264 
L 198.665124 140.760919 
L 200.704411 135.231105 
L 202.743699 128.517089 
L 204.782986 132.543478 
L 206.822273 127.641891 
L 208.861561 123.298056 
L 210.900848 119.841836 
L 212.940135 115.309728 
L 214.979423 106.542106 
L 217.01871 103.09996 
L 219.057997 82.86256 
L 221.097285 80.265675 
L 225.175859 76.46536 
L 227.215147 69.914501 
L 229.254434 66.670781 
L 231.293721 64.425094 
L 233.333009 61.553063 
L 235.372296 60.81312 
L 237.411583 58.808515 
L 239.450871 57.864982 
L 241.490158 58.23059 
L 243.529446 57.140927 
L 245.568733 54.823249 
L 247.60802 52.693364 
L 249.647308 52.620528 
L 253.725882 51.586061 
L 255.76517 50.77346 
L 257.804457 51.015311 
L 259.843744 48.370284 
L 261.883032 47.483586 
L 263.922319 48.451451 
L 265.961606 48.724659 
L 268.000894 46.462664 
L 270.040181 45.043597 
L 272.079468 44.536314 
L 274.118756 45.028014 
L 276.158043 43.758285 
L 278.19733 45.258701 
L 280.236618 44.374516 
L 282.275905 46.466826 
L 284.315192 46.17184 
L 286.35448 44.673034 
L 288.393767 44.288248 
L 290.433054 46.307308 
L 292.472342 47.584254 
L 294.511629 50.122717 
L 296.550917 48.649163 
L 298.590204 49.165053 
L 300.629491 50.676149 
L 302.668779 49.343242 
L 304.708066 45.042442 
L 306.747353 44.898041 
L 308.786641 50.303852 
L 310.825928 51.578446 
L 312.865215 53.201155 
L 314.904503 50.576586 
L 316.94379 47.058006 
L 318.983077 46.257641 
L 321.022365 51.722565 
L 323.061652 54.074133 
L 325.100939 52.217925 
L 327.140227 57.251919 
L 329.179514 56.222782 
L 331.218801 53.756865 
L 333.258089 57.839586 
L 335.297376 54.496373 
L 337.336663 55.350086 
L 339.375951 120.458562 
L 341.415238 123.035268 
L 343.454525 123.421709 
L 345.493813 122.525821 
L 347.5331 125.152864 
L 349.572388 124.151239 
L 351.611675 128.850907 
L 353.650962 124.113061 
L 355.69025 123.764921 
L 357.729537 129.077156 
L 359.768824 124.827094 
L 361.808112 128.64798 
L 363.847399 131.804035 
L 367.925974 132.5396 
L 369.965261 126.111194 
L 372.004548 123.406048 
L 374.043836 127.725254 
L 376.083123 116.128581 
L 378.12241 118.322468 
L 380.161698 120.928557 
L 382.200985 120.421618 
L 384.240272 119.441573 
L 386.27956 116.757667 
L 388.318847 119.080688 
L 390.358134 116.892255 
L 392.397422 113.570562 
L 394.436709 105.354334 
L 396.475996 100.691098 
L 398.515284 99.166767 
L 400.554571 94.331022 
L 402.593858 94.893739 
L 404.633146 100.184537 
L 406.672433 98.471462 
L 408.711721 93.175183 
L 410.751008 95.237107 
L 412.790295 91.406683 
L 414.829583 93.767187 
L 416.86887 97.015148 
L 418.908157 92.01985 
L 420.947445 94.927836 
L 422.986732 95.393808 
L 425.026019 96.893549 
L 427.065307 99.507529 
L 429.104594 100.493843 
L 431.143881 97.93452 
L 433.183169 97.181652 
L 435.222456 90.088586 
L 437.261743 91.257122 
L 439.301031 85.229818 
L 441.340318 84.231499 
L 443.379605 90.260365 
L 445.418893 88.583472 
L 447.45818 98.091959 
L 449.497467 103.190912 
L 451.536755 101.73609 
L 453.576042 102.840306 
L 455.615329 96.312839 
L 457.654617 100.893885 
L 459.693904 103.084702 
L 461.733192 100.748351 
L 463.772479 102.175187 
L 465.811766 103.397338 
L 467.851054 106.534429 
L 469.890341 107.93568 
L 469.890341 107.93568 
" clip-path="url(#p01e85f458b)" style="fill: none; stroke: #9467bd; stroke-width: 2; stroke-linecap: square"/>
   </g>
   <g id="line2d_40">
    <path d="M 64.072159 286.918125 
L 143.604366 286.918125 
L 145.643653 266.009074 
L 147.68294 258.395925 
L 149.722228 252.639815 
L 151.761515 251.558127 
L 153.800802 245.735323 
L 155.84009 242.361184 
L 157.879377 240.273616 
L 159.918664 238.806778 
L 161.957952 233.022587 
L 163.997239 231.744058 
L 166.036526 234.051161 
L 168.075814 235.763441 
L 170.115101 234.989504 
L 172.154388 231.278283 
L 174.193676 226.896804 
L 176.232963 224.950026 
L 178.27225 220.128306 
L 180.311538 221.836106 
L 182.350825 220.026437 
L 184.390112 214.843359 
L 186.4294 204.833317 
L 188.468687 201.572784 
L 190.507975 192.169695 
L 192.547262 184.396547 
L 194.586549 179.301997 
L 198.665124 165.908916 
L 200.704411 160.752874 
L 202.743699 156.126465 
L 204.782986 153.58008 
L 206.822273 147.096232 
L 208.861561 144.749521 
L 210.900848 138.663058 
L 212.940135 134.418902 
L 214.979423 129.554865 
L 217.01871 119.153249 
L 219.057997 113.269074 
L 221.097285 113.101885 
L 223.136572 109.142989 
L 225.175859 107.02956 
L 227.215147 104.705237 
L 229.254434 99.995903 
L 231.293721 102.049426 
L 233.333009 93.876465 
L 235.372296 92.700352 
L 237.411583 93.014239 
L 239.450871 100.439625 
L 241.490158 95.283998 
L 243.529446 92.544365 
L 245.568733 90.600564 
L 247.60802 89.035939 
L 249.647308 92.927602 
L 251.686595 90.214516 
L 253.725882 85.530418 
L 255.76517 81.683422 
L 257.804457 79.565176 
L 259.843744 84.479363 
L 261.883032 86.954303 
L 263.922319 82.127584 
L 265.961606 79.110947 
L 268.000894 80.518351 
L 270.040181 84.000331 
L 272.079468 82.931927 
L 274.118756 86.132976 
L 276.158043 77.73278 
L 278.19733 76.289313 
L 280.236618 79.315742 
L 282.275905 78.618358 
L 284.315192 80.372631 
L 286.35448 80.910629 
L 288.393767 81.968775 
L 290.433054 79.288374 
L 292.472342 76.956661 
L 294.511629 69.096735 
L 296.550917 54.413125 
L 298.590204 57.564296 
L 300.629491 57.210377 
L 302.668779 64.250648 
L 304.708066 66.291199 
L 306.747353 71.448281 
L 308.786641 74.410569 
L 310.825928 74.908302 
L 312.865215 74.108554 
L 314.904503 69.293063 
L 316.94379 72.306712 
L 318.983077 80.173357 
L 321.022365 85.077431 
L 323.061652 82.788963 
L 325.100939 83.14026 
L 327.140227 85.306321 
L 329.179514 77.197323 
L 331.218801 73.963494 
L 333.258089 75.894811 
L 335.297376 76.697836 
L 337.336663 77.193962 
L 341.415238 84.230019 
L 343.454525 90.749855 
L 345.493813 90.59146 
L 347.5331 84.99032 
L 349.572388 82.755772 
L 353.650962 93.244498 
L 355.69025 95.453342 
L 357.729537 96.905836 
L 359.768824 94.909803 
L 361.808112 86.815172 
L 363.847399 89.910016 
L 365.886686 94.030192 
L 367.925974 95.283657 
L 369.965261 97.793479 
L 372.004548 92.967673 
L 374.043836 102.085047 
L 376.083123 89.741395 
L 378.12241 91.326765 
L 380.161698 95.326823 
L 382.200985 111.849531 
L 384.240272 109.220715 
L 386.27956 103.720184 
L 388.318847 71.734677 
L 390.358134 76.666351 
L 392.397422 61.306393 
L 394.436709 58.985618 
L 396.475996 63.661737 
L 398.515284 66.469713 
L 400.554571 69.582461 
L 402.593858 59.837643 
L 404.633146 61.878318 
L 406.672433 55.293286 
L 408.711721 58.375384 
L 410.751008 62.468638 
L 412.790295 63.064163 
L 414.829583 67.449203 
L 416.86887 70.388223 
L 418.908157 70.555657 
L 420.947445 68.562464 
L 422.986732 65.374841 
L 425.026019 50.564706 
L 429.104594 52.355373 
L 431.143881 55.194348 
L 433.183169 59.828716 
L 435.222456 133.138479 
L 437.261743 126.247503 
L 439.301031 124.033276 
L 443.379605 150.436656 
L 445.418893 154.63021 
L 447.45818 157.108433 
L 449.497467 157.049764 
L 451.536755 156.401414 
L 453.576042 149.429343 
L 455.615329 151.490042 
L 457.654617 138.626767 
L 459.693904 138.91954 
L 461.733192 140.156023 
L 463.772479 139.144185 
L 465.811766 142.474959 
L 467.851054 147.973626 
L 469.890341 147.206129 
L 469.890341 147.206129 
" clip-path="url(#p01e85f458b)" style="fill: none; stroke: #8c564b; stroke-width: 2; stroke-linecap: square"/>
   </g>
   <g id="patch_3">
    <path d="M 43.78125 299.518125 
L 43.78125 22.318125 
" style="fill: none; stroke: #000000; stroke-width: 0.8; stroke-linejoin: miter; stroke-linecap: square"/>
   </g>
   <g id="patch_4">
    <path d="M 490.18125 299.518125 
L 490.18125 22.318125 
" style="fill: none; stroke: #000000; stroke-width: 0.8; stroke-linejoin: miter; stroke-linecap: square"/>
   </g>
   <g id="patch_5">
    <path d="M 43.78125 299.518125 
L 490.18125 299.518125 
" style="fill: none; stroke: #000000; stroke-width: 0.8; stroke-linejoin: miter; stroke-linecap: square"/>
   </g>
   <g id="patch_6">
    <path d="M 43.78125 22.318125 
L 490.18125 22.318125 
" style="fill: none; stroke: #000000; stroke-width: 0.8; stroke-linejoin: miter; stroke-linecap: square"/>
   </g>
   <g id="text_20">
    <!-- Detection Ratio vs Time - Peak 60 -->
    <g transform="translate(165.590625 16.318125) scale(0.12 -0.12)">
     <defs>
      <path id="DejaVuSans-76" d="M 191 3500 
L 800 3500 
L 1894 563 
L 2988 3500 
L 3597 3500 
L 2284 0 
L 1503 0 
L 191 3500 
z
" transform="scale(0.015625)"/>
      <path id="DejaVuSans-73" d="M 2834 3397 
L 2834 2853 
Q 2591 2978 2328 3040 
Q 2066 3103 1784 3103 
Q 1356 3103 1142 2972 
Q 928 2841 928 2578 
Q 928 2378 1081 2264 
Q 1234 2150 1697 2047 
L 1894 2003 
Q 2506 1872 2764 1633 
Q 3022 1394 3022 966 
Q 3022 478 2636 193 
Q 2250 -91 1575 -91 
Q 1294 -91 989 -36 
Q 684 19 347 128 
L 347 722 
Q 666 556 975 473 
Q 1284 391 1588 391 
Q 1994 391 2212 530 
Q 2431 669 2431 922 
Q 2431 1156 2273 1281 
Q 2116 1406 1581 1522 
L 1381 1569 
Q 847 1681 609 1914 
Q 372 2147 372 2553 
Q 372 3047 722 3315 
Q 1072 3584 1716 3584 
Q 2034 3584 2315 3537 
Q 2597 3491 2834 3397 
z
" transform="scale(0.015625)"/>
      <path id="DejaVuSans-54" d="M -19 4666 
L 3928 4666 
L 3928 4134 
L 2272 4134 
L 2272 0 
L 1638 0 
L 1638 4134 
L -19 4134 
L -19 4666 
z
" transform="scale(0.015625)"/>
      <path id="DejaVuSans-2d" d="M 313 2009 
L 1997 2009 
L 1997 1497 
L 313 1497 
L 313 2009 
z
" transform="scale(0.015625)"/>
      <path id="DejaVuSans-50" d="M 1259 4147 
L 1259 2394 
L 2053 2394 
Q 2494 2394 2734 2622 
Q 2975 2850 2975 3272 
Q 2975 3691 2734 3919 
Q 2494 4147 2053 4147 
L 1259 4147 
z
M 628 4666 
L 2053 4666 
Q 2838 4666 3239 4311 
Q 3641 3956 3641 3272 
Q 3641 2581 3239 2228 
Q 2838 1875 2053 1875 
L 1259 1875 
L 1259 0 
L 628 0 
L 628 4666 
z
" transform="scale(0.015625)"/>
      <path id="DejaVuSans-6b" d="M 581 4863 
L 1159 4863 
L 1159 1991 
L 2875 3500 
L 3609 3500 
L 1753 1863 
L 3688 0 
L 2938 0 
L 1159 1709 
L 1159 0 
L 581 0 
L 581 4863 
z
" transform="scale(0.015625)"/>
     </defs>
     <use xlink:href="#DejaVuSans-44"/>
     <use xlink:href="#DejaVuSans-65" transform="translate(77.001953 0)"/>
     <use xlink:href="#DejaVuSans-74" transform="translate(138.525391 0)"/>
     <use xlink:href="#DejaVuSans-65" transform="translate(177.734375 0)"/>
     <use xlink:href="#DejaVuSans-63" transform="translate(239.257812 0)"/>
     <use xlink:href="#DejaVuSans-74" transform="translate(294.238281 0)"/>
     <use xlink:href="#DejaVuSans-69" transform="translate(333.447266 0)"/>
     <use xlink:href="#DejaVuSans-6f" transform="translate(361.230469 0)"/>
     <use xlink:href="#DejaVuSans-6e" transform="translate(422.412109 0)"/>
     <use xlink:href="#DejaVuSans-20" transform="translate(485.791016 0)"/>
     <use xlink:href="#DejaVuSans-52" transform="translate(517.578125 0)"/>
     <use xlink:href="#DejaVuSans-61" transform="translate(584.810547 0)"/>
     <use xlink:href="#DejaVuSans-74" transform="translate(646.089844 0)"/>
     <use xlink:href="#DejaVuSans-69" transform="translate(685.298828 0)"/>
     <use xlink:href="#DejaVuSans-6f" transform="translate(713.082031 0)"/>
     <use xlink:href="#DejaVuSans-20" transform="translate(774.263672 0)"/>
     <use xlink:href="#DejaVuSans-76" transform="translate(806.050781 0)"/>
     <use xlink:href="#DejaVuSans-73" transform="translate(865.230469 0)"/>
     <use xlink:href="#DejaVuSans-20" transform="translate(917.330078 0)"/>
     <use xlink:href="#DejaVuSans-54" transform="translate(949.117188 0)"/>
     <use xlink:href="#DejaVuSans-69" transform="translate(1007.076172 0)"/>
     <use xlink:href="#DejaVuSans-6d" transform="translate(1034.859375 0)"/>
     <use xlink:href="#DejaVuSans-65" transform="translate(1132.271484 0)"/>
     <use xlink:href="#DejaVuSans-20" transform="translate(1193.794922 0)"/>
     <use xlink:href="#DejaVuSans-2d" transform="translate(1225.582031 0)"/>
     <use xlink:href="#DejaVuSans-20" transform="translate(1261.666016 0)"/>
     <use xlink:href="#DejaVuSans-50" transform="translate(1293.453125 0)"/>
     <use xlink:href="#DejaVuSans-65" transform="translate(1350.130859 0)"/>
     <use xlink:href="#DejaVuSans-61" transform="translate(1411.654297 0)"/>
     <use xlink:href="#DejaVuSans-6b" transform="translate(1472.933594 0)"/>
     <use xlink:href="#DejaVuSans-20" transform="translate(1530.84375 0)"/>
     <use xlink:href="#DejaVuSans-36" transform="translate(1562.630859 0)"/>
     <use xlink:href="#DejaVuSans-30" transform="translate(1626.253906 0)"/>
    </g>
   </g>
   <g id="legend_1">
    <g id="patch_7">
     <path d="M 50.08125 108.78 
L 156.426094 108.78 
Q 158.226094 108.78 158.226094 106.98 
L 158.226094 28.618125 
Q 158.226094 26.818125 156.426094 26.818125 
L 50.08125 26.818125 
Q 48.28125 26.818125 48.28125 28.618125 
L 48.28125 106.98 
Q 48.28125 108.78 50.08125 108.78 
z
" style="fill: #ffffff; opacity: 0.8; stroke: #cccccc; stroke-linejoin: miter"/>
    </g>
    <g id="line2d_41">
     <path d="M 51.88125 34.106719 
L 60.88125 34.106719 
L 69.88125 34.106719 
" style="fill: none; stroke: #1f77b4; stroke-width: 2; stroke-linecap: square"/>
    </g>
    <g id="text_21">
     <!-- LocalGNTS-14 -->
     <g transform="translate(77.08125 37.256719) scale(0.09 -0.09)">
      <defs>
       <path id="DejaVuSans-4c" d="M 628 4666 
L 1259 4666 
L 1259 531 
L 3531 531 
L 3531 0 
L 628 0 
L 628 4666 
z
" transform="scale(0.015625)"/>
       <path id="DejaVuSans-47" d="M 3809 666 
L 3809 1919 
L 2778 1919 
L 2778 2438 
L 4434 2438 
L 4434 434 
Q 4069 175 3628 42 
Q 3188 -91 2688 -91 
Q 1594 -91 976 548 
Q 359 1188 359 2328 
Q 359 3472 976 4111 
Q 1594 4750 2688 4750 
Q 3144 4750 3555 4637 
Q 3966 4525 4313 4306 
L 4313 3634 
Q 3963 3931 3569 4081 
Q 3175 4231 2741 4231 
Q 1884 4231 1454 3753 
Q 1025 3275 1025 2328 
Q 1025 1384 1454 906 
Q 1884 428 2741 428 
Q 3075 428 3337 486 
Q 3600 544 3809 666 
z
" transform="scale(0.015625)"/>
       <path id="DejaVuSans-4e" d="M 628 4666 
L 1478 4666 
L 3547 763 
L 3547 4666 
L 4159 4666 
L 4159 0 
L 3309 0 
L 1241 3903 
L 1241 0 
L 628 0 
L 628 4666 
z
" transform="scale(0.015625)"/>
      </defs>
      <use xlink:href="#DejaVuSans-4c"/>
      <use xlink:href="#DejaVuSans-6f" transform="translate(53.962891 0)"/>
      <use xlink:href="#DejaVuSans-63" transform="translate(115.144531 0)"/>
      <use xlink:href="#DejaVuSans-61" transform="translate(170.125 0)"/>
      <use xlink:href="#DejaVuSans-6c" transform="translate(231.404297 0)"/>
      <use xlink:href="#DejaVuSans-47" transform="translate(259.1875 0)"/>
      <use xlink:href="#DejaVuSans-4e" transform="translate(336.677734 0)"/>
      <use xlink:href="#DejaVuSans-54" transform="translate(411.482422 0)"/>
      <use xlink:href="#DejaVuSans-53" transform="translate(472.566406 0)"/>
      <use xlink:href="#DejaVuSans-2d" transform="translate(536.042969 0)"/>
      <use xlink:href="#DejaVuSans-31" transform="translate(572.126953 0)"/>
      <use xlink:href="#DejaVuSans-34" transform="translate(635.75 0)"/>
     </g>
    </g>
    <g id="line2d_42">
     <path d="M 51.88125 47.317031 
L 60.88125 47.317031 
L 69.88125 47.317031 
" style="fill: none; stroke: #ff7f0e; stroke-width: 2; stroke-linecap: square"/>
    </g>
    <g id="text_22">
     <!-- GlobalGNTS-14 -->
     <g transform="translate(77.08125 50.467031) scale(0.09 -0.09)">
      <defs>
       <path id="DejaVuSans-62" d="M 3116 1747 
Q 3116 2381 2855 2742 
Q 2594 3103 2138 3103 
Q 1681 3103 1420 2742 
Q 1159 2381 1159 1747 
Q 1159 1113 1420 752 
Q 1681 391 2138 391 
Q 2594 391 2855 752 
Q 3116 1113 3116 1747 
z
M 1159 2969 
Q 1341 3281 1617 3432 
Q 1894 3584 2278 3584 
Q 2916 3584 3314 3078 
Q 3713 2572 3713 1747 
Q 3713 922 3314 415 
Q 2916 -91 2278 -91 
Q 1894 -91 1617 61 
Q 1341 213 1159 525 
L 1159 0 
L 581 0 
L 581 4863 
L 1159 4863 
L 1159 2969 
z
" transform="scale(0.015625)"/>
      </defs>
      <use xlink:href="#DejaVuSans-47"/>
      <use xlink:href="#DejaVuSans-6c" transform="translate(77.490234 0)"/>
      <use xlink:href="#DejaVuSans-6f" transform="translate(105.273438 0)"/>
      <use xlink:href="#DejaVuSans-62" transform="translate(166.455078 0)"/>
      <use xlink:href="#DejaVuSans-61" transform="translate(229.931641 0)"/>
      <use xlink:href="#DejaVuSans-6c" transform="translate(291.210938 0)"/>
      <use xlink:href="#DejaVuSans-47" transform="translate(318.994141 0)"/>
      <use xlink:href="#DejaVuSans-4e" transform="translate(396.484375 0)"/>
      <use xlink:href="#DejaVuSans-54" transform="translate(471.289062 0)"/>
      <use xlink:href="#DejaVuSans-53" transform="translate(532.373047 0)"/>
      <use xlink:href="#DejaVuSans-2d" transform="translate(595.849609 0)"/>
      <use xlink:href="#DejaVuSans-31" transform="translate(631.933594 0)"/>
      <use xlink:href="#DejaVuSans-34" transform="translate(695.556641 0)"/>
     </g>
    </g>
    <g id="line2d_43">
     <path d="M 51.88125 60.527344 
L 60.88125 60.527344 
L 69.88125 60.527344 
" style="fill: none; stroke: #2ca02c; stroke-width: 2; stroke-linecap: square"/>
    </g>
    <g id="text_23">
     <!-- Beta-Binomial-14 -->
     <g transform="translate(77.08125 63.677344) scale(0.09 -0.09)">
      <defs>
       <path id="DejaVuSans-42" d="M 1259 2228 
L 1259 519 
L 2272 519 
Q 2781 519 3026 730 
Q 3272 941 3272 1375 
Q 3272 1813 3026 2020 
Q 2781 2228 2272 2228 
L 1259 2228 
z
M 1259 4147 
L 1259 2741 
L 2194 2741 
Q 2656 2741 2882 2914 
Q 3109 3088 3109 3444 
Q 3109 3797 2882 3972 
Q 2656 4147 2194 4147 
L 1259 4147 
z
M 628 4666 
L 2241 4666 
Q 2963 4666 3353 4366 
Q 3744 4066 3744 3513 
Q 3744 3084 3544 2831 
Q 3344 2578 2956 2516 
Q 3422 2416 3680 2098 
Q 3938 1781 3938 1306 
Q 3938 681 3513 340 
Q 3088 0 2303 0 
L 628 0 
L 628 4666 
z
" transform="scale(0.015625)"/>
      </defs>
      <use xlink:href="#DejaVuSans-42"/>
      <use xlink:href="#DejaVuSans-65" transform="translate(68.603516 0)"/>
      <use xlink:href="#DejaVuSans-74" transform="translate(130.126953 0)"/>
      <use xlink:href="#DejaVuSans-61" transform="translate(169.335938 0)"/>
      <use xlink:href="#DejaVuSans-2d" transform="translate(230.615234 0)"/>
      <use xlink:href="#DejaVuSans-42" transform="translate(263.074219 0)"/>
      <use xlink:href="#DejaVuSans-69" transform="translate(331.677734 0)"/>
      <use xlink:href="#DejaVuSans-6e" transform="translate(359.460938 0)"/>
      <use xlink:href="#DejaVuSans-6f" transform="translate(422.839844 0)"/>
      <use xlink:href="#DejaVuSans-6d" transform="translate(484.021484 0)"/>
      <use xlink:href="#DejaVuSans-69" transform="translate(581.433594 0)"/>
      <use xlink:href="#DejaVuSans-61" transform="translate(609.216797 0)"/>
      <use xlink:href="#DejaVuSans-6c" transform="translate(670.496094 0)"/>
      <use xlink:href="#DejaVuSans-2d" transform="translate(698.279297 0)"/>
      <use xlink:href="#DejaVuSans-31" transform="translate(734.363281 0)"/>
      <use xlink:href="#DejaVuSans-34" transform="translate(797.986328 0)"/>
     </g>
    </g>
    <g id="line2d_44">
     <path d="M 51.88125 73.737656 
L 60.88125 73.737656 
L 69.88125 73.737656 
" style="fill: none; stroke: #d62728; stroke-width: 2; stroke-linecap: square"/>
    </g>
    <g id="text_24">
     <!-- Proportional -->
     <g transform="translate(77.08125 76.887656) scale(0.09 -0.09)">
      <defs>
       <path id="DejaVuSans-72" d="M 2631 2963 
Q 2534 3019 2420 3045 
Q 2306 3072 2169 3072 
Q 1681 3072 1420 2755 
Q 1159 2438 1159 1844 
L 1159 0 
L 581 0 
L 581 3500 
L 1159 3500 
L 1159 2956 
Q 1341 3275 1631 3429 
Q 1922 3584 2338 3584 
Q 2397 3584 2469 3576 
Q 2541 3569 2628 3553 
L 2631 2963 
z
" transform="scale(0.015625)"/>
       <path id="DejaVuSans-70" d="M 1159 525 
L 1159 -1331 
L 581 -1331 
L 581 3500 
L 1159 3500 
L 1159 2969 
Q 1341 3281 1617 3432 
Q 1894 3584 2278 3584 
Q 2916 3584 3314 3078 
Q 3713 2572 3713 1747 
Q 3713 922 3314 415 
Q 2916 -91 2278 -91 
Q 1894 -91 1617 61 
Q 1341 213 1159 525 
z
M 3116 1747 
Q 3116 2381 2855 2742 
Q 2594 3103 2138 3103 
Q 1681 3103 1420 2742 
Q 1159 2381 1159 1747 
Q 1159 1113 1420 752 
Q 1681 391 2138 391 
Q 2594 391 2855 752 
Q 3116 1113 3116 1747 
z
" transform="scale(0.015625)"/>
      </defs>
      <use xlink:href="#DejaVuSans-50"/>
      <use xlink:href="#DejaVuSans-72" transform="translate(58.552734 0)"/>
      <use xlink:href="#DejaVuSans-6f" transform="translate(97.416016 0)"/>
      <use xlink:href="#DejaVuSans-70" transform="translate(158.597656 0)"/>
      <use xlink:href="#DejaVuSans-6f" transform="translate(222.074219 0)"/>
      <use xlink:href="#DejaVuSans-72" transform="translate(283.255859 0)"/>
      <use xlink:href="#DejaVuSans-74" transform="translate(324.369141 0)"/>
      <use xlink:href="#DejaVuSans-69" transform="translate(363.578125 0)"/>
      <use xlink:href="#DejaVuSans-6f" transform="translate(391.361328 0)"/>
      <use xlink:href="#DejaVuSans-6e" transform="translate(452.542969 0)"/>
      <use xlink:href="#DejaVuSans-61" transform="translate(515.921875 0)"/>
      <use xlink:href="#DejaVuSans-6c" transform="translate(577.201172 0)"/>
     </g>
    </g>
    <g id="line2d_45">
     <path d="M 51.88125 86.947969 
L 60.88125 86.947969 
L 69.88125 86.947969 
" style="fill: none; stroke: #9467bd; stroke-width: 2; stroke-linecap: square"/>
    </g>
    <g id="text_25">
     <!-- Uniform -->
     <g transform="translate(77.08125 90.097969) scale(0.09 -0.09)">
      <defs>
       <path id="DejaVuSans-55" d="M 556 4666 
L 1191 4666 
L 1191 1831 
Q 1191 1081 1462 751 
Q 1734 422 2344 422 
Q 2950 422 3222 751 
Q 3494 1081 3494 1831 
L 3494 4666 
L 4128 4666 
L 4128 1753 
Q 4128 841 3676 375 
Q 3225 -91 2344 -91 
Q 1459 -91 1007 375 
Q 556 841 556 1753 
L 556 4666 
z
" transform="scale(0.015625)"/>
      </defs>
      <use xlink:href="#DejaVuSans-55"/>
      <use xlink:href="#DejaVuSans-6e" transform="translate(73.193359 0)"/>
      <use xlink:href="#DejaVuSans-69" transform="translate(136.572266 0)"/>
      <use xlink:href="#DejaVuSans-66" transform="translate(164.355469 0)"/>
      <use xlink:href="#DejaVuSans-6f" transform="translate(199.560547 0)"/>
      <use xlink:href="#DejaVuSans-72" transform="translate(260.742188 0)"/>
      <use xlink:href="#DejaVuSans-6d" transform="translate(300.105469 0)"/>
     </g>
    </g>
    <g id="line2d_46">
     <path d="M 51.88125 100.158281 
L 60.88125 100.158281 
L 69.88125 100.158281 
" style="fill: none; stroke: #8c564b; stroke-width: 2; stroke-linecap: square"/>
    </g>
    <g id="text_26">
     <!-- Random -->
     <g transform="translate(77.08125 103.308281) scale(0.09 -0.09)">
      <defs>
       <path id="DejaVuSans-64" d="M 2906 2969 
L 2906 4863 
L 3481 4863 
L 3481 0 
L 2906 0 
L 2906 525 
Q 2725 213 2448 61 
Q 2172 -91 1784 -91 
Q 1150 -91 751 415 
Q 353 922 353 1747 
Q 353 2572 751 3078 
Q 1150 3584 1784 3584 
Q 2172 3584 2448 3432 
Q 2725 3281 2906 2969 
z
M 947 1747 
Q 947 1113 1208 752 
Q 1469 391 1925 391 
Q 2381 391 2643 752 
Q 2906 1113 2906 1747 
Q 2906 2381 2643 2742 
Q 2381 3103 1925 3103 
Q 1469 3103 1208 2742 
Q 947 2381 947 1747 
z
" transform="scale(0.015625)"/>
      </defs>
      <use xlink:href="#DejaVuSans-52"/>
      <use xlink:href="#DejaVuSans-61" transform="translate(67.232422 0)"/>
      <use xlink:href="#DejaVuSans-6e" transform="translate(128.511719 0)"/>
      <use xlink:href="#DejaVuSans-64" transform="translate(191.890625 0)"/>
      <use xlink:href="#DejaVuSans-6f" transform="translate(255.367188 0)"/>
      <use xlink:href="#DejaVuSans-6d" transform="translate(316.548828 0)"/>
     </g>
    </g>
   </g>
  </g>
 </g>
 <defs>
  <clipPath id="p01e85f458b">
   <rect x="43.78125" y="22.318125" width="446.4" height="277.2"/>
  </clipPath>
 </defs>
</svg>
