<?xml version="1.0" encoding="utf-8" standalone="no"?>
<!DOCTYPE svg PUBLIC "-//W3C//DTD SVG 1.1//EN"
  "http://www.w3.org/Graphics/SVG/1.1/DTD/svg11.dtd">
<svg xmlns:xlink="http://www.w3.org/1999/xlink" width="497.38125pt" height="337.074375pt" viewBox="0 0 497.38125 337.074375" xmlns="http://www.w3.org/2000/svg" version="1.1">
 <metadata>
  <rdf:RDF xmlns:dc="http://purl.org/dc/elements/1.1/" xmlns:cc="http://creativecommons.org/ns#" xmlns:rdf="http://www.w3.org/1999/02/22-rdf-syntax-ns#">
   <cc:Work>
    <dc:type rdf:resource="http://purl.org/dc/dcmitype/StillImage"/>
    <dc:date>2026-07-01T09:39:57.747066</dc:date>
    <dc:format>image/svg+xml</dc:format>
    <dc:creator>
     <cc:Agent>
      <dc:title>Matplotlib v3.10.8, https://matplotlib.org/</dc:title>
     </cc:Agent>
    </dc:creator>
   </cc:Work>
  </rdf:RDF>
 </metadata>
 <defs>
  <style type="text/css">*{stroke-linejoin: round; stroke-linecap: butt}</style>
 </defs>
 <g id="figure_1">
  <g id="patch_1">
   <path d="M 0 337.074375 
L 497.38125 337.074375 
L 497.38125 0 
L 0 0 
z
" style="fill: #ffffff"/>
  </g>
  <g id="axes_1">
   <g id="patch_2">
    <path d="M 43.78125 299.518125 
L 490.18125 299.518125 
L 490.18125 22.318125 
L 43.78125 22.318125 
z
" style="fill: #ffffff"/>
   </g>
   <g id="matplotlib.axis_1">
    <g id="xtick_1">
     <g id="line2d_1">
      <path d="M 64.072159 299.518125 
L 64.072159 22.318125 
" clip-path="url(#p51ecd788e0)" style="fill: none; stroke-dasharray: 1.85,0.8; stroke-dashoffset: 0; stroke: #b0b0b0; stroke-opacity: 0.6; stroke-width: 0.5"/>
     </g>
     <g id="line2d_2">
      <defs>
       <path id="ma3465cda0a" d="M 0 0 
L 0 3.5 
" style="stroke: #000000; stroke-width: 0.8"/>
      </defs>
      <g>
       <use xlink:href="#ma3465cda0a" x="64.072159" y="299.518125" style="stroke: #000000; stroke-width: 0.8"/>
      </g>
     </g>
     <g id="text_1">
      <!-- 0 -->
      <g transform="translate(60.890909 314.116563) scale(0.1 -0.1)">
       <defs>
        <path id="DejaVuSans-30" d="M 2034 4250 
Q 1547 4250 1301 3770 
Q 1056 3291 1056 2328 
Q 1056 1369 1301 889 
Q 1547 409 2034 409 
Q 2525 409 2770 889 
Q 3016 1369 3016 2328 
Q 3016 3291 2770 3770 
Q 2525 4250 2034 4250 
z
M 2034 4750 
Q 2819 4750 3233 4129 
Q 3647 3509 3647 2328 
Q 3647 1150 3233 529 
Q 2819 -91 2034 -91 
Q 1250 -91 836 529 
Q 422 1150 422 2328 
Q 422 3509 836 4129 
Q 1250 4750 2034 4750 
z
" transform="scale(0.015625)"/>
       </defs>
       <use xlink:href="#DejaVuSans-30"/>
      </g>
     </g>
    </g>
    <g id="xtick_2">
     <g id="line2d_3">
      <path d="M 115.054343 299.518125 
L 115.054343 22.318125 
" clip-path="url(#p51ecd788e0)" style="fill: none; stroke-dasharray: 1.85,0.8; stroke-dashoffset: 0; stroke: #b0b0b0; stroke-opacity: 0.6; stroke-width: 0.5"/>
     </g>
     <g id="line2d_4">
      <g>
       <use xlink:href="#ma3465cda0a" x="115.054343" y="299.518125" style="stroke: #000000; stroke-width: 0.8"/>
      </g>
     </g>
     <g id="text_2">
      <!-- 25 -->
      <g transform="translate(108.691843 314.116563) scale(0.1 -0.1)">
       <defs>
        <path id="DejaVuSans-32" d="M 1228 531 
L 3431 531 
L 3431 0 
L 469 0 
L 469 531 
Q 828 903 1448 1529 
Q 2069 2156 2228 2338 
Q 2531 2678 2651 2914 
Q 2772 3150 2772 3378 
Q 2772 3750 2511 3984 
Q 2250 4219 1831 4219 
Q 1534 4219 1204 4116 
Q 875 4013 500 3803 
L 500 4441 
Q 881 4594 1212 4672 
Q 1544 4750 1819 4750 
Q 2544 4750 2975 4387 
Q 3406 4025 3406 3419 
Q 3406 3131 3298 2873 
Q 3191 2616 2906 2266 
Q 2828 2175 2409 1742 
Q 1991 1309 1228 531 
z
" transform="scale(0.015625)"/>
        <path id="DejaVuSans-35" d="M 691 4666 
L 3169 4666 
L 3169 4134 
L 1269 4134 
L 1269 2991 
Q 1406 3038 1543 3061 
Q 1681 3084 1819 3084 
Q 2600 3084 3056 2656 
Q 3513 2228 3513 1497 
Q 3513 744 3044 326 
Q 2575 -91 1722 -91 
Q 1428 -91 1123 -41 
Q 819 9 494 109 
L 494 744 
Q 775 591 1075 516 
Q 1375 441 1709 441 
Q 2250 441 2565 725 
Q 2881 1009 2881 1497 
Q 2881 1984 2565 2268 
Q 2250 2553 1709 2553 
Q 1456 2553 1204 2497 
Q 953 2441 691 2322 
L 691 4666 
z
" transform="scale(0.015625)"/>
       </defs>
       <use xlink:href="#DejaVuSans-32"/>
       <use xlink:href="#DejaVuSans-35" transform="translate(63.623047 0)"/>
      </g>
     </g>
    </g>
    <g id="xtick_3">
     <g id="line2d_5">
      <path d="M 166.036526 299.518125 
L 166.036526 22.318125 
" clip-path="url(#p51ecd788e0)" style="fill: none; stroke-dasharray: 1.85,0.8; stroke-dashoffset: 0; stroke: #b0b0b0; stroke-opacity: 0.6; stroke-width: 0.5"/>
     </g>
     <g id="line2d_6">
      <g>
       <use xlink:href="#ma3465cda0a" x="166.036526" y="299.518125" style="stroke: #000000; stroke-width: 0.8"/>
      </g>
     </g>
     <g id="text_3">
      <!-- 50 -->
      <g transform="translate(159.674026 314.116563) scale(0.1 -0.1)">
       <use xlink:href="#DejaVuSans-35"/>
       <use xlink:href="#DejaVuSans-30" transform="translate(63.623047 0)"/>
      </g>
     </g>
    </g>
    <g id="xtick_4">
     <g id="line2d_7">
      <path d="M 217.01871 299.518125 
L 217.01871 22.318125 
" clip-path="url(#p51ecd788e0)" style="fill: none; stroke-dasharray: 1.85,0.8; stroke-dashoffset: 0; stroke: #b0b0b0; stroke-opacity: 0.6; stroke-width: 0.5"/>
     </g>
     <g id="line2d_8">
      <g>
       <use xlink:href="#ma3465cda0a" x="217.01871" y="299.518125" style="stroke: #000000; stroke-width: 0.8"/>
      </g>
     </g>
     <g id="text_4">
      <!-- 75 -->
      <g transform="translate(210.65621 314.116563) scale(0.1 -0.1)">
       <defs>
        <path id="DejaVuSans-37" d="M 525 4666 
L 3525 4666 
L 3525 4397 
L 1831 0 
L 1172 0 
L 2766 4134 
L 525 4134 
L 525 4666 
z
" transform="scale(0.015625)"/>
       </defs>
       <use xlink:href="#DejaVuSans-37"/>
       <use xlink:href="#DejaVuSans-35" transform="translate(63.623047 0)"/>
      </g>
     </g>
    </g>
    <g id="xtick_5">
     <g id="line2d_9">
      <path d="M 268.000894 299.518125 
L 268.000894 22.318125 
" clip-path="url(#p51ecd788e0)" style="fill: none; stroke-dasharray: 1.85,0.8; stroke-dashoffset: 0; stroke: #b0b0b0; stroke-opacity: 0.6; stroke-width: 0.5"/>
     </g>
     <g id="line2d_10">
      <g>
       <use xlink:href="#ma3465cda0a" x="268.000894" y="299.518125" style="stroke: #000000; stroke-width: 0.8"/>
      </g>
     </g>
     <g id="text_5">
      <!-- 100 -->
      <g transform="translate(258.457144 314.116563) scale(0.1 -0.1)">
       <defs>
        <path id="DejaVuSans-31" d="M 794 531 
L 1825 531 
L 1825 4091 
L 703 3866 
L 703 4441 
L 1819 4666 
L 2450 4666 
L 2450 531 
L 3481 531 
L 3481 0 
L 794 0 
L 794 531 
z
" transform="scale(0.015625)"/>
       </defs>
       <use xlink:href="#DejaVuSans-31"/>
       <use xlink:href="#DejaVuSans-30" transform="translate(63.623047 0)"/>
       <use xlink:href="#DejaVuSans-30" transform="translate(127.246094 0)"/>
      </g>
     </g>
    </g>
    <g id="xtick_6">
     <g id="line2d_11">
      <path d="M 318.983077 299.518125 
L 318.983077 22.318125 
" clip-path="url(#p51ecd788e0)" style="fill: none; stroke-dasharray: 1.85,0.8; stroke-dashoffset: 0; stroke: #b0b0b0; stroke-opacity: 0.6; stroke-width: 0.5"/>
     </g>
     <g id="line2d_12">
      <g>
       <use xlink:href="#ma3465cda0a" x="318.983077" y="299.518125" style="stroke: #000000; stroke-width: 0.8"/>
      </g>
     </g>
     <g id="text_6">
      <!-- 125 -->
      <g transform="translate(309.439327 314.116563) scale(0.1 -0.1)">
       <use xlink:href="#DejaVuSans-31"/>
       <use xlink:href="#DejaVuSans-32" transform="translate(63.623047 0)"/>
       <use xlink:href="#DejaVuSans-35" transform="translate(127.246094 0)"/>
      </g>
     </g>
    </g>
    <g id="xtick_7">
     <g id="line2d_13">
      <path d="M 369.965261 299.518125 
L 369.965261 22.318125 
" clip-path="url(#p51ecd788e0)" style="fill: none; stroke-dasharray: 1.85,0.8; stroke-dashoffset: 0; stroke: #b0b0b0; stroke-opacity: 0.6; stroke-width: 0.5"/>
     </g>
     <g id="line2d_14">
      <g>
       <use xlink:href="#ma3465cda0a" x="369.965261" y="299.518125" style="stroke: #000000; stroke-width: 0.8"/>
      </g>
     </g>
     <g id="text_7">
      <!-- 150 -->
      <g transform="translate(360.421511 314.116563) scale(0.1 -0.1)">
       <use xlink:href="#DejaVuSans-31"/>
       <use xlink:href="#DejaVuSans-35" transform="translate(63.623047 0)"/>
       <use xlink:href="#DejaVuSans-30" transform="translate(127.246094 0)"/>
      </g>
     </g>
    </g>
    <g id="xtick_8">
     <g id="line2d_15">
      <path d="M 420.947445 299.518125 
L 420.947445 22.318125 
" clip-path="url(#p51ecd788e0)" style="fill: none; stroke-dasharray: 1.85,0.8; stroke-dashoffset: 0; stroke: #b0b0b0; stroke-opacity: 0.6; stroke-width: 0.5"/>
     </g>
     <g id="line2d_16">
      <g>
       <use xlink:href="#ma3465cda0a" x="420.947445" y="299.518125" style="stroke: #000000; stroke-width: 0.8"/>
      </g>
     </g>
     <g id="text_8">
      <!-- 175 -->
      <g transform="translate(411.403695 314.116563) scale(0.1 -0.1)">
       <use xlink:href="#DejaVuSans-31"/>
       <use xlink:href="#DejaVuSans-37" transform="translate(63.623047 0)"/>
       <use xlink:href="#DejaVuSans-35" transform="translate(127.246094 0)"/>
      </g>
     </g>
    </g>
    <g id="xtick_9">
     <g id="line2d_17">
      <path d="M 471.929628 299.518125 
L 471.929628 22.318125 
" clip-path="url(#p51ecd788e0)" style="fill: none; stroke-dasharray: 1.85,0.8; stroke-dashoffset: 0; stroke: #b0b0b0; stroke-opacity: 0.6; stroke-width: 0.5"/>
     </g>
     <g id="line2d_18">
      <g>
       <use xlink:href="#ma3465cda0a" x="471.929628" y="299.518125" style="stroke: #000000; stroke-width: 0.8"/>
      </g>
     </g>
     <g id="text_9">
      <!-- 200 -->
      <g transform="translate(462.385878 314.116563) scale(0.1 -0.1)">
       <use xlink:href="#DejaVuSans-32"/>
       <use xlink:href="#DejaVuSans-30" transform="translate(63.623047 0)"/>
       <use xlink:href="#DejaVuSans-30" transform="translate(127.246094 0)"/>
      </g>
     </g>
    </g>
    <g id="text_10">
     <!-- Simulation Day -->
     <g transform="translate(228.885937 327.794688) scale(0.1 -0.1)">
      <defs>
       <path id="DejaVuSans-53" d="M 3425 4513 
L 3425 3897 
Q 3066 4069 2747 4153 
Q 2428 4238 2131 4238 
Q 1616 4238 1336 4038 
Q 1056 3838 1056 3469 
Q 1056 3159 1242 3001 
Q 1428 2844 1947 2747 
L 2328 2669 
Q 3034 2534 3370 2195 
Q 3706 1856 3706 1288 
Q 3706 609 3251 259 
Q 2797 -91 1919 -91 
Q 1588 -91 1214 -16 
Q 841 59 441 206 
L 441 856 
Q 825 641 1194 531 
Q 1563 422 1919 422 
Q 2459 422 2753 634 
Q 3047 847 3047 1241 
Q 3047 1584 2836 1778 
Q 2625 1972 2144 2069 
L 1759 2144 
Q 1053 2284 737 2584 
Q 422 2884 422 3419 
Q 422 4038 858 4394 
Q 1294 4750 2059 4750 
Q 2388 4750 2728 4690 
Q 3069 4631 3425 4513 
z
" transform="scale(0.015625)"/>
       <path id="DejaVuSans-69" d="M 603 3500 
L 1178 3500 
L 1178 0 
L 603 0 
L 603 3500 
z
M 603 4863 
L 1178 4863 
L 1178 4134 
L 603 4134 
L 603 4863 
z
" transform="scale(0.015625)"/>
       <path id="DejaVuSans-6d" d="M 3328 2828 
Q 3544 3216 3844 3400 
Q 4144 3584 4550 3584 
Q 5097 3584 5394 3201 
Q 5691 2819 5691 2113 
L 5691 0 
L 5113 0 
L 5113 2094 
Q 5113 2597 4934 2840 
Q 4756 3084 4391 3084 
Q 3944 3084 3684 2787 
Q 3425 2491 3425 1978 
L 3425 0 
L 2847 0 
L 2847 2094 
Q 2847 2600 2669 2842 
Q 2491 3084 2119 3084 
Q 1678 3084 1418 2786 
Q 1159 2488 1159 1978 
L 1159 0 
L 581 0 
L 581 3500 
L 1159 3500 
L 1159 2956 
Q 1356 3278 1631 3431 
Q 1906 3584 2284 3584 
Q 2666 3584 2933 3390 
Q 3200 3197 3328 2828 
z
" transform="scale(0.015625)"/>
       <path id="DejaVuSans-75" d="M 544 1381 
L 544 3500 
L 1119 3500 
L 1119 1403 
Q 1119 906 1312 657 
Q 1506 409 1894 409 
Q 2359 409 2629 706 
Q 2900 1003 2900 1516 
L 2900 3500 
L 3475 3500 
L 3475 0 
L 2900 0 
L 2900 538 
Q 2691 219 2414 64 
Q 2138 -91 1772 -91 
Q 1169 -91 856 284 
Q 544 659 544 1381 
z
M 1991 3584 
L 1991 3584 
z
" transform="scale(0.015625)"/>
       <path id="DejaVuSans-6c" d="M 603 4863 
L 1178 4863 
L 1178 0 
L 603 0 
L 603 4863 
z
" transform="scale(0.015625)"/>
       <path id="DejaVuSans-61" d="M 2194 1759 
Q 1497 1759 1228 1600 
Q 959 1441 959 1056 
Q 959 750 1161 570 
Q 1363 391 1709 391 
Q 2188 391 2477 730 
Q 2766 1069 2766 1631 
L 2766 1759 
L 2194 1759 
z
M 3341 1997 
L 3341 0 
L 2766 0 
L 2766 531 
Q 2569 213 2275 61 
Q 1981 -91 1556 -91 
Q 1019 -91 701 211 
Q 384 513 384 1019 
Q 384 1609 779 1909 
Q 1175 2209 1959 2209 
L 2766 2209 
L 2766 2266 
Q 2766 2663 2505 2880 
Q 2244 3097 1772 3097 
Q 1472 3097 1187 3025 
Q 903 2953 641 2809 
L 641 3341 
Q 956 3463 1253 3523 
Q 1550 3584 1831 3584 
Q 2591 3584 2966 3190 
Q 3341 2797 3341 1997 
z
" transform="scale(0.015625)"/>
       <path id="DejaVuSans-74" d="M 1172 4494 
L 1172 3500 
L 2356 3500 
L 2356 3053 
L 1172 3053 
L 1172 1153 
Q 1172 725 1289 603 
Q 1406 481 1766 481 
L 2356 481 
L 2356 0 
L 1766 0 
Q 1100 0 847 248 
Q 594 497 594 1153 
L 594 3053 
L 172 3053 
L 172 3500 
L 594 3500 
L 594 4494 
L 1172 4494 
z
" transform="scale(0.015625)"/>
       <path id="DejaVuSans-6f" d="M 1959 3097 
Q 1497 3097 1228 2736 
Q 959 2375 959 1747 
Q 959 1119 1226 758 
Q 1494 397 1959 397 
Q 2419 397 2687 759 
Q 2956 1122 2956 1747 
Q 2956 2369 2687 2733 
Q 2419 3097 1959 3097 
z
M 1959 3584 
Q 2709 3584 3137 3096 
Q 3566 2609 3566 1747 
Q 3566 888 3137 398 
Q 2709 -91 1959 -91 
Q 1206 -91 779 398 
Q 353 888 353 1747 
Q 353 2609 779 3096 
Q 1206 3584 1959 3584 
z
" transform="scale(0.015625)"/>
       <path id="DejaVuSans-6e" d="M 3513 2113 
L 3513 0 
L 2938 0 
L 2938 2094 
Q 2938 2591 2744 2837 
Q 2550 3084 2163 3084 
Q 1697 3084 1428 2787 
Q 1159 2491 1159 1978 
L 1159 0 
L 581 0 
L 581 3500 
L 1159 3500 
L 1159 2956 
Q 1366 3272 1645 3428 
Q 1925 3584 2291 3584 
Q 2894 3584 3203 3211 
Q 3513 2838 3513 2113 
z
" transform="scale(0.015625)"/>
       <path id="DejaVuSans-20" transform="scale(0.015625)"/>
       <path id="DejaVuSans-44" d="M 1259 4147 
L 1259 519 
L 2022 519 
Q 2988 519 3436 956 
Q 3884 1394 3884 2338 
Q 3884 3275 3436 3711 
Q 2988 4147 2022 4147 
L 1259 4147 
z
M 628 4666 
L 1925 4666 
Q 3281 4666 3915 4102 
Q 4550 3538 4550 2338 
Q 4550 1131 3912 565 
Q 3275 0 1925 0 
L 628 0 
L 628 4666 
z
" transform="scale(0.015625)"/>
       <path id="DejaVuSans-79" d="M 2059 -325 
Q 1816 -950 1584 -1140 
Q 1353 -1331 966 -1331 
L 506 -1331 
L 506 -850 
L 844 -850 
Q 1081 -850 1212 -737 
Q 1344 -625 1503 -206 
L 1606 56 
L 191 3500 
L 800 3500 
L 1894 763 
L 2988 3500 
L 3597 3500 
L 2059 -325 
z
" transform="scale(0.015625)"/>
      </defs>
      <use xlink:href="#DejaVuSans-53"/>
      <use xlink:href="#DejaVuSans-69" transform="translate(63.476562 0)"/>
      <use xlink:href="#DejaVuSans-6d" transform="translate(91.259766 0)"/>
      <use xlink:href="#DejaVuSans-75" transform="translate(188.671875 0)"/>
      <use xlink:href="#DejaVuSans-6c" transform="translate(252.050781 0)"/>
      <use xlink:href="#DejaVuSans-61" transform="translate(279.833984 0)"/>
      <use xlink:href="#DejaVuSans-74" transform="translate(341.113281 0)"/>
      <use xlink:href="#DejaVuSans-69" transform="translate(380.322266 0)"/>
      <use xlink:href="#DejaVuSans-6f" transform="translate(408.105469 0)"/>
      <use xlink:href="#DejaVuSans-6e" transform="translate(469.287109 0)"/>
      <use xlink:href="#DejaVuSans-20" transform="translate(532.666016 0)"/>
      <use xlink:href="#DejaVuSans-44" transform="translate(564.453125 0)"/>
      <use xlink:href="#DejaVuSans-61" transform="translate(641.455078 0)"/>
      <use xlink:href="#DejaVuSans-79" transform="translate(702.734375 0)"/>
     </g>
    </g>
   </g>
   <g id="matplotlib.axis_2">
    <g id="ytick_1">
     <g id="line2d_19">
      <path d="M 43.78125 286.918125 
L 490.18125 286.918125 
" clip-path="url(#p51ecd788e0)" style="fill: none; stroke-dasharray: 1.85,0.8; stroke-dashoffset: 0; stroke: #b0b0b0; stroke-opacity: 0.6; stroke-width: 0.5"/>
     </g>
     <g id="line2d_20">
      <defs>
       <path id="mfa033f2a87" d="M 0 0 
L -3.5 0 
" style="stroke: #000000; stroke-width: 0.8"/>
      </defs>
      <g>
       <use xlink:href="#mfa033f2a87" x="43.78125" y="286.918125" style="stroke: #000000; stroke-width: 0.8"/>
      </g>
     </g>
     <g id="text_11">
      <!-- 0.0 -->
      <g transform="translate(20.878125 290.717344) scale(0.1 -0.1)">
       <defs>
        <path id="DejaVuSans-2e" d="M 684 794 
L 1344 794 
L 1344 0 
L 684 0 
L 684 794 
z
" transform="scale(0.015625)"/>
       </defs>
       <use xlink:href="#DejaVuSans-30"/>
       <use xlink:href="#DejaVuSans-2e" transform="translate(63.623047 0)"/>
       <use xlink:href="#DejaVuSans-30" transform="translate(95.410156 0)"/>
      </g>
     </g>
    </g>
    <g id="ytick_2">
     <g id="line2d_21">
      <path d="M 43.78125 252.478222 
L 490.18125 252.478222 
" clip-path="url(#p51ecd788e0)" style="fill: none; stroke-dasharray: 1.85,0.8; stroke-dashoffset: 0; stroke: #b0b0b0; stroke-opacity: 0.6; stroke-width: 0.5"/>
     </g>
     <g id="line2d_22">
      <g>
       <use xlink:href="#mfa033f2a87" x="43.78125" y="252.478222" style="stroke: #000000; stroke-width: 0.8"/>
      </g>
     </g>
     <g id="text_12">
      <!-- 0.1 -->
      <g transform="translate(20.878125 256.277441) scale(0.1 -0.1)">
       <use xlink:href="#DejaVuSans-30"/>
       <use xlink:href="#DejaVuSans-2e" transform="translate(63.623047 0)"/>
       <use xlink:href="#DejaVuSans-31" transform="translate(95.410156 0)"/>
      </g>
     </g>
    </g>
    <g id="ytick_3">
     <g id="line2d_23">
      <path d="M 43.78125 218.03832 
L 490.18125 218.03832 
" clip-path="url(#p51ecd788e0)" style="fill: none; stroke-dasharray: 1.85,0.8; stroke-dashoffset: 0; stroke: #b0b0b0; stroke-opacity: 0.6; stroke-width: 0.5"/>
     </g>
     <g id="line2d_24">
      <g>
       <use xlink:href="#mfa033f2a87" x="43.78125" y="218.03832" style="stroke: #000000; stroke-width: 0.8"/>
      </g>
     </g>
     <g id="text_13">
      <!-- 0.2 -->
      <g transform="translate(20.878125 221.837538) scale(0.1 -0.1)">
       <use xlink:href="#DejaVuSans-30"/>
       <use xlink:href="#DejaVuSans-2e" transform="translate(63.623047 0)"/>
       <use xlink:href="#DejaVuSans-32" transform="translate(95.410156 0)"/>
      </g>
     </g>
    </g>
    <g id="ytick_4">
     <g id="line2d_25">
      <path d="M 43.78125 183.598417 
L 490.18125 183.598417 
" clip-path="url(#p51ecd788e0)" style="fill: none; stroke-dasharray: 1.85,0.8; stroke-dashoffset: 0; stroke: #b0b0b0; stroke-opacity: 0.6; stroke-width: 0.5"/>
     </g>
     <g id="line2d_26">
      <g>
       <use xlink:href="#mfa033f2a87" x="43.78125" y="183.598417" style="stroke: #000000; stroke-width: 0.8"/>
      </g>
     </g>
     <g id="text_14">
      <!-- 0.3 -->
      <g transform="translate(20.878125 187.397636) scale(0.1 -0.1)">
       <defs>
        <path id="DejaVuSans-33" d="M 2597 2516 
Q 3050 2419 3304 2112 
Q 3559 1806 3559 1356 
Q 3559 666 3084 287 
Q 2609 -91 1734 -91 
Q 1441 -91 1130 -33 
Q 819 25 488 141 
L 488 750 
Q 750 597 1062 519 
Q 1375 441 1716 441 
Q 2309 441 2620 675 
Q 2931 909 2931 1356 
Q 2931 1769 2642 2001 
Q 2353 2234 1838 2234 
L 1294 2234 
L 1294 2753 
L 1863 2753 
Q 2328 2753 2575 2939 
Q 2822 3125 2822 3475 
Q 2822 3834 2567 4026 
Q 2313 4219 1838 4219 
Q 1578 4219 1281 4162 
Q 984 4106 628 3988 
L 628 4550 
Q 988 4650 1302 4700 
Q 1616 4750 1894 4750 
Q 2613 4750 3031 4423 
Q 3450 4097 3450 3541 
Q 3450 3153 3228 2886 
Q 3006 2619 2597 2516 
z
" transform="scale(0.015625)"/>
       </defs>
       <use xlink:href="#DejaVuSans-30"/>
       <use xlink:href="#DejaVuSans-2e" transform="translate(63.623047 0)"/>
       <use xlink:href="#DejaVuSans-33" transform="translate(95.410156 0)"/>
      </g>
     </g>
    </g>
    <g id="ytick_5">
     <g id="line2d_27">
      <path d="M 43.78125 149.158514 
L 490.18125 149.158514 
" clip-path="url(#p51ecd788e0)" style="fill: none; stroke-dasharray: 1.85,0.8; stroke-dashoffset: 0; stroke: #b0b0b0; stroke-opacity: 0.6; stroke-width: 0.5"/>
     </g>
     <g id="line2d_28">
      <g>
       <use xlink:href="#mfa033f2a87" x="43.78125" y="149.158514" style="stroke: #000000; stroke-width: 0.8"/>
      </g>
     </g>
     <g id="text_15">
      <!-- 0.4 -->
      <g transform="translate(20.878125 152.957733) scale(0.1 -0.1)">
       <defs>
        <path id="DejaVuSans-34" d="M 2419 4116 
L 825 1625 
L 2419 1625 
L 2419 4116 
z
M 2253 4666 
L 3047 4666 
L 3047 1625 
L 3713 1625 
L 3713 1100 
L 3047 1100 
L 3047 0 
L 2419 0 
L 2419 1100 
L 313 1100 
L 313 1709 
L 2253 4666 
z
" transform="scale(0.015625)"/>
       </defs>
       <use xlink:href="#DejaVuSans-30"/>
       <use xlink:href="#DejaVuSans-2e" transform="translate(63.623047 0)"/>
       <use xlink:href="#DejaVuSans-34" transform="translate(95.410156 0)"/>
      </g>
     </g>
    </g>
    <g id="ytick_6">
     <g id="line2d_29">
      <path d="M 43.78125 114.718612 
L 490.18125 114.718612 
" clip-path="url(#p51ecd788e0)" style="fill: none; stroke-dasharray: 1.85,0.8; stroke-dashoffset: 0; stroke: #b0b0b0; stroke-opacity: 0.6; stroke-width: 0.5"/>
     </g>
     <g id="line2d_30">
      <g>
       <use xlink:href="#mfa033f2a87" x="43.78125" y="114.718612" style="stroke: #000000; stroke-width: 0.8"/>
      </g>
     </g>
     <g id="text_16">
      <!-- 0.5 -->
      <g transform="translate(20.878125 118.517831) scale(0.1 -0.1)">
       <use xlink:href="#DejaVuSans-30"/>
       <use xlink:href="#DejaVuSans-2e" transform="translate(63.623047 0)"/>
       <use xlink:href="#DejaVuSans-35" transform="translate(95.410156 0)"/>
      </g>
     </g>
    </g>
    <g id="ytick_7">
     <g id="line2d_31">
      <path d="M 43.78125 80.278709 
L 490.18125 80.278709 
" clip-path="url(#p51ecd788e0)" style="fill: none; stroke-dasharray: 1.85,0.8; stroke-dashoffset: 0; stroke: #b0b0b0; stroke-opacity: 0.6; stroke-width: 0.5"/>
     </g>
     <g id="line2d_32">
      <g>
       <use xlink:href="#mfa033f2a87" x="43.78125" y="80.278709" style="stroke: #000000; stroke-width: 0.8"/>
      </g>
     </g>
     <g id="text_17">
      <!-- 0.6 -->
      <g transform="translate(20.878125 84.077928) scale(0.1 -0.1)">
       <defs>
        <path id="DejaVuSans-36" d="M 2113 2584 
Q 1688 2584 1439 2293 
Q 1191 2003 1191 1497 
Q 1191 994 1439 701 
Q 1688 409 2113 409 
Q 2538 409 2786 701 
Q 3034 994 3034 1497 
Q 3034 2003 2786 2293 
Q 2538 2584 2113 2584 
z
M 3366 4563 
L 3366 3988 
Q 3128 4100 2886 4159 
Q 2644 4219 2406 4219 
Q 1781 4219 1451 3797 
Q 1122 3375 1075 2522 
Q 1259 2794 1537 2939 
Q 1816 3084 2150 3084 
Q 2853 3084 3261 2657 
Q 3669 2231 3669 1497 
Q 3669 778 3244 343 
Q 2819 -91 2113 -91 
Q 1303 -91 875 529 
Q 447 1150 447 2328 
Q 447 3434 972 4092 
Q 1497 4750 2381 4750 
Q 2619 4750 2861 4703 
Q 3103 4656 3366 4563 
z
" transform="scale(0.015625)"/>
       </defs>
       <use xlink:href="#DejaVuSans-30"/>
       <use xlink:href="#DejaVuSans-2e" transform="translate(63.623047 0)"/>
       <use xlink:href="#DejaVuSans-36" transform="translate(95.410156 0)"/>
      </g>
     </g>
    </g>
    <g id="ytick_8">
     <g id="line2d_33">
      <path d="M 43.78125 45.838806 
L 490.18125 45.838806 
" clip-path="url(#p51ecd788e0)" style="fill: none; stroke-dasharray: 1.85,0.8; stroke-dashoffset: 0; stroke: #b0b0b0; stroke-opacity: 0.6; stroke-width: 0.5"/>
     </g>
     <g id="line2d_34">
      <g>
       <use xlink:href="#mfa033f2a87" x="43.78125" y="45.838806" style="stroke: #000000; stroke-width: 0.8"/>
      </g>
     </g>
     <g id="text_18">
      <!-- 0.7 -->
      <g transform="translate(20.878125 49.638025) scale(0.1 -0.1)">
       <use xlink:href="#DejaVuSans-30"/>
       <use xlink:href="#DejaVuSans-2e" transform="translate(63.623047 0)"/>
       <use xlink:href="#DejaVuSans-37" transform="translate(95.410156 0)"/>
      </g>
     </g>
    </g>
    <g id="text_19">
     <!-- Detection Ratio (Efficiency) -->
     <g transform="translate(14.798438 229.282969) rotate(-90) scale(0.1 -0.1)">
      <defs>
       <path id="DejaVuSans-65" d="M 3597 1894 
L 3597 1613 
L 953 1613 
Q 991 1019 1311 708 
Q 1631 397 2203 397 
Q 2534 397 2845 478 
Q 3156 559 3463 722 
L 3463 178 
Q 3153 47 2828 -22 
Q 2503 -91 2169 -91 
Q 1331 -91 842 396 
Q 353 884 353 1716 
Q 353 2575 817 3079 
Q 1281 3584 2069 3584 
Q 2775 3584 3186 3129 
Q 3597 2675 3597 1894 
z
M 3022 2063 
Q 3016 2534 2758 2815 
Q 2500 3097 2075 3097 
Q 1594 3097 1305 2825 
Q 1016 2553 972 2059 
L 3022 2063 
z
" transform="scale(0.015625)"/>
       <path id="DejaVuSans-63" d="M 3122 3366 
L 3122 2828 
Q 2878 2963 2633 3030 
Q 2388 3097 2138 3097 
Q 1578 3097 1268 2742 
Q 959 2388 959 1747 
Q 959 1106 1268 751 
Q 1578 397 2138 397 
Q 2388 397 2633 464 
Q 2878 531 3122 666 
L 3122 134 
Q 2881 22 2623 -34 
Q 2366 -91 2075 -91 
Q 1284 -91 818 406 
Q 353 903 353 1747 
Q 353 2603 823 3093 
Q 1294 3584 2113 3584 
Q 2378 3584 2631 3529 
Q 2884 3475 3122 3366 
z
" transform="scale(0.015625)"/>
       <path id="DejaVuSans-52" d="M 2841 2188 
Q 3044 2119 3236 1894 
Q 3428 1669 3622 1275 
L 4263 0 
L 3584 0 
L 2988 1197 
Q 2756 1666 2539 1819 
Q 2322 1972 1947 1972 
L 1259 1972 
L 1259 0 
L 628 0 
L 628 4666 
L 2053 4666 
Q 2853 4666 3247 4331 
Q 3641 3997 3641 3322 
Q 3641 2881 3436 2590 
Q 3231 2300 2841 2188 
z
M 1259 4147 
L 1259 2491 
L 2053 2491 
Q 2509 2491 2742 2702 
Q 2975 2913 2975 3322 
Q 2975 3731 2742 3939 
Q 2509 4147 2053 4147 
L 1259 4147 
z
" transform="scale(0.015625)"/>
       <path id="DejaVuSans-28" d="M 1984 4856 
Q 1566 4138 1362 3434 
Q 1159 2731 1159 2009 
Q 1159 1288 1364 580 
Q 1569 -128 1984 -844 
L 1484 -844 
Q 1016 -109 783 600 
Q 550 1309 550 2009 
Q 550 2706 781 3412 
Q 1013 4119 1484 4856 
L 1984 4856 
z
" transform="scale(0.015625)"/>
       <path id="DejaVuSans-45" d="M 628 4666 
L 3578 4666 
L 3578 4134 
L 1259 4134 
L 1259 2753 
L 3481 2753 
L 3481 2222 
L 1259 2222 
L 1259 531 
L 3634 531 
L 3634 0 
L 628 0 
L 628 4666 
z
" transform="scale(0.015625)"/>
       <path id="DejaVuSans-66" d="M 2375 4863 
L 2375 4384 
L 1825 4384 
Q 1516 4384 1395 4259 
Q 1275 4134 1275 3809 
L 1275 3500 
L 2222 3500 
L 2222 3053 
L 1275 3053 
L 1275 0 
L 697 0 
L 697 3053 
L 147 3053 
L 147 3500 
L 697 3500 
L 697 3744 
Q 697 4328 969 4595 
Q 1241 4863 1831 4863 
L 2375 4863 
z
" transform="scale(0.015625)"/>
       <path id="DejaVuSans-29" d="M 513 4856 
L 1013 4856 
Q 1481 4119 1714 3412 
Q 1947 2706 1947 2009 
Q 1947 1309 1714 600 
Q 1481 -109 1013 -844 
L 513 -844 
Q 928 -128 1133 580 
Q 1338 1288 1338 2009 
Q 1338 2731 1133 3434 
Q 928 4138 513 4856 
z
" transform="scale(0.015625)"/>
      </defs>
      <use xlink:href="#DejaVuSans-44"/>
      <use xlink:href="#DejaVuSans-65" transform="translate(77.001953 0)"/>
      <use xlink:href="#DejaVuSans-74" transform="translate(138.525391 0)"/>
      <use xlink:href="#DejaVuSans-65" transform="translate(177.734375 0)"/>
      <use xlink:href="#DejaVuSans-63" transform="translate(239.257812 0)"/>
      <use xlink:href="#DejaVuSans-74" transform="translate(294.238281 0)"/>
      <use xlink:href="#DejaVuSans-69" transform="translate(333.447266 0)"/>
      <use xlink:href="#DejaVuSans-6f" transform="translate(361.230469 0)"/>
      <use xlink:href="#DejaVuSans-6e" transform="translate(422.412109 0)"/>
      <use xlink:href="#DejaVuSans-20" transform="translate(485.791016 0)"/>
      <use xlink:href="#DejaVuSans-52" transform="translate(517.578125 0)"/>
      <use xlink:href="#DejaVuSans-61" transform="translate(584.810547 0)"/>
      <use xlink:href="#DejaVuSans-74" transform="translate(646.089844 0)"/>
      <use xlink:href="#DejaVuSans-69" transform="translate(685.298828 0)"/>
      <use xlink:href="#DejaVuSans-6f" transform="translate(713.082031 0)"/>
      <use xlink:href="#DejaVuSans-20" transform="translate(774.263672 0)"/>
      <use xlink:href="#DejaVuSans-28" transform="translate(806.050781 0)"/>
      <use xlink:href="#DejaVuSans-45" transform="translate(845.064453 0)"/>
      <use xlink:href="#DejaVuSans-66" transform="translate(908.248047 0)"/>
      <use xlink:href="#DejaVuSans-66" transform="translate(943.453125 0)"/>
      <use xlink:href="#DejaVuSans-69" transform="translate(978.658203 0)"/>
      <use xlink:href="#DejaVuSans-63" transform="translate(1006.441406 0)"/>
      <use xlink:href="#DejaVuSans-69" transform="translate(1061.421875 0)"/>
      <use xlink:href="#DejaVuSans-65" transform="translate(1089.205078 0)"/>
      <use xlink:href="#DejaVuSans-6e" transform="translate(1150.728516 0)"/>
      <use xlink:href="#DejaVuSans-63" transform="translate(1214.107422 0)"/>
      <use xlink:href="#DejaVuSans-79" transform="translate(1269.087891 0)"/>
      <use xlink:href="#DejaVuSans-29" transform="translate(1328.267578 0)"/>
     </g>
    </g>
   </g>
   <g id="line2d_35">
    <path d="M 64.072159 286.918125 
L 163.997239 286.918125 
L 166.036526 234.661218 
L 168.075814 220.975095 
L 170.115101 211.042316 
L 172.154388 207.770242 
L 174.193676 200.374352 
L 176.232963 193.460066 
L 178.27225 182.906279 
L 180.311538 176.70357 
L 182.350825 171.013499 
L 184.390112 164.680295 
L 186.4294 158.926932 
L 188.468687 158.083304 
L 190.507975 151.579727 
L 192.547262 145.87533 
L 194.586549 142.34178 
L 196.625837 138.529844 
L 198.665124 137.661217 
L 200.704411 128.772035 
L 202.743699 121.564652 
L 204.782986 121.408106 
L 206.822273 113.765151 
L 208.861561 109.928483 
L 210.900848 102.161815 
L 214.979423 95.552415 
L 217.01871 94.464923 
L 219.057997 96.487236 
L 221.097285 97.604328 
L 223.136572 95.651042 
L 225.175859 97.445577 
L 227.215147 81.416604 
L 229.254434 81.883603 
L 231.293721 83.75538 
L 233.333009 87.574835 
L 235.372296 85.476201 
L 237.411583 81.197409 
L 239.450871 90.928669 
L 241.490158 90.27513 
L 243.529446 84.705158 
L 245.568733 83.280097 
L 247.60802 79.30912 
L 249.647308 80.114031 
L 251.686595 81.940261 
L 253.725882 84.423419 
L 255.76517 83.770879 
L 257.804457 84.88471 
L 259.843744 84.477567 
L 261.883032 78.40658 
L 263.922319 78.625981 
L 265.961606 80.47818 
L 268.000894 88.584277 
L 270.040181 107.307377 
L 272.079468 110.155367 
L 274.118756 108.34312 
L 276.158043 101.407179 
L 278.19733 100.950981 
L 280.236618 99.925264 
L 282.275905 102.985123 
L 284.315192 102.329835 
L 286.35448 104.524415 
L 288.393767 102.132514 
L 290.433054 105.066599 
L 292.472342 103.722717 
L 294.511629 105.938902 
L 296.550917 106.49772 
L 298.590204 107.762568 
L 300.629491 106.830528 
L 302.668779 115.805902 
L 304.708066 113.019063 
L 306.747353 113.365269 
L 308.786641 109.177738 
L 310.825928 99.759255 
L 312.865215 96.423341 
L 314.904503 96.31807 
L 316.94379 111.906321 
L 318.983077 114.338982 
L 321.022365 103.457074 
L 323.061652 103.367416 
L 325.100939 115.711972 
L 327.140227 121.620449 
L 329.179514 117.817832 
L 331.218801 119.218717 
L 333.258089 117.830622 
L 335.297376 117.007617 
L 337.336663 118.953634 
L 339.375951 117.704085 
L 341.415238 106.12211 
L 343.454525 107.030479 
L 345.493813 106.62583 
L 347.5331 107.96547 
L 349.572388 108.994248 
L 351.611675 113.199194 
L 353.650962 119.685662 
L 355.69025 131.922632 
L 357.729537 126.437602 
L 359.768824 125.051231 
L 361.808112 130.150319 
L 363.847399 116.230952 
L 365.886686 117.379473 
L 367.925974 112.798023 
L 369.965261 93.279086 
L 372.004548 102.513397 
L 374.043836 99.516307 
L 376.083123 98.733793 
L 378.12241 95.295359 
L 380.161698 96.571037 
L 382.200985 121.284869 
L 384.240272 124.012134 
L 386.27956 131.831837 
L 388.318847 127.877132 
L 390.358134 127.489917 
L 392.397422 126.38616 
L 394.436709 127.662751 
L 396.475996 123.795322 
L 398.515284 128.629681 
L 400.554571 129.240686 
L 402.593858 123.39015 
L 404.633146 120.834754 
L 406.672433 117.572981 
L 408.711721 119.507797 
L 410.751008 123.067282 
L 412.790295 122.202368 
L 414.829583 127.483944 
L 416.86887 127.480003 
L 420.947445 120.191685 
L 422.986732 124.291362 
L 425.026019 115.796245 
L 427.065307 116.735573 
L 429.104594 117.288862 
L 431.143881 116.219388 
L 433.183169 118.060911 
L 435.222456 116.932302 
L 437.261743 116.039506 
L 439.301031 115.448671 
L 441.340318 115.768978 
L 443.379605 112.421972 
L 445.418893 117.361171 
L 447.45818 118.203241 
L 449.497467 119.532679 
L 451.536755 105.227615 
L 453.576042 111.044747 
L 455.615329 115.770133 
L 457.654617 117.674652 
L 459.693904 118.669593 
L 461.733192 115.367989 
L 463.772479 117.747123 
L 465.811766 118.991231 
L 467.851054 108.28545 
L 469.890341 111.068406 
L 469.890341 111.068406 
" clip-path="url(#p51ecd788e0)" style="fill: none; stroke: #1f77b4; stroke-width: 2; stroke-linecap: square"/>
   </g>
   <g id="line2d_36">
    <path d="M 64.072159 286.918125 
L 163.997239 286.918125 
L 166.036526 242.474441 
L 174.193676 203.176046 
L 176.232963 195.250104 
L 178.27225 191.669941 
L 180.311538 187.794656 
L 182.350825 178.404524 
L 184.390112 177.005037 
L 186.4294 175.095667 
L 188.468687 175.016895 
L 190.507975 162.631133 
L 192.547262 156.045087 
L 194.586549 144.405521 
L 196.625837 141.530566 
L 198.665124 136.683174 
L 200.704411 132.70098 
L 202.743699 129.716939 
L 204.782986 127.900967 
L 206.822273 130.076537 
L 208.861561 129.460956 
L 210.900848 123.669203 
L 212.940135 120.282378 
L 214.979423 118.083014 
L 217.01871 115.084807 
L 219.057997 114.528747 
L 221.097285 111.514229 
L 223.136572 111.775456 
L 225.175859 112.227863 
L 227.215147 98.294183 
L 229.254434 89.969477 
L 231.293721 86.734377 
L 233.333009 86.460738 
L 235.372296 85.294981 
L 237.411583 84.794142 
L 239.450871 84.723897 
L 241.490158 87.170699 
L 243.529446 83.617553 
L 245.568733 80.513127 
L 247.60802 84.519096 
L 249.647308 83.967826 
L 251.686595 87.657041 
L 253.725882 85.056211 
L 255.76517 85.120871 
L 257.804457 93.825215 
L 259.843744 93.688964 
L 261.883032 81.760998 
L 265.961606 82.236452 
L 268.000894 77.593616 
L 270.040181 69.664465 
L 272.079468 59.03883 
L 274.118756 57.801331 
L 276.158043 69.049642 
L 278.19733 67.888075 
L 280.236618 67.697538 
L 282.275905 71.04759 
L 284.315192 68.866158 
L 286.35448 69.815179 
L 288.393767 68.207531 
L 290.433054 76.154337 
L 292.472342 66.064184 
L 294.511629 65.73911 
L 296.550917 67.043992 
L 298.590204 69.740196 
L 300.629491 68.234686 
L 302.668779 67.876039 
L 306.747353 68.257205 
L 308.786641 71.198305 
L 312.865215 69.646519 
L 314.904503 70.485399 
L 316.94379 65.920351 
L 318.983077 67.90058 
L 321.022365 66.364516 
L 323.061652 68.00299 
L 325.100939 82.660774 
L 327.140227 83.519396 
L 329.179514 94.454576 
L 331.218801 92.862172 
L 333.258089 74.051568 
L 335.297376 73.855612 
L 337.336663 55.872563 
L 339.375951 59.286459 
L 341.415238 64.546511 
L 343.454525 65.752228 
L 345.493813 69.959719 
L 347.5331 71.364033 
L 349.572388 69.090817 
L 351.611675 71.348822 
L 353.650962 69.754902 
L 355.69025 73.534806 
L 357.729537 72.945009 
L 359.768824 70.087716 
L 361.808112 69.161334 
L 363.847399 73.99387 
L 365.886686 76.473071 
L 367.925974 73.608992 
L 369.965261 69.075014 
L 372.004548 68.354399 
L 374.043836 68.548711 
L 376.083123 67.023765 
L 378.12241 63.297223 
L 380.161698 62.922891 
L 382.200985 59.209558 
L 384.240272 59.889843 
L 386.27956 56.737541 
L 388.318847 53.274257 
L 390.358134 55.769815 
L 392.397422 53.98789 
L 394.436709 59.709923 
L 396.475996 69.775349 
L 398.515284 72.591231 
L 400.554571 73.521344 
L 402.593858 77.673965 
L 404.633146 78.763256 
L 406.672433 150.399824 
L 408.711721 145.130976 
L 410.751008 147.876062 
L 412.790295 149.0009 
L 414.829583 148.230958 
L 416.86887 145.287982 
L 418.908157 149.694055 
L 420.947445 151.161858 
L 422.986732 158.591746 
L 425.026019 163.665285 
L 427.065307 164.536054 
L 429.104594 165.811227 
L 431.143881 154.202637 
L 433.183169 156.754755 
L 435.222456 154.758933 
L 437.261743 151.367442 
L 439.301031 150.77516 
L 441.340318 153.499922 
L 443.379605 139.150815 
L 445.418893 135.330771 
L 447.45818 143.462174 
L 449.497467 136.309156 
L 451.536755 135.317106 
L 453.576042 142.889667 
L 455.615329 144.431952 
L 457.654617 139.759124 
L 459.693904 143.789123 
L 461.733192 157.128052 
L 463.772479 153.232569 
L 465.811766 146.090836 
L 469.890341 140.924575 
L 469.890341 140.924575 
" clip-path="url(#p51ecd788e0)" style="fill: none; stroke: #ff7f0e; stroke-width: 2; stroke-linecap: square"/>
   </g>
   <g id="line2d_37">
    <path d="M 64.072159 286.918125 
L 163.997239 286.918125 
L 166.036526 271.246166 
L 168.075814 260.270349 
L 170.115101 248.040931 
L 172.154388 244.4344 
L 174.193676 241.409709 
L 176.232963 234.643966 
L 178.27225 234.312672 
L 180.311538 231.572014 
L 182.350825 231.190334 
L 184.390112 228.932221 
L 186.4294 225.533645 
L 188.468687 223.574565 
L 192.547262 213.800011 
L 194.586549 211.908133 
L 196.625837 212.415086 
L 198.665124 202.338021 
L 200.704411 201.299066 
L 202.743699 198.084327 
L 204.782986 197.539056 
L 206.822273 192.167547 
L 208.861561 182.922766 
L 210.900848 181.995146 
L 212.940135 179.00868 
L 214.979423 176.479915 
L 217.01871 176.721876 
L 219.057997 172.663208 
L 221.097285 173.399087 
L 223.136572 164.587798 
L 225.175859 156.632334 
L 227.215147 144.495818 
L 233.333009 119.025759 
L 235.372296 106.063736 
L 239.450871 92.543566 
L 241.490158 88.228002 
L 245.568733 82.707148 
L 247.60802 80.274476 
L 249.647308 65.519005 
L 251.686595 64.464916 
L 253.725882 63.563754 
L 255.76517 60.641151 
L 257.804457 57.321217 
L 259.843744 56.050783 
L 261.883032 56.051092 
L 263.922319 55.323426 
L 265.961606 54.267169 
L 268.000894 54.436681 
L 270.040181 54.19657 
L 272.079468 54.475256 
L 274.118756 53.357745 
L 276.158043 53.837282 
L 278.19733 53.6273 
L 280.236618 54.983176 
L 282.275905 53.542286 
L 284.315192 54.067698 
L 286.35448 121.394007 
L 288.393767 117.772058 
L 290.433054 116.291606 
L 292.472342 114.217652 
L 294.511629 111.630068 
L 296.550917 111.973826 
L 298.590204 111.072099 
L 300.629491 110.511993 
L 302.668779 109.075881 
L 304.708066 107.915525 
L 306.747353 107.840029 
L 310.825928 113.250086 
L 312.865215 114.009436 
L 314.904503 112.033112 
L 316.94379 112.407993 
L 318.983077 109.693649 
L 321.022365 109.726203 
L 323.061652 108.518049 
L 325.100939 110.070045 
L 327.140227 110.911345 
L 329.179514 110.612554 
L 331.218801 110.557524 
L 333.258089 112.251229 
L 335.297376 117.175985 
L 337.336663 119.210699 
L 339.375951 120.790445 
L 341.415238 121.010448 
L 343.454525 118.96962 
L 345.493813 120.284792 
L 347.5331 127.897594 
L 349.572388 126.048818 
L 351.611675 120.50352 
L 353.650962 115.312984 
L 355.69025 116.93642 
L 357.729537 117.492388 
L 359.768824 114.10973 
L 361.808112 109.025397 
L 363.847399 107.577523 
L 365.886686 104.768453 
L 367.925974 103.605669 
L 369.965261 102.119332 
L 372.004548 106.764487 
L 374.043836 107.281697 
L 376.083123 108.853831 
L 378.12241 108.308877 
L 380.161698 105.06182 
L 382.200985 105.359487 
L 384.240272 104.260324 
L 386.27956 105.192909 
L 388.318847 109.590781 
L 390.358134 111.073966 
L 392.397422 117.662793 
L 394.436709 113.465181 
L 396.475996 108.690759 
L 398.515284 116.195184 
L 400.554571 114.053982 
L 402.593858 115.519824 
L 404.633146 115.484335 
L 406.672433 118.770586 
L 408.711721 115.32059 
L 410.751008 112.484197 
L 412.790295 114.381495 
L 414.829583 117.362066 
L 416.86887 116.275075 
L 418.908157 125.266239 
L 420.947445 124.191443 
L 422.986732 120.819853 
L 425.026019 117.889214 
L 427.065307 108.367723 
L 429.104594 114.518831 
L 431.143881 119.50712 
L 435.222456 108.981923 
L 437.261743 101.960263 
L 439.301031 100.610803 
L 441.340318 101.191793 
L 443.379605 102.341826 
L 445.418893 111.285046 
L 447.45818 110.772997 
L 449.497467 103.415259 
L 451.536755 103.462735 
L 453.576042 109.029331 
L 455.615329 121.472895 
L 457.654617 119.005923 
L 459.693904 120.253072 
L 461.733192 106.208207 
L 463.772479 106.135878 
L 465.811766 115.441357 
L 467.851054 115.114852 
L 469.890341 112.97448 
L 469.890341 112.97448 
" clip-path="url(#p51ecd788e0)" style="fill: none; stroke: #2ca02c; stroke-width: 2; stroke-linecap: square"/>
   </g>
   <g id="line2d_38">
    <path d="M 64.072159 286.918125 
L 163.997239 286.918125 
L 166.036526 283.361911 
L 170.115101 276.836906 
L 172.154388 274.084057 
L 176.232963 269.171076 
L 178.27225 266.907562 
L 180.311538 265.114042 
L 182.350825 262.996174 
L 184.390112 261.25988 
L 186.4294 259.142077 
L 188.468687 256.373068 
L 190.507975 255.295938 
L 192.547262 253.450337 
L 194.586549 252.212689 
L 196.625837 249.676877 
L 198.665124 247.450864 
L 204.782986 241.955799 
L 206.822273 240.495757 
L 208.861561 238.62308 
L 212.940135 234.156988 
L 214.979423 231.242187 
L 217.01871 227.834864 
L 219.057997 224.689014 
L 221.097285 152.882968 
L 223.136572 149.365133 
L 225.175859 146.230872 
L 227.215147 134.868685 
L 231.293721 115.444206 
L 235.372296 97.140337 
L 239.450871 82.199916 
L 241.490158 76.531844 
L 243.529446 71.805714 
L 245.568733 136.796409 
L 247.60802 133.361107 
L 249.647308 131.414537 
L 253.725882 126.342769 
L 255.76517 124.69571 
L 257.804457 122.792042 
L 259.843744 121.245462 
L 261.883032 120.876524 
L 263.922319 121.168888 
L 270.040181 120.466231 
L 272.079468 121.586329 
L 274.118756 121.365188 
L 276.158043 120.145844 
L 278.19733 120.329419 
L 280.236618 118.367946 
L 282.275905 117.849399 
L 284.315192 118.916277 
L 286.35448 120.815715 
L 288.393767 121.09933 
L 290.433054 119.724004 
L 292.472342 121.764907 
L 294.511629 121.732136 
L 296.550917 119.496634 
L 298.590204 118.086359 
L 300.629491 117.584153 
L 302.668779 116.109095 
L 304.708066 111.029005 
L 306.747353 109.322399 
L 308.786641 109.020691 
L 310.825928 110.352922 
L 312.865215 109.212425 
L 314.904503 112.015939 
L 316.94379 109.674404 
L 318.983077 105.759198 
L 321.022365 106.891465 
L 323.061652 106.597191 
L 325.100939 108.340171 
L 327.140227 106.381937 
L 329.179514 107.074318 
L 331.218801 109.143462 
L 333.258089 109.401176 
L 335.297376 112.352335 
L 337.336663 113.028144 
L 339.375951 107.615696 
L 341.415238 104.720502 
L 343.454525 105.440618 
L 345.493813 104.337167 
L 347.5331 102.773929 
L 349.572388 105.195772 
L 351.611675 107.18681 
L 353.650962 111.78417 
L 355.69025 113.749225 
L 357.729537 116.288129 
L 359.768824 120.716016 
L 361.808112 120.4763 
L 363.847399 119.168485 
L 365.886686 118.053576 
L 367.925974 117.694129 
L 369.965261 115.711889 
L 372.004548 115.895661 
L 374.043836 119.483132 
L 376.083123 118.538473 
L 378.12241 123.069139 
L 380.161698 114.857522 
L 382.200985 114.912345 
L 384.240272 112.029258 
L 386.27956 107.117285 
L 388.318847 111.402407 
L 390.358134 109.967918 
L 392.397422 113.668659 
L 394.436709 112.374481 
L 396.475996 112.755195 
L 398.515284 107.533967 
L 400.554571 109.465232 
L 402.593858 113.956664 
L 404.633146 118.846292 
L 406.672433 118.734914 
L 408.711721 121.248031 
L 410.751008 112.980672 
L 412.790295 114.552606 
L 414.829583 122.607346 
L 416.86887 116.194055 
L 418.908157 113.803138 
L 420.947445 114.99652 
L 422.986732 110.167092 
L 425.026019 107.564586 
L 427.065307 114.277075 
L 429.104594 113.134705 
L 431.143881 114.154985 
L 433.183169 111.91978 
L 435.222456 106.11477 
L 437.261743 107.570115 
L 439.301031 105.707862 
L 441.340318 100.037979 
L 443.379605 103.778845 
L 445.418893 109.76169 
L 447.45818 109.691178 
L 449.497467 111.583005 
L 451.536755 118.674547 
L 453.576042 111.878438 
L 455.615329 111.691856 
L 457.654617 122.372688 
L 459.693904 109.490024 
L 461.733192 111.062387 
L 463.772479 115.821881 
L 465.811766 101.665166 
L 467.851054 105.628425 
L 469.890341 107.781992 
L 469.890341 107.781992 
" clip-path="url(#p51ecd788e0)" style="fill: none; stroke: #d62728; stroke-width: 2; stroke-linecap: square"/>
   </g>
   <g id="line2d_39">
    <path d="M 64.072159 286.918125 
L 163.997239 286.918125 
L 166.036526 264.268403 
L 168.075814 252.305683 
L 170.115101 239.284613 
L 172.154388 236.29999 
L 174.193676 231.270976 
L 176.232963 222.156038 
L 178.27225 220.626259 
L 180.311538 221.034913 
L 182.350825 219.51832 
L 184.390112 218.377792 
L 186.4294 223.783534 
L 188.468687 222.352718 
L 190.507975 225.528961 
L 192.547262 223.922891 
L 194.586549 215.762565 
L 196.625837 200.665262 
L 198.665124 199.137214 
L 200.704411 200.657118 
L 202.743699 198.476617 
L 204.782986 202.58644 
L 206.822273 211.967025 
L 208.861561 209.472751 
L 210.900848 207.654869 
L 217.01871 199.740037 
L 219.057997 196.092975 
L 221.097285 193.205576 
L 223.136572 155.682057 
L 225.175859 152.462027 
L 229.254434 131.371352 
L 231.293721 189.997644 
L 233.333009 180.790105 
L 237.411583 167.855131 
L 239.450871 163.656684 
L 241.490158 159.973398 
L 243.529446 157.783031 
L 245.568733 154.518035 
L 247.60802 151.620056 
L 249.647308 149.820059 
L 251.686595 145.944851 
L 253.725882 142.568122 
L 255.76517 139.826158 
L 257.804457 137.890205 
L 259.843744 135.404321 
L 261.883032 133.574628 
L 263.922319 132.189633 
L 265.961606 130.521337 
L 268.000894 127.677989 
L 270.040181 128.084474 
L 272.079468 127.954715 
L 274.118756 126.307022 
L 276.158043 123.885079 
L 278.19733 124.779548 
L 280.236618 123.735796 
L 282.275905 123.27476 
L 284.315192 121.07081 
L 286.35448 121.720495 
L 288.393767 119.894878 
L 290.433054 117.608125 
L 292.472342 118.356146 
L 294.511629 117.663931 
L 296.550917 115.990662 
L 300.629491 117.579956 
L 302.668779 118.126062 
L 304.708066 116.310722 
L 306.747353 116.834504 
L 308.786641 117.755764 
L 310.825928 117.915327 
L 312.865215 118.861034 
L 314.904503 119.5248 
L 316.94379 118.964828 
L 318.983077 121.330179 
L 321.022365 123.309419 
L 323.061652 127.682495 
L 325.100939 127.563098 
L 327.140227 128.057557 
L 329.179514 123.959778 
L 331.218801 124.771713 
L 333.258089 122.315327 
L 335.297376 117.943235 
L 337.336663 118.816669 
L 339.375951 120.441072 
L 341.415238 122.750319 
L 343.454525 124.359304 
L 345.493813 127.738974 
L 347.5331 125.797304 
L 349.572388 124.155778 
L 351.611675 126.53268 
L 353.650962 127.586412 
L 355.69025 127.031503 
L 357.729537 128.706285 
L 359.768824 131.171391 
L 361.808112 130.749941 
L 363.847399 129.880115 
L 365.886686 132.609841 
L 367.925974 135.557997 
L 369.965261 125.57403 
L 372.004548 127.023887 
L 374.043836 122.922139 
L 376.083123 123.394575 
L 378.12241 127.107138 
L 380.161698 125.340364 
L 382.200985 129.896614 
L 384.240272 123.903897 
L 386.27956 124.954925 
L 388.318847 117.344118 
L 390.358134 116.182511 
L 392.397422 113.240008 
L 394.436709 111.363376 
L 396.475996 108.84248 
L 398.515284 109.058219 
L 400.554571 110.967327 
L 402.593858 106.347586 
L 404.633146 102.840129 
L 406.672433 99.072343 
L 408.711721 92.198757 
L 410.751008 94.740136 
L 412.790295 102.339456 
L 414.829583 100.221267 
L 416.86887 101.153195 
L 418.908157 101.538918 
L 420.947445 106.098284 
L 422.986732 107.989803 
L 427.065307 110.017292 
L 429.104594 112.068104 
L 431.143881 117.143443 
L 433.183169 119.633164 
L 435.222456 118.646655 
L 437.261743 118.307939 
L 439.301031 118.232237 
L 441.340318 108.575574 
L 443.379605 110.427096 
L 445.418893 106.001547 
L 449.497467 103.773462 
L 451.536755 104.674505 
L 453.576042 101.571577 
L 455.615329 102.910645 
L 457.654617 98.951236 
L 459.693904 100.551588 
L 461.733192 97.155892 
L 463.772479 96.9866 
L 465.811766 98.787949 
L 467.851054 101.271797 
L 469.890341 99.709712 
L 469.890341 99.709712 
" clip-path="url(#p51ecd788e0)" style="fill: none; stroke: #9467bd; stroke-width: 2; stroke-linecap: square"/>
   </g>
   <g id="line2d_40">
    <path d="M 64.072159 286.918125 
L 163.997239 286.918125 
L 166.036526 266.100307 
L 172.154388 243.683456 
L 174.193676 242.265185 
L 176.232963 238.169277 
L 178.27225 231.281029 
L 180.311538 231.599592 
L 182.350825 232.502436 
L 184.390112 227.652032 
L 186.4294 224.962631 
L 188.468687 223.069943 
L 190.507975 224.988735 
L 192.547262 228.159847 
L 194.586549 226.071609 
L 196.625837 224.27479 
L 198.665124 217.272952 
L 200.704411 215.454266 
L 202.743699 220.466873 
L 204.782986 218.019725 
L 206.822273 215.90111 
L 210.900848 211.178608 
L 212.940135 209.116782 
L 214.979423 198.918752 
L 217.01871 202.671114 
L 219.057997 192.944321 
L 221.097285 190.198095 
L 223.136572 198.734415 
L 225.175859 195.839269 
L 227.215147 183.98264 
L 229.254434 173.810413 
L 231.293721 143.364609 
L 233.333009 148.441258 
L 235.372296 142.448445 
L 237.411583 148.729968 
L 239.450871 167.196821 
L 241.490158 162.983677 
L 243.529446 159.881451 
L 245.568733 155.994495 
L 247.60802 154.718686 
L 251.686595 150.987163 
L 255.76517 146.246989 
L 257.804457 146.024156 
L 259.843744 145.369481 
L 261.883032 143.396022 
L 265.961606 141.197451 
L 268.000894 140.137335 
L 270.040181 140.794812 
L 272.079468 138.265165 
L 274.118756 137.787639 
L 276.158043 137.854768 
L 278.19733 136.573214 
L 280.236618 133.059004 
L 282.275905 108.826787 
L 284.315192 114.444031 
L 286.35448 96.857904 
L 288.393767 103.91897 
L 290.433054 102.612496 
L 292.472342 107.111156 
L 294.511629 104.738536 
L 296.550917 103.375369 
L 298.590204 101.824101 
L 300.629491 101.255144 
L 302.668779 100.219593 
L 304.708066 100.658625 
L 306.747353 99.069746 
L 308.786641 100.466734 
L 310.825928 98.266614 
L 312.865215 97.58614 
L 314.904503 95.193386 
L 316.94379 97.008873 
L 318.983077 98.536264 
L 321.022365 98.592706 
L 323.061652 95.838935 
L 325.100939 96.770562 
L 327.140227 89.459735 
L 329.179514 94.588113 
L 331.218801 108.922962 
L 333.258089 109.777505 
L 335.297376 109.516557 
L 337.336663 108.132296 
L 339.375951 113.370156 
L 341.415238 88.273893 
L 343.454525 83.014965 
L 345.493813 84.745247 
L 347.5331 76.601363 
L 349.572388 77.693219 
L 351.611675 77.310387 
L 353.650962 71.619949 
L 355.69025 68.83794 
L 357.729537 69.671498 
L 359.768824 72.430188 
L 361.808112 36.480608 
L 363.847399 34.918125 
L 365.886686 40.449975 
L 367.925974 45.501165 
L 369.965261 46.671916 
L 372.004548 46.054779 
L 374.043836 47.438101 
L 376.083123 49.467265 
L 378.12241 49.177762 
L 380.161698 55.764586 
L 382.200985 50.936629 
L 384.240272 53.358988 
L 386.27956 52.393575 
L 388.318847 56.584723 
L 390.358134 51.186232 
L 392.397422 54.755239 
L 394.436709 122.376452 
L 396.475996 120.707807 
L 398.515284 123.611799 
L 400.554571 125.781661 
L 402.593858 123.804087 
L 404.633146 118.289862 
L 406.672433 117.935332 
L 408.711721 115.897 
L 410.751008 116.948003 
L 412.790295 113.775806 
L 414.829583 109.933684 
L 416.86887 107.102095 
L 418.908157 108.45048 
L 420.947445 105.277619 
L 422.986732 103.333853 
L 425.026019 101.087033 
L 427.065307 107.735785 
L 429.104594 104.715336 
L 431.143881 106.227945 
L 433.183169 105.970199 
L 435.222456 107.344178 
L 437.261743 106.335646 
L 439.301031 111.761697 
L 441.340318 113.867324 
L 443.379605 113.504124 
L 445.418893 113.260763 
L 447.45818 111.740791 
L 449.497467 114.239567 
L 451.536755 112.719506 
L 453.576042 111.438621 
L 455.615329 112.720188 
L 457.654617 110.044081 
L 459.693904 113.487654 
L 461.733192 102.997468 
L 463.772479 103.487471 
L 465.811766 105.191871 
L 467.851054 101.858608 
L 469.890341 105.645897 
L 469.890341 105.645897 
" clip-path="url(#p51ecd788e0)" style="fill: none; stroke: #8c564b; stroke-width: 2; stroke-linecap: square"/>
   </g>
   <g id="patch_3">
    <path d="M 43.78125 299.518125 
L 43.78125 22.318125 
" style="fill: none; stroke: #000000; stroke-width: 0.8; stroke-linejoin: miter; stroke-linecap: square"/>
   </g>
   <g id="patch_4">
    <path d="M 490.18125 299.518125 
L 490.18125 22.318125 
" style="fill: none; stroke: #000000; stroke-width: 0.8; stroke-linejoin: miter; stroke-linecap: square"/>
   </g>
   <g id="patch_5">
    <path d="M 43.78125 299.518125 
L 490.18125 299.518125 
" style="fill: none; stroke: #000000; stroke-width: 0.8; stroke-linejoin: miter; stroke-linecap: square"/>
   </g>
   <g id="patch_6">
    <path d="M 43.78125 22.318125 
L 490.18125 22.318125 
" style="fill: none; stroke: #000000; stroke-width: 0.8; stroke-linejoin: miter; stroke-linecap: square"/>
   </g>
   <g id="text_20">
    <!-- Detection Ratio vs Time - Peak 80 -->
    <g transform="translate(165.590625 16.318125) scale(0.12 -0.12)">
     <defs>
      <path id="DejaVuSans-76" d="M 191 3500 
L 800 3500 
L 1894 563 
L 2988 3500 
L 3597 3500 
L 2284 0 
L 1503 0 
L 191 3500 
z
" transform="scale(0.015625)"/>
      <path id="DejaVuSans-73" d="M 2834 3397 
L 2834 2853 
Q 2591 2978 2328 3040 
Q 2066 3103 1784 3103 
Q 1356 3103 1142 2972 
Q 928 2841 928 2578 
Q 928 2378 1081 2264 
Q 1234 2150 1697 2047 
L 1894 2003 
Q 2506 1872 2764 1633 
Q 3022 1394 3022 966 
Q 3022 478 2636 193 
Q 2250 -91 1575 -91 
Q 1294 -91 989 -36 
Q 684 19 347 128 
L 347 722 
Q 666 556 975 473 
Q 1284 391 1588 391 
Q 1994 391 2212 530 
Q 2431 669 2431 922 
Q 2431 1156 2273 1281 
Q 2116 1406 1581 1522 
L 1381 1569 
Q 847 1681 609 1914 
Q 372 2147 372 2553 
Q 372 3047 722 3315 
Q 1072 3584 1716 3584 
Q 2034 3584 2315 3537 
Q 2597 3491 2834 3397 
z
" transform="scale(0.015625)"/>
      <path id="DejaVuSans-54" d="M -19 4666 
L 3928 4666 
L 3928 4134 
L 2272 4134 
L 2272 0 
L 1638 0 
L 1638 4134 
L -19 4134 
L -19 4666 
z
" transform="scale(0.015625)"/>
      <path id="DejaVuSans-2d" d="M 313 2009 
L 1997 2009 
L 1997 1497 
L 313 1497 
L 313 2009 
z
" transform="scale(0.015625)"/>
      <path id="DejaVuSans-50" d="M 1259 4147 
L 1259 2394 
L 2053 2394 
Q 2494 2394 2734 2622 
Q 2975 2850 2975 3272 
Q 2975 3691 2734 3919 
Q 2494 4147 2053 4147 
L 1259 4147 
z
M 628 4666 
L 2053 4666 
Q 2838 4666 3239 4311 
Q 3641 3956 3641 3272 
Q 3641 2581 3239 2228 
Q 2838 1875 2053 1875 
L 1259 1875 
L 1259 0 
L 628 0 
L 628 4666 
z
" transform="scale(0.015625)"/>
      <path id="DejaVuSans-6b" d="M 581 4863 
L 1159 4863 
L 1159 1991 
L 2875 3500 
L 3609 3500 
L 1753 1863 
L 3688 0 
L 2938 0 
L 1159 1709 
L 1159 0 
L 581 0 
L 581 4863 
z
" transform="scale(0.015625)"/>
      <path id="DejaVuSans-38" d="M 2034 2216 
Q 1584 2216 1326 1975 
Q 1069 1734 1069 1313 
Q 1069 891 1326 650 
Q 1584 409 2034 409 
Q 2484 409 2743 651 
Q 3003 894 3003 1313 
Q 3003 1734 2745 1975 
Q 2488 2216 2034 2216 
z
M 1403 2484 
Q 997 2584 770 2862 
Q 544 3141 544 3541 
Q 544 4100 942 4425 
Q 1341 4750 2034 4750 
Q 2731 4750 3128 4425 
Q 3525 4100 3525 3541 
Q 3525 3141 3298 2862 
Q 3072 2584 2669 2484 
Q 3125 2378 3379 2068 
Q 3634 1759 3634 1313 
Q 3634 634 3220 271 
Q 2806 -91 2034 -91 
Q 1263 -91 848 271 
Q 434 634 434 1313 
Q 434 1759 690 2068 
Q 947 2378 1403 2484 
z
M 1172 3481 
Q 1172 3119 1398 2916 
Q 1625 2713 2034 2713 
Q 2441 2713 2670 2916 
Q 2900 3119 2900 3481 
Q 2900 3844 2670 4047 
Q 2441 4250 2034 4250 
Q 1625 4250 1398 4047 
Q 1172 3844 1172 3481 
z
" transform="scale(0.015625)"/>
     </defs>
     <use xlink:href="#DejaVuSans-44"/>
     <use xlink:href="#DejaVuSans-65" transform="translate(77.001953 0)"/>
     <use xlink:href="#DejaVuSans-74" transform="translate(138.525391 0)"/>
     <use xlink:href="#DejaVuSans-65" transform="translate(177.734375 0)"/>
     <use xlink:href="#DejaVuSans-63" transform="translate(239.257812 0)"/>
     <use xlink:href="#DejaVuSans-74" transform="translate(294.238281 0)"/>
     <use xlink:href="#DejaVuSans-69" transform="translate(333.447266 0)"/>
     <use xlink:href="#DejaVuSans-6f" transform="translate(361.230469 0)"/>
     <use xlink:href="#DejaVuSans-6e" transform="translate(422.412109 0)"/>
     <use xlink:href="#DejaVuSans-20" transform="translate(485.791016 0)"/>
     <use xlink:href="#DejaVuSans-52" transform="translate(517.578125 0)"/>
     <use xlink:href="#DejaVuSans-61" transform="translate(584.810547 0)"/>
     <use xlink:href="#DejaVuSans-74" transform="translate(646.089844 0)"/>
     <use xlink:href="#DejaVuSans-69" transform="translate(685.298828 0)"/>
     <use xlink:href="#DejaVuSans-6f" transform="translate(713.082031 0)"/>
     <use xlink:href="#DejaVuSans-20" transform="translate(774.263672 0)"/>
     <use xlink:href="#DejaVuSans-76" transform="translate(806.050781 0)"/>
     <use xlink:href="#DejaVuSans-73" transform="translate(865.230469 0)"/>
     <use xlink:href="#DejaVuSans-20" transform="translate(917.330078 0)"/>
     <use xlink:href="#DejaVuSans-54" transform="translate(949.117188 0)"/>
     <use xlink:href="#DejaVuSans-69" transform="translate(1007.076172 0)"/>
     <use xlink:href="#DejaVuSans-6d" transform="translate(1034.859375 0)"/>
     <use xlink:href="#DejaVuSans-65" transform="translate(1132.271484 0)"/>
     <use xlink:href="#DejaVuSans-20" transform="translate(1193.794922 0)"/>
     <use xlink:href="#DejaVuSans-2d" transform="translate(1225.582031 0)"/>
     <use xlink:href="#DejaVuSans-20" transform="translate(1261.666016 0)"/>
     <use xlink:href="#DejaVuSans-50" transform="translate(1293.453125 0)"/>
     <use xlink:href="#DejaVuSans-65" transform="translate(1350.130859 0)"/>
     <use xlink:href="#DejaVuSans-61" transform="translate(1411.654297 0)"/>
     <use xlink:href="#DejaVuSans-6b" transform="translate(1472.933594 0)"/>
     <use xlink:href="#DejaVuSans-20" transform="translate(1530.84375 0)"/>
     <use xlink:href="#DejaVuSans-38" transform="translate(1562.630859 0)"/>
     <use xlink:href="#DejaVuSans-30" transform="translate(1626.253906 0)"/>
    </g>
   </g>
   <g id="legend_1">
    <g id="patch_7">
     <path d="M 50.08125 108.78 
L 156.426094 108.78 
Q 158.226094 108.78 158.226094 106.98 
L 158.226094 28.618125 
Q 158.226094 26.818125 156.426094 26.818125 
L 50.08125 26.818125 
Q 48.28125 26.818125 48.28125 28.618125 
L 48.28125 106.98 
Q 48.28125 108.78 50.08125 108.78 
z
" style="fill: #ffffff; opacity: 0.8; stroke: #cccccc; stroke-linejoin: miter"/>
    </g>
    <g id="line2d_41">
     <path d="M 51.88125 34.106719 
L 60.88125 34.106719 
L 69.88125 34.106719 
" style="fill: none; stroke: #1f77b4; stroke-width: 2; stroke-linecap: square"/>
    </g>
    <g id="text_21">
     <!-- LocalGNTS-14 -->
     <g transform="translate(77.08125 37.256719) scale(0.09 -0.09)">
      <defs>
       <path id="DejaVuSans-4c" d="M 628 4666 
L 1259 4666 
L 1259 531 
L 3531 531 
L 3531 0 
L 628 0 
L 628 4666 
z
" transform="scale(0.015625)"/>
       <path id="DejaVuSans-47" d="M 3809 666 
L 3809 1919 
L 2778 1919 
L 2778 2438 
L 4434 2438 
L 4434 434 
Q 4069 175 3628 42 
Q 3188 -91 2688 -91 
Q 1594 -91 976 548 
Q 359 1188 359 2328 
Q 359 3472 976 4111 
Q 1594 4750 2688 4750 
Q 3144 4750 3555 4637 
Q 3966 4525 4313 4306 
L 4313 3634 
Q 3963 3931 3569 4081 
Q 3175 4231 2741 4231 
Q 1884 4231 1454 3753 
Q 1025 3275 1025 2328 
Q 1025 1384 1454 906 
Q 1884 428 2741 428 
Q 3075 428 3337 486 
Q 3600 544 3809 666 
z
" transform="scale(0.015625)"/>
       <path id="DejaVuSans-4e" d="M 628 4666 
L 1478 4666 
L 3547 763 
L 3547 4666 
L 4159 4666 
L 4159 0 
L 3309 0 
L 1241 3903 
L 1241 0 
L 628 0 
L 628 4666 
z
" transform="scale(0.015625)"/>
      </defs>
      <use xlink:href="#DejaVuSans-4c"/>
      <use xlink:href="#DejaVuSans-6f" transform="translate(53.962891 0)"/>
      <use xlink:href="#DejaVuSans-63" transform="translate(115.144531 0)"/>
      <use xlink:href="#DejaVuSans-61" transform="translate(170.125 0)"/>
      <use xlink:href="#DejaVuSans-6c" transform="translate(231.404297 0)"/>
      <use xlink:href="#DejaVuSans-47" transform="translate(259.1875 0)"/>
      <use xlink:href="#DejaVuSans-4e" transform="translate(336.677734 0)"/>
      <use xlink:href="#DejaVuSans-54" transform="translate(411.482422 0)"/>
      <use xlink:href="#DejaVuSans-53" transform="translate(472.566406 0)"/>
      <use xlink:href="#DejaVuSans-2d" transform="translate(536.042969 0)"/>
      <use xlink:href="#DejaVuSans-31" transform="translate(572.126953 0)"/>
      <use xlink:href="#DejaVuSans-34" transform="translate(635.75 0)"/>
     </g>
    </g>
    <g id="line2d_42">
     <path d="M 51.88125 47.317031 
L 60.88125 47.317031 
L 69.88125 47.317031 
" style="fill: none; stroke: #ff7f0e; stroke-width: 2; stroke-linecap: square"/>
    </g>
    <g id="text_22">
     <!-- GlobalGNTS-14 -->
     <g transform="translate(77.08125 50.467031) scale(0.09 -0.09)">
      <defs>
       <path id="DejaVuSans-62" d="M 3116 1747 
Q 3116 2381 2855 2742 
Q 2594 3103 2138 3103 
Q 1681 3103 1420 2742 
Q 1159 2381 1159 1747 
Q 1159 1113 1420 752 
Q 1681 391 2138 391 
Q 2594 391 2855 752 
Q 3116 1113 3116 1747 
z
M 1159 2969 
Q 1341 3281 1617 3432 
Q 1894 3584 2278 3584 
Q 2916 3584 3314 3078 
Q 3713 2572 3713 1747 
Q 3713 922 3314 415 
Q 2916 -91 2278 -91 
Q 1894 -91 1617 61 
Q 1341 213 1159 525 
L 1159 0 
L 581 0 
L 581 4863 
L 1159 4863 
L 1159 2969 
z
" transform="scale(0.015625)"/>
      </defs>
      <use xlink:href="#DejaVuSans-47"/>
      <use xlink:href="#DejaVuSans-6c" transform="translate(77.490234 0)"/>
      <use xlink:href="#DejaVuSans-6f" transform="translate(105.273438 0)"/>
      <use xlink:href="#DejaVuSans-62" transform="translate(166.455078 0)"/>
      <use xlink:href="#DejaVuSans-61" transform="translate(229.931641 0)"/>
      <use xlink:href="#DejaVuSans-6c" transform="translate(291.210938 0)"/>
      <use xlink:href="#DejaVuSans-47" transform="translate(318.994141 0)"/>
      <use xlink:href="#DejaVuSans-4e" transform="translate(396.484375 0)"/>
      <use xlink:href="#DejaVuSans-54" transform="translate(471.289062 0)"/>
      <use xlink:href="#DejaVuSans-53" transform="translate(532.373047 0)"/>
      <use xlink:href="#DejaVuSans-2d" transform="translate(595.849609 0)"/>
      <use xlink:href="#DejaVuSans-31" transform="translate(631.933594 0)"/>
      <use xlink:href="#DejaVuSans-34" transform="translate(695.556641 0)"/>
     </g>
    </g>
    <g id="line2d_43">
     <path d="M 51.88125 60.527344 
L 60.88125 60.527344 
L 69.88125 60.527344 
" style="fill: none; stroke: #2ca02c; stroke-width: 2; stroke-linecap: square"/>
    </g>
    <g id="text_23">
     <!-- Beta-Binomial-14 -->
     <g transform="translate(77.08125 63.677344) scale(0.09 -0.09)">
      <defs>
       <path id="DejaVuSans-42" d="M 1259 2228 
L 1259 519 
L 2272 519 
Q 2781 519 3026 730 
Q 3272 941 3272 1375 
Q 3272 1813 3026 2020 
Q 2781 2228 2272 2228 
L 1259 2228 
z
M 1259 4147 
L 1259 2741 
L 2194 2741 
Q 2656 2741 2882 2914 
Q 3109 3088 3109 3444 
Q 3109 3797 2882 3972 
Q 2656 4147 2194 4147 
L 1259 4147 
z
M 628 4666 
L 2241 4666 
Q 2963 4666 3353 4366 
Q 3744 4066 3744 3513 
Q 3744 3084 3544 2831 
Q 3344 2578 2956 2516 
Q 3422 2416 3680 2098 
Q 3938 1781 3938 1306 
Q 3938 681 3513 340 
Q 3088 0 2303 0 
L 628 0 
L 628 4666 
z
" transform="scale(0.015625)"/>
      </defs>
      <use xlink:href="#DejaVuSans-42"/>
      <use xlink:href="#DejaVuSans-65" transform="translate(68.603516 0)"/>
      <use xlink:href="#DejaVuSans-74" transform="translate(130.126953 0)"/>
      <use xlink:href="#DejaVuSans-61" transform="translate(169.335938 0)"/>
      <use xlink:href="#DejaVuSans-2d" transform="translate(230.615234 0)"/>
      <use xlink:href="#DejaVuSans-42" transform="translate(263.074219 0)"/>
      <use xlink:href="#DejaVuSans-69" transform="translate(331.677734 0)"/>
      <use xlink:href="#DejaVuSans-6e" transform="translate(359.460938 0)"/>
      <use xlink:href="#DejaVuSans-6f" transform="translate(422.839844 0)"/>
      <use xlink:href="#DejaVuSans-6d" transform="translate(484.021484 0)"/>
      <use xlink:href="#DejaVuSans-69" transform="translate(581.433594 0)"/>
      <use xlink:href="#DejaVuSans-61" transform="translate(609.216797 0)"/>
      <use xlink:href="#DejaVuSans-6c" transform="translate(670.496094 0)"/>
      <use xlink:href="#DejaVuSans-2d" transform="translate(698.279297 0)"/>
      <use xlink:href="#DejaVuSans-31" transform="translate(734.363281 0)"/>
      <use xlink:href="#DejaVuSans-34" transform="translate(797.986328 0)"/>
     </g>
    </g>
    <g id="line2d_44">
     <path d="M 51.88125 73.737656 
L 60.88125 73.737656 
L 69.88125 73.737656 
" style="fill: none; stroke: #d62728; stroke-width: 2; stroke-linecap: square"/>
    </g>
    <g id="text_24">
     <!-- Proportional -->
     <g transform="translate(77.08125 76.887656) scale(0.09 -0.09)">
      <defs>
       <path id="DejaVuSans-72" d="M 2631 2963 
Q 2534 3019 2420 3045 
Q 2306 3072 2169 3072 
Q 1681 3072 1420 2755 
Q 1159 2438 1159 1844 
L 1159 0 
L 581 0 
L 581 3500 
L 1159 3500 
L 1159 2956 
Q 1341 3275 1631 3429 
Q 1922 3584 2338 3584 
Q 2397 3584 2469 3576 
Q 2541 3569 2628 3553 
L 2631 2963 
z
" transform="scale(0.015625)"/>
       <path id="DejaVuSans-70" d="M 1159 525 
L 1159 -1331 
L 581 -1331 
L 581 3500 
L 1159 3500 
L 1159 2969 
Q 1341 3281 1617 3432 
Q 1894 3584 2278 3584 
Q 2916 3584 3314 3078 
Q 3713 2572 3713 1747 
Q 3713 922 3314 415 
Q 2916 -91 2278 -91 
Q 1894 -91 1617 61 
Q 1341 213 1159 525 
z
M 3116 1747 
Q 3116 2381 2855 2742 
Q 2594 3103 2138 3103 
Q 1681 3103 1420 2742 
Q 1159 2381 1159 1747 
Q 1159 1113 1420 752 
Q 1681 391 2138 391 
Q 2594 391 2855 752 
Q 3116 1113 3116 1747 
z
" transform="scale(0.015625)"/>
      </defs>
      <use xlink:href="#DejaVuSans-50"/>
      <use xlink:href="#DejaVuSans-72" transform="translate(58.552734 0)"/>
      <use xlink:href="#DejaVuSans-6f" transform="translate(97.416016 0)"/>
      <use xlink:href="#DejaVuSans-70" transform="translate(158.597656 0)"/>
      <use xlink:href="#DejaVuSans-6f" transform="translate(222.074219 0)"/>
      <use xlink:href="#DejaVuSans-72" transform="translate(283.255859 0)"/>
      <use xlink:href="#DejaVuSans-74" transform="translate(324.369141 0)"/>
      <use xlink:href="#DejaVuSans-69" transform="translate(363.578125 0)"/>
      <use xlink:href="#DejaVuSans-6f" transform="translate(391.361328 0)"/>
      <use xlink:href="#DejaVuSans-6e" transform="translate(452.542969 0)"/>
      <use xlink:href="#DejaVuSans-61" transform="translate(515.921875 0)"/>
      <use xlink:href="#DejaVuSans-6c" transform="translate(577.201172 0)"/>
     </g>
    </g>
    <g id="line2d_45">
     <path d="M 51.88125 86.947969 
L 60.88125 86.947969 
L 69.88125 86.947969 
" style="fill: none; stroke: #9467bd; stroke-width: 2; stroke-linecap: square"/>
    </g>
    <g id="text_25">
     <!-- Uniform -->
     <g transform="translate(77.08125 90.097969) scale(0.09 -0.09)">
      <defs>
       <path id="DejaVuSans-55" d="M 556 4666 
L 1191 4666 
L 1191 1831 
Q 1191 1081 1462 751 
Q 1734 422 2344 422 
Q 2950 422 3222 751 
Q 3494 1081 3494 1831 
L 3494 4666 
L 4128 4666 
L 4128 1753 
Q 4128 841 3676 375 
Q 3225 -91 2344 -91 
Q 1459 -91 1007 375 
Q 556 841 556 1753 
L 556 4666 
z
" transform="scale(0.015625)"/>
      </defs>
      <use xlink:href="#DejaVuSans-55"/>
      <use xlink:href="#DejaVuSans-6e" transform="translate(73.193359 0)"/>
      <use xlink:href="#DejaVuSans-69" transform="translate(136.572266 0)"/>
      <use xlink:href="#DejaVuSans-66" transform="translate(164.355469 0)"/>
      <use xlink:href="#DejaVuSans-6f" transform="translate(199.560547 0)"/>
      <use xlink:href="#DejaVuSans-72" transform="translate(260.742188 0)"/>
      <use xlink:href="#DejaVuSans-6d" transform="translate(300.105469 0)"/>
     </g>
    </g>
    <g id="line2d_46">
     <path d="M 51.88125 100.158281 
L 60.88125 100.158281 
L 69.88125 100.158281 
" style="fill: none; stroke: #8c564b; stroke-width: 2; stroke-linecap: square"/>
    </g>
    <g id="text_26">
     <!-- Random -->
     <g transform="translate(77.08125 103.308281) scale(0.09 -0.09)">
      <defs>
       <path id="DejaVuSans-64" d="M 2906 2969 
L 2906 4863 
L 3481 4863 
L 3481 0 
L 2906 0 
L 2906 525 
Q 2725 213 2448 61 
Q 2172 -91 1784 -91 
Q 1150 -91 751 415 
Q 353 922 353 1747 
Q 353 2572 751 3078 
Q 1150 3584 1784 3584 
Q 2172 3584 2448 3432 
Q 2725 3281 2906 2969 
z
M 947 1747 
Q 947 1113 1208 752 
Q 1469 391 1925 391 
Q 2381 391 2643 752 
Q 2906 1113 2906 1747 
Q 2906 2381 2643 2742 
Q 2381 3103 1925 3103 
Q 1469 3103 1208 2742 
Q 947 2381 947 1747 
z
" transform="scale(0.015625)"/>
      </defs>
      <use xlink:href="#DejaVuSans-52"/>
      <use xlink:href="#DejaVuSans-61" transform="translate(67.232422 0)"/>
      <use xlink:href="#DejaVuSans-6e" transform="translate(128.511719 0)"/>
      <use xlink:href="#DejaVuSans-64" transform="translate(191.890625 0)"/>
      <use xlink:href="#DejaVuSans-6f" transform="translate(255.367188 0)"/>
      <use xlink:href="#DejaVuSans-6d" transform="translate(316.548828 0)"/>
     </g>
    </g>
   </g>
  </g>
 </g>
 <defs>
  <clipPath id="p51ecd788e0">
   <rect x="43.78125" y="22.318125" width="446.4" height="277.2"/>
  </clipPath>
 </defs>
</svg>
