<?xml version="1.0" encoding="utf-8" standalone="no"?>
<!DOCTYPE svg PUBLIC "-//W3C//DTD SVG 1.1//EN"
  "http://www.w3.org/Graphics/SVG/1.1/DTD/svg11.dtd">
<svg xmlns:xlink="http://www.w3.org/1999/xlink" width="497.38125pt" height="337.074375pt" viewBox="0 0 497.38125 337.074375" xmlns="http://www.w3.org/2000/svg" version="1.1">
 <metadata>
  <rdf:RDF xmlns:dc="http://purl.org/dc/elements/1.1/" xmlns:cc="http://creativecommons.org/ns#" xmlns:rdf="http://www.w3.org/1999/02/22-rdf-syntax-ns#">
   <cc:Work>
    <dc:type rdf:resource="http://purl.org/dc/dcmitype/StillImage"/>
    <dc:date>2026-07-02T08:47:34.651229</dc:date>
    <dc:format>image/svg+xml</dc:format>
    <dc:creator>
     <cc:Agent>
      <dc:title>Matplotlib v3.10.8, https://matplotlib.org/</dc:title>
     </cc:Agent>
    </dc:creator>
   </cc:Work>
  </rdf:RDF>
 </metadata>
 <defs>
  <style type="text/css">*{stroke-linejoin: round; stroke-linecap: butt}</style>
 </defs>
 <g id="figure_1">
  <g id="patch_1">
   <path d="M 0 337.074375 
L 497.38125 337.074375 
L 497.38125 0 
L 0 0 
z
" style="fill: #ffffff"/>
  </g>
  <g id="axes_1">
   <g id="patch_2">
    <path d="M 43.78125 299.518125 
L 490.18125 299.518125 
L 490.18125 22.318125 
L 43.78125 22.318125 
z
" style="fill: #ffffff"/>
   </g>
   <g id="matplotlib.axis_1">
    <g id="xtick_1">
     <g id="line2d_1">
      <path d="M 64.072159 299.518125 
L 64.072159 22.318125 
" clip-path="url(#p33dbd9acb8)" style="fill: none; stroke-dasharray: 1.85,0.8; stroke-dashoffset: 0; stroke: #b0b0b0; stroke-opacity: 0.6; stroke-width: 0.5"/>
     </g>
     <g id="line2d_2">
      <defs>
       <path id="m115ec17bb5" d="M 0 0 
L 0 3.5 
" style="stroke: #000000; stroke-width: 0.8"/>
      </defs>
      <g>
       <use xlink:href="#m115ec17bb5" x="64.072159" y="299.518125" style="stroke: #000000; stroke-width: 0.8"/>
      </g>
     </g>
     <g id="text_1">
      <!-- 0 -->
      <g transform="translate(60.890909 314.116563) scale(0.1 -0.1)">
       <defs>
        <path id="DejaVuSans-30" d="M 2034 4250 
Q 1547 4250 1301 3770 
Q 1056 3291 1056 2328 
Q 1056 1369 1301 889 
Q 1547 409 2034 409 
Q 2525 409 2770 889 
Q 3016 1369 3016 2328 
Q 3016 3291 2770 3770 
Q 2525 4250 2034 4250 
z
M 2034 4750 
Q 2819 4750 3233 4129 
Q 3647 3509 3647 2328 
Q 3647 1150 3233 529 
Q 2819 -91 2034 -91 
Q 1250 -91 836 529 
Q 422 1150 422 2328 
Q 422 3509 836 4129 
Q 1250 4750 2034 4750 
z
" transform="scale(0.015625)"/>
       </defs>
       <use xlink:href="#DejaVuSans-30"/>
      </g>
     </g>
    </g>
    <g id="xtick_2">
     <g id="line2d_3">
      <path d="M 118.544398 299.518125 
L 118.544398 22.318125 
" clip-path="url(#p33dbd9acb8)" style="fill: none; stroke-dasharray: 1.85,0.8; stroke-dashoffset: 0; stroke: #b0b0b0; stroke-opacity: 0.6; stroke-width: 0.5"/>
     </g>
     <g id="line2d_4">
      <g>
       <use xlink:href="#m115ec17bb5" x="118.544398" y="299.518125" style="stroke: #000000; stroke-width: 0.8"/>
      </g>
     </g>
     <g id="text_2">
      <!-- 20 -->
      <g transform="translate(112.181898 314.116563) scale(0.1 -0.1)">
       <defs>
        <path id="DejaVuSans-32" d="M 1228 531 
L 3431 531 
L 3431 0 
L 469 0 
L 469 531 
Q 828 903 1448 1529 
Q 2069 2156 2228 2338 
Q 2531 2678 2651 2914 
Q 2772 3150 2772 3378 
Q 2772 3750 2511 3984 
Q 2250 4219 1831 4219 
Q 1534 4219 1204 4116 
Q 875 4013 500 3803 
L 500 4441 
Q 881 4594 1212 4672 
Q 1544 4750 1819 4750 
Q 2544 4750 2975 4387 
Q 3406 4025 3406 3419 
Q 3406 3131 3298 2873 
Q 3191 2616 2906 2266 
Q 2828 2175 2409 1742 
Q 1991 1309 1228 531 
z
" transform="scale(0.015625)"/>
       </defs>
       <use xlink:href="#DejaVuSans-32"/>
       <use xlink:href="#DejaVuSans-30" transform="translate(63.623047 0)"/>
      </g>
     </g>
    </g>
    <g id="xtick_3">
     <g id="line2d_5">
      <path d="M 173.016637 299.518125 
L 173.016637 22.318125 
" clip-path="url(#p33dbd9acb8)" style="fill: none; stroke-dasharray: 1.85,0.8; stroke-dashoffset: 0; stroke: #b0b0b0; stroke-opacity: 0.6; stroke-width: 0.5"/>
     </g>
     <g id="line2d_6">
      <g>
       <use xlink:href="#m115ec17bb5" x="173.016637" y="299.518125" style="stroke: #000000; stroke-width: 0.8"/>
      </g>
     </g>
     <g id="text_3">
      <!-- 40 -->
      <g transform="translate(166.654137 314.116563) scale(0.1 -0.1)">
       <defs>
        <path id="DejaVuSans-34" d="M 2419 4116 
L 825 1625 
L 2419 1625 
L 2419 4116 
z
M 2253 4666 
L 3047 4666 
L 3047 1625 
L 3713 1625 
L 3713 1100 
L 3047 1100 
L 3047 0 
L 2419 0 
L 2419 1100 
L 313 1100 
L 313 1709 
L 2253 4666 
z
" transform="scale(0.015625)"/>
       </defs>
       <use xlink:href="#DejaVuSans-34"/>
       <use xlink:href="#DejaVuSans-30" transform="translate(63.623047 0)"/>
      </g>
     </g>
    </g>
    <g id="xtick_4">
     <g id="line2d_7">
      <path d="M 227.488877 299.518125 
L 227.488877 22.318125 
" clip-path="url(#p33dbd9acb8)" style="fill: none; stroke-dasharray: 1.85,0.8; stroke-dashoffset: 0; stroke: #b0b0b0; stroke-opacity: 0.6; stroke-width: 0.5"/>
     </g>
     <g id="line2d_8">
      <g>
       <use xlink:href="#m115ec17bb5" x="227.488877" y="299.518125" style="stroke: #000000; stroke-width: 0.8"/>
      </g>
     </g>
     <g id="text_4">
      <!-- 60 -->
      <g transform="translate(221.126377 314.116563) scale(0.1 -0.1)">
       <defs>
        <path id="DejaVuSans-36" d="M 2113 2584 
Q 1688 2584 1439 2293 
Q 1191 2003 1191 1497 
Q 1191 994 1439 701 
Q 1688 409 2113 409 
Q 2538 409 2786 701 
Q 3034 994 3034 1497 
Q 3034 2003 2786 2293 
Q 2538 2584 2113 2584 
z
M 3366 4563 
L 3366 3988 
Q 3128 4100 2886 4159 
Q 2644 4219 2406 4219 
Q 1781 4219 1451 3797 
Q 1122 3375 1075 2522 
Q 1259 2794 1537 2939 
Q 1816 3084 2150 3084 
Q 2853 3084 3261 2657 
Q 3669 2231 3669 1497 
Q 3669 778 3244 343 
Q 2819 -91 2113 -91 
Q 1303 -91 875 529 
Q 447 1150 447 2328 
Q 447 3434 972 4092 
Q 1497 4750 2381 4750 
Q 2619 4750 2861 4703 
Q 3103 4656 3366 4563 
z
" transform="scale(0.015625)"/>
       </defs>
       <use xlink:href="#DejaVuSans-36"/>
       <use xlink:href="#DejaVuSans-30" transform="translate(63.623047 0)"/>
      </g>
     </g>
    </g>
    <g id="xtick_5">
     <g id="line2d_9">
      <path d="M 281.961116 299.518125 
L 281.961116 22.318125 
" clip-path="url(#p33dbd9acb8)" style="fill: none; stroke-dasharray: 1.85,0.8; stroke-dashoffset: 0; stroke: #b0b0b0; stroke-opacity: 0.6; stroke-width: 0.5"/>
     </g>
     <g id="line2d_10">
      <g>
       <use xlink:href="#m115ec17bb5" x="281.961116" y="299.518125" style="stroke: #000000; stroke-width: 0.8"/>
      </g>
     </g>
     <g id="text_5">
      <!-- 80 -->
      <g transform="translate(275.598616 314.116563) scale(0.1 -0.1)">
       <defs>
        <path id="DejaVuSans-38" d="M 2034 2216 
Q 1584 2216 1326 1975 
Q 1069 1734 1069 1313 
Q 1069 891 1326 650 
Q 1584 409 2034 409 
Q 2484 409 2743 651 
Q 3003 894 3003 1313 
Q 3003 1734 2745 1975 
Q 2488 2216 2034 2216 
z
M 1403 2484 
Q 997 2584 770 2862 
Q 544 3141 544 3541 
Q 544 4100 942 4425 
Q 1341 4750 2034 4750 
Q 2731 4750 3128 4425 
Q 3525 4100 3525 3541 
Q 3525 3141 3298 2862 
Q 3072 2584 2669 2484 
Q 3125 2378 3379 2068 
Q 3634 1759 3634 1313 
Q 3634 634 3220 271 
Q 2806 -91 2034 -91 
Q 1263 -91 848 271 
Q 434 634 434 1313 
Q 434 1759 690 2068 
Q 947 2378 1403 2484 
z
M 1172 3481 
Q 1172 3119 1398 2916 
Q 1625 2713 2034 2713 
Q 2441 2713 2670 2916 
Q 2900 3119 2900 3481 
Q 2900 3844 2670 4047 
Q 2441 4250 2034 4250 
Q 1625 4250 1398 4047 
Q 1172 3844 1172 3481 
z
" transform="scale(0.015625)"/>
       </defs>
       <use xlink:href="#DejaVuSans-38"/>
       <use xlink:href="#DejaVuSans-30" transform="translate(63.623047 0)"/>
      </g>
     </g>
    </g>
    <g id="xtick_6">
     <g id="line2d_11">
      <path d="M 336.433355 299.518125 
L 336.433355 22.318125 
" clip-path="url(#p33dbd9acb8)" style="fill: none; stroke-dasharray: 1.85,0.8; stroke-dashoffset: 0; stroke: #b0b0b0; stroke-opacity: 0.6; stroke-width: 0.5"/>
     </g>
     <g id="line2d_12">
      <g>
       <use xlink:href="#m115ec17bb5" x="336.433355" y="299.518125" style="stroke: #000000; stroke-width: 0.8"/>
      </g>
     </g>
     <g id="text_6">
      <!-- 100 -->
      <g transform="translate(326.889605 314.116563) scale(0.1 -0.1)">
       <defs>
        <path id="DejaVuSans-31" d="M 794 531 
L 1825 531 
L 1825 4091 
L 703 3866 
L 703 4441 
L 1819 4666 
L 2450 4666 
L 2450 531 
L 3481 531 
L 3481 0 
L 794 0 
L 794 531 
z
" transform="scale(0.015625)"/>
       </defs>
       <use xlink:href="#DejaVuSans-31"/>
       <use xlink:href="#DejaVuSans-30" transform="translate(63.623047 0)"/>
       <use xlink:href="#DejaVuSans-30" transform="translate(127.246094 0)"/>
      </g>
     </g>
    </g>
    <g id="xtick_7">
     <g id="line2d_13">
      <path d="M 390.905594 299.518125 
L 390.905594 22.318125 
" clip-path="url(#p33dbd9acb8)" style="fill: none; stroke-dasharray: 1.85,0.8; stroke-dashoffset: 0; stroke: #b0b0b0; stroke-opacity: 0.6; stroke-width: 0.5"/>
     </g>
     <g id="line2d_14">
      <g>
       <use xlink:href="#m115ec17bb5" x="390.905594" y="299.518125" style="stroke: #000000; stroke-width: 0.8"/>
      </g>
     </g>
     <g id="text_7">
      <!-- 120 -->
      <g transform="translate(381.361844 314.116563) scale(0.1 -0.1)">
       <use xlink:href="#DejaVuSans-31"/>
       <use xlink:href="#DejaVuSans-32" transform="translate(63.623047 0)"/>
       <use xlink:href="#DejaVuSans-30" transform="translate(127.246094 0)"/>
      </g>
     </g>
    </g>
    <g id="xtick_8">
     <g id="line2d_15">
      <path d="M 445.377833 299.518125 
L 445.377833 22.318125 
" clip-path="url(#p33dbd9acb8)" style="fill: none; stroke-dasharray: 1.85,0.8; stroke-dashoffset: 0; stroke: #b0b0b0; stroke-opacity: 0.6; stroke-width: 0.5"/>
     </g>
     <g id="line2d_16">
      <g>
       <use xlink:href="#m115ec17bb5" x="445.377833" y="299.518125" style="stroke: #000000; stroke-width: 0.8"/>
      </g>
     </g>
     <g id="text_8">
      <!-- 140 -->
      <g transform="translate(435.834083 314.116563) scale(0.1 -0.1)">
       <use xlink:href="#DejaVuSans-31"/>
       <use xlink:href="#DejaVuSans-34" transform="translate(63.623047 0)"/>
       <use xlink:href="#DejaVuSans-30" transform="translate(127.246094 0)"/>
      </g>
     </g>
    </g>
    <g id="text_9">
     <!-- Simulation Day -->
     <g transform="translate(228.885937 327.794688) scale(0.1 -0.1)">
      <defs>
       <path id="DejaVuSans-53" d="M 3425 4513 
L 3425 3897 
Q 3066 4069 2747 4153 
Q 2428 4238 2131 4238 
Q 1616 4238 1336 4038 
Q 1056 3838 1056 3469 
Q 1056 3159 1242 3001 
Q 1428 2844 1947 2747 
L 2328 2669 
Q 3034 2534 3370 2195 
Q 3706 1856 3706 1288 
Q 3706 609 3251 259 
Q 2797 -91 1919 -91 
Q 1588 -91 1214 -16 
Q 841 59 441 206 
L 441 856 
Q 825 641 1194 531 
Q 1563 422 1919 422 
Q 2459 422 2753 634 
Q 3047 847 3047 1241 
Q 3047 1584 2836 1778 
Q 2625 1972 2144 2069 
L 1759 2144 
Q 1053 2284 737 2584 
Q 422 2884 422 3419 
Q 422 4038 858 4394 
Q 1294 4750 2059 4750 
Q 2388 4750 2728 4690 
Q 3069 4631 3425 4513 
z
" transform="scale(0.015625)"/>
       <path id="DejaVuSans-69" d="M 603 3500 
L 1178 3500 
L 1178 0 
L 603 0 
L 603 3500 
z
M 603 4863 
L 1178 4863 
L 1178 4134 
L 603 4134 
L 603 4863 
z
" transform="scale(0.015625)"/>
       <path id="DejaVuSans-6d" d="M 3328 2828 
Q 3544 3216 3844 3400 
Q 4144 3584 4550 3584 
Q 5097 3584 5394 3201 
Q 5691 2819 5691 2113 
L 5691 0 
L 5113 0 
L 5113 2094 
Q 5113 2597 4934 2840 
Q 4756 3084 4391 3084 
Q 3944 3084 3684 2787 
Q 3425 2491 3425 1978 
L 3425 0 
L 2847 0 
L 2847 2094 
Q 2847 2600 2669 2842 
Q 2491 3084 2119 3084 
Q 1678 3084 1418 2786 
Q 1159 2488 1159 1978 
L 1159 0 
L 581 0 
L 581 3500 
L 1159 3500 
L 1159 2956 
Q 1356 3278 1631 3431 
Q 1906 3584 2284 3584 
Q 2666 3584 2933 3390 
Q 3200 3197 3328 2828 
z
" transform="scale(0.015625)"/>
       <path id="DejaVuSans-75" d="M 544 1381 
L 544 3500 
L 1119 3500 
L 1119 1403 
Q 1119 906 1312 657 
Q 1506 409 1894 409 
Q 2359 409 2629 706 
Q 2900 1003 2900 1516 
L 2900 3500 
L 3475 3500 
L 3475 0 
L 2900 0 
L 2900 538 
Q 2691 219 2414 64 
Q 2138 -91 1772 -91 
Q 1169 -91 856 284 
Q 544 659 544 1381 
z
M 1991 3584 
L 1991 3584 
z
" transform="scale(0.015625)"/>
       <path id="DejaVuSans-6c" d="M 603 4863 
L 1178 4863 
L 1178 0 
L 603 0 
L 603 4863 
z
" transform="scale(0.015625)"/>
       <path id="DejaVuSans-61" d="M 2194 1759 
Q 1497 1759 1228 1600 
Q 959 1441 959 1056 
Q 959 750 1161 570 
Q 1363 391 1709 391 
Q 2188 391 2477 730 
Q 2766 1069 2766 1631 
L 2766 1759 
L 2194 1759 
z
M 3341 1997 
L 3341 0 
L 2766 0 
L 2766 531 
Q 2569 213 2275 61 
Q 1981 -91 1556 -91 
Q 1019 -91 701 211 
Q 384 513 384 1019 
Q 384 1609 779 1909 
Q 1175 2209 1959 2209 
L 2766 2209 
L 2766 2266 
Q 2766 2663 2505 2880 
Q 2244 3097 1772 3097 
Q 1472 3097 1187 3025 
Q 903 2953 641 2809 
L 641 3341 
Q 956 3463 1253 3523 
Q 1550 3584 1831 3584 
Q 2591 3584 2966 3190 
Q 3341 2797 3341 1997 
z
" transform="scale(0.015625)"/>
       <path id="DejaVuSans-74" d="M 1172 4494 
L 1172 3500 
L 2356 3500 
L 2356 3053 
L 1172 3053 
L 1172 1153 
Q 1172 725 1289 603 
Q 1406 481 1766 481 
L 2356 481 
L 2356 0 
L 1766 0 
Q 1100 0 847 248 
Q 594 497 594 1153 
L 594 3053 
L 172 3053 
L 172 3500 
L 594 3500 
L 594 4494 
L 1172 4494 
z
" transform="scale(0.015625)"/>
       <path id="DejaVuSans-6f" d="M 1959 3097 
Q 1497 3097 1228 2736 
Q 959 2375 959 1747 
Q 959 1119 1226 758 
Q 1494 397 1959 397 
Q 2419 397 2687 759 
Q 2956 1122 2956 1747 
Q 2956 2369 2687 2733 
Q 2419 3097 1959 3097 
z
M 1959 3584 
Q 2709 3584 3137 3096 
Q 3566 2609 3566 1747 
Q 3566 888 3137 398 
Q 2709 -91 1959 -91 
Q 1206 -91 779 398 
Q 353 888 353 1747 
Q 353 2609 779 3096 
Q 1206 3584 1959 3584 
z
" transform="scale(0.015625)"/>
       <path id="DejaVuSans-6e" d="M 3513 2113 
L 3513 0 
L 2938 0 
L 2938 2094 
Q 2938 2591 2744 2837 
Q 2550 3084 2163 3084 
Q 1697 3084 1428 2787 
Q 1159 2491 1159 1978 
L 1159 0 
L 581 0 
L 581 3500 
L 1159 3500 
L 1159 2956 
Q 1366 3272 1645 3428 
Q 1925 3584 2291 3584 
Q 2894 3584 3203 3211 
Q 3513 2838 3513 2113 
z
" transform="scale(0.015625)"/>
       <path id="DejaVuSans-20" transform="scale(0.015625)"/>
       <path id="DejaVuSans-44" d="M 1259 4147 
L 1259 519 
L 2022 519 
Q 2988 519 3436 956 
Q 3884 1394 3884 2338 
Q 3884 3275 3436 3711 
Q 2988 4147 2022 4147 
L 1259 4147 
z
M 628 4666 
L 1925 4666 
Q 3281 4666 3915 4102 
Q 4550 3538 4550 2338 
Q 4550 1131 3912 565 
Q 3275 0 1925 0 
L 628 0 
L 628 4666 
z
" transform="scale(0.015625)"/>
       <path id="DejaVuSans-79" d="M 2059 -325 
Q 1816 -950 1584 -1140 
Q 1353 -1331 966 -1331 
L 506 -1331 
L 506 -850 
L 844 -850 
Q 1081 -850 1212 -737 
Q 1344 -625 1503 -206 
L 1606 56 
L 191 3500 
L 800 3500 
L 1894 763 
L 2988 3500 
L 3597 3500 
L 2059 -325 
z
" transform="scale(0.015625)"/>
      </defs>
      <use xlink:href="#DejaVuSans-53"/>
      <use xlink:href="#DejaVuSans-69" transform="translate(63.476562 0)"/>
      <use xlink:href="#DejaVuSans-6d" transform="translate(91.259766 0)"/>
      <use xlink:href="#DejaVuSans-75" transform="translate(188.671875 0)"/>
      <use xlink:href="#DejaVuSans-6c" transform="translate(252.050781 0)"/>
      <use xlink:href="#DejaVuSans-61" transform="translate(279.833984 0)"/>
      <use xlink:href="#DejaVuSans-74" transform="translate(341.113281 0)"/>
      <use xlink:href="#DejaVuSans-69" transform="translate(380.322266 0)"/>
      <use xlink:href="#DejaVuSans-6f" transform="translate(408.105469 0)"/>
      <use xlink:href="#DejaVuSans-6e" transform="translate(469.287109 0)"/>
      <use xlink:href="#DejaVuSans-20" transform="translate(532.666016 0)"/>
      <use xlink:href="#DejaVuSans-44" transform="translate(564.453125 0)"/>
      <use xlink:href="#DejaVuSans-61" transform="translate(641.455078 0)"/>
      <use xlink:href="#DejaVuSans-79" transform="translate(702.734375 0)"/>
     </g>
    </g>
   </g>
   <g id="matplotlib.axis_2">
    <g id="ytick_1">
     <g id="line2d_17">
      <path d="M 43.78125 286.918125 
L 490.18125 286.918125 
" clip-path="url(#p33dbd9acb8)" style="fill: none; stroke-dasharray: 1.85,0.8; stroke-dashoffset: 0; stroke: #b0b0b0; stroke-opacity: 0.6; stroke-width: 0.5"/>
     </g>
     <g id="line2d_18">
      <defs>
       <path id="m63ad5a02d0" d="M 0 0 
L -3.5 0 
" style="stroke: #000000; stroke-width: 0.8"/>
      </defs>
      <g>
       <use xlink:href="#m63ad5a02d0" x="43.78125" y="286.918125" style="stroke: #000000; stroke-width: 0.8"/>
      </g>
     </g>
     <g id="text_10">
      <!-- 0.0 -->
      <g transform="translate(20.878125 290.717344) scale(0.1 -0.1)">
       <defs>
        <path id="DejaVuSans-2e" d="M 684 794 
L 1344 794 
L 1344 0 
L 684 0 
L 684 794 
z
" transform="scale(0.015625)"/>
       </defs>
       <use xlink:href="#DejaVuSans-30"/>
       <use xlink:href="#DejaVuSans-2e" transform="translate(63.623047 0)"/>
       <use xlink:href="#DejaVuSans-30" transform="translate(95.410156 0)"/>
      </g>
     </g>
    </g>
    <g id="ytick_2">
     <g id="line2d_19">
      <path d="M 43.78125 228.118125 
L 490.18125 228.118125 
" clip-path="url(#p33dbd9acb8)" style="fill: none; stroke-dasharray: 1.85,0.8; stroke-dashoffset: 0; stroke: #b0b0b0; stroke-opacity: 0.6; stroke-width: 0.5"/>
     </g>
     <g id="line2d_20">
      <g>
       <use xlink:href="#m63ad5a02d0" x="43.78125" y="228.118125" style="stroke: #000000; stroke-width: 0.8"/>
      </g>
     </g>
     <g id="text_11">
      <!-- 0.2 -->
      <g transform="translate(20.878125 231.917344) scale(0.1 -0.1)">
       <use xlink:href="#DejaVuSans-30"/>
       <use xlink:href="#DejaVuSans-2e" transform="translate(63.623047 0)"/>
       <use xlink:href="#DejaVuSans-32" transform="translate(95.410156 0)"/>
      </g>
     </g>
    </g>
    <g id="ytick_3">
     <g id="line2d_21">
      <path d="M 43.78125 169.318125 
L 490.18125 169.318125 
" clip-path="url(#p33dbd9acb8)" style="fill: none; stroke-dasharray: 1.85,0.8; stroke-dashoffset: 0; stroke: #b0b0b0; stroke-opacity: 0.6; stroke-width: 0.5"/>
     </g>
     <g id="line2d_22">
      <g>
       <use xlink:href="#m63ad5a02d0" x="43.78125" y="169.318125" style="stroke: #000000; stroke-width: 0.8"/>
      </g>
     </g>
     <g id="text_12">
      <!-- 0.4 -->
      <g transform="translate(20.878125 173.117344) scale(0.1 -0.1)">
       <use xlink:href="#DejaVuSans-30"/>
       <use xlink:href="#DejaVuSans-2e" transform="translate(63.623047 0)"/>
       <use xlink:href="#DejaVuSans-34" transform="translate(95.410156 0)"/>
      </g>
     </g>
    </g>
    <g id="ytick_4">
     <g id="line2d_23">
      <path d="M 43.78125 110.518125 
L 490.18125 110.518125 
" clip-path="url(#p33dbd9acb8)" style="fill: none; stroke-dasharray: 1.85,0.8; stroke-dashoffset: 0; stroke: #b0b0b0; stroke-opacity: 0.6; stroke-width: 0.5"/>
     </g>
     <g id="line2d_24">
      <g>
       <use xlink:href="#m63ad5a02d0" x="43.78125" y="110.518125" style="stroke: #000000; stroke-width: 0.8"/>
      </g>
     </g>
     <g id="text_13">
      <!-- 0.6 -->
      <g transform="translate(20.878125 114.317344) scale(0.1 -0.1)">
       <use xlink:href="#DejaVuSans-30"/>
       <use xlink:href="#DejaVuSans-2e" transform="translate(63.623047 0)"/>
       <use xlink:href="#DejaVuSans-36" transform="translate(95.410156 0)"/>
      </g>
     </g>
    </g>
    <g id="ytick_5">
     <g id="line2d_25">
      <path d="M 43.78125 51.718125 
L 490.18125 51.718125 
" clip-path="url(#p33dbd9acb8)" style="fill: none; stroke-dasharray: 1.85,0.8; stroke-dashoffset: 0; stroke: #b0b0b0; stroke-opacity: 0.6; stroke-width: 0.5"/>
     </g>
     <g id="line2d_26">
      <g>
       <use xlink:href="#m63ad5a02d0" x="43.78125" y="51.718125" style="stroke: #000000; stroke-width: 0.8"/>
      </g>
     </g>
     <g id="text_14">
      <!-- 0.8 -->
      <g transform="translate(20.878125 55.517344) scale(0.1 -0.1)">
       <use xlink:href="#DejaVuSans-30"/>
       <use xlink:href="#DejaVuSans-2e" transform="translate(63.623047 0)"/>
       <use xlink:href="#DejaVuSans-38" transform="translate(95.410156 0)"/>
      </g>
     </g>
    </g>
    <g id="text_15">
     <!-- Detection Ratio (Efficiency) -->
     <g transform="translate(14.798438 229.282969) rotate(-90) scale(0.1 -0.1)">
      <defs>
       <path id="DejaVuSans-65" d="M 3597 1894 
L 3597 1613 
L 953 1613 
Q 991 1019 1311 708 
Q 1631 397 2203 397 
Q 2534 397 2845 478 
Q 3156 559 3463 722 
L 3463 178 
Q 3153 47 2828 -22 
Q 2503 -91 2169 -91 
Q 1331 -91 842 396 
Q 353 884 353 1716 
Q 353 2575 817 3079 
Q 1281 3584 2069 3584 
Q 2775 3584 3186 3129 
Q 3597 2675 3597 1894 
z
M 3022 2063 
Q 3016 2534 2758 2815 
Q 2500 3097 2075 3097 
Q 1594 3097 1305 2825 
Q 1016 2553 972 2059 
L 3022 2063 
z
" transform="scale(0.015625)"/>
       <path id="DejaVuSans-63" d="M 3122 3366 
L 3122 2828 
Q 2878 2963 2633 3030 
Q 2388 3097 2138 3097 
Q 1578 3097 1268 2742 
Q 959 2388 959 1747 
Q 959 1106 1268 751 
Q 1578 397 2138 397 
Q 2388 397 2633 464 
Q 2878 531 3122 666 
L 3122 134 
Q 2881 22 2623 -34 
Q 2366 -91 2075 -91 
Q 1284 -91 818 406 
Q 353 903 353 1747 
Q 353 2603 823 3093 
Q 1294 3584 2113 3584 
Q 2378 3584 2631 3529 
Q 2884 3475 3122 3366 
z
" transform="scale(0.015625)"/>
       <path id="DejaVuSans-52" d="M 2841 2188 
Q 3044 2119 3236 1894 
Q 3428 1669 3622 1275 
L 4263 0 
L 3584 0 
L 2988 1197 
Q 2756 1666 2539 1819 
Q 2322 1972 1947 1972 
L 1259 1972 
L 1259 0 
L 628 0 
L 628 4666 
L 2053 4666 
Q 2853 4666 3247 4331 
Q 3641 3997 3641 3322 
Q 3641 2881 3436 2590 
Q 3231 2300 2841 2188 
z
M 1259 4147 
L 1259 2491 
L 2053 2491 
Q 2509 2491 2742 2702 
Q 2975 2913 2975 3322 
Q 2975 3731 2742 3939 
Q 2509 4147 2053 4147 
L 1259 4147 
z
" transform="scale(0.015625)"/>
       <path id="DejaVuSans-28" d="M 1984 4856 
Q 1566 4138 1362 3434 
Q 1159 2731 1159 2009 
Q 1159 1288 1364 580 
Q 1569 -128 1984 -844 
L 1484 -844 
Q 1016 -109 783 600 
Q 550 1309 550 2009 
Q 550 2706 781 3412 
Q 1013 4119 1484 4856 
L 1984 4856 
z
" transform="scale(0.015625)"/>
       <path id="DejaVuSans-45" d="M 628 4666 
L 3578 4666 
L 3578 4134 
L 1259 4134 
L 1259 2753 
L 3481 2753 
L 3481 2222 
L 1259 2222 
L 1259 531 
L 3634 531 
L 3634 0 
L 628 0 
L 628 4666 
z
" transform="scale(0.015625)"/>
       <path id="DejaVuSans-66" d="M 2375 4863 
L 2375 4384 
L 1825 4384 
Q 1516 4384 1395 4259 
Q 1275 4134 1275 3809 
L 1275 3500 
L 2222 3500 
L 2222 3053 
L 1275 3053 
L 1275 0 
L 697 0 
L 697 3053 
L 147 3053 
L 147 3500 
L 697 3500 
L 697 3744 
Q 697 4328 969 4595 
Q 1241 4863 1831 4863 
L 2375 4863 
z
" transform="scale(0.015625)"/>
       <path id="DejaVuSans-29" d="M 513 4856 
L 1013 4856 
Q 1481 4119 1714 3412 
Q 1947 2706 1947 2009 
Q 1947 1309 1714 600 
Q 1481 -109 1013 -844 
L 513 -844 
Q 928 -128 1133 580 
Q 1338 1288 1338 2009 
Q 1338 2731 1133 3434 
Q 928 4138 513 4856 
z
" transform="scale(0.015625)"/>
      </defs>
      <use xlink:href="#DejaVuSans-44"/>
      <use xlink:href="#DejaVuSans-65" transform="translate(77.001953 0)"/>
      <use xlink:href="#DejaVuSans-74" transform="translate(138.525391 0)"/>
      <use xlink:href="#DejaVuSans-65" transform="translate(177.734375 0)"/>
      <use xlink:href="#DejaVuSans-63" transform="translate(239.257812 0)"/>
      <use xlink:href="#DejaVuSans-74" transform="translate(294.238281 0)"/>
      <use xlink:href="#DejaVuSans-69" transform="translate(333.447266 0)"/>
      <use xlink:href="#DejaVuSans-6f" transform="translate(361.230469 0)"/>
      <use xlink:href="#DejaVuSans-6e" transform="translate(422.412109 0)"/>
      <use xlink:href="#DejaVuSans-20" transform="translate(485.791016 0)"/>
      <use xlink:href="#DejaVuSans-52" transform="translate(517.578125 0)"/>
      <use xlink:href="#DejaVuSans-61" transform="translate(584.810547 0)"/>
      <use xlink:href="#DejaVuSans-74" transform="translate(646.089844 0)"/>
      <use xlink:href="#DejaVuSans-69" transform="translate(685.298828 0)"/>
      <use xlink:href="#DejaVuSans-6f" transform="translate(713.082031 0)"/>
      <use xlink:href="#DejaVuSans-20" transform="translate(774.263672 0)"/>
      <use xlink:href="#DejaVuSans-28" transform="translate(806.050781 0)"/>
      <use xlink:href="#DejaVuSans-45" transform="translate(845.064453 0)"/>
      <use xlink:href="#DejaVuSans-66" transform="translate(908.248047 0)"/>
      <use xlink:href="#DejaVuSans-66" transform="translate(943.453125 0)"/>
      <use xlink:href="#DejaVuSans-69" transform="translate(978.658203 0)"/>
      <use xlink:href="#DejaVuSans-63" transform="translate(1006.441406 0)"/>
      <use xlink:href="#DejaVuSans-69" transform="translate(1061.421875 0)"/>
      <use xlink:href="#DejaVuSans-65" transform="translate(1089.205078 0)"/>
      <use xlink:href="#DejaVuSans-6e" transform="translate(1150.728516 0)"/>
      <use xlink:href="#DejaVuSans-63" transform="translate(1214.107422 0)"/>
      <use xlink:href="#DejaVuSans-79" transform="translate(1269.087891 0)"/>
      <use xlink:href="#DejaVuSans-29" transform="translate(1328.267578 0)"/>
     </g>
    </g>
   </g>
   <g id="line2d_27">
    <path d="M 64.072159 286.918125 
L 115.820786 286.918125 
L 118.544398 210.695903 
L 121.26801 175.851458 
L 123.991622 168.888928 
L 126.715234 160.01165 
L 129.438846 137.75636 
L 132.162458 138.77859 
L 134.88607 141.094125 
L 137.609682 138.61724 
L 140.333294 138.593801 
L 143.056906 135.79663 
L 145.780518 134.370955 
L 148.50413 138.490941 
L 151.227742 135.551788 
L 153.951354 133.918125 
L 156.674966 136.855625 
L 159.398578 130.535146 
L 164.845802 139.918125 
L 167.569414 141.60778 
L 170.293025 146.755334 
L 173.016637 150.418125 
L 175.740249 147.456587 
L 178.463861 139.918125 
L 181.187473 129.566012 
L 183.911085 135.594596 
L 186.634697 135.594596 
L 189.358309 132.688617 
L 192.081921 144.511875 
L 194.805533 144.511875 
L 197.529145 135.17619 
L 200.252757 135.018125 
L 202.976369 147.654967 
L 205.699981 150.056056 
L 208.423593 150.418125 
L 213.870817 150.418125 
L 216.594429 142.497072 
L 219.318041 163.128651 
L 222.041653 160.193987 
L 224.765265 168.286546 
L 227.488877 161.60665 
L 230.212489 164.418125 
L 232.936101 166.426322 
L 235.659712 158.885867 
L 238.383324 147.392701 
L 241.106936 139.918125 
L 243.830548 127.023388 
L 246.55416 121.865493 
L 249.277772 131.59737 
L 252.001384 139.918125 
L 254.724996 134.473681 
L 257.448608 116.398125 
L 260.17222 113.976949 
L 262.895832 106.918125 
L 265.619444 104.638125 
L 268.343056 104.638125 
L 271.066668 100.918125 
L 273.79028 122.278125 
L 276.513892 116.398125 
L 279.237504 124.279827 
L 281.961116 127.668125 
L 284.684728 130.118125 
L 287.40834 117.051458 
L 290.131952 139.918125 
L 295.579176 151.678125 
L 298.302788 160.094596 
L 301.026399 175.198125 
L 303.750011 164.880389 
L 306.473623 139.918125 
L 309.197235 127.668125 
L 314.644459 127.668125 
L 317.368071 146.918125 
L 320.091683 157.011148 
L 322.815295 157.844954 
L 325.538907 165.015686 
L 328.262519 157.844954 
L 330.986131 151.225817 
L 333.709743 166.30274 
L 336.433355 164.418125 
L 339.156967 139.918125 
L 341.880579 144.66006 
L 344.604191 162.190852 
L 347.327803 194.518125 
L 350.051415 144.118125 
L 352.775027 118.918125 
L 355.498639 105.32989 
L 358.222251 96.682831 
L 360.945863 108.736307 
L 363.669475 122.624007 
L 366.393086 117.645398 
L 369.116698 106.724577 
L 371.84031 105.32989 
L 374.563922 107.251458 
L 377.287534 102.118125 
L 380.011146 122.624007 
L 382.734758 132.181283 
L 385.45837 135.945152 
L 390.905594 135.46358 
L 393.629206 148.084792 
L 396.352818 115.418125 
L 399.07643 118.918125 
L 401.800042 113.976949 
L 404.523654 105.32989 
L 407.247266 87.756835 
L 409.970878 71.318125 
L 412.69449 63.883642 
L 415.418102 44.04856 
L 418.141714 46.37267 
L 420.865326 34.918125 
L 423.588938 39.339178 
L 426.31255 70.286546 
L 429.036162 95.818125 
L 431.759773 81.118125 
L 434.483385 81.118125 
L 437.206997 62.094596 
L 439.930609 84.793125 
L 442.654221 90.918125 
L 445.377833 71.318125 
L 448.101445 76.918125 
L 450.825057 83.379663 
L 453.548669 83.379663 
L 456.272281 99.827216 
L 458.995893 123.584792 
L 461.719505 156.251458 
L 464.443117 156.251458 
L 467.166729 169.318125 
L 469.890341 188.918125 
L 469.890341 188.918125 
" clip-path="url(#p33dbd9acb8)" style="fill: none; stroke: #1f77b4; stroke-width: 1.5; stroke-linecap: square"/>
   </g>
   <g id="line2d_28">
    <path d="M 64.072159 286.918125 
L 115.820786 286.918125 
L 118.544398 208.766226 
L 121.26801 180.854834 
L 123.991622 180.179271 
L 126.715234 181.005082 
L 129.438846 177.885012 
L 132.162458 175.198125 
L 134.88607 177.885012 
L 137.609682 181.379663 
L 140.333294 176.434049 
L 143.056906 179.357149 
L 145.780518 183.924494 
L 148.50413 182.180625 
L 151.227742 178.30666 
L 153.951354 179.310282 
L 159.398578 184.404967 
L 164.845802 171.214899 
L 167.569414 170.865493 
L 170.293025 165.262953 
L 173.016637 161.505538 
L 175.740249 168.109906 
L 178.463861 166.459792 
L 181.187473 160.62235 
L 183.911085 156.013016 
L 186.634697 150.888274 
L 189.358309 146.403419 
L 192.081921 145.362569 
L 194.805533 139.918125 
L 197.529145 138.845132 
L 200.252757 147.540347 
L 202.976369 142.04856 
L 205.699981 145.283089 
L 208.423593 146.403419 
L 211.147205 150.726949 
L 213.870817 146.500215 
L 216.594429 139.918125 
L 219.318041 127.383241 
L 222.041653 134.038125 
L 224.765265 123.049273 
L 227.488877 126.771784 
L 230.212489 124.124737 
L 232.936101 120.639436 
L 235.659712 123.049273 
L 238.383324 117.868125 
L 241.106936 122.477447 
L 243.830548 131.271066 
L 246.55416 129.780194 
L 249.277772 134.849159 
L 252.001384 132.314677 
L 254.724996 119.642263 
L 257.448608 119.642263 
L 260.17222 123.006621 
L 262.895832 128.823785 
L 265.619444 131.437356 
L 271.066668 118.480625 
L 273.79028 115.918125 
L 276.513892 118.480625 
L 279.237504 111.769189 
L 281.961116 115.687356 
L 284.684728 118.918125 
L 287.40834 120.436197 
L 290.131952 127.214421 
L 292.855564 130.614328 
L 295.579176 126.554489 
L 298.302788 123.584792 
L 301.026399 113.740043 
L 303.750011 107.961603 
L 306.473623 111.395737 
L 309.197235 107.961603 
L 311.920847 109.653419 
L 314.644459 113.976949 
L 317.368071 112.355625 
L 320.091683 112.511345 
L 322.815295 124.711228 
L 325.538907 121.209034 
L 328.262519 127.460498 
L 333.709743 147.392701 
L 336.433355 144.987091 
L 339.156967 129.780194 
L 341.880579 127.460498 
L 344.604191 127.460498 
L 347.327803 139.918125 
L 350.051415 155.668125 
L 352.775027 169.318125 
L 355.498639 153.281761 
L 358.222251 152.375752 
L 360.945863 149.718125 
L 363.669475 151.967305 
L 366.393086 132.443549 
L 369.116698 137.4266 
L 371.84031 147.147633 
L 374.563922 151.967305 
L 377.287534 146.918125 
L 380.011146 151.584792 
L 382.734758 157.358803 
L 385.45837 156.786977 
L 388.181982 154.618125 
L 390.905594 159.518125 
L 393.629206 160.918125 
L 396.352818 158.885867 
L 399.07643 165.262953 
L 401.800042 164.880389 
L 404.523654 164.880389 
L 407.247266 156.879663 
L 409.970878 137.035772 
L 412.69449 137.14454 
L 415.418102 148.23888 
L 418.141714 142.800478 
L 420.865326 142.800478 
L 423.588938 145.571971 
L 426.31255 142.800478 
L 429.036162 142.918125 
L 431.759773 148.565184 
L 434.483385 128.158125 
L 437.206997 130.918125 
L 439.930609 136.790465 
L 442.654221 136.918125 
L 445.377833 142.918125 
L 448.101445 155.556423 
L 450.825057 146.309429 
L 453.548669 146.309429 
L 456.272281 159.96358 
L 461.719505 181.078125 
L 464.443117 174.32238 
L 467.166729 165.859301 
L 469.890341 182.793125 
L 469.890341 182.793125 
" clip-path="url(#p33dbd9acb8)" style="fill: none; stroke: #ff7f0e; stroke-width: 1.5; stroke-linecap: square"/>
   </g>
   <g id="line2d_29">
    <path d="M 64.072159 286.918125 
L 115.820786 286.918125 
L 118.544398 234.288495 
L 121.26801 195.613777 
L 123.991622 180.179271 
L 126.715234 180.009034 
L 129.438846 167.87518 
L 132.162458 165.968758 
L 134.88607 165.19838 
L 137.609682 165.325532 
L 140.333294 165.968758 
L 143.056906 165.262953 
L 145.780518 168.918125 
L 148.50413 165.617426 
L 151.227742 158.159001 
L 153.951354 157.470364 
L 156.674966 160.59 
L 159.398578 159.59529 
L 162.12219 170.251458 
L 164.845802 163.251458 
L 167.569414 160.59 
L 170.293025 160.571018 
L 173.016637 168.836158 
L 175.740249 164.418125 
L 178.463861 150.233914 
L 181.187473 152.590539 
L 183.911085 158.627216 
L 186.634697 154.752987 
L 189.358309 162.106804 
L 192.081921 162.976949 
L 194.805533 162.190852 
L 197.529145 155.230625 
L 200.252757 155.896386 
L 202.976369 148.176552 
L 205.699981 154.143931 
L 208.423593 156.251458 
L 211.147205 160.918125 
L 213.870817 158.941654 
L 216.594429 169.986307 
L 219.318041 168.601052 
L 222.041653 152.943441 
L 224.765265 151.225817 
L 227.488877 166.096207 
L 230.212489 166.096207 
L 232.936101 154.411083 
L 235.659712 160.334792 
L 238.383324 161.478125 
L 241.106936 154.411083 
L 243.830548 158.551928 
L 246.55416 164.052453 
L 249.277772 160.271971 
L 252.001384 155.748894 
L 254.724996 157.736307 
L 257.448608 161.535772 
L 260.17222 177.718125 
L 262.895832 173.518125 
L 265.619444 167.613777 
L 268.343056 159.092038 
L 271.066668 174.50636 
L 273.79028 176.135516 
L 276.513892 170.182831 
L 279.237504 173.841202 
L 281.961116 181.604692 
L 284.684728 196.821351 
L 287.40834 205.50274 
L 290.131952 196.821351 
L 292.855564 151.225817 
L 295.579176 142.112155 
L 298.302788 144.511875 
L 301.026399 142.179663 
L 303.750011 135.324375 
L 306.473623 142.251458 
L 309.197235 149.718125 
L 311.920847 152.812862 
L 314.644459 157.970757 
L 317.368071 155.125022 
L 320.091683 147.936307 
L 322.815295 129.418125 
L 325.538907 134.473681 
L 328.262519 142.800478 
L 330.986131 145.798125 
L 333.709743 145.571971 
L 336.433355 148.565184 
L 341.880579 148.565184 
L 344.604191 139.918125 
L 347.327803 122.278125 
L 350.051415 101.570299 
L 352.775027 100.479101 
L 355.498639 104.918125 
L 358.222251 86.137637 
L 360.945863 95.818125 
L 363.669475 93.308369 
L 366.393086 76.918125 
L 369.116698 78.023388 
L 371.84031 90.918125 
L 374.563922 107.251458 
L 377.287534 122.624007 
L 380.011146 144.37267 
L 382.734758 144.66006 
L 385.45837 112.695903 
L 390.905594 134.038125 
L 393.629206 134.038125 
L 396.352818 115.418125 
L 399.07643 146.309429 
L 401.800042 146.309429 
L 404.523654 120.744212 
L 407.247266 104.918125 
L 409.970878 85.76023 
L 412.69449 79.388713 
L 415.418102 84.793125 
L 418.141714 107.251458 
L 420.865326 116.707599 
L 423.588938 132.181283 
L 426.31255 148.565184 
L 429.036162 156.251458 
L 431.759773 131.271066 
L 434.483385 156.251458 
L 437.206997 148.565184 
L 439.930609 139.918125 
L 442.654221 139.918125 
L 445.377833 110.518125 
L 448.101445 139.918125 
L 450.825057 130.118125 
L 453.548669 118.918125 
L 456.272281 130.118125 
L 458.995893 149.718125 
L 461.719505 110.518125 
L 464.443117 128.610433 
L 467.166729 151.225817 
L 469.890341 151.225817 
L 469.890341 151.225817 
" clip-path="url(#p33dbd9acb8)" style="fill: none; stroke: #2ca02c; stroke-width: 1.5; stroke-linecap: square"/>
   </g>
   <g id="line2d_30">
    <path d="M 64.072159 286.918125 
L 115.820786 286.918125 
L 118.544398 215.895653 
L 121.26801 174.358125 
L 123.991622 158.941654 
L 126.715234 165.958125 
L 129.438846 168.661142 
L 132.162458 166.345091 
L 134.88607 171.300147 
L 137.609682 164.84795 
L 140.333294 163.684592 
L 143.056906 159.092038 
L 145.780518 163.805625 
L 148.50413 164.418125 
L 151.227742 157.707934 
L 153.951354 161.478125 
L 156.674966 166.997072 
L 159.398578 157.641529 
L 162.12219 156.481505 
L 167.569414 158.707599 
L 170.293025 154.377141 
L 173.016637 153.281761 
L 175.740249 162.844731 
L 178.463861 169.888999 
L 181.187473 160.498125 
L 183.911085 163.918125 
L 186.634697 160.918125 
L 189.358309 159.619156 
L 192.081921 152.428763 
L 194.805533 147.821351 
L 197.529145 135.071971 
L 200.252757 138.26644 
L 202.976369 131.271066 
L 205.699981 120.894596 
L 208.423593 116.325532 
L 211.147205 112.006733 
L 213.870817 111.281761 
L 216.594429 108.134341 
L 219.318041 116.707599 
L 222.041653 118.918125 
L 224.765265 122.624007 
L 227.488877 126.947537 
L 230.212489 113.190852 
L 232.936101 113.190852 
L 235.659712 115.041202 
L 238.383324 126.554489 
L 241.106936 133.13351 
L 243.830548 125.692319 
L 246.55416 127.460498 
L 249.277772 130.118125 
L 252.001384 134.849159 
L 254.724996 144.66006 
L 257.448608 144.987091 
L 260.17222 149.718125 
L 262.895832 162.341854 
L 265.619444 155.125022 
L 268.343056 161.60665 
L 271.066668 171.245994 
L 273.79028 186.118125 
L 276.513892 188.918125 
L 279.237504 176.668125 
L 281.961116 166.096207 
L 284.684728 164.418125 
L 287.40834 166.833618 
L 290.131952 182.470757 
L 292.855564 183.620828 
L 295.579176 187.645398 
L 298.302788 185.148894 
L 301.026399 170.865493 
L 303.750011 167.728936 
L 306.473623 153.638125 
L 309.197235 145.959221 
L 311.920847 154.014015 
L 314.644459 139.918125 
L 317.368071 159.092038 
L 320.091683 168.440513 
L 322.815295 175.554489 
L 325.538907 179.584792 
L 328.262519 170.251458 
L 330.986131 161.60665 
L 333.709743 142.40965 
L 336.433355 151.967305 
L 339.156967 160.918125 
L 341.880579 163.97267 
L 344.604191 171.418125 
L 347.327803 165.859301 
L 350.051415 163.438125 
L 352.775027 164.418125 
L 355.498639 159.96358 
L 358.222251 149.718125 
L 360.945863 146.309429 
L 363.669475 149.718125 
L 369.116698 122.825102 
L 371.84031 121.991296 
L 374.563922 136.332759 
L 377.287534 132.568125 
L 380.011146 147.654967 
L 382.734758 139.918125 
L 385.45837 131.271066 
L 388.181982 143.891098 
L 390.905594 112.107314 
L 393.629206 115.418125 
L 396.352818 115.418125 
L 399.07643 118.918125 
L 401.800042 121.543125 
L 404.523654 121.543125 
L 407.247266 116.208448 
L 409.970878 114.573297 
L 412.69449 97.918125 
L 415.418102 103.168125 
L 418.141714 107.961603 
L 420.865326 118.918125 
L 426.31255 118.918125 
L 429.036162 126.554489 
L 431.759773 146.918125 
L 434.483385 139.918125 
L 437.206997 147.654967 
L 439.930609 139.918125 
L 442.654221 153.281761 
L 445.377833 146.918125 
L 448.101445 85.76023 
L 450.825057 90.918125 
L 458.995893 90.918125 
L 461.719505 84.793125 
L 464.443117 101.233914 
L 467.166729 70.286546 
L 469.890341 74.584792 
L 469.890341 74.584792 
" clip-path="url(#p33dbd9acb8)" style="fill: none; stroke: #d62728; stroke-width: 1.5; stroke-linecap: square"/>
   </g>
   <g id="line2d_31">
    <path d="M 64.072159 286.918125 
L 115.820786 286.918125 
L 118.544398 227.79856 
L 121.26801 199.636875 
L 123.991622 190.425817 
L 126.715234 187.015212 
L 129.438846 176.488857 
L 132.162458 171.681944 
L 134.88607 163.438125 
L 137.609682 160.065333 
L 140.333294 153.953301 
L 143.056906 154.76661 
L 145.780518 156.739021 
L 148.50413 156.088125 
L 151.227742 158.764279 
L 153.951354 151.584792 
L 156.674966 151.837044 
L 159.398578 148.658666 
L 162.12219 147.147633 
L 164.845802 152.236561 
L 167.569414 153.281761 
L 170.293025 149.718125 
L 173.016637 154.198125 
L 175.740249 151.093564 
L 178.463861 148.565184 
L 181.187473 142.558844 
L 183.911085 139.037885 
L 186.634697 134.668125 
L 189.358309 143.460294 
L 192.081921 140.831168 
L 194.805533 140.878909 
L 197.529145 149.589178 
L 200.252757 156.467794 
L 202.976369 151.678125 
L 205.699981 145.798125 
L 211.147205 156.027714 
L 213.870817 162.692773 
L 216.594429 158.918125 
L 219.318041 164.082509 
L 222.041653 166.997072 
L 224.765265 173.841202 
L 227.488877 176.905222 
L 230.212489 175.467145 
L 232.936101 174.830625 
L 235.659712 170.026559 
L 238.383324 177.610433 
L 241.106936 168.187356 
L 243.830548 170.071971 
L 246.55416 166.30274 
L 249.277772 168.943603 
L 252.001384 168.943603 
L 254.724996 162.016164 
L 257.448608 153.82353 
L 260.17222 147.97292 
L 262.895832 139.918125 
L 265.619444 134.553161 
L 268.343056 142.112155 
L 271.066668 128.063286 
L 273.79028 119.642263 
L 276.513892 117.404611 
L 279.237504 117.803081 
L 281.961116 116.991519 
L 284.684728 122.278125 
L 287.40834 144.118125 
L 290.131952 129.730006 
L 292.855564 124.518125 
L 295.579176 137.035772 
L 298.302788 130.730625 
L 301.026399 135.17619 
L 303.750011 141.53351 
L 306.473623 145.10636 
L 309.197235 139.918125 
L 311.920847 146.918125 
L 314.644459 141.56981 
L 317.368071 143.184792 
L 320.091683 134.963069 
L 322.815295 143.33673 
L 325.538907 136.332759 
L 328.262519 128.893125 
L 330.986131 136.243125 
L 333.709743 141.878125 
L 336.433355 127.999206 
L 339.156967 127.318125 
L 341.880579 131.271066 
L 344.604191 120.171856 
L 347.327803 122.099943 
L 350.051415 118.300478 
L 352.775027 128.947976 
L 355.498639 146.500215 
L 358.222251 144.511875 
L 360.945863 132.688617 
L 363.669475 132.181283 
L 366.393086 129.029236 
L 369.116698 126.554489 
L 371.84031 127.023388 
L 374.563922 126.554489 
L 377.287534 115.86358 
L 380.011146 121.209034 
L 382.734758 122.956587 
L 385.45837 134.038125 
L 388.181982 134.038125 
L 390.905594 143.045785 
L 393.629206 136.651458 
L 396.352818 123.584792 
L 399.07643 118.918125 
L 401.800042 157.844954 
L 404.523654 143.687356 
L 407.247266 147.268125 
L 409.970878 166.645398 
L 412.69449 150.173939 
L 415.418102 146.918125 
L 418.141714 161.968125 
L 420.865326 157.844954 
L 423.588938 157.011148 
L 426.31255 170.865493 
L 429.036162 170.865493 
L 431.759773 177.718125 
L 437.206997 144.37267 
L 439.930609 125.692319 
L 442.654221 139.918125 
L 445.377833 144.37267 
L 448.101445 139.918125 
L 450.825057 152.518125 
L 453.548669 143.891098 
L 456.272281 127.999206 
L 458.995893 99.084792 
L 461.719505 96.215422 
L 464.443117 90.918125 
L 467.166729 90.918125 
L 469.890341 99.084792 
L 469.890341 99.084792 
" clip-path="url(#p33dbd9acb8)" style="fill: none; stroke: #9467bd; stroke-width: 1.5; stroke-linecap: square"/>
   </g>
   <g id="line2d_32">
    <path d="M 64.072159 286.918125 
L 115.820786 286.918125 
L 118.544398 221.127915 
L 121.26801 180.396386 
L 123.991622 175.326884 
L 126.715234 179.818125 
L 129.438846 176.407487 
L 132.162458 177.185731 
L 134.88607 176.668125 
L 137.609682 170.58719 
L 140.333294 171.034913 
L 143.056906 167.97156 
L 145.780518 164.418125 
L 151.227742 167.140347 
L 153.951354 174.50636 
L 156.674966 164.596957 
L 159.398578 161.238736 
L 162.12219 169.7775 
L 164.845802 174.918125 
L 167.569414 176.10274 
L 170.293025 176.374125 
L 173.016637 168.836158 
L 175.740249 162.341854 
L 178.463861 158.973681 
L 181.187473 153.281761 
L 183.911085 163.97267 
L 186.634697 160.525602 
L 189.358309 156.559634 
L 192.081921 156.559634 
L 194.805533 157.212243 
L 197.529145 161.325892 
L 200.252757 155.928026 
L 202.976369 149.908416 
L 205.699981 149.718125 
L 208.423593 148.398894 
L 211.147205 156.879663 
L 213.870817 136.978125 
L 216.594429 120.217094 
L 219.318041 124.605625 
L 222.041653 127.135516 
L 224.765265 131.469849 
L 227.488877 149.940852 
L 230.212489 152.315715 
L 232.936101 159.26023 
L 235.659712 157.099943 
L 238.383324 149.986618 
L 241.106936 128.312862 
L 243.830548 130.37267 
L 246.55416 129.849632 
L 249.277772 119.501458 
L 252.001384 122.624007 
L 254.724996 115.041202 
L 257.448608 117.645398 
L 260.17222 126.554489 
L 262.895832 126.554489 
L 265.619444 128.251458 
L 268.343056 124.711228 
L 271.066668 139.918125 
L 273.79028 137.339178 
L 276.513892 127.023388 
L 279.237504 129.780194 
L 281.961116 142.327961 
L 284.684728 127.460498 
L 287.40834 124.168125 
L 290.131952 118.140347 
L 292.855564 120.503031 
L 295.579176 128.610433 
L 298.302788 131.59737 
L 301.026399 139.918125 
L 303.750011 142.590852 
L 306.473623 147.654967 
L 309.197235 166.168125 
L 311.920847 169.318125 
L 314.644459 160.918125 
L 317.368071 150.418125 
L 320.091683 159.333219 
L 322.815295 161.695903 
L 325.538907 142.40965 
L 328.262519 142.497072 
L 330.986131 153.78605 
L 333.709743 175.974729 
L 336.433355 172.584792 
L 339.156967 170.427559 
L 341.880579 181.078125 
L 344.604191 188.918125 
L 347.327803 185.148894 
L 350.051415 179.495048 
L 352.775027 188.918125 
L 355.498639 188.918125 
L 358.222251 171.624007 
L 360.945863 170.543125 
L 366.393086 146.043125 
L 369.116698 139.918125 
L 371.84031 121.543125 
L 374.563922 117.051458 
L 377.287534 117.051458 
L 380.011146 118.918125 
L 382.734758 123.584792 
L 385.45837 123.584792 
L 388.181982 131.271066 
L 390.905594 144.37267 
L 393.629206 139.918125 
L 396.352818 130.730625 
L 399.07643 144.37267 
L 401.800042 139.918125 
L 404.523654 112.355625 
L 407.247266 125.692319 
L 409.970878 108.418125 
L 412.69449 108.418125 
L 415.418102 117.30274 
L 418.141714 145.362569 
L 420.865326 145.362569 
L 423.588938 152.168125 
L 426.31255 127.668125 
L 429.036162 127.668125 
L 431.759773 126.554489 
L 434.483385 132.918125 
L 437.206997 132.181283 
L 439.930609 131.271066 
L 442.654221 123.584792 
L 445.377833 96.682831 
L 448.101445 103.168125 
L 450.825057 71.318125 
L 453.548669 90.918125 
L 456.272281 90.918125 
L 458.995893 121.543125 
L 461.719505 131.271066 
L 464.443117 131.271066 
L 467.166729 110.518125 
L 469.890341 118.918125 
L 469.890341 118.918125 
" clip-path="url(#p33dbd9acb8)" style="fill: none; stroke: #8c564b; stroke-width: 1.5; stroke-linecap: square"/>
   </g>
   <g id="patch_3">
    <path d="M 43.78125 299.518125 
L 43.78125 22.318125 
" style="fill: none; stroke: #000000; stroke-width: 0.8; stroke-linejoin: miter; stroke-linecap: square"/>
   </g>
   <g id="patch_4">
    <path d="M 490.18125 299.518125 
L 490.18125 22.318125 
" style="fill: none; stroke: #000000; stroke-width: 0.8; stroke-linejoin: miter; stroke-linecap: square"/>
   </g>
   <g id="patch_5">
    <path d="M 43.78125 299.518125 
L 490.18125 299.518125 
" style="fill: none; stroke: #000000; stroke-width: 0.8; stroke-linejoin: miter; stroke-linecap: square"/>
   </g>
   <g id="patch_6">
    <path d="M 43.78125 22.318125 
L 490.18125 22.318125 
" style="fill: none; stroke: #000000; stroke-width: 0.8; stroke-linejoin: miter; stroke-linecap: square"/>
   </g>
   <g id="text_16">
    <!-- Detection Ratio: SBM-5k-Med (Peak 100) -->
    <g transform="translate(145.004062 16.318125) scale(0.12 -0.12)">
     <defs>
      <path id="DejaVuSans-3a" d="M 750 794 
L 1409 794 
L 1409 0 
L 750 0 
L 750 794 
z
M 750 3309 
L 1409 3309 
L 1409 2516 
L 750 2516 
L 750 3309 
z
" transform="scale(0.015625)"/>
      <path id="DejaVuSans-42" d="M 1259 2228 
L 1259 519 
L 2272 519 
Q 2781 519 3026 730 
Q 3272 941 3272 1375 
Q 3272 1813 3026 2020 
Q 2781 2228 2272 2228 
L 1259 2228 
z
M 1259 4147 
L 1259 2741 
L 2194 2741 
Q 2656 2741 2882 2914 
Q 3109 3088 3109 3444 
Q 3109 3797 2882 3972 
Q 2656 4147 2194 4147 
L 1259 4147 
z
M 628 4666 
L 2241 4666 
Q 2963 4666 3353 4366 
Q 3744 4066 3744 3513 
Q 3744 3084 3544 2831 
Q 3344 2578 2956 2516 
Q 3422 2416 3680 2098 
Q 3938 1781 3938 1306 
Q 3938 681 3513 340 
Q 3088 0 2303 0 
L 628 0 
L 628 4666 
z
" transform="scale(0.015625)"/>
      <path id="DejaVuSans-4d" d="M 628 4666 
L 1569 4666 
L 2759 1491 
L 3956 4666 
L 4897 4666 
L 4897 0 
L 4281 0 
L 4281 4097 
L 3078 897 
L 2444 897 
L 1241 4097 
L 1241 0 
L 628 0 
L 628 4666 
z
" transform="scale(0.015625)"/>
      <path id="DejaVuSans-2d" d="M 313 2009 
L 1997 2009 
L 1997 1497 
L 313 1497 
L 313 2009 
z
" transform="scale(0.015625)"/>
      <path id="DejaVuSans-35" d="M 691 4666 
L 3169 4666 
L 3169 4134 
L 1269 4134 
L 1269 2991 
Q 1406 3038 1543 3061 
Q 1681 3084 1819 3084 
Q 2600 3084 3056 2656 
Q 3513 2228 3513 1497 
Q 3513 744 3044 326 
Q 2575 -91 1722 -91 
Q 1428 -91 1123 -41 
Q 819 9 494 109 
L 494 744 
Q 775 591 1075 516 
Q 1375 441 1709 441 
Q 2250 441 2565 725 
Q 2881 1009 2881 1497 
Q 2881 1984 2565 2268 
Q 2250 2553 1709 2553 
Q 1456 2553 1204 2497 
Q 953 2441 691 2322 
L 691 4666 
z
" transform="scale(0.015625)"/>
      <path id="DejaVuSans-6b" d="M 581 4863 
L 1159 4863 
L 1159 1991 
L 2875 3500 
L 3609 3500 
L 1753 1863 
L 3688 0 
L 2938 0 
L 1159 1709 
L 1159 0 
L 581 0 
L 581 4863 
z
" transform="scale(0.015625)"/>
      <path id="DejaVuSans-64" d="M 2906 2969 
L 2906 4863 
L 3481 4863 
L 3481 0 
L 2906 0 
L 2906 525 
Q 2725 213 2448 61 
Q 2172 -91 1784 -91 
Q 1150 -91 751 415 
Q 353 922 353 1747 
Q 353 2572 751 3078 
Q 1150 3584 1784 3584 
Q 2172 3584 2448 3432 
Q 2725 3281 2906 2969 
z
M 947 1747 
Q 947 1113 1208 752 
Q 1469 391 1925 391 
Q 2381 391 2643 752 
Q 2906 1113 2906 1747 
Q 2906 2381 2643 2742 
Q 2381 3103 1925 3103 
Q 1469 3103 1208 2742 
Q 947 2381 947 1747 
z
" transform="scale(0.015625)"/>
      <path id="DejaVuSans-50" d="M 1259 4147 
L 1259 2394 
L 2053 2394 
Q 2494 2394 2734 2622 
Q 2975 2850 2975 3272 
Q 2975 3691 2734 3919 
Q 2494 4147 2053 4147 
L 1259 4147 
z
M 628 4666 
L 2053 4666 
Q 2838 4666 3239 4311 
Q 3641 3956 3641 3272 
Q 3641 2581 3239 2228 
Q 2838 1875 2053 1875 
L 1259 1875 
L 1259 0 
L 628 0 
L 628 4666 
z
" transform="scale(0.015625)"/>
     </defs>
     <use xlink:href="#DejaVuSans-44"/>
     <use xlink:href="#DejaVuSans-65" transform="translate(77.001953 0)"/>
     <use xlink:href="#DejaVuSans-74" transform="translate(138.525391 0)"/>
     <use xlink:href="#DejaVuSans-65" transform="translate(177.734375 0)"/>
     <use xlink:href="#DejaVuSans-63" transform="translate(239.257812 0)"/>
     <use xlink:href="#DejaVuSans-74" transform="translate(294.238281 0)"/>
     <use xlink:href="#DejaVuSans-69" transform="translate(333.447266 0)"/>
     <use xlink:href="#DejaVuSans-6f" transform="translate(361.230469 0)"/>
     <use xlink:href="#DejaVuSans-6e" transform="translate(422.412109 0)"/>
     <use xlink:href="#DejaVuSans-20" transform="translate(485.791016 0)"/>
     <use xlink:href="#DejaVuSans-52" transform="translate(517.578125 0)"/>
     <use xlink:href="#DejaVuSans-61" transform="translate(584.810547 0)"/>
     <use xlink:href="#DejaVuSans-74" transform="translate(646.089844 0)"/>
     <use xlink:href="#DejaVuSans-69" transform="translate(685.298828 0)"/>
     <use xlink:href="#DejaVuSans-6f" transform="translate(713.082031 0)"/>
     <use xlink:href="#DejaVuSans-3a" transform="translate(774.263672 0)"/>
     <use xlink:href="#DejaVuSans-20" transform="translate(807.955078 0)"/>
     <use xlink:href="#DejaVuSans-53" transform="translate(839.742188 0)"/>
     <use xlink:href="#DejaVuSans-42" transform="translate(903.21875 0)"/>
     <use xlink:href="#DejaVuSans-4d" transform="translate(971.822266 0)"/>
     <use xlink:href="#DejaVuSans-2d" transform="translate(1058.101562 0)"/>
     <use xlink:href="#DejaVuSans-35" transform="translate(1094.185547 0)"/>
     <use xlink:href="#DejaVuSans-6b" transform="translate(1157.808594 0)"/>
     <use xlink:href="#DejaVuSans-2d" transform="translate(1215.71875 0)"/>
     <use xlink:href="#DejaVuSans-4d" transform="translate(1251.802734 0)"/>
     <use xlink:href="#DejaVuSans-65" transform="translate(1338.082031 0)"/>
     <use xlink:href="#DejaVuSans-64" transform="translate(1399.605469 0)"/>
     <use xlink:href="#DejaVuSans-20" transform="translate(1463.082031 0)"/>
     <use xlink:href="#DejaVuSans-28" transform="translate(1494.869141 0)"/>
     <use xlink:href="#DejaVuSans-50" transform="translate(1533.882812 0)"/>
     <use xlink:href="#DejaVuSans-65" transform="translate(1590.560547 0)"/>
     <use xlink:href="#DejaVuSans-61" transform="translate(1652.083984 0)"/>
     <use xlink:href="#DejaVuSans-6b" transform="translate(1713.363281 0)"/>
     <use xlink:href="#DejaVuSans-20" transform="translate(1771.273438 0)"/>
     <use xlink:href="#DejaVuSans-31" transform="translate(1803.060547 0)"/>
     <use xlink:href="#DejaVuSans-30" transform="translate(1866.683594 0)"/>
     <use xlink:href="#DejaVuSans-30" transform="translate(1930.306641 0)"/>
     <use xlink:href="#DejaVuSans-29" transform="translate(1993.929688 0)"/>
    </g>
   </g>
   <g id="legend_1">
    <g id="patch_7">
     <path d="M 50.08125 108.78 
L 156.426094 108.78 
Q 158.226094 108.78 158.226094 106.98 
L 158.226094 28.618125 
Q 158.226094 26.818125 156.426094 26.818125 
L 50.08125 26.818125 
Q 48.28125 26.818125 48.28125 28.618125 
L 48.28125 106.98 
Q 48.28125 108.78 50.08125 108.78 
z
" style="fill: #ffffff; opacity: 0.8; stroke: #cccccc; stroke-linejoin: miter"/>
    </g>
    <g id="line2d_33">
     <path d="M 51.88125 34.106719 
L 60.88125 34.106719 
L 69.88125 34.106719 
" style="fill: none; stroke: #1f77b4; stroke-width: 1.5; stroke-linecap: square"/>
    </g>
    <g id="text_17">
     <!-- LocalGNTS-14 -->
     <g transform="translate(77.08125 37.256719) scale(0.09 -0.09)">
      <defs>
       <path id="DejaVuSans-4c" d="M 628 4666 
L 1259 4666 
L 1259 531 
L 3531 531 
L 3531 0 
L 628 0 
L 628 4666 
z
" transform="scale(0.015625)"/>
       <path id="DejaVuSans-47" d="M 3809 666 
L 3809 1919 
L 2778 1919 
L 2778 2438 
L 4434 2438 
L 4434 434 
Q 4069 175 3628 42 
Q 3188 -91 2688 -91 
Q 1594 -91 976 548 
Q 359 1188 359 2328 
Q 359 3472 976 4111 
Q 1594 4750 2688 4750 
Q 3144 4750 3555 4637 
Q 3966 4525 4313 4306 
L 4313 3634 
Q 3963 3931 3569 4081 
Q 3175 4231 2741 4231 
Q 1884 4231 1454 3753 
Q 1025 3275 1025 2328 
Q 1025 1384 1454 906 
Q 1884 428 2741 428 
Q 3075 428 3337 486 
Q 3600 544 3809 666 
z
" transform="scale(0.015625)"/>
       <path id="DejaVuSans-4e" d="M 628 4666 
L 1478 4666 
L 3547 763 
L 3547 4666 
L 4159 4666 
L 4159 0 
L 3309 0 
L 1241 3903 
L 1241 0 
L 628 0 
L 628 4666 
z
" transform="scale(0.015625)"/>
       <path id="DejaVuSans-54" d="M -19 4666 
L 3928 4666 
L 3928 4134 
L 2272 4134 
L 2272 0 
L 1638 0 
L 1638 4134 
L -19 4134 
L -19 4666 
z
" transform="scale(0.015625)"/>
      </defs>
      <use xlink:href="#DejaVuSans-4c"/>
      <use xlink:href="#DejaVuSans-6f" transform="translate(53.962891 0)"/>
      <use xlink:href="#DejaVuSans-63" transform="translate(115.144531 0)"/>
      <use xlink:href="#DejaVuSans-61" transform="translate(170.125 0)"/>
      <use xlink:href="#DejaVuSans-6c" transform="translate(231.404297 0)"/>
      <use xlink:href="#DejaVuSans-47" transform="translate(259.1875 0)"/>
      <use xlink:href="#DejaVuSans-4e" transform="translate(336.677734 0)"/>
      <use xlink:href="#DejaVuSans-54" transform="translate(411.482422 0)"/>
      <use xlink:href="#DejaVuSans-53" transform="translate(472.566406 0)"/>
      <use xlink:href="#DejaVuSans-2d" transform="translate(536.042969 0)"/>
      <use xlink:href="#DejaVuSans-31" transform="translate(572.126953 0)"/>
      <use xlink:href="#DejaVuSans-34" transform="translate(635.75 0)"/>
     </g>
    </g>
    <g id="line2d_34">
     <path d="M 51.88125 47.317031 
L 60.88125 47.317031 
L 69.88125 47.317031 
" style="fill: none; stroke: #ff7f0e; stroke-width: 1.5; stroke-linecap: square"/>
    </g>
    <g id="text_18">
     <!-- GlobalGNTS-14 -->
     <g transform="translate(77.08125 50.467031) scale(0.09 -0.09)">
      <defs>
       <path id="DejaVuSans-62" d="M 3116 1747 
Q 3116 2381 2855 2742 
Q 2594 3103 2138 3103 
Q 1681 3103 1420 2742 
Q 1159 2381 1159 1747 
Q 1159 1113 1420 752 
Q 1681 391 2138 391 
Q 2594 391 2855 752 
Q 3116 1113 3116 1747 
z
M 1159 2969 
Q 1341 3281 1617 3432 
Q 1894 3584 2278 3584 
Q 2916 3584 3314 3078 
Q 3713 2572 3713 1747 
Q 3713 922 3314 415 
Q 2916 -91 2278 -91 
Q 1894 -91 1617 61 
Q 1341 213 1159 525 
L 1159 0 
L 581 0 
L 581 4863 
L 1159 4863 
L 1159 2969 
z
" transform="scale(0.015625)"/>
      </defs>
      <use xlink:href="#DejaVuSans-47"/>
      <use xlink:href="#DejaVuSans-6c" transform="translate(77.490234 0)"/>
      <use xlink:href="#DejaVuSans-6f" transform="translate(105.273438 0)"/>
      <use xlink:href="#DejaVuSans-62" transform="translate(166.455078 0)"/>
      <use xlink:href="#DejaVuSans-61" transform="translate(229.931641 0)"/>
      <use xlink:href="#DejaVuSans-6c" transform="translate(291.210938 0)"/>
      <use xlink:href="#DejaVuSans-47" transform="translate(318.994141 0)"/>
      <use xlink:href="#DejaVuSans-4e" transform="translate(396.484375 0)"/>
      <use xlink:href="#DejaVuSans-54" transform="translate(471.289062 0)"/>
      <use xlink:href="#DejaVuSans-53" transform="translate(532.373047 0)"/>
      <use xlink:href="#DejaVuSans-2d" transform="translate(595.849609 0)"/>
      <use xlink:href="#DejaVuSans-31" transform="translate(631.933594 0)"/>
      <use xlink:href="#DejaVuSans-34" transform="translate(695.556641 0)"/>
     </g>
    </g>
    <g id="line2d_35">
     <path d="M 51.88125 60.527344 
L 60.88125 60.527344 
L 69.88125 60.527344 
" style="fill: none; stroke: #2ca02c; stroke-width: 1.5; stroke-linecap: square"/>
    </g>
    <g id="text_19">
     <!-- Beta-Binomial-14 -->
     <g transform="translate(77.08125 63.677344) scale(0.09 -0.09)">
      <use xlink:href="#DejaVuSans-42"/>
      <use xlink:href="#DejaVuSans-65" transform="translate(68.603516 0)"/>
      <use xlink:href="#DejaVuSans-74" transform="translate(130.126953 0)"/>
      <use xlink:href="#DejaVuSans-61" transform="translate(169.335938 0)"/>
      <use xlink:href="#DejaVuSans-2d" transform="translate(230.615234 0)"/>
      <use xlink:href="#DejaVuSans-42" transform="translate(263.074219 0)"/>
      <use xlink:href="#DejaVuSans-69" transform="translate(331.677734 0)"/>
      <use xlink:href="#DejaVuSans-6e" transform="translate(359.460938 0)"/>
      <use xlink:href="#DejaVuSans-6f" transform="translate(422.839844 0)"/>
      <use xlink:href="#DejaVuSans-6d" transform="translate(484.021484 0)"/>
      <use xlink:href="#DejaVuSans-69" transform="translate(581.433594 0)"/>
      <use xlink:href="#DejaVuSans-61" transform="translate(609.216797 0)"/>
      <use xlink:href="#DejaVuSans-6c" transform="translate(670.496094 0)"/>
      <use xlink:href="#DejaVuSans-2d" transform="translate(698.279297 0)"/>
      <use xlink:href="#DejaVuSans-31" transform="translate(734.363281 0)"/>
      <use xlink:href="#DejaVuSans-34" transform="translate(797.986328 0)"/>
     </g>
    </g>
    <g id="line2d_36">
     <path d="M 51.88125 73.737656 
L 60.88125 73.737656 
L 69.88125 73.737656 
" style="fill: none; stroke: #d62728; stroke-width: 1.5; stroke-linecap: square"/>
    </g>
    <g id="text_20">
     <!-- Proportional -->
     <g transform="translate(77.08125 76.887656) scale(0.09 -0.09)">
      <defs>
       <path id="DejaVuSans-72" d="M 2631 2963 
Q 2534 3019 2420 3045 
Q 2306 3072 2169 3072 
Q 1681 3072 1420 2755 
Q 1159 2438 1159 1844 
L 1159 0 
L 581 0 
L 581 3500 
L 1159 3500 
L 1159 2956 
Q 1341 3275 1631 3429 
Q 1922 3584 2338 3584 
Q 2397 3584 2469 3576 
Q 2541 3569 2628 3553 
L 2631 2963 
z
" transform="scale(0.015625)"/>
       <path id="DejaVuSans-70" d="M 1159 525 
L 1159 -1331 
L 581 -1331 
L 581 3500 
L 1159 3500 
L 1159 2969 
Q 1341 3281 1617 3432 
Q 1894 3584 2278 3584 
Q 2916 3584 3314 3078 
Q 3713 2572 3713 1747 
Q 3713 922 3314 415 
Q 2916 -91 2278 -91 
Q 1894 -91 1617 61 
Q 1341 213 1159 525 
z
M 3116 1747 
Q 3116 2381 2855 2742 
Q 2594 3103 2138 3103 
Q 1681 3103 1420 2742 
Q 1159 2381 1159 1747 
Q 1159 1113 1420 752 
Q 1681 391 2138 391 
Q 2594 391 2855 752 
Q 3116 1113 3116 1747 
z
" transform="scale(0.015625)"/>
      </defs>
      <use xlink:href="#DejaVuSans-50"/>
      <use xlink:href="#DejaVuSans-72" transform="translate(58.552734 0)"/>
      <use xlink:href="#DejaVuSans-6f" transform="translate(97.416016 0)"/>
      <use xlink:href="#DejaVuSans-70" transform="translate(158.597656 0)"/>
      <use xlink:href="#DejaVuSans-6f" transform="translate(222.074219 0)"/>
      <use xlink:href="#DejaVuSans-72" transform="translate(283.255859 0)"/>
      <use xlink:href="#DejaVuSans-74" transform="translate(324.369141 0)"/>
      <use xlink:href="#DejaVuSans-69" transform="translate(363.578125 0)"/>
      <use xlink:href="#DejaVuSans-6f" transform="translate(391.361328 0)"/>
      <use xlink:href="#DejaVuSans-6e" transform="translate(452.542969 0)"/>
      <use xlink:href="#DejaVuSans-61" transform="translate(515.921875 0)"/>
      <use xlink:href="#DejaVuSans-6c" transform="translate(577.201172 0)"/>
     </g>
    </g>
    <g id="line2d_37">
     <path d="M 51.88125 86.947969 
L 60.88125 86.947969 
L 69.88125 86.947969 
" style="fill: none; stroke: #9467bd; stroke-width: 1.5; stroke-linecap: square"/>
    </g>
    <g id="text_21">
     <!-- Uniform -->
     <g transform="translate(77.08125 90.097969) scale(0.09 -0.09)">
      <defs>
       <path id="DejaVuSans-55" d="M 556 4666 
L 1191 4666 
L 1191 1831 
Q 1191 1081 1462 751 
Q 1734 422 2344 422 
Q 2950 422 3222 751 
Q 3494 1081 3494 1831 
L 3494 4666 
L 4128 4666 
L 4128 1753 
Q 4128 841 3676 375 
Q 3225 -91 2344 -91 
Q 1459 -91 1007 375 
Q 556 841 556 1753 
L 556 4666 
z
" transform="scale(0.015625)"/>
      </defs>
      <use xlink:href="#DejaVuSans-55"/>
      <use xlink:href="#DejaVuSans-6e" transform="translate(73.193359 0)"/>
      <use xlink:href="#DejaVuSans-69" transform="translate(136.572266 0)"/>
      <use xlink:href="#DejaVuSans-66" transform="translate(164.355469 0)"/>
      <use xlink:href="#DejaVuSans-6f" transform="translate(199.560547 0)"/>
      <use xlink:href="#DejaVuSans-72" transform="translate(260.742188 0)"/>
      <use xlink:href="#DejaVuSans-6d" transform="translate(300.105469 0)"/>
     </g>
    </g>
    <g id="line2d_38">
     <path d="M 51.88125 100.158281 
L 60.88125 100.158281 
L 69.88125 100.158281 
" style="fill: none; stroke: #8c564b; stroke-width: 1.5; stroke-linecap: square"/>
    </g>
    <g id="text_22">
     <!-- Random -->
     <g transform="translate(77.08125 103.308281) scale(0.09 -0.09)">
      <use xlink:href="#DejaVuSans-52"/>
      <use xlink:href="#DejaVuSans-61" transform="translate(67.232422 0)"/>
      <use xlink:href="#DejaVuSans-6e" transform="translate(128.511719 0)"/>
      <use xlink:href="#DejaVuSans-64" transform="translate(191.890625 0)"/>
      <use xlink:href="#DejaVuSans-6f" transform="translate(255.367188 0)"/>
      <use xlink:href="#DejaVuSans-6d" transform="translate(316.548828 0)"/>
     </g>
    </g>
   </g>
  </g>
 </g>
 <defs>
  <clipPath id="p33dbd9acb8">
   <rect x="43.78125" y="22.318125" width="446.4" height="277.2"/>
  </clipPath>
 </defs>
</svg>
