<?xml version="1.0" encoding="utf-8" standalone="no"?>
<!DOCTYPE svg PUBLIC "-//W3C//DTD SVG 1.1//EN"
  "http://www.w3.org/Graphics/SVG/1.1/DTD/svg11.dtd">
<svg xmlns:xlink="http://www.w3.org/1999/xlink" width="497.38125pt" height="337.074375pt" viewBox="0 0 497.38125 337.074375" xmlns="http://www.w3.org/2000/svg" version="1.1">
 <metadata>
  <rdf:RDF xmlns:dc="http://purl.org/dc/elements/1.1/" xmlns:cc="http://creativecommons.org/ns#" xmlns:rdf="http://www.w3.org/1999/02/22-rdf-syntax-ns#">
   <cc:Work>
    <dc:type rdf:resource="http://purl.org/dc/dcmitype/StillImage"/>
    <dc:date>2026-07-01T09:39:56.566228</dc:date>
    <dc:format>image/svg+xml</dc:format>
    <dc:creator>
     <cc:Agent>
      <dc:title>Matplotlib v3.10.8, https://matplotlib.org/</dc:title>
     </cc:Agent>
    </dc:creator>
   </cc:Work>
  </rdf:RDF>
 </metadata>
 <defs>
  <style type="text/css">*{stroke-linejoin: round; stroke-linecap: butt}</style>
 </defs>
 <g id="figure_1">
  <g id="patch_1">
   <path d="M 0 337.074375 
L 497.38125 337.074375 
L 497.38125 0 
L 0 0 
z
" style="fill: #ffffff"/>
  </g>
  <g id="axes_1">
   <g id="patch_2">
    <path d="M 43.78125 299.518125 
L 490.18125 299.518125 
L 490.18125 22.318125 
L 43.78125 22.318125 
z
" style="fill: #ffffff"/>
   </g>
   <g id="matplotlib.axis_1">
    <g id="xtick_1">
     <g id="line2d_1">
      <path d="M 64.072159 299.518125 
L 64.072159 22.318125 
" clip-path="url(#pa0172de615)" style="fill: none; stroke-dasharray: 1.85,0.8; stroke-dashoffset: 0; stroke: #b0b0b0; stroke-opacity: 0.6; stroke-width: 0.5"/>
     </g>
     <g id="line2d_2">
      <defs>
       <path id="md55807d1c8" d="M 0 0 
L 0 3.5 
" style="stroke: #000000; stroke-width: 0.8"/>
      </defs>
      <g>
       <use xlink:href="#md55807d1c8" x="64.072159" y="299.518125" style="stroke: #000000; stroke-width: 0.8"/>
      </g>
     </g>
     <g id="text_1">
      <!-- 0 -->
      <g transform="translate(60.890909 314.116563) scale(0.1 -0.1)">
       <defs>
        <path id="DejaVuSans-30" d="M 2034 4250 
Q 1547 4250 1301 3770 
Q 1056 3291 1056 2328 
Q 1056 1369 1301 889 
Q 1547 409 2034 409 
Q 2525 409 2770 889 
Q 3016 1369 3016 2328 
Q 3016 3291 2770 3770 
Q 2525 4250 2034 4250 
z
M 2034 4750 
Q 2819 4750 3233 4129 
Q 3647 3509 3647 2328 
Q 3647 1150 3233 529 
Q 2819 -91 2034 -91 
Q 1250 -91 836 529 
Q 422 1150 422 2328 
Q 422 3509 836 4129 
Q 1250 4750 2034 4750 
z
" transform="scale(0.015625)"/>
       </defs>
       <use xlink:href="#DejaVuSans-30"/>
      </g>
     </g>
    </g>
    <g id="xtick_2">
     <g id="line2d_3">
      <path d="M 118.544398 299.518125 
L 118.544398 22.318125 
" clip-path="url(#pa0172de615)" style="fill: none; stroke-dasharray: 1.85,0.8; stroke-dashoffset: 0; stroke: #b0b0b0; stroke-opacity: 0.6; stroke-width: 0.5"/>
     </g>
     <g id="line2d_4">
      <g>
       <use xlink:href="#md55807d1c8" x="118.544398" y="299.518125" style="stroke: #000000; stroke-width: 0.8"/>
      </g>
     </g>
     <g id="text_2">
      <!-- 20 -->
      <g transform="translate(112.181898 314.116563) scale(0.1 -0.1)">
       <defs>
        <path id="DejaVuSans-32" d="M 1228 531 
L 3431 531 
L 3431 0 
L 469 0 
L 469 531 
Q 828 903 1448 1529 
Q 2069 2156 2228 2338 
Q 2531 2678 2651 2914 
Q 2772 3150 2772 3378 
Q 2772 3750 2511 3984 
Q 2250 4219 1831 4219 
Q 1534 4219 1204 4116 
Q 875 4013 500 3803 
L 500 4441 
Q 881 4594 1212 4672 
Q 1544 4750 1819 4750 
Q 2544 4750 2975 4387 
Q 3406 4025 3406 3419 
Q 3406 3131 3298 2873 
Q 3191 2616 2906 2266 
Q 2828 2175 2409 1742 
Q 1991 1309 1228 531 
z
" transform="scale(0.015625)"/>
       </defs>
       <use xlink:href="#DejaVuSans-32"/>
       <use xlink:href="#DejaVuSans-30" transform="translate(63.623047 0)"/>
      </g>
     </g>
    </g>
    <g id="xtick_3">
     <g id="line2d_5">
      <path d="M 173.016637 299.518125 
L 173.016637 22.318125 
" clip-path="url(#pa0172de615)" style="fill: none; stroke-dasharray: 1.85,0.8; stroke-dashoffset: 0; stroke: #b0b0b0; stroke-opacity: 0.6; stroke-width: 0.5"/>
     </g>
     <g id="line2d_6">
      <g>
       <use xlink:href="#md55807d1c8" x="173.016637" y="299.518125" style="stroke: #000000; stroke-width: 0.8"/>
      </g>
     </g>
     <g id="text_3">
      <!-- 40 -->
      <g transform="translate(166.654137 314.116563) scale(0.1 -0.1)">
       <defs>
        <path id="DejaVuSans-34" d="M 2419 4116 
L 825 1625 
L 2419 1625 
L 2419 4116 
z
M 2253 4666 
L 3047 4666 
L 3047 1625 
L 3713 1625 
L 3713 1100 
L 3047 1100 
L 3047 0 
L 2419 0 
L 2419 1100 
L 313 1100 
L 313 1709 
L 2253 4666 
z
" transform="scale(0.015625)"/>
       </defs>
       <use xlink:href="#DejaVuSans-34"/>
       <use xlink:href="#DejaVuSans-30" transform="translate(63.623047 0)"/>
      </g>
     </g>
    </g>
    <g id="xtick_4">
     <g id="line2d_7">
      <path d="M 227.488877 299.518125 
L 227.488877 22.318125 
" clip-path="url(#pa0172de615)" style="fill: none; stroke-dasharray: 1.85,0.8; stroke-dashoffset: 0; stroke: #b0b0b0; stroke-opacity: 0.6; stroke-width: 0.5"/>
     </g>
     <g id="line2d_8">
      <g>
       <use xlink:href="#md55807d1c8" x="227.488877" y="299.518125" style="stroke: #000000; stroke-width: 0.8"/>
      </g>
     </g>
     <g id="text_4">
      <!-- 60 -->
      <g transform="translate(221.126377 314.116563) scale(0.1 -0.1)">
       <defs>
        <path id="DejaVuSans-36" d="M 2113 2584 
Q 1688 2584 1439 2293 
Q 1191 2003 1191 1497 
Q 1191 994 1439 701 
Q 1688 409 2113 409 
Q 2538 409 2786 701 
Q 3034 994 3034 1497 
Q 3034 2003 2786 2293 
Q 2538 2584 2113 2584 
z
M 3366 4563 
L 3366 3988 
Q 3128 4100 2886 4159 
Q 2644 4219 2406 4219 
Q 1781 4219 1451 3797 
Q 1122 3375 1075 2522 
Q 1259 2794 1537 2939 
Q 1816 3084 2150 3084 
Q 2853 3084 3261 2657 
Q 3669 2231 3669 1497 
Q 3669 778 3244 343 
Q 2819 -91 2113 -91 
Q 1303 -91 875 529 
Q 447 1150 447 2328 
Q 447 3434 972 4092 
Q 1497 4750 2381 4750 
Q 2619 4750 2861 4703 
Q 3103 4656 3366 4563 
z
" transform="scale(0.015625)"/>
       </defs>
       <use xlink:href="#DejaVuSans-36"/>
       <use xlink:href="#DejaVuSans-30" transform="translate(63.623047 0)"/>
      </g>
     </g>
    </g>
    <g id="xtick_5">
     <g id="line2d_9">
      <path d="M 281.961116 299.518125 
L 281.961116 22.318125 
" clip-path="url(#pa0172de615)" style="fill: none; stroke-dasharray: 1.85,0.8; stroke-dashoffset: 0; stroke: #b0b0b0; stroke-opacity: 0.6; stroke-width: 0.5"/>
     </g>
     <g id="line2d_10">
      <g>
       <use xlink:href="#md55807d1c8" x="281.961116" y="299.518125" style="stroke: #000000; stroke-width: 0.8"/>
      </g>
     </g>
     <g id="text_5">
      <!-- 80 -->
      <g transform="translate(275.598616 314.116563) scale(0.1 -0.1)">
       <defs>
        <path id="DejaVuSans-38" d="M 2034 2216 
Q 1584 2216 1326 1975 
Q 1069 1734 1069 1313 
Q 1069 891 1326 650 
Q 1584 409 2034 409 
Q 2484 409 2743 651 
Q 3003 894 3003 1313 
Q 3003 1734 2745 1975 
Q 2488 2216 2034 2216 
z
M 1403 2484 
Q 997 2584 770 2862 
Q 544 3141 544 3541 
Q 544 4100 942 4425 
Q 1341 4750 2034 4750 
Q 2731 4750 3128 4425 
Q 3525 4100 3525 3541 
Q 3525 3141 3298 2862 
Q 3072 2584 2669 2484 
Q 3125 2378 3379 2068 
Q 3634 1759 3634 1313 
Q 3634 634 3220 271 
Q 2806 -91 2034 -91 
Q 1263 -91 848 271 
Q 434 634 434 1313 
Q 434 1759 690 2068 
Q 947 2378 1403 2484 
z
M 1172 3481 
Q 1172 3119 1398 2916 
Q 1625 2713 2034 2713 
Q 2441 2713 2670 2916 
Q 2900 3119 2900 3481 
Q 2900 3844 2670 4047 
Q 2441 4250 2034 4250 
Q 1625 4250 1398 4047 
Q 1172 3844 1172 3481 
z
" transform="scale(0.015625)"/>
       </defs>
       <use xlink:href="#DejaVuSans-38"/>
       <use xlink:href="#DejaVuSans-30" transform="translate(63.623047 0)"/>
      </g>
     </g>
    </g>
    <g id="xtick_6">
     <g id="line2d_11">
      <path d="M 336.433355 299.518125 
L 336.433355 22.318125 
" clip-path="url(#pa0172de615)" style="fill: none; stroke-dasharray: 1.85,0.8; stroke-dashoffset: 0; stroke: #b0b0b0; stroke-opacity: 0.6; stroke-width: 0.5"/>
     </g>
     <g id="line2d_12">
      <g>
       <use xlink:href="#md55807d1c8" x="336.433355" y="299.518125" style="stroke: #000000; stroke-width: 0.8"/>
      </g>
     </g>
     <g id="text_6">
      <!-- 100 -->
      <g transform="translate(326.889605 314.116563) scale(0.1 -0.1)">
       <defs>
        <path id="DejaVuSans-31" d="M 794 531 
L 1825 531 
L 1825 4091 
L 703 3866 
L 703 4441 
L 1819 4666 
L 2450 4666 
L 2450 531 
L 3481 531 
L 3481 0 
L 794 0 
L 794 531 
z
" transform="scale(0.015625)"/>
       </defs>
       <use xlink:href="#DejaVuSans-31"/>
       <use xlink:href="#DejaVuSans-30" transform="translate(63.623047 0)"/>
       <use xlink:href="#DejaVuSans-30" transform="translate(127.246094 0)"/>
      </g>
     </g>
    </g>
    <g id="xtick_7">
     <g id="line2d_13">
      <path d="M 390.905594 299.518125 
L 390.905594 22.318125 
" clip-path="url(#pa0172de615)" style="fill: none; stroke-dasharray: 1.85,0.8; stroke-dashoffset: 0; stroke: #b0b0b0; stroke-opacity: 0.6; stroke-width: 0.5"/>
     </g>
     <g id="line2d_14">
      <g>
       <use xlink:href="#md55807d1c8" x="390.905594" y="299.518125" style="stroke: #000000; stroke-width: 0.8"/>
      </g>
     </g>
     <g id="text_7">
      <!-- 120 -->
      <g transform="translate(381.361844 314.116563) scale(0.1 -0.1)">
       <use xlink:href="#DejaVuSans-31"/>
       <use xlink:href="#DejaVuSans-32" transform="translate(63.623047 0)"/>
       <use xlink:href="#DejaVuSans-30" transform="translate(127.246094 0)"/>
      </g>
     </g>
    </g>
    <g id="xtick_8">
     <g id="line2d_15">
      <path d="M 445.377833 299.518125 
L 445.377833 22.318125 
" clip-path="url(#pa0172de615)" style="fill: none; stroke-dasharray: 1.85,0.8; stroke-dashoffset: 0; stroke: #b0b0b0; stroke-opacity: 0.6; stroke-width: 0.5"/>
     </g>
     <g id="line2d_16">
      <g>
       <use xlink:href="#md55807d1c8" x="445.377833" y="299.518125" style="stroke: #000000; stroke-width: 0.8"/>
      </g>
     </g>
     <g id="text_8">
      <!-- 140 -->
      <g transform="translate(435.834083 314.116563) scale(0.1 -0.1)">
       <use xlink:href="#DejaVuSans-31"/>
       <use xlink:href="#DejaVuSans-34" transform="translate(63.623047 0)"/>
       <use xlink:href="#DejaVuSans-30" transform="translate(127.246094 0)"/>
      </g>
     </g>
    </g>
    <g id="text_9">
     <!-- Simulation Day -->
     <g transform="translate(228.885937 327.794688) scale(0.1 -0.1)">
      <defs>
       <path id="DejaVuSans-53" d="M 3425 4513 
L 3425 3897 
Q 3066 4069 2747 4153 
Q 2428 4238 2131 4238 
Q 1616 4238 1336 4038 
Q 1056 3838 1056 3469 
Q 1056 3159 1242 3001 
Q 1428 2844 1947 2747 
L 2328 2669 
Q 3034 2534 3370 2195 
Q 3706 1856 3706 1288 
Q 3706 609 3251 259 
Q 2797 -91 1919 -91 
Q 1588 -91 1214 -16 
Q 841 59 441 206 
L 441 856 
Q 825 641 1194 531 
Q 1563 422 1919 422 
Q 2459 422 2753 634 
Q 3047 847 3047 1241 
Q 3047 1584 2836 1778 
Q 2625 1972 2144 2069 
L 1759 2144 
Q 1053 2284 737 2584 
Q 422 2884 422 3419 
Q 422 4038 858 4394 
Q 1294 4750 2059 4750 
Q 2388 4750 2728 4690 
Q 3069 4631 3425 4513 
z
" transform="scale(0.015625)"/>
       <path id="DejaVuSans-69" d="M 603 3500 
L 1178 3500 
L 1178 0 
L 603 0 
L 603 3500 
z
M 603 4863 
L 1178 4863 
L 1178 4134 
L 603 4134 
L 603 4863 
z
" transform="scale(0.015625)"/>
       <path id="DejaVuSans-6d" d="M 3328 2828 
Q 3544 3216 3844 3400 
Q 4144 3584 4550 3584 
Q 5097 3584 5394 3201 
Q 5691 2819 5691 2113 
L 5691 0 
L 5113 0 
L 5113 2094 
Q 5113 2597 4934 2840 
Q 4756 3084 4391 3084 
Q 3944 3084 3684 2787 
Q 3425 2491 3425 1978 
L 3425 0 
L 2847 0 
L 2847 2094 
Q 2847 2600 2669 2842 
Q 2491 3084 2119 3084 
Q 1678 3084 1418 2786 
Q 1159 2488 1159 1978 
L 1159 0 
L 581 0 
L 581 3500 
L 1159 3500 
L 1159 2956 
Q 1356 3278 1631 3431 
Q 1906 3584 2284 3584 
Q 2666 3584 2933 3390 
Q 3200 3197 3328 2828 
z
" transform="scale(0.015625)"/>
       <path id="DejaVuSans-75" d="M 544 1381 
L 544 3500 
L 1119 3500 
L 1119 1403 
Q 1119 906 1312 657 
Q 1506 409 1894 409 
Q 2359 409 2629 706 
Q 2900 1003 2900 1516 
L 2900 3500 
L 3475 3500 
L 3475 0 
L 2900 0 
L 2900 538 
Q 2691 219 2414 64 
Q 2138 -91 1772 -91 
Q 1169 -91 856 284 
Q 544 659 544 1381 
z
M 1991 3584 
L 1991 3584 
z
" transform="scale(0.015625)"/>
       <path id="DejaVuSans-6c" d="M 603 4863 
L 1178 4863 
L 1178 0 
L 603 0 
L 603 4863 
z
" transform="scale(0.015625)"/>
       <path id="DejaVuSans-61" d="M 2194 1759 
Q 1497 1759 1228 1600 
Q 959 1441 959 1056 
Q 959 750 1161 570 
Q 1363 391 1709 391 
Q 2188 391 2477 730 
Q 2766 1069 2766 1631 
L 2766 1759 
L 2194 1759 
z
M 3341 1997 
L 3341 0 
L 2766 0 
L 2766 531 
Q 2569 213 2275 61 
Q 1981 -91 1556 -91 
Q 1019 -91 701 211 
Q 384 513 384 1019 
Q 384 1609 779 1909 
Q 1175 2209 1959 2209 
L 2766 2209 
L 2766 2266 
Q 2766 2663 2505 2880 
Q 2244 3097 1772 3097 
Q 1472 3097 1187 3025 
Q 903 2953 641 2809 
L 641 3341 
Q 956 3463 1253 3523 
Q 1550 3584 1831 3584 
Q 2591 3584 2966 3190 
Q 3341 2797 3341 1997 
z
" transform="scale(0.015625)"/>
       <path id="DejaVuSans-74" d="M 1172 4494 
L 1172 3500 
L 2356 3500 
L 2356 3053 
L 1172 3053 
L 1172 1153 
Q 1172 725 1289 603 
Q 1406 481 1766 481 
L 2356 481 
L 2356 0 
L 1766 0 
Q 1100 0 847 248 
Q 594 497 594 1153 
L 594 3053 
L 172 3053 
L 172 3500 
L 594 3500 
L 594 4494 
L 1172 4494 
z
" transform="scale(0.015625)"/>
       <path id="DejaVuSans-6f" d="M 1959 3097 
Q 1497 3097 1228 2736 
Q 959 2375 959 1747 
Q 959 1119 1226 758 
Q 1494 397 1959 397 
Q 2419 397 2687 759 
Q 2956 1122 2956 1747 
Q 2956 2369 2687 2733 
Q 2419 3097 1959 3097 
z
M 1959 3584 
Q 2709 3584 3137 3096 
Q 3566 2609 3566 1747 
Q 3566 888 3137 398 
Q 2709 -91 1959 -91 
Q 1206 -91 779 398 
Q 353 888 353 1747 
Q 353 2609 779 3096 
Q 1206 3584 1959 3584 
z
" transform="scale(0.015625)"/>
       <path id="DejaVuSans-6e" d="M 3513 2113 
L 3513 0 
L 2938 0 
L 2938 2094 
Q 2938 2591 2744 2837 
Q 2550 3084 2163 3084 
Q 1697 3084 1428 2787 
Q 1159 2491 1159 1978 
L 1159 0 
L 581 0 
L 581 3500 
L 1159 3500 
L 1159 2956 
Q 1366 3272 1645 3428 
Q 1925 3584 2291 3584 
Q 2894 3584 3203 3211 
Q 3513 2838 3513 2113 
z
" transform="scale(0.015625)"/>
       <path id="DejaVuSans-20" transform="scale(0.015625)"/>
       <path id="DejaVuSans-44" d="M 1259 4147 
L 1259 519 
L 2022 519 
Q 2988 519 3436 956 
Q 3884 1394 3884 2338 
Q 3884 3275 3436 3711 
Q 2988 4147 2022 4147 
L 1259 4147 
z
M 628 4666 
L 1925 4666 
Q 3281 4666 3915 4102 
Q 4550 3538 4550 2338 
Q 4550 1131 3912 565 
Q 3275 0 1925 0 
L 628 0 
L 628 4666 
z
" transform="scale(0.015625)"/>
       <path id="DejaVuSans-79" d="M 2059 -325 
Q 1816 -950 1584 -1140 
Q 1353 -1331 966 -1331 
L 506 -1331 
L 506 -850 
L 844 -850 
Q 1081 -850 1212 -737 
Q 1344 -625 1503 -206 
L 1606 56 
L 191 3500 
L 800 3500 
L 1894 763 
L 2988 3500 
L 3597 3500 
L 2059 -325 
z
" transform="scale(0.015625)"/>
      </defs>
      <use xlink:href="#DejaVuSans-53"/>
      <use xlink:href="#DejaVuSans-69" transform="translate(63.476562 0)"/>
      <use xlink:href="#DejaVuSans-6d" transform="translate(91.259766 0)"/>
      <use xlink:href="#DejaVuSans-75" transform="translate(188.671875 0)"/>
      <use xlink:href="#DejaVuSans-6c" transform="translate(252.050781 0)"/>
      <use xlink:href="#DejaVuSans-61" transform="translate(279.833984 0)"/>
      <use xlink:href="#DejaVuSans-74" transform="translate(341.113281 0)"/>
      <use xlink:href="#DejaVuSans-69" transform="translate(380.322266 0)"/>
      <use xlink:href="#DejaVuSans-6f" transform="translate(408.105469 0)"/>
      <use xlink:href="#DejaVuSans-6e" transform="translate(469.287109 0)"/>
      <use xlink:href="#DejaVuSans-20" transform="translate(532.666016 0)"/>
      <use xlink:href="#DejaVuSans-44" transform="translate(564.453125 0)"/>
      <use xlink:href="#DejaVuSans-61" transform="translate(641.455078 0)"/>
      <use xlink:href="#DejaVuSans-79" transform="translate(702.734375 0)"/>
     </g>
    </g>
   </g>
   <g id="matplotlib.axis_2">
    <g id="ytick_1">
     <g id="line2d_17">
      <path d="M 43.78125 286.918125 
L 490.18125 286.918125 
" clip-path="url(#pa0172de615)" style="fill: none; stroke-dasharray: 1.85,0.8; stroke-dashoffset: 0; stroke: #b0b0b0; stroke-opacity: 0.6; stroke-width: 0.5"/>
     </g>
     <g id="line2d_18">
      <defs>
       <path id="m868fb66b86" d="M 0 0 
L -3.5 0 
" style="stroke: #000000; stroke-width: 0.8"/>
      </defs>
      <g>
       <use xlink:href="#m868fb66b86" x="43.78125" y="286.918125" style="stroke: #000000; stroke-width: 0.8"/>
      </g>
     </g>
     <g id="text_10">
      <!-- 0.0 -->
      <g transform="translate(20.878125 290.717344) scale(0.1 -0.1)">
       <defs>
        <path id="DejaVuSans-2e" d="M 684 794 
L 1344 794 
L 1344 0 
L 684 0 
L 684 794 
z
" transform="scale(0.015625)"/>
       </defs>
       <use xlink:href="#DejaVuSans-30"/>
       <use xlink:href="#DejaVuSans-2e" transform="translate(63.623047 0)"/>
       <use xlink:href="#DejaVuSans-30" transform="translate(95.410156 0)"/>
      </g>
     </g>
    </g>
    <g id="ytick_2">
     <g id="line2d_19">
      <path d="M 43.78125 254.105429 
L 490.18125 254.105429 
" clip-path="url(#pa0172de615)" style="fill: none; stroke-dasharray: 1.85,0.8; stroke-dashoffset: 0; stroke: #b0b0b0; stroke-opacity: 0.6; stroke-width: 0.5"/>
     </g>
     <g id="line2d_20">
      <g>
       <use xlink:href="#m868fb66b86" x="43.78125" y="254.105429" style="stroke: #000000; stroke-width: 0.8"/>
      </g>
     </g>
     <g id="text_11">
      <!-- 0.1 -->
      <g transform="translate(20.878125 257.904648) scale(0.1 -0.1)">
       <use xlink:href="#DejaVuSans-30"/>
       <use xlink:href="#DejaVuSans-2e" transform="translate(63.623047 0)"/>
       <use xlink:href="#DejaVuSans-31" transform="translate(95.410156 0)"/>
      </g>
     </g>
    </g>
    <g id="ytick_3">
     <g id="line2d_21">
      <path d="M 43.78125 221.292734 
L 490.18125 221.292734 
" clip-path="url(#pa0172de615)" style="fill: none; stroke-dasharray: 1.85,0.8; stroke-dashoffset: 0; stroke: #b0b0b0; stroke-opacity: 0.6; stroke-width: 0.5"/>
     </g>
     <g id="line2d_22">
      <g>
       <use xlink:href="#m868fb66b86" x="43.78125" y="221.292734" style="stroke: #000000; stroke-width: 0.8"/>
      </g>
     </g>
     <g id="text_12">
      <!-- 0.2 -->
      <g transform="translate(20.878125 225.091953) scale(0.1 -0.1)">
       <use xlink:href="#DejaVuSans-30"/>
       <use xlink:href="#DejaVuSans-2e" transform="translate(63.623047 0)"/>
       <use xlink:href="#DejaVuSans-32" transform="translate(95.410156 0)"/>
      </g>
     </g>
    </g>
    <g id="ytick_4">
     <g id="line2d_23">
      <path d="M 43.78125 188.480038 
L 490.18125 188.480038 
" clip-path="url(#pa0172de615)" style="fill: none; stroke-dasharray: 1.85,0.8; stroke-dashoffset: 0; stroke: #b0b0b0; stroke-opacity: 0.6; stroke-width: 0.5"/>
     </g>
     <g id="line2d_24">
      <g>
       <use xlink:href="#m868fb66b86" x="43.78125" y="188.480038" style="stroke: #000000; stroke-width: 0.8"/>
      </g>
     </g>
     <g id="text_13">
      <!-- 0.3 -->
      <g transform="translate(20.878125 192.279257) scale(0.1 -0.1)">
       <defs>
        <path id="DejaVuSans-33" d="M 2597 2516 
Q 3050 2419 3304 2112 
Q 3559 1806 3559 1356 
Q 3559 666 3084 287 
Q 2609 -91 1734 -91 
Q 1441 -91 1130 -33 
Q 819 25 488 141 
L 488 750 
Q 750 597 1062 519 
Q 1375 441 1716 441 
Q 2309 441 2620 675 
Q 2931 909 2931 1356 
Q 2931 1769 2642 2001 
Q 2353 2234 1838 2234 
L 1294 2234 
L 1294 2753 
L 1863 2753 
Q 2328 2753 2575 2939 
Q 2822 3125 2822 3475 
Q 2822 3834 2567 4026 
Q 2313 4219 1838 4219 
Q 1578 4219 1281 4162 
Q 984 4106 628 3988 
L 628 4550 
Q 988 4650 1302 4700 
Q 1616 4750 1894 4750 
Q 2613 4750 3031 4423 
Q 3450 4097 3450 3541 
Q 3450 3153 3228 2886 
Q 3006 2619 2597 2516 
z
" transform="scale(0.015625)"/>
       </defs>
       <use xlink:href="#DejaVuSans-30"/>
       <use xlink:href="#DejaVuSans-2e" transform="translate(63.623047 0)"/>
       <use xlink:href="#DejaVuSans-33" transform="translate(95.410156 0)"/>
      </g>
     </g>
    </g>
    <g id="ytick_5">
     <g id="line2d_25">
      <path d="M 43.78125 155.667343 
L 490.18125 155.667343 
" clip-path="url(#pa0172de615)" style="fill: none; stroke-dasharray: 1.85,0.8; stroke-dashoffset: 0; stroke: #b0b0b0; stroke-opacity: 0.6; stroke-width: 0.5"/>
     </g>
     <g id="line2d_26">
      <g>
       <use xlink:href="#m868fb66b86" x="43.78125" y="155.667343" style="stroke: #000000; stroke-width: 0.8"/>
      </g>
     </g>
     <g id="text_14">
      <!-- 0.4 -->
      <g transform="translate(20.878125 159.466562) scale(0.1 -0.1)">
       <use xlink:href="#DejaVuSans-30"/>
       <use xlink:href="#DejaVuSans-2e" transform="translate(63.623047 0)"/>
       <use xlink:href="#DejaVuSans-34" transform="translate(95.410156 0)"/>
      </g>
     </g>
    </g>
    <g id="ytick_6">
     <g id="line2d_27">
      <path d="M 43.78125 122.854647 
L 490.18125 122.854647 
" clip-path="url(#pa0172de615)" style="fill: none; stroke-dasharray: 1.85,0.8; stroke-dashoffset: 0; stroke: #b0b0b0; stroke-opacity: 0.6; stroke-width: 0.5"/>
     </g>
     <g id="line2d_28">
      <g>
       <use xlink:href="#m868fb66b86" x="43.78125" y="122.854647" style="stroke: #000000; stroke-width: 0.8"/>
      </g>
     </g>
     <g id="text_15">
      <!-- 0.5 -->
      <g transform="translate(20.878125 126.653866) scale(0.1 -0.1)">
       <defs>
        <path id="DejaVuSans-35" d="M 691 4666 
L 3169 4666 
L 3169 4134 
L 1269 4134 
L 1269 2991 
Q 1406 3038 1543 3061 
Q 1681 3084 1819 3084 
Q 2600 3084 3056 2656 
Q 3513 2228 3513 1497 
Q 3513 744 3044 326 
Q 2575 -91 1722 -91 
Q 1428 -91 1123 -41 
Q 819 9 494 109 
L 494 744 
Q 775 591 1075 516 
Q 1375 441 1709 441 
Q 2250 441 2565 725 
Q 2881 1009 2881 1497 
Q 2881 1984 2565 2268 
Q 2250 2553 1709 2553 
Q 1456 2553 1204 2497 
Q 953 2441 691 2322 
L 691 4666 
z
" transform="scale(0.015625)"/>
       </defs>
       <use xlink:href="#DejaVuSans-30"/>
       <use xlink:href="#DejaVuSans-2e" transform="translate(63.623047 0)"/>
       <use xlink:href="#DejaVuSans-35" transform="translate(95.410156 0)"/>
      </g>
     </g>
    </g>
    <g id="ytick_7">
     <g id="line2d_29">
      <path d="M 43.78125 90.041952 
L 490.18125 90.041952 
" clip-path="url(#pa0172de615)" style="fill: none; stroke-dasharray: 1.85,0.8; stroke-dashoffset: 0; stroke: #b0b0b0; stroke-opacity: 0.6; stroke-width: 0.5"/>
     </g>
     <g id="line2d_30">
      <g>
       <use xlink:href="#m868fb66b86" x="43.78125" y="90.041952" style="stroke: #000000; stroke-width: 0.8"/>
      </g>
     </g>
     <g id="text_16">
      <!-- 0.6 -->
      <g transform="translate(20.878125 93.84117) scale(0.1 -0.1)">
       <use xlink:href="#DejaVuSans-30"/>
       <use xlink:href="#DejaVuSans-2e" transform="translate(63.623047 0)"/>
       <use xlink:href="#DejaVuSans-36" transform="translate(95.410156 0)"/>
      </g>
     </g>
    </g>
    <g id="ytick_8">
     <g id="line2d_31">
      <path d="M 43.78125 57.229256 
L 490.18125 57.229256 
" clip-path="url(#pa0172de615)" style="fill: none; stroke-dasharray: 1.85,0.8; stroke-dashoffset: 0; stroke: #b0b0b0; stroke-opacity: 0.6; stroke-width: 0.5"/>
     </g>
     <g id="line2d_32">
      <g>
       <use xlink:href="#m868fb66b86" x="43.78125" y="57.229256" style="stroke: #000000; stroke-width: 0.8"/>
      </g>
     </g>
     <g id="text_17">
      <!-- 0.7 -->
      <g transform="translate(20.878125 61.028475) scale(0.1 -0.1)">
       <defs>
        <path id="DejaVuSans-37" d="M 525 4666 
L 3525 4666 
L 3525 4397 
L 1831 0 
L 1172 0 
L 2766 4134 
L 525 4134 
L 525 4666 
z
" transform="scale(0.015625)"/>
       </defs>
       <use xlink:href="#DejaVuSans-30"/>
       <use xlink:href="#DejaVuSans-2e" transform="translate(63.623047 0)"/>
       <use xlink:href="#DejaVuSans-37" transform="translate(95.410156 0)"/>
      </g>
     </g>
    </g>
    <g id="ytick_9">
     <g id="line2d_33">
      <path d="M 43.78125 24.416561 
L 490.18125 24.416561 
" clip-path="url(#pa0172de615)" style="fill: none; stroke-dasharray: 1.85,0.8; stroke-dashoffset: 0; stroke: #b0b0b0; stroke-opacity: 0.6; stroke-width: 0.5"/>
     </g>
     <g id="line2d_34">
      <g>
       <use xlink:href="#m868fb66b86" x="43.78125" y="24.416561" style="stroke: #000000; stroke-width: 0.8"/>
      </g>
     </g>
     <g id="text_18">
      <!-- 0.8 -->
      <g transform="translate(20.878125 28.215779) scale(0.1 -0.1)">
       <use xlink:href="#DejaVuSans-30"/>
       <use xlink:href="#DejaVuSans-2e" transform="translate(63.623047 0)"/>
       <use xlink:href="#DejaVuSans-38" transform="translate(95.410156 0)"/>
      </g>
     </g>
    </g>
    <g id="text_19">
     <!-- Detection Ratio (Efficiency) -->
     <g transform="translate(14.798438 229.282969) rotate(-90) scale(0.1 -0.1)">
      <defs>
       <path id="DejaVuSans-65" d="M 3597 1894 
L 3597 1613 
L 953 1613 
Q 991 1019 1311 708 
Q 1631 397 2203 397 
Q 2534 397 2845 478 
Q 3156 559 3463 722 
L 3463 178 
Q 3153 47 2828 -22 
Q 2503 -91 2169 -91 
Q 1331 -91 842 396 
Q 353 884 353 1716 
Q 353 2575 817 3079 
Q 1281 3584 2069 3584 
Q 2775 3584 3186 3129 
Q 3597 2675 3597 1894 
z
M 3022 2063 
Q 3016 2534 2758 2815 
Q 2500 3097 2075 3097 
Q 1594 3097 1305 2825 
Q 1016 2553 972 2059 
L 3022 2063 
z
" transform="scale(0.015625)"/>
       <path id="DejaVuSans-63" d="M 3122 3366 
L 3122 2828 
Q 2878 2963 2633 3030 
Q 2388 3097 2138 3097 
Q 1578 3097 1268 2742 
Q 959 2388 959 1747 
Q 959 1106 1268 751 
Q 1578 397 2138 397 
Q 2388 397 2633 464 
Q 2878 531 3122 666 
L 3122 134 
Q 2881 22 2623 -34 
Q 2366 -91 2075 -91 
Q 1284 -91 818 406 
Q 353 903 353 1747 
Q 353 2603 823 3093 
Q 1294 3584 2113 3584 
Q 2378 3584 2631 3529 
Q 2884 3475 3122 3366 
z
" transform="scale(0.015625)"/>
       <path id="DejaVuSans-52" d="M 2841 2188 
Q 3044 2119 3236 1894 
Q 3428 1669 3622 1275 
L 4263 0 
L 3584 0 
L 2988 1197 
Q 2756 1666 2539 1819 
Q 2322 1972 1947 1972 
L 1259 1972 
L 1259 0 
L 628 0 
L 628 4666 
L 2053 4666 
Q 2853 4666 3247 4331 
Q 3641 3997 3641 3322 
Q 3641 2881 3436 2590 
Q 3231 2300 2841 2188 
z
M 1259 4147 
L 1259 2491 
L 2053 2491 
Q 2509 2491 2742 2702 
Q 2975 2913 2975 3322 
Q 2975 3731 2742 3939 
Q 2509 4147 2053 4147 
L 1259 4147 
z
" transform="scale(0.015625)"/>
       <path id="DejaVuSans-28" d="M 1984 4856 
Q 1566 4138 1362 3434 
Q 1159 2731 1159 2009 
Q 1159 1288 1364 580 
Q 1569 -128 1984 -844 
L 1484 -844 
Q 1016 -109 783 600 
Q 550 1309 550 2009 
Q 550 2706 781 3412 
Q 1013 4119 1484 4856 
L 1984 4856 
z
" transform="scale(0.015625)"/>
       <path id="DejaVuSans-45" d="M 628 4666 
L 3578 4666 
L 3578 4134 
L 1259 4134 
L 1259 2753 
L 3481 2753 
L 3481 2222 
L 1259 2222 
L 1259 531 
L 3634 531 
L 3634 0 
L 628 0 
L 628 4666 
z
" transform="scale(0.015625)"/>
       <path id="DejaVuSans-66" d="M 2375 4863 
L 2375 4384 
L 1825 4384 
Q 1516 4384 1395 4259 
Q 1275 4134 1275 3809 
L 1275 3500 
L 2222 3500 
L 2222 3053 
L 1275 3053 
L 1275 0 
L 697 0 
L 697 3053 
L 147 3053 
L 147 3500 
L 697 3500 
L 697 3744 
Q 697 4328 969 4595 
Q 1241 4863 1831 4863 
L 2375 4863 
z
" transform="scale(0.015625)"/>
       <path id="DejaVuSans-29" d="M 513 4856 
L 1013 4856 
Q 1481 4119 1714 3412 
Q 1947 2706 1947 2009 
Q 1947 1309 1714 600 
Q 1481 -109 1013 -844 
L 513 -844 
Q 928 -128 1133 580 
Q 1338 1288 1338 2009 
Q 1338 2731 1133 3434 
Q 928 4138 513 4856 
z
" transform="scale(0.015625)"/>
      </defs>
      <use xlink:href="#DejaVuSans-44"/>
      <use xlink:href="#DejaVuSans-65" transform="translate(77.001953 0)"/>
      <use xlink:href="#DejaVuSans-74" transform="translate(138.525391 0)"/>
      <use xlink:href="#DejaVuSans-65" transform="translate(177.734375 0)"/>
      <use xlink:href="#DejaVuSans-63" transform="translate(239.257812 0)"/>
      <use xlink:href="#DejaVuSans-74" transform="translate(294.238281 0)"/>
      <use xlink:href="#DejaVuSans-69" transform="translate(333.447266 0)"/>
      <use xlink:href="#DejaVuSans-6f" transform="translate(361.230469 0)"/>
      <use xlink:href="#DejaVuSans-6e" transform="translate(422.412109 0)"/>
      <use xlink:href="#DejaVuSans-20" transform="translate(485.791016 0)"/>
      <use xlink:href="#DejaVuSans-52" transform="translate(517.578125 0)"/>
      <use xlink:href="#DejaVuSans-61" transform="translate(584.810547 0)"/>
      <use xlink:href="#DejaVuSans-74" transform="translate(646.089844 0)"/>
      <use xlink:href="#DejaVuSans-69" transform="translate(685.298828 0)"/>
      <use xlink:href="#DejaVuSans-6f" transform="translate(713.082031 0)"/>
      <use xlink:href="#DejaVuSans-20" transform="translate(774.263672 0)"/>
      <use xlink:href="#DejaVuSans-28" transform="translate(806.050781 0)"/>
      <use xlink:href="#DejaVuSans-45" transform="translate(845.064453 0)"/>
      <use xlink:href="#DejaVuSans-66" transform="translate(908.248047 0)"/>
      <use xlink:href="#DejaVuSans-66" transform="translate(943.453125 0)"/>
      <use xlink:href="#DejaVuSans-69" transform="translate(978.658203 0)"/>
      <use xlink:href="#DejaVuSans-63" transform="translate(1006.441406 0)"/>
      <use xlink:href="#DejaVuSans-69" transform="translate(1061.421875 0)"/>
      <use xlink:href="#DejaVuSans-65" transform="translate(1089.205078 0)"/>
      <use xlink:href="#DejaVuSans-6e" transform="translate(1150.728516 0)"/>
      <use xlink:href="#DejaVuSans-63" transform="translate(1214.107422 0)"/>
      <use xlink:href="#DejaVuSans-79" transform="translate(1269.087891 0)"/>
      <use xlink:href="#DejaVuSans-29" transform="translate(1328.267578 0)"/>
     </g>
    </g>
   </g>
   <g id="line2d_35">
    <path d="M 64.072159 286.918125 
L 115.820786 286.918125 
L 118.544398 265.303008 
L 121.26801 251.203747 
L 123.991622 244.644144 
L 126.715234 240.353796 
L 129.438846 237.89682 
L 132.162458 234.671643 
L 134.88607 231.140052 
L 140.333294 222.230121 
L 143.056906 216.974488 
L 145.780518 213.636784 
L 148.50413 209.477482 
L 153.951354 198.550707 
L 156.674966 193.818954 
L 164.845802 178.207529 
L 167.569414 172.729372 
L 170.293025 168.022723 
L 178.463861 118.009932 
L 181.187473 102.054005 
L 183.911085 87.557164 
L 186.634697 75.725705 
L 189.358309 64.819277 
L 192.081921 56.662362 
L 194.805533 49.910663 
L 197.529145 45.656525 
L 200.252757 43.987668 
L 202.976369 42.038227 
L 205.699981 41.574241 
L 208.423593 42.285965 
L 211.147205 40.853898 
L 213.870817 41.145078 
L 216.594429 41.060308 
L 219.318041 40.494617 
L 222.041653 41.673021 
L 224.765265 44.495876 
L 232.936101 45.744497 
L 235.659712 47.860463 
L 238.383324 48.972177 
L 241.106936 48.865747 
L 243.830548 48.527145 
L 246.55416 49.528928 
L 249.277772 50.00527 
L 252.001384 51.225965 
L 254.724996 53.188655 
L 257.448608 53.80502 
L 260.17222 52.458427 
L 262.895832 52.565308 
L 268.343056 54.33837 
L 271.066668 55.541682 
L 273.79028 54.669515 
L 276.513892 55.327821 
L 279.237504 57.360672 
L 281.961116 56.340401 
L 284.684728 56.791595 
L 287.40834 60.773198 
L 290.131952 61.947685 
L 292.855564 65.267714 
L 295.579176 66.61376 
L 298.302788 67.331721 
L 301.026399 66.264781 
L 303.750011 68.300828 
L 306.473623 71.113624 
L 309.197235 72.998743 
L 311.920847 76.34842 
L 314.644459 78.341348 
L 317.368071 76.298845 
L 320.091683 78.120859 
L 322.815295 81.65308 
L 325.538907 82.682432 
L 328.262519 82.17781 
L 330.986131 82.045249 
L 333.709743 84.219871 
L 336.433355 86.854816 
L 339.156967 84.136526 
L 341.880579 85.344448 
L 344.604191 86.297909 
L 347.327803 84.549647 
L 350.051415 89.653177 
L 352.775027 90.22987 
L 355.498639 92.92755 
L 358.222251 93.071902 
L 360.945863 89.869304 
L 363.669475 96.770809 
L 366.393086 96.840887 
L 369.116698 99.216035 
L 371.84031 101.269662 
L 374.563922 101.418576 
L 377.287534 97.146768 
L 380.011146 96.823168 
L 382.734758 93.362743 
L 385.45837 94.55962 
L 388.181982 94.725045 
L 390.905594 99.43465 
L 393.629206 101.348266 
L 396.352818 105.854806 
L 399.07643 106.827731 
L 401.800042 109.282886 
L 404.523654 105.79222 
L 407.247266 104.691371 
L 409.970878 102.685602 
L 412.69449 105.914355 
L 415.418102 109.964468 
L 420.865326 115.344052 
L 423.588938 108.993569 
L 426.31255 105.226664 
L 429.036162 106.807252 
L 431.759773 104.853087 
L 434.483385 110.525347 
L 437.206997 109.706849 
L 439.930609 116.0127 
L 442.654221 121.498546 
L 445.377833 117.042782 
L 448.101445 119.637535 
L 450.825057 123.054574 
L 453.548669 121.865553 
L 456.272281 117.747363 
L 458.995893 116.324007 
L 461.719505 118.291768 
L 464.443117 120.636774 
L 467.166729 120.781827 
L 469.890341 127.808498 
L 469.890341 127.808498 
" clip-path="url(#pa0172de615)" style="fill: none; stroke: #1f77b4; stroke-width: 2; stroke-linecap: square"/>
   </g>
   <g id="line2d_36">
    <path d="M 64.072159 286.918125 
L 115.820786 286.918125 
L 118.544398 265.132283 
L 121.26801 252.663126 
L 123.991622 246.359075 
L 126.715234 241.855882 
L 129.438846 237.776194 
L 134.88607 231.711913 
L 137.609682 226.979726 
L 140.333294 221.940471 
L 145.780518 213.804502 
L 148.50413 207.644505 
L 151.227742 204.068251 
L 153.951354 198.705704 
L 156.674966 192.157166 
L 159.398578 186.178274 
L 162.12219 180.904304 
L 164.845802 176.771391 
L 167.569414 170.359556 
L 170.293025 164.822189 
L 173.016637 144.101876 
L 175.740249 127.028461 
L 181.187473 96.381535 
L 183.911085 82.823868 
L 186.634697 68.464664 
L 189.358309 58.811406 
L 194.805533 45.17729 
L 197.529145 41.093975 
L 200.252757 38.113156 
L 202.976369 35.94052 
L 205.699981 34.918125 
L 208.423593 36.337368 
L 211.147205 34.986057 
L 213.870817 36.200423 
L 216.594429 35.759657 
L 219.318041 35.856004 
L 222.041653 36.308934 
L 227.488877 35.001336 
L 230.212489 36.311748 
L 232.936101 36.892281 
L 235.659712 38.060676 
L 238.383324 39.912789 
L 241.106936 41.131221 
L 243.830548 41.622252 
L 246.55416 43.617576 
L 252.001384 48.149024 
L 254.724996 48.332136 
L 257.448608 49.595571 
L 260.17222 51.206022 
L 262.895832 51.934968 
L 265.619444 53.131655 
L 268.343056 55.825548 
L 271.066668 55.339228 
L 273.79028 57.249321 
L 276.513892 57.991851 
L 281.961116 57.74509 
L 284.684728 58.928067 
L 287.40834 64.249531 
L 290.131952 62.703234 
L 292.855564 64.675058 
L 295.579176 70.751537 
L 298.302788 69.928913 
L 301.026399 74.841334 
L 303.750011 77.977209 
L 306.473623 78.232273 
L 309.197235 77.205495 
L 311.920847 77.627288 
L 314.644459 79.940417 
L 317.368071 86.579465 
L 320.091683 89.793699 
L 325.538907 98.073139 
L 328.262519 100.754941 
L 330.986131 102.698237 
L 333.709743 101.347253 
L 336.433355 100.270234 
L 339.156967 93.954138 
L 341.880579 93.527125 
L 344.604191 91.883626 
L 347.327803 93.520791 
L 350.051415 92.324942 
L 352.775027 92.381547 
L 355.498639 95.822922 
L 358.222251 99.932497 
L 360.945863 103.695586 
L 363.669475 104.858024 
L 366.393086 104.727122 
L 369.116698 101.787035 
L 371.84031 107.271275 
L 374.563922 108.372423 
L 377.287534 114.159025 
L 380.011146 116.6862 
L 382.734758 110.184128 
L 385.45837 112.567548 
L 388.181982 113.827966 
L 390.905594 111.308034 
L 396.352818 117.16692 
L 399.07643 121.200574 
L 401.800042 128.044101 
L 404.523654 125.316404 
L 407.247266 125.577804 
L 409.970878 125.25696 
L 415.418102 132.554693 
L 418.141714 131.390349 
L 420.865326 134.220605 
L 423.588938 141.727415 
L 426.31255 143.699404 
L 429.036162 139.738497 
L 431.759773 137.683763 
L 434.483385 137.599657 
L 437.206997 140.453724 
L 439.930609 145.115229 
L 442.654221 143.542719 
L 445.377833 148.030228 
L 448.101445 149.798784 
L 450.825057 142.137616 
L 453.548669 141.52543 
L 456.272281 154.788322 
L 458.995893 151.94427 
L 461.719505 150.670089 
L 464.443117 147.219428 
L 467.166729 147.978955 
L 469.890341 141.135355 
L 469.890341 141.135355 
" clip-path="url(#pa0172de615)" style="fill: none; stroke: #ff7f0e; stroke-width: 2; stroke-linecap: square"/>
   </g>
   <g id="line2d_37">
    <path d="M 64.072159 286.918125 
L 115.820786 286.918125 
L 118.544398 278.560671 
L 121.26801 273.03928 
L 123.991622 268.260345 
L 126.715234 264.986447 
L 129.438846 263.067701 
L 132.162458 260.74929 
L 137.609682 258.219078 
L 140.333294 256.716196 
L 151.227742 251.613976 
L 153.951354 251.102712 
L 156.674966 249.515427 
L 159.398578 247.758596 
L 162.12219 245.66957 
L 164.845802 243.823785 
L 167.569414 241.720166 
L 170.293025 238.993931 
L 173.016637 230.261955 
L 178.463861 216.128638 
L 181.187473 209.477121 
L 183.911085 201.60305 
L 186.634697 194.712335 
L 189.358309 188.504666 
L 192.081921 180.928739 
L 197.529145 164.843861 
L 200.252757 157.520896 
L 202.976369 148.921953 
L 205.699981 141.376833 
L 211.147205 124.363559 
L 213.870817 116.494491 
L 216.594429 109.98991 
L 222.041653 97.620347 
L 224.765265 93.226625 
L 227.488877 83.414741 
L 230.212489 74.937408 
L 235.659712 63.194509 
L 238.383324 60.871409 
L 241.106936 61.224027 
L 243.830548 59.726134 
L 246.55416 59.801997 
L 249.277772 59.200894 
L 252.001384 59.346964 
L 254.724996 60.066101 
L 257.448608 58.47965 
L 260.17222 56.651757 
L 265.619444 54.554839 
L 268.343056 54.068758 
L 271.066668 54.786227 
L 273.79028 56.985396 
L 276.513892 56.378573 
L 279.237504 58.535395 
L 281.961116 58.72461 
L 284.684728 61.548559 
L 287.40834 62.138953 
L 290.131952 60.756102 
L 292.855564 59.633098 
L 295.579176 61.141983 
L 298.302788 61.515539 
L 301.026399 65.435184 
L 303.750011 65.273419 
L 306.473623 63.911753 
L 309.197235 66.123131 
L 311.920847 65.499649 
L 314.644459 63.328392 
L 317.368071 61.767825 
L 320.091683 62.954285 
L 322.815295 63.025216 
L 325.538907 61.944855 
L 328.262519 61.784837 
L 330.986131 62.404027 
L 333.709743 61.978368 
L 336.433355 62.211741 
L 339.156967 60.041881 
L 341.880579 61.181984 
L 344.604191 62.786729 
L 347.327803 63.885761 
L 350.051415 69.222379 
L 352.775027 73.784081 
L 355.498639 72.111329 
L 358.222251 76.054112 
L 360.945863 81.063307 
L 363.669475 80.620429 
L 366.393086 84.372201 
L 369.116698 86.109187 
L 371.84031 86.630426 
L 374.563922 87.533196 
L 377.287534 90.326282 
L 380.011146 91.291534 
L 382.734758 86.927001 
L 385.45837 88.020639 
L 388.181982 94.238728 
L 390.905594 93.780521 
L 393.629206 88.581087 
L 396.352818 89.089143 
L 399.07643 94.36483 
L 401.800042 93.767736 
L 404.523654 95.80042 
L 407.247266 100.203356 
L 409.970878 97.370346 
L 412.69449 99.622572 
L 415.418102 102.518622 
L 418.141714 111.142735 
L 420.865326 116.354849 
L 423.588938 115.563701 
L 426.31255 111.159796 
L 429.036162 115.132681 
L 431.759773 122.726067 
L 434.483385 124.657242 
L 437.206997 115.855217 
L 439.930609 112.463281 
L 442.654221 118.748463 
L 445.377833 121.300866 
L 448.101445 117.026844 
L 450.825057 117.077757 
L 453.548669 122.550764 
L 456.272281 123.20076 
L 458.995893 125.789822 
L 461.719505 126.127245 
L 464.443117 112.736584 
L 467.166729 110.511239 
L 469.890341 111.637979 
L 469.890341 111.637979 
" clip-path="url(#pa0172de615)" style="fill: none; stroke: #2ca02c; stroke-width: 2; stroke-linecap: square"/>
   </g>
   <g id="line2d_38">
    <path d="M 64.072159 286.918125 
L 115.820786 286.918125 
L 118.544398 276.506765 
L 121.26801 268.641234 
L 123.991622 263.909829 
L 126.715234 261.930669 
L 129.438846 258.71407 
L 132.162458 257.709611 
L 134.88607 254.741202 
L 137.609682 255.389692 
L 140.333294 253.096285 
L 143.056906 250.069818 
L 145.780518 248.236343 
L 148.50413 245.829169 
L 151.227742 244.212969 
L 153.951354 243.791008 
L 159.398578 239.981189 
L 162.12219 238.32799 
L 164.845802 235.882712 
L 167.569414 233.870235 
L 170.293025 230.773433 
L 173.016637 225.574717 
L 175.740249 219.817146 
L 178.463861 212.495772 
L 181.187473 204.360976 
L 183.911085 197.344578 
L 186.634697 189.302236 
L 197.529145 160.148815 
L 200.252757 152.787099 
L 202.976369 145.809376 
L 205.699981 138.136575 
L 208.423593 128.442241 
L 211.147205 119.782327 
L 216.594429 106.700031 
L 219.318041 99.450669 
L 222.041653 95.501475 
L 224.765265 92.624417 
L 227.488877 84.117279 
L 230.212489 79.451062 
L 232.936101 78.334564 
L 235.659712 75.407973 
L 238.383324 74.315753 
L 241.106936 72.245756 
L 243.830548 70.6326 
L 246.55416 70.149125 
L 249.277772 68.88737 
L 252.001384 68.131708 
L 254.724996 67.141944 
L 257.448608 64.520526 
L 260.17222 63.730546 
L 262.895832 64.451659 
L 265.619444 66.348555 
L 268.343056 66.824257 
L 271.066668 67.155972 
L 273.79028 66.829615 
L 276.513892 65.778235 
L 279.237504 68.009678 
L 281.961116 67.136187 
L 284.684728 67.008357 
L 287.40834 69.846409 
L 290.131952 68.886802 
L 292.855564 71.196714 
L 295.579176 70.859727 
L 298.302788 68.945058 
L 303.750011 68.031235 
L 306.473623 65.929861 
L 309.197235 64.276149 
L 311.920847 64.044763 
L 314.644459 66.642495 
L 317.368071 67.186242 
L 320.091683 73.301129 
L 322.815295 68.141166 
L 325.538907 70.593819 
L 328.262519 71.454675 
L 330.986131 74.128128 
L 333.709743 73.511261 
L 336.433355 73.547858 
L 339.156967 73.273755 
L 341.880579 70.546122 
L 347.327803 77.921369 
L 350.051415 78.001393 
L 352.775027 73.66093 
L 355.498639 73.846193 
L 358.222251 70.879608 
L 360.945863 72.15176 
L 363.669475 69.799739 
L 366.393086 73.74216 
L 369.116698 72.882901 
L 371.84031 75.830951 
L 374.563922 78.086203 
L 377.287534 79.722508 
L 380.011146 86.179606 
L 382.734758 89.626859 
L 385.45837 90.298897 
L 388.181982 89.299916 
L 390.905594 92.487324 
L 396.352818 100.406466 
L 399.07643 102.133516 
L 401.800042 101.92733 
L 404.523654 104.355357 
L 407.247266 103.864205 
L 409.970878 111.626207 
L 412.69449 106.413175 
L 415.418102 109.380523 
L 418.141714 105.395631 
L 420.865326 105.194586 
L 423.588938 103.630181 
L 426.31255 98.554639 
L 429.036162 97.49883 
L 431.759773 93.334578 
L 434.483385 90.039322 
L 437.206997 88.627259 
L 439.930609 98.319777 
L 442.654221 102.128695 
L 448.101445 111.780761 
L 450.825057 108.542064 
L 453.548669 102.713576 
L 456.272281 106.282588 
L 458.995893 112.466085 
L 461.719505 109.523886 
L 464.443117 110.533286 
L 467.166729 117.186428 
L 469.890341 116.191703 
L 469.890341 116.191703 
" clip-path="url(#pa0172de615)" style="fill: none; stroke: #d62728; stroke-width: 2; stroke-linecap: square"/>
   </g>
   <g id="line2d_39">
    <path d="M 64.072159 286.918125 
L 115.820786 286.918125 
L 118.544398 278.125935 
L 121.26801 271.577718 
L 123.991622 267.444453 
L 126.715234 262.891064 
L 132.162458 258.585885 
L 134.88607 257.281739 
L 140.333294 255.012983 
L 143.056906 253.02584 
L 145.780518 251.208856 
L 148.50413 250.243115 
L 151.227742 247.660268 
L 153.951354 245.46892 
L 156.674966 242.897642 
L 159.398578 241.798063 
L 162.12219 239.398528 
L 164.845802 237.69211 
L 167.569414 234.808505 
L 170.293025 233.571828 
L 173.016637 226.819275 
L 175.740249 221.156202 
L 178.463861 213.793383 
L 183.911085 197.824861 
L 186.634697 191.705999 
L 189.358309 184.086482 
L 192.081921 177.056561 
L 194.805533 168.436471 
L 197.529145 161.902572 
L 200.252757 153.924584 
L 205.699981 139.539361 
L 208.423593 133.498978 
L 211.147205 128.444613 
L 213.870817 123.056577 
L 216.594429 119.444002 
L 219.318041 115.284829 
L 222.041653 112.449251 
L 224.765265 109.00522 
L 227.488877 99.467094 
L 230.212489 93.412127 
L 232.936101 87.872711 
L 235.659712 83.847453 
L 238.383324 79.015573 
L 241.106936 77.34885 
L 243.830548 76.238163 
L 246.55416 75.63018 
L 249.277772 75.81704 
L 252.001384 74.511671 
L 254.724996 76.587143 
L 257.448608 75.020006 
L 260.17222 73.134957 
L 262.895832 72.423876 
L 265.619444 73.189591 
L 268.343056 74.240629 
L 271.066668 72.345041 
L 273.79028 72.720349 
L 276.513892 73.97868 
L 279.237504 73.218801 
L 281.961116 70.678883 
L 284.684728 66.776295 
L 287.40834 67.675768 
L 290.131952 67.217366 
L 292.855564 69.336642 
L 295.579176 69.530944 
L 298.302788 68.865061 
L 301.026399 70.866869 
L 303.750011 67.359903 
L 306.473623 68.19772 
L 309.197235 67.465477 
L 311.920847 67.235847 
L 314.644459 70.299879 
L 317.368071 73.667219 
L 320.091683 76.350762 
L 322.815295 79.941804 
L 325.538907 81.559167 
L 328.262519 77.829095 
L 330.986131 79.580849 
L 333.709743 82.485739 
L 336.433355 83.199278 
L 339.156967 83.636337 
L 341.880579 85.171668 
L 344.604191 82.761502 
L 347.327803 83.200827 
L 350.051415 85.057278 
L 352.775027 88.073317 
L 355.498639 89.678973 
L 358.222251 89.177258 
L 360.945863 88.428836 
L 363.669475 87.46381 
L 366.393086 92.53544 
L 369.116698 98.091296 
L 371.84031 101.575416 
L 374.563922 95.675142 
L 380.011146 100.977668 
L 382.734758 103.16376 
L 385.45837 100.516412 
L 388.181982 94.961727 
L 390.905594 92.721843 
L 393.629206 99.816856 
L 396.352818 102.353815 
L 399.07643 106.100436 
L 401.800042 103.010956 
L 404.523654 104.735452 
L 407.247266 100.731791 
L 409.970878 100.479509 
L 412.69449 99.667641 
L 415.418102 104.545029 
L 418.141714 100.408521 
L 420.865326 102.254491 
L 423.588938 92.833256 
L 426.31255 94.17907 
L 429.036162 97.474801 
L 431.759773 95.407602 
L 434.483385 91.425075 
L 437.206997 94.486322 
L 439.930609 94.048638 
L 442.654221 88.749566 
L 445.377833 92.855515 
L 448.101445 90.840767 
L 450.825057 84.03753 
L 453.548669 85.349859 
L 456.272281 84.841603 
L 458.995893 87.188087 
L 461.719505 95.777503 
L 464.443117 103.444341 
L 467.166729 103.988289 
L 469.890341 105.497643 
L 469.890341 105.497643 
" clip-path="url(#pa0172de615)" style="fill: none; stroke: #9467bd; stroke-width: 2; stroke-linecap: square"/>
   </g>
   <g id="line2d_40">
    <path d="M 64.072159 286.918125 
L 115.820786 286.918125 
L 118.544398 277.942388 
L 121.26801 271.057693 
L 123.991622 266.105214 
L 126.715234 262.494728 
L 129.438846 259.840929 
L 132.162458 258.203056 
L 134.88607 256.187853 
L 137.609682 253.905762 
L 140.333294 251.979562 
L 143.056906 249.743111 
L 145.780518 248.408283 
L 148.50413 246.212703 
L 151.227742 245.387884 
L 153.951354 243.773978 
L 156.674966 243.911483 
L 159.398578 242.526885 
L 162.12219 240.583 
L 164.845802 238.2151 
L 167.569414 237.016095 
L 170.293025 236.399866 
L 173.016637 227.793017 
L 175.740249 220.919506 
L 178.463861 215.378078 
L 181.187473 208.45117 
L 183.911085 201.832598 
L 186.634697 193.512792 
L 189.358309 185.807318 
L 192.081921 178.853371 
L 194.805533 170.791636 
L 205.699981 143.233434 
L 208.423593 135.504976 
L 211.147205 130.529408 
L 213.870817 125.200615 
L 216.594429 120.795975 
L 219.318041 115.875303 
L 222.041653 111.55303 
L 224.765265 108.691906 
L 227.488877 99.329544 
L 230.212489 93.709865 
L 232.936101 87.705876 
L 235.659712 82.082924 
L 238.383324 78.720612 
L 243.830548 71.320325 
L 246.55416 68.185868 
L 249.277772 68.063811 
L 252.001384 68.275338 
L 254.724996 65.472254 
L 257.448608 66.445472 
L 260.17222 66.025693 
L 262.895832 64.122034 
L 265.619444 63.356937 
L 268.343056 60.663608 
L 271.066668 61.499761 
L 273.79028 61.727685 
L 276.513892 61.157573 
L 279.237504 60.203062 
L 281.961116 60.753563 
L 284.684728 59.141213 
L 287.40834 57.099078 
L 290.131952 60.114789 
L 292.855564 61.588593 
L 295.579176 61.356194 
L 298.302788 57.720201 
L 301.026399 53.536431 
L 303.750011 53.8233 
L 306.473623 54.463868 
L 309.197235 56.660819 
L 311.920847 56.824147 
L 314.644459 57.350954 
L 317.368071 55.543205 
L 320.091683 57.214577 
L 322.815295 60.512618 
L 325.538907 61.982625 
L 328.262519 61.898383 
L 330.986131 58.222185 
L 333.709743 59.607977 
L 336.433355 61.532163 
L 341.880579 67.016791 
L 344.604191 69.237783 
L 347.327803 74.55739 
L 350.051415 75.845036 
L 352.775027 75.694182 
L 355.498639 74.226045 
L 358.222251 76.130124 
L 360.945863 79.317059 
L 363.669475 81.189745 
L 366.393086 75.767052 
L 369.116698 76.508346 
L 371.84031 80.515338 
L 374.563922 85.024331 
L 377.287534 83.491891 
L 380.011146 87.108667 
L 382.734758 85.319165 
L 385.45837 91.189031 
L 388.181982 94.419136 
L 390.905594 91.840781 
L 393.629206 95.926039 
L 396.352818 89.579436 
L 399.07643 93.371907 
L 401.800042 92.982497 
L 404.523654 92.865419 
L 407.247266 92.064207 
L 409.970878 96.504714 
L 412.69449 96.726342 
L 415.418102 87.450012 
L 418.141714 88.311671 
L 420.865326 83.251066 
L 423.588938 89.401948 
L 426.31255 82.64872 
L 429.036162 88.8239 
L 431.759773 97.87459 
L 434.483385 102.676752 
L 437.206997 103.614681 
L 439.930609 108.839961 
L 442.654221 112.184601 
L 445.377833 107.886549 
L 448.101445 86.128324 
L 450.825057 96.918576 
L 453.548669 97.543904 
L 456.272281 94.858724 
L 458.995893 93.16921 
L 461.719505 97.836654 
L 464.443117 98.994493 
L 467.166729 95.916695 
L 469.890341 103.001978 
L 469.890341 103.001978 
" clip-path="url(#pa0172de615)" style="fill: none; stroke: #8c564b; stroke-width: 2; stroke-linecap: square"/>
   </g>
   <g id="patch_3">
    <path d="M 43.78125 299.518125 
L 43.78125 22.318125 
" style="fill: none; stroke: #000000; stroke-width: 0.8; stroke-linejoin: miter; stroke-linecap: square"/>
   </g>
   <g id="patch_4">
    <path d="M 490.18125 299.518125 
L 490.18125 22.318125 
" style="fill: none; stroke: #000000; stroke-width: 0.8; stroke-linejoin: miter; stroke-linecap: square"/>
   </g>
   <g id="patch_5">
    <path d="M 43.78125 299.518125 
L 490.18125 299.518125 
" style="fill: none; stroke: #000000; stroke-width: 0.8; stroke-linejoin: miter; stroke-linecap: square"/>
   </g>
   <g id="patch_6">
    <path d="M 43.78125 22.318125 
L 490.18125 22.318125 
" style="fill: none; stroke: #000000; stroke-width: 0.8; stroke-linejoin: miter; stroke-linecap: square"/>
   </g>
   <g id="text_20">
    <!-- Detection Ratio vs Time - Peak 25 -->
    <g transform="translate(165.590625 16.318125) scale(0.12 -0.12)">
     <defs>
      <path id="DejaVuSans-76" d="M 191 3500 
L 800 3500 
L 1894 563 
L 2988 3500 
L 3597 3500 
L 2284 0 
L 1503 0 
L 191 3500 
z
" transform="scale(0.015625)"/>
      <path id="DejaVuSans-73" d="M 2834 3397 
L 2834 2853 
Q 2591 2978 2328 3040 
Q 2066 3103 1784 3103 
Q 1356 3103 1142 2972 
Q 928 2841 928 2578 
Q 928 2378 1081 2264 
Q 1234 2150 1697 2047 
L 1894 2003 
Q 2506 1872 2764 1633 
Q 3022 1394 3022 966 
Q 3022 478 2636 193 
Q 2250 -91 1575 -91 
Q 1294 -91 989 -36 
Q 684 19 347 128 
L 347 722 
Q 666 556 975 473 
Q 1284 391 1588 391 
Q 1994 391 2212 530 
Q 2431 669 2431 922 
Q 2431 1156 2273 1281 
Q 2116 1406 1581 1522 
L 1381 1569 
Q 847 1681 609 1914 
Q 372 2147 372 2553 
Q 372 3047 722 3315 
Q 1072 3584 1716 3584 
Q 2034 3584 2315 3537 
Q 2597 3491 2834 3397 
z
" transform="scale(0.015625)"/>
      <path id="DejaVuSans-54" d="M -19 4666 
L 3928 4666 
L 3928 4134 
L 2272 4134 
L 2272 0 
L 1638 0 
L 1638 4134 
L -19 4134 
L -19 4666 
z
" transform="scale(0.015625)"/>
      <path id="DejaVuSans-2d" d="M 313 2009 
L 1997 2009 
L 1997 1497 
L 313 1497 
L 313 2009 
z
" transform="scale(0.015625)"/>
      <path id="DejaVuSans-50" d="M 1259 4147 
L 1259 2394 
L 2053 2394 
Q 2494 2394 2734 2622 
Q 2975 2850 2975 3272 
Q 2975 3691 2734 3919 
Q 2494 4147 2053 4147 
L 1259 4147 
z
M 628 4666 
L 2053 4666 
Q 2838 4666 3239 4311 
Q 3641 3956 3641 3272 
Q 3641 2581 3239 2228 
Q 2838 1875 2053 1875 
L 1259 1875 
L 1259 0 
L 628 0 
L 628 4666 
z
" transform="scale(0.015625)"/>
      <path id="DejaVuSans-6b" d="M 581 4863 
L 1159 4863 
L 1159 1991 
L 2875 3500 
L 3609 3500 
L 1753 1863 
L 3688 0 
L 2938 0 
L 1159 1709 
L 1159 0 
L 581 0 
L 581 4863 
z
" transform="scale(0.015625)"/>
     </defs>
     <use xlink:href="#DejaVuSans-44"/>
     <use xlink:href="#DejaVuSans-65" transform="translate(77.001953 0)"/>
     <use xlink:href="#DejaVuSans-74" transform="translate(138.525391 0)"/>
     <use xlink:href="#DejaVuSans-65" transform="translate(177.734375 0)"/>
     <use xlink:href="#DejaVuSans-63" transform="translate(239.257812 0)"/>
     <use xlink:href="#DejaVuSans-74" transform="translate(294.238281 0)"/>
     <use xlink:href="#DejaVuSans-69" transform="translate(333.447266 0)"/>
     <use xlink:href="#DejaVuSans-6f" transform="translate(361.230469 0)"/>
     <use xlink:href="#DejaVuSans-6e" transform="translate(422.412109 0)"/>
     <use xlink:href="#DejaVuSans-20" transform="translate(485.791016 0)"/>
     <use xlink:href="#DejaVuSans-52" transform="translate(517.578125 0)"/>
     <use xlink:href="#DejaVuSans-61" transform="translate(584.810547 0)"/>
     <use xlink:href="#DejaVuSans-74" transform="translate(646.089844 0)"/>
     <use xlink:href="#DejaVuSans-69" transform="translate(685.298828 0)"/>
     <use xlink:href="#DejaVuSans-6f" transform="translate(713.082031 0)"/>
     <use xlink:href="#DejaVuSans-20" transform="translate(774.263672 0)"/>
     <use xlink:href="#DejaVuSans-76" transform="translate(806.050781 0)"/>
     <use xlink:href="#DejaVuSans-73" transform="translate(865.230469 0)"/>
     <use xlink:href="#DejaVuSans-20" transform="translate(917.330078 0)"/>
     <use xlink:href="#DejaVuSans-54" transform="translate(949.117188 0)"/>
     <use xlink:href="#DejaVuSans-69" transform="translate(1007.076172 0)"/>
     <use xlink:href="#DejaVuSans-6d" transform="translate(1034.859375 0)"/>
     <use xlink:href="#DejaVuSans-65" transform="translate(1132.271484 0)"/>
     <use xlink:href="#DejaVuSans-20" transform="translate(1193.794922 0)"/>
     <use xlink:href="#DejaVuSans-2d" transform="translate(1225.582031 0)"/>
     <use xlink:href="#DejaVuSans-20" transform="translate(1261.666016 0)"/>
     <use xlink:href="#DejaVuSans-50" transform="translate(1293.453125 0)"/>
     <use xlink:href="#DejaVuSans-65" transform="translate(1350.130859 0)"/>
     <use xlink:href="#DejaVuSans-61" transform="translate(1411.654297 0)"/>
     <use xlink:href="#DejaVuSans-6b" transform="translate(1472.933594 0)"/>
     <use xlink:href="#DejaVuSans-20" transform="translate(1530.84375 0)"/>
     <use xlink:href="#DejaVuSans-32" transform="translate(1562.630859 0)"/>
     <use xlink:href="#DejaVuSans-35" transform="translate(1626.253906 0)"/>
    </g>
   </g>
   <g id="legend_1">
    <g id="patch_7">
     <path d="M 50.08125 108.78 
L 156.426094 108.78 
Q 158.226094 108.78 158.226094 106.98 
L 158.226094 28.618125 
Q 158.226094 26.818125 156.426094 26.818125 
L 50.08125 26.818125 
Q 48.28125 26.818125 48.28125 28.618125 
L 48.28125 106.98 
Q 48.28125 108.78 50.08125 108.78 
z
" style="fill: #ffffff; opacity: 0.8; stroke: #cccccc; stroke-linejoin: miter"/>
    </g>
    <g id="line2d_41">
     <path d="M 51.88125 34.106719 
L 60.88125 34.106719 
L 69.88125 34.106719 
" style="fill: none; stroke: #1f77b4; stroke-width: 2; stroke-linecap: square"/>
    </g>
    <g id="text_21">
     <!-- LocalGNTS-14 -->
     <g transform="translate(77.08125 37.256719) scale(0.09 -0.09)">
      <defs>
       <path id="DejaVuSans-4c" d="M 628 4666 
L 1259 4666 
L 1259 531 
L 3531 531 
L 3531 0 
L 628 0 
L 628 4666 
z
" transform="scale(0.015625)"/>
       <path id="DejaVuSans-47" d="M 3809 666 
L 3809 1919 
L 2778 1919 
L 2778 2438 
L 4434 2438 
L 4434 434 
Q 4069 175 3628 42 
Q 3188 -91 2688 -91 
Q 1594 -91 976 548 
Q 359 1188 359 2328 
Q 359 3472 976 4111 
Q 1594 4750 2688 4750 
Q 3144 4750 3555 4637 
Q 3966 4525 4313 4306 
L 4313 3634 
Q 3963 3931 3569 4081 
Q 3175 4231 2741 4231 
Q 1884 4231 1454 3753 
Q 1025 3275 1025 2328 
Q 1025 1384 1454 906 
Q 1884 428 2741 428 
Q 3075 428 3337 486 
Q 3600 544 3809 666 
z
" transform="scale(0.015625)"/>
       <path id="DejaVuSans-4e" d="M 628 4666 
L 1478 4666 
L 3547 763 
L 3547 4666 
L 4159 4666 
L 4159 0 
L 3309 0 
L 1241 3903 
L 1241 0 
L 628 0 
L 628 4666 
z
" transform="scale(0.015625)"/>
      </defs>
      <use xlink:href="#DejaVuSans-4c"/>
      <use xlink:href="#DejaVuSans-6f" transform="translate(53.962891 0)"/>
      <use xlink:href="#DejaVuSans-63" transform="translate(115.144531 0)"/>
      <use xlink:href="#DejaVuSans-61" transform="translate(170.125 0)"/>
      <use xlink:href="#DejaVuSans-6c" transform="translate(231.404297 0)"/>
      <use xlink:href="#DejaVuSans-47" transform="translate(259.1875 0)"/>
      <use xlink:href="#DejaVuSans-4e" transform="translate(336.677734 0)"/>
      <use xlink:href="#DejaVuSans-54" transform="translate(411.482422 0)"/>
      <use xlink:href="#DejaVuSans-53" transform="translate(472.566406 0)"/>
      <use xlink:href="#DejaVuSans-2d" transform="translate(536.042969 0)"/>
      <use xlink:href="#DejaVuSans-31" transform="translate(572.126953 0)"/>
      <use xlink:href="#DejaVuSans-34" transform="translate(635.75 0)"/>
     </g>
    </g>
    <g id="line2d_42">
     <path d="M 51.88125 47.317031 
L 60.88125 47.317031 
L 69.88125 47.317031 
" style="fill: none; stroke: #ff7f0e; stroke-width: 2; stroke-linecap: square"/>
    </g>
    <g id="text_22">
     <!-- GlobalGNTS-14 -->
     <g transform="translate(77.08125 50.467031) scale(0.09 -0.09)">
      <defs>
       <path id="DejaVuSans-62" d="M 3116 1747 
Q 3116 2381 2855 2742 
Q 2594 3103 2138 3103 
Q 1681 3103 1420 2742 
Q 1159 2381 1159 1747 
Q 1159 1113 1420 752 
Q 1681 391 2138 391 
Q 2594 391 2855 752 
Q 3116 1113 3116 1747 
z
M 1159 2969 
Q 1341 3281 1617 3432 
Q 1894 3584 2278 3584 
Q 2916 3584 3314 3078 
Q 3713 2572 3713 1747 
Q 3713 922 3314 415 
Q 2916 -91 2278 -91 
Q 1894 -91 1617 61 
Q 1341 213 1159 525 
L 1159 0 
L 581 0 
L 581 4863 
L 1159 4863 
L 1159 2969 
z
" transform="scale(0.015625)"/>
      </defs>
      <use xlink:href="#DejaVuSans-47"/>
      <use xlink:href="#DejaVuSans-6c" transform="translate(77.490234 0)"/>
      <use xlink:href="#DejaVuSans-6f" transform="translate(105.273438 0)"/>
      <use xlink:href="#DejaVuSans-62" transform="translate(166.455078 0)"/>
      <use xlink:href="#DejaVuSans-61" transform="translate(229.931641 0)"/>
      <use xlink:href="#DejaVuSans-6c" transform="translate(291.210938 0)"/>
      <use xlink:href="#DejaVuSans-47" transform="translate(318.994141 0)"/>
      <use xlink:href="#DejaVuSans-4e" transform="translate(396.484375 0)"/>
      <use xlink:href="#DejaVuSans-54" transform="translate(471.289062 0)"/>
      <use xlink:href="#DejaVuSans-53" transform="translate(532.373047 0)"/>
      <use xlink:href="#DejaVuSans-2d" transform="translate(595.849609 0)"/>
      <use xlink:href="#DejaVuSans-31" transform="translate(631.933594 0)"/>
      <use xlink:href="#DejaVuSans-34" transform="translate(695.556641 0)"/>
     </g>
    </g>
    <g id="line2d_43">
     <path d="M 51.88125 60.527344 
L 60.88125 60.527344 
L 69.88125 60.527344 
" style="fill: none; stroke: #2ca02c; stroke-width: 2; stroke-linecap: square"/>
    </g>
    <g id="text_23">
     <!-- Beta-Binomial-14 -->
     <g transform="translate(77.08125 63.677344) scale(0.09 -0.09)">
      <defs>
       <path id="DejaVuSans-42" d="M 1259 2228 
L 1259 519 
L 2272 519 
Q 2781 519 3026 730 
Q 3272 941 3272 1375 
Q 3272 1813 3026 2020 
Q 2781 2228 2272 2228 
L 1259 2228 
z
M 1259 4147 
L 1259 2741 
L 2194 2741 
Q 2656 2741 2882 2914 
Q 3109 3088 3109 3444 
Q 3109 3797 2882 3972 
Q 2656 4147 2194 4147 
L 1259 4147 
z
M 628 4666 
L 2241 4666 
Q 2963 4666 3353 4366 
Q 3744 4066 3744 3513 
Q 3744 3084 3544 2831 
Q 3344 2578 2956 2516 
Q 3422 2416 3680 2098 
Q 3938 1781 3938 1306 
Q 3938 681 3513 340 
Q 3088 0 2303 0 
L 628 0 
L 628 4666 
z
" transform="scale(0.015625)"/>
      </defs>
      <use xlink:href="#DejaVuSans-42"/>
      <use xlink:href="#DejaVuSans-65" transform="translate(68.603516 0)"/>
      <use xlink:href="#DejaVuSans-74" transform="translate(130.126953 0)"/>
      <use xlink:href="#DejaVuSans-61" transform="translate(169.335938 0)"/>
      <use xlink:href="#DejaVuSans-2d" transform="translate(230.615234 0)"/>
      <use xlink:href="#DejaVuSans-42" transform="translate(263.074219 0)"/>
      <use xlink:href="#DejaVuSans-69" transform="translate(331.677734 0)"/>
      <use xlink:href="#DejaVuSans-6e" transform="translate(359.460938 0)"/>
      <use xlink:href="#DejaVuSans-6f" transform="translate(422.839844 0)"/>
      <use xlink:href="#DejaVuSans-6d" transform="translate(484.021484 0)"/>
      <use xlink:href="#DejaVuSans-69" transform="translate(581.433594 0)"/>
      <use xlink:href="#DejaVuSans-61" transform="translate(609.216797 0)"/>
      <use xlink:href="#DejaVuSans-6c" transform="translate(670.496094 0)"/>
      <use xlink:href="#DejaVuSans-2d" transform="translate(698.279297 0)"/>
      <use xlink:href="#DejaVuSans-31" transform="translate(734.363281 0)"/>
      <use xlink:href="#DejaVuSans-34" transform="translate(797.986328 0)"/>
     </g>
    </g>
    <g id="line2d_44">
     <path d="M 51.88125 73.737656 
L 60.88125 73.737656 
L 69.88125 73.737656 
" style="fill: none; stroke: #d62728; stroke-width: 2; stroke-linecap: square"/>
    </g>
    <g id="text_24">
     <!-- Proportional -->
     <g transform="translate(77.08125 76.887656) scale(0.09 -0.09)">
      <defs>
       <path id="DejaVuSans-72" d="M 2631 2963 
Q 2534 3019 2420 3045 
Q 2306 3072 2169 3072 
Q 1681 3072 1420 2755 
Q 1159 2438 1159 1844 
L 1159 0 
L 581 0 
L 581 3500 
L 1159 3500 
L 1159 2956 
Q 1341 3275 1631 3429 
Q 1922 3584 2338 3584 
Q 2397 3584 2469 3576 
Q 2541 3569 2628 3553 
L 2631 2963 
z
" transform="scale(0.015625)"/>
       <path id="DejaVuSans-70" d="M 1159 525 
L 1159 -1331 
L 581 -1331 
L 581 3500 
L 1159 3500 
L 1159 2969 
Q 1341 3281 1617 3432 
Q 1894 3584 2278 3584 
Q 2916 3584 3314 3078 
Q 3713 2572 3713 1747 
Q 3713 922 3314 415 
Q 2916 -91 2278 -91 
Q 1894 -91 1617 61 
Q 1341 213 1159 525 
z
M 3116 1747 
Q 3116 2381 2855 2742 
Q 2594 3103 2138 3103 
Q 1681 3103 1420 2742 
Q 1159 2381 1159 1747 
Q 1159 1113 1420 752 
Q 1681 391 2138 391 
Q 2594 391 2855 752 
Q 3116 1113 3116 1747 
z
" transform="scale(0.015625)"/>
      </defs>
      <use xlink:href="#DejaVuSans-50"/>
      <use xlink:href="#DejaVuSans-72" transform="translate(58.552734 0)"/>
      <use xlink:href="#DejaVuSans-6f" transform="translate(97.416016 0)"/>
      <use xlink:href="#DejaVuSans-70" transform="translate(158.597656 0)"/>
      <use xlink:href="#DejaVuSans-6f" transform="translate(222.074219 0)"/>
      <use xlink:href="#DejaVuSans-72" transform="translate(283.255859 0)"/>
      <use xlink:href="#DejaVuSans-74" transform="translate(324.369141 0)"/>
      <use xlink:href="#DejaVuSans-69" transform="translate(363.578125 0)"/>
      <use xlink:href="#DejaVuSans-6f" transform="translate(391.361328 0)"/>
      <use xlink:href="#DejaVuSans-6e" transform="translate(452.542969 0)"/>
      <use xlink:href="#DejaVuSans-61" transform="translate(515.921875 0)"/>
      <use xlink:href="#DejaVuSans-6c" transform="translate(577.201172 0)"/>
     </g>
    </g>
    <g id="line2d_45">
     <path d="M 51.88125 86.947969 
L 60.88125 86.947969 
L 69.88125 86.947969 
" style="fill: none; stroke: #9467bd; stroke-width: 2; stroke-linecap: square"/>
    </g>
    <g id="text_25">
     <!-- Uniform -->
     <g transform="translate(77.08125 90.097969) scale(0.09 -0.09)">
      <defs>
       <path id="DejaVuSans-55" d="M 556 4666 
L 1191 4666 
L 1191 1831 
Q 1191 1081 1462 751 
Q 1734 422 2344 422 
Q 2950 422 3222 751 
Q 3494 1081 3494 1831 
L 3494 4666 
L 4128 4666 
L 4128 1753 
Q 4128 841 3676 375 
Q 3225 -91 2344 -91 
Q 1459 -91 1007 375 
Q 556 841 556 1753 
L 556 4666 
z
" transform="scale(0.015625)"/>
      </defs>
      <use xlink:href="#DejaVuSans-55"/>
      <use xlink:href="#DejaVuSans-6e" transform="translate(73.193359 0)"/>
      <use xlink:href="#DejaVuSans-69" transform="translate(136.572266 0)"/>
      <use xlink:href="#DejaVuSans-66" transform="translate(164.355469 0)"/>
      <use xlink:href="#DejaVuSans-6f" transform="translate(199.560547 0)"/>
      <use xlink:href="#DejaVuSans-72" transform="translate(260.742188 0)"/>
      <use xlink:href="#DejaVuSans-6d" transform="translate(300.105469 0)"/>
     </g>
    </g>
    <g id="line2d_46">
     <path d="M 51.88125 100.158281 
L 60.88125 100.158281 
L 69.88125 100.158281 
" style="fill: none; stroke: #8c564b; stroke-width: 2; stroke-linecap: square"/>
    </g>
    <g id="text_26">
     <!-- Random -->
     <g transform="translate(77.08125 103.308281) scale(0.09 -0.09)">
      <defs>
       <path id="DejaVuSans-64" d="M 2906 2969 
L 2906 4863 
L 3481 4863 
L 3481 0 
L 2906 0 
L 2906 525 
Q 2725 213 2448 61 
Q 2172 -91 1784 -91 
Q 1150 -91 751 415 
Q 353 922 353 1747 
Q 353 2572 751 3078 
Q 1150 3584 1784 3584 
Q 2172 3584 2448 3432 
Q 2725 3281 2906 2969 
z
M 947 1747 
Q 947 1113 1208 752 
Q 1469 391 1925 391 
Q 2381 391 2643 752 
Q 2906 1113 2906 1747 
Q 2906 2381 2643 2742 
Q 2381 3103 1925 3103 
Q 1469 3103 1208 2742 
Q 947 2381 947 1747 
z
" transform="scale(0.015625)"/>
      </defs>
      <use xlink:href="#DejaVuSans-52"/>
      <use xlink:href="#DejaVuSans-61" transform="translate(67.232422 0)"/>
      <use xlink:href="#DejaVuSans-6e" transform="translate(128.511719 0)"/>
      <use xlink:href="#DejaVuSans-64" transform="translate(191.890625 0)"/>
      <use xlink:href="#DejaVuSans-6f" transform="translate(255.367188 0)"/>
      <use xlink:href="#DejaVuSans-6d" transform="translate(316.548828 0)"/>
     </g>
    </g>
   </g>
  </g>
 </g>
 <defs>
  <clipPath id="pa0172de615">
   <rect x="43.78125" y="22.318125" width="446.4" height="277.2"/>
  </clipPath>
 </defs>
</svg>
