<?xml version="1.0" encoding="utf-8" standalone="no"?>
<!DOCTYPE svg PUBLIC "-//W3C//DTD SVG 1.1//EN"
  "http://www.w3.org/Graphics/SVG/1.1/DTD/svg11.dtd">
<svg xmlns:xlink="http://www.w3.org/1999/xlink" width="497.38125pt" height="337.074375pt" viewBox="0 0 497.38125 337.074375" xmlns="http://www.w3.org/2000/svg" version="1.1">
 <metadata>
  <rdf:RDF xmlns:dc="http://purl.org/dc/elements/1.1/" xmlns:cc="http://creativecommons.org/ns#" xmlns:rdf="http://www.w3.org/1999/02/22-rdf-syntax-ns#">
   <cc:Work>
    <dc:type rdf:resource="http://purl.org/dc/dcmitype/StillImage"/>
    <dc:date>2026-07-01T17:14:05.041094</dc:date>
    <dc:format>image/svg+xml</dc:format>
    <dc:creator>
     <cc:Agent>
      <dc:title>Matplotlib v3.10.8, https://matplotlib.org/</dc:title>
     </cc:Agent>
    </dc:creator>
   </cc:Work>
  </rdf:RDF>
 </metadata>
 <defs>
  <style type="text/css">*{stroke-linejoin: round; stroke-linecap: butt}</style>
 </defs>
 <g id="figure_1">
  <g id="patch_1">
   <path d="M 0 337.074375 
L 497.38125 337.074375 
L 497.38125 0 
L 0 0 
z
" style="fill: #ffffff"/>
  </g>
  <g id="axes_1">
   <g id="patch_2">
    <path d="M 43.78125 299.518125 
L 490.18125 299.518125 
L 490.18125 22.318125 
L 43.78125 22.318125 
z
" style="fill: #ffffff"/>
   </g>
   <g id="matplotlib.axis_1">
    <g id="xtick_1">
     <g id="line2d_1">
      <path d="M 64.072159 299.518125 
L 64.072159 22.318125 
" clip-path="url(#p448d5b876f)" style="fill: none; stroke-dasharray: 1.85,0.8; stroke-dashoffset: 0; stroke: #b0b0b0; stroke-opacity: 0.6; stroke-width: 0.5"/>
     </g>
     <g id="line2d_2">
      <defs>
       <path id="meb2f1065e0" d="M 0 0 
L 0 3.5 
" style="stroke: #000000; stroke-width: 0.8"/>
      </defs>
      <g>
       <use xlink:href="#meb2f1065e0" x="64.072159" y="299.518125" style="stroke: #000000; stroke-width: 0.8"/>
      </g>
     </g>
     <g id="text_1">
      <!-- 0 -->
      <g transform="translate(60.890909 314.116563) scale(0.1 -0.1)">
       <defs>
        <path id="DejaVuSans-30" d="M 2034 4250 
Q 1547 4250 1301 3770 
Q 1056 3291 1056 2328 
Q 1056 1369 1301 889 
Q 1547 409 2034 409 
Q 2525 409 2770 889 
Q 3016 1369 3016 2328 
Q 3016 3291 2770 3770 
Q 2525 4250 2034 4250 
z
M 2034 4750 
Q 2819 4750 3233 4129 
Q 3647 3509 3647 2328 
Q 3647 1150 3233 529 
Q 2819 -91 2034 -91 
Q 1250 -91 836 529 
Q 422 1150 422 2328 
Q 422 3509 836 4129 
Q 1250 4750 2034 4750 
z
" transform="scale(0.015625)"/>
       </defs>
       <use xlink:href="#DejaVuSans-30"/>
      </g>
     </g>
    </g>
    <g id="xtick_2">
     <g id="line2d_3">
      <path d="M 118.544398 299.518125 
L 118.544398 22.318125 
" clip-path="url(#p448d5b876f)" style="fill: none; stroke-dasharray: 1.85,0.8; stroke-dashoffset: 0; stroke: #b0b0b0; stroke-opacity: 0.6; stroke-width: 0.5"/>
     </g>
     <g id="line2d_4">
      <g>
       <use xlink:href="#meb2f1065e0" x="118.544398" y="299.518125" style="stroke: #000000; stroke-width: 0.8"/>
      </g>
     </g>
     <g id="text_2">
      <!-- 20 -->
      <g transform="translate(112.181898 314.116563) scale(0.1 -0.1)">
       <defs>
        <path id="DejaVuSans-32" d="M 1228 531 
L 3431 531 
L 3431 0 
L 469 0 
L 469 531 
Q 828 903 1448 1529 
Q 2069 2156 2228 2338 
Q 2531 2678 2651 2914 
Q 2772 3150 2772 3378 
Q 2772 3750 2511 3984 
Q 2250 4219 1831 4219 
Q 1534 4219 1204 4116 
Q 875 4013 500 3803 
L 500 4441 
Q 881 4594 1212 4672 
Q 1544 4750 1819 4750 
Q 2544 4750 2975 4387 
Q 3406 4025 3406 3419 
Q 3406 3131 3298 2873 
Q 3191 2616 2906 2266 
Q 2828 2175 2409 1742 
Q 1991 1309 1228 531 
z
" transform="scale(0.015625)"/>
       </defs>
       <use xlink:href="#DejaVuSans-32"/>
       <use xlink:href="#DejaVuSans-30" transform="translate(63.623047 0)"/>
      </g>
     </g>
    </g>
    <g id="xtick_3">
     <g id="line2d_5">
      <path d="M 173.016637 299.518125 
L 173.016637 22.318125 
" clip-path="url(#p448d5b876f)" style="fill: none; stroke-dasharray: 1.85,0.8; stroke-dashoffset: 0; stroke: #b0b0b0; stroke-opacity: 0.6; stroke-width: 0.5"/>
     </g>
     <g id="line2d_6">
      <g>
       <use xlink:href="#meb2f1065e0" x="173.016637" y="299.518125" style="stroke: #000000; stroke-width: 0.8"/>
      </g>
     </g>
     <g id="text_3">
      <!-- 40 -->
      <g transform="translate(166.654137 314.116563) scale(0.1 -0.1)">
       <defs>
        <path id="DejaVuSans-34" d="M 2419 4116 
L 825 1625 
L 2419 1625 
L 2419 4116 
z
M 2253 4666 
L 3047 4666 
L 3047 1625 
L 3713 1625 
L 3713 1100 
L 3047 1100 
L 3047 0 
L 2419 0 
L 2419 1100 
L 313 1100 
L 313 1709 
L 2253 4666 
z
" transform="scale(0.015625)"/>
       </defs>
       <use xlink:href="#DejaVuSans-34"/>
       <use xlink:href="#DejaVuSans-30" transform="translate(63.623047 0)"/>
      </g>
     </g>
    </g>
    <g id="xtick_4">
     <g id="line2d_7">
      <path d="M 227.488877 299.518125 
L 227.488877 22.318125 
" clip-path="url(#p448d5b876f)" style="fill: none; stroke-dasharray: 1.85,0.8; stroke-dashoffset: 0; stroke: #b0b0b0; stroke-opacity: 0.6; stroke-width: 0.5"/>
     </g>
     <g id="line2d_8">
      <g>
       <use xlink:href="#meb2f1065e0" x="227.488877" y="299.518125" style="stroke: #000000; stroke-width: 0.8"/>
      </g>
     </g>
     <g id="text_4">
      <!-- 60 -->
      <g transform="translate(221.126377 314.116563) scale(0.1 -0.1)">
       <defs>
        <path id="DejaVuSans-36" d="M 2113 2584 
Q 1688 2584 1439 2293 
Q 1191 2003 1191 1497 
Q 1191 994 1439 701 
Q 1688 409 2113 409 
Q 2538 409 2786 701 
Q 3034 994 3034 1497 
Q 3034 2003 2786 2293 
Q 2538 2584 2113 2584 
z
M 3366 4563 
L 3366 3988 
Q 3128 4100 2886 4159 
Q 2644 4219 2406 4219 
Q 1781 4219 1451 3797 
Q 1122 3375 1075 2522 
Q 1259 2794 1537 2939 
Q 1816 3084 2150 3084 
Q 2853 3084 3261 2657 
Q 3669 2231 3669 1497 
Q 3669 778 3244 343 
Q 2819 -91 2113 -91 
Q 1303 -91 875 529 
Q 447 1150 447 2328 
Q 447 3434 972 4092 
Q 1497 4750 2381 4750 
Q 2619 4750 2861 4703 
Q 3103 4656 3366 4563 
z
" transform="scale(0.015625)"/>
       </defs>
       <use xlink:href="#DejaVuSans-36"/>
       <use xlink:href="#DejaVuSans-30" transform="translate(63.623047 0)"/>
      </g>
     </g>
    </g>
    <g id="xtick_5">
     <g id="line2d_9">
      <path d="M 281.961116 299.518125 
L 281.961116 22.318125 
" clip-path="url(#p448d5b876f)" style="fill: none; stroke-dasharray: 1.85,0.8; stroke-dashoffset: 0; stroke: #b0b0b0; stroke-opacity: 0.6; stroke-width: 0.5"/>
     </g>
     <g id="line2d_10">
      <g>
       <use xlink:href="#meb2f1065e0" x="281.961116" y="299.518125" style="stroke: #000000; stroke-width: 0.8"/>
      </g>
     </g>
     <g id="text_5">
      <!-- 80 -->
      <g transform="translate(275.598616 314.116563) scale(0.1 -0.1)">
       <defs>
        <path id="DejaVuSans-38" d="M 2034 2216 
Q 1584 2216 1326 1975 
Q 1069 1734 1069 1313 
Q 1069 891 1326 650 
Q 1584 409 2034 409 
Q 2484 409 2743 651 
Q 3003 894 3003 1313 
Q 3003 1734 2745 1975 
Q 2488 2216 2034 2216 
z
M 1403 2484 
Q 997 2584 770 2862 
Q 544 3141 544 3541 
Q 544 4100 942 4425 
Q 1341 4750 2034 4750 
Q 2731 4750 3128 4425 
Q 3525 4100 3525 3541 
Q 3525 3141 3298 2862 
Q 3072 2584 2669 2484 
Q 3125 2378 3379 2068 
Q 3634 1759 3634 1313 
Q 3634 634 3220 271 
Q 2806 -91 2034 -91 
Q 1263 -91 848 271 
Q 434 634 434 1313 
Q 434 1759 690 2068 
Q 947 2378 1403 2484 
z
M 1172 3481 
Q 1172 3119 1398 2916 
Q 1625 2713 2034 2713 
Q 2441 2713 2670 2916 
Q 2900 3119 2900 3481 
Q 2900 3844 2670 4047 
Q 2441 4250 2034 4250 
Q 1625 4250 1398 4047 
Q 1172 3844 1172 3481 
z
" transform="scale(0.015625)"/>
       </defs>
       <use xlink:href="#DejaVuSans-38"/>
       <use xlink:href="#DejaVuSans-30" transform="translate(63.623047 0)"/>
      </g>
     </g>
    </g>
    <g id="xtick_6">
     <g id="line2d_11">
      <path d="M 336.433355 299.518125 
L 336.433355 22.318125 
" clip-path="url(#p448d5b876f)" style="fill: none; stroke-dasharray: 1.85,0.8; stroke-dashoffset: 0; stroke: #b0b0b0; stroke-opacity: 0.6; stroke-width: 0.5"/>
     </g>
     <g id="line2d_12">
      <g>
       <use xlink:href="#meb2f1065e0" x="336.433355" y="299.518125" style="stroke: #000000; stroke-width: 0.8"/>
      </g>
     </g>
     <g id="text_6">
      <!-- 100 -->
      <g transform="translate(326.889605 314.116563) scale(0.1 -0.1)">
       <defs>
        <path id="DejaVuSans-31" d="M 794 531 
L 1825 531 
L 1825 4091 
L 703 3866 
L 703 4441 
L 1819 4666 
L 2450 4666 
L 2450 531 
L 3481 531 
L 3481 0 
L 794 0 
L 794 531 
z
" transform="scale(0.015625)"/>
       </defs>
       <use xlink:href="#DejaVuSans-31"/>
       <use xlink:href="#DejaVuSans-30" transform="translate(63.623047 0)"/>
       <use xlink:href="#DejaVuSans-30" transform="translate(127.246094 0)"/>
      </g>
     </g>
    </g>
    <g id="xtick_7">
     <g id="line2d_13">
      <path d="M 390.905594 299.518125 
L 390.905594 22.318125 
" clip-path="url(#p448d5b876f)" style="fill: none; stroke-dasharray: 1.85,0.8; stroke-dashoffset: 0; stroke: #b0b0b0; stroke-opacity: 0.6; stroke-width: 0.5"/>
     </g>
     <g id="line2d_14">
      <g>
       <use xlink:href="#meb2f1065e0" x="390.905594" y="299.518125" style="stroke: #000000; stroke-width: 0.8"/>
      </g>
     </g>
     <g id="text_7">
      <!-- 120 -->
      <g transform="translate(381.361844 314.116563) scale(0.1 -0.1)">
       <use xlink:href="#DejaVuSans-31"/>
       <use xlink:href="#DejaVuSans-32" transform="translate(63.623047 0)"/>
       <use xlink:href="#DejaVuSans-30" transform="translate(127.246094 0)"/>
      </g>
     </g>
    </g>
    <g id="xtick_8">
     <g id="line2d_15">
      <path d="M 445.377833 299.518125 
L 445.377833 22.318125 
" clip-path="url(#p448d5b876f)" style="fill: none; stroke-dasharray: 1.85,0.8; stroke-dashoffset: 0; stroke: #b0b0b0; stroke-opacity: 0.6; stroke-width: 0.5"/>
     </g>
     <g id="line2d_16">
      <g>
       <use xlink:href="#meb2f1065e0" x="445.377833" y="299.518125" style="stroke: #000000; stroke-width: 0.8"/>
      </g>
     </g>
     <g id="text_8">
      <!-- 140 -->
      <g transform="translate(435.834083 314.116563) scale(0.1 -0.1)">
       <use xlink:href="#DejaVuSans-31"/>
       <use xlink:href="#DejaVuSans-34" transform="translate(63.623047 0)"/>
       <use xlink:href="#DejaVuSans-30" transform="translate(127.246094 0)"/>
      </g>
     </g>
    </g>
    <g id="text_9">
     <!-- Simulation Day -->
     <g transform="translate(228.885937 327.794688) scale(0.1 -0.1)">
      <defs>
       <path id="DejaVuSans-53" d="M 3425 4513 
L 3425 3897 
Q 3066 4069 2747 4153 
Q 2428 4238 2131 4238 
Q 1616 4238 1336 4038 
Q 1056 3838 1056 3469 
Q 1056 3159 1242 3001 
Q 1428 2844 1947 2747 
L 2328 2669 
Q 3034 2534 3370 2195 
Q 3706 1856 3706 1288 
Q 3706 609 3251 259 
Q 2797 -91 1919 -91 
Q 1588 -91 1214 -16 
Q 841 59 441 206 
L 441 856 
Q 825 641 1194 531 
Q 1563 422 1919 422 
Q 2459 422 2753 634 
Q 3047 847 3047 1241 
Q 3047 1584 2836 1778 
Q 2625 1972 2144 2069 
L 1759 2144 
Q 1053 2284 737 2584 
Q 422 2884 422 3419 
Q 422 4038 858 4394 
Q 1294 4750 2059 4750 
Q 2388 4750 2728 4690 
Q 3069 4631 3425 4513 
z
" transform="scale(0.015625)"/>
       <path id="DejaVuSans-69" d="M 603 3500 
L 1178 3500 
L 1178 0 
L 603 0 
L 603 3500 
z
M 603 4863 
L 1178 4863 
L 1178 4134 
L 603 4134 
L 603 4863 
z
" transform="scale(0.015625)"/>
       <path id="DejaVuSans-6d" d="M 3328 2828 
Q 3544 3216 3844 3400 
Q 4144 3584 4550 3584 
Q 5097 3584 5394 3201 
Q 5691 2819 5691 2113 
L 5691 0 
L 5113 0 
L 5113 2094 
Q 5113 2597 4934 2840 
Q 4756 3084 4391 3084 
Q 3944 3084 3684 2787 
Q 3425 2491 3425 1978 
L 3425 0 
L 2847 0 
L 2847 2094 
Q 2847 2600 2669 2842 
Q 2491 3084 2119 3084 
Q 1678 3084 1418 2786 
Q 1159 2488 1159 1978 
L 1159 0 
L 581 0 
L 581 3500 
L 1159 3500 
L 1159 2956 
Q 1356 3278 1631 3431 
Q 1906 3584 2284 3584 
Q 2666 3584 2933 3390 
Q 3200 3197 3328 2828 
z
" transform="scale(0.015625)"/>
       <path id="DejaVuSans-75" d="M 544 1381 
L 544 3500 
L 1119 3500 
L 1119 1403 
Q 1119 906 1312 657 
Q 1506 409 1894 409 
Q 2359 409 2629 706 
Q 2900 1003 2900 1516 
L 2900 3500 
L 3475 3500 
L 3475 0 
L 2900 0 
L 2900 538 
Q 2691 219 2414 64 
Q 2138 -91 1772 -91 
Q 1169 -91 856 284 
Q 544 659 544 1381 
z
M 1991 3584 
L 1991 3584 
z
" transform="scale(0.015625)"/>
       <path id="DejaVuSans-6c" d="M 603 4863 
L 1178 4863 
L 1178 0 
L 603 0 
L 603 4863 
z
" transform="scale(0.015625)"/>
       <path id="DejaVuSans-61" d="M 2194 1759 
Q 1497 1759 1228 1600 
Q 959 1441 959 1056 
Q 959 750 1161 570 
Q 1363 391 1709 391 
Q 2188 391 2477 730 
Q 2766 1069 2766 1631 
L 2766 1759 
L 2194 1759 
z
M 3341 1997 
L 3341 0 
L 2766 0 
L 2766 531 
Q 2569 213 2275 61 
Q 1981 -91 1556 -91 
Q 1019 -91 701 211 
Q 384 513 384 1019 
Q 384 1609 779 1909 
Q 1175 2209 1959 2209 
L 2766 2209 
L 2766 2266 
Q 2766 2663 2505 2880 
Q 2244 3097 1772 3097 
Q 1472 3097 1187 3025 
Q 903 2953 641 2809 
L 641 3341 
Q 956 3463 1253 3523 
Q 1550 3584 1831 3584 
Q 2591 3584 2966 3190 
Q 3341 2797 3341 1997 
z
" transform="scale(0.015625)"/>
       <path id="DejaVuSans-74" d="M 1172 4494 
L 1172 3500 
L 2356 3500 
L 2356 3053 
L 1172 3053 
L 1172 1153 
Q 1172 725 1289 603 
Q 1406 481 1766 481 
L 2356 481 
L 2356 0 
L 1766 0 
Q 1100 0 847 248 
Q 594 497 594 1153 
L 594 3053 
L 172 3053 
L 172 3500 
L 594 3500 
L 594 4494 
L 1172 4494 
z
" transform="scale(0.015625)"/>
       <path id="DejaVuSans-6f" d="M 1959 3097 
Q 1497 3097 1228 2736 
Q 959 2375 959 1747 
Q 959 1119 1226 758 
Q 1494 397 1959 397 
Q 2419 397 2687 759 
Q 2956 1122 2956 1747 
Q 2956 2369 2687 2733 
Q 2419 3097 1959 3097 
z
M 1959 3584 
Q 2709 3584 3137 3096 
Q 3566 2609 3566 1747 
Q 3566 888 3137 398 
Q 2709 -91 1959 -91 
Q 1206 -91 779 398 
Q 353 888 353 1747 
Q 353 2609 779 3096 
Q 1206 3584 1959 3584 
z
" transform="scale(0.015625)"/>
       <path id="DejaVuSans-6e" d="M 3513 2113 
L 3513 0 
L 2938 0 
L 2938 2094 
Q 2938 2591 2744 2837 
Q 2550 3084 2163 3084 
Q 1697 3084 1428 2787 
Q 1159 2491 1159 1978 
L 1159 0 
L 581 0 
L 581 3500 
L 1159 3500 
L 1159 2956 
Q 1366 3272 1645 3428 
Q 1925 3584 2291 3584 
Q 2894 3584 3203 3211 
Q 3513 2838 3513 2113 
z
" transform="scale(0.015625)"/>
       <path id="DejaVuSans-20" transform="scale(0.015625)"/>
       <path id="DejaVuSans-44" d="M 1259 4147 
L 1259 519 
L 2022 519 
Q 2988 519 3436 956 
Q 3884 1394 3884 2338 
Q 3884 3275 3436 3711 
Q 2988 4147 2022 4147 
L 1259 4147 
z
M 628 4666 
L 1925 4666 
Q 3281 4666 3915 4102 
Q 4550 3538 4550 2338 
Q 4550 1131 3912 565 
Q 3275 0 1925 0 
L 628 0 
L 628 4666 
z
" transform="scale(0.015625)"/>
       <path id="DejaVuSans-79" d="M 2059 -325 
Q 1816 -950 1584 -1140 
Q 1353 -1331 966 -1331 
L 506 -1331 
L 506 -850 
L 844 -850 
Q 1081 -850 1212 -737 
Q 1344 -625 1503 -206 
L 1606 56 
L 191 3500 
L 800 3500 
L 1894 763 
L 2988 3500 
L 3597 3500 
L 2059 -325 
z
" transform="scale(0.015625)"/>
      </defs>
      <use xlink:href="#DejaVuSans-53"/>
      <use xlink:href="#DejaVuSans-69" transform="translate(63.476562 0)"/>
      <use xlink:href="#DejaVuSans-6d" transform="translate(91.259766 0)"/>
      <use xlink:href="#DejaVuSans-75" transform="translate(188.671875 0)"/>
      <use xlink:href="#DejaVuSans-6c" transform="translate(252.050781 0)"/>
      <use xlink:href="#DejaVuSans-61" transform="translate(279.833984 0)"/>
      <use xlink:href="#DejaVuSans-74" transform="translate(341.113281 0)"/>
      <use xlink:href="#DejaVuSans-69" transform="translate(380.322266 0)"/>
      <use xlink:href="#DejaVuSans-6f" transform="translate(408.105469 0)"/>
      <use xlink:href="#DejaVuSans-6e" transform="translate(469.287109 0)"/>
      <use xlink:href="#DejaVuSans-20" transform="translate(532.666016 0)"/>
      <use xlink:href="#DejaVuSans-44" transform="translate(564.453125 0)"/>
      <use xlink:href="#DejaVuSans-61" transform="translate(641.455078 0)"/>
      <use xlink:href="#DejaVuSans-79" transform="translate(702.734375 0)"/>
     </g>
    </g>
   </g>
   <g id="matplotlib.axis_2">
    <g id="ytick_1">
     <g id="line2d_17">
      <path d="M 43.78125 286.918125 
L 490.18125 286.918125 
" clip-path="url(#p448d5b876f)" style="fill: none; stroke-dasharray: 1.85,0.8; stroke-dashoffset: 0; stroke: #b0b0b0; stroke-opacity: 0.6; stroke-width: 0.5"/>
     </g>
     <g id="line2d_18">
      <defs>
       <path id="m842220f174" d="M 0 0 
L -3.5 0 
" style="stroke: #000000; stroke-width: 0.8"/>
      </defs>
      <g>
       <use xlink:href="#m842220f174" x="43.78125" y="286.918125" style="stroke: #000000; stroke-width: 0.8"/>
      </g>
     </g>
     <g id="text_10">
      <!-- 0.0 -->
      <g transform="translate(20.878125 290.717344) scale(0.1 -0.1)">
       <defs>
        <path id="DejaVuSans-2e" d="M 684 794 
L 1344 794 
L 1344 0 
L 684 0 
L 684 794 
z
" transform="scale(0.015625)"/>
       </defs>
       <use xlink:href="#DejaVuSans-30"/>
       <use xlink:href="#DejaVuSans-2e" transform="translate(63.623047 0)"/>
       <use xlink:href="#DejaVuSans-30" transform="translate(95.410156 0)"/>
      </g>
     </g>
    </g>
    <g id="ytick_2">
     <g id="line2d_19">
      <path d="M 43.78125 243.644152 
L 490.18125 243.644152 
" clip-path="url(#p448d5b876f)" style="fill: none; stroke-dasharray: 1.85,0.8; stroke-dashoffset: 0; stroke: #b0b0b0; stroke-opacity: 0.6; stroke-width: 0.5"/>
     </g>
     <g id="line2d_20">
      <g>
       <use xlink:href="#m842220f174" x="43.78125" y="243.644152" style="stroke: #000000; stroke-width: 0.8"/>
      </g>
     </g>
     <g id="text_11">
      <!-- 0.1 -->
      <g transform="translate(20.878125 247.443371) scale(0.1 -0.1)">
       <use xlink:href="#DejaVuSans-30"/>
       <use xlink:href="#DejaVuSans-2e" transform="translate(63.623047 0)"/>
       <use xlink:href="#DejaVuSans-31" transform="translate(95.410156 0)"/>
      </g>
     </g>
    </g>
    <g id="ytick_3">
     <g id="line2d_21">
      <path d="M 43.78125 200.37018 
L 490.18125 200.37018 
" clip-path="url(#p448d5b876f)" style="fill: none; stroke-dasharray: 1.85,0.8; stroke-dashoffset: 0; stroke: #b0b0b0; stroke-opacity: 0.6; stroke-width: 0.5"/>
     </g>
     <g id="line2d_22">
      <g>
       <use xlink:href="#m842220f174" x="43.78125" y="200.37018" style="stroke: #000000; stroke-width: 0.8"/>
      </g>
     </g>
     <g id="text_12">
      <!-- 0.2 -->
      <g transform="translate(20.878125 204.169399) scale(0.1 -0.1)">
       <use xlink:href="#DejaVuSans-30"/>
       <use xlink:href="#DejaVuSans-2e" transform="translate(63.623047 0)"/>
       <use xlink:href="#DejaVuSans-32" transform="translate(95.410156 0)"/>
      </g>
     </g>
    </g>
    <g id="ytick_4">
     <g id="line2d_23">
      <path d="M 43.78125 157.096207 
L 490.18125 157.096207 
" clip-path="url(#p448d5b876f)" style="fill: none; stroke-dasharray: 1.85,0.8; stroke-dashoffset: 0; stroke: #b0b0b0; stroke-opacity: 0.6; stroke-width: 0.5"/>
     </g>
     <g id="line2d_24">
      <g>
       <use xlink:href="#m842220f174" x="43.78125" y="157.096207" style="stroke: #000000; stroke-width: 0.8"/>
      </g>
     </g>
     <g id="text_13">
      <!-- 0.3 -->
      <g transform="translate(20.878125 160.895426) scale(0.1 -0.1)">
       <defs>
        <path id="DejaVuSans-33" d="M 2597 2516 
Q 3050 2419 3304 2112 
Q 3559 1806 3559 1356 
Q 3559 666 3084 287 
Q 2609 -91 1734 -91 
Q 1441 -91 1130 -33 
Q 819 25 488 141 
L 488 750 
Q 750 597 1062 519 
Q 1375 441 1716 441 
Q 2309 441 2620 675 
Q 2931 909 2931 1356 
Q 2931 1769 2642 2001 
Q 2353 2234 1838 2234 
L 1294 2234 
L 1294 2753 
L 1863 2753 
Q 2328 2753 2575 2939 
Q 2822 3125 2822 3475 
Q 2822 3834 2567 4026 
Q 2313 4219 1838 4219 
Q 1578 4219 1281 4162 
Q 984 4106 628 3988 
L 628 4550 
Q 988 4650 1302 4700 
Q 1616 4750 1894 4750 
Q 2613 4750 3031 4423 
Q 3450 4097 3450 3541 
Q 3450 3153 3228 2886 
Q 3006 2619 2597 2516 
z
" transform="scale(0.015625)"/>
       </defs>
       <use xlink:href="#DejaVuSans-30"/>
       <use xlink:href="#DejaVuSans-2e" transform="translate(63.623047 0)"/>
       <use xlink:href="#DejaVuSans-33" transform="translate(95.410156 0)"/>
      </g>
     </g>
    </g>
    <g id="ytick_5">
     <g id="line2d_25">
      <path d="M 43.78125 113.822235 
L 490.18125 113.822235 
" clip-path="url(#p448d5b876f)" style="fill: none; stroke-dasharray: 1.85,0.8; stroke-dashoffset: 0; stroke: #b0b0b0; stroke-opacity: 0.6; stroke-width: 0.5"/>
     </g>
     <g id="line2d_26">
      <g>
       <use xlink:href="#m842220f174" x="43.78125" y="113.822235" style="stroke: #000000; stroke-width: 0.8"/>
      </g>
     </g>
     <g id="text_14">
      <!-- 0.4 -->
      <g transform="translate(20.878125 117.621453) scale(0.1 -0.1)">
       <use xlink:href="#DejaVuSans-30"/>
       <use xlink:href="#DejaVuSans-2e" transform="translate(63.623047 0)"/>
       <use xlink:href="#DejaVuSans-34" transform="translate(95.410156 0)"/>
      </g>
     </g>
    </g>
    <g id="ytick_6">
     <g id="line2d_27">
      <path d="M 43.78125 70.548262 
L 490.18125 70.548262 
" clip-path="url(#p448d5b876f)" style="fill: none; stroke-dasharray: 1.85,0.8; stroke-dashoffset: 0; stroke: #b0b0b0; stroke-opacity: 0.6; stroke-width: 0.5"/>
     </g>
     <g id="line2d_28">
      <g>
       <use xlink:href="#m842220f174" x="43.78125" y="70.548262" style="stroke: #000000; stroke-width: 0.8"/>
      </g>
     </g>
     <g id="text_15">
      <!-- 0.5 -->
      <g transform="translate(20.878125 74.347481) scale(0.1 -0.1)">
       <defs>
        <path id="DejaVuSans-35" d="M 691 4666 
L 3169 4666 
L 3169 4134 
L 1269 4134 
L 1269 2991 
Q 1406 3038 1543 3061 
Q 1681 3084 1819 3084 
Q 2600 3084 3056 2656 
Q 3513 2228 3513 1497 
Q 3513 744 3044 326 
Q 2575 -91 1722 -91 
Q 1428 -91 1123 -41 
Q 819 9 494 109 
L 494 744 
Q 775 591 1075 516 
Q 1375 441 1709 441 
Q 2250 441 2565 725 
Q 2881 1009 2881 1497 
Q 2881 1984 2565 2268 
Q 2250 2553 1709 2553 
Q 1456 2553 1204 2497 
Q 953 2441 691 2322 
L 691 4666 
z
" transform="scale(0.015625)"/>
       </defs>
       <use xlink:href="#DejaVuSans-30"/>
       <use xlink:href="#DejaVuSans-2e" transform="translate(63.623047 0)"/>
       <use xlink:href="#DejaVuSans-35" transform="translate(95.410156 0)"/>
      </g>
     </g>
    </g>
    <g id="ytick_7">
     <g id="line2d_29">
      <path d="M 43.78125 27.274289 
L 490.18125 27.274289 
" clip-path="url(#p448d5b876f)" style="fill: none; stroke-dasharray: 1.85,0.8; stroke-dashoffset: 0; stroke: #b0b0b0; stroke-opacity: 0.6; stroke-width: 0.5"/>
     </g>
     <g id="line2d_30">
      <g>
       <use xlink:href="#m842220f174" x="43.78125" y="27.274289" style="stroke: #000000; stroke-width: 0.8"/>
      </g>
     </g>
     <g id="text_16">
      <!-- 0.6 -->
      <g transform="translate(20.878125 31.073508) scale(0.1 -0.1)">
       <use xlink:href="#DejaVuSans-30"/>
       <use xlink:href="#DejaVuSans-2e" transform="translate(63.623047 0)"/>
       <use xlink:href="#DejaVuSans-36" transform="translate(95.410156 0)"/>
      </g>
     </g>
    </g>
    <g id="text_17">
     <!-- Detection Ratio (Efficiency) -->
     <g transform="translate(14.798438 229.282969) rotate(-90) scale(0.1 -0.1)">
      <defs>
       <path id="DejaVuSans-65" d="M 3597 1894 
L 3597 1613 
L 953 1613 
Q 991 1019 1311 708 
Q 1631 397 2203 397 
Q 2534 397 2845 478 
Q 3156 559 3463 722 
L 3463 178 
Q 3153 47 2828 -22 
Q 2503 -91 2169 -91 
Q 1331 -91 842 396 
Q 353 884 353 1716 
Q 353 2575 817 3079 
Q 1281 3584 2069 3584 
Q 2775 3584 3186 3129 
Q 3597 2675 3597 1894 
z
M 3022 2063 
Q 3016 2534 2758 2815 
Q 2500 3097 2075 3097 
Q 1594 3097 1305 2825 
Q 1016 2553 972 2059 
L 3022 2063 
z
" transform="scale(0.015625)"/>
       <path id="DejaVuSans-63" d="M 3122 3366 
L 3122 2828 
Q 2878 2963 2633 3030 
Q 2388 3097 2138 3097 
Q 1578 3097 1268 2742 
Q 959 2388 959 1747 
Q 959 1106 1268 751 
Q 1578 397 2138 397 
Q 2388 397 2633 464 
Q 2878 531 3122 666 
L 3122 134 
Q 2881 22 2623 -34 
Q 2366 -91 2075 -91 
Q 1284 -91 818 406 
Q 353 903 353 1747 
Q 353 2603 823 3093 
Q 1294 3584 2113 3584 
Q 2378 3584 2631 3529 
Q 2884 3475 3122 3366 
z
" transform="scale(0.015625)"/>
       <path id="DejaVuSans-52" d="M 2841 2188 
Q 3044 2119 3236 1894 
Q 3428 1669 3622 1275 
L 4263 0 
L 3584 0 
L 2988 1197 
Q 2756 1666 2539 1819 
Q 2322 1972 1947 1972 
L 1259 1972 
L 1259 0 
L 628 0 
L 628 4666 
L 2053 4666 
Q 2853 4666 3247 4331 
Q 3641 3997 3641 3322 
Q 3641 2881 3436 2590 
Q 3231 2300 2841 2188 
z
M 1259 4147 
L 1259 2491 
L 2053 2491 
Q 2509 2491 2742 2702 
Q 2975 2913 2975 3322 
Q 2975 3731 2742 3939 
Q 2509 4147 2053 4147 
L 1259 4147 
z
" transform="scale(0.015625)"/>
       <path id="DejaVuSans-28" d="M 1984 4856 
Q 1566 4138 1362 3434 
Q 1159 2731 1159 2009 
Q 1159 1288 1364 580 
Q 1569 -128 1984 -844 
L 1484 -844 
Q 1016 -109 783 600 
Q 550 1309 550 2009 
Q 550 2706 781 3412 
Q 1013 4119 1484 4856 
L 1984 4856 
z
" transform="scale(0.015625)"/>
       <path id="DejaVuSans-45" d="M 628 4666 
L 3578 4666 
L 3578 4134 
L 1259 4134 
L 1259 2753 
L 3481 2753 
L 3481 2222 
L 1259 2222 
L 1259 531 
L 3634 531 
L 3634 0 
L 628 0 
L 628 4666 
z
" transform="scale(0.015625)"/>
       <path id="DejaVuSans-66" d="M 2375 4863 
L 2375 4384 
L 1825 4384 
Q 1516 4384 1395 4259 
Q 1275 4134 1275 3809 
L 1275 3500 
L 2222 3500 
L 2222 3053 
L 1275 3053 
L 1275 0 
L 697 0 
L 697 3053 
L 147 3053 
L 147 3500 
L 697 3500 
L 697 3744 
Q 697 4328 969 4595 
Q 1241 4863 1831 4863 
L 2375 4863 
z
" transform="scale(0.015625)"/>
       <path id="DejaVuSans-29" d="M 513 4856 
L 1013 4856 
Q 1481 4119 1714 3412 
Q 1947 2706 1947 2009 
Q 1947 1309 1714 600 
Q 1481 -109 1013 -844 
L 513 -844 
Q 928 -128 1133 580 
Q 1338 1288 1338 2009 
Q 1338 2731 1133 3434 
Q 928 4138 513 4856 
z
" transform="scale(0.015625)"/>
      </defs>
      <use xlink:href="#DejaVuSans-44"/>
      <use xlink:href="#DejaVuSans-65" transform="translate(77.001953 0)"/>
      <use xlink:href="#DejaVuSans-74" transform="translate(138.525391 0)"/>
      <use xlink:href="#DejaVuSans-65" transform="translate(177.734375 0)"/>
      <use xlink:href="#DejaVuSans-63" transform="translate(239.257812 0)"/>
      <use xlink:href="#DejaVuSans-74" transform="translate(294.238281 0)"/>
      <use xlink:href="#DejaVuSans-69" transform="translate(333.447266 0)"/>
      <use xlink:href="#DejaVuSans-6f" transform="translate(361.230469 0)"/>
      <use xlink:href="#DejaVuSans-6e" transform="translate(422.412109 0)"/>
      <use xlink:href="#DejaVuSans-20" transform="translate(485.791016 0)"/>
      <use xlink:href="#DejaVuSans-52" transform="translate(517.578125 0)"/>
      <use xlink:href="#DejaVuSans-61" transform="translate(584.810547 0)"/>
      <use xlink:href="#DejaVuSans-74" transform="translate(646.089844 0)"/>
      <use xlink:href="#DejaVuSans-69" transform="translate(685.298828 0)"/>
      <use xlink:href="#DejaVuSans-6f" transform="translate(713.082031 0)"/>
      <use xlink:href="#DejaVuSans-20" transform="translate(774.263672 0)"/>
      <use xlink:href="#DejaVuSans-28" transform="translate(806.050781 0)"/>
      <use xlink:href="#DejaVuSans-45" transform="translate(845.064453 0)"/>
      <use xlink:href="#DejaVuSans-66" transform="translate(908.248047 0)"/>
      <use xlink:href="#DejaVuSans-66" transform="translate(943.453125 0)"/>
      <use xlink:href="#DejaVuSans-69" transform="translate(978.658203 0)"/>
      <use xlink:href="#DejaVuSans-63" transform="translate(1006.441406 0)"/>
      <use xlink:href="#DejaVuSans-69" transform="translate(1061.421875 0)"/>
      <use xlink:href="#DejaVuSans-65" transform="translate(1089.205078 0)"/>
      <use xlink:href="#DejaVuSans-6e" transform="translate(1150.728516 0)"/>
      <use xlink:href="#DejaVuSans-63" transform="translate(1214.107422 0)"/>
      <use xlink:href="#DejaVuSans-79" transform="translate(1269.087891 0)"/>
      <use xlink:href="#DejaVuSans-29" transform="translate(1328.267578 0)"/>
     </g>
    </g>
   </g>
   <g id="line2d_31">
    <path d="M 64.072159 286.918125 
L 115.820786 286.918125 
L 118.544398 205.097589 
L 121.26801 184.205583 
L 123.991622 179.500463 
L 126.715234 175.476791 
L 129.438846 171.886046 
L 132.162458 152.346625 
L 134.88607 153.185148 
L 137.609682 145.885958 
L 140.333294 137.506711 
L 143.056906 139.46607 
L 148.50413 120.700217 
L 151.227742 114.197714 
L 153.951354 111.260562 
L 156.674966 110.520205 
L 159.398578 115.678038 
L 162.12219 125.351135 
L 164.845802 130.629186 
L 167.569414 126.842722 
L 170.293025 121.525455 
L 173.016637 110.123604 
L 175.740249 103.481809 
L 178.463861 102.357079 
L 181.187473 105.032209 
L 183.911085 100.898786 
L 186.634697 100.716774 
L 189.358309 98.908966 
L 192.081921 103.177978 
L 197.529145 96.847361 
L 200.252757 102.959942 
L 202.976369 107.517417 
L 205.699981 105.281319 
L 208.423593 106.195404 
L 211.147205 105.209454 
L 213.870817 111.736742 
L 216.594429 113.51713 
L 219.318041 118.298852 
L 222.041653 120.07292 
L 224.765265 116.4449 
L 227.488877 117.682776 
L 232.936101 112.561828 
L 235.659712 113.740739 
L 238.383324 108.965358 
L 241.106936 106.35047 
L 243.830548 103.515299 
L 246.55416 98.059207 
L 249.277772 102.34586 
L 252.001384 104.284298 
L 254.724996 103.689115 
L 257.448608 99.733034 
L 260.17222 100.843354 
L 262.895832 96.126558 
L 265.619444 96.512646 
L 268.343056 94.070112 
L 271.066668 92.783294 
L 273.79028 96.056498 
L 276.513892 95.048533 
L 279.237504 93.261121 
L 281.961116 88.530744 
L 284.684728 90.556043 
L 290.131952 85.591521 
L 292.855564 84.991436 
L 295.579176 85.67611 
L 298.302788 80.91832 
L 301.026399 79.599027 
L 303.750011 78.135257 
L 306.473623 73.898505 
L 309.197235 73.607476 
L 311.920847 75.21614 
L 314.644459 78.352648 
L 320.091683 75.321127 
L 322.815295 69.758591 
L 325.538907 70.680923 
L 328.262519 75.269059 
L 330.986131 79.379685 
L 333.709743 79.843387 
L 336.433355 83.545745 
L 341.880579 81.650478 
L 344.604191 84.582404 
L 347.327803 88.99093 
L 350.051415 89.998596 
L 352.775027 84.46118 
L 355.498639 86.414602 
L 358.222251 84.97292 
L 360.945863 82.892291 
L 363.669475 80.215852 
L 366.393086 81.753749 
L 369.116698 81.69424 
L 371.84031 80.731719 
L 374.563922 78.936472 
L 377.287534 81.948271 
L 380.011146 81.608702 
L 382.734758 77.64045 
L 385.45837 72.879834 
L 388.181982 73.293164 
L 390.905594 74.577055 
L 393.629206 71.856711 
L 396.352818 73.178172 
L 399.07643 75.105942 
L 404.523654 69.709154 
L 407.247266 68.967144 
L 409.970878 70.063128 
L 412.69449 69.20435 
L 415.418102 69.096115 
L 418.141714 73.677081 
L 420.865326 74.499676 
L 423.588938 73.932819 
L 426.31255 69.57908 
L 429.036162 69.576905 
L 431.759773 67.868005 
L 434.483385 66.632065 
L 437.206997 62.842608 
L 439.930609 67.731903 
L 442.654221 65.849945 
L 445.377833 60.878802 
L 448.101445 55.511958 
L 450.825057 53.507199 
L 453.548669 55.594259 
L 456.272281 50.731209 
L 458.995893 51.91679 
L 461.719505 53.548744 
L 464.443117 48.569998 
L 467.166729 48.39155 
L 469.890341 48.068276 
L 469.890341 48.068276 
" clip-path="url(#p448d5b876f)" style="fill: none; stroke: #1f77b4; stroke-width: 1.5; stroke-linecap: square"/>
   </g>
   <g id="line2d_32">
    <path d="M 64.072159 286.918125 
L 115.820786 286.918125 
L 118.544398 217.75071 
L 121.26801 183.060591 
L 123.991622 161.390571 
L 126.715234 163.945325 
L 129.438846 158.306668 
L 132.162458 146.455066 
L 134.88607 143.123733 
L 137.609682 146.467512 
L 140.333294 141.064345 
L 143.056906 137.617087 
L 145.780518 142.297854 
L 148.50413 132.910503 
L 151.227742 128.801687 
L 153.951354 126.014901 
L 156.674966 132.712432 
L 159.398578 127.53647 
L 162.12219 135.859083 
L 164.845802 136.02291 
L 167.569414 139.336369 
L 170.293025 136.848752 
L 173.016637 125.402593 
L 175.740249 123.742182 
L 178.463861 126.385646 
L 181.187473 123.052232 
L 183.911085 116.168414 
L 186.634697 117.638716 
L 189.358309 106.253867 
L 192.081921 103.003741 
L 194.805533 107.432789 
L 197.529145 103.505261 
L 200.252757 101.298501 
L 202.976369 97.798874 
L 205.699981 104.32307 
L 208.423593 105.614206 
L 213.870817 113.330485 
L 216.594429 114.974926 
L 219.318041 113.25284 
L 222.041653 111.320313 
L 224.765265 113.123563 
L 227.488877 109.810643 
L 232.936101 108.151002 
L 235.659712 111.192325 
L 238.383324 107.377175 
L 241.106936 102.459589 
L 249.277772 86.609078 
L 252.001384 89.649935 
L 254.724996 90.598652 
L 257.448608 93.860258 
L 260.17222 88.708802 
L 262.895832 94.855636 
L 265.619444 93.422132 
L 268.343056 99.2521 
L 271.066668 98.812794 
L 273.79028 96.656239 
L 276.513892 97.614514 
L 279.237504 93.173093 
L 281.961116 92.153936 
L 284.684728 88.074996 
L 287.40834 87.073298 
L 290.131952 80.411276 
L 292.855564 80.707183 
L 295.579176 79.311846 
L 298.302788 78.561961 
L 301.026399 78.584007 
L 303.750011 76.541887 
L 306.473623 74.926996 
L 309.197235 69.811809 
L 311.920847 67.920288 
L 314.644459 63.749755 
L 317.368071 64.870047 
L 320.091683 64.26366 
L 322.815295 60.038869 
L 325.538907 60.756341 
L 328.262519 58.959854 
L 330.986131 62.226344 
L 333.709743 64.901025 
L 336.433355 65.889965 
L 339.156967 65.231653 
L 341.880579 68.091375 
L 344.604191 70.548262 
L 347.327803 72.524242 
L 350.051415 73.693654 
L 352.775027 75.96983 
L 355.498639 77.014488 
L 358.222251 77.602018 
L 360.945863 76.926512 
L 363.669475 73.987904 
L 366.393086 79.695335 
L 369.116698 75.510874 
L 374.563922 70.714828 
L 377.287534 70.548262 
L 380.011146 76.096207 
L 382.734758 75.809535 
L 388.181982 71.040384 
L 390.905594 66.422216 
L 393.629206 64.281452 
L 396.352818 64.011914 
L 399.07643 59.813633 
L 401.800042 56.213548 
L 404.523654 52.968211 
L 407.247266 52.745678 
L 409.970878 57.841102 
L 412.69449 60.705133 
L 415.418102 62.937262 
L 418.141714 65.422749 
L 420.865326 64.630454 
L 423.588938 70.732721 
L 426.31255 66.687797 
L 429.036162 64.440302 
L 431.759773 58.222196 
L 434.483385 57.912106 
L 437.206997 62.461512 
L 439.930609 61.106668 
L 442.654221 61.174838 
L 445.377833 56.389497 
L 448.101445 59.472657 
L 450.825057 58.361224 
L 453.548669 58.516385 
L 456.272281 54.289255 
L 458.995893 54.747152 
L 461.719505 58.123062 
L 464.443117 63.117378 
L 467.166729 64.819528 
L 469.890341 62.716881 
L 469.890341 62.716881 
" clip-path="url(#p448d5b876f)" style="fill: none; stroke: #ff7f0e; stroke-width: 1.5; stroke-linecap: square"/>
   </g>
   <g id="line2d_33">
    <path d="M 64.072159 286.918125 
L 115.820786 286.918125 
L 118.544398 255.635735 
L 121.26801 239.624166 
L 123.991622 228.204695 
L 126.715234 219.176159 
L 129.438846 214.952656 
L 132.162458 211.077142 
L 134.88607 194.308456 
L 137.609682 188.497176 
L 140.333294 184.967579 
L 143.056906 182.7017 
L 145.780518 184.427137 
L 148.50413 188.283115 
L 151.227742 189.673243 
L 153.951354 189.526586 
L 156.674966 188.481726 
L 159.398578 189.057897 
L 162.12219 194.872428 
L 167.569414 204.890797 
L 170.293025 206.944299 
L 173.016637 198.388654 
L 175.740249 192.599254 
L 178.463861 191.186636 
L 181.187473 192.337287 
L 183.911085 187.707059 
L 186.634697 185.843664 
L 189.358309 183.683558 
L 192.081921 181.908876 
L 194.805533 181.296817 
L 197.529145 185.085689 
L 200.252757 185.107726 
L 202.976369 184.19008 
L 205.699981 186.827547 
L 213.870817 189.71057 
L 216.594429 188.776703 
L 219.318041 189.53818 
L 222.041653 188.043654 
L 224.765265 188.991567 
L 227.488877 184.683519 
L 230.212489 182.935716 
L 232.936101 178.063047 
L 238.383324 176.303013 
L 241.106936 175.782695 
L 243.830548 176.873975 
L 246.55416 171.273988 
L 249.277772 170.170294 
L 252.001384 171.349347 
L 254.724996 168.484095 
L 257.448608 164.87872 
L 260.17222 162.86607 
L 262.895832 161.806299 
L 265.619444 159.934324 
L 268.343056 158.770211 
L 271.066668 155.723801 
L 273.79028 154.108472 
L 276.513892 151.789294 
L 279.237504 152.410122 
L 281.961116 150.644171 
L 284.684728 145.919615 
L 287.40834 138.555819 
L 290.131952 133.647845 
L 292.855564 129.549048 
L 295.579176 128.317651 
L 298.302788 121.942529 
L 303.750011 117.32949 
L 306.473623 113.800608 
L 309.197235 107.868506 
L 311.920847 104.411934 
L 314.644459 101.523077 
L 317.368071 99.647272 
L 320.091683 92.368562 
L 322.815295 88.442602 
L 325.538907 83.539156 
L 328.262519 82.224961 
L 330.986131 77.093025 
L 333.709743 74.49442 
L 336.433355 73.654049 
L 339.156967 73.741651 
L 341.880579 74.716252 
L 344.604191 68.575746 
L 347.327803 59.721924 
L 350.051415 57.383541 
L 352.775027 57.988092 
L 355.498639 57.175164 
L 358.222251 51.702571 
L 360.945863 49.414461 
L 363.669475 45.358374 
L 366.393086 45.172745 
L 369.116698 38.485999 
L 371.84031 40.02784 
L 374.563922 40.829476 
L 377.287534 39.544044 
L 380.011146 37.523388 
L 382.734758 36.603364 
L 385.45837 36.095981 
L 388.181982 34.918125 
L 390.905594 36.039914 
L 396.352818 45.718933 
L 399.07643 47.603986 
L 401.800042 45.529637 
L 404.523654 50.519239 
L 407.247266 49.244598 
L 409.970878 51.22174 
L 415.418102 61.845452 
L 418.141714 65.808004 
L 420.865326 65.905132 
L 423.588938 69.454696 
L 426.31255 71.350226 
L 429.036162 70.38521 
L 431.759773 67.588796 
L 434.483385 69.028099 
L 437.206997 72.254649 
L 439.930609 73.130241 
L 442.654221 82.684392 
L 445.377833 84.926162 
L 448.101445 90.090211 
L 450.825057 92.079358 
L 453.548669 87.219676 
L 456.272281 86.300712 
L 458.995893 86.147446 
L 461.719505 89.984877 
L 464.443117 84.351167 
L 467.166729 80.869793 
L 469.890341 80.721167 
L 469.890341 80.721167 
" clip-path="url(#p448d5b876f)" style="fill: none; stroke: #2ca02c; stroke-width: 1.5; stroke-linecap: square"/>
   </g>
   <g id="line2d_34">
    <path d="M 64.072159 286.918125 
L 115.820786 286.918125 
L 118.544398 198.647833 
L 121.26801 156.676072 
L 123.991622 152.829759 
L 126.715234 156.695522 
L 129.438846 157.8554 
L 132.162458 159.430488 
L 134.88607 158.312745 
L 137.609682 154.512686 
L 140.333294 156.018208 
L 143.056906 154.772772 
L 145.780518 160.362167 
L 148.50413 158.88862 
L 151.227742 159.435341 
L 153.951354 163.917169 
L 156.674966 166.827675 
L 159.398578 163.417125 
L 162.12219 163.948702 
L 164.845802 171.6391 
L 170.293025 166.756277 
L 173.016637 161.379297 
L 175.740249 155.550708 
L 178.463861 155.126121 
L 181.187473 145.090318 
L 183.911085 148.467171 
L 186.634697 150.231214 
L 189.358309 143.257918 
L 192.081921 138.727307 
L 194.805533 133.507218 
L 197.529145 135.998221 
L 200.252757 131.171253 
L 202.976369 128.681079 
L 205.699981 133.115783 
L 208.423593 132.773702 
L 211.147205 130.896319 
L 213.870817 131.996502 
L 216.594429 126.062923 
L 219.318041 120.539158 
L 222.041653 118.672557 
L 224.765265 118.079894 
L 227.488877 115.246892 
L 230.212489 114.790023 
L 232.936101 108.953055 
L 235.659712 106.357726 
L 238.383324 110.022249 
L 241.106936 106.690943 
L 243.830548 106.052662 
L 246.55416 109.439279 
L 249.277772 107.947392 
L 252.001384 106.879571 
L 254.724996 111.598671 
L 257.448608 108.353699 
L 260.17222 110.626785 
L 262.895832 111.050995 
L 265.619444 106.65383 
L 268.343056 105.042008 
L 271.066668 106.159939 
L 273.79028 103.067756 
L 276.513892 105.078011 
L 279.237504 102.414769 
L 281.961116 101.285368 
L 284.684728 102.276147 
L 287.40834 102.898252 
L 290.131952 102.248695 
L 292.855564 99.990997 
L 295.579176 100.423599 
L 298.302788 98.994403 
L 301.026399 95.964538 
L 303.750011 93.707116 
L 306.473623 94.395771 
L 309.197235 95.26083 
L 311.920847 97.023002 
L 317.368071 94.289852 
L 320.091683 89.99377 
L 322.815295 89.223963 
L 325.538907 88.269984 
L 328.262519 89.492145 
L 330.986131 87.907449 
L 333.709743 92.647797 
L 336.433355 97.645429 
L 339.156967 96.86078 
L 341.880579 93.702233 
L 344.604191 93.219369 
L 350.051415 84.3336 
L 352.775027 84.052896 
L 355.498639 86.433145 
L 358.222251 83.11295 
L 360.945863 82.091935 
L 363.669475 81.821646 
L 366.393086 79.604689 
L 369.116698 74.582443 
L 371.84031 73.001435 
L 374.563922 72.349676 
L 377.287534 70.44823 
L 380.011146 69.340616 
L 382.734758 69.937048 
L 385.45837 71.165873 
L 388.181982 69.71205 
L 390.905594 68.541904 
L 393.629206 68.397468 
L 396.352818 68.464619 
L 399.07643 65.097299 
L 401.800042 68.774739 
L 404.523654 69.421336 
L 407.247266 69.174485 
L 409.970878 69.848036 
L 412.69449 69.733529 
L 415.418102 69.273453 
L 418.141714 70.198338 
L 420.865326 70.310231 
L 423.588938 68.846477 
L 426.31255 67.735087 
L 429.036162 68.949167 
L 431.759773 65.33752 
L 434.483385 63.252069 
L 437.206997 61.628421 
L 439.930609 60.946438 
L 442.654221 62.858647 
L 445.377833 62.287836 
L 448.101445 59.722917 
L 450.825057 61.346966 
L 453.548669 59.463445 
L 456.272281 58.478651 
L 458.995893 53.904426 
L 461.719505 54.890898 
L 464.443117 52.906956 
L 467.166729 53.904426 
L 469.890341 52.648288 
L 469.890341 52.648288 
" clip-path="url(#p448d5b876f)" style="fill: none; stroke: #d62728; stroke-width: 1.5; stroke-linecap: square"/>
   </g>
   <g id="line2d_35">
    <path d="M 64.072159 286.918125 
L 115.820786 286.918125 
L 118.544398 245.400661 
L 121.26801 225.515867 
L 123.991622 210.397076 
L 126.715234 200.60665 
L 129.438846 187.655662 
L 132.162458 173.983611 
L 134.88607 168.8982 
L 137.609682 168.724896 
L 143.056906 165.314907 
L 145.780518 172.506723 
L 148.50413 169.687631 
L 151.227742 170.016872 
L 153.951354 168.012164 
L 156.674966 170.668775 
L 159.398578 171.674523 
L 162.12219 179.40515 
L 164.845802 185.978836 
L 167.569414 189.30766 
L 170.293025 190.753741 
L 173.016637 187.832861 
L 175.740249 184.427137 
L 178.463861 184.763173 
L 181.187473 186.375771 
L 183.911085 188.450403 
L 186.634697 187.101505 
L 189.358309 187.4776 
L 192.081921 187.998402 
L 194.805533 188.909967 
L 197.529145 189.656601 
L 200.252757 190.806871 
L 202.976369 189.964256 
L 205.699981 190.029612 
L 208.423593 188.796908 
L 211.147205 191.409922 
L 213.870817 190.382366 
L 216.594429 191.513934 
L 219.318041 193.115102 
L 222.041653 194.405051 
L 224.765265 194.250277 
L 227.488877 189.097704 
L 232.936101 180.639901 
L 238.383324 173.348423 
L 241.106936 170.777825 
L 243.830548 167.938688 
L 246.55416 166.033922 
L 249.277772 161.634302 
L 252.001384 159.382379 
L 254.724996 155.704548 
L 257.448608 150.881152 
L 260.17222 147.490848 
L 262.895832 145.439136 
L 265.619444 145.724094 
L 268.343056 145.439136 
L 271.066668 141.459394 
L 273.79028 139.408303 
L 276.513892 139.997221 
L 279.237504 139.959511 
L 281.961116 132.186042 
L 284.684728 127.181985 
L 287.40834 123.342509 
L 290.131952 119.944597 
L 292.855564 119.124648 
L 295.579176 115.405429 
L 298.302788 113.047914 
L 303.750011 108.720686 
L 306.473623 104.844232 
L 311.920847 106.321655 
L 314.644459 106.041401 
L 317.368071 105.923612 
L 320.091683 104.821856 
L 322.815295 102.708778 
L 325.538907 101.899223 
L 328.262519 99.235502 
L 330.986131 100.4293 
L 333.709743 100.98141 
L 336.433355 98.685168 
L 339.156967 96.915562 
L 341.880579 92.959075 
L 344.604191 87.270532 
L 347.327803 84.684014 
L 350.051415 83.214828 
L 352.775027 84.327772 
L 355.498639 86.164803 
L 358.222251 80.278893 
L 360.945863 78.952063 
L 363.669475 77.359485 
L 369.116698 75.398543 
L 371.84031 75.468486 
L 374.563922 76.619246 
L 377.287534 74.042124 
L 380.011146 70.548262 
L 382.734758 72.533307 
L 385.45837 72.05178 
L 388.181982 73.0321 
L 390.905594 73.35826 
L 393.629206 72.400012 
L 396.352818 69.686231 
L 399.07643 71.424253 
L 401.800042 73.389331 
L 404.523654 73.287121 
L 407.247266 69.011544 
L 409.970878 70.548262 
L 412.69449 72.328418 
L 415.418102 70.05238 
L 418.141714 67.14622 
L 420.865326 68.669755 
L 423.588938 71.588502 
L 426.31255 72.622095 
L 429.036162 72.459964 
L 431.759773 70.904133 
L 434.483385 71.828557 
L 437.206997 64.303291 
L 439.930609 68.666785 
L 442.654221 70.548262 
L 445.377833 73.459067 
L 448.101445 74.309495 
L 450.825057 72.9435 
L 453.548669 69.936472 
L 456.272281 69.929473 
L 458.995893 69.691352 
L 461.719505 66.6458 
L 464.443117 65.270948 
L 469.890341 61.588847 
L 469.890341 61.588847 
" clip-path="url(#p448d5b876f)" style="fill: none; stroke: #9467bd; stroke-width: 1.5; stroke-linecap: square"/>
   </g>
   <g id="line2d_36">
    <path d="M 64.072159 286.918125 
L 115.820786 286.918125 
L 118.544398 252.573702 
L 121.26801 224.245475 
L 123.991622 205.953918 
L 126.715234 203.40695 
L 129.438846 198.943565 
L 132.162458 179.305601 
L 134.88607 186.085567 
L 137.609682 178.256608 
L 140.333294 179.182094 
L 143.056906 167.002297 
L 145.780518 172.874804 
L 148.50413 174.671643 
L 151.227742 179.413602 
L 153.951354 176.835212 
L 156.674966 176.635425 
L 159.398578 182.970201 
L 162.12219 182.606162 
L 164.845802 185.398616 
L 167.569414 187.709236 
L 170.293025 193.113604 
L 173.016637 183.845903 
L 175.740249 181.555409 
L 178.463861 174.593005 
L 181.187473 168.835054 
L 183.911085 167.336613 
L 186.634697 163.097707 
L 189.358309 162.341537 
L 192.081921 165.156485 
L 194.805533 165.966028 
L 197.529145 164.954924 
L 200.252757 163.48729 
L 202.976369 159.559709 
L 205.699981 158.385976 
L 208.423593 161.640187 
L 211.147205 165.767209 
L 213.870817 166.198398 
L 216.594429 165.415318 
L 219.318041 165.275617 
L 222.041653 169.587323 
L 224.765265 173.596355 
L 227.488877 169.361664 
L 230.212489 169.436051 
L 232.936101 167.120122 
L 238.383324 167.448597 
L 241.106936 165.694619 
L 243.830548 165.550996 
L 246.55416 163.059758 
L 249.277772 161.970649 
L 252.001384 162.484886 
L 257.448608 165.22836 
L 260.17222 163.38581 
L 262.895832 166.291233 
L 265.619444 163.875372 
L 268.343056 163.966508 
L 271.066668 165.204604 
L 273.79028 163.203841 
L 276.513892 163.131653 
L 279.237504 162.81992 
L 281.961116 161.669059 
L 284.684728 162.772863 
L 287.40834 165.283175 
L 290.131952 161.590926 
L 292.855564 159.430488 
L 295.579176 159.132441 
L 298.302788 154.332679 
L 301.026399 153.150545 
L 309.197235 146.0299 
L 311.920847 142.181471 
L 314.644459 140.48854 
L 317.368071 136.201832 
L 320.091683 133.260445 
L 322.815295 128.143118 
L 325.538907 123.46952 
L 328.262519 122.048298 
L 330.986131 118.997266 
L 333.709743 117.081362 
L 336.433355 116.007228 
L 339.156967 113.785042 
L 341.880579 108.120341 
L 344.604191 101.756366 
L 347.327803 99.480882 
L 350.051415 95.135746 
L 352.775027 88.102798 
L 355.498639 83.361692 
L 358.222251 83.164581 
L 360.945863 87.501826 
L 363.669475 88.326147 
L 369.116698 85.325816 
L 371.84031 87.884184 
L 374.563922 88.217912 
L 377.287534 85.575516 
L 380.011146 85.279827 
L 382.734758 83.495461 
L 385.45837 81.886421 
L 388.181982 81.923545 
L 390.905594 78.526145 
L 393.629206 79.966283 
L 396.352818 77.164328 
L 399.07643 74.038098 
L 401.800042 78.078536 
L 404.523654 81.029847 
L 409.970878 87.422861 
L 412.69449 91.309763 
L 415.418102 88.139308 
L 418.141714 91.257767 
L 420.865326 88.876062 
L 423.588938 93.788448 
L 426.31255 92.836361 
L 429.036162 95.818653 
L 431.759773 95.959141 
L 434.483385 92.740043 
L 437.206997 92.535038 
L 439.930609 93.956335 
L 442.654221 95.00102 
L 445.377833 91.4714 
L 448.101445 86.812967 
L 450.825057 87.288194 
L 453.548669 84.519789 
L 456.272281 84.071378 
L 458.995893 85.691586 
L 461.719505 84.608397 
L 464.443117 86.291349 
L 467.166729 83.741546 
L 469.890341 83.525157 
L 469.890341 83.525157 
" clip-path="url(#p448d5b876f)" style="fill: none; stroke: #8c564b; stroke-width: 1.5; stroke-linecap: square"/>
   </g>
   <g id="patch_3">
    <path d="M 43.78125 299.518125 
L 43.78125 22.318125 
" style="fill: none; stroke: #000000; stroke-width: 0.8; stroke-linejoin: miter; stroke-linecap: square"/>
   </g>
   <g id="patch_4">
    <path d="M 490.18125 299.518125 
L 490.18125 22.318125 
" style="fill: none; stroke: #000000; stroke-width: 0.8; stroke-linejoin: miter; stroke-linecap: square"/>
   </g>
   <g id="patch_5">
    <path d="M 43.78125 299.518125 
L 490.18125 299.518125 
" style="fill: none; stroke: #000000; stroke-width: 0.8; stroke-linejoin: miter; stroke-linecap: square"/>
   </g>
   <g id="patch_6">
    <path d="M 43.78125 22.318125 
L 490.18125 22.318125 
" style="fill: none; stroke: #000000; stroke-width: 0.8; stroke-linejoin: miter; stroke-linecap: square"/>
   </g>
   <g id="text_18">
    <!-- Detection Ratio: SBM-4k (Peak 100) -->
    <g transform="translate(159.846563 16.318125) scale(0.12 -0.12)">
     <defs>
      <path id="DejaVuSans-3a" d="M 750 794 
L 1409 794 
L 1409 0 
L 750 0 
L 750 794 
z
M 750 3309 
L 1409 3309 
L 1409 2516 
L 750 2516 
L 750 3309 
z
" transform="scale(0.015625)"/>
      <path id="DejaVuSans-42" d="M 1259 2228 
L 1259 519 
L 2272 519 
Q 2781 519 3026 730 
Q 3272 941 3272 1375 
Q 3272 1813 3026 2020 
Q 2781 2228 2272 2228 
L 1259 2228 
z
M 1259 4147 
L 1259 2741 
L 2194 2741 
Q 2656 2741 2882 2914 
Q 3109 3088 3109 3444 
Q 3109 3797 2882 3972 
Q 2656 4147 2194 4147 
L 1259 4147 
z
M 628 4666 
L 2241 4666 
Q 2963 4666 3353 4366 
Q 3744 4066 3744 3513 
Q 3744 3084 3544 2831 
Q 3344 2578 2956 2516 
Q 3422 2416 3680 2098 
Q 3938 1781 3938 1306 
Q 3938 681 3513 340 
Q 3088 0 2303 0 
L 628 0 
L 628 4666 
z
" transform="scale(0.015625)"/>
      <path id="DejaVuSans-4d" d="M 628 4666 
L 1569 4666 
L 2759 1491 
L 3956 4666 
L 4897 4666 
L 4897 0 
L 4281 0 
L 4281 4097 
L 3078 897 
L 2444 897 
L 1241 4097 
L 1241 0 
L 628 0 
L 628 4666 
z
" transform="scale(0.015625)"/>
      <path id="DejaVuSans-2d" d="M 313 2009 
L 1997 2009 
L 1997 1497 
L 313 1497 
L 313 2009 
z
" transform="scale(0.015625)"/>
      <path id="DejaVuSans-6b" d="M 581 4863 
L 1159 4863 
L 1159 1991 
L 2875 3500 
L 3609 3500 
L 1753 1863 
L 3688 0 
L 2938 0 
L 1159 1709 
L 1159 0 
L 581 0 
L 581 4863 
z
" transform="scale(0.015625)"/>
      <path id="DejaVuSans-50" d="M 1259 4147 
L 1259 2394 
L 2053 2394 
Q 2494 2394 2734 2622 
Q 2975 2850 2975 3272 
Q 2975 3691 2734 3919 
Q 2494 4147 2053 4147 
L 1259 4147 
z
M 628 4666 
L 2053 4666 
Q 2838 4666 3239 4311 
Q 3641 3956 3641 3272 
Q 3641 2581 3239 2228 
Q 2838 1875 2053 1875 
L 1259 1875 
L 1259 0 
L 628 0 
L 628 4666 
z
" transform="scale(0.015625)"/>
     </defs>
     <use xlink:href="#DejaVuSans-44"/>
     <use xlink:href="#DejaVuSans-65" transform="translate(77.001953 0)"/>
     <use xlink:href="#DejaVuSans-74" transform="translate(138.525391 0)"/>
     <use xlink:href="#DejaVuSans-65" transform="translate(177.734375 0)"/>
     <use xlink:href="#DejaVuSans-63" transform="translate(239.257812 0)"/>
     <use xlink:href="#DejaVuSans-74" transform="translate(294.238281 0)"/>
     <use xlink:href="#DejaVuSans-69" transform="translate(333.447266 0)"/>
     <use xlink:href="#DejaVuSans-6f" transform="translate(361.230469 0)"/>
     <use xlink:href="#DejaVuSans-6e" transform="translate(422.412109 0)"/>
     <use xlink:href="#DejaVuSans-20" transform="translate(485.791016 0)"/>
     <use xlink:href="#DejaVuSans-52" transform="translate(517.578125 0)"/>
     <use xlink:href="#DejaVuSans-61" transform="translate(584.810547 0)"/>
     <use xlink:href="#DejaVuSans-74" transform="translate(646.089844 0)"/>
     <use xlink:href="#DejaVuSans-69" transform="translate(685.298828 0)"/>
     <use xlink:href="#DejaVuSans-6f" transform="translate(713.082031 0)"/>
     <use xlink:href="#DejaVuSans-3a" transform="translate(774.263672 0)"/>
     <use xlink:href="#DejaVuSans-20" transform="translate(807.955078 0)"/>
     <use xlink:href="#DejaVuSans-53" transform="translate(839.742188 0)"/>
     <use xlink:href="#DejaVuSans-42" transform="translate(903.21875 0)"/>
     <use xlink:href="#DejaVuSans-4d" transform="translate(971.822266 0)"/>
     <use xlink:href="#DejaVuSans-2d" transform="translate(1058.101562 0)"/>
     <use xlink:href="#DejaVuSans-34" transform="translate(1094.185547 0)"/>
     <use xlink:href="#DejaVuSans-6b" transform="translate(1157.808594 0)"/>
     <use xlink:href="#DejaVuSans-20" transform="translate(1215.71875 0)"/>
     <use xlink:href="#DejaVuSans-28" transform="translate(1247.505859 0)"/>
     <use xlink:href="#DejaVuSans-50" transform="translate(1286.519531 0)"/>
     <use xlink:href="#DejaVuSans-65" transform="translate(1343.197266 0)"/>
     <use xlink:href="#DejaVuSans-61" transform="translate(1404.720703 0)"/>
     <use xlink:href="#DejaVuSans-6b" transform="translate(1466 0)"/>
     <use xlink:href="#DejaVuSans-20" transform="translate(1523.910156 0)"/>
     <use xlink:href="#DejaVuSans-31" transform="translate(1555.697266 0)"/>
     <use xlink:href="#DejaVuSans-30" transform="translate(1619.320312 0)"/>
     <use xlink:href="#DejaVuSans-30" transform="translate(1682.943359 0)"/>
     <use xlink:href="#DejaVuSans-29" transform="translate(1746.566406 0)"/>
    </g>
   </g>
   <g id="legend_1">
    <g id="patch_7">
     <path d="M 50.08125 108.78 
L 156.426094 108.78 
Q 158.226094 108.78 158.226094 106.98 
L 158.226094 28.618125 
Q 158.226094 26.818125 156.426094 26.818125 
L 50.08125 26.818125 
Q 48.28125 26.818125 48.28125 28.618125 
L 48.28125 106.98 
Q 48.28125 108.78 50.08125 108.78 
z
" style="fill: #ffffff; opacity: 0.8; stroke: #cccccc; stroke-linejoin: miter"/>
    </g>
    <g id="line2d_37">
     <path d="M 51.88125 34.106719 
L 60.88125 34.106719 
L 69.88125 34.106719 
" style="fill: none; stroke: #1f77b4; stroke-width: 1.5; stroke-linecap: square"/>
    </g>
    <g id="text_19">
     <!-- LocalGNTS-14 -->
     <g transform="translate(77.08125 37.256719) scale(0.09 -0.09)">
      <defs>
       <path id="DejaVuSans-4c" d="M 628 4666 
L 1259 4666 
L 1259 531 
L 3531 531 
L 3531 0 
L 628 0 
L 628 4666 
z
" transform="scale(0.015625)"/>
       <path id="DejaVuSans-47" d="M 3809 666 
L 3809 1919 
L 2778 1919 
L 2778 2438 
L 4434 2438 
L 4434 434 
Q 4069 175 3628 42 
Q 3188 -91 2688 -91 
Q 1594 -91 976 548 
Q 359 1188 359 2328 
Q 359 3472 976 4111 
Q 1594 4750 2688 4750 
Q 3144 4750 3555 4637 
Q 3966 4525 4313 4306 
L 4313 3634 
Q 3963 3931 3569 4081 
Q 3175 4231 2741 4231 
Q 1884 4231 1454 3753 
Q 1025 3275 1025 2328 
Q 1025 1384 1454 906 
Q 1884 428 2741 428 
Q 3075 428 3337 486 
Q 3600 544 3809 666 
z
" transform="scale(0.015625)"/>
       <path id="DejaVuSans-4e" d="M 628 4666 
L 1478 4666 
L 3547 763 
L 3547 4666 
L 4159 4666 
L 4159 0 
L 3309 0 
L 1241 3903 
L 1241 0 
L 628 0 
L 628 4666 
z
" transform="scale(0.015625)"/>
       <path id="DejaVuSans-54" d="M -19 4666 
L 3928 4666 
L 3928 4134 
L 2272 4134 
L 2272 0 
L 1638 0 
L 1638 4134 
L -19 4134 
L -19 4666 
z
" transform="scale(0.015625)"/>
      </defs>
      <use xlink:href="#DejaVuSans-4c"/>
      <use xlink:href="#DejaVuSans-6f" transform="translate(53.962891 0)"/>
      <use xlink:href="#DejaVuSans-63" transform="translate(115.144531 0)"/>
      <use xlink:href="#DejaVuSans-61" transform="translate(170.125 0)"/>
      <use xlink:href="#DejaVuSans-6c" transform="translate(231.404297 0)"/>
      <use xlink:href="#DejaVuSans-47" transform="translate(259.1875 0)"/>
      <use xlink:href="#DejaVuSans-4e" transform="translate(336.677734 0)"/>
      <use xlink:href="#DejaVuSans-54" transform="translate(411.482422 0)"/>
      <use xlink:href="#DejaVuSans-53" transform="translate(472.566406 0)"/>
      <use xlink:href="#DejaVuSans-2d" transform="translate(536.042969 0)"/>
      <use xlink:href="#DejaVuSans-31" transform="translate(572.126953 0)"/>
      <use xlink:href="#DejaVuSans-34" transform="translate(635.75 0)"/>
     </g>
    </g>
    <g id="line2d_38">
     <path d="M 51.88125 47.317031 
L 60.88125 47.317031 
L 69.88125 47.317031 
" style="fill: none; stroke: #ff7f0e; stroke-width: 1.5; stroke-linecap: square"/>
    </g>
    <g id="text_20">
     <!-- GlobalGNTS-14 -->
     <g transform="translate(77.08125 50.467031) scale(0.09 -0.09)">
      <defs>
       <path id="DejaVuSans-62" d="M 3116 1747 
Q 3116 2381 2855 2742 
Q 2594 3103 2138 3103 
Q 1681 3103 1420 2742 
Q 1159 2381 1159 1747 
Q 1159 1113 1420 752 
Q 1681 391 2138 391 
Q 2594 391 2855 752 
Q 3116 1113 3116 1747 
z
M 1159 2969 
Q 1341 3281 1617 3432 
Q 1894 3584 2278 3584 
Q 2916 3584 3314 3078 
Q 3713 2572 3713 1747 
Q 3713 922 3314 415 
Q 2916 -91 2278 -91 
Q 1894 -91 1617 61 
Q 1341 213 1159 525 
L 1159 0 
L 581 0 
L 581 4863 
L 1159 4863 
L 1159 2969 
z
" transform="scale(0.015625)"/>
      </defs>
      <use xlink:href="#DejaVuSans-47"/>
      <use xlink:href="#DejaVuSans-6c" transform="translate(77.490234 0)"/>
      <use xlink:href="#DejaVuSans-6f" transform="translate(105.273438 0)"/>
      <use xlink:href="#DejaVuSans-62" transform="translate(166.455078 0)"/>
      <use xlink:href="#DejaVuSans-61" transform="translate(229.931641 0)"/>
      <use xlink:href="#DejaVuSans-6c" transform="translate(291.210938 0)"/>
      <use xlink:href="#DejaVuSans-47" transform="translate(318.994141 0)"/>
      <use xlink:href="#DejaVuSans-4e" transform="translate(396.484375 0)"/>
      <use xlink:href="#DejaVuSans-54" transform="translate(471.289062 0)"/>
      <use xlink:href="#DejaVuSans-53" transform="translate(532.373047 0)"/>
      <use xlink:href="#DejaVuSans-2d" transform="translate(595.849609 0)"/>
      <use xlink:href="#DejaVuSans-31" transform="translate(631.933594 0)"/>
      <use xlink:href="#DejaVuSans-34" transform="translate(695.556641 0)"/>
     </g>
    </g>
    <g id="line2d_39">
     <path d="M 51.88125 60.527344 
L 60.88125 60.527344 
L 69.88125 60.527344 
" style="fill: none; stroke: #2ca02c; stroke-width: 1.5; stroke-linecap: square"/>
    </g>
    <g id="text_21">
     <!-- Beta-Binomial-14 -->
     <g transform="translate(77.08125 63.677344) scale(0.09 -0.09)">
      <use xlink:href="#DejaVuSans-42"/>
      <use xlink:href="#DejaVuSans-65" transform="translate(68.603516 0)"/>
      <use xlink:href="#DejaVuSans-74" transform="translate(130.126953 0)"/>
      <use xlink:href="#DejaVuSans-61" transform="translate(169.335938 0)"/>
      <use xlink:href="#DejaVuSans-2d" transform="translate(230.615234 0)"/>
      <use xlink:href="#DejaVuSans-42" transform="translate(263.074219 0)"/>
      <use xlink:href="#DejaVuSans-69" transform="translate(331.677734 0)"/>
      <use xlink:href="#DejaVuSans-6e" transform="translate(359.460938 0)"/>
      <use xlink:href="#DejaVuSans-6f" transform="translate(422.839844 0)"/>
      <use xlink:href="#DejaVuSans-6d" transform="translate(484.021484 0)"/>
      <use xlink:href="#DejaVuSans-69" transform="translate(581.433594 0)"/>
      <use xlink:href="#DejaVuSans-61" transform="translate(609.216797 0)"/>
      <use xlink:href="#DejaVuSans-6c" transform="translate(670.496094 0)"/>
      <use xlink:href="#DejaVuSans-2d" transform="translate(698.279297 0)"/>
      <use xlink:href="#DejaVuSans-31" transform="translate(734.363281 0)"/>
      <use xlink:href="#DejaVuSans-34" transform="translate(797.986328 0)"/>
     </g>
    </g>
    <g id="line2d_40">
     <path d="M 51.88125 73.737656 
L 60.88125 73.737656 
L 69.88125 73.737656 
" style="fill: none; stroke: #d62728; stroke-width: 1.5; stroke-linecap: square"/>
    </g>
    <g id="text_22">
     <!-- Proportional -->
     <g transform="translate(77.08125 76.887656) scale(0.09 -0.09)">
      <defs>
       <path id="DejaVuSans-72" d="M 2631 2963 
Q 2534 3019 2420 3045 
Q 2306 3072 2169 3072 
Q 1681 3072 1420 2755 
Q 1159 2438 1159 1844 
L 1159 0 
L 581 0 
L 581 3500 
L 1159 3500 
L 1159 2956 
Q 1341 3275 1631 3429 
Q 1922 3584 2338 3584 
Q 2397 3584 2469 3576 
Q 2541 3569 2628 3553 
L 2631 2963 
z
" transform="scale(0.015625)"/>
       <path id="DejaVuSans-70" d="M 1159 525 
L 1159 -1331 
L 581 -1331 
L 581 3500 
L 1159 3500 
L 1159 2969 
Q 1341 3281 1617 3432 
Q 1894 3584 2278 3584 
Q 2916 3584 3314 3078 
Q 3713 2572 3713 1747 
Q 3713 922 3314 415 
Q 2916 -91 2278 -91 
Q 1894 -91 1617 61 
Q 1341 213 1159 525 
z
M 3116 1747 
Q 3116 2381 2855 2742 
Q 2594 3103 2138 3103 
Q 1681 3103 1420 2742 
Q 1159 2381 1159 1747 
Q 1159 1113 1420 752 
Q 1681 391 2138 391 
Q 2594 391 2855 752 
Q 3116 1113 3116 1747 
z
" transform="scale(0.015625)"/>
      </defs>
      <use xlink:href="#DejaVuSans-50"/>
      <use xlink:href="#DejaVuSans-72" transform="translate(58.552734 0)"/>
      <use xlink:href="#DejaVuSans-6f" transform="translate(97.416016 0)"/>
      <use xlink:href="#DejaVuSans-70" transform="translate(158.597656 0)"/>
      <use xlink:href="#DejaVuSans-6f" transform="translate(222.074219 0)"/>
      <use xlink:href="#DejaVuSans-72" transform="translate(283.255859 0)"/>
      <use xlink:href="#DejaVuSans-74" transform="translate(324.369141 0)"/>
      <use xlink:href="#DejaVuSans-69" transform="translate(363.578125 0)"/>
      <use xlink:href="#DejaVuSans-6f" transform="translate(391.361328 0)"/>
      <use xlink:href="#DejaVuSans-6e" transform="translate(452.542969 0)"/>
      <use xlink:href="#DejaVuSans-61" transform="translate(515.921875 0)"/>
      <use xlink:href="#DejaVuSans-6c" transform="translate(577.201172 0)"/>
     </g>
    </g>
    <g id="line2d_41">
     <path d="M 51.88125 86.947969 
L 60.88125 86.947969 
L 69.88125 86.947969 
" style="fill: none; stroke: #9467bd; stroke-width: 1.5; stroke-linecap: square"/>
    </g>
    <g id="text_23">
     <!-- Uniform -->
     <g transform="translate(77.08125 90.097969) scale(0.09 -0.09)">
      <defs>
       <path id="DejaVuSans-55" d="M 556 4666 
L 1191 4666 
L 1191 1831 
Q 1191 1081 1462 751 
Q 1734 422 2344 422 
Q 2950 422 3222 751 
Q 3494 1081 3494 1831 
L 3494 4666 
L 4128 4666 
L 4128 1753 
Q 4128 841 3676 375 
Q 3225 -91 2344 -91 
Q 1459 -91 1007 375 
Q 556 841 556 1753 
L 556 4666 
z
" transform="scale(0.015625)"/>
      </defs>
      <use xlink:href="#DejaVuSans-55"/>
      <use xlink:href="#DejaVuSans-6e" transform="translate(73.193359 0)"/>
      <use xlink:href="#DejaVuSans-69" transform="translate(136.572266 0)"/>
      <use xlink:href="#DejaVuSans-66" transform="translate(164.355469 0)"/>
      <use xlink:href="#DejaVuSans-6f" transform="translate(199.560547 0)"/>
      <use xlink:href="#DejaVuSans-72" transform="translate(260.742188 0)"/>
      <use xlink:href="#DejaVuSans-6d" transform="translate(300.105469 0)"/>
     </g>
    </g>
    <g id="line2d_42">
     <path d="M 51.88125 100.158281 
L 60.88125 100.158281 
L 69.88125 100.158281 
" style="fill: none; stroke: #8c564b; stroke-width: 1.5; stroke-linecap: square"/>
    </g>
    <g id="text_24">
     <!-- Random -->
     <g transform="translate(77.08125 103.308281) scale(0.09 -0.09)">
      <defs>
       <path id="DejaVuSans-64" d="M 2906 2969 
L 2906 4863 
L 3481 4863 
L 3481 0 
L 2906 0 
L 2906 525 
Q 2725 213 2448 61 
Q 2172 -91 1784 -91 
Q 1150 -91 751 415 
Q 353 922 353 1747 
Q 353 2572 751 3078 
Q 1150 3584 1784 3584 
Q 2172 3584 2448 3432 
Q 2725 3281 2906 2969 
z
M 947 1747 
Q 947 1113 1208 752 
Q 1469 391 1925 391 
Q 2381 391 2643 752 
Q 2906 1113 2906 1747 
Q 2906 2381 2643 2742 
Q 2381 3103 1925 3103 
Q 1469 3103 1208 2742 
Q 947 2381 947 1747 
z
" transform="scale(0.015625)"/>
      </defs>
      <use xlink:href="#DejaVuSans-52"/>
      <use xlink:href="#DejaVuSans-61" transform="translate(67.232422 0)"/>
      <use xlink:href="#DejaVuSans-6e" transform="translate(128.511719 0)"/>
      <use xlink:href="#DejaVuSans-64" transform="translate(191.890625 0)"/>
      <use xlink:href="#DejaVuSans-6f" transform="translate(255.367188 0)"/>
      <use xlink:href="#DejaVuSans-6d" transform="translate(316.548828 0)"/>
     </g>
    </g>
   </g>
  </g>
 </g>
 <defs>
  <clipPath id="p448d5b876f">
   <rect x="43.78125" y="22.318125" width="446.4" height="277.2"/>
  </clipPath>
 </defs>
</svg>
