<?xml version="1.0" encoding="utf-8" standalone="no"?>
<!DOCTYPE svg PUBLIC "-//W3C//DTD SVG 1.1//EN"
  "http://www.w3.org/Graphics/SVG/1.1/DTD/svg11.dtd">
<svg xmlns:xlink="http://www.w3.org/1999/xlink" width="497.38125pt" height="337.074375pt" viewBox="0 0 497.38125 337.074375" xmlns="http://www.w3.org/2000/svg" version="1.1">
 <metadata>
  <rdf:RDF xmlns:dc="http://purl.org/dc/elements/1.1/" xmlns:cc="http://creativecommons.org/ns#" xmlns:rdf="http://www.w3.org/1999/02/22-rdf-syntax-ns#">
   <cc:Work>
    <dc:type rdf:resource="http://purl.org/dc/dcmitype/StillImage"/>
    <dc:date>2026-07-01T17:13:59.919906</dc:date>
    <dc:format>image/svg+xml</dc:format>
    <dc:creator>
     <cc:Agent>
      <dc:title>Matplotlib v3.10.8, https://matplotlib.org/</dc:title>
     </cc:Agent>
    </dc:creator>
   </cc:Work>
  </rdf:RDF>
 </metadata>
 <defs>
  <style type="text/css">*{stroke-linejoin: round; stroke-linecap: butt}</style>
 </defs>
 <g id="figure_1">
  <g id="patch_1">
   <path d="M 0 337.074375 
L 497.38125 337.074375 
L 497.38125 0 
L 0 0 
z
" style="fill: #ffffff"/>
  </g>
  <g id="axes_1">
   <g id="patch_2">
    <path d="M 43.78125 299.518125 
L 490.18125 299.518125 
L 490.18125 22.318125 
L 43.78125 22.318125 
z
" style="fill: #ffffff"/>
   </g>
   <g id="matplotlib.axis_1">
    <g id="xtick_1">
     <g id="line2d_1">
      <path d="M 64.072159 299.518125 
L 64.072159 22.318125 
" clip-path="url(#p8180b5a0a3)" style="fill: none; stroke-dasharray: 1.85,0.8; stroke-dashoffset: 0; stroke: #b0b0b0; stroke-opacity: 0.6; stroke-width: 0.5"/>
     </g>
     <g id="line2d_2">
      <defs>
       <path id="ma1db841bbd" d="M 0 0 
L 0 3.5 
" style="stroke: #000000; stroke-width: 0.8"/>
      </defs>
      <g>
       <use xlink:href="#ma1db841bbd" x="64.072159" y="299.518125" style="stroke: #000000; stroke-width: 0.8"/>
      </g>
     </g>
     <g id="text_1">
      <!-- 0 -->
      <g transform="translate(60.890909 314.116563) scale(0.1 -0.1)">
       <defs>
        <path id="DejaVuSans-30" d="M 2034 4250 
Q 1547 4250 1301 3770 
Q 1056 3291 1056 2328 
Q 1056 1369 1301 889 
Q 1547 409 2034 409 
Q 2525 409 2770 889 
Q 3016 1369 3016 2328 
Q 3016 3291 2770 3770 
Q 2525 4250 2034 4250 
z
M 2034 4750 
Q 2819 4750 3233 4129 
Q 3647 3509 3647 2328 
Q 3647 1150 3233 529 
Q 2819 -91 2034 -91 
Q 1250 -91 836 529 
Q 422 1150 422 2328 
Q 422 3509 836 4129 
Q 1250 4750 2034 4750 
z
" transform="scale(0.015625)"/>
       </defs>
       <use xlink:href="#DejaVuSans-30"/>
      </g>
     </g>
    </g>
    <g id="xtick_2">
     <g id="line2d_3">
      <path d="M 118.544398 299.518125 
L 118.544398 22.318125 
" clip-path="url(#p8180b5a0a3)" style="fill: none; stroke-dasharray: 1.85,0.8; stroke-dashoffset: 0; stroke: #b0b0b0; stroke-opacity: 0.6; stroke-width: 0.5"/>
     </g>
     <g id="line2d_4">
      <g>
       <use xlink:href="#ma1db841bbd" x="118.544398" y="299.518125" style="stroke: #000000; stroke-width: 0.8"/>
      </g>
     </g>
     <g id="text_2">
      <!-- 20 -->
      <g transform="translate(112.181898 314.116563) scale(0.1 -0.1)">
       <defs>
        <path id="DejaVuSans-32" d="M 1228 531 
L 3431 531 
L 3431 0 
L 469 0 
L 469 531 
Q 828 903 1448 1529 
Q 2069 2156 2228 2338 
Q 2531 2678 2651 2914 
Q 2772 3150 2772 3378 
Q 2772 3750 2511 3984 
Q 2250 4219 1831 4219 
Q 1534 4219 1204 4116 
Q 875 4013 500 3803 
L 500 4441 
Q 881 4594 1212 4672 
Q 1544 4750 1819 4750 
Q 2544 4750 2975 4387 
Q 3406 4025 3406 3419 
Q 3406 3131 3298 2873 
Q 3191 2616 2906 2266 
Q 2828 2175 2409 1742 
Q 1991 1309 1228 531 
z
" transform="scale(0.015625)"/>
       </defs>
       <use xlink:href="#DejaVuSans-32"/>
       <use xlink:href="#DejaVuSans-30" transform="translate(63.623047 0)"/>
      </g>
     </g>
    </g>
    <g id="xtick_3">
     <g id="line2d_5">
      <path d="M 173.016637 299.518125 
L 173.016637 22.318125 
" clip-path="url(#p8180b5a0a3)" style="fill: none; stroke-dasharray: 1.85,0.8; stroke-dashoffset: 0; stroke: #b0b0b0; stroke-opacity: 0.6; stroke-width: 0.5"/>
     </g>
     <g id="line2d_6">
      <g>
       <use xlink:href="#ma1db841bbd" x="173.016637" y="299.518125" style="stroke: #000000; stroke-width: 0.8"/>
      </g>
     </g>
     <g id="text_3">
      <!-- 40 -->
      <g transform="translate(166.654137 314.116563) scale(0.1 -0.1)">
       <defs>
        <path id="DejaVuSans-34" d="M 2419 4116 
L 825 1625 
L 2419 1625 
L 2419 4116 
z
M 2253 4666 
L 3047 4666 
L 3047 1625 
L 3713 1625 
L 3713 1100 
L 3047 1100 
L 3047 0 
L 2419 0 
L 2419 1100 
L 313 1100 
L 313 1709 
L 2253 4666 
z
" transform="scale(0.015625)"/>
       </defs>
       <use xlink:href="#DejaVuSans-34"/>
       <use xlink:href="#DejaVuSans-30" transform="translate(63.623047 0)"/>
      </g>
     </g>
    </g>
    <g id="xtick_4">
     <g id="line2d_7">
      <path d="M 227.488877 299.518125 
L 227.488877 22.318125 
" clip-path="url(#p8180b5a0a3)" style="fill: none; stroke-dasharray: 1.85,0.8; stroke-dashoffset: 0; stroke: #b0b0b0; stroke-opacity: 0.6; stroke-width: 0.5"/>
     </g>
     <g id="line2d_8">
      <g>
       <use xlink:href="#ma1db841bbd" x="227.488877" y="299.518125" style="stroke: #000000; stroke-width: 0.8"/>
      </g>
     </g>
     <g id="text_4">
      <!-- 60 -->
      <g transform="translate(221.126377 314.116563) scale(0.1 -0.1)">
       <defs>
        <path id="DejaVuSans-36" d="M 2113 2584 
Q 1688 2584 1439 2293 
Q 1191 2003 1191 1497 
Q 1191 994 1439 701 
Q 1688 409 2113 409 
Q 2538 409 2786 701 
Q 3034 994 3034 1497 
Q 3034 2003 2786 2293 
Q 2538 2584 2113 2584 
z
M 3366 4563 
L 3366 3988 
Q 3128 4100 2886 4159 
Q 2644 4219 2406 4219 
Q 1781 4219 1451 3797 
Q 1122 3375 1075 2522 
Q 1259 2794 1537 2939 
Q 1816 3084 2150 3084 
Q 2853 3084 3261 2657 
Q 3669 2231 3669 1497 
Q 3669 778 3244 343 
Q 2819 -91 2113 -91 
Q 1303 -91 875 529 
Q 447 1150 447 2328 
Q 447 3434 972 4092 
Q 1497 4750 2381 4750 
Q 2619 4750 2861 4703 
Q 3103 4656 3366 4563 
z
" transform="scale(0.015625)"/>
       </defs>
       <use xlink:href="#DejaVuSans-36"/>
       <use xlink:href="#DejaVuSans-30" transform="translate(63.623047 0)"/>
      </g>
     </g>
    </g>
    <g id="xtick_5">
     <g id="line2d_9">
      <path d="M 281.961116 299.518125 
L 281.961116 22.318125 
" clip-path="url(#p8180b5a0a3)" style="fill: none; stroke-dasharray: 1.85,0.8; stroke-dashoffset: 0; stroke: #b0b0b0; stroke-opacity: 0.6; stroke-width: 0.5"/>
     </g>
     <g id="line2d_10">
      <g>
       <use xlink:href="#ma1db841bbd" x="281.961116" y="299.518125" style="stroke: #000000; stroke-width: 0.8"/>
      </g>
     </g>
     <g id="text_5">
      <!-- 80 -->
      <g transform="translate(275.598616 314.116563) scale(0.1 -0.1)">
       <defs>
        <path id="DejaVuSans-38" d="M 2034 2216 
Q 1584 2216 1326 1975 
Q 1069 1734 1069 1313 
Q 1069 891 1326 650 
Q 1584 409 2034 409 
Q 2484 409 2743 651 
Q 3003 894 3003 1313 
Q 3003 1734 2745 1975 
Q 2488 2216 2034 2216 
z
M 1403 2484 
Q 997 2584 770 2862 
Q 544 3141 544 3541 
Q 544 4100 942 4425 
Q 1341 4750 2034 4750 
Q 2731 4750 3128 4425 
Q 3525 4100 3525 3541 
Q 3525 3141 3298 2862 
Q 3072 2584 2669 2484 
Q 3125 2378 3379 2068 
Q 3634 1759 3634 1313 
Q 3634 634 3220 271 
Q 2806 -91 2034 -91 
Q 1263 -91 848 271 
Q 434 634 434 1313 
Q 434 1759 690 2068 
Q 947 2378 1403 2484 
z
M 1172 3481 
Q 1172 3119 1398 2916 
Q 1625 2713 2034 2713 
Q 2441 2713 2670 2916 
Q 2900 3119 2900 3481 
Q 2900 3844 2670 4047 
Q 2441 4250 2034 4250 
Q 1625 4250 1398 4047 
Q 1172 3844 1172 3481 
z
" transform="scale(0.015625)"/>
       </defs>
       <use xlink:href="#DejaVuSans-38"/>
       <use xlink:href="#DejaVuSans-30" transform="translate(63.623047 0)"/>
      </g>
     </g>
    </g>
    <g id="xtick_6">
     <g id="line2d_11">
      <path d="M 336.433355 299.518125 
L 336.433355 22.318125 
" clip-path="url(#p8180b5a0a3)" style="fill: none; stroke-dasharray: 1.85,0.8; stroke-dashoffset: 0; stroke: #b0b0b0; stroke-opacity: 0.6; stroke-width: 0.5"/>
     </g>
     <g id="line2d_12">
      <g>
       <use xlink:href="#ma1db841bbd" x="336.433355" y="299.518125" style="stroke: #000000; stroke-width: 0.8"/>
      </g>
     </g>
     <g id="text_6">
      <!-- 100 -->
      <g transform="translate(326.889605 314.116563) scale(0.1 -0.1)">
       <defs>
        <path id="DejaVuSans-31" d="M 794 531 
L 1825 531 
L 1825 4091 
L 703 3866 
L 703 4441 
L 1819 4666 
L 2450 4666 
L 2450 531 
L 3481 531 
L 3481 0 
L 794 0 
L 794 531 
z
" transform="scale(0.015625)"/>
       </defs>
       <use xlink:href="#DejaVuSans-31"/>
       <use xlink:href="#DejaVuSans-30" transform="translate(63.623047 0)"/>
       <use xlink:href="#DejaVuSans-30" transform="translate(127.246094 0)"/>
      </g>
     </g>
    </g>
    <g id="xtick_7">
     <g id="line2d_13">
      <path d="M 390.905594 299.518125 
L 390.905594 22.318125 
" clip-path="url(#p8180b5a0a3)" style="fill: none; stroke-dasharray: 1.85,0.8; stroke-dashoffset: 0; stroke: #b0b0b0; stroke-opacity: 0.6; stroke-width: 0.5"/>
     </g>
     <g id="line2d_14">
      <g>
       <use xlink:href="#ma1db841bbd" x="390.905594" y="299.518125" style="stroke: #000000; stroke-width: 0.8"/>
      </g>
     </g>
     <g id="text_7">
      <!-- 120 -->
      <g transform="translate(381.361844 314.116563) scale(0.1 -0.1)">
       <use xlink:href="#DejaVuSans-31"/>
       <use xlink:href="#DejaVuSans-32" transform="translate(63.623047 0)"/>
       <use xlink:href="#DejaVuSans-30" transform="translate(127.246094 0)"/>
      </g>
     </g>
    </g>
    <g id="xtick_8">
     <g id="line2d_15">
      <path d="M 445.377833 299.518125 
L 445.377833 22.318125 
" clip-path="url(#p8180b5a0a3)" style="fill: none; stroke-dasharray: 1.85,0.8; stroke-dashoffset: 0; stroke: #b0b0b0; stroke-opacity: 0.6; stroke-width: 0.5"/>
     </g>
     <g id="line2d_16">
      <g>
       <use xlink:href="#ma1db841bbd" x="445.377833" y="299.518125" style="stroke: #000000; stroke-width: 0.8"/>
      </g>
     </g>
     <g id="text_8">
      <!-- 140 -->
      <g transform="translate(435.834083 314.116563) scale(0.1 -0.1)">
       <use xlink:href="#DejaVuSans-31"/>
       <use xlink:href="#DejaVuSans-34" transform="translate(63.623047 0)"/>
       <use xlink:href="#DejaVuSans-30" transform="translate(127.246094 0)"/>
      </g>
     </g>
    </g>
    <g id="text_9">
     <!-- Simulation Day -->
     <g transform="translate(228.885937 327.794688) scale(0.1 -0.1)">
      <defs>
       <path id="DejaVuSans-53" d="M 3425 4513 
L 3425 3897 
Q 3066 4069 2747 4153 
Q 2428 4238 2131 4238 
Q 1616 4238 1336 4038 
Q 1056 3838 1056 3469 
Q 1056 3159 1242 3001 
Q 1428 2844 1947 2747 
L 2328 2669 
Q 3034 2534 3370 2195 
Q 3706 1856 3706 1288 
Q 3706 609 3251 259 
Q 2797 -91 1919 -91 
Q 1588 -91 1214 -16 
Q 841 59 441 206 
L 441 856 
Q 825 641 1194 531 
Q 1563 422 1919 422 
Q 2459 422 2753 634 
Q 3047 847 3047 1241 
Q 3047 1584 2836 1778 
Q 2625 1972 2144 2069 
L 1759 2144 
Q 1053 2284 737 2584 
Q 422 2884 422 3419 
Q 422 4038 858 4394 
Q 1294 4750 2059 4750 
Q 2388 4750 2728 4690 
Q 3069 4631 3425 4513 
z
" transform="scale(0.015625)"/>
       <path id="DejaVuSans-69" d="M 603 3500 
L 1178 3500 
L 1178 0 
L 603 0 
L 603 3500 
z
M 603 4863 
L 1178 4863 
L 1178 4134 
L 603 4134 
L 603 4863 
z
" transform="scale(0.015625)"/>
       <path id="DejaVuSans-6d" d="M 3328 2828 
Q 3544 3216 3844 3400 
Q 4144 3584 4550 3584 
Q 5097 3584 5394 3201 
Q 5691 2819 5691 2113 
L 5691 0 
L 5113 0 
L 5113 2094 
Q 5113 2597 4934 2840 
Q 4756 3084 4391 3084 
Q 3944 3084 3684 2787 
Q 3425 2491 3425 1978 
L 3425 0 
L 2847 0 
L 2847 2094 
Q 2847 2600 2669 2842 
Q 2491 3084 2119 3084 
Q 1678 3084 1418 2786 
Q 1159 2488 1159 1978 
L 1159 0 
L 581 0 
L 581 3500 
L 1159 3500 
L 1159 2956 
Q 1356 3278 1631 3431 
Q 1906 3584 2284 3584 
Q 2666 3584 2933 3390 
Q 3200 3197 3328 2828 
z
" transform="scale(0.015625)"/>
       <path id="DejaVuSans-75" d="M 544 1381 
L 544 3500 
L 1119 3500 
L 1119 1403 
Q 1119 906 1312 657 
Q 1506 409 1894 409 
Q 2359 409 2629 706 
Q 2900 1003 2900 1516 
L 2900 3500 
L 3475 3500 
L 3475 0 
L 2900 0 
L 2900 538 
Q 2691 219 2414 64 
Q 2138 -91 1772 -91 
Q 1169 -91 856 284 
Q 544 659 544 1381 
z
M 1991 3584 
L 1991 3584 
z
" transform="scale(0.015625)"/>
       <path id="DejaVuSans-6c" d="M 603 4863 
L 1178 4863 
L 1178 0 
L 603 0 
L 603 4863 
z
" transform="scale(0.015625)"/>
       <path id="DejaVuSans-61" d="M 2194 1759 
Q 1497 1759 1228 1600 
Q 959 1441 959 1056 
Q 959 750 1161 570 
Q 1363 391 1709 391 
Q 2188 391 2477 730 
Q 2766 1069 2766 1631 
L 2766 1759 
L 2194 1759 
z
M 3341 1997 
L 3341 0 
L 2766 0 
L 2766 531 
Q 2569 213 2275 61 
Q 1981 -91 1556 -91 
Q 1019 -91 701 211 
Q 384 513 384 1019 
Q 384 1609 779 1909 
Q 1175 2209 1959 2209 
L 2766 2209 
L 2766 2266 
Q 2766 2663 2505 2880 
Q 2244 3097 1772 3097 
Q 1472 3097 1187 3025 
Q 903 2953 641 2809 
L 641 3341 
Q 956 3463 1253 3523 
Q 1550 3584 1831 3584 
Q 2591 3584 2966 3190 
Q 3341 2797 3341 1997 
z
" transform="scale(0.015625)"/>
       <path id="DejaVuSans-74" d="M 1172 4494 
L 1172 3500 
L 2356 3500 
L 2356 3053 
L 1172 3053 
L 1172 1153 
Q 1172 725 1289 603 
Q 1406 481 1766 481 
L 2356 481 
L 2356 0 
L 1766 0 
Q 1100 0 847 248 
Q 594 497 594 1153 
L 594 3053 
L 172 3053 
L 172 3500 
L 594 3500 
L 594 4494 
L 1172 4494 
z
" transform="scale(0.015625)"/>
       <path id="DejaVuSans-6f" d="M 1959 3097 
Q 1497 3097 1228 2736 
Q 959 2375 959 1747 
Q 959 1119 1226 758 
Q 1494 397 1959 397 
Q 2419 397 2687 759 
Q 2956 1122 2956 1747 
Q 2956 2369 2687 2733 
Q 2419 3097 1959 3097 
z
M 1959 3584 
Q 2709 3584 3137 3096 
Q 3566 2609 3566 1747 
Q 3566 888 3137 398 
Q 2709 -91 1959 -91 
Q 1206 -91 779 398 
Q 353 888 353 1747 
Q 353 2609 779 3096 
Q 1206 3584 1959 3584 
z
" transform="scale(0.015625)"/>
       <path id="DejaVuSans-6e" d="M 3513 2113 
L 3513 0 
L 2938 0 
L 2938 2094 
Q 2938 2591 2744 2837 
Q 2550 3084 2163 3084 
Q 1697 3084 1428 2787 
Q 1159 2491 1159 1978 
L 1159 0 
L 581 0 
L 581 3500 
L 1159 3500 
L 1159 2956 
Q 1366 3272 1645 3428 
Q 1925 3584 2291 3584 
Q 2894 3584 3203 3211 
Q 3513 2838 3513 2113 
z
" transform="scale(0.015625)"/>
       <path id="DejaVuSans-20" transform="scale(0.015625)"/>
       <path id="DejaVuSans-44" d="M 1259 4147 
L 1259 519 
L 2022 519 
Q 2988 519 3436 956 
Q 3884 1394 3884 2338 
Q 3884 3275 3436 3711 
Q 2988 4147 2022 4147 
L 1259 4147 
z
M 628 4666 
L 1925 4666 
Q 3281 4666 3915 4102 
Q 4550 3538 4550 2338 
Q 4550 1131 3912 565 
Q 3275 0 1925 0 
L 628 0 
L 628 4666 
z
" transform="scale(0.015625)"/>
       <path id="DejaVuSans-79" d="M 2059 -325 
Q 1816 -950 1584 -1140 
Q 1353 -1331 966 -1331 
L 506 -1331 
L 506 -850 
L 844 -850 
Q 1081 -850 1212 -737 
Q 1344 -625 1503 -206 
L 1606 56 
L 191 3500 
L 800 3500 
L 1894 763 
L 2988 3500 
L 3597 3500 
L 2059 -325 
z
" transform="scale(0.015625)"/>
      </defs>
      <use xlink:href="#DejaVuSans-53"/>
      <use xlink:href="#DejaVuSans-69" transform="translate(63.476562 0)"/>
      <use xlink:href="#DejaVuSans-6d" transform="translate(91.259766 0)"/>
      <use xlink:href="#DejaVuSans-75" transform="translate(188.671875 0)"/>
      <use xlink:href="#DejaVuSans-6c" transform="translate(252.050781 0)"/>
      <use xlink:href="#DejaVuSans-61" transform="translate(279.833984 0)"/>
      <use xlink:href="#DejaVuSans-74" transform="translate(341.113281 0)"/>
      <use xlink:href="#DejaVuSans-69" transform="translate(380.322266 0)"/>
      <use xlink:href="#DejaVuSans-6f" transform="translate(408.105469 0)"/>
      <use xlink:href="#DejaVuSans-6e" transform="translate(469.287109 0)"/>
      <use xlink:href="#DejaVuSans-20" transform="translate(532.666016 0)"/>
      <use xlink:href="#DejaVuSans-44" transform="translate(564.453125 0)"/>
      <use xlink:href="#DejaVuSans-61" transform="translate(641.455078 0)"/>
      <use xlink:href="#DejaVuSans-79" transform="translate(702.734375 0)"/>
     </g>
    </g>
   </g>
   <g id="matplotlib.axis_2">
    <g id="ytick_1">
     <g id="line2d_17">
      <path d="M 43.78125 286.918125 
L 490.18125 286.918125 
" clip-path="url(#p8180b5a0a3)" style="fill: none; stroke-dasharray: 1.85,0.8; stroke-dashoffset: 0; stroke: #b0b0b0; stroke-opacity: 0.6; stroke-width: 0.5"/>
     </g>
     <g id="line2d_18">
      <defs>
       <path id="m7b333dd6a7" d="M 0 0 
L -3.5 0 
" style="stroke: #000000; stroke-width: 0.8"/>
      </defs>
      <g>
       <use xlink:href="#m7b333dd6a7" x="43.78125" y="286.918125" style="stroke: #000000; stroke-width: 0.8"/>
      </g>
     </g>
     <g id="text_10">
      <!-- 0.0 -->
      <g transform="translate(20.878125 290.717344) scale(0.1 -0.1)">
       <defs>
        <path id="DejaVuSans-2e" d="M 684 794 
L 1344 794 
L 1344 0 
L 684 0 
L 684 794 
z
" transform="scale(0.015625)"/>
       </defs>
       <use xlink:href="#DejaVuSans-30"/>
       <use xlink:href="#DejaVuSans-2e" transform="translate(63.623047 0)"/>
       <use xlink:href="#DejaVuSans-30" transform="translate(95.410156 0)"/>
      </g>
     </g>
    </g>
    <g id="ytick_2">
     <g id="line2d_19">
      <path d="M 43.78125 255.418125 
L 490.18125 255.418125 
" clip-path="url(#p8180b5a0a3)" style="fill: none; stroke-dasharray: 1.85,0.8; stroke-dashoffset: 0; stroke: #b0b0b0; stroke-opacity: 0.6; stroke-width: 0.5"/>
     </g>
     <g id="line2d_20">
      <g>
       <use xlink:href="#m7b333dd6a7" x="43.78125" y="255.418125" style="stroke: #000000; stroke-width: 0.8"/>
      </g>
     </g>
     <g id="text_11">
      <!-- 0.1 -->
      <g transform="translate(20.878125 259.217344) scale(0.1 -0.1)">
       <use xlink:href="#DejaVuSans-30"/>
       <use xlink:href="#DejaVuSans-2e" transform="translate(63.623047 0)"/>
       <use xlink:href="#DejaVuSans-31" transform="translate(95.410156 0)"/>
      </g>
     </g>
    </g>
    <g id="ytick_3">
     <g id="line2d_21">
      <path d="M 43.78125 223.918125 
L 490.18125 223.918125 
" clip-path="url(#p8180b5a0a3)" style="fill: none; stroke-dasharray: 1.85,0.8; stroke-dashoffset: 0; stroke: #b0b0b0; stroke-opacity: 0.6; stroke-width: 0.5"/>
     </g>
     <g id="line2d_22">
      <g>
       <use xlink:href="#m7b333dd6a7" x="43.78125" y="223.918125" style="stroke: #000000; stroke-width: 0.8"/>
      </g>
     </g>
     <g id="text_12">
      <!-- 0.2 -->
      <g transform="translate(20.878125 227.717344) scale(0.1 -0.1)">
       <use xlink:href="#DejaVuSans-30"/>
       <use xlink:href="#DejaVuSans-2e" transform="translate(63.623047 0)"/>
       <use xlink:href="#DejaVuSans-32" transform="translate(95.410156 0)"/>
      </g>
     </g>
    </g>
    <g id="ytick_4">
     <g id="line2d_23">
      <path d="M 43.78125 192.418125 
L 490.18125 192.418125 
" clip-path="url(#p8180b5a0a3)" style="fill: none; stroke-dasharray: 1.85,0.8; stroke-dashoffset: 0; stroke: #b0b0b0; stroke-opacity: 0.6; stroke-width: 0.5"/>
     </g>
     <g id="line2d_24">
      <g>
       <use xlink:href="#m7b333dd6a7" x="43.78125" y="192.418125" style="stroke: #000000; stroke-width: 0.8"/>
      </g>
     </g>
     <g id="text_13">
      <!-- 0.3 -->
      <g transform="translate(20.878125 196.217344) scale(0.1 -0.1)">
       <defs>
        <path id="DejaVuSans-33" d="M 2597 2516 
Q 3050 2419 3304 2112 
Q 3559 1806 3559 1356 
Q 3559 666 3084 287 
Q 2609 -91 1734 -91 
Q 1441 -91 1130 -33 
Q 819 25 488 141 
L 488 750 
Q 750 597 1062 519 
Q 1375 441 1716 441 
Q 2309 441 2620 675 
Q 2931 909 2931 1356 
Q 2931 1769 2642 2001 
Q 2353 2234 1838 2234 
L 1294 2234 
L 1294 2753 
L 1863 2753 
Q 2328 2753 2575 2939 
Q 2822 3125 2822 3475 
Q 2822 3834 2567 4026 
Q 2313 4219 1838 4219 
Q 1578 4219 1281 4162 
Q 984 4106 628 3988 
L 628 4550 
Q 988 4650 1302 4700 
Q 1616 4750 1894 4750 
Q 2613 4750 3031 4423 
Q 3450 4097 3450 3541 
Q 3450 3153 3228 2886 
Q 3006 2619 2597 2516 
z
" transform="scale(0.015625)"/>
       </defs>
       <use xlink:href="#DejaVuSans-30"/>
       <use xlink:href="#DejaVuSans-2e" transform="translate(63.623047 0)"/>
       <use xlink:href="#DejaVuSans-33" transform="translate(95.410156 0)"/>
      </g>
     </g>
    </g>
    <g id="ytick_5">
     <g id="line2d_25">
      <path d="M 43.78125 160.918125 
L 490.18125 160.918125 
" clip-path="url(#p8180b5a0a3)" style="fill: none; stroke-dasharray: 1.85,0.8; stroke-dashoffset: 0; stroke: #b0b0b0; stroke-opacity: 0.6; stroke-width: 0.5"/>
     </g>
     <g id="line2d_26">
      <g>
       <use xlink:href="#m7b333dd6a7" x="43.78125" y="160.918125" style="stroke: #000000; stroke-width: 0.8"/>
      </g>
     </g>
     <g id="text_14">
      <!-- 0.4 -->
      <g transform="translate(20.878125 164.717344) scale(0.1 -0.1)">
       <use xlink:href="#DejaVuSans-30"/>
       <use xlink:href="#DejaVuSans-2e" transform="translate(63.623047 0)"/>
       <use xlink:href="#DejaVuSans-34" transform="translate(95.410156 0)"/>
      </g>
     </g>
    </g>
    <g id="ytick_6">
     <g id="line2d_27">
      <path d="M 43.78125 129.418125 
L 490.18125 129.418125 
" clip-path="url(#p8180b5a0a3)" style="fill: none; stroke-dasharray: 1.85,0.8; stroke-dashoffset: 0; stroke: #b0b0b0; stroke-opacity: 0.6; stroke-width: 0.5"/>
     </g>
     <g id="line2d_28">
      <g>
       <use xlink:href="#m7b333dd6a7" x="43.78125" y="129.418125" style="stroke: #000000; stroke-width: 0.8"/>
      </g>
     </g>
     <g id="text_15">
      <!-- 0.5 -->
      <g transform="translate(20.878125 133.217344) scale(0.1 -0.1)">
       <defs>
        <path id="DejaVuSans-35" d="M 691 4666 
L 3169 4666 
L 3169 4134 
L 1269 4134 
L 1269 2991 
Q 1406 3038 1543 3061 
Q 1681 3084 1819 3084 
Q 2600 3084 3056 2656 
Q 3513 2228 3513 1497 
Q 3513 744 3044 326 
Q 2575 -91 1722 -91 
Q 1428 -91 1123 -41 
Q 819 9 494 109 
L 494 744 
Q 775 591 1075 516 
Q 1375 441 1709 441 
Q 2250 441 2565 725 
Q 2881 1009 2881 1497 
Q 2881 1984 2565 2268 
Q 2250 2553 1709 2553 
Q 1456 2553 1204 2497 
Q 953 2441 691 2322 
L 691 4666 
z
" transform="scale(0.015625)"/>
       </defs>
       <use xlink:href="#DejaVuSans-30"/>
       <use xlink:href="#DejaVuSans-2e" transform="translate(63.623047 0)"/>
       <use xlink:href="#DejaVuSans-35" transform="translate(95.410156 0)"/>
      </g>
     </g>
    </g>
    <g id="ytick_7">
     <g id="line2d_29">
      <path d="M 43.78125 97.918125 
L 490.18125 97.918125 
" clip-path="url(#p8180b5a0a3)" style="fill: none; stroke-dasharray: 1.85,0.8; stroke-dashoffset: 0; stroke: #b0b0b0; stroke-opacity: 0.6; stroke-width: 0.5"/>
     </g>
     <g id="line2d_30">
      <g>
       <use xlink:href="#m7b333dd6a7" x="43.78125" y="97.918125" style="stroke: #000000; stroke-width: 0.8"/>
      </g>
     </g>
     <g id="text_16">
      <!-- 0.6 -->
      <g transform="translate(20.878125 101.717344) scale(0.1 -0.1)">
       <use xlink:href="#DejaVuSans-30"/>
       <use xlink:href="#DejaVuSans-2e" transform="translate(63.623047 0)"/>
       <use xlink:href="#DejaVuSans-36" transform="translate(95.410156 0)"/>
      </g>
     </g>
    </g>
    <g id="ytick_8">
     <g id="line2d_31">
      <path d="M 43.78125 66.418125 
L 490.18125 66.418125 
" clip-path="url(#p8180b5a0a3)" style="fill: none; stroke-dasharray: 1.85,0.8; stroke-dashoffset: 0; stroke: #b0b0b0; stroke-opacity: 0.6; stroke-width: 0.5"/>
     </g>
     <g id="line2d_32">
      <g>
       <use xlink:href="#m7b333dd6a7" x="43.78125" y="66.418125" style="stroke: #000000; stroke-width: 0.8"/>
      </g>
     </g>
     <g id="text_17">
      <!-- 0.7 -->
      <g transform="translate(20.878125 70.217344) scale(0.1 -0.1)">
       <defs>
        <path id="DejaVuSans-37" d="M 525 4666 
L 3525 4666 
L 3525 4397 
L 1831 0 
L 1172 0 
L 2766 4134 
L 525 4134 
L 525 4666 
z
" transform="scale(0.015625)"/>
       </defs>
       <use xlink:href="#DejaVuSans-30"/>
       <use xlink:href="#DejaVuSans-2e" transform="translate(63.623047 0)"/>
       <use xlink:href="#DejaVuSans-37" transform="translate(95.410156 0)"/>
      </g>
     </g>
    </g>
    <g id="ytick_9">
     <g id="line2d_33">
      <path d="M 43.78125 34.918125 
L 490.18125 34.918125 
" clip-path="url(#p8180b5a0a3)" style="fill: none; stroke-dasharray: 1.85,0.8; stroke-dashoffset: 0; stroke: #b0b0b0; stroke-opacity: 0.6; stroke-width: 0.5"/>
     </g>
     <g id="line2d_34">
      <g>
       <use xlink:href="#m7b333dd6a7" x="43.78125" y="34.918125" style="stroke: #000000; stroke-width: 0.8"/>
      </g>
     </g>
     <g id="text_18">
      <!-- 0.8 -->
      <g transform="translate(20.878125 38.717344) scale(0.1 -0.1)">
       <use xlink:href="#DejaVuSans-30"/>
       <use xlink:href="#DejaVuSans-2e" transform="translate(63.623047 0)"/>
       <use xlink:href="#DejaVuSans-38" transform="translate(95.410156 0)"/>
      </g>
     </g>
    </g>
    <g id="text_19">
     <!-- Detection Ratio (Efficiency) -->
     <g transform="translate(14.798438 229.282969) rotate(-90) scale(0.1 -0.1)">
      <defs>
       <path id="DejaVuSans-65" d="M 3597 1894 
L 3597 1613 
L 953 1613 
Q 991 1019 1311 708 
Q 1631 397 2203 397 
Q 2534 397 2845 478 
Q 3156 559 3463 722 
L 3463 178 
Q 3153 47 2828 -22 
Q 2503 -91 2169 -91 
Q 1331 -91 842 396 
Q 353 884 353 1716 
Q 353 2575 817 3079 
Q 1281 3584 2069 3584 
Q 2775 3584 3186 3129 
Q 3597 2675 3597 1894 
z
M 3022 2063 
Q 3016 2534 2758 2815 
Q 2500 3097 2075 3097 
Q 1594 3097 1305 2825 
Q 1016 2553 972 2059 
L 3022 2063 
z
" transform="scale(0.015625)"/>
       <path id="DejaVuSans-63" d="M 3122 3366 
L 3122 2828 
Q 2878 2963 2633 3030 
Q 2388 3097 2138 3097 
Q 1578 3097 1268 2742 
Q 959 2388 959 1747 
Q 959 1106 1268 751 
Q 1578 397 2138 397 
Q 2388 397 2633 464 
Q 2878 531 3122 666 
L 3122 134 
Q 2881 22 2623 -34 
Q 2366 -91 2075 -91 
Q 1284 -91 818 406 
Q 353 903 353 1747 
Q 353 2603 823 3093 
Q 1294 3584 2113 3584 
Q 2378 3584 2631 3529 
Q 2884 3475 3122 3366 
z
" transform="scale(0.015625)"/>
       <path id="DejaVuSans-52" d="M 2841 2188 
Q 3044 2119 3236 1894 
Q 3428 1669 3622 1275 
L 4263 0 
L 3584 0 
L 2988 1197 
Q 2756 1666 2539 1819 
Q 2322 1972 1947 1972 
L 1259 1972 
L 1259 0 
L 628 0 
L 628 4666 
L 2053 4666 
Q 2853 4666 3247 4331 
Q 3641 3997 3641 3322 
Q 3641 2881 3436 2590 
Q 3231 2300 2841 2188 
z
M 1259 4147 
L 1259 2491 
L 2053 2491 
Q 2509 2491 2742 2702 
Q 2975 2913 2975 3322 
Q 2975 3731 2742 3939 
Q 2509 4147 2053 4147 
L 1259 4147 
z
" transform="scale(0.015625)"/>
       <path id="DejaVuSans-28" d="M 1984 4856 
Q 1566 4138 1362 3434 
Q 1159 2731 1159 2009 
Q 1159 1288 1364 580 
Q 1569 -128 1984 -844 
L 1484 -844 
Q 1016 -109 783 600 
Q 550 1309 550 2009 
Q 550 2706 781 3412 
Q 1013 4119 1484 4856 
L 1984 4856 
z
" transform="scale(0.015625)"/>
       <path id="DejaVuSans-45" d="M 628 4666 
L 3578 4666 
L 3578 4134 
L 1259 4134 
L 1259 2753 
L 3481 2753 
L 3481 2222 
L 1259 2222 
L 1259 531 
L 3634 531 
L 3634 0 
L 628 0 
L 628 4666 
z
" transform="scale(0.015625)"/>
       <path id="DejaVuSans-66" d="M 2375 4863 
L 2375 4384 
L 1825 4384 
Q 1516 4384 1395 4259 
Q 1275 4134 1275 3809 
L 1275 3500 
L 2222 3500 
L 2222 3053 
L 1275 3053 
L 1275 0 
L 697 0 
L 697 3053 
L 147 3053 
L 147 3500 
L 697 3500 
L 697 3744 
Q 697 4328 969 4595 
Q 1241 4863 1831 4863 
L 2375 4863 
z
" transform="scale(0.015625)"/>
       <path id="DejaVuSans-29" d="M 513 4856 
L 1013 4856 
Q 1481 4119 1714 3412 
Q 1947 2706 1947 2009 
Q 1947 1309 1714 600 
Q 1481 -109 1013 -844 
L 513 -844 
Q 928 -128 1133 580 
Q 1338 1288 1338 2009 
Q 1338 2731 1133 3434 
Q 928 4138 513 4856 
z
" transform="scale(0.015625)"/>
      </defs>
      <use xlink:href="#DejaVuSans-44"/>
      <use xlink:href="#DejaVuSans-65" transform="translate(77.001953 0)"/>
      <use xlink:href="#DejaVuSans-74" transform="translate(138.525391 0)"/>
      <use xlink:href="#DejaVuSans-65" transform="translate(177.734375 0)"/>
      <use xlink:href="#DejaVuSans-63" transform="translate(239.257812 0)"/>
      <use xlink:href="#DejaVuSans-74" transform="translate(294.238281 0)"/>
      <use xlink:href="#DejaVuSans-69" transform="translate(333.447266 0)"/>
      <use xlink:href="#DejaVuSans-6f" transform="translate(361.230469 0)"/>
      <use xlink:href="#DejaVuSans-6e" transform="translate(422.412109 0)"/>
      <use xlink:href="#DejaVuSans-20" transform="translate(485.791016 0)"/>
      <use xlink:href="#DejaVuSans-52" transform="translate(517.578125 0)"/>
      <use xlink:href="#DejaVuSans-61" transform="translate(584.810547 0)"/>
      <use xlink:href="#DejaVuSans-74" transform="translate(646.089844 0)"/>
      <use xlink:href="#DejaVuSans-69" transform="translate(685.298828 0)"/>
      <use xlink:href="#DejaVuSans-6f" transform="translate(713.082031 0)"/>
      <use xlink:href="#DejaVuSans-20" transform="translate(774.263672 0)"/>
      <use xlink:href="#DejaVuSans-28" transform="translate(806.050781 0)"/>
      <use xlink:href="#DejaVuSans-45" transform="translate(845.064453 0)"/>
      <use xlink:href="#DejaVuSans-66" transform="translate(908.248047 0)"/>
      <use xlink:href="#DejaVuSans-66" transform="translate(943.453125 0)"/>
      <use xlink:href="#DejaVuSans-69" transform="translate(978.658203 0)"/>
      <use xlink:href="#DejaVuSans-63" transform="translate(1006.441406 0)"/>
      <use xlink:href="#DejaVuSans-69" transform="translate(1061.421875 0)"/>
      <use xlink:href="#DejaVuSans-65" transform="translate(1089.205078 0)"/>
      <use xlink:href="#DejaVuSans-6e" transform="translate(1150.728516 0)"/>
      <use xlink:href="#DejaVuSans-63" transform="translate(1214.107422 0)"/>
      <use xlink:href="#DejaVuSans-79" transform="translate(1269.087891 0)"/>
      <use xlink:href="#DejaVuSans-29" transform="translate(1328.267578 0)"/>
     </g>
    </g>
   </g>
   <g id="line2d_35">
    <path d="M 64.072159 286.918125 
L 115.820786 286.918125 
L 118.544398 255.14353 
L 121.26801 232.570792 
L 129.438846 193.870148 
L 132.162458 187.339321 
L 134.88607 183.964183 
L 137.609682 180.241654 
L 140.333294 177.96882 
L 143.056906 176.379134 
L 145.780518 177.492253 
L 148.50413 176.399659 
L 151.227742 173.265078 
L 153.951354 173.88495 
L 156.674966 173.294603 
L 159.398578 177.05326 
L 162.12219 176.353911 
L 164.845802 173.194851 
L 167.569414 173.339084 
L 170.293025 172.125379 
L 173.016637 162.362251 
L 175.740249 161.239008 
L 178.463861 153.581059 
L 181.187473 151.07001 
L 183.911085 149.1706 
L 186.634697 145.329794 
L 189.358309 142.947298 
L 192.081921 142.662635 
L 194.805533 139.193987 
L 197.529145 138.663056 
L 200.252757 138.95604 
L 202.976369 137.027216 
L 205.699981 133.554154 
L 211.147205 135.904397 
L 213.870817 135.718125 
L 216.594429 131.007344 
L 219.318041 131.118989 
L 222.041653 128.986618 
L 224.765265 127.765723 
L 227.488877 124.303343 
L 230.212489 124.303343 
L 232.936101 121.631608 
L 235.659712 118.161588 
L 238.383324 115.201311 
L 241.106936 115.955782 
L 246.55416 114.603769 
L 249.277772 111.806943 
L 252.001384 107.679844 
L 254.724996 106.767623 
L 257.448608 107.010464 
L 260.17222 107.8957 
L 262.895832 109.631693 
L 268.343056 109.122345 
L 271.066668 105.774938 
L 273.79028 104.974125 
L 276.513892 102.432952 
L 279.237504 104.00636 
L 281.961116 103.415131 
L 284.684728 103.050623 
L 287.40834 105.598235 
L 290.131952 107.1318 
L 292.855564 106.119308 
L 295.579176 102.575209 
L 298.302788 97.650609 
L 301.026399 98.258666 
L 303.750011 96.742494 
L 306.473623 92.255204 
L 309.197235 91.413485 
L 311.920847 92.612075 
L 314.644459 92.713439 
L 317.368071 92.547896 
L 320.091683 94.144688 
L 322.815295 93.1365 
L 325.538907 95.026609 
L 328.262519 88.331168 
L 330.986131 91.734076 
L 333.709743 89.665729 
L 336.433355 88.546224 
L 339.156967 89.907816 
L 344.604191 95.606198 
L 347.327803 97.673939 
L 350.051415 101.068125 
L 352.775027 104.757373 
L 355.498639 114.197537 
L 360.945863 112.306152 
L 363.669475 113.596207 
L 366.393086 109.960083 
L 369.116698 111.580776 
L 371.84031 115.588857 
L 374.563922 115.873899 
L 377.287534 106.457767 
L 380.011146 105.028361 
L 382.734758 107.290026 
L 385.45837 109.951833 
L 388.181982 109.673227 
L 390.905594 105.296503 
L 393.629206 102.59924 
L 396.352818 108.579663 
L 399.07643 100.87125 
L 401.800042 95.852551 
L 404.523654 90.043125 
L 407.247266 93.673444 
L 409.970878 94.929074 
L 412.69449 96.009034 
L 415.418102 92.60778 
L 418.141714 91.443817 
L 420.865326 92.359301 
L 423.588938 91.785382 
L 426.31255 89.3002 
L 429.036162 90.815184 
L 431.759773 99.789412 
L 434.483385 94.060982 
L 437.206997 89.012366 
L 439.930609 89.832564 
L 442.654221 91.155413 
L 445.377833 97.918125 
L 448.101445 95.668125 
L 450.825057 99.464137 
L 453.548669 101.396653 
L 456.272281 103.824375 
L 458.995893 93.222473 
L 461.719505 93.363908 
L 464.443117 99.092038 
L 467.166729 98.736307 
L 469.890341 100.018125 
L 469.890341 100.018125 
" clip-path="url(#p8180b5a0a3)" style="fill: none; stroke: #1f77b4; stroke-width: 1.5; stroke-linecap: square"/>
   </g>
   <g id="line2d_36">
    <path d="M 64.072159 286.918125 
L 115.820786 286.918125 
L 118.544398 246.066563 
L 121.26801 221.584792 
L 123.991622 206.193891 
L 126.715234 195.843854 
L 129.438846 187.08858 
L 132.162458 181.415733 
L 134.88607 182.280194 
L 137.609682 182.476042 
L 140.333294 182.458805 
L 143.056906 183.356481 
L 145.780518 179.73476 
L 148.50413 181.356628 
L 151.227742 184.066463 
L 153.951354 183.485289 
L 156.674966 184.742492 
L 159.398578 184.626774 
L 162.12219 180.608514 
L 164.845802 180.051126 
L 167.569414 181.198947 
L 170.293025 179.055758 
L 173.016637 173.047791 
L 175.740249 167.734386 
L 178.463861 165.321777 
L 181.187473 161.589178 
L 183.911085 154.903246 
L 186.634697 154.34687 
L 189.358309 154.155845 
L 192.081921 148.939786 
L 194.805533 147.812286 
L 200.252757 146.225679 
L 202.976369 144.870593 
L 205.699981 142.929154 
L 208.423593 141.875207 
L 211.147205 146.83213 
L 213.870817 143.383642 
L 216.594429 146.334792 
L 219.318041 145.671196 
L 222.041653 144.235882 
L 224.765265 142.47717 
L 227.488877 139.206261 
L 230.212489 140.570299 
L 232.936101 135.988921 
L 235.659712 138.030633 
L 238.383324 136.523388 
L 241.106936 131.896099 
L 243.830548 126.224209 
L 246.55416 122.263614 
L 249.277772 122.22165 
L 252.001384 120.831024 
L 254.724996 114.81127 
L 257.448608 112.486076 
L 260.17222 109.554238 
L 262.895832 110.75804 
L 265.619444 111.026405 
L 271.066668 110.909256 
L 273.79028 109.83324 
L 276.513892 111.520398 
L 279.237504 108.038035 
L 281.961116 109.032917 
L 284.684728 108.541654 
L 287.40834 108.493304 
L 292.855564 101.501802 
L 295.579176 100.527592 
L 298.302788 101.003177 
L 301.026399 100.148213 
L 303.750011 101.859195 
L 306.473623 100.662333 
L 309.197235 96.467069 
L 311.920847 95.326548 
L 314.644459 93.853609 
L 317.368071 97.527629 
L 320.091683 96.710457 
L 322.815295 98.054489 
L 325.538907 91.43693 
L 328.262519 88.584792 
L 330.986131 85.918125 
L 333.709743 88.98414 
L 336.433355 94.660874 
L 339.156967 93.879663 
L 341.880579 97.338624 
L 344.604191 102.559326 
L 347.327803 100.381812 
L 350.051415 102.418125 
L 352.775027 103.320741 
L 355.498639 106.242449 
L 358.222251 102.467576 
L 360.945863 103.863489 
L 363.669475 106.542499 
L 366.393086 105.538227 
L 369.116698 101.59127 
L 371.84031 91.806185 
L 374.563922 93.165707 
L 377.287534 95.205796 
L 380.011146 96.682831 
L 382.734758 99.808125 
L 385.45837 97.531622 
L 388.181982 97.395303 
L 390.905594 97.650609 
L 393.629206 93.497072 
L 396.352818 99.451311 
L 399.07643 98.192635 
L 401.800042 104.175461 
L 404.523654 100.848358 
L 407.247266 103.168125 
L 409.970878 102.658416 
L 412.69449 101.107998 
L 415.418102 102.150683 
L 418.141714 103.93404 
L 420.865326 100.347877 
L 423.588938 98.092158 
L 426.31255 98.274057 
L 429.036162 94.979349 
L 431.759773 97.734452 
L 434.483385 102.458666 
L 437.206997 101.223681 
L 439.930609 101.328953 
L 442.654221 103.341966 
L 445.377833 106.615095 
L 448.101445 115.199375 
L 450.825057 113.391809 
L 453.548669 102.885867 
L 456.272281 100.677249 
L 458.995893 94.352087 
L 461.719505 94.085425 
L 464.443117 91.443817 
L 467.166729 98.173186 
L 469.890341 101.247393 
L 469.890341 101.247393 
" clip-path="url(#p8180b5a0a3)" style="fill: none; stroke: #ff7f0e; stroke-width: 1.5; stroke-linecap: square"/>
   </g>
   <g id="line2d_37">
    <path d="M 64.072159 286.918125 
L 115.820786 286.918125 
L 118.544398 274.480108 
L 121.26801 265.848761 
L 123.991622 259.690107 
L 126.715234 254.339213 
L 132.162458 249.932873 
L 134.88607 246.871613 
L 137.609682 246.843289 
L 140.333294 245.973584 
L 143.056906 245.256835 
L 148.50413 245.44165 
L 151.227742 244.918125 
L 153.951354 245.489102 
L 156.674966 245.591039 
L 159.398578 247.599617 
L 162.12219 248.008909 
L 164.845802 248.832064 
L 170.293025 248.53809 
L 173.016637 242.971784 
L 175.740249 238.508708 
L 178.463861 233.719788 
L 181.187473 229.279827 
L 183.911085 224.407532 
L 186.634697 220.851819 
L 189.358309 216.211474 
L 192.081921 211.16921 
L 194.805533 207.053557 
L 197.529145 204.208192 
L 200.252757 199.016688 
L 202.976369 194.849961 
L 205.699981 189.81475 
L 208.423593 185.492102 
L 211.147205 180.078102 
L 213.870817 173.955162 
L 216.594429 167.118611 
L 219.318041 159.922864 
L 222.041653 153.489271 
L 224.765265 145.991371 
L 227.488877 132.47968 
L 230.212489 120.572479 
L 232.936101 113.860274 
L 235.659712 102.972716 
L 243.830548 80.586247 
L 246.55416 76.699147 
L 249.277772 73.850319 
L 252.001384 69.942601 
L 254.724996 68.450383 
L 257.448608 67.222644 
L 260.17222 67.045098 
L 262.895832 63.450734 
L 265.619444 61.986566 
L 268.343056 61.265426 
L 271.066668 59.492975 
L 273.79028 54.78247 
L 276.513892 52.570299 
L 279.237504 56.9488 
L 281.961116 56.869581 
L 284.684728 55.489554 
L 287.40834 53.487337 
L 290.131952 54.038748 
L 292.855564 50.235433 
L 295.579176 49.741654 
L 298.302788 45.74625 
L 301.026399 43.414836 
L 303.750011 43.965997 
L 306.473623 47.447865 
L 309.197235 48.017135 
L 311.920847 51.49015 
L 314.644459 53.455736 
L 317.368071 54.541076 
L 320.091683 50.668125 
L 322.815295 48.56251 
L 325.538907 52.867846 
L 328.262519 46.962243 
L 330.986131 50.668125 
L 333.709743 53.508289 
L 336.433355 53.66553 
L 339.156967 52.099943 
L 341.880579 52.780194 
L 344.604191 54.682831 
L 347.327803 53.250092 
L 350.051415 52.687356 
L 352.775027 56.781139 
L 358.222251 47.453839 
L 360.945863 52.418125 
L 363.669475 51.640347 
L 366.393086 54.706587 
L 369.116698 55.624419 
L 371.84031 55.59 
L 374.563922 58.991296 
L 377.287534 53.293125 
L 380.011146 52.758833 
L 382.734758 61.505281 
L 385.45837 63.179807 
L 388.181982 69.568125 
L 390.905594 64.363777 
L 393.629206 58.456587 
L 396.352818 53.447537 
L 399.07643 39.702935 
L 401.800042 34.918125 
L 404.523654 36.644152 
L 407.247266 43.509034 
L 409.970878 44.213207 
L 412.69449 58.814677 
L 415.418102 69.676746 
L 418.141714 78.899257 
L 420.865326 88.584792 
L 423.588938 102.672842 
L 426.31255 111.245048 
L 429.036162 102.672842 
L 431.759773 108.616238 
L 434.483385 113.346696 
L 437.206997 76.918125 
L 439.930609 70.355625 
L 442.654221 72.145398 
L 445.377833 59.825102 
L 448.101445 56.43032 
L 450.825057 74.476265 
L 453.548669 64.113247 
L 456.272281 60.764279 
L 458.995893 55.300478 
L 461.719505 55.300478 
L 464.443117 63.369738 
L 467.166729 66.418125 
L 469.890341 65.251458 
L 469.890341 65.251458 
" clip-path="url(#p8180b5a0a3)" style="fill: none; stroke: #2ca02c; stroke-width: 1.5; stroke-linecap: square"/>
   </g>
   <g id="line2d_38">
    <path d="M 64.072159 286.918125 
L 115.820786 286.918125 
L 118.544398 261.889055 
L 121.26801 251.677161 
L 123.991622 242.057444 
L 126.715234 236.518125 
L 129.438846 229.086094 
L 132.162458 225.614575 
L 134.88607 226.614071 
L 137.609682 223.460181 
L 140.333294 221.957036 
L 143.056906 223.232722 
L 145.780518 223.008957 
L 148.50413 221.251192 
L 151.227742 219.199024 
L 153.951354 219.433826 
L 156.674966 221.781822 
L 162.12219 225.311606 
L 164.845802 225.170472 
L 167.569414 228.700848 
L 170.293025 228.422594 
L 173.016637 221.34303 
L 175.740249 215.129451 
L 178.463861 212.312862 
L 181.187473 209.160628 
L 183.911085 206.618724 
L 186.634697 201.872081 
L 189.358309 197.609283 
L 192.081921 191.963486 
L 197.529145 184.801322 
L 200.252757 180.889973 
L 202.976369 178.002438 
L 205.699981 172.861982 
L 208.423593 170.953752 
L 211.147205 168.303792 
L 219.318041 154.048881 
L 222.041653 150.54961 
L 224.765265 146.758889 
L 227.488877 138.760722 
L 230.212489 134.054877 
L 232.936101 129.88227 
L 235.659712 128.141529 
L 238.383324 126.771066 
L 241.106936 119.510316 
L 243.830548 116.226725 
L 246.55416 114.041175 
L 249.277772 113.072894 
L 252.001384 111.635867 
L 254.724996 110.639279 
L 257.448608 107.776113 
L 260.17222 105.878723 
L 262.895832 102.925932 
L 265.619444 98.700448 
L 268.343056 96.096207 
L 271.066668 96.122401 
L 273.79028 98.330901 
L 276.513892 97.22051 
L 279.237504 100.332759 
L 281.961116 101.263258 
L 284.684728 104.473374 
L 287.40834 103.043953 
L 290.131952 102.754739 
L 292.855564 99.050992 
L 295.579176 97.786326 
L 298.302788 101.523957 
L 301.026399 101.355764 
L 303.750011 101.49767 
L 306.473623 98.586757 
L 309.197235 97.461603 
L 311.920847 101.250619 
L 314.644459 104.63594 
L 317.368071 105.554489 
L 320.091683 110.73888 
L 322.815295 111.486026 
L 325.538907 107.430946 
L 328.262519 107.575059 
L 330.986131 106.380812 
L 333.709743 103.610315 
L 336.433355 102.192762 
L 339.156967 103.080332 
L 341.880579 100.191321 
L 344.604191 100.251458 
L 347.327803 96.215422 
L 350.051415 95.229813 
L 352.775027 106.310017 
L 355.498639 108.482542 
L 358.222251 115.28351 
L 360.945863 117.460424 
L 363.669475 114.199024 
L 366.393086 119.256835 
L 369.116698 119.364934 
L 371.84031 125.28328 
L 374.563922 125.668125 
L 377.287534 123.859301 
L 380.011146 124.53149 
L 382.734758 119.38136 
L 385.45837 116.818125 
L 388.181982 118.486248 
L 390.905594 113.181012 
L 393.629206 111.358125 
L 396.352818 111.730959 
L 399.07643 112.40289 
L 401.800042 108.300807 
L 404.523654 100.618125 
L 407.247266 94.265951 
L 409.970878 93.071971 
L 412.69449 86.823785 
L 415.418102 84.268125 
L 418.141714 86.952255 
L 420.865326 86.04856 
L 426.31255 93.891809 
L 429.036162 90.348358 
L 431.759773 85.21852 
L 434.483385 86.46358 
L 437.206997 87.327608 
L 439.930609 85.548262 
L 442.654221 90.418125 
L 445.377833 93.657255 
L 448.101445 86.893125 
L 450.825057 86.312862 
L 453.548669 92.944441 
L 456.272281 98.962324 
L 458.995893 102.141589 
L 461.719505 113.31017 
L 464.443117 107.420918 
L 467.166729 110.168125 
L 469.890341 114.786977 
L 469.890341 114.786977 
" clip-path="url(#p8180b5a0a3)" style="fill: none; stroke: #d62728; stroke-width: 1.5; stroke-linecap: square"/>
   </g>
   <g id="line2d_39">
    <path d="M 64.072159 286.918125 
L 115.820786 286.918125 
L 118.544398 267.258551 
L 121.26801 254.180482 
L 123.991622 246.366401 
L 126.715234 241.965344 
L 129.438846 239.563225 
L 132.162458 237.580776 
L 134.88607 237.545084 
L 137.609682 238.248597 
L 140.333294 239.545078 
L 143.056906 240.665905 
L 145.780518 239.243386 
L 148.50413 239.836274 
L 151.227742 240.875079 
L 153.951354 241.684561 
L 156.674966 242.244475 
L 159.398578 243.719459 
L 162.12219 244.771784 
L 164.845802 246.011731 
L 167.569414 247.57955 
L 170.293025 247.809564 
L 173.016637 242.2983 
L 175.740249 237.059545 
L 178.463861 233.796578 
L 181.187473 231.102477 
L 183.911085 227.658355 
L 186.634697 225.341504 
L 189.358309 222.336535 
L 192.081921 220.379663 
L 194.805533 217.410366 
L 197.529145 214.10252 
L 200.252757 210.365262 
L 202.976369 207.934214 
L 205.699981 203.202978 
L 208.423593 200.433392 
L 211.147205 197.946162 
L 213.870817 193.60334 
L 216.594429 190.288715 
L 219.318041 186.74638 
L 222.041653 184.324312 
L 224.765265 180.79513 
L 230.212489 168.149289 
L 232.936101 163.41546 
L 235.659712 157.115836 
L 238.383324 153.50104 
L 241.106936 150.721047 
L 243.830548 147.740687 
L 246.55416 143.782946 
L 249.277772 139.291259 
L 252.001384 136.375956 
L 254.724996 131.100661 
L 257.448608 127.271095 
L 260.17222 121.221696 
L 262.895832 116.824841 
L 265.619444 113.518794 
L 268.343056 107.778995 
L 273.79028 94.977588 
L 276.513892 89.881972 
L 279.237504 88.409541 
L 281.961116 85.195152 
L 284.684728 82.709492 
L 290.131952 80.065264 
L 292.855564 77.818125 
L 295.579176 73.820465 
L 298.302788 74.686457 
L 301.026399 72.503352 
L 303.750011 73.796841 
L 306.473623 73.49278 
L 309.197235 72.784267 
L 311.920847 71.529775 
L 314.644459 74.821121 
L 317.368071 71.842596 
L 320.091683 72.879663 
L 322.815295 71.114105 
L 325.538907 74.695903 
L 328.262519 74.787129 
L 330.986131 78.561961 
L 333.709743 71.876371 
L 336.433355 71.097726 
L 339.156967 67.819764 
L 341.880579 71.270203 
L 344.604191 75.315072 
L 347.327803 74.672136 
L 350.051415 75.467849 
L 352.775027 76.609301 
L 355.498639 76.598003 
L 358.222251 80.956587 
L 360.945863 80.833379 
L 363.669475 83.797435 
L 366.393086 79.983818 
L 369.116698 83.233914 
L 371.84031 80.713306 
L 374.563922 78.793125 
L 377.287534 81.483342 
L 380.011146 81.203839 
L 382.734758 83.094596 
L 385.45837 83.918125 
L 388.181982 84.418125 
L 390.905594 88.074375 
L 393.629206 91.32989 
L 396.352818 95.447537 
L 399.07643 96.203839 
L 401.800042 97.918125 
L 404.523654 94.675478 
L 407.247266 99.360873 
L 409.970878 101.918125 
L 412.69449 97.918125 
L 415.418102 91.785382 
L 418.141714 97.334792 
L 420.865326 98.535772 
L 423.588938 80.099943 
L 426.31255 79.152168 
L 429.036162 72.30274 
L 431.759773 74.293125 
L 434.483385 71.391809 
L 437.206997 79.794837 
L 439.930609 79.918125 
L 442.654221 76.918125 
L 445.377833 71.918125 
L 448.101445 73.358803 
L 450.825057 82.444441 
L 453.548669 80.538815 
L 456.272281 92.668125 
L 458.995893 94.418125 
L 461.719505 72.718125 
L 464.443117 91.618125 
L 467.166729 92.556423 
L 469.890341 82.168125 
L 469.890341 82.168125 
" clip-path="url(#p8180b5a0a3)" style="fill: none; stroke: #9467bd; stroke-width: 1.5; stroke-linecap: square"/>
   </g>
   <g id="line2d_40">
    <path d="M 64.072159 286.918125 
L 115.820786 286.918125 
L 118.544398 273.114754 
L 121.26801 264.109906 
L 123.991622 258.887288 
L 126.715234 256.442312 
L 129.438846 253.640267 
L 132.162458 252.63931 
L 134.88607 252.752452 
L 137.609682 253.125022 
L 140.333294 251.438673 
L 143.056906 251.032049 
L 145.780518 249.388559 
L 148.50413 249.415129 
L 151.227742 250.011409 
L 153.951354 251.004663 
L 159.398578 251.1748 
L 162.12219 250.488321 
L 167.569414 250.805566 
L 170.293025 251.541687 
L 173.016637 246.134479 
L 175.740249 241.49118 
L 178.463861 237.596622 
L 181.187473 234.719364 
L 186.634697 227.275268 
L 189.358309 224.405054 
L 192.081921 221.196618 
L 194.805533 218.455697 
L 197.529145 214.583153 
L 202.976369 208.111293 
L 205.699981 204.222889 
L 208.423593 201.300276 
L 211.147205 197.142711 
L 213.870817 194.221041 
L 216.594429 191.997424 
L 219.318041 189.118646 
L 222.041653 185.69825 
L 224.765265 182.53769 
L 227.488877 174.915881 
L 230.212489 168.819533 
L 232.936101 164.418125 
L 235.659712 157.497729 
L 238.383324 153.003916 
L 241.106936 149.867722 
L 243.830548 142.249488 
L 246.55416 137.569441 
L 249.277772 131.681686 
L 252.001384 125.086101 
L 254.724996 119.619924 
L 257.448608 115.436842 
L 260.17222 110.137801 
L 265.619444 97.646907 
L 268.343056 93.489743 
L 271.066668 91.332759 
L 273.79028 88.412208 
L 276.513892 82.994514 
L 279.237504 79.769977 
L 281.961116 76.918125 
L 284.684728 76.038237 
L 287.40834 74.432918 
L 290.131952 72.309975 
L 292.855564 68.433277 
L 295.579176 68.106936 
L 298.302788 67.132231 
L 301.026399 63.98849 
L 303.750011 66.953536 
L 306.473623 66.039747 
L 311.920847 68.01982 
L 314.644459 68.623691 
L 317.368071 68.334475 
L 320.091683 64.639899 
L 322.815295 62.014899 
L 325.538907 62.85346 
L 328.262519 65.337243 
L 330.986131 66.50037 
L 333.709743 69.918125 
L 336.433355 75.405157 
L 339.156967 77.855625 
L 341.880579 75.601511 
L 344.604191 75.21358 
L 347.327803 73.055249 
L 350.051415 68.755581 
L 352.775027 69.474095 
L 355.498639 62.464684 
L 358.222251 58.44173 
L 360.945863 60.060327 
L 363.669475 60.418125 
L 366.393086 63.855924 
L 369.116698 65.781761 
L 371.84031 68.584792 
L 374.563922 69.918125 
L 377.287534 73.168125 
L 380.011146 72.236596 
L 382.734758 60.710071 
L 385.45837 68.841202 
L 388.181982 73.82989 
L 390.905594 80.052453 
L 393.629206 76.918125 
L 396.352818 73.358803 
L 399.07643 73.168125 
L 401.800042 79.918125 
L 404.523654 72.718125 
L 407.247266 71.211603 
L 409.970878 68.271066 
L 412.69449 70.813474 
L 415.418102 70.355625 
L 418.141714 57.827216 
L 420.865326 48.539747 
L 423.588938 47.34066 
L 426.31255 54.30274 
L 429.036162 55.59 
L 431.759773 45.418125 
L 437.206997 72.955861 
L 439.930609 85.318125 
L 442.654221 90.043125 
L 445.377833 85.854295 
L 448.101445 74.635516 
L 450.825057 89.127427 
L 453.548669 84.418125 
L 456.272281 71.796174 
L 458.995893 76.918125 
L 461.719505 69.418125 
L 464.443117 74.080287 
L 467.166729 94.418125 
L 469.890341 94.418125 
L 469.890341 94.418125 
" clip-path="url(#p8180b5a0a3)" style="fill: none; stroke: #8c564b; stroke-width: 1.5; stroke-linecap: square"/>
   </g>
   <g id="patch_3">
    <path d="M 43.78125 299.518125 
L 43.78125 22.318125 
" style="fill: none; stroke: #000000; stroke-width: 0.8; stroke-linejoin: miter; stroke-linecap: square"/>
   </g>
   <g id="patch_4">
    <path d="M 490.18125 299.518125 
L 490.18125 22.318125 
" style="fill: none; stroke: #000000; stroke-width: 0.8; stroke-linejoin: miter; stroke-linecap: square"/>
   </g>
   <g id="patch_5">
    <path d="M 43.78125 299.518125 
L 490.18125 299.518125 
" style="fill: none; stroke: #000000; stroke-width: 0.8; stroke-linejoin: miter; stroke-linecap: square"/>
   </g>
   <g id="patch_6">
    <path d="M 43.78125 22.318125 
L 490.18125 22.318125 
" style="fill: none; stroke: #000000; stroke-width: 0.8; stroke-linejoin: miter; stroke-linecap: square"/>
   </g>
   <g id="text_20">
    <!-- Detection Ratio: SBM-2k (Peak 40) -->
    <g transform="translate(163.664062 16.318125) scale(0.12 -0.12)">
     <defs>
      <path id="DejaVuSans-3a" d="M 750 794 
L 1409 794 
L 1409 0 
L 750 0 
L 750 794 
z
M 750 3309 
L 1409 3309 
L 1409 2516 
L 750 2516 
L 750 3309 
z
" transform="scale(0.015625)"/>
      <path id="DejaVuSans-42" d="M 1259 2228 
L 1259 519 
L 2272 519 
Q 2781 519 3026 730 
Q 3272 941 3272 1375 
Q 3272 1813 3026 2020 
Q 2781 2228 2272 2228 
L 1259 2228 
z
M 1259 4147 
L 1259 2741 
L 2194 2741 
Q 2656 2741 2882 2914 
Q 3109 3088 3109 3444 
Q 3109 3797 2882 3972 
Q 2656 4147 2194 4147 
L 1259 4147 
z
M 628 4666 
L 2241 4666 
Q 2963 4666 3353 4366 
Q 3744 4066 3744 3513 
Q 3744 3084 3544 2831 
Q 3344 2578 2956 2516 
Q 3422 2416 3680 2098 
Q 3938 1781 3938 1306 
Q 3938 681 3513 340 
Q 3088 0 2303 0 
L 628 0 
L 628 4666 
z
" transform="scale(0.015625)"/>
      <path id="DejaVuSans-4d" d="M 628 4666 
L 1569 4666 
L 2759 1491 
L 3956 4666 
L 4897 4666 
L 4897 0 
L 4281 0 
L 4281 4097 
L 3078 897 
L 2444 897 
L 1241 4097 
L 1241 0 
L 628 0 
L 628 4666 
z
" transform="scale(0.015625)"/>
      <path id="DejaVuSans-2d" d="M 313 2009 
L 1997 2009 
L 1997 1497 
L 313 1497 
L 313 2009 
z
" transform="scale(0.015625)"/>
      <path id="DejaVuSans-6b" d="M 581 4863 
L 1159 4863 
L 1159 1991 
L 2875 3500 
L 3609 3500 
L 1753 1863 
L 3688 0 
L 2938 0 
L 1159 1709 
L 1159 0 
L 581 0 
L 581 4863 
z
" transform="scale(0.015625)"/>
      <path id="DejaVuSans-50" d="M 1259 4147 
L 1259 2394 
L 2053 2394 
Q 2494 2394 2734 2622 
Q 2975 2850 2975 3272 
Q 2975 3691 2734 3919 
Q 2494 4147 2053 4147 
L 1259 4147 
z
M 628 4666 
L 2053 4666 
Q 2838 4666 3239 4311 
Q 3641 3956 3641 3272 
Q 3641 2581 3239 2228 
Q 2838 1875 2053 1875 
L 1259 1875 
L 1259 0 
L 628 0 
L 628 4666 
z
" transform="scale(0.015625)"/>
     </defs>
     <use xlink:href="#DejaVuSans-44"/>
     <use xlink:href="#DejaVuSans-65" transform="translate(77.001953 0)"/>
     <use xlink:href="#DejaVuSans-74" transform="translate(138.525391 0)"/>
     <use xlink:href="#DejaVuSans-65" transform="translate(177.734375 0)"/>
     <use xlink:href="#DejaVuSans-63" transform="translate(239.257812 0)"/>
     <use xlink:href="#DejaVuSans-74" transform="translate(294.238281 0)"/>
     <use xlink:href="#DejaVuSans-69" transform="translate(333.447266 0)"/>
     <use xlink:href="#DejaVuSans-6f" transform="translate(361.230469 0)"/>
     <use xlink:href="#DejaVuSans-6e" transform="translate(422.412109 0)"/>
     <use xlink:href="#DejaVuSans-20" transform="translate(485.791016 0)"/>
     <use xlink:href="#DejaVuSans-52" transform="translate(517.578125 0)"/>
     <use xlink:href="#DejaVuSans-61" transform="translate(584.810547 0)"/>
     <use xlink:href="#DejaVuSans-74" transform="translate(646.089844 0)"/>
     <use xlink:href="#DejaVuSans-69" transform="translate(685.298828 0)"/>
     <use xlink:href="#DejaVuSans-6f" transform="translate(713.082031 0)"/>
     <use xlink:href="#DejaVuSans-3a" transform="translate(774.263672 0)"/>
     <use xlink:href="#DejaVuSans-20" transform="translate(807.955078 0)"/>
     <use xlink:href="#DejaVuSans-53" transform="translate(839.742188 0)"/>
     <use xlink:href="#DejaVuSans-42" transform="translate(903.21875 0)"/>
     <use xlink:href="#DejaVuSans-4d" transform="translate(971.822266 0)"/>
     <use xlink:href="#DejaVuSans-2d" transform="translate(1058.101562 0)"/>
     <use xlink:href="#DejaVuSans-32" transform="translate(1094.185547 0)"/>
     <use xlink:href="#DejaVuSans-6b" transform="translate(1157.808594 0)"/>
     <use xlink:href="#DejaVuSans-20" transform="translate(1215.71875 0)"/>
     <use xlink:href="#DejaVuSans-28" transform="translate(1247.505859 0)"/>
     <use xlink:href="#DejaVuSans-50" transform="translate(1286.519531 0)"/>
     <use xlink:href="#DejaVuSans-65" transform="translate(1343.197266 0)"/>
     <use xlink:href="#DejaVuSans-61" transform="translate(1404.720703 0)"/>
     <use xlink:href="#DejaVuSans-6b" transform="translate(1466 0)"/>
     <use xlink:href="#DejaVuSans-20" transform="translate(1523.910156 0)"/>
     <use xlink:href="#DejaVuSans-34" transform="translate(1555.697266 0)"/>
     <use xlink:href="#DejaVuSans-30" transform="translate(1619.320312 0)"/>
     <use xlink:href="#DejaVuSans-29" transform="translate(1682.943359 0)"/>
    </g>
   </g>
   <g id="legend_1">
    <g id="patch_7">
     <path d="M 50.08125 108.78 
L 156.426094 108.78 
Q 158.226094 108.78 158.226094 106.98 
L 158.226094 28.618125 
Q 158.226094 26.818125 156.426094 26.818125 
L 50.08125 26.818125 
Q 48.28125 26.818125 48.28125 28.618125 
L 48.28125 106.98 
Q 48.28125 108.78 50.08125 108.78 
z
" style="fill: #ffffff; opacity: 0.8; stroke: #cccccc; stroke-linejoin: miter"/>
    </g>
    <g id="line2d_41">
     <path d="M 51.88125 34.106719 
L 60.88125 34.106719 
L 69.88125 34.106719 
" style="fill: none; stroke: #1f77b4; stroke-width: 1.5; stroke-linecap: square"/>
    </g>
    <g id="text_21">
     <!-- LocalGNTS-14 -->
     <g transform="translate(77.08125 37.256719) scale(0.09 -0.09)">
      <defs>
       <path id="DejaVuSans-4c" d="M 628 4666 
L 1259 4666 
L 1259 531 
L 3531 531 
L 3531 0 
L 628 0 
L 628 4666 
z
" transform="scale(0.015625)"/>
       <path id="DejaVuSans-47" d="M 3809 666 
L 3809 1919 
L 2778 1919 
L 2778 2438 
L 4434 2438 
L 4434 434 
Q 4069 175 3628 42 
Q 3188 -91 2688 -91 
Q 1594 -91 976 548 
Q 359 1188 359 2328 
Q 359 3472 976 4111 
Q 1594 4750 2688 4750 
Q 3144 4750 3555 4637 
Q 3966 4525 4313 4306 
L 4313 3634 
Q 3963 3931 3569 4081 
Q 3175 4231 2741 4231 
Q 1884 4231 1454 3753 
Q 1025 3275 1025 2328 
Q 1025 1384 1454 906 
Q 1884 428 2741 428 
Q 3075 428 3337 486 
Q 3600 544 3809 666 
z
" transform="scale(0.015625)"/>
       <path id="DejaVuSans-4e" d="M 628 4666 
L 1478 4666 
L 3547 763 
L 3547 4666 
L 4159 4666 
L 4159 0 
L 3309 0 
L 1241 3903 
L 1241 0 
L 628 0 
L 628 4666 
z
" transform="scale(0.015625)"/>
       <path id="DejaVuSans-54" d="M -19 4666 
L 3928 4666 
L 3928 4134 
L 2272 4134 
L 2272 0 
L 1638 0 
L 1638 4134 
L -19 4134 
L -19 4666 
z
" transform="scale(0.015625)"/>
      </defs>
      <use xlink:href="#DejaVuSans-4c"/>
      <use xlink:href="#DejaVuSans-6f" transform="translate(53.962891 0)"/>
      <use xlink:href="#DejaVuSans-63" transform="translate(115.144531 0)"/>
      <use xlink:href="#DejaVuSans-61" transform="translate(170.125 0)"/>
      <use xlink:href="#DejaVuSans-6c" transform="translate(231.404297 0)"/>
      <use xlink:href="#DejaVuSans-47" transform="translate(259.1875 0)"/>
      <use xlink:href="#DejaVuSans-4e" transform="translate(336.677734 0)"/>
      <use xlink:href="#DejaVuSans-54" transform="translate(411.482422 0)"/>
      <use xlink:href="#DejaVuSans-53" transform="translate(472.566406 0)"/>
      <use xlink:href="#DejaVuSans-2d" transform="translate(536.042969 0)"/>
      <use xlink:href="#DejaVuSans-31" transform="translate(572.126953 0)"/>
      <use xlink:href="#DejaVuSans-34" transform="translate(635.75 0)"/>
     </g>
    </g>
    <g id="line2d_42">
     <path d="M 51.88125 47.317031 
L 60.88125 47.317031 
L 69.88125 47.317031 
" style="fill: none; stroke: #ff7f0e; stroke-width: 1.5; stroke-linecap: square"/>
    </g>
    <g id="text_22">
     <!-- GlobalGNTS-14 -->
     <g transform="translate(77.08125 50.467031) scale(0.09 -0.09)">
      <defs>
       <path id="DejaVuSans-62" d="M 3116 1747 
Q 3116 2381 2855 2742 
Q 2594 3103 2138 3103 
Q 1681 3103 1420 2742 
Q 1159 2381 1159 1747 
Q 1159 1113 1420 752 
Q 1681 391 2138 391 
Q 2594 391 2855 752 
Q 3116 1113 3116 1747 
z
M 1159 2969 
Q 1341 3281 1617 3432 
Q 1894 3584 2278 3584 
Q 2916 3584 3314 3078 
Q 3713 2572 3713 1747 
Q 3713 922 3314 415 
Q 2916 -91 2278 -91 
Q 1894 -91 1617 61 
Q 1341 213 1159 525 
L 1159 0 
L 581 0 
L 581 4863 
L 1159 4863 
L 1159 2969 
z
" transform="scale(0.015625)"/>
      </defs>
      <use xlink:href="#DejaVuSans-47"/>
      <use xlink:href="#DejaVuSans-6c" transform="translate(77.490234 0)"/>
      <use xlink:href="#DejaVuSans-6f" transform="translate(105.273438 0)"/>
      <use xlink:href="#DejaVuSans-62" transform="translate(166.455078 0)"/>
      <use xlink:href="#DejaVuSans-61" transform="translate(229.931641 0)"/>
      <use xlink:href="#DejaVuSans-6c" transform="translate(291.210938 0)"/>
      <use xlink:href="#DejaVuSans-47" transform="translate(318.994141 0)"/>
      <use xlink:href="#DejaVuSans-4e" transform="translate(396.484375 0)"/>
      <use xlink:href="#DejaVuSans-54" transform="translate(471.289062 0)"/>
      <use xlink:href="#DejaVuSans-53" transform="translate(532.373047 0)"/>
      <use xlink:href="#DejaVuSans-2d" transform="translate(595.849609 0)"/>
      <use xlink:href="#DejaVuSans-31" transform="translate(631.933594 0)"/>
      <use xlink:href="#DejaVuSans-34" transform="translate(695.556641 0)"/>
     </g>
    </g>
    <g id="line2d_43">
     <path d="M 51.88125 60.527344 
L 60.88125 60.527344 
L 69.88125 60.527344 
" style="fill: none; stroke: #2ca02c; stroke-width: 1.5; stroke-linecap: square"/>
    </g>
    <g id="text_23">
     <!-- Beta-Binomial-14 -->
     <g transform="translate(77.08125 63.677344) scale(0.09 -0.09)">
      <use xlink:href="#DejaVuSans-42"/>
      <use xlink:href="#DejaVuSans-65" transform="translate(68.603516 0)"/>
      <use xlink:href="#DejaVuSans-74" transform="translate(130.126953 0)"/>
      <use xlink:href="#DejaVuSans-61" transform="translate(169.335938 0)"/>
      <use xlink:href="#DejaVuSans-2d" transform="translate(230.615234 0)"/>
      <use xlink:href="#DejaVuSans-42" transform="translate(263.074219 0)"/>
      <use xlink:href="#DejaVuSans-69" transform="translate(331.677734 0)"/>
      <use xlink:href="#DejaVuSans-6e" transform="translate(359.460938 0)"/>
      <use xlink:href="#DejaVuSans-6f" transform="translate(422.839844 0)"/>
      <use xlink:href="#DejaVuSans-6d" transform="translate(484.021484 0)"/>
      <use xlink:href="#DejaVuSans-69" transform="translate(581.433594 0)"/>
      <use xlink:href="#DejaVuSans-61" transform="translate(609.216797 0)"/>
      <use xlink:href="#DejaVuSans-6c" transform="translate(670.496094 0)"/>
      <use xlink:href="#DejaVuSans-2d" transform="translate(698.279297 0)"/>
      <use xlink:href="#DejaVuSans-31" transform="translate(734.363281 0)"/>
      <use xlink:href="#DejaVuSans-34" transform="translate(797.986328 0)"/>
     </g>
    </g>
    <g id="line2d_44">
     <path d="M 51.88125 73.737656 
L 60.88125 73.737656 
L 69.88125 73.737656 
" style="fill: none; stroke: #d62728; stroke-width: 1.5; stroke-linecap: square"/>
    </g>
    <g id="text_24">
     <!-- Proportional -->
     <g transform="translate(77.08125 76.887656) scale(0.09 -0.09)">
      <defs>
       <path id="DejaVuSans-72" d="M 2631 2963 
Q 2534 3019 2420 3045 
Q 2306 3072 2169 3072 
Q 1681 3072 1420 2755 
Q 1159 2438 1159 1844 
L 1159 0 
L 581 0 
L 581 3500 
L 1159 3500 
L 1159 2956 
Q 1341 3275 1631 3429 
Q 1922 3584 2338 3584 
Q 2397 3584 2469 3576 
Q 2541 3569 2628 3553 
L 2631 2963 
z
" transform="scale(0.015625)"/>
       <path id="DejaVuSans-70" d="M 1159 525 
L 1159 -1331 
L 581 -1331 
L 581 3500 
L 1159 3500 
L 1159 2969 
Q 1341 3281 1617 3432 
Q 1894 3584 2278 3584 
Q 2916 3584 3314 3078 
Q 3713 2572 3713 1747 
Q 3713 922 3314 415 
Q 2916 -91 2278 -91 
Q 1894 -91 1617 61 
Q 1341 213 1159 525 
z
M 3116 1747 
Q 3116 2381 2855 2742 
Q 2594 3103 2138 3103 
Q 1681 3103 1420 2742 
Q 1159 2381 1159 1747 
Q 1159 1113 1420 752 
Q 1681 391 2138 391 
Q 2594 391 2855 752 
Q 3116 1113 3116 1747 
z
" transform="scale(0.015625)"/>
      </defs>
      <use xlink:href="#DejaVuSans-50"/>
      <use xlink:href="#DejaVuSans-72" transform="translate(58.552734 0)"/>
      <use xlink:href="#DejaVuSans-6f" transform="translate(97.416016 0)"/>
      <use xlink:href="#DejaVuSans-70" transform="translate(158.597656 0)"/>
      <use xlink:href="#DejaVuSans-6f" transform="translate(222.074219 0)"/>
      <use xlink:href="#DejaVuSans-72" transform="translate(283.255859 0)"/>
      <use xlink:href="#DejaVuSans-74" transform="translate(324.369141 0)"/>
      <use xlink:href="#DejaVuSans-69" transform="translate(363.578125 0)"/>
      <use xlink:href="#DejaVuSans-6f" transform="translate(391.361328 0)"/>
      <use xlink:href="#DejaVuSans-6e" transform="translate(452.542969 0)"/>
      <use xlink:href="#DejaVuSans-61" transform="translate(515.921875 0)"/>
      <use xlink:href="#DejaVuSans-6c" transform="translate(577.201172 0)"/>
     </g>
    </g>
    <g id="line2d_45">
     <path d="M 51.88125 86.947969 
L 60.88125 86.947969 
L 69.88125 86.947969 
" style="fill: none; stroke: #9467bd; stroke-width: 1.5; stroke-linecap: square"/>
    </g>
    <g id="text_25">
     <!-- Uniform -->
     <g transform="translate(77.08125 90.097969) scale(0.09 -0.09)">
      <defs>
       <path id="DejaVuSans-55" d="M 556 4666 
L 1191 4666 
L 1191 1831 
Q 1191 1081 1462 751 
Q 1734 422 2344 422 
Q 2950 422 3222 751 
Q 3494 1081 3494 1831 
L 3494 4666 
L 4128 4666 
L 4128 1753 
Q 4128 841 3676 375 
Q 3225 -91 2344 -91 
Q 1459 -91 1007 375 
Q 556 841 556 1753 
L 556 4666 
z
" transform="scale(0.015625)"/>
      </defs>
      <use xlink:href="#DejaVuSans-55"/>
      <use xlink:href="#DejaVuSans-6e" transform="translate(73.193359 0)"/>
      <use xlink:href="#DejaVuSans-69" transform="translate(136.572266 0)"/>
      <use xlink:href="#DejaVuSans-66" transform="translate(164.355469 0)"/>
      <use xlink:href="#DejaVuSans-6f" transform="translate(199.560547 0)"/>
      <use xlink:href="#DejaVuSans-72" transform="translate(260.742188 0)"/>
      <use xlink:href="#DejaVuSans-6d" transform="translate(300.105469 0)"/>
     </g>
    </g>
    <g id="line2d_46">
     <path d="M 51.88125 100.158281 
L 60.88125 100.158281 
L 69.88125 100.158281 
" style="fill: none; stroke: #8c564b; stroke-width: 1.5; stroke-linecap: square"/>
    </g>
    <g id="text_26">
     <!-- Random -->
     <g transform="translate(77.08125 103.308281) scale(0.09 -0.09)">
      <defs>
       <path id="DejaVuSans-64" d="M 2906 2969 
L 2906 4863 
L 3481 4863 
L 3481 0 
L 2906 0 
L 2906 525 
Q 2725 213 2448 61 
Q 2172 -91 1784 -91 
Q 1150 -91 751 415 
Q 353 922 353 1747 
Q 353 2572 751 3078 
Q 1150 3584 1784 3584 
Q 2172 3584 2448 3432 
Q 2725 3281 2906 2969 
z
M 947 1747 
Q 947 1113 1208 752 
Q 1469 391 1925 391 
Q 2381 391 2643 752 
Q 2906 1113 2906 1747 
Q 2906 2381 2643 2742 
Q 2381 3103 1925 3103 
Q 1469 3103 1208 2742 
Q 947 2381 947 1747 
z
" transform="scale(0.015625)"/>
      </defs>
      <use xlink:href="#DejaVuSans-52"/>
      <use xlink:href="#DejaVuSans-61" transform="translate(67.232422 0)"/>
      <use xlink:href="#DejaVuSans-6e" transform="translate(128.511719 0)"/>
      <use xlink:href="#DejaVuSans-64" transform="translate(191.890625 0)"/>
      <use xlink:href="#DejaVuSans-6f" transform="translate(255.367188 0)"/>
      <use xlink:href="#DejaVuSans-6d" transform="translate(316.548828 0)"/>
     </g>
    </g>
   </g>
  </g>
 </g>
 <defs>
  <clipPath id="p8180b5a0a3">
   <rect x="43.78125" y="22.318125" width="446.4" height="277.2"/>
  </clipPath>
 </defs>
</svg>
