<?xml version="1.0" encoding="utf-8" standalone="no"?>
<!DOCTYPE svg PUBLIC "-//W3C//DTD SVG 1.1//EN"
  "http://www.w3.org/Graphics/SVG/1.1/DTD/svg11.dtd">
<svg xmlns:xlink="http://www.w3.org/1999/xlink" width="460.8pt" height="345.6pt" viewBox="0 0 460.8 345.6" xmlns="http://www.w3.org/2000/svg" version="1.1">
 <metadata>
  <rdf:RDF xmlns:dc="http://purl.org/dc/elements/1.1/" xmlns:cc="http://creativecommons.org/ns#" xmlns:rdf="http://www.w3.org/1999/02/22-rdf-syntax-ns#">
   <cc:Work>
    <dc:type rdf:resource="http://purl.org/dc/dcmitype/StillImage"/>
    <dc:date>2026-04-06T19:14:01.352380</dc:date>
    <dc:format>image/svg+xml</dc:format>
    <dc:creator>
     <cc:Agent>
      <dc:title>Matplotlib v3.10.8, https://matplotlib.org/</dc:title>
     </cc:Agent>
    </dc:creator>
   </cc:Work>
  </rdf:RDF>
 </metadata>
 <defs>
  <style type="text/css">*{stroke-linejoin: round; stroke-linecap: butt}</style>
 </defs>
 <g id="figure_1">
  <g id="patch_1">
   <path d="M 0 345.6 
L 460.8 345.6 
L 460.8 0 
L 0 0 
z
" style="fill: #ffffff"/>
  </g>
  <g id="axes_1">
   <g id="patch_2">
    <path d="M 57.6 307.584 
L 414.72 307.584 
L 414.72 41.472 
L 57.6 41.472 
z
" style="fill: #ffffff"/>
   </g>
   <g id="matplotlib.axis_1">
    <g id="xtick_1">
     <g id="line2d_1">
      <defs>
       <path id="me322db84e4" d="M 0 0 
L 0 3.5 
" style="stroke: #000000; stroke-width: 0.8"/>
      </defs>
      <g>
       <use xlink:href="#me322db84e4" x="73.832727" y="307.584" style="stroke: #000000; stroke-width: 0.8"/>
      </g>
     </g>
     <g id="text_1">
      <!-- 0 -->
      <g transform="translate(70.651477 322.182437) scale(0.1 -0.1)">
       <defs>
        <path id="DejaVuSans-30" d="M 2034 4250 
Q 1547 4250 1301 3770 
Q 1056 3291 1056 2328 
Q 1056 1369 1301 889 
Q 1547 409 2034 409 
Q 2525 409 2770 889 
Q 3016 1369 3016 2328 
Q 3016 3291 2770 3770 
Q 2525 4250 2034 4250 
z
M 2034 4750 
Q 2819 4750 3233 4129 
Q 3647 3509 3647 2328 
Q 3647 1150 3233 529 
Q 2819 -91 2034 -91 
Q 1250 -91 836 529 
Q 422 1150 422 2328 
Q 422 3509 836 4129 
Q 1250 4750 2034 4750 
z
" transform="scale(0.015625)"/>
       </defs>
       <use xlink:href="#DejaVuSans-30"/>
      </g>
     </g>
    </g>
    <g id="xtick_2">
     <g id="line2d_2">
      <g>
       <use xlink:href="#me322db84e4" x="117.410519" y="307.584" style="stroke: #000000; stroke-width: 0.8"/>
      </g>
     </g>
     <g id="text_2">
      <!-- 20 -->
      <g transform="translate(111.048019 322.182437) scale(0.1 -0.1)">
       <defs>
        <path id="DejaVuSans-32" d="M 1228 531 
L 3431 531 
L 3431 0 
L 469 0 
L 469 531 
Q 828 903 1448 1529 
Q 2069 2156 2228 2338 
Q 2531 2678 2651 2914 
Q 2772 3150 2772 3378 
Q 2772 3750 2511 3984 
Q 2250 4219 1831 4219 
Q 1534 4219 1204 4116 
Q 875 4013 500 3803 
L 500 4441 
Q 881 4594 1212 4672 
Q 1544 4750 1819 4750 
Q 2544 4750 2975 4387 
Q 3406 4025 3406 3419 
Q 3406 3131 3298 2873 
Q 3191 2616 2906 2266 
Q 2828 2175 2409 1742 
Q 1991 1309 1228 531 
z
" transform="scale(0.015625)"/>
       </defs>
       <use xlink:href="#DejaVuSans-32"/>
       <use xlink:href="#DejaVuSans-30" transform="translate(63.623047 0)"/>
      </g>
     </g>
    </g>
    <g id="xtick_3">
     <g id="line2d_3">
      <g>
       <use xlink:href="#me322db84e4" x="160.98831" y="307.584" style="stroke: #000000; stroke-width: 0.8"/>
      </g>
     </g>
     <g id="text_3">
      <!-- 40 -->
      <g transform="translate(154.62581 322.182437) scale(0.1 -0.1)">
       <defs>
        <path id="DejaVuSans-34" d="M 2419 4116 
L 825 1625 
L 2419 1625 
L 2419 4116 
z
M 2253 4666 
L 3047 4666 
L 3047 1625 
L 3713 1625 
L 3713 1100 
L 3047 1100 
L 3047 0 
L 2419 0 
L 2419 1100 
L 313 1100 
L 313 1709 
L 2253 4666 
z
" transform="scale(0.015625)"/>
       </defs>
       <use xlink:href="#DejaVuSans-34"/>
       <use xlink:href="#DejaVuSans-30" transform="translate(63.623047 0)"/>
      </g>
     </g>
    </g>
    <g id="xtick_4">
     <g id="line2d_4">
      <g>
       <use xlink:href="#me322db84e4" x="204.566101" y="307.584" style="stroke: #000000; stroke-width: 0.8"/>
      </g>
     </g>
     <g id="text_4">
      <!-- 60 -->
      <g transform="translate(198.203601 322.182437) scale(0.1 -0.1)">
       <defs>
        <path id="DejaVuSans-36" d="M 2113 2584 
Q 1688 2584 1439 2293 
Q 1191 2003 1191 1497 
Q 1191 994 1439 701 
Q 1688 409 2113 409 
Q 2538 409 2786 701 
Q 3034 994 3034 1497 
Q 3034 2003 2786 2293 
Q 2538 2584 2113 2584 
z
M 3366 4563 
L 3366 3988 
Q 3128 4100 2886 4159 
Q 2644 4219 2406 4219 
Q 1781 4219 1451 3797 
Q 1122 3375 1075 2522 
Q 1259 2794 1537 2939 
Q 1816 3084 2150 3084 
Q 2853 3084 3261 2657 
Q 3669 2231 3669 1497 
Q 3669 778 3244 343 
Q 2819 -91 2113 -91 
Q 1303 -91 875 529 
Q 447 1150 447 2328 
Q 447 3434 972 4092 
Q 1497 4750 2381 4750 
Q 2619 4750 2861 4703 
Q 3103 4656 3366 4563 
z
" transform="scale(0.015625)"/>
       </defs>
       <use xlink:href="#DejaVuSans-36"/>
       <use xlink:href="#DejaVuSans-30" transform="translate(63.623047 0)"/>
      </g>
     </g>
    </g>
    <g id="xtick_5">
     <g id="line2d_5">
      <g>
       <use xlink:href="#me322db84e4" x="248.143893" y="307.584" style="stroke: #000000; stroke-width: 0.8"/>
      </g>
     </g>
     <g id="text_5">
      <!-- 80 -->
      <g transform="translate(241.781393 322.182437) scale(0.1 -0.1)">
       <defs>
        <path id="DejaVuSans-38" d="M 2034 2216 
Q 1584 2216 1326 1975 
Q 1069 1734 1069 1313 
Q 1069 891 1326 650 
Q 1584 409 2034 409 
Q 2484 409 2743 651 
Q 3003 894 3003 1313 
Q 3003 1734 2745 1975 
Q 2488 2216 2034 2216 
z
M 1403 2484 
Q 997 2584 770 2862 
Q 544 3141 544 3541 
Q 544 4100 942 4425 
Q 1341 4750 2034 4750 
Q 2731 4750 3128 4425 
Q 3525 4100 3525 3541 
Q 3525 3141 3298 2862 
Q 3072 2584 2669 2484 
Q 3125 2378 3379 2068 
Q 3634 1759 3634 1313 
Q 3634 634 3220 271 
Q 2806 -91 2034 -91 
Q 1263 -91 848 271 
Q 434 634 434 1313 
Q 434 1759 690 2068 
Q 947 2378 1403 2484 
z
M 1172 3481 
Q 1172 3119 1398 2916 
Q 1625 2713 2034 2713 
Q 2441 2713 2670 2916 
Q 2900 3119 2900 3481 
Q 2900 3844 2670 4047 
Q 2441 4250 2034 4250 
Q 1625 4250 1398 4047 
Q 1172 3844 1172 3481 
z
" transform="scale(0.015625)"/>
       </defs>
       <use xlink:href="#DejaVuSans-38"/>
       <use xlink:href="#DejaVuSans-30" transform="translate(63.623047 0)"/>
      </g>
     </g>
    </g>
    <g id="xtick_6">
     <g id="line2d_6">
      <g>
       <use xlink:href="#me322db84e4" x="291.721684" y="307.584" style="stroke: #000000; stroke-width: 0.8"/>
      </g>
     </g>
     <g id="text_6">
      <!-- 100 -->
      <g transform="translate(282.177934 322.182437) scale(0.1 -0.1)">
       <defs>
        <path id="DejaVuSans-31" d="M 794 531 
L 1825 531 
L 1825 4091 
L 703 3866 
L 703 4441 
L 1819 4666 
L 2450 4666 
L 2450 531 
L 3481 531 
L 3481 0 
L 794 0 
L 794 531 
z
" transform="scale(0.015625)"/>
       </defs>
       <use xlink:href="#DejaVuSans-31"/>
       <use xlink:href="#DejaVuSans-30" transform="translate(63.623047 0)"/>
       <use xlink:href="#DejaVuSans-30" transform="translate(127.246094 0)"/>
      </g>
     </g>
    </g>
    <g id="xtick_7">
     <g id="line2d_7">
      <g>
       <use xlink:href="#me322db84e4" x="335.299475" y="307.584" style="stroke: #000000; stroke-width: 0.8"/>
      </g>
     </g>
     <g id="text_7">
      <!-- 120 -->
      <g transform="translate(325.755725 322.182437) scale(0.1 -0.1)">
       <use xlink:href="#DejaVuSans-31"/>
       <use xlink:href="#DejaVuSans-32" transform="translate(63.623047 0)"/>
       <use xlink:href="#DejaVuSans-30" transform="translate(127.246094 0)"/>
      </g>
     </g>
    </g>
    <g id="xtick_8">
     <g id="line2d_8">
      <g>
       <use xlink:href="#me322db84e4" x="378.877267" y="307.584" style="stroke: #000000; stroke-width: 0.8"/>
      </g>
     </g>
     <g id="text_8">
      <!-- 140 -->
      <g transform="translate(369.333517 322.182437) scale(0.1 -0.1)">
       <use xlink:href="#DejaVuSans-31"/>
       <use xlink:href="#DejaVuSans-34" transform="translate(63.623047 0)"/>
       <use xlink:href="#DejaVuSans-30" transform="translate(127.246094 0)"/>
      </g>
     </g>
    </g>
    <g id="text_9">
     <!-- Day -->
     <g transform="translate(226.286563 335.860562) scale(0.1 -0.1)">
      <defs>
       <path id="DejaVuSans-44" d="M 1259 4147 
L 1259 519 
L 2022 519 
Q 2988 519 3436 956 
Q 3884 1394 3884 2338 
Q 3884 3275 3436 3711 
Q 2988 4147 2022 4147 
L 1259 4147 
z
M 628 4666 
L 1925 4666 
Q 3281 4666 3915 4102 
Q 4550 3538 4550 2338 
Q 4550 1131 3912 565 
Q 3275 0 1925 0 
L 628 0 
L 628 4666 
z
" transform="scale(0.015625)"/>
       <path id="DejaVuSans-61" d="M 2194 1759 
Q 1497 1759 1228 1600 
Q 959 1441 959 1056 
Q 959 750 1161 570 
Q 1363 391 1709 391 
Q 2188 391 2477 730 
Q 2766 1069 2766 1631 
L 2766 1759 
L 2194 1759 
z
M 3341 1997 
L 3341 0 
L 2766 0 
L 2766 531 
Q 2569 213 2275 61 
Q 1981 -91 1556 -91 
Q 1019 -91 701 211 
Q 384 513 384 1019 
Q 384 1609 779 1909 
Q 1175 2209 1959 2209 
L 2766 2209 
L 2766 2266 
Q 2766 2663 2505 2880 
Q 2244 3097 1772 3097 
Q 1472 3097 1187 3025 
Q 903 2953 641 2809 
L 641 3341 
Q 956 3463 1253 3523 
Q 1550 3584 1831 3584 
Q 2591 3584 2966 3190 
Q 3341 2797 3341 1997 
z
" transform="scale(0.015625)"/>
       <path id="DejaVuSans-79" d="M 2059 -325 
Q 1816 -950 1584 -1140 
Q 1353 -1331 966 -1331 
L 506 -1331 
L 506 -850 
L 844 -850 
Q 1081 -850 1212 -737 
Q 1344 -625 1503 -206 
L 1606 56 
L 191 3500 
L 800 3500 
L 1894 763 
L 2988 3500 
L 3597 3500 
L 2059 -325 
z
" transform="scale(0.015625)"/>
      </defs>
      <use xlink:href="#DejaVuSans-44"/>
      <use xlink:href="#DejaVuSans-61" transform="translate(77.001953 0)"/>
      <use xlink:href="#DejaVuSans-79" transform="translate(138.28125 0)"/>
     </g>
    </g>
   </g>
   <g id="matplotlib.axis_2">
    <g id="ytick_1">
     <g id="line2d_9">
      <defs>
       <path id="m1a8015e629" d="M 0 0 
L -3.5 0 
" style="stroke: #000000; stroke-width: 0.8"/>
      </defs>
      <g>
       <use xlink:href="#m1a8015e629" x="57.6" y="295.488" style="stroke: #000000; stroke-width: 0.8"/>
      </g>
     </g>
     <g id="text_10">
      <!-- 0.0 -->
      <g transform="translate(34.696875 299.287219) scale(0.1 -0.1)">
       <defs>
        <path id="DejaVuSans-2e" d="M 684 794 
L 1344 794 
L 1344 0 
L 684 0 
L 684 794 
z
" transform="scale(0.015625)"/>
       </defs>
       <use xlink:href="#DejaVuSans-30"/>
       <use xlink:href="#DejaVuSans-2e" transform="translate(63.623047 0)"/>
       <use xlink:href="#DejaVuSans-30" transform="translate(95.410156 0)"/>
      </g>
     </g>
    </g>
    <g id="ytick_2">
     <g id="line2d_10">
      <g>
       <use xlink:href="#m1a8015e629" x="57.6" y="239.683141" style="stroke: #000000; stroke-width: 0.8"/>
      </g>
     </g>
     <g id="text_11">
      <!-- 0.2 -->
      <g transform="translate(34.696875 243.48236) scale(0.1 -0.1)">
       <use xlink:href="#DejaVuSans-30"/>
       <use xlink:href="#DejaVuSans-2e" transform="translate(63.623047 0)"/>
       <use xlink:href="#DejaVuSans-32" transform="translate(95.410156 0)"/>
      </g>
     </g>
    </g>
    <g id="ytick_3">
     <g id="line2d_11">
      <g>
       <use xlink:href="#m1a8015e629" x="57.6" y="183.878282" style="stroke: #000000; stroke-width: 0.8"/>
      </g>
     </g>
     <g id="text_12">
      <!-- 0.4 -->
      <g transform="translate(34.696875 187.677501) scale(0.1 -0.1)">
       <use xlink:href="#DejaVuSans-30"/>
       <use xlink:href="#DejaVuSans-2e" transform="translate(63.623047 0)"/>
       <use xlink:href="#DejaVuSans-34" transform="translate(95.410156 0)"/>
      </g>
     </g>
    </g>
    <g id="ytick_4">
     <g id="line2d_12">
      <g>
       <use xlink:href="#m1a8015e629" x="57.6" y="128.073423" style="stroke: #000000; stroke-width: 0.8"/>
      </g>
     </g>
     <g id="text_13">
      <!-- 0.6 -->
      <g transform="translate(34.696875 131.872642) scale(0.1 -0.1)">
       <use xlink:href="#DejaVuSans-30"/>
       <use xlink:href="#DejaVuSans-2e" transform="translate(63.623047 0)"/>
       <use xlink:href="#DejaVuSans-36" transform="translate(95.410156 0)"/>
      </g>
     </g>
    </g>
    <g id="ytick_5">
     <g id="line2d_13">
      <g>
       <use xlink:href="#m1a8015e629" x="57.6" y="72.268564" style="stroke: #000000; stroke-width: 0.8"/>
      </g>
     </g>
     <g id="text_14">
      <!-- 0.8 -->
      <g transform="translate(34.696875 76.067783) scale(0.1 -0.1)">
       <use xlink:href="#DejaVuSans-30"/>
       <use xlink:href="#DejaVuSans-2e" transform="translate(63.623047 0)"/>
       <use xlink:href="#DejaVuSans-38" transform="translate(95.410156 0)"/>
      </g>
     </g>
    </g>
    <g id="text_15">
     <!-- Q / (E+I+A+Q) -->
     <g transform="translate(28.617187 211.788156) rotate(-90) scale(0.1 -0.1)">
      <defs>
       <path id="DejaVuSans-51" d="M 2522 4238 
Q 1834 4238 1429 3725 
Q 1025 3213 1025 2328 
Q 1025 1447 1429 934 
Q 1834 422 2522 422 
Q 3209 422 3611 934 
Q 4013 1447 4013 2328 
Q 4013 3213 3611 3725 
Q 3209 4238 2522 4238 
z
M 3406 84 
L 4238 -825 
L 3475 -825 
L 2784 -78 
Q 2681 -84 2626 -87 
Q 2572 -91 2522 -91 
Q 1538 -91 948 567 
Q 359 1225 359 2328 
Q 359 3434 948 4092 
Q 1538 4750 2522 4750 
Q 3503 4750 4090 4092 
Q 4678 3434 4678 2328 
Q 4678 1516 4351 937 
Q 4025 359 3406 84 
z
" transform="scale(0.015625)"/>
       <path id="DejaVuSans-20" transform="scale(0.015625)"/>
       <path id="DejaVuSans-2f" d="M 1625 4666 
L 2156 4666 
L 531 -594 
L 0 -594 
L 1625 4666 
z
" transform="scale(0.015625)"/>
       <path id="DejaVuSans-28" d="M 1984 4856 
Q 1566 4138 1362 3434 
Q 1159 2731 1159 2009 
Q 1159 1288 1364 580 
Q 1569 -128 1984 -844 
L 1484 -844 
Q 1016 -109 783 600 
Q 550 1309 550 2009 
Q 550 2706 781 3412 
Q 1013 4119 1484 4856 
L 1984 4856 
z
" transform="scale(0.015625)"/>
       <path id="DejaVuSans-45" d="M 628 4666 
L 3578 4666 
L 3578 4134 
L 1259 4134 
L 1259 2753 
L 3481 2753 
L 3481 2222 
L 1259 2222 
L 1259 531 
L 3634 531 
L 3634 0 
L 628 0 
L 628 4666 
z
" transform="scale(0.015625)"/>
       <path id="DejaVuSans-2b" d="M 2944 4013 
L 2944 2272 
L 4684 2272 
L 4684 1741 
L 2944 1741 
L 2944 0 
L 2419 0 
L 2419 1741 
L 678 1741 
L 678 2272 
L 2419 2272 
L 2419 4013 
L 2944 4013 
z
" transform="scale(0.015625)"/>
       <path id="DejaVuSans-49" d="M 628 4666 
L 1259 4666 
L 1259 0 
L 628 0 
L 628 4666 
z
" transform="scale(0.015625)"/>
       <path id="DejaVuSans-41" d="M 2188 4044 
L 1331 1722 
L 3047 1722 
L 2188 4044 
z
M 1831 4666 
L 2547 4666 
L 4325 0 
L 3669 0 
L 3244 1197 
L 1141 1197 
L 716 0 
L 50 0 
L 1831 4666 
z
" transform="scale(0.015625)"/>
       <path id="DejaVuSans-29" d="M 513 4856 
L 1013 4856 
Q 1481 4119 1714 3412 
Q 1947 2706 1947 2009 
Q 1947 1309 1714 600 
Q 1481 -109 1013 -844 
L 513 -844 
Q 928 -128 1133 580 
Q 1338 1288 1338 2009 
Q 1338 2731 1133 3434 
Q 928 4138 513 4856 
z
" transform="scale(0.015625)"/>
      </defs>
      <use xlink:href="#DejaVuSans-51"/>
      <use xlink:href="#DejaVuSans-20" transform="translate(78.710938 0)"/>
      <use xlink:href="#DejaVuSans-2f" transform="translate(110.498047 0)"/>
      <use xlink:href="#DejaVuSans-20" transform="translate(144.189453 0)"/>
      <use xlink:href="#DejaVuSans-28" transform="translate(175.976562 0)"/>
      <use xlink:href="#DejaVuSans-45" transform="translate(214.990234 0)"/>
      <use xlink:href="#DejaVuSans-2b" transform="translate(278.173828 0)"/>
      <use xlink:href="#DejaVuSans-49" transform="translate(361.962891 0)"/>
      <use xlink:href="#DejaVuSans-2b" transform="translate(391.455078 0)"/>
      <use xlink:href="#DejaVuSans-41" transform="translate(475.244141 0)"/>
      <use xlink:href="#DejaVuSans-2b" transform="translate(543.652344 0)"/>
      <use xlink:href="#DejaVuSans-51" transform="translate(627.441406 0)"/>
      <use xlink:href="#DejaVuSans-29" transform="translate(706.152344 0)"/>
     </g>
    </g>
   </g>
   <g id="line2d_14">
    <path d="M 73.832727 295.488 
L 115.231629 295.488 
L 117.410519 284.492919 
L 119.589408 270.66253 
L 121.768298 260.790263 
L 123.947187 254.302233 
L 128.304966 246.736054 
L 130.483856 242.809921 
L 132.662746 239.587174 
L 134.841635 236.947382 
L 137.020525 233.916866 
L 139.199414 230.577844 
L 141.378304 226.064362 
L 143.557193 222.455168 
L 145.736083 219.134498 
L 147.914973 215.092111 
L 150.093862 211.310257 
L 152.272752 206.707543 
L 154.451641 203.792049 
L 158.80942 196.925022 
L 160.98831 180.55779 
L 165.346089 155.206613 
L 167.524979 145.10335 
L 169.703868 135.892823 
L 174.061647 120.335917 
L 176.240537 111.694751 
L 178.419426 105.303548 
L 182.777206 95.216357 
L 184.956095 92.55123 
L 187.134985 90.948015 
L 189.313874 90.033603 
L 191.492764 87.32909 
L 193.671653 87.221724 
L 195.850543 85.601181 
L 198.029433 86.298069 
L 200.208322 86.012295 
L 202.387212 84.595503 
L 204.566101 85.477693 
L 206.744991 83.733714 
L 208.92388 84.149866 
L 211.10277 85.294055 
L 213.28166 85.178644 
L 215.460549 87.311613 
L 217.639439 88.774947 
L 219.818328 88.653131 
L 221.997218 86.505665 
L 224.176107 85.993053 
L 226.354997 84.495472 
L 228.533887 84.477951 
L 230.712776 86.47974 
L 232.891666 87.12102 
L 235.070555 89.236258 
L 237.249445 88.906532 
L 239.428334 90.129412 
L 241.607224 89.734207 
L 243.786113 88.251509 
L 248.143893 84.785542 
L 250.322782 84.976602 
L 252.501672 88.737514 
L 254.680561 91.993772 
L 256.859451 96.560091 
L 259.03834 95.589998 
L 261.21723 99.111408 
L 263.39612 99.083886 
L 265.575009 95.104699 
L 267.753899 97.811896 
L 269.932788 102.250678 
L 272.111678 103.271264 
L 274.290567 105.414403 
L 276.469457 105.244163 
L 278.648347 104.304687 
L 280.827236 108.351224 
L 283.006126 107.175307 
L 285.185015 114.181074 
L 287.363905 113.095496 
L 289.542794 107.367548 
L 291.721684 109.929972 
L 293.900574 107.111192 
L 296.079463 106.04519 
L 298.258353 102.442122 
L 300.437242 95.93265 
L 302.616132 94.373086 
L 304.795021 90.997592 
L 306.973911 97.845791 
L 309.1528 94.675061 
L 311.33169 101.016522 
L 313.51058 98.798743 
L 315.689469 99.681478 
L 317.868359 110.273598 
L 320.047248 105.125631 
L 322.226138 104.000739 
L 324.405027 109.471804 
L 326.583917 103.834949 
L 328.762807 106.565301 
L 330.941696 115.472326 
L 333.120586 110.592383 
L 335.299475 122.422298 
L 337.478365 135.559441 
L 339.657254 141.666915 
L 341.836144 142.954719 
L 344.015034 140.474503 
L 346.193923 132.059485 
L 348.372813 132.059485 
L 350.551702 137.778616 
L 352.730592 132.059485 
L 354.909481 121.097816 
L 357.088371 127.187632 
L 359.267261 115.777437 
L 361.44615 107.868216 
L 363.62504 109.471804 
L 365.803929 117.489743 
L 367.982819 111.132663 
L 370.161708 113.049038 
L 372.340598 98.529674 
L 374.519487 90.490559 
L 376.698377 97.070724 
L 378.877267 99.577325 
L 381.056156 111.450699 
L 383.235046 115.672344 
L 385.413935 115.672344 
L 387.592825 109.471804 
L 391.950604 122.758675 
L 394.129494 136.045546 
L 396.308383 146.242447 
L 398.487273 143.29293 
L 398.487273 143.29293 
" clip-path="url(#p36475bbc6d)" style="fill: none; stroke: #1f77b4; stroke-width: 1.5; stroke-linecap: square"/>
   </g>
   <g id="line2d_15">
    <path d="M 73.832727 295.488 
L 115.231629 295.488 
L 117.410519 287.29816 
L 119.589408 276.215659 
L 121.768298 265.904701 
L 123.947187 256.98599 
L 126.126077 250.21236 
L 128.304966 244.040888 
L 130.483856 238.623489 
L 134.841635 230.586838 
L 141.378304 219.362218 
L 143.557193 214.653644 
L 145.736083 209.443364 
L 147.914973 205.022013 
L 152.272752 196.73188 
L 156.630531 188.092844 
L 158.80942 182.074274 
L 160.98831 163.289131 
L 163.1672 148.767908 
L 165.346089 135.759491 
L 167.524979 125.67921 
L 169.703868 116.891583 
L 174.061647 100.695622 
L 176.240537 93.724037 
L 178.419426 88.288465 
L 180.598316 86.073294 
L 182.777206 81.727438 
L 184.956095 79.147888 
L 187.134985 78.011092 
L 189.313874 79.327485 
L 191.492764 78.594621 
L 193.671653 79.119377 
L 195.850543 77.93422 
L 198.029433 79.234333 
L 200.208322 80.346668 
L 202.387212 77.980873 
L 204.566101 79.79334 
L 206.744991 81.86397 
L 208.92388 80.791291 
L 211.10277 78.661071 
L 213.28166 79.568978 
L 215.460549 81.107632 
L 217.639439 77.884148 
L 219.818328 78.759237 
L 221.997218 80.251868 
L 224.176107 79.803048 
L 226.354997 76.829538 
L 228.533887 74.853009 
L 230.712776 74.27955 
L 232.891666 73.561341 
L 235.070555 74.784357 
L 237.249445 72.268564 
L 239.428334 73.928663 
L 241.607224 74.285608 
L 243.786113 73.275353 
L 245.965003 71.663634 
L 248.143893 70.718429 
L 250.322782 71.773255 
L 252.501672 78.278318 
L 254.680561 77.669035 
L 256.859451 77.289071 
L 259.03834 78.356367 
L 261.21723 84.005301 
L 263.39612 84.141939 
L 265.575009 82.189428 
L 267.753899 78.770101 
L 269.932788 81.287532 
L 272.111678 70.179612 
L 274.290567 65.057824 
L 276.469457 63.813283 
L 278.648347 62.355859 
L 280.827236 71.137385 
L 283.006126 75.527242 
L 285.185015 82.492355 
L 287.363905 82.374956 
L 289.542794 85.076237 
L 291.721684 88.07171 
L 293.900574 88.139671 
L 296.079463 90.168236 
L 298.258353 88.902705 
L 300.437242 86.219779 
L 302.616132 86.219779 
L 304.795021 93.970454 
L 306.973911 81.353076 
L 309.1528 90.870184 
L 311.33169 91.706212 
L 313.51058 82.898061 
L 315.689469 86.219779 
L 317.868359 81.164991 
L 320.047248 83.096373 
L 324.405027 82.67286 
L 326.583917 75.205662 
L 328.762807 87.488071 
L 330.941696 89.891151 
L 333.120586 104.000739 
L 335.299475 109.471804 
L 337.478365 113.515634 
L 339.657254 125.647125 
L 341.836144 117.927085 
L 344.015034 128.073423 
L 346.193923 121.872883 
L 348.372813 111.585624 
L 350.551702 117.927085 
L 352.730592 109.471804 
L 354.909481 107.308825 
L 357.088371 111.585624 
L 359.267261 100.819888 
L 361.44615 113.797762 
L 365.803929 126.775636 
L 367.982819 128.073423 
L 370.161708 130.935211 
L 372.340598 121.097816 
L 374.519487 126.604874 
L 376.698377 133.947619 
L 378.877267 139.562659 
L 381.056156 151.165089 
L 383.235046 160.786616 
L 385.413935 151.165089 
L 387.592825 136.045546 
L 389.771714 113.049038 
L 391.950604 113.049038 
L 396.308383 105.75148 
L 398.487273 119.806037 
L 398.487273 119.806037 
" clip-path="url(#p36475bbc6d)" style="fill: none; stroke: #ff7f0e; stroke-width: 1.5; stroke-linecap: square"/>
   </g>
   <g id="line2d_16">
    <path d="M 73.832727 295.488 
L 115.231629 295.488 
L 117.410519 291.987556 
L 119.589408 289.318619 
L 123.947187 285.807445 
L 128.304966 283.635549 
L 130.483856 283.178829 
L 132.662746 282.137555 
L 137.020525 279.901605 
L 139.199414 278.920067 
L 141.378304 278.246492 
L 143.557193 277.402655 
L 145.736083 275.858631 
L 147.914973 274.043553 
L 152.272752 271.001002 
L 154.451641 269.723369 
L 156.630531 267.96875 
L 158.80942 265.727028 
L 160.98831 258.670528 
L 165.346089 246.289762 
L 167.524979 239.371382 
L 171.882758 224.233586 
L 174.061647 215.091169 
L 176.240537 205.259028 
L 180.598316 187.434984 
L 182.777206 177.817826 
L 184.956095 167.332177 
L 187.134985 154.353618 
L 189.313874 139.926961 
L 191.492764 127.252764 
L 193.671653 118.037672 
L 195.850543 106.550083 
L 198.029433 100.240231 
L 200.208322 93.454754 
L 202.387212 88.21281 
L 204.566101 77.139107 
L 206.744991 69.246166 
L 208.92388 63.313939 
L 211.10277 61.067944 
L 213.28166 56.975887 
L 215.460549 55.088969 
L 217.639439 55.12182 
L 219.818328 54.572724 
L 224.176107 53.893794 
L 226.354997 54.016903 
L 228.533887 55.467102 
L 230.712776 54.823838 
L 232.891666 53.568 
L 235.070555 55.634424 
L 237.249445 56.241962 
L 239.428334 59.813213 
L 241.607224 63.929907 
L 245.965003 67.667632 
L 248.143893 70.519694 
L 250.322782 70.741988 
L 252.501672 71.733694 
L 254.680561 69.655628 
L 256.859451 68.843717 
L 259.03834 70.805516 
L 261.21723 68.134871 
L 263.39612 66.639127 
L 265.575009 71.225483 
L 267.753899 70.602748 
L 269.932788 74.831032 
L 272.111678 78.646263 
L 274.290567 80.723846 
L 276.469457 86.219779 
L 280.827236 84.28211 
L 283.006126 86.752268 
L 285.185015 90.126119 
L 287.363905 94.224574 
L 289.542794 93.259383 
L 291.721684 99.634409 
L 293.900574 111.331966 
L 296.079463 109.471804 
L 298.258353 109.471804 
L 300.437242 112.572074 
L 302.616132 112.678979 
L 304.795021 104.064356 
L 306.973911 115.358392 
L 309.1528 118.890345 
L 311.33169 123.780742 
L 313.51058 124.973153 
L 315.689469 122.154726 
L 317.868359 109.471804 
L 320.047248 112.853916 
L 322.226138 114.942868 
L 324.405027 133.653909 
L 326.583917 135.197448 
L 328.762807 130.610008 
L 330.941696 136.045546 
L 333.120586 116.115239 
L 335.299475 107.146601 
L 337.478365 138.08968 
L 339.657254 145.244149 
L 341.836144 145.767647 
L 344.015034 144.664057 
L 346.193923 141.290364 
L 348.372813 117.222479 
L 350.551702 101.721129 
L 352.730592 94.939288 
L 354.909481 97.470759 
L 357.088371 106.471542 
L 359.267261 128.073423 
L 361.44615 116.115239 
L 363.62504 123.780742 
L 365.803929 123.780742 
L 367.982819 121.097816 
L 370.161708 101.384143 
L 372.340598 132.723828 
L 374.519487 137.778616 
L 376.698377 155.975853 
L 378.877267 146.010699 
L 381.056156 126.080393 
L 385.413935 101.384143 
L 387.592825 105.244163 
L 389.771714 134.512445 
L 391.950604 155.975853 
L 394.129494 155.975853 
L 396.308383 144.34984 
L 398.487273 121.097816 
L 398.487273 121.097816 
" clip-path="url(#p36475bbc6d)" style="fill: none; stroke: #2ca02c; stroke-width: 1.5; stroke-linecap: square"/>
   </g>
   <g id="line2d_17">
    <path d="M 73.832727 295.488 
L 115.231629 295.488 
L 117.410519 291.720651 
L 119.589408 289.02578 
L 121.768298 287.081706 
L 123.947187 285.497207 
L 126.126077 284.096996 
L 128.304966 283.018515 
L 130.483856 282.084431 
L 132.662746 281.360798 
L 139.199414 278.748377 
L 141.378304 277.563527 
L 147.914973 273.351747 
L 150.093862 272.399104 
L 152.272752 270.967526 
L 154.451641 269.823791 
L 156.630531 267.966721 
L 158.80942 265.906964 
L 163.1672 252.421065 
L 165.346089 246.054562 
L 167.524979 238.414849 
L 169.703868 229.754482 
L 171.882758 222.773069 
L 176.240537 204.870087 
L 178.419426 195.191363 
L 182.777206 173.247767 
L 187.134985 149.683891 
L 193.671653 118.602625 
L 195.850543 111.12712 
L 198.029433 106.13249 
L 200.208322 103.286824 
L 202.387212 98.890044 
L 204.566101 90.398261 
L 206.744991 85.169236 
L 208.92388 81.796223 
L 211.10277 79.012059 
L 213.28166 78.236439 
L 215.460549 79.505669 
L 219.818328 75.697913 
L 221.997218 78.104795 
L 224.176107 77.533174 
L 226.354997 79.827788 
L 228.533887 79.824653 
L 230.712776 80.204505 
L 232.891666 79.165794 
L 235.070555 81.330892 
L 237.249445 81.010309 
L 239.428334 78.588117 
L 241.607224 81.779454 
L 245.965003 84.299887 
L 248.143893 87.402085 
L 250.322782 87.12102 
L 252.501672 84.889282 
L 254.680561 81.409015 
L 256.859451 80.460103 
L 259.03834 85.133236 
L 261.21723 83.909975 
L 263.39612 83.780756 
L 265.575009 86.219779 
L 267.753899 88.434258 
L 269.932788 89.055392 
L 272.111678 88.315455 
L 274.290567 87.812384 
L 276.469457 88.601694 
L 278.648347 93.337746 
L 280.827236 94.470498 
L 283.006126 92.000669 
L 285.185015 86.63748 
L 287.363905 88.413366 
L 289.542794 92.388684 
L 291.721684 95.619534 
L 293.900574 103.79192 
L 296.079463 104.934823 
L 298.258353 108.594369 
L 300.437242 108.541723 
L 302.616132 107.449889 
L 304.795021 102.073432 
L 306.973911 90.421952 
L 309.1528 104.762533 
L 311.33169 100.170994 
L 313.51058 114.942868 
L 315.689469 116.412707 
L 317.868359 112.378307 
L 320.047248 121.669587 
L 322.226138 134.694339 
L 324.405027 150.808736 
L 326.583917 150.162847 
L 330.941696 167.601865 
L 333.120586 177.677742 
L 335.299475 175.000236 
L 337.478365 173.414871 
L 339.657254 161.788859 
L 341.836144 152.875583 
L 344.015034 162.95146 
L 346.193923 167.287648 
L 348.372813 159.553087 
L 350.551702 169.927067 
L 352.730592 173.862025 
L 354.909481 163.318597 
L 359.267261 148.633108 
L 361.44615 167.934037 
L 363.62504 167.934037 
L 365.803929 160.786616 
L 367.982819 141.543562 
L 370.161708 146.675043 
L 372.340598 155.975853 
L 374.519487 164.695362 
L 376.698377 143.29293 
L 378.877267 139.562659 
L 381.056156 152.205254 
L 383.235046 132.723828 
L 385.413935 152.205254 
L 387.592825 136.045546 
L 389.771714 131.356062 
L 391.950604 128.073423 
L 394.129494 112.678979 
L 396.308383 115.472326 
L 398.487273 121.097816 
L 398.487273 121.097816 
" clip-path="url(#p36475bbc6d)" style="fill: none; stroke: #d62728; stroke-width: 1.5; stroke-linecap: square"/>
   </g>
   <g id="line2d_18">
    <path d="M 73.832727 295.488 
L 115.231629 295.488 
L 117.410519 291.403472 
L 119.589408 288.21975 
L 121.768298 286.033059 
L 126.126077 283.650963 
L 132.662746 281.344145 
L 137.020525 279.329406 
L 139.199414 277.959673 
L 141.378304 277.160027 
L 143.557193 275.966397 
L 150.093862 273.070923 
L 154.451641 270.396275 
L 156.630531 268.839612 
L 158.80942 266.910418 
L 160.98831 260.839122 
L 165.346089 247.756637 
L 167.524979 240.327151 
L 169.703868 233.40067 
L 171.882758 225.497846 
L 174.061647 218.4452 
L 176.240537 210.73318 
L 182.777206 185.233367 
L 184.956095 176.156167 
L 189.313874 159.206147 
L 191.492764 154.370789 
L 193.671653 147.059147 
L 195.850543 142.428186 
L 198.029433 137.430664 
L 200.208322 133.624861 
L 202.387212 130.829219 
L 204.566101 121.212471 
L 211.10277 99.83482 
L 213.28166 95.34893 
L 215.460549 92.263627 
L 217.639439 88.625161 
L 219.818328 86.938914 
L 221.997218 87.763055 
L 224.176107 83.837063 
L 226.354997 84.995988 
L 228.533887 87.696098 
L 232.891666 81.749569 
L 235.070555 81.099023 
L 239.428334 80.255505 
L 241.607224 83.494933 
L 243.786113 85.200379 
L 245.965003 88.961284 
L 248.143893 90.913343 
L 250.322782 94.536197 
L 252.501672 94.799403 
L 254.680561 94.237719 
L 259.03834 106.244393 
L 261.21723 106.653376 
L 263.39612 108.492771 
L 265.575009 108.43838 
L 267.753899 101.384143 
L 269.932788 101.879306 
L 272.111678 99.577325 
L 274.290567 101.652539 
L 276.469457 103.241596 
L 278.648347 104.278458 
L 280.827236 107.995485 
L 283.006126 110.516838 
L 285.185015 106.208362 
L 287.363905 104.850283 
L 289.542794 105.16017 
L 291.721684 104.981758 
L 293.900574 93.142138 
L 296.079463 90.126119 
L 298.258353 90.393219 
L 300.437242 90.393219 
L 302.616132 88.803337 
L 304.795021 91.585631 
L 306.973911 97.380751 
L 309.1528 104.576641 
L 311.33169 104.24663 
L 313.51058 94.33095 
L 315.689469 87.102767 
L 317.868359 73.022684 
L 320.047248 77.121161 
L 322.226138 78.013182 
L 324.405027 85.146609 
L 326.583917 91.755975 
L 328.762807 96.860536 
L 330.941696 90.870184 
L 333.120586 106.318987 
L 335.299475 118.772613 
L 337.478365 112.678979 
L 339.657254 91.202356 
L 341.836144 74.374408 
L 344.015034 82.116481 
L 346.193923 87.703951 
L 348.372813 98.129353 
L 350.551702 114.122209 
L 352.730592 119.26213 
L 354.909481 117.222479 
L 357.088371 122.040466 
L 359.267261 120.101301 
L 361.44615 109.471804 
L 365.803929 109.471804 
L 367.982819 119.806037 
L 370.161708 128.073423 
L 372.340598 113.049038 
L 374.519487 113.049038 
L 376.698377 105.75148 
L 378.877267 101.384143 
L 381.056156 101.384143 
L 383.235046 125.647125 
L 385.413935 122.758675 
L 387.592825 136.045546 
L 389.771714 142.024638 
L 391.950604 109.471804 
L 394.129494 109.471804 
L 396.308383 98.529674 
L 398.487273 103.658798 
L 398.487273 103.658798 
" clip-path="url(#p36475bbc6d)" style="fill: none; stroke: #9467bd; stroke-width: 1.5; stroke-linecap: square"/>
   </g>
   <g id="line2d_19">
    <path d="M 73.832727 295.488 
L 115.231629 295.488 
L 117.410519 291.123798 
L 119.589408 287.974184 
L 121.768298 285.80386 
L 126.126077 283.730293 
L 128.304966 282.371223 
L 132.662746 280.753185 
L 134.841635 279.99779 
L 139.199414 278.190127 
L 141.378304 277.181191 
L 143.557193 276.398863 
L 145.736083 275.289512 
L 147.914973 274.495577 
L 150.093862 273.120225 
L 152.272752 272.287191 
L 154.451641 270.916806 
L 156.630531 269.26016 
L 158.80942 267.763879 
L 160.98831 262.08708 
L 163.1672 254.78507 
L 167.524979 241.363589 
L 169.703868 234.118805 
L 171.882758 225.439734 
L 176.240537 209.26294 
L 182.777206 181.51454 
L 184.956095 174.519297 
L 189.313874 159.131116 
L 193.671653 146.965987 
L 195.850543 141.317776 
L 198.029433 137.627316 
L 202.387212 131.556738 
L 204.566101 121.217507 
L 206.744991 112.994325 
L 208.92388 106.492638 
L 211.10277 98.897439 
L 213.28166 92.697129 
L 215.460549 88.653131 
L 217.639439 87.372772 
L 219.818328 87.4544 
L 221.997218 86.383911 
L 224.176107 85.957866 
L 226.354997 88.255102 
L 228.533887 89.457403 
L 230.712776 87.87081 
L 232.891666 88.200235 
L 235.070555 85.505553 
L 237.249445 84.043902 
L 239.428334 82.898061 
L 241.607224 82.842117 
L 243.786113 80.522263 
L 245.965003 82.379995 
L 248.143893 80.591538 
L 250.322782 81.569374 
L 252.501672 80.327577 
L 254.680561 79.654502 
L 256.859451 77.607918 
L 259.03834 76.768956 
L 261.21723 71.87968 
L 263.39612 72.058772 
L 265.575009 76.882352 
L 267.753899 76.668118 
L 269.932788 76.254626 
L 272.111678 80.54584 
L 274.290567 80.748715 
L 276.469457 79.945423 
L 278.648347 83.868451 
L 280.827236 77.192523 
L 283.006126 74.310206 
L 285.185015 82.731975 
L 287.363905 76.645416 
L 289.542794 80.406773 
L 291.721684 84.756365 
L 293.900574 84.714252 
L 296.079463 91.755975 
L 298.258353 84.995988 
L 300.437242 83.133227 
L 302.616132 82.898061 
L 304.795021 86.219779 
L 306.973911 91.470236 
L 309.1528 90.05253 
L 311.33169 85.436003 
L 313.51058 87.921147 
L 315.689469 93.562524 
L 317.868359 103.187473 
L 320.047248 98.992018 
L 322.226138 110.902697 
L 324.405027 115.777437 
L 326.583917 122.300507 
L 328.762807 123.000254 
L 330.941696 107.780747 
L 333.120586 107.683186 
L 335.299475 109.471804 
L 339.657254 109.471804 
L 341.836144 102.828368 
L 344.015034 91.323882 
L 346.193923 80.853927 
L 348.372813 67.862918 
L 350.551702 76.793283 
L 352.730592 78.469104 
L 354.909481 73.909884 
L 357.088371 81.569374 
L 359.267261 81.569374 
L 361.44615 83.814397 
L 363.62504 86.219779 
L 365.803929 68.134871 
L 367.982819 74.593767 
L 370.161708 77.121161 
L 372.340598 69.61119 
L 374.519487 101.384143 
L 376.698377 117.927085 
L 378.877267 143.29293 
L 381.056156 137.778616 
L 383.235046 109.471804 
L 385.413935 105.244163 
L 387.592825 67.195395 
L 389.771714 69.61119 
L 391.950604 72.268564 
L 394.129494 82.116481 
L 398.487273 82.116481 
L 398.487273 82.116481 
" clip-path="url(#p36475bbc6d)" style="fill: none; stroke: #8c564b; stroke-width: 1.5; stroke-linecap: square"/>
   </g>
   <g id="patch_3">
    <path d="M 57.6 307.584 
L 57.6 41.472 
" style="fill: none; stroke: #000000; stroke-width: 0.8; stroke-linejoin: miter; stroke-linecap: square"/>
   </g>
   <g id="patch_4">
    <path d="M 414.72 307.584 
L 414.72 41.472 
" style="fill: none; stroke: #000000; stroke-width: 0.8; stroke-linejoin: miter; stroke-linecap: square"/>
   </g>
   <g id="patch_5">
    <path d="M 57.6 307.584 
L 414.72 307.584 
" style="fill: none; stroke: #000000; stroke-width: 0.8; stroke-linejoin: miter; stroke-linecap: square"/>
   </g>
   <g id="patch_6">
    <path d="M 57.6 41.472 
L 414.72 41.472 
" style="fill: none; stroke: #000000; stroke-width: 0.8; stroke-linejoin: miter; stroke-linecap: square"/>
   </g>
   <g id="text_16">
    <!-- Quarantine Efficiency vs Time (SBM-2k) -->
    <g transform="translate(117.279375 35.472) scale(0.12 -0.12)">
     <defs>
      <path id="DejaVuSans-75" d="M 544 1381 
L 544 3500 
L 1119 3500 
L 1119 1403 
Q 1119 906 1312 657 
Q 1506 409 1894 409 
Q 2359 409 2629 706 
Q 2900 1003 2900 1516 
L 2900 3500 
L 3475 3500 
L 3475 0 
L 2900 0 
L 2900 538 
Q 2691 219 2414 64 
Q 2138 -91 1772 -91 
Q 1169 -91 856 284 
Q 544 659 544 1381 
z
M 1991 3584 
L 1991 3584 
z
" transform="scale(0.015625)"/>
      <path id="DejaVuSans-72" d="M 2631 2963 
Q 2534 3019 2420 3045 
Q 2306 3072 2169 3072 
Q 1681 3072 1420 2755 
Q 1159 2438 1159 1844 
L 1159 0 
L 581 0 
L 581 3500 
L 1159 3500 
L 1159 2956 
Q 1341 3275 1631 3429 
Q 1922 3584 2338 3584 
Q 2397 3584 2469 3576 
Q 2541 3569 2628 3553 
L 2631 2963 
z
" transform="scale(0.015625)"/>
      <path id="DejaVuSans-6e" d="M 3513 2113 
L 3513 0 
L 2938 0 
L 2938 2094 
Q 2938 2591 2744 2837 
Q 2550 3084 2163 3084 
Q 1697 3084 1428 2787 
Q 1159 2491 1159 1978 
L 1159 0 
L 581 0 
L 581 3500 
L 1159 3500 
L 1159 2956 
Q 1366 3272 1645 3428 
Q 1925 3584 2291 3584 
Q 2894 3584 3203 3211 
Q 3513 2838 3513 2113 
z
" transform="scale(0.015625)"/>
      <path id="DejaVuSans-74" d="M 1172 4494 
L 1172 3500 
L 2356 3500 
L 2356 3053 
L 1172 3053 
L 1172 1153 
Q 1172 725 1289 603 
Q 1406 481 1766 481 
L 2356 481 
L 2356 0 
L 1766 0 
Q 1100 0 847 248 
Q 594 497 594 1153 
L 594 3053 
L 172 3053 
L 172 3500 
L 594 3500 
L 594 4494 
L 1172 4494 
z
" transform="scale(0.015625)"/>
      <path id="DejaVuSans-69" d="M 603 3500 
L 1178 3500 
L 1178 0 
L 603 0 
L 603 3500 
z
M 603 4863 
L 1178 4863 
L 1178 4134 
L 603 4134 
L 603 4863 
z
" transform="scale(0.015625)"/>
      <path id="DejaVuSans-65" d="M 3597 1894 
L 3597 1613 
L 953 1613 
Q 991 1019 1311 708 
Q 1631 397 2203 397 
Q 2534 397 2845 478 
Q 3156 559 3463 722 
L 3463 178 
Q 3153 47 2828 -22 
Q 2503 -91 2169 -91 
Q 1331 -91 842 396 
Q 353 884 353 1716 
Q 353 2575 817 3079 
Q 1281 3584 2069 3584 
Q 2775 3584 3186 3129 
Q 3597 2675 3597 1894 
z
M 3022 2063 
Q 3016 2534 2758 2815 
Q 2500 3097 2075 3097 
Q 1594 3097 1305 2825 
Q 1016 2553 972 2059 
L 3022 2063 
z
" transform="scale(0.015625)"/>
      <path id="DejaVuSans-66" d="M 2375 4863 
L 2375 4384 
L 1825 4384 
Q 1516 4384 1395 4259 
Q 1275 4134 1275 3809 
L 1275 3500 
L 2222 3500 
L 2222 3053 
L 1275 3053 
L 1275 0 
L 697 0 
L 697 3053 
L 147 3053 
L 147 3500 
L 697 3500 
L 697 3744 
Q 697 4328 969 4595 
Q 1241 4863 1831 4863 
L 2375 4863 
z
" transform="scale(0.015625)"/>
      <path id="DejaVuSans-63" d="M 3122 3366 
L 3122 2828 
Q 2878 2963 2633 3030 
Q 2388 3097 2138 3097 
Q 1578 3097 1268 2742 
Q 959 2388 959 1747 
Q 959 1106 1268 751 
Q 1578 397 2138 397 
Q 2388 397 2633 464 
Q 2878 531 3122 666 
L 3122 134 
Q 2881 22 2623 -34 
Q 2366 -91 2075 -91 
Q 1284 -91 818 406 
Q 353 903 353 1747 
Q 353 2603 823 3093 
Q 1294 3584 2113 3584 
Q 2378 3584 2631 3529 
Q 2884 3475 3122 3366 
z
" transform="scale(0.015625)"/>
      <path id="DejaVuSans-76" d="M 191 3500 
L 800 3500 
L 1894 563 
L 2988 3500 
L 3597 3500 
L 2284 0 
L 1503 0 
L 191 3500 
z
" transform="scale(0.015625)"/>
      <path id="DejaVuSans-73" d="M 2834 3397 
L 2834 2853 
Q 2591 2978 2328 3040 
Q 2066 3103 1784 3103 
Q 1356 3103 1142 2972 
Q 928 2841 928 2578 
Q 928 2378 1081 2264 
Q 1234 2150 1697 2047 
L 1894 2003 
Q 2506 1872 2764 1633 
Q 3022 1394 3022 966 
Q 3022 478 2636 193 
Q 2250 -91 1575 -91 
Q 1294 -91 989 -36 
Q 684 19 347 128 
L 347 722 
Q 666 556 975 473 
Q 1284 391 1588 391 
Q 1994 391 2212 530 
Q 2431 669 2431 922 
Q 2431 1156 2273 1281 
Q 2116 1406 1581 1522 
L 1381 1569 
Q 847 1681 609 1914 
Q 372 2147 372 2553 
Q 372 3047 722 3315 
Q 1072 3584 1716 3584 
Q 2034 3584 2315 3537 
Q 2597 3491 2834 3397 
z
" transform="scale(0.015625)"/>
      <path id="DejaVuSans-54" d="M -19 4666 
L 3928 4666 
L 3928 4134 
L 2272 4134 
L 2272 0 
L 1638 0 
L 1638 4134 
L -19 4134 
L -19 4666 
z
" transform="scale(0.015625)"/>
      <path id="DejaVuSans-6d" d="M 3328 2828 
Q 3544 3216 3844 3400 
Q 4144 3584 4550 3584 
Q 5097 3584 5394 3201 
Q 5691 2819 5691 2113 
L 5691 0 
L 5113 0 
L 5113 2094 
Q 5113 2597 4934 2840 
Q 4756 3084 4391 3084 
Q 3944 3084 3684 2787 
Q 3425 2491 3425 1978 
L 3425 0 
L 2847 0 
L 2847 2094 
Q 2847 2600 2669 2842 
Q 2491 3084 2119 3084 
Q 1678 3084 1418 2786 
Q 1159 2488 1159 1978 
L 1159 0 
L 581 0 
L 581 3500 
L 1159 3500 
L 1159 2956 
Q 1356 3278 1631 3431 
Q 1906 3584 2284 3584 
Q 2666 3584 2933 3390 
Q 3200 3197 3328 2828 
z
" transform="scale(0.015625)"/>
      <path id="DejaVuSans-53" d="M 3425 4513 
L 3425 3897 
Q 3066 4069 2747 4153 
Q 2428 4238 2131 4238 
Q 1616 4238 1336 4038 
Q 1056 3838 1056 3469 
Q 1056 3159 1242 3001 
Q 1428 2844 1947 2747 
L 2328 2669 
Q 3034 2534 3370 2195 
Q 3706 1856 3706 1288 
Q 3706 609 3251 259 
Q 2797 -91 1919 -91 
Q 1588 -91 1214 -16 
Q 841 59 441 206 
L 441 856 
Q 825 641 1194 531 
Q 1563 422 1919 422 
Q 2459 422 2753 634 
Q 3047 847 3047 1241 
Q 3047 1584 2836 1778 
Q 2625 1972 2144 2069 
L 1759 2144 
Q 1053 2284 737 2584 
Q 422 2884 422 3419 
Q 422 4038 858 4394 
Q 1294 4750 2059 4750 
Q 2388 4750 2728 4690 
Q 3069 4631 3425 4513 
z
" transform="scale(0.015625)"/>
      <path id="DejaVuSans-42" d="M 1259 2228 
L 1259 519 
L 2272 519 
Q 2781 519 3026 730 
Q 3272 941 3272 1375 
Q 3272 1813 3026 2020 
Q 2781 2228 2272 2228 
L 1259 2228 
z
M 1259 4147 
L 1259 2741 
L 2194 2741 
Q 2656 2741 2882 2914 
Q 3109 3088 3109 3444 
Q 3109 3797 2882 3972 
Q 2656 4147 2194 4147 
L 1259 4147 
z
M 628 4666 
L 2241 4666 
Q 2963 4666 3353 4366 
Q 3744 4066 3744 3513 
Q 3744 3084 3544 2831 
Q 3344 2578 2956 2516 
Q 3422 2416 3680 2098 
Q 3938 1781 3938 1306 
Q 3938 681 3513 340 
Q 3088 0 2303 0 
L 628 0 
L 628 4666 
z
" transform="scale(0.015625)"/>
      <path id="DejaVuSans-4d" d="M 628 4666 
L 1569 4666 
L 2759 1491 
L 3956 4666 
L 4897 4666 
L 4897 0 
L 4281 0 
L 4281 4097 
L 3078 897 
L 2444 897 
L 1241 4097 
L 1241 0 
L 628 0 
L 628 4666 
z
" transform="scale(0.015625)"/>
      <path id="DejaVuSans-2d" d="M 313 2009 
L 1997 2009 
L 1997 1497 
L 313 1497 
L 313 2009 
z
" transform="scale(0.015625)"/>
      <path id="DejaVuSans-6b" d="M 581 4863 
L 1159 4863 
L 1159 1991 
L 2875 3500 
L 3609 3500 
L 1753 1863 
L 3688 0 
L 2938 0 
L 1159 1709 
L 1159 0 
L 581 0 
L 581 4863 
z
" transform="scale(0.015625)"/>
     </defs>
     <use xlink:href="#DejaVuSans-51"/>
     <use xlink:href="#DejaVuSans-75" transform="translate(78.710938 0)"/>
     <use xlink:href="#DejaVuSans-61" transform="translate(142.089844 0)"/>
     <use xlink:href="#DejaVuSans-72" transform="translate(203.369141 0)"/>
     <use xlink:href="#DejaVuSans-61" transform="translate(244.482422 0)"/>
     <use xlink:href="#DejaVuSans-6e" transform="translate(305.761719 0)"/>
     <use xlink:href="#DejaVuSans-74" transform="translate(369.140625 0)"/>
     <use xlink:href="#DejaVuSans-69" transform="translate(408.349609 0)"/>
     <use xlink:href="#DejaVuSans-6e" transform="translate(436.132812 0)"/>
     <use xlink:href="#DejaVuSans-65" transform="translate(499.511719 0)"/>
     <use xlink:href="#DejaVuSans-20" transform="translate(561.035156 0)"/>
     <use xlink:href="#DejaVuSans-45" transform="translate(592.822266 0)"/>
     <use xlink:href="#DejaVuSans-66" transform="translate(656.005859 0)"/>
     <use xlink:href="#DejaVuSans-66" transform="translate(691.210938 0)"/>
     <use xlink:href="#DejaVuSans-69" transform="translate(726.416016 0)"/>
     <use xlink:href="#DejaVuSans-63" transform="translate(754.199219 0)"/>
     <use xlink:href="#DejaVuSans-69" transform="translate(809.179688 0)"/>
     <use xlink:href="#DejaVuSans-65" transform="translate(836.962891 0)"/>
     <use xlink:href="#DejaVuSans-6e" transform="translate(898.486328 0)"/>
     <use xlink:href="#DejaVuSans-63" transform="translate(961.865234 0)"/>
     <use xlink:href="#DejaVuSans-79" transform="translate(1016.845703 0)"/>
     <use xlink:href="#DejaVuSans-20" transform="translate(1076.025391 0)"/>
     <use xlink:href="#DejaVuSans-76" transform="translate(1107.8125 0)"/>
     <use xlink:href="#DejaVuSans-73" transform="translate(1166.992188 0)"/>
     <use xlink:href="#DejaVuSans-20" transform="translate(1219.091797 0)"/>
     <use xlink:href="#DejaVuSans-54" transform="translate(1250.878906 0)"/>
     <use xlink:href="#DejaVuSans-69" transform="translate(1308.837891 0)"/>
     <use xlink:href="#DejaVuSans-6d" transform="translate(1336.621094 0)"/>
     <use xlink:href="#DejaVuSans-65" transform="translate(1434.033203 0)"/>
     <use xlink:href="#DejaVuSans-20" transform="translate(1495.556641 0)"/>
     <use xlink:href="#DejaVuSans-28" transform="translate(1527.34375 0)"/>
     <use xlink:href="#DejaVuSans-53" transform="translate(1566.357422 0)"/>
     <use xlink:href="#DejaVuSans-42" transform="translate(1629.833984 0)"/>
     <use xlink:href="#DejaVuSans-4d" transform="translate(1698.4375 0)"/>
     <use xlink:href="#DejaVuSans-2d" transform="translate(1784.716797 0)"/>
     <use xlink:href="#DejaVuSans-32" transform="translate(1820.800781 0)"/>
     <use xlink:href="#DejaVuSans-6b" transform="translate(1884.423828 0)"/>
     <use xlink:href="#DejaVuSans-29" transform="translate(1942.333984 0)"/>
    </g>
   </g>
   <g id="legend_1">
    <g id="patch_7">
     <path d="M 289.559063 302.584 
L 407.72 302.584 
Q 409.72 302.584 409.72 300.584 
L 409.72 213.51525 
Q 409.72 211.51525 407.72 211.51525 
L 289.559063 211.51525 
Q 287.559063 211.51525 287.559063 213.51525 
L 287.559063 300.584 
Q 287.559063 302.584 289.559063 302.584 
z
" style="fill: #ffffff; opacity: 0.8; stroke: #cccccc; stroke-linejoin: miter"/>
    </g>
    <g id="line2d_20">
     <path d="M 291.559063 219.613687 
L 301.559063 219.613687 
L 311.559063 219.613687 
" style="fill: none; stroke: #1f77b4; stroke-width: 1.5; stroke-linecap: square"/>
    </g>
    <g id="text_17">
     <!-- LocalGNTS-14 -->
     <g transform="translate(319.559063 223.113687) scale(0.1 -0.1)">
      <defs>
       <path id="DejaVuSans-4c" d="M 628 4666 
L 1259 4666 
L 1259 531 
L 3531 531 
L 3531 0 
L 628 0 
L 628 4666 
z
" transform="scale(0.015625)"/>
       <path id="DejaVuSans-6f" d="M 1959 3097 
Q 1497 3097 1228 2736 
Q 959 2375 959 1747 
Q 959 1119 1226 758 
Q 1494 397 1959 397 
Q 2419 397 2687 759 
Q 2956 1122 2956 1747 
Q 2956 2369 2687 2733 
Q 2419 3097 1959 3097 
z
M 1959 3584 
Q 2709 3584 3137 3096 
Q 3566 2609 3566 1747 
Q 3566 888 3137 398 
Q 2709 -91 1959 -91 
Q 1206 -91 779 398 
Q 353 888 353 1747 
Q 353 2609 779 3096 
Q 1206 3584 1959 3584 
z
" transform="scale(0.015625)"/>
       <path id="DejaVuSans-6c" d="M 603 4863 
L 1178 4863 
L 1178 0 
L 603 0 
L 603 4863 
z
" transform="scale(0.015625)"/>
       <path id="DejaVuSans-47" d="M 3809 666 
L 3809 1919 
L 2778 1919 
L 2778 2438 
L 4434 2438 
L 4434 434 
Q 4069 175 3628 42 
Q 3188 -91 2688 -91 
Q 1594 -91 976 548 
Q 359 1188 359 2328 
Q 359 3472 976 4111 
Q 1594 4750 2688 4750 
Q 3144 4750 3555 4637 
Q 3966 4525 4313 4306 
L 4313 3634 
Q 3963 3931 3569 4081 
Q 3175 4231 2741 4231 
Q 1884 4231 1454 3753 
Q 1025 3275 1025 2328 
Q 1025 1384 1454 906 
Q 1884 428 2741 428 
Q 3075 428 3337 486 
Q 3600 544 3809 666 
z
" transform="scale(0.015625)"/>
       <path id="DejaVuSans-4e" d="M 628 4666 
L 1478 4666 
L 3547 763 
L 3547 4666 
L 4159 4666 
L 4159 0 
L 3309 0 
L 1241 3903 
L 1241 0 
L 628 0 
L 628 4666 
z
" transform="scale(0.015625)"/>
      </defs>
      <use xlink:href="#DejaVuSans-4c"/>
      <use xlink:href="#DejaVuSans-6f" transform="translate(53.962891 0)"/>
      <use xlink:href="#DejaVuSans-63" transform="translate(115.144531 0)"/>
      <use xlink:href="#DejaVuSans-61" transform="translate(170.125 0)"/>
      <use xlink:href="#DejaVuSans-6c" transform="translate(231.404297 0)"/>
      <use xlink:href="#DejaVuSans-47" transform="translate(259.1875 0)"/>
      <use xlink:href="#DejaVuSans-4e" transform="translate(336.677734 0)"/>
      <use xlink:href="#DejaVuSans-54" transform="translate(411.482422 0)"/>
      <use xlink:href="#DejaVuSans-53" transform="translate(472.566406 0)"/>
      <use xlink:href="#DejaVuSans-2d" transform="translate(536.042969 0)"/>
      <use xlink:href="#DejaVuSans-31" transform="translate(572.126953 0)"/>
      <use xlink:href="#DejaVuSans-34" transform="translate(635.75 0)"/>
     </g>
    </g>
    <g id="line2d_21">
     <path d="M 291.559063 234.291812 
L 301.559063 234.291812 
L 311.559063 234.291812 
" style="fill: none; stroke: #ff7f0e; stroke-width: 1.5; stroke-linecap: square"/>
    </g>
    <g id="text_18">
     <!-- GlobalGNTS-14 -->
     <g transform="translate(319.559063 237.791812) scale(0.1 -0.1)">
      <defs>
       <path id="DejaVuSans-62" d="M 3116 1747 
Q 3116 2381 2855 2742 
Q 2594 3103 2138 3103 
Q 1681 3103 1420 2742 
Q 1159 2381 1159 1747 
Q 1159 1113 1420 752 
Q 1681 391 2138 391 
Q 2594 391 2855 752 
Q 3116 1113 3116 1747 
z
M 1159 2969 
Q 1341 3281 1617 3432 
Q 1894 3584 2278 3584 
Q 2916 3584 3314 3078 
Q 3713 2572 3713 1747 
Q 3713 922 3314 415 
Q 2916 -91 2278 -91 
Q 1894 -91 1617 61 
Q 1341 213 1159 525 
L 1159 0 
L 581 0 
L 581 4863 
L 1159 4863 
L 1159 2969 
z
" transform="scale(0.015625)"/>
      </defs>
      <use xlink:href="#DejaVuSans-47"/>
      <use xlink:href="#DejaVuSans-6c" transform="translate(77.490234 0)"/>
      <use xlink:href="#DejaVuSans-6f" transform="translate(105.273438 0)"/>
      <use xlink:href="#DejaVuSans-62" transform="translate(166.455078 0)"/>
      <use xlink:href="#DejaVuSans-61" transform="translate(229.931641 0)"/>
      <use xlink:href="#DejaVuSans-6c" transform="translate(291.210938 0)"/>
      <use xlink:href="#DejaVuSans-47" transform="translate(318.994141 0)"/>
      <use xlink:href="#DejaVuSans-4e" transform="translate(396.484375 0)"/>
      <use xlink:href="#DejaVuSans-54" transform="translate(471.289062 0)"/>
      <use xlink:href="#DejaVuSans-53" transform="translate(532.373047 0)"/>
      <use xlink:href="#DejaVuSans-2d" transform="translate(595.849609 0)"/>
      <use xlink:href="#DejaVuSans-31" transform="translate(631.933594 0)"/>
      <use xlink:href="#DejaVuSans-34" transform="translate(695.556641 0)"/>
     </g>
    </g>
    <g id="line2d_22">
     <path d="M 291.559063 248.969937 
L 301.559063 248.969937 
L 311.559063 248.969937 
" style="fill: none; stroke: #2ca02c; stroke-width: 1.5; stroke-linecap: square"/>
    </g>
    <g id="text_19">
     <!-- Beta-Binomial-14 -->
     <g transform="translate(319.559063 252.469937) scale(0.1 -0.1)">
      <use xlink:href="#DejaVuSans-42"/>
      <use xlink:href="#DejaVuSans-65" transform="translate(68.603516 0)"/>
      <use xlink:href="#DejaVuSans-74" transform="translate(130.126953 0)"/>
      <use xlink:href="#DejaVuSans-61" transform="translate(169.335938 0)"/>
      <use xlink:href="#DejaVuSans-2d" transform="translate(230.615234 0)"/>
      <use xlink:href="#DejaVuSans-42" transform="translate(263.074219 0)"/>
      <use xlink:href="#DejaVuSans-69" transform="translate(331.677734 0)"/>
      <use xlink:href="#DejaVuSans-6e" transform="translate(359.460938 0)"/>
      <use xlink:href="#DejaVuSans-6f" transform="translate(422.839844 0)"/>
      <use xlink:href="#DejaVuSans-6d" transform="translate(484.021484 0)"/>
      <use xlink:href="#DejaVuSans-69" transform="translate(581.433594 0)"/>
      <use xlink:href="#DejaVuSans-61" transform="translate(609.216797 0)"/>
      <use xlink:href="#DejaVuSans-6c" transform="translate(670.496094 0)"/>
      <use xlink:href="#DejaVuSans-2d" transform="translate(698.279297 0)"/>
      <use xlink:href="#DejaVuSans-31" transform="translate(734.363281 0)"/>
      <use xlink:href="#DejaVuSans-34" transform="translate(797.986328 0)"/>
     </g>
    </g>
    <g id="line2d_23">
     <path d="M 291.559063 263.648062 
L 301.559063 263.648062 
L 311.559063 263.648062 
" style="fill: none; stroke: #d62728; stroke-width: 1.5; stroke-linecap: square"/>
    </g>
    <g id="text_20">
     <!-- Proportional -->
     <g transform="translate(319.559063 267.148062) scale(0.1 -0.1)">
      <defs>
       <path id="DejaVuSans-50" d="M 1259 4147 
L 1259 2394 
L 2053 2394 
Q 2494 2394 2734 2622 
Q 2975 2850 2975 3272 
Q 2975 3691 2734 3919 
Q 2494 4147 2053 4147 
L 1259 4147 
z
M 628 4666 
L 2053 4666 
Q 2838 4666 3239 4311 
Q 3641 3956 3641 3272 
Q 3641 2581 3239 2228 
Q 2838 1875 2053 1875 
L 1259 1875 
L 1259 0 
L 628 0 
L 628 4666 
z
" transform="scale(0.015625)"/>
       <path id="DejaVuSans-70" d="M 1159 525 
L 1159 -1331 
L 581 -1331 
L 581 3500 
L 1159 3500 
L 1159 2969 
Q 1341 3281 1617 3432 
Q 1894 3584 2278 3584 
Q 2916 3584 3314 3078 
Q 3713 2572 3713 1747 
Q 3713 922 3314 415 
Q 2916 -91 2278 -91 
Q 1894 -91 1617 61 
Q 1341 213 1159 525 
z
M 3116 1747 
Q 3116 2381 2855 2742 
Q 2594 3103 2138 3103 
Q 1681 3103 1420 2742 
Q 1159 2381 1159 1747 
Q 1159 1113 1420 752 
Q 1681 391 2138 391 
Q 2594 391 2855 752 
Q 3116 1113 3116 1747 
z
" transform="scale(0.015625)"/>
      </defs>
      <use xlink:href="#DejaVuSans-50"/>
      <use xlink:href="#DejaVuSans-72" transform="translate(58.552734 0)"/>
      <use xlink:href="#DejaVuSans-6f" transform="translate(97.416016 0)"/>
      <use xlink:href="#DejaVuSans-70" transform="translate(158.597656 0)"/>
      <use xlink:href="#DejaVuSans-6f" transform="translate(222.074219 0)"/>
      <use xlink:href="#DejaVuSans-72" transform="translate(283.255859 0)"/>
      <use xlink:href="#DejaVuSans-74" transform="translate(324.369141 0)"/>
      <use xlink:href="#DejaVuSans-69" transform="translate(363.578125 0)"/>
      <use xlink:href="#DejaVuSans-6f" transform="translate(391.361328 0)"/>
      <use xlink:href="#DejaVuSans-6e" transform="translate(452.542969 0)"/>
      <use xlink:href="#DejaVuSans-61" transform="translate(515.921875 0)"/>
      <use xlink:href="#DejaVuSans-6c" transform="translate(577.201172 0)"/>
     </g>
    </g>
    <g id="line2d_24">
     <path d="M 291.559063 278.326188 
L 301.559063 278.326188 
L 311.559063 278.326188 
" style="fill: none; stroke: #9467bd; stroke-width: 1.5; stroke-linecap: square"/>
    </g>
    <g id="text_21">
     <!-- Uniform -->
     <g transform="translate(319.559063 281.826188) scale(0.1 -0.1)">
      <defs>
       <path id="DejaVuSans-55" d="M 556 4666 
L 1191 4666 
L 1191 1831 
Q 1191 1081 1462 751 
Q 1734 422 2344 422 
Q 2950 422 3222 751 
Q 3494 1081 3494 1831 
L 3494 4666 
L 4128 4666 
L 4128 1753 
Q 4128 841 3676 375 
Q 3225 -91 2344 -91 
Q 1459 -91 1007 375 
Q 556 841 556 1753 
L 556 4666 
z
" transform="scale(0.015625)"/>
      </defs>
      <use xlink:href="#DejaVuSans-55"/>
      <use xlink:href="#DejaVuSans-6e" transform="translate(73.193359 0)"/>
      <use xlink:href="#DejaVuSans-69" transform="translate(136.572266 0)"/>
      <use xlink:href="#DejaVuSans-66" transform="translate(164.355469 0)"/>
      <use xlink:href="#DejaVuSans-6f" transform="translate(199.560547 0)"/>
      <use xlink:href="#DejaVuSans-72" transform="translate(260.742188 0)"/>
      <use xlink:href="#DejaVuSans-6d" transform="translate(300.105469 0)"/>
     </g>
    </g>
    <g id="line2d_25">
     <path d="M 291.559063 293.004312 
L 301.559063 293.004312 
L 311.559063 293.004312 
" style="fill: none; stroke: #8c564b; stroke-width: 1.5; stroke-linecap: square"/>
    </g>
    <g id="text_22">
     <!-- Random -->
     <g transform="translate(319.559063 296.504312) scale(0.1 -0.1)">
      <defs>
       <path id="DejaVuSans-52" d="M 2841 2188 
Q 3044 2119 3236 1894 
Q 3428 1669 3622 1275 
L 4263 0 
L 3584 0 
L 2988 1197 
Q 2756 1666 2539 1819 
Q 2322 1972 1947 1972 
L 1259 1972 
L 1259 0 
L 628 0 
L 628 4666 
L 2053 4666 
Q 2853 4666 3247 4331 
Q 3641 3997 3641 3322 
Q 3641 2881 3436 2590 
Q 3231 2300 2841 2188 
z
M 1259 4147 
L 1259 2491 
L 2053 2491 
Q 2509 2491 2742 2702 
Q 2975 2913 2975 3322 
Q 2975 3731 2742 3939 
Q 2509 4147 2053 4147 
L 1259 4147 
z
" transform="scale(0.015625)"/>
       <path id="DejaVuSans-64" d="M 2906 2969 
L 2906 4863 
L 3481 4863 
L 3481 0 
L 2906 0 
L 2906 525 
Q 2725 213 2448 61 
Q 2172 -91 1784 -91 
Q 1150 -91 751 415 
Q 353 922 353 1747 
Q 353 2572 751 3078 
Q 1150 3584 1784 3584 
Q 2172 3584 2448 3432 
Q 2725 3281 2906 2969 
z
M 947 1747 
Q 947 1113 1208 752 
Q 1469 391 1925 391 
Q 2381 391 2643 752 
Q 2906 1113 2906 1747 
Q 2906 2381 2643 2742 
Q 2381 3103 1925 3103 
Q 1469 3103 1208 2742 
Q 947 2381 947 1747 
z
" transform="scale(0.015625)"/>
      </defs>
      <use xlink:href="#DejaVuSans-52"/>
      <use xlink:href="#DejaVuSans-61" transform="translate(67.232422 0)"/>
      <use xlink:href="#DejaVuSans-6e" transform="translate(128.511719 0)"/>
      <use xlink:href="#DejaVuSans-64" transform="translate(191.890625 0)"/>
      <use xlink:href="#DejaVuSans-6f" transform="translate(255.367188 0)"/>
      <use xlink:href="#DejaVuSans-6d" transform="translate(316.548828 0)"/>
     </g>
    </g>
   </g>
  </g>
 </g>
 <defs>
  <clipPath id="p36475bbc6d">
   <rect x="57.6" y="41.472" width="357.12" height="266.112"/>
  </clipPath>
 </defs>
</svg>
