<?xml version="1.0" encoding="utf-8" standalone="no"?>
<!DOCTYPE svg PUBLIC "-//W3C//DTD SVG 1.1//EN"
  "http://www.w3.org/Graphics/SVG/1.1/DTD/svg11.dtd">
<svg xmlns:xlink="http://www.w3.org/1999/xlink" width="460.8pt" height="345.6pt" viewBox="0 0 460.8 345.6" xmlns="http://www.w3.org/2000/svg" version="1.1">
 <metadata>
  <rdf:RDF xmlns:dc="http://purl.org/dc/elements/1.1/" xmlns:cc="http://creativecommons.org/ns#" xmlns:rdf="http://www.w3.org/1999/02/22-rdf-syntax-ns#">
   <cc:Work>
    <dc:type rdf:resource="http://purl.org/dc/dcmitype/StillImage"/>
    <dc:date>2026-04-06T19:14:02.605967</dc:date>
    <dc:format>image/svg+xml</dc:format>
    <dc:creator>
     <cc:Agent>
      <dc:title>Matplotlib v3.10.8, https://matplotlib.org/</dc:title>
     </cc:Agent>
    </dc:creator>
   </cc:Work>
  </rdf:RDF>
 </metadata>
 <defs>
  <style type="text/css">*{stroke-linejoin: round; stroke-linecap: butt}</style>
 </defs>
 <g id="figure_1">
  <g id="patch_1">
   <path d="M 0 345.6 
L 460.8 345.6 
L 460.8 0 
L 0 0 
z
" style="fill: #ffffff"/>
  </g>
  <g id="axes_1">
   <g id="patch_2">
    <path d="M 57.6 307.584 
L 414.72 307.584 
L 414.72 41.472 
L 57.6 41.472 
z
" style="fill: #ffffff"/>
   </g>
   <g id="matplotlib.axis_1">
    <g id="xtick_1">
     <g id="line2d_1">
      <defs>
       <path id="m8639c4cf3d" d="M 0 0 
L 0 3.5 
" style="stroke: #000000; stroke-width: 0.8"/>
      </defs>
      <g>
       <use xlink:href="#m8639c4cf3d" x="73.832727" y="307.584" style="stroke: #000000; stroke-width: 0.8"/>
      </g>
     </g>
     <g id="text_1">
      <!-- 0 -->
      <g transform="translate(70.651477 322.182437) scale(0.1 -0.1)">
       <defs>
        <path id="DejaVuSans-30" d="M 2034 4250 
Q 1547 4250 1301 3770 
Q 1056 3291 1056 2328 
Q 1056 1369 1301 889 
Q 1547 409 2034 409 
Q 2525 409 2770 889 
Q 3016 1369 3016 2328 
Q 3016 3291 2770 3770 
Q 2525 4250 2034 4250 
z
M 2034 4750 
Q 2819 4750 3233 4129 
Q 3647 3509 3647 2328 
Q 3647 1150 3233 529 
Q 2819 -91 2034 -91 
Q 1250 -91 836 529 
Q 422 1150 422 2328 
Q 422 3509 836 4129 
Q 1250 4750 2034 4750 
z
" transform="scale(0.015625)"/>
       </defs>
       <use xlink:href="#DejaVuSans-30"/>
      </g>
     </g>
    </g>
    <g id="xtick_2">
     <g id="line2d_2">
      <g>
       <use xlink:href="#m8639c4cf3d" x="117.410519" y="307.584" style="stroke: #000000; stroke-width: 0.8"/>
      </g>
     </g>
     <g id="text_2">
      <!-- 20 -->
      <g transform="translate(111.048019 322.182437) scale(0.1 -0.1)">
       <defs>
        <path id="DejaVuSans-32" d="M 1228 531 
L 3431 531 
L 3431 0 
L 469 0 
L 469 531 
Q 828 903 1448 1529 
Q 2069 2156 2228 2338 
Q 2531 2678 2651 2914 
Q 2772 3150 2772 3378 
Q 2772 3750 2511 3984 
Q 2250 4219 1831 4219 
Q 1534 4219 1204 4116 
Q 875 4013 500 3803 
L 500 4441 
Q 881 4594 1212 4672 
Q 1544 4750 1819 4750 
Q 2544 4750 2975 4387 
Q 3406 4025 3406 3419 
Q 3406 3131 3298 2873 
Q 3191 2616 2906 2266 
Q 2828 2175 2409 1742 
Q 1991 1309 1228 531 
z
" transform="scale(0.015625)"/>
       </defs>
       <use xlink:href="#DejaVuSans-32"/>
       <use xlink:href="#DejaVuSans-30" transform="translate(63.623047 0)"/>
      </g>
     </g>
    </g>
    <g id="xtick_3">
     <g id="line2d_3">
      <g>
       <use xlink:href="#m8639c4cf3d" x="160.98831" y="307.584" style="stroke: #000000; stroke-width: 0.8"/>
      </g>
     </g>
     <g id="text_3">
      <!-- 40 -->
      <g transform="translate(154.62581 322.182437) scale(0.1 -0.1)">
       <defs>
        <path id="DejaVuSans-34" d="M 2419 4116 
L 825 1625 
L 2419 1625 
L 2419 4116 
z
M 2253 4666 
L 3047 4666 
L 3047 1625 
L 3713 1625 
L 3713 1100 
L 3047 1100 
L 3047 0 
L 2419 0 
L 2419 1100 
L 313 1100 
L 313 1709 
L 2253 4666 
z
" transform="scale(0.015625)"/>
       </defs>
       <use xlink:href="#DejaVuSans-34"/>
       <use xlink:href="#DejaVuSans-30" transform="translate(63.623047 0)"/>
      </g>
     </g>
    </g>
    <g id="xtick_4">
     <g id="line2d_4">
      <g>
       <use xlink:href="#m8639c4cf3d" x="204.566101" y="307.584" style="stroke: #000000; stroke-width: 0.8"/>
      </g>
     </g>
     <g id="text_4">
      <!-- 60 -->
      <g transform="translate(198.203601 322.182437) scale(0.1 -0.1)">
       <defs>
        <path id="DejaVuSans-36" d="M 2113 2584 
Q 1688 2584 1439 2293 
Q 1191 2003 1191 1497 
Q 1191 994 1439 701 
Q 1688 409 2113 409 
Q 2538 409 2786 701 
Q 3034 994 3034 1497 
Q 3034 2003 2786 2293 
Q 2538 2584 2113 2584 
z
M 3366 4563 
L 3366 3988 
Q 3128 4100 2886 4159 
Q 2644 4219 2406 4219 
Q 1781 4219 1451 3797 
Q 1122 3375 1075 2522 
Q 1259 2794 1537 2939 
Q 1816 3084 2150 3084 
Q 2853 3084 3261 2657 
Q 3669 2231 3669 1497 
Q 3669 778 3244 343 
Q 2819 -91 2113 -91 
Q 1303 -91 875 529 
Q 447 1150 447 2328 
Q 447 3434 972 4092 
Q 1497 4750 2381 4750 
Q 2619 4750 2861 4703 
Q 3103 4656 3366 4563 
z
" transform="scale(0.015625)"/>
       </defs>
       <use xlink:href="#DejaVuSans-36"/>
       <use xlink:href="#DejaVuSans-30" transform="translate(63.623047 0)"/>
      </g>
     </g>
    </g>
    <g id="xtick_5">
     <g id="line2d_5">
      <g>
       <use xlink:href="#m8639c4cf3d" x="248.143893" y="307.584" style="stroke: #000000; stroke-width: 0.8"/>
      </g>
     </g>
     <g id="text_5">
      <!-- 80 -->
      <g transform="translate(241.781393 322.182437) scale(0.1 -0.1)">
       <defs>
        <path id="DejaVuSans-38" d="M 2034 2216 
Q 1584 2216 1326 1975 
Q 1069 1734 1069 1313 
Q 1069 891 1326 650 
Q 1584 409 2034 409 
Q 2484 409 2743 651 
Q 3003 894 3003 1313 
Q 3003 1734 2745 1975 
Q 2488 2216 2034 2216 
z
M 1403 2484 
Q 997 2584 770 2862 
Q 544 3141 544 3541 
Q 544 4100 942 4425 
Q 1341 4750 2034 4750 
Q 2731 4750 3128 4425 
Q 3525 4100 3525 3541 
Q 3525 3141 3298 2862 
Q 3072 2584 2669 2484 
Q 3125 2378 3379 2068 
Q 3634 1759 3634 1313 
Q 3634 634 3220 271 
Q 2806 -91 2034 -91 
Q 1263 -91 848 271 
Q 434 634 434 1313 
Q 434 1759 690 2068 
Q 947 2378 1403 2484 
z
M 1172 3481 
Q 1172 3119 1398 2916 
Q 1625 2713 2034 2713 
Q 2441 2713 2670 2916 
Q 2900 3119 2900 3481 
Q 2900 3844 2670 4047 
Q 2441 4250 2034 4250 
Q 1625 4250 1398 4047 
Q 1172 3844 1172 3481 
z
" transform="scale(0.015625)"/>
       </defs>
       <use xlink:href="#DejaVuSans-38"/>
       <use xlink:href="#DejaVuSans-30" transform="translate(63.623047 0)"/>
      </g>
     </g>
    </g>
    <g id="xtick_6">
     <g id="line2d_6">
      <g>
       <use xlink:href="#m8639c4cf3d" x="291.721684" y="307.584" style="stroke: #000000; stroke-width: 0.8"/>
      </g>
     </g>
     <g id="text_6">
      <!-- 100 -->
      <g transform="translate(282.177934 322.182437) scale(0.1 -0.1)">
       <defs>
        <path id="DejaVuSans-31" d="M 794 531 
L 1825 531 
L 1825 4091 
L 703 3866 
L 703 4441 
L 1819 4666 
L 2450 4666 
L 2450 531 
L 3481 531 
L 3481 0 
L 794 0 
L 794 531 
z
" transform="scale(0.015625)"/>
       </defs>
       <use xlink:href="#DejaVuSans-31"/>
       <use xlink:href="#DejaVuSans-30" transform="translate(63.623047 0)"/>
       <use xlink:href="#DejaVuSans-30" transform="translate(127.246094 0)"/>
      </g>
     </g>
    </g>
    <g id="xtick_7">
     <g id="line2d_7">
      <g>
       <use xlink:href="#m8639c4cf3d" x="335.299475" y="307.584" style="stroke: #000000; stroke-width: 0.8"/>
      </g>
     </g>
     <g id="text_7">
      <!-- 120 -->
      <g transform="translate(325.755725 322.182437) scale(0.1 -0.1)">
       <use xlink:href="#DejaVuSans-31"/>
       <use xlink:href="#DejaVuSans-32" transform="translate(63.623047 0)"/>
       <use xlink:href="#DejaVuSans-30" transform="translate(127.246094 0)"/>
      </g>
     </g>
    </g>
    <g id="xtick_8">
     <g id="line2d_8">
      <g>
       <use xlink:href="#m8639c4cf3d" x="378.877267" y="307.584" style="stroke: #000000; stroke-width: 0.8"/>
      </g>
     </g>
     <g id="text_8">
      <!-- 140 -->
      <g transform="translate(369.333517 322.182437) scale(0.1 -0.1)">
       <use xlink:href="#DejaVuSans-31"/>
       <use xlink:href="#DejaVuSans-34" transform="translate(63.623047 0)"/>
       <use xlink:href="#DejaVuSans-30" transform="translate(127.246094 0)"/>
      </g>
     </g>
    </g>
    <g id="text_9">
     <!-- Day -->
     <g transform="translate(226.286563 335.860562) scale(0.1 -0.1)">
      <defs>
       <path id="DejaVuSans-44" d="M 1259 4147 
L 1259 519 
L 2022 519 
Q 2988 519 3436 956 
Q 3884 1394 3884 2338 
Q 3884 3275 3436 3711 
Q 2988 4147 2022 4147 
L 1259 4147 
z
M 628 4666 
L 1925 4666 
Q 3281 4666 3915 4102 
Q 4550 3538 4550 2338 
Q 4550 1131 3912 565 
Q 3275 0 1925 0 
L 628 0 
L 628 4666 
z
" transform="scale(0.015625)"/>
       <path id="DejaVuSans-61" d="M 2194 1759 
Q 1497 1759 1228 1600 
Q 959 1441 959 1056 
Q 959 750 1161 570 
Q 1363 391 1709 391 
Q 2188 391 2477 730 
Q 2766 1069 2766 1631 
L 2766 1759 
L 2194 1759 
z
M 3341 1997 
L 3341 0 
L 2766 0 
L 2766 531 
Q 2569 213 2275 61 
Q 1981 -91 1556 -91 
Q 1019 -91 701 211 
Q 384 513 384 1019 
Q 384 1609 779 1909 
Q 1175 2209 1959 2209 
L 2766 2209 
L 2766 2266 
Q 2766 2663 2505 2880 
Q 2244 3097 1772 3097 
Q 1472 3097 1187 3025 
Q 903 2953 641 2809 
L 641 3341 
Q 956 3463 1253 3523 
Q 1550 3584 1831 3584 
Q 2591 3584 2966 3190 
Q 3341 2797 3341 1997 
z
" transform="scale(0.015625)"/>
       <path id="DejaVuSans-79" d="M 2059 -325 
Q 1816 -950 1584 -1140 
Q 1353 -1331 966 -1331 
L 506 -1331 
L 506 -850 
L 844 -850 
Q 1081 -850 1212 -737 
Q 1344 -625 1503 -206 
L 1606 56 
L 191 3500 
L 800 3500 
L 1894 763 
L 2988 3500 
L 3597 3500 
L 2059 -325 
z
" transform="scale(0.015625)"/>
      </defs>
      <use xlink:href="#DejaVuSans-44"/>
      <use xlink:href="#DejaVuSans-61" transform="translate(77.001953 0)"/>
      <use xlink:href="#DejaVuSans-79" transform="translate(138.28125 0)"/>
     </g>
    </g>
   </g>
   <g id="matplotlib.axis_2">
    <g id="ytick_1">
     <g id="line2d_9">
      <defs>
       <path id="mff79a4e589" d="M 0 0 
L -3.5 0 
" style="stroke: #000000; stroke-width: 0.8"/>
      </defs>
      <g>
       <use xlink:href="#mff79a4e589" x="57.6" y="295.488" style="stroke: #000000; stroke-width: 0.8"/>
      </g>
     </g>
     <g id="text_10">
      <!-- 0.0 -->
      <g transform="translate(34.696875 299.287219) scale(0.1 -0.1)">
       <defs>
        <path id="DejaVuSans-2e" d="M 684 794 
L 1344 794 
L 1344 0 
L 684 0 
L 684 794 
z
" transform="scale(0.015625)"/>
       </defs>
       <use xlink:href="#DejaVuSans-30"/>
       <use xlink:href="#DejaVuSans-2e" transform="translate(63.623047 0)"/>
       <use xlink:href="#DejaVuSans-30" transform="translate(95.410156 0)"/>
      </g>
     </g>
    </g>
    <g id="ytick_2">
     <g id="line2d_10">
      <g>
       <use xlink:href="#mff79a4e589" x="57.6" y="238.656" style="stroke: #000000; stroke-width: 0.8"/>
      </g>
     </g>
     <g id="text_11">
      <!-- 0.2 -->
      <g transform="translate(34.696875 242.455219) scale(0.1 -0.1)">
       <use xlink:href="#DejaVuSans-30"/>
       <use xlink:href="#DejaVuSans-2e" transform="translate(63.623047 0)"/>
       <use xlink:href="#DejaVuSans-32" transform="translate(95.410156 0)"/>
      </g>
     </g>
    </g>
    <g id="ytick_3">
     <g id="line2d_11">
      <g>
       <use xlink:href="#mff79a4e589" x="57.6" y="181.824" style="stroke: #000000; stroke-width: 0.8"/>
      </g>
     </g>
     <g id="text_12">
      <!-- 0.4 -->
      <g transform="translate(34.696875 185.623219) scale(0.1 -0.1)">
       <use xlink:href="#DejaVuSans-30"/>
       <use xlink:href="#DejaVuSans-2e" transform="translate(63.623047 0)"/>
       <use xlink:href="#DejaVuSans-34" transform="translate(95.410156 0)"/>
      </g>
     </g>
    </g>
    <g id="ytick_4">
     <g id="line2d_12">
      <g>
       <use xlink:href="#mff79a4e589" x="57.6" y="124.992" style="stroke: #000000; stroke-width: 0.8"/>
      </g>
     </g>
     <g id="text_13">
      <!-- 0.6 -->
      <g transform="translate(34.696875 128.791219) scale(0.1 -0.1)">
       <use xlink:href="#DejaVuSans-30"/>
       <use xlink:href="#DejaVuSans-2e" transform="translate(63.623047 0)"/>
       <use xlink:href="#DejaVuSans-36" transform="translate(95.410156 0)"/>
      </g>
     </g>
    </g>
    <g id="ytick_5">
     <g id="line2d_13">
      <g>
       <use xlink:href="#mff79a4e589" x="57.6" y="68.16" style="stroke: #000000; stroke-width: 0.8"/>
      </g>
     </g>
     <g id="text_14">
      <!-- 0.8 -->
      <g transform="translate(34.696875 71.959219) scale(0.1 -0.1)">
       <use xlink:href="#DejaVuSans-30"/>
       <use xlink:href="#DejaVuSans-2e" transform="translate(63.623047 0)"/>
       <use xlink:href="#DejaVuSans-38" transform="translate(95.410156 0)"/>
      </g>
     </g>
    </g>
    <g id="text_15">
     <!-- Q / (E+I+A+Q) -->
     <g transform="translate(28.617187 211.788156) rotate(-90) scale(0.1 -0.1)">
      <defs>
       <path id="DejaVuSans-51" d="M 2522 4238 
Q 1834 4238 1429 3725 
Q 1025 3213 1025 2328 
Q 1025 1447 1429 934 
Q 1834 422 2522 422 
Q 3209 422 3611 934 
Q 4013 1447 4013 2328 
Q 4013 3213 3611 3725 
Q 3209 4238 2522 4238 
z
M 3406 84 
L 4238 -825 
L 3475 -825 
L 2784 -78 
Q 2681 -84 2626 -87 
Q 2572 -91 2522 -91 
Q 1538 -91 948 567 
Q 359 1225 359 2328 
Q 359 3434 948 4092 
Q 1538 4750 2522 4750 
Q 3503 4750 4090 4092 
Q 4678 3434 4678 2328 
Q 4678 1516 4351 937 
Q 4025 359 3406 84 
z
" transform="scale(0.015625)"/>
       <path id="DejaVuSans-20" transform="scale(0.015625)"/>
       <path id="DejaVuSans-2f" d="M 1625 4666 
L 2156 4666 
L 531 -594 
L 0 -594 
L 1625 4666 
z
" transform="scale(0.015625)"/>
       <path id="DejaVuSans-28" d="M 1984 4856 
Q 1566 4138 1362 3434 
Q 1159 2731 1159 2009 
Q 1159 1288 1364 580 
Q 1569 -128 1984 -844 
L 1484 -844 
Q 1016 -109 783 600 
Q 550 1309 550 2009 
Q 550 2706 781 3412 
Q 1013 4119 1484 4856 
L 1984 4856 
z
" transform="scale(0.015625)"/>
       <path id="DejaVuSans-45" d="M 628 4666 
L 3578 4666 
L 3578 4134 
L 1259 4134 
L 1259 2753 
L 3481 2753 
L 3481 2222 
L 1259 2222 
L 1259 531 
L 3634 531 
L 3634 0 
L 628 0 
L 628 4666 
z
" transform="scale(0.015625)"/>
       <path id="DejaVuSans-2b" d="M 2944 4013 
L 2944 2272 
L 4684 2272 
L 4684 1741 
L 2944 1741 
L 2944 0 
L 2419 0 
L 2419 1741 
L 678 1741 
L 678 2272 
L 2419 2272 
L 2419 4013 
L 2944 4013 
z
" transform="scale(0.015625)"/>
       <path id="DejaVuSans-49" d="M 628 4666 
L 1259 4666 
L 1259 0 
L 628 0 
L 628 4666 
z
" transform="scale(0.015625)"/>
       <path id="DejaVuSans-41" d="M 2188 4044 
L 1331 1722 
L 3047 1722 
L 2188 4044 
z
M 1831 4666 
L 2547 4666 
L 4325 0 
L 3669 0 
L 3244 1197 
L 1141 1197 
L 716 0 
L 50 0 
L 1831 4666 
z
" transform="scale(0.015625)"/>
       <path id="DejaVuSans-29" d="M 513 4856 
L 1013 4856 
Q 1481 4119 1714 3412 
Q 1947 2706 1947 2009 
Q 1947 1309 1714 600 
Q 1481 -109 1013 -844 
L 513 -844 
Q 928 -128 1133 580 
Q 1338 1288 1338 2009 
Q 1338 2731 1133 3434 
Q 928 4138 513 4856 
z
" transform="scale(0.015625)"/>
      </defs>
      <use xlink:href="#DejaVuSans-51"/>
      <use xlink:href="#DejaVuSans-20" transform="translate(78.710938 0)"/>
      <use xlink:href="#DejaVuSans-2f" transform="translate(110.498047 0)"/>
      <use xlink:href="#DejaVuSans-20" transform="translate(144.189453 0)"/>
      <use xlink:href="#DejaVuSans-28" transform="translate(175.976562 0)"/>
      <use xlink:href="#DejaVuSans-45" transform="translate(214.990234 0)"/>
      <use xlink:href="#DejaVuSans-2b" transform="translate(278.173828 0)"/>
      <use xlink:href="#DejaVuSans-49" transform="translate(361.962891 0)"/>
      <use xlink:href="#DejaVuSans-2b" transform="translate(391.455078 0)"/>
      <use xlink:href="#DejaVuSans-41" transform="translate(475.244141 0)"/>
      <use xlink:href="#DejaVuSans-2b" transform="translate(543.652344 0)"/>
      <use xlink:href="#DejaVuSans-51" transform="translate(627.441406 0)"/>
      <use xlink:href="#DejaVuSans-29" transform="translate(706.152344 0)"/>
     </g>
    </g>
   </g>
   <g id="line2d_14">
    <path d="M 73.832727 295.488 
L 115.231629 295.488 
L 117.410519 291.744329 
L 119.589408 287.516354 
L 121.768298 282.746036 
L 123.947187 278.775452 
L 126.126077 275.63825 
L 128.304966 271.678016 
L 130.483856 268.40537 
L 132.662746 264.471025 
L 134.841635 260.797604 
L 137.020525 257.470268 
L 139.199414 253.808013 
L 141.378304 250.791395 
L 145.736083 245.22408 
L 147.914973 242.042819 
L 150.093862 239.874525 
L 152.272752 238.01306 
L 154.451641 235.902155 
L 156.630531 234.203282 
L 158.80942 232.956706 
L 160.98831 222.85054 
L 163.1672 214.635975 
L 165.346089 207.916383 
L 167.524979 200.014385 
L 169.703868 194.519604 
L 171.882758 187.808322 
L 174.061647 182.895391 
L 176.240537 178.837995 
L 178.419426 175.681064 
L 180.598316 172.239671 
L 182.777206 169.594962 
L 184.956095 168.478629 
L 189.313874 163.284937 
L 191.492764 161.277378 
L 193.671653 159.513324 
L 195.850543 158.582257 
L 198.029433 155.395334 
L 200.208322 151.422732 
L 202.387212 148.899458 
L 204.566101 142.789259 
L 206.744991 139.115929 
L 208.92388 134.367735 
L 211.10277 130.133281 
L 215.460549 123.525947 
L 217.639439 118.755292 
L 219.818328 115.154129 
L 221.997218 111.778391 
L 224.176107 109.795808 
L 226.354997 105.650402 
L 228.533887 101.860244 
L 230.712776 103.005459 
L 232.891666 102.309512 
L 235.070555 103.726254 
L 237.249445 105.670479 
L 239.428334 106.205342 
L 241.607224 105.102034 
L 243.786113 103.737756 
L 245.965003 101.372118 
L 248.143893 99.668615 
L 250.322782 96.474978 
L 252.501672 94.689713 
L 254.680561 95.212286 
L 256.859451 91.974686 
L 259.03834 89.549876 
L 261.21723 91.774305 
L 263.39612 90.885187 
L 265.575009 90.605245 
L 267.753899 91.885572 
L 269.932788 93.403878 
L 272.111678 95.109818 
L 274.290567 98.49962 
L 276.469457 96.55056 
L 278.648347 96.655746 
L 280.827236 96.576 
L 283.006126 97.068428 
L 285.185015 97.798514 
L 287.363905 101.127481 
L 289.542794 103.905014 
L 291.721684 102.61772 
L 293.900574 103.662964 
L 296.079463 102.981101 
L 298.258353 102.06503 
L 300.437242 101.706667 
L 302.616132 99.204069 
L 306.973911 95.085037 
L 309.1528 98.865441 
L 311.33169 96.990496 
L 313.51058 97.29237 
L 315.689469 100.002043 
L 317.868359 100.486459 
L 320.047248 100.059954 
L 322.226138 103.819294 
L 324.405027 106.048 
L 326.583917 104.625167 
L 328.762807 106.675285 
L 330.941696 111.886904 
L 333.120586 110.951153 
L 335.299475 109.799287 
L 337.478365 110.166261 
L 339.657254 108.32128 
L 341.836144 112.033055 
L 344.015034 107.393455 
L 346.193923 109.085668 
L 348.372813 112.51257 
L 350.551702 113.311804 
L 352.730592 111.725224 
L 354.909481 114.823974 
L 357.088371 118.126389 
L 359.267261 121.728 
L 361.44615 120.848 
L 363.62504 126.986105 
L 365.803929 127.575273 
L 367.982819 126.417892 
L 370.161708 124.992 
L 372.340598 131.306667 
L 374.519487 133.865398 
L 376.698377 133.558588 
L 378.877267 136.91182 
L 381.056156 135.998988 
L 383.235046 136.081171 
L 385.413935 134.665532 
L 387.592825 135.724223 
L 389.771714 135.192615 
L 391.950604 138.582261 
L 394.129494 139.261506 
L 396.308383 136.3584 
L 398.487273 142.860576 
L 398.487273 142.860576 
" clip-path="url(#pd7e8444ad5)" style="fill: none; stroke: #1f77b4; stroke-width: 1.5; stroke-linecap: square"/>
   </g>
   <g id="line2d_15">
    <path d="M 73.832727 295.488 
L 115.231629 295.488 
L 117.410519 292.281544 
L 119.589408 288.289961 
L 123.947187 279.477112 
L 128.304966 271.94344 
L 130.483856 268.599079 
L 132.662746 265.525848 
L 134.841635 263.138945 
L 137.020525 261.25031 
L 141.378304 256.201846 
L 143.557193 254.245015 
L 147.914973 249.35813 
L 150.093862 247.215922 
L 152.272752 245.736628 
L 154.451641 243.620411 
L 156.630531 241.339125 
L 158.80942 240.166971 
L 160.98831 231.210294 
L 171.882758 189.758193 
L 174.061647 182.480701 
L 176.240537 176.006331 
L 178.419426 168.623935 
L 184.956095 154.179162 
L 187.134985 150.065586 
L 189.313874 145.140597 
L 191.492764 141.054499 
L 193.671653 137.234056 
L 195.850543 134.654711 
L 200.208322 128.294916 
L 202.387212 126.533787 
L 204.566101 123.431906 
L 206.744991 121.485931 
L 208.92388 120.999604 
L 211.10277 119.516216 
L 213.28166 118.55162 
L 215.460549 116.03753 
L 219.818328 114.145139 
L 221.997218 113.568173 
L 226.354997 109.968469 
L 228.533887 108.847606 
L 230.712776 107.063002 
L 235.070555 105.524685 
L 237.249445 102.876879 
L 239.428334 101.490045 
L 241.607224 99.571841 
L 243.786113 99.639551 
L 245.965003 101.165526 
L 248.143893 99.035893 
L 250.322782 99.146291 
L 252.501672 99.821386 
L 254.680561 99.981223 
L 256.859451 99.233612 
L 259.03834 101.801435 
L 261.21723 103.776537 
L 263.39612 102.954131 
L 265.575009 101.023722 
L 267.753899 102.217412 
L 269.932788 101.033948 
L 272.111678 100.163591 
L 274.290567 101.109522 
L 276.469457 103.522133 
L 278.648347 101.345589 
L 280.827236 99.802725 
L 283.006126 96.649237 
L 285.185015 96.462487 
L 287.363905 99.759535 
L 289.542794 101.816991 
L 291.721684 103.488 
L 293.900574 103.092618 
L 296.079463 101.596006 
L 298.258353 106.680521 
L 300.437242 104.709201 
L 302.616132 106.220847 
L 304.795021 106.953545 
L 306.973911 107.182371 
L 313.51058 119.459681 
L 315.689469 119.825455 
L 317.868359 123.779943 
L 320.047248 121.258511 
L 322.226138 122.735643 
L 324.405027 120.953178 
L 326.583917 116.408 
L 328.762807 119.033806 
L 330.941696 120.023082 
L 333.120586 116.018526 
L 335.299475 113.165688 
L 337.478365 108.358244 
L 339.657254 105.751072 
L 341.836144 110.007357 
L 344.015034 115.52 
L 346.193923 120.695423 
L 348.372813 116.610302 
L 350.551702 118.28121 
L 352.730592 115.556571 
L 357.088371 123.128656 
L 359.267261 126.176 
L 361.44615 125.714441 
L 363.62504 118.349299 
L 365.803929 116.428274 
L 367.982819 118.054761 
L 370.161708 119.447415 
L 372.340598 114.405647 
L 374.519487 112.813714 
L 376.698377 124.113155 
L 378.877267 126.169865 
L 381.056156 134.560653 
L 383.235046 134.614349 
L 385.413935 130.73566 
L 387.592825 136.420174 
L 389.771714 137.964522 
L 391.950604 134.672176 
L 394.129494 137.964522 
L 396.308383 127.154087 
L 398.487273 124.681443 
L 398.487273 124.681443 
" clip-path="url(#pd7e8444ad5)" style="fill: none; stroke: #ff7f0e; stroke-width: 1.5; stroke-linecap: square"/>
   </g>
   <g id="line2d_16">
    <path d="M 73.832727 295.488 
L 115.231629 295.488 
L 117.410519 293.530847 
L 119.589408 292.009909 
L 121.768298 290.719394 
L 123.947187 289.752092 
L 128.304966 287.635821 
L 134.841635 284.765653 
L 137.020525 284.178503 
L 139.199414 283.285461 
L 141.378304 282.617989 
L 143.557193 282.39643 
L 150.093862 280.896 
L 152.272752 280.695841 
L 154.451641 280.287089 
L 156.630531 280.245212 
L 158.80942 279.855111 
L 163.1672 274.977764 
L 167.524979 271.457166 
L 169.703868 269.388239 
L 171.882758 267.863455 
L 174.061647 265.997098 
L 176.240537 264.517133 
L 178.419426 262.682486 
L 180.598316 260.617518 
L 182.777206 259.52558 
L 184.956095 258.101913 
L 187.134985 256.471468 
L 189.313874 254.6672 
L 191.492764 253.811661 
L 193.671653 252.595253 
L 195.850543 250.261662 
L 198.029433 248.667465 
L 202.387212 243.720078 
L 204.566101 238.366041 
L 206.744991 234.005095 
L 208.92388 227.268198 
L 215.460549 209.273675 
L 217.639439 201.889776 
L 219.818328 194.924705 
L 221.997218 187.173838 
L 224.176107 180.473702 
L 226.354997 171.543211 
L 228.533887 164.261561 
L 230.712776 155.070565 
L 232.891666 147.926519 
L 235.070555 142.164813 
L 237.249445 134.015013 
L 239.428334 128.360202 
L 243.786113 121.248 
L 248.143893 111.250014 
L 250.322782 110.651645 
L 252.501672 106.575801 
L 254.680561 105.011393 
L 256.859451 104.591469 
L 261.21723 98.617962 
L 263.39612 96.262649 
L 265.575009 97.22063 
L 267.753899 93.623688 
L 269.932788 91.095632 
L 272.111678 92.663652 
L 274.290567 92.672344 
L 278.648347 96.747328 
L 280.827236 97.121962 
L 283.006126 98.338233 
L 285.185015 97.304615 
L 287.363905 95.991055 
L 289.542794 97.03222 
L 291.721684 96.710993 
L 293.900574 92.363578 
L 296.079463 90.053066 
L 298.258353 86.275701 
L 300.437242 86.768708 
L 302.616132 88.463476 
L 304.795021 90.520131 
L 306.973911 89.819748 
L 309.1528 91.910687 
L 311.33169 90.138 
L 313.51058 92.186537 
L 315.689469 89.380532 
L 317.868359 91.308961 
L 320.047248 90.444473 
L 324.405027 94.566788 
L 326.583917 89.795775 
L 328.762807 90.761775 
L 330.941696 92.270545 
L 333.120586 96.851883 
L 335.299475 97.642812 
L 337.478365 94.421718 
L 339.657254 86.051556 
L 341.836144 90.018462 
L 344.015034 89.037061 
L 346.193923 88.288 
L 348.372813 92.166621 
L 350.551702 89.180055 
L 352.730592 93.478521 
L 354.909481 94.904471 
L 357.088371 96.001939 
L 359.267261 101.884484 
L 361.44615 96.740254 
L 363.62504 107.149395 
L 365.803929 110.090927 
L 367.982819 110.244456 
L 370.161708 107.254624 
L 372.340598 104.801684 
L 374.519487 107.354483 
L 376.698377 106.724571 
L 378.877267 112.362667 
L 381.056156 119.786015 
L 383.235046 117.888 
L 385.413935 112.813714 
L 387.592825 111.482754 
L 389.771714 102.91676 
L 391.950604 104.414897 
L 394.129494 104.37154 
L 396.308383 109.492364 
L 398.487273 108.754286 
L 398.487273 108.754286 
" clip-path="url(#pd7e8444ad5)" style="fill: none; stroke: #2ca02c; stroke-width: 1.5; stroke-linecap: square"/>
   </g>
   <g id="line2d_17">
    <path d="M 73.832727 295.488 
L 115.231629 295.488 
L 117.410519 293.406242 
L 121.768298 290.081231 
L 123.947187 289.1824 
L 132.662746 285.122859 
L 134.841635 284.353368 
L 141.378304 282.565596 
L 143.557193 282.345965 
L 145.736083 281.851393 
L 147.914973 281.647299 
L 150.093862 281.592417 
L 156.630531 280.468029 
L 158.80942 280.155945 
L 163.1672 275.430339 
L 167.524979 271.391518 
L 174.061647 264.46978 
L 180.598316 258.515748 
L 182.777206 257.175766 
L 184.956095 255.420167 
L 189.313874 251.133391 
L 191.492764 249.141636 
L 193.671653 246.80192 
L 195.850543 244.788555 
L 198.029433 241.989113 
L 202.387212 236.077054 
L 208.92388 217.060615 
L 211.10277 210.275088 
L 213.28166 202.098632 
L 221.997218 172.683277 
L 224.176107 164.866603 
L 226.354997 158.776792 
L 228.533887 153.554173 
L 230.712776 146.765894 
L 232.891666 140.82884 
L 235.070555 136.665139 
L 239.428334 128.989473 
L 241.607224 124.712531 
L 243.786113 122.21206 
L 245.965003 121.096972 
L 248.143893 119.729778 
L 252.501672 116.004856 
L 254.680561 115.447695 
L 256.859451 115.158473 
L 259.03834 113.459981 
L 261.21723 112.014614 
L 263.39612 111.282082 
L 265.575009 110.97083 
L 267.753899 107.863519 
L 269.932788 109.280089 
L 272.111678 111.00068 
L 274.290567 109.425724 
L 276.469457 108.149553 
L 278.648347 108.243497 
L 280.827236 105.552084 
L 283.006126 104.924496 
L 287.363905 100.818061 
L 289.542794 101.3376 
L 291.721684 97.954143 
L 293.900574 93.503067 
L 296.079463 93.077548 
L 298.258353 90.575809 
L 300.437242 90.371115 
L 304.795021 93.13823 
L 306.973911 94.49678 
L 309.1528 92.66181 
L 311.33169 89.810286 
L 313.51058 87.297306 
L 315.689469 85.841067 
L 317.868359 90.520131 
L 320.047248 91.921056 
L 322.226138 94.299783 
L 324.405027 89.255535 
L 326.583917 90.398609 
L 328.762807 90.751602 
L 330.941696 87.976421 
L 333.120586 91.823836 
L 335.299475 93.557451 
L 337.478365 95.688 
L 339.657254 97.263484 
L 341.836144 103.262118 
L 344.015034 95.808 
L 346.193923 86.255761 
L 348.372813 92.728 
L 350.551702 93.826065 
L 352.730592 98.513455 
L 354.909481 102.724491 
L 357.088371 111.719856 
L 359.267261 105.456 
L 361.44615 96.761725 
L 363.62504 102.736112 
L 365.803929 101.172706 
L 367.982819 102.513672 
L 370.161708 102.432733 
L 372.340598 107.575742 
L 374.519487 99.680269 
L 376.698377 109.96205 
L 378.877267 113.811934 
L 381.056156 116.395563 
L 383.235046 129.326644 
L 385.413935 117.888 
L 387.592825 112.999927 
L 389.771714 118.848 
L 391.950604 130.158545 
L 394.129494 130.404571 
L 396.308383 119.977412 
L 398.487273 133.906824 
L 398.487273 133.906824 
" clip-path="url(#pd7e8444ad5)" style="fill: none; stroke: #d62728; stroke-width: 1.5; stroke-linecap: square"/>
   </g>
   <g id="line2d_18">
    <path d="M 73.832727 295.488 
L 115.231629 295.488 
L 117.410519 293.770356 
L 119.589408 292.548271 
L 121.768298 291.508725 
L 123.947187 290.630232 
L 126.126077 289.592884 
L 128.304966 288.430983 
L 130.483856 287.487267 
L 132.662746 286.722139 
L 134.841635 286.078984 
L 139.199414 284.418298 
L 141.378304 283.979613 
L 143.557193 283.352 
L 145.736083 282.955291 
L 150.093862 281.611669 
L 154.451641 280.96068 
L 156.630531 280.320796 
L 158.80942 279.914745 
L 163.1672 275.210299 
L 165.346089 272.874718 
L 169.703868 269.043388 
L 171.882758 267.463046 
L 176.240537 264.127373 
L 178.419426 262.067769 
L 180.598316 259.788968 
L 184.956095 255.789986 
L 187.134985 253.365283 
L 189.313874 251.891162 
L 191.492764 249.745548 
L 193.671653 248.042334 
L 195.850543 246.176333 
L 198.029433 243.950393 
L 202.387212 240.731619 
L 206.744991 230.753189 
L 213.28166 215.064396 
L 215.460549 208.98612 
L 217.639439 204.14891 
L 219.818328 198.2903 
L 221.997218 193.409392 
L 226.354997 182.762324 
L 228.533887 177.479815 
L 230.712776 173.439628 
L 232.891666 167.63767 
L 235.070555 163.131247 
L 237.249445 158.291016 
L 239.428334 154.490673 
L 241.607224 151.32497 
L 243.786113 146.590342 
L 245.965003 142.787879 
L 248.143893 139.397263 
L 250.322782 134.400287 
L 252.501672 131.583799 
L 254.680561 128.951607 
L 259.03834 122.38052 
L 261.21723 116.985959 
L 263.39612 113.682861 
L 265.575009 110.107429 
L 267.753899 108.063319 
L 269.932788 105.324522 
L 272.111678 103.865783 
L 274.290567 99.882793 
L 276.469457 98.520149 
L 278.648347 94.562595 
L 280.827236 94.69906 
L 283.006126 92.614704 
L 285.185015 88.338772 
L 287.363905 84.826579 
L 289.542794 83.809391 
L 291.721684 84.41442 
L 293.900574 81.817302 
L 296.079463 80.619067 
L 298.258353 81.054067 
L 300.437242 80.77265 
L 302.616132 80.780514 
L 304.795021 80.344372 
L 306.973911 78.919456 
L 309.1528 77.128343 
L 311.33169 77.649005 
L 313.51058 75.787735 
L 315.689469 77.304049 
L 317.868359 77.484984 
L 322.226138 76.741069 
L 324.405027 81.286173 
L 326.583917 83.131871 
L 328.762807 81.326358 
L 330.941696 77.245994 
L 333.120586 79.216055 
L 335.299475 76.248449 
L 337.478365 76.11648 
L 339.657254 81.20341 
L 341.836144 82.068253 
L 344.015034 78.925533 
L 346.193923 82.368 
L 348.372813 88.233688 
L 350.551702 83.760941 
L 352.730592 77.928 
L 354.909481 81.228321 
L 357.088371 89.114816 
L 359.267261 93.232941 
L 361.44615 88.986634 
L 363.62504 86.492903 
L 365.803929 78.189176 
L 367.982819 80.448 
L 370.161708 82.879079 
L 372.340598 80.215273 
L 374.519487 72.064489 
L 376.698377 74.735603 
L 378.877267 76.136421 
L 381.056156 72.985358 
L 383.235046 72.022369 
L 385.413935 72.219429 
L 387.592825 67.535473 
L 389.771714 73.385931 
L 391.950604 73.704585 
L 394.129494 71.151158 
L 396.308383 70.374234 
L 398.487273 53.568 
L 398.487273 53.568 
" clip-path="url(#pd7e8444ad5)" style="fill: none; stroke: #9467bd; stroke-width: 1.5; stroke-linecap: square"/>
   </g>
   <g id="line2d_19">
    <path d="M 73.832727 295.488 
L 115.231629 295.488 
L 117.410519 293.921023 
L 119.589408 292.613134 
L 121.768298 291.689993 
L 123.947187 291.18144 
L 126.126077 290.493481 
L 128.304966 289.500948 
L 132.662746 288.123162 
L 139.199414 285.774846 
L 141.378304 285.200604 
L 143.557193 284.458193 
L 145.736083 284.005768 
L 147.914973 283.165598 
L 150.093862 282.604086 
L 152.272752 281.873706 
L 156.630531 280.557735 
L 158.80942 279.881719 
L 160.98831 277.116496 
L 165.346089 272.564407 
L 167.524979 270.199085 
L 169.703868 268.330686 
L 171.882758 265.952571 
L 174.061647 264.232971 
L 182.777206 254.970963 
L 184.956095 253.403296 
L 187.134985 251.313532 
L 189.313874 248.783363 
L 191.492764 247.133386 
L 193.671653 245.212901 
L 195.850543 242.893918 
L 198.029433 241.643976 
L 200.208322 239.673226 
L 202.387212 236.781724 
L 204.566101 231.684828 
L 206.744991 225.679501 
L 213.28166 209.111124 
L 215.460549 204.357205 
L 217.639439 197.996063 
L 219.818328 192.715189 
L 221.997218 186.899772 
L 224.176107 181.786944 
L 226.354997 178.938997 
L 228.533887 175.050652 
L 230.712776 171.426025 
L 232.891666 169.023604 
L 235.070555 166.268854 
L 237.249445 162.831878 
L 239.428334 157.84016 
L 241.607224 152.490791 
L 245.965003 143.46192 
L 248.143893 139.560146 
L 250.322782 138.209729 
L 254.680561 133.395084 
L 256.859451 131.678118 
L 259.03834 129.090337 
L 261.21723 127.860923 
L 265.575009 121.884943 
L 267.753899 119.16226 
L 269.932788 116.901916 
L 272.111678 114.977242 
L 274.290567 115.2359 
L 276.469457 112.584749 
L 278.648347 110.976411 
L 280.827236 107.042809 
L 285.185015 105.73253 
L 287.363905 103.555368 
L 289.542794 105.26519 
L 291.721684 103.768885 
L 293.900574 101.992709 
L 296.079463 97.455471 
L 298.258353 95.183679 
L 300.437242 94.57672 
L 302.616132 93.837108 
L 304.795021 90.978909 
L 306.973911 83.730411 
L 309.1528 85.888933 
L 311.33169 82.25921 
L 313.51058 83.057709 
L 315.689469 80.928 
L 317.868359 82.494181 
L 320.047248 80.247403 
L 322.226138 80.975059 
L 324.405027 82.950295 
L 326.583917 86.042483 
L 328.762807 81.882533 
L 330.941696 81.158073 
L 333.120586 83.27644 
L 335.299475 82.177544 
L 337.478365 78.985143 
L 339.657254 82.577558 
L 341.836144 79.948681 
L 344.015034 79.635692 
L 346.193923 76.903385 
L 348.372813 79.848851 
L 350.551702 73.885612 
L 352.730592 75.493161 
L 354.909481 72.130795 
L 357.088371 70.743273 
L 359.267261 75.23001 
L 361.44615 73.532179 
L 363.62504 74.12579 
L 365.803929 76.136421 
L 367.982819 77.871797 
L 370.161708 79.984107 
L 372.340598 72.219429 
L 374.519487 67.742118 
L 376.698377 64.741534 
L 378.877267 70.43328 
L 381.056156 75.801277 
L 383.235046 75.328 
L 385.413935 80.298874 
L 387.592825 73.8432 
L 389.771714 71.0016 
L 391.950604 69.917691 
L 394.129494 72.437677 
L 396.308383 68.16 
L 398.487273 74.474667 
L 398.487273 74.474667 
" clip-path="url(#pd7e8444ad5)" style="fill: none; stroke: #8c564b; stroke-width: 1.5; stroke-linecap: square"/>
   </g>
   <g id="patch_3">
    <path d="M 57.6 307.584 
L 57.6 41.472 
" style="fill: none; stroke: #000000; stroke-width: 0.8; stroke-linejoin: miter; stroke-linecap: square"/>
   </g>
   <g id="patch_4">
    <path d="M 414.72 307.584 
L 414.72 41.472 
" style="fill: none; stroke: #000000; stroke-width: 0.8; stroke-linejoin: miter; stroke-linecap: square"/>
   </g>
   <g id="patch_5">
    <path d="M 57.6 307.584 
L 414.72 307.584 
" style="fill: none; stroke: #000000; stroke-width: 0.8; stroke-linejoin: miter; stroke-linecap: square"/>
   </g>
   <g id="patch_6">
    <path d="M 57.6 41.472 
L 414.72 41.472 
" style="fill: none; stroke: #000000; stroke-width: 0.8; stroke-linejoin: miter; stroke-linecap: square"/>
   </g>
   <g id="text_16">
    <!-- Quarantine Efficiency vs Time (SBM-5k-Max) -->
    <g transform="translate(102.709688 35.472) scale(0.12 -0.12)">
     <defs>
      <path id="DejaVuSans-75" d="M 544 1381 
L 544 3500 
L 1119 3500 
L 1119 1403 
Q 1119 906 1312 657 
Q 1506 409 1894 409 
Q 2359 409 2629 706 
Q 2900 1003 2900 1516 
L 2900 3500 
L 3475 3500 
L 3475 0 
L 2900 0 
L 2900 538 
Q 2691 219 2414 64 
Q 2138 -91 1772 -91 
Q 1169 -91 856 284 
Q 544 659 544 1381 
z
M 1991 3584 
L 1991 3584 
z
" transform="scale(0.015625)"/>
      <path id="DejaVuSans-72" d="M 2631 2963 
Q 2534 3019 2420 3045 
Q 2306 3072 2169 3072 
Q 1681 3072 1420 2755 
Q 1159 2438 1159 1844 
L 1159 0 
L 581 0 
L 581 3500 
L 1159 3500 
L 1159 2956 
Q 1341 3275 1631 3429 
Q 1922 3584 2338 3584 
Q 2397 3584 2469 3576 
Q 2541 3569 2628 3553 
L 2631 2963 
z
" transform="scale(0.015625)"/>
      <path id="DejaVuSans-6e" d="M 3513 2113 
L 3513 0 
L 2938 0 
L 2938 2094 
Q 2938 2591 2744 2837 
Q 2550 3084 2163 3084 
Q 1697 3084 1428 2787 
Q 1159 2491 1159 1978 
L 1159 0 
L 581 0 
L 581 3500 
L 1159 3500 
L 1159 2956 
Q 1366 3272 1645 3428 
Q 1925 3584 2291 3584 
Q 2894 3584 3203 3211 
Q 3513 2838 3513 2113 
z
" transform="scale(0.015625)"/>
      <path id="DejaVuSans-74" d="M 1172 4494 
L 1172 3500 
L 2356 3500 
L 2356 3053 
L 1172 3053 
L 1172 1153 
Q 1172 725 1289 603 
Q 1406 481 1766 481 
L 2356 481 
L 2356 0 
L 1766 0 
Q 1100 0 847 248 
Q 594 497 594 1153 
L 594 3053 
L 172 3053 
L 172 3500 
L 594 3500 
L 594 4494 
L 1172 4494 
z
" transform="scale(0.015625)"/>
      <path id="DejaVuSans-69" d="M 603 3500 
L 1178 3500 
L 1178 0 
L 603 0 
L 603 3500 
z
M 603 4863 
L 1178 4863 
L 1178 4134 
L 603 4134 
L 603 4863 
z
" transform="scale(0.015625)"/>
      <path id="DejaVuSans-65" d="M 3597 1894 
L 3597 1613 
L 953 1613 
Q 991 1019 1311 708 
Q 1631 397 2203 397 
Q 2534 397 2845 478 
Q 3156 559 3463 722 
L 3463 178 
Q 3153 47 2828 -22 
Q 2503 -91 2169 -91 
Q 1331 -91 842 396 
Q 353 884 353 1716 
Q 353 2575 817 3079 
Q 1281 3584 2069 3584 
Q 2775 3584 3186 3129 
Q 3597 2675 3597 1894 
z
M 3022 2063 
Q 3016 2534 2758 2815 
Q 2500 3097 2075 3097 
Q 1594 3097 1305 2825 
Q 1016 2553 972 2059 
L 3022 2063 
z
" transform="scale(0.015625)"/>
      <path id="DejaVuSans-66" d="M 2375 4863 
L 2375 4384 
L 1825 4384 
Q 1516 4384 1395 4259 
Q 1275 4134 1275 3809 
L 1275 3500 
L 2222 3500 
L 2222 3053 
L 1275 3053 
L 1275 0 
L 697 0 
L 697 3053 
L 147 3053 
L 147 3500 
L 697 3500 
L 697 3744 
Q 697 4328 969 4595 
Q 1241 4863 1831 4863 
L 2375 4863 
z
" transform="scale(0.015625)"/>
      <path id="DejaVuSans-63" d="M 3122 3366 
L 3122 2828 
Q 2878 2963 2633 3030 
Q 2388 3097 2138 3097 
Q 1578 3097 1268 2742 
Q 959 2388 959 1747 
Q 959 1106 1268 751 
Q 1578 397 2138 397 
Q 2388 397 2633 464 
Q 2878 531 3122 666 
L 3122 134 
Q 2881 22 2623 -34 
Q 2366 -91 2075 -91 
Q 1284 -91 818 406 
Q 353 903 353 1747 
Q 353 2603 823 3093 
Q 1294 3584 2113 3584 
Q 2378 3584 2631 3529 
Q 2884 3475 3122 3366 
z
" transform="scale(0.015625)"/>
      <path id="DejaVuSans-76" d="M 191 3500 
L 800 3500 
L 1894 563 
L 2988 3500 
L 3597 3500 
L 2284 0 
L 1503 0 
L 191 3500 
z
" transform="scale(0.015625)"/>
      <path id="DejaVuSans-73" d="M 2834 3397 
L 2834 2853 
Q 2591 2978 2328 3040 
Q 2066 3103 1784 3103 
Q 1356 3103 1142 2972 
Q 928 2841 928 2578 
Q 928 2378 1081 2264 
Q 1234 2150 1697 2047 
L 1894 2003 
Q 2506 1872 2764 1633 
Q 3022 1394 3022 966 
Q 3022 478 2636 193 
Q 2250 -91 1575 -91 
Q 1294 -91 989 -36 
Q 684 19 347 128 
L 347 722 
Q 666 556 975 473 
Q 1284 391 1588 391 
Q 1994 391 2212 530 
Q 2431 669 2431 922 
Q 2431 1156 2273 1281 
Q 2116 1406 1581 1522 
L 1381 1569 
Q 847 1681 609 1914 
Q 372 2147 372 2553 
Q 372 3047 722 3315 
Q 1072 3584 1716 3584 
Q 2034 3584 2315 3537 
Q 2597 3491 2834 3397 
z
" transform="scale(0.015625)"/>
      <path id="DejaVuSans-54" d="M -19 4666 
L 3928 4666 
L 3928 4134 
L 2272 4134 
L 2272 0 
L 1638 0 
L 1638 4134 
L -19 4134 
L -19 4666 
z
" transform="scale(0.015625)"/>
      <path id="DejaVuSans-6d" d="M 3328 2828 
Q 3544 3216 3844 3400 
Q 4144 3584 4550 3584 
Q 5097 3584 5394 3201 
Q 5691 2819 5691 2113 
L 5691 0 
L 5113 0 
L 5113 2094 
Q 5113 2597 4934 2840 
Q 4756 3084 4391 3084 
Q 3944 3084 3684 2787 
Q 3425 2491 3425 1978 
L 3425 0 
L 2847 0 
L 2847 2094 
Q 2847 2600 2669 2842 
Q 2491 3084 2119 3084 
Q 1678 3084 1418 2786 
Q 1159 2488 1159 1978 
L 1159 0 
L 581 0 
L 581 3500 
L 1159 3500 
L 1159 2956 
Q 1356 3278 1631 3431 
Q 1906 3584 2284 3584 
Q 2666 3584 2933 3390 
Q 3200 3197 3328 2828 
z
" transform="scale(0.015625)"/>
      <path id="DejaVuSans-53" d="M 3425 4513 
L 3425 3897 
Q 3066 4069 2747 4153 
Q 2428 4238 2131 4238 
Q 1616 4238 1336 4038 
Q 1056 3838 1056 3469 
Q 1056 3159 1242 3001 
Q 1428 2844 1947 2747 
L 2328 2669 
Q 3034 2534 3370 2195 
Q 3706 1856 3706 1288 
Q 3706 609 3251 259 
Q 2797 -91 1919 -91 
Q 1588 -91 1214 -16 
Q 841 59 441 206 
L 441 856 
Q 825 641 1194 531 
Q 1563 422 1919 422 
Q 2459 422 2753 634 
Q 3047 847 3047 1241 
Q 3047 1584 2836 1778 
Q 2625 1972 2144 2069 
L 1759 2144 
Q 1053 2284 737 2584 
Q 422 2884 422 3419 
Q 422 4038 858 4394 
Q 1294 4750 2059 4750 
Q 2388 4750 2728 4690 
Q 3069 4631 3425 4513 
z
" transform="scale(0.015625)"/>
      <path id="DejaVuSans-42" d="M 1259 2228 
L 1259 519 
L 2272 519 
Q 2781 519 3026 730 
Q 3272 941 3272 1375 
Q 3272 1813 3026 2020 
Q 2781 2228 2272 2228 
L 1259 2228 
z
M 1259 4147 
L 1259 2741 
L 2194 2741 
Q 2656 2741 2882 2914 
Q 3109 3088 3109 3444 
Q 3109 3797 2882 3972 
Q 2656 4147 2194 4147 
L 1259 4147 
z
M 628 4666 
L 2241 4666 
Q 2963 4666 3353 4366 
Q 3744 4066 3744 3513 
Q 3744 3084 3544 2831 
Q 3344 2578 2956 2516 
Q 3422 2416 3680 2098 
Q 3938 1781 3938 1306 
Q 3938 681 3513 340 
Q 3088 0 2303 0 
L 628 0 
L 628 4666 
z
" transform="scale(0.015625)"/>
      <path id="DejaVuSans-4d" d="M 628 4666 
L 1569 4666 
L 2759 1491 
L 3956 4666 
L 4897 4666 
L 4897 0 
L 4281 0 
L 4281 4097 
L 3078 897 
L 2444 897 
L 1241 4097 
L 1241 0 
L 628 0 
L 628 4666 
z
" transform="scale(0.015625)"/>
      <path id="DejaVuSans-2d" d="M 313 2009 
L 1997 2009 
L 1997 1497 
L 313 1497 
L 313 2009 
z
" transform="scale(0.015625)"/>
      <path id="DejaVuSans-35" d="M 691 4666 
L 3169 4666 
L 3169 4134 
L 1269 4134 
L 1269 2991 
Q 1406 3038 1543 3061 
Q 1681 3084 1819 3084 
Q 2600 3084 3056 2656 
Q 3513 2228 3513 1497 
Q 3513 744 3044 326 
Q 2575 -91 1722 -91 
Q 1428 -91 1123 -41 
Q 819 9 494 109 
L 494 744 
Q 775 591 1075 516 
Q 1375 441 1709 441 
Q 2250 441 2565 725 
Q 2881 1009 2881 1497 
Q 2881 1984 2565 2268 
Q 2250 2553 1709 2553 
Q 1456 2553 1204 2497 
Q 953 2441 691 2322 
L 691 4666 
z
" transform="scale(0.015625)"/>
      <path id="DejaVuSans-6b" d="M 581 4863 
L 1159 4863 
L 1159 1991 
L 2875 3500 
L 3609 3500 
L 1753 1863 
L 3688 0 
L 2938 0 
L 1159 1709 
L 1159 0 
L 581 0 
L 581 4863 
z
" transform="scale(0.015625)"/>
      <path id="DejaVuSans-78" d="M 3513 3500 
L 2247 1797 
L 3578 0 
L 2900 0 
L 1881 1375 
L 863 0 
L 184 0 
L 1544 1831 
L 300 3500 
L 978 3500 
L 1906 2253 
L 2834 3500 
L 3513 3500 
z
" transform="scale(0.015625)"/>
     </defs>
     <use xlink:href="#DejaVuSans-51"/>
     <use xlink:href="#DejaVuSans-75" transform="translate(78.710938 0)"/>
     <use xlink:href="#DejaVuSans-61" transform="translate(142.089844 0)"/>
     <use xlink:href="#DejaVuSans-72" transform="translate(203.369141 0)"/>
     <use xlink:href="#DejaVuSans-61" transform="translate(244.482422 0)"/>
     <use xlink:href="#DejaVuSans-6e" transform="translate(305.761719 0)"/>
     <use xlink:href="#DejaVuSans-74" transform="translate(369.140625 0)"/>
     <use xlink:href="#DejaVuSans-69" transform="translate(408.349609 0)"/>
     <use xlink:href="#DejaVuSans-6e" transform="translate(436.132812 0)"/>
     <use xlink:href="#DejaVuSans-65" transform="translate(499.511719 0)"/>
     <use xlink:href="#DejaVuSans-20" transform="translate(561.035156 0)"/>
     <use xlink:href="#DejaVuSans-45" transform="translate(592.822266 0)"/>
     <use xlink:href="#DejaVuSans-66" transform="translate(656.005859 0)"/>
     <use xlink:href="#DejaVuSans-66" transform="translate(691.210938 0)"/>
     <use xlink:href="#DejaVuSans-69" transform="translate(726.416016 0)"/>
     <use xlink:href="#DejaVuSans-63" transform="translate(754.199219 0)"/>
     <use xlink:href="#DejaVuSans-69" transform="translate(809.179688 0)"/>
     <use xlink:href="#DejaVuSans-65" transform="translate(836.962891 0)"/>
     <use xlink:href="#DejaVuSans-6e" transform="translate(898.486328 0)"/>
     <use xlink:href="#DejaVuSans-63" transform="translate(961.865234 0)"/>
     <use xlink:href="#DejaVuSans-79" transform="translate(1016.845703 0)"/>
     <use xlink:href="#DejaVuSans-20" transform="translate(1076.025391 0)"/>
     <use xlink:href="#DejaVuSans-76" transform="translate(1107.8125 0)"/>
     <use xlink:href="#DejaVuSans-73" transform="translate(1166.992188 0)"/>
     <use xlink:href="#DejaVuSans-20" transform="translate(1219.091797 0)"/>
     <use xlink:href="#DejaVuSans-54" transform="translate(1250.878906 0)"/>
     <use xlink:href="#DejaVuSans-69" transform="translate(1308.837891 0)"/>
     <use xlink:href="#DejaVuSans-6d" transform="translate(1336.621094 0)"/>
     <use xlink:href="#DejaVuSans-65" transform="translate(1434.033203 0)"/>
     <use xlink:href="#DejaVuSans-20" transform="translate(1495.556641 0)"/>
     <use xlink:href="#DejaVuSans-28" transform="translate(1527.34375 0)"/>
     <use xlink:href="#DejaVuSans-53" transform="translate(1566.357422 0)"/>
     <use xlink:href="#DejaVuSans-42" transform="translate(1629.833984 0)"/>
     <use xlink:href="#DejaVuSans-4d" transform="translate(1698.4375 0)"/>
     <use xlink:href="#DejaVuSans-2d" transform="translate(1784.716797 0)"/>
     <use xlink:href="#DejaVuSans-35" transform="translate(1820.800781 0)"/>
     <use xlink:href="#DejaVuSans-6b" transform="translate(1884.423828 0)"/>
     <use xlink:href="#DejaVuSans-2d" transform="translate(1942.333984 0)"/>
     <use xlink:href="#DejaVuSans-4d" transform="translate(1978.417969 0)"/>
     <use xlink:href="#DejaVuSans-61" transform="translate(2064.697266 0)"/>
     <use xlink:href="#DejaVuSans-78" transform="translate(2125.976562 0)"/>
     <use xlink:href="#DejaVuSans-29" transform="translate(2185.15625 0)"/>
    </g>
   </g>
   <g id="legend_1">
    <g id="patch_7">
     <path d="M 64.6 137.54075 
L 182.760937 137.54075 
Q 184.760937 137.54075 184.760937 135.54075 
L 184.760937 48.472 
Q 184.760937 46.472 182.760937 46.472 
L 64.6 46.472 
Q 62.6 46.472 62.6 48.472 
L 62.6 135.54075 
Q 62.6 137.54075 64.6 137.54075 
z
" style="fill: #ffffff; opacity: 0.8; stroke: #cccccc; stroke-linejoin: miter"/>
    </g>
    <g id="line2d_20">
     <path d="M 66.6 54.570438 
L 76.6 54.570438 
L 86.6 54.570438 
" style="fill: none; stroke: #1f77b4; stroke-width: 1.5; stroke-linecap: square"/>
    </g>
    <g id="text_17">
     <!-- LocalGNTS-14 -->
     <g transform="translate(94.6 58.070438) scale(0.1 -0.1)">
      <defs>
       <path id="DejaVuSans-4c" d="M 628 4666 
L 1259 4666 
L 1259 531 
L 3531 531 
L 3531 0 
L 628 0 
L 628 4666 
z
" transform="scale(0.015625)"/>
       <path id="DejaVuSans-6f" d="M 1959 3097 
Q 1497 3097 1228 2736 
Q 959 2375 959 1747 
Q 959 1119 1226 758 
Q 1494 397 1959 397 
Q 2419 397 2687 759 
Q 2956 1122 2956 1747 
Q 2956 2369 2687 2733 
Q 2419 3097 1959 3097 
z
M 1959 3584 
Q 2709 3584 3137 3096 
Q 3566 2609 3566 1747 
Q 3566 888 3137 398 
Q 2709 -91 1959 -91 
Q 1206 -91 779 398 
Q 353 888 353 1747 
Q 353 2609 779 3096 
Q 1206 3584 1959 3584 
z
" transform="scale(0.015625)"/>
       <path id="DejaVuSans-6c" d="M 603 4863 
L 1178 4863 
L 1178 0 
L 603 0 
L 603 4863 
z
" transform="scale(0.015625)"/>
       <path id="DejaVuSans-47" d="M 3809 666 
L 3809 1919 
L 2778 1919 
L 2778 2438 
L 4434 2438 
L 4434 434 
Q 4069 175 3628 42 
Q 3188 -91 2688 -91 
Q 1594 -91 976 548 
Q 359 1188 359 2328 
Q 359 3472 976 4111 
Q 1594 4750 2688 4750 
Q 3144 4750 3555 4637 
Q 3966 4525 4313 4306 
L 4313 3634 
Q 3963 3931 3569 4081 
Q 3175 4231 2741 4231 
Q 1884 4231 1454 3753 
Q 1025 3275 1025 2328 
Q 1025 1384 1454 906 
Q 1884 428 2741 428 
Q 3075 428 3337 486 
Q 3600 544 3809 666 
z
" transform="scale(0.015625)"/>
       <path id="DejaVuSans-4e" d="M 628 4666 
L 1478 4666 
L 3547 763 
L 3547 4666 
L 4159 4666 
L 4159 0 
L 3309 0 
L 1241 3903 
L 1241 0 
L 628 0 
L 628 4666 
z
" transform="scale(0.015625)"/>
      </defs>
      <use xlink:href="#DejaVuSans-4c"/>
      <use xlink:href="#DejaVuSans-6f" transform="translate(53.962891 0)"/>
      <use xlink:href="#DejaVuSans-63" transform="translate(115.144531 0)"/>
      <use xlink:href="#DejaVuSans-61" transform="translate(170.125 0)"/>
      <use xlink:href="#DejaVuSans-6c" transform="translate(231.404297 0)"/>
      <use xlink:href="#DejaVuSans-47" transform="translate(259.1875 0)"/>
      <use xlink:href="#DejaVuSans-4e" transform="translate(336.677734 0)"/>
      <use xlink:href="#DejaVuSans-54" transform="translate(411.482422 0)"/>
      <use xlink:href="#DejaVuSans-53" transform="translate(472.566406 0)"/>
      <use xlink:href="#DejaVuSans-2d" transform="translate(536.042969 0)"/>
      <use xlink:href="#DejaVuSans-31" transform="translate(572.126953 0)"/>
      <use xlink:href="#DejaVuSans-34" transform="translate(635.75 0)"/>
     </g>
    </g>
    <g id="line2d_21">
     <path d="M 66.6 69.248563 
L 76.6 69.248563 
L 86.6 69.248563 
" style="fill: none; stroke: #ff7f0e; stroke-width: 1.5; stroke-linecap: square"/>
    </g>
    <g id="text_18">
     <!-- GlobalGNTS-14 -->
     <g transform="translate(94.6 72.748563) scale(0.1 -0.1)">
      <defs>
       <path id="DejaVuSans-62" d="M 3116 1747 
Q 3116 2381 2855 2742 
Q 2594 3103 2138 3103 
Q 1681 3103 1420 2742 
Q 1159 2381 1159 1747 
Q 1159 1113 1420 752 
Q 1681 391 2138 391 
Q 2594 391 2855 752 
Q 3116 1113 3116 1747 
z
M 1159 2969 
Q 1341 3281 1617 3432 
Q 1894 3584 2278 3584 
Q 2916 3584 3314 3078 
Q 3713 2572 3713 1747 
Q 3713 922 3314 415 
Q 2916 -91 2278 -91 
Q 1894 -91 1617 61 
Q 1341 213 1159 525 
L 1159 0 
L 581 0 
L 581 4863 
L 1159 4863 
L 1159 2969 
z
" transform="scale(0.015625)"/>
      </defs>
      <use xlink:href="#DejaVuSans-47"/>
      <use xlink:href="#DejaVuSans-6c" transform="translate(77.490234 0)"/>
      <use xlink:href="#DejaVuSans-6f" transform="translate(105.273438 0)"/>
      <use xlink:href="#DejaVuSans-62" transform="translate(166.455078 0)"/>
      <use xlink:href="#DejaVuSans-61" transform="translate(229.931641 0)"/>
      <use xlink:href="#DejaVuSans-6c" transform="translate(291.210938 0)"/>
      <use xlink:href="#DejaVuSans-47" transform="translate(318.994141 0)"/>
      <use xlink:href="#DejaVuSans-4e" transform="translate(396.484375 0)"/>
      <use xlink:href="#DejaVuSans-54" transform="translate(471.289062 0)"/>
      <use xlink:href="#DejaVuSans-53" transform="translate(532.373047 0)"/>
      <use xlink:href="#DejaVuSans-2d" transform="translate(595.849609 0)"/>
      <use xlink:href="#DejaVuSans-31" transform="translate(631.933594 0)"/>
      <use xlink:href="#DejaVuSans-34" transform="translate(695.556641 0)"/>
     </g>
    </g>
    <g id="line2d_22">
     <path d="M 66.6 83.926688 
L 76.6 83.926688 
L 86.6 83.926688 
" style="fill: none; stroke: #2ca02c; stroke-width: 1.5; stroke-linecap: square"/>
    </g>
    <g id="text_19">
     <!-- Beta-Binomial-14 -->
     <g transform="translate(94.6 87.426688) scale(0.1 -0.1)">
      <use xlink:href="#DejaVuSans-42"/>
      <use xlink:href="#DejaVuSans-65" transform="translate(68.603516 0)"/>
      <use xlink:href="#DejaVuSans-74" transform="translate(130.126953 0)"/>
      <use xlink:href="#DejaVuSans-61" transform="translate(169.335938 0)"/>
      <use xlink:href="#DejaVuSans-2d" transform="translate(230.615234 0)"/>
      <use xlink:href="#DejaVuSans-42" transform="translate(263.074219 0)"/>
      <use xlink:href="#DejaVuSans-69" transform="translate(331.677734 0)"/>
      <use xlink:href="#DejaVuSans-6e" transform="translate(359.460938 0)"/>
      <use xlink:href="#DejaVuSans-6f" transform="translate(422.839844 0)"/>
      <use xlink:href="#DejaVuSans-6d" transform="translate(484.021484 0)"/>
      <use xlink:href="#DejaVuSans-69" transform="translate(581.433594 0)"/>
      <use xlink:href="#DejaVuSans-61" transform="translate(609.216797 0)"/>
      <use xlink:href="#DejaVuSans-6c" transform="translate(670.496094 0)"/>
      <use xlink:href="#DejaVuSans-2d" transform="translate(698.279297 0)"/>
      <use xlink:href="#DejaVuSans-31" transform="translate(734.363281 0)"/>
      <use xlink:href="#DejaVuSans-34" transform="translate(797.986328 0)"/>
     </g>
    </g>
    <g id="line2d_23">
     <path d="M 66.6 98.604813 
L 76.6 98.604813 
L 86.6 98.604813 
" style="fill: none; stroke: #d62728; stroke-width: 1.5; stroke-linecap: square"/>
    </g>
    <g id="text_20">
     <!-- Proportional -->
     <g transform="translate(94.6 102.104813) scale(0.1 -0.1)">
      <defs>
       <path id="DejaVuSans-50" d="M 1259 4147 
L 1259 2394 
L 2053 2394 
Q 2494 2394 2734 2622 
Q 2975 2850 2975 3272 
Q 2975 3691 2734 3919 
Q 2494 4147 2053 4147 
L 1259 4147 
z
M 628 4666 
L 2053 4666 
Q 2838 4666 3239 4311 
Q 3641 3956 3641 3272 
Q 3641 2581 3239 2228 
Q 2838 1875 2053 1875 
L 1259 1875 
L 1259 0 
L 628 0 
L 628 4666 
z
" transform="scale(0.015625)"/>
       <path id="DejaVuSans-70" d="M 1159 525 
L 1159 -1331 
L 581 -1331 
L 581 3500 
L 1159 3500 
L 1159 2969 
Q 1341 3281 1617 3432 
Q 1894 3584 2278 3584 
Q 2916 3584 3314 3078 
Q 3713 2572 3713 1747 
Q 3713 922 3314 415 
Q 2916 -91 2278 -91 
Q 1894 -91 1617 61 
Q 1341 213 1159 525 
z
M 3116 1747 
Q 3116 2381 2855 2742 
Q 2594 3103 2138 3103 
Q 1681 3103 1420 2742 
Q 1159 2381 1159 1747 
Q 1159 1113 1420 752 
Q 1681 391 2138 391 
Q 2594 391 2855 752 
Q 3116 1113 3116 1747 
z
" transform="scale(0.015625)"/>
      </defs>
      <use xlink:href="#DejaVuSans-50"/>
      <use xlink:href="#DejaVuSans-72" transform="translate(58.552734 0)"/>
      <use xlink:href="#DejaVuSans-6f" transform="translate(97.416016 0)"/>
      <use xlink:href="#DejaVuSans-70" transform="translate(158.597656 0)"/>
      <use xlink:href="#DejaVuSans-6f" transform="translate(222.074219 0)"/>
      <use xlink:href="#DejaVuSans-72" transform="translate(283.255859 0)"/>
      <use xlink:href="#DejaVuSans-74" transform="translate(324.369141 0)"/>
      <use xlink:href="#DejaVuSans-69" transform="translate(363.578125 0)"/>
      <use xlink:href="#DejaVuSans-6f" transform="translate(391.361328 0)"/>
      <use xlink:href="#DejaVuSans-6e" transform="translate(452.542969 0)"/>
      <use xlink:href="#DejaVuSans-61" transform="translate(515.921875 0)"/>
      <use xlink:href="#DejaVuSans-6c" transform="translate(577.201172 0)"/>
     </g>
    </g>
    <g id="line2d_24">
     <path d="M 66.6 113.282938 
L 76.6 113.282938 
L 86.6 113.282938 
" style="fill: none; stroke: #9467bd; stroke-width: 1.5; stroke-linecap: square"/>
    </g>
    <g id="text_21">
     <!-- Uniform -->
     <g transform="translate(94.6 116.782938) scale(0.1 -0.1)">
      <defs>
       <path id="DejaVuSans-55" d="M 556 4666 
L 1191 4666 
L 1191 1831 
Q 1191 1081 1462 751 
Q 1734 422 2344 422 
Q 2950 422 3222 751 
Q 3494 1081 3494 1831 
L 3494 4666 
L 4128 4666 
L 4128 1753 
Q 4128 841 3676 375 
Q 3225 -91 2344 -91 
Q 1459 -91 1007 375 
Q 556 841 556 1753 
L 556 4666 
z
" transform="scale(0.015625)"/>
      </defs>
      <use xlink:href="#DejaVuSans-55"/>
      <use xlink:href="#DejaVuSans-6e" transform="translate(73.193359 0)"/>
      <use xlink:href="#DejaVuSans-69" transform="translate(136.572266 0)"/>
      <use xlink:href="#DejaVuSans-66" transform="translate(164.355469 0)"/>
      <use xlink:href="#DejaVuSans-6f" transform="translate(199.560547 0)"/>
      <use xlink:href="#DejaVuSans-72" transform="translate(260.742188 0)"/>
      <use xlink:href="#DejaVuSans-6d" transform="translate(300.105469 0)"/>
     </g>
    </g>
    <g id="line2d_25">
     <path d="M 66.6 127.961063 
L 76.6 127.961063 
L 86.6 127.961063 
" style="fill: none; stroke: #8c564b; stroke-width: 1.5; stroke-linecap: square"/>
    </g>
    <g id="text_22">
     <!-- Random -->
     <g transform="translate(94.6 131.461063) scale(0.1 -0.1)">
      <defs>
       <path id="DejaVuSans-52" d="M 2841 2188 
Q 3044 2119 3236 1894 
Q 3428 1669 3622 1275 
L 4263 0 
L 3584 0 
L 2988 1197 
Q 2756 1666 2539 1819 
Q 2322 1972 1947 1972 
L 1259 1972 
L 1259 0 
L 628 0 
L 628 4666 
L 2053 4666 
Q 2853 4666 3247 4331 
Q 3641 3997 3641 3322 
Q 3641 2881 3436 2590 
Q 3231 2300 2841 2188 
z
M 1259 4147 
L 1259 2491 
L 2053 2491 
Q 2509 2491 2742 2702 
Q 2975 2913 2975 3322 
Q 2975 3731 2742 3939 
Q 2509 4147 2053 4147 
L 1259 4147 
z
" transform="scale(0.015625)"/>
       <path id="DejaVuSans-64" d="M 2906 2969 
L 2906 4863 
L 3481 4863 
L 3481 0 
L 2906 0 
L 2906 525 
Q 2725 213 2448 61 
Q 2172 -91 1784 -91 
Q 1150 -91 751 415 
Q 353 922 353 1747 
Q 353 2572 751 3078 
Q 1150 3584 1784 3584 
Q 2172 3584 2448 3432 
Q 2725 3281 2906 2969 
z
M 947 1747 
Q 947 1113 1208 752 
Q 1469 391 1925 391 
Q 2381 391 2643 752 
Q 2906 1113 2906 1747 
Q 2906 2381 2643 2742 
Q 2381 3103 1925 3103 
Q 1469 3103 1208 2742 
Q 947 2381 947 1747 
z
" transform="scale(0.015625)"/>
      </defs>
      <use xlink:href="#DejaVuSans-52"/>
      <use xlink:href="#DejaVuSans-61" transform="translate(67.232422 0)"/>
      <use xlink:href="#DejaVuSans-6e" transform="translate(128.511719 0)"/>
      <use xlink:href="#DejaVuSans-64" transform="translate(191.890625 0)"/>
      <use xlink:href="#DejaVuSans-6f" transform="translate(255.367188 0)"/>
      <use xlink:href="#DejaVuSans-6d" transform="translate(316.548828 0)"/>
     </g>
    </g>
   </g>
  </g>
 </g>
 <defs>
  <clipPath id="pd7e8444ad5">
   <rect x="57.6" y="41.472" width="357.12" height="266.112"/>
  </clipPath>
 </defs>
</svg>
