<?xml version="1.0" encoding="utf-8" standalone="no"?>
<!DOCTYPE svg PUBLIC "-//W3C//DTD SVG 1.1//EN"
  "http://www.w3.org/Graphics/SVG/1.1/DTD/svg11.dtd">
<svg xmlns:xlink="http://www.w3.org/1999/xlink" width="460.8pt" height="345.6pt" viewBox="0 0 460.8 345.6" xmlns="http://www.w3.org/2000/svg" version="1.1">
 <metadata>
  <rdf:RDF xmlns:dc="http://purl.org/dc/elements/1.1/" xmlns:cc="http://creativecommons.org/ns#" xmlns:rdf="http://www.w3.org/1999/02/22-rdf-syntax-ns#">
   <cc:Work>
    <dc:type rdf:resource="http://purl.org/dc/dcmitype/StillImage"/>
    <dc:date>2026-04-06T10:51:43.744184</dc:date>
    <dc:format>image/svg+xml</dc:format>
    <dc:creator>
     <cc:Agent>
      <dc:title>Matplotlib v3.10.8, https://matplotlib.org/</dc:title>
     </cc:Agent>
    </dc:creator>
   </cc:Work>
  </rdf:RDF>
 </metadata>
 <defs>
  <style type="text/css">*{stroke-linejoin: round; stroke-linecap: butt}</style>
 </defs>
 <g id="figure_1">
  <g id="patch_1">
   <path d="M 0 345.6 
L 460.8 345.6 
L 460.8 0 
L 0 0 
z
" style="fill: #ffffff"/>
  </g>
  <g id="axes_1">
   <g id="patch_2">
    <path d="M 57.6 307.584 
L 414.72 307.584 
L 414.72 41.472 
L 57.6 41.472 
z
" style="fill: #ffffff"/>
   </g>
   <g id="matplotlib.axis_1">
    <g id="xtick_1">
     <g id="line2d_1">
      <defs>
       <path id="m8658c47206" d="M 0 0 
L 0 3.5 
" style="stroke: #000000; stroke-width: 0.8"/>
      </defs>
      <g>
       <use xlink:href="#m8658c47206" x="73.832727" y="307.584" style="stroke: #000000; stroke-width: 0.8"/>
      </g>
     </g>
     <g id="text_1">
      <!-- 0 -->
      <g transform="translate(70.651477 322.182437) scale(0.1 -0.1)">
       <defs>
        <path id="DejaVuSans-30" d="M 2034 4250 
Q 1547 4250 1301 3770 
Q 1056 3291 1056 2328 
Q 1056 1369 1301 889 
Q 1547 409 2034 409 
Q 2525 409 2770 889 
Q 3016 1369 3016 2328 
Q 3016 3291 2770 3770 
Q 2525 4250 2034 4250 
z
M 2034 4750 
Q 2819 4750 3233 4129 
Q 3647 3509 3647 2328 
Q 3647 1150 3233 529 
Q 2819 -91 2034 -91 
Q 1250 -91 836 529 
Q 422 1150 422 2328 
Q 422 3509 836 4129 
Q 1250 4750 2034 4750 
z
" transform="scale(0.015625)"/>
       </defs>
       <use xlink:href="#DejaVuSans-30"/>
      </g>
     </g>
    </g>
    <g id="xtick_2">
     <g id="line2d_2">
      <g>
       <use xlink:href="#m8658c47206" x="117.410519" y="307.584" style="stroke: #000000; stroke-width: 0.8"/>
      </g>
     </g>
     <g id="text_2">
      <!-- 20 -->
      <g transform="translate(111.048019 322.182437) scale(0.1 -0.1)">
       <defs>
        <path id="DejaVuSans-32" d="M 1228 531 
L 3431 531 
L 3431 0 
L 469 0 
L 469 531 
Q 828 903 1448 1529 
Q 2069 2156 2228 2338 
Q 2531 2678 2651 2914 
Q 2772 3150 2772 3378 
Q 2772 3750 2511 3984 
Q 2250 4219 1831 4219 
Q 1534 4219 1204 4116 
Q 875 4013 500 3803 
L 500 4441 
Q 881 4594 1212 4672 
Q 1544 4750 1819 4750 
Q 2544 4750 2975 4387 
Q 3406 4025 3406 3419 
Q 3406 3131 3298 2873 
Q 3191 2616 2906 2266 
Q 2828 2175 2409 1742 
Q 1991 1309 1228 531 
z
" transform="scale(0.015625)"/>
       </defs>
       <use xlink:href="#DejaVuSans-32"/>
       <use xlink:href="#DejaVuSans-30" transform="translate(63.623047 0)"/>
      </g>
     </g>
    </g>
    <g id="xtick_3">
     <g id="line2d_3">
      <g>
       <use xlink:href="#m8658c47206" x="160.98831" y="307.584" style="stroke: #000000; stroke-width: 0.8"/>
      </g>
     </g>
     <g id="text_3">
      <!-- 40 -->
      <g transform="translate(154.62581 322.182437) scale(0.1 -0.1)">
       <defs>
        <path id="DejaVuSans-34" d="M 2419 4116 
L 825 1625 
L 2419 1625 
L 2419 4116 
z
M 2253 4666 
L 3047 4666 
L 3047 1625 
L 3713 1625 
L 3713 1100 
L 3047 1100 
L 3047 0 
L 2419 0 
L 2419 1100 
L 313 1100 
L 313 1709 
L 2253 4666 
z
" transform="scale(0.015625)"/>
       </defs>
       <use xlink:href="#DejaVuSans-34"/>
       <use xlink:href="#DejaVuSans-30" transform="translate(63.623047 0)"/>
      </g>
     </g>
    </g>
    <g id="xtick_4">
     <g id="line2d_4">
      <g>
       <use xlink:href="#m8658c47206" x="204.566101" y="307.584" style="stroke: #000000; stroke-width: 0.8"/>
      </g>
     </g>
     <g id="text_4">
      <!-- 60 -->
      <g transform="translate(198.203601 322.182437) scale(0.1 -0.1)">
       <defs>
        <path id="DejaVuSans-36" d="M 2113 2584 
Q 1688 2584 1439 2293 
Q 1191 2003 1191 1497 
Q 1191 994 1439 701 
Q 1688 409 2113 409 
Q 2538 409 2786 701 
Q 3034 994 3034 1497 
Q 3034 2003 2786 2293 
Q 2538 2584 2113 2584 
z
M 3366 4563 
L 3366 3988 
Q 3128 4100 2886 4159 
Q 2644 4219 2406 4219 
Q 1781 4219 1451 3797 
Q 1122 3375 1075 2522 
Q 1259 2794 1537 2939 
Q 1816 3084 2150 3084 
Q 2853 3084 3261 2657 
Q 3669 2231 3669 1497 
Q 3669 778 3244 343 
Q 2819 -91 2113 -91 
Q 1303 -91 875 529 
Q 447 1150 447 2328 
Q 447 3434 972 4092 
Q 1497 4750 2381 4750 
Q 2619 4750 2861 4703 
Q 3103 4656 3366 4563 
z
" transform="scale(0.015625)"/>
       </defs>
       <use xlink:href="#DejaVuSans-36"/>
       <use xlink:href="#DejaVuSans-30" transform="translate(63.623047 0)"/>
      </g>
     </g>
    </g>
    <g id="xtick_5">
     <g id="line2d_5">
      <g>
       <use xlink:href="#m8658c47206" x="248.143893" y="307.584" style="stroke: #000000; stroke-width: 0.8"/>
      </g>
     </g>
     <g id="text_5">
      <!-- 80 -->
      <g transform="translate(241.781393 322.182437) scale(0.1 -0.1)">
       <defs>
        <path id="DejaVuSans-38" d="M 2034 2216 
Q 1584 2216 1326 1975 
Q 1069 1734 1069 1313 
Q 1069 891 1326 650 
Q 1584 409 2034 409 
Q 2484 409 2743 651 
Q 3003 894 3003 1313 
Q 3003 1734 2745 1975 
Q 2488 2216 2034 2216 
z
M 1403 2484 
Q 997 2584 770 2862 
Q 544 3141 544 3541 
Q 544 4100 942 4425 
Q 1341 4750 2034 4750 
Q 2731 4750 3128 4425 
Q 3525 4100 3525 3541 
Q 3525 3141 3298 2862 
Q 3072 2584 2669 2484 
Q 3125 2378 3379 2068 
Q 3634 1759 3634 1313 
Q 3634 634 3220 271 
Q 2806 -91 2034 -91 
Q 1263 -91 848 271 
Q 434 634 434 1313 
Q 434 1759 690 2068 
Q 947 2378 1403 2484 
z
M 1172 3481 
Q 1172 3119 1398 2916 
Q 1625 2713 2034 2713 
Q 2441 2713 2670 2916 
Q 2900 3119 2900 3481 
Q 2900 3844 2670 4047 
Q 2441 4250 2034 4250 
Q 1625 4250 1398 4047 
Q 1172 3844 1172 3481 
z
" transform="scale(0.015625)"/>
       </defs>
       <use xlink:href="#DejaVuSans-38"/>
       <use xlink:href="#DejaVuSans-30" transform="translate(63.623047 0)"/>
      </g>
     </g>
    </g>
    <g id="xtick_6">
     <g id="line2d_6">
      <g>
       <use xlink:href="#m8658c47206" x="291.721684" y="307.584" style="stroke: #000000; stroke-width: 0.8"/>
      </g>
     </g>
     <g id="text_6">
      <!-- 100 -->
      <g transform="translate(282.177934 322.182437) scale(0.1 -0.1)">
       <defs>
        <path id="DejaVuSans-31" d="M 794 531 
L 1825 531 
L 1825 4091 
L 703 3866 
L 703 4441 
L 1819 4666 
L 2450 4666 
L 2450 531 
L 3481 531 
L 3481 0 
L 794 0 
L 794 531 
z
" transform="scale(0.015625)"/>
       </defs>
       <use xlink:href="#DejaVuSans-31"/>
       <use xlink:href="#DejaVuSans-30" transform="translate(63.623047 0)"/>
       <use xlink:href="#DejaVuSans-30" transform="translate(127.246094 0)"/>
      </g>
     </g>
    </g>
    <g id="xtick_7">
     <g id="line2d_7">
      <g>
       <use xlink:href="#m8658c47206" x="335.299475" y="307.584" style="stroke: #000000; stroke-width: 0.8"/>
      </g>
     </g>
     <g id="text_7">
      <!-- 120 -->
      <g transform="translate(325.755725 322.182437) scale(0.1 -0.1)">
       <use xlink:href="#DejaVuSans-31"/>
       <use xlink:href="#DejaVuSans-32" transform="translate(63.623047 0)"/>
       <use xlink:href="#DejaVuSans-30" transform="translate(127.246094 0)"/>
      </g>
     </g>
    </g>
    <g id="xtick_8">
     <g id="line2d_8">
      <g>
       <use xlink:href="#m8658c47206" x="378.877267" y="307.584" style="stroke: #000000; stroke-width: 0.8"/>
      </g>
     </g>
     <g id="text_8">
      <!-- 140 -->
      <g transform="translate(369.333517 322.182437) scale(0.1 -0.1)">
       <use xlink:href="#DejaVuSans-31"/>
       <use xlink:href="#DejaVuSans-34" transform="translate(63.623047 0)"/>
       <use xlink:href="#DejaVuSans-30" transform="translate(127.246094 0)"/>
      </g>
     </g>
    </g>
    <g id="text_9">
     <!-- Day -->
     <g transform="translate(226.286563 335.860562) scale(0.1 -0.1)">
      <defs>
       <path id="DejaVuSans-44" d="M 1259 4147 
L 1259 519 
L 2022 519 
Q 2988 519 3436 956 
Q 3884 1394 3884 2338 
Q 3884 3275 3436 3711 
Q 2988 4147 2022 4147 
L 1259 4147 
z
M 628 4666 
L 1925 4666 
Q 3281 4666 3915 4102 
Q 4550 3538 4550 2338 
Q 4550 1131 3912 565 
Q 3275 0 1925 0 
L 628 0 
L 628 4666 
z
" transform="scale(0.015625)"/>
       <path id="DejaVuSans-61" d="M 2194 1759 
Q 1497 1759 1228 1600 
Q 959 1441 959 1056 
Q 959 750 1161 570 
Q 1363 391 1709 391 
Q 2188 391 2477 730 
Q 2766 1069 2766 1631 
L 2766 1759 
L 2194 1759 
z
M 3341 1997 
L 3341 0 
L 2766 0 
L 2766 531 
Q 2569 213 2275 61 
Q 1981 -91 1556 -91 
Q 1019 -91 701 211 
Q 384 513 384 1019 
Q 384 1609 779 1909 
Q 1175 2209 1959 2209 
L 2766 2209 
L 2766 2266 
Q 2766 2663 2505 2880 
Q 2244 3097 1772 3097 
Q 1472 3097 1187 3025 
Q 903 2953 641 2809 
L 641 3341 
Q 956 3463 1253 3523 
Q 1550 3584 1831 3584 
Q 2591 3584 2966 3190 
Q 3341 2797 3341 1997 
z
" transform="scale(0.015625)"/>
       <path id="DejaVuSans-79" d="M 2059 -325 
Q 1816 -950 1584 -1140 
Q 1353 -1331 966 -1331 
L 506 -1331 
L 506 -850 
L 844 -850 
Q 1081 -850 1212 -737 
Q 1344 -625 1503 -206 
L 1606 56 
L 191 3500 
L 800 3500 
L 1894 763 
L 2988 3500 
L 3597 3500 
L 2059 -325 
z
" transform="scale(0.015625)"/>
      </defs>
      <use xlink:href="#DejaVuSans-44"/>
      <use xlink:href="#DejaVuSans-61" transform="translate(77.001953 0)"/>
      <use xlink:href="#DejaVuSans-79" transform="translate(138.28125 0)"/>
     </g>
    </g>
   </g>
   <g id="matplotlib.axis_2">
    <g id="ytick_1">
     <g id="line2d_9">
      <defs>
       <path id="mdcb1ccce2f" d="M 0 0 
L -3.5 0 
" style="stroke: #000000; stroke-width: 0.8"/>
      </defs>
      <g>
       <use xlink:href="#mdcb1ccce2f" x="57.6" y="295.488" style="stroke: #000000; stroke-width: 0.8"/>
      </g>
     </g>
     <g id="text_10">
      <!-- 0.0 -->
      <g transform="translate(34.696875 299.287219) scale(0.1 -0.1)">
       <defs>
        <path id="DejaVuSans-2e" d="M 684 794 
L 1344 794 
L 1344 0 
L 684 0 
L 684 794 
z
" transform="scale(0.015625)"/>
       </defs>
       <use xlink:href="#DejaVuSans-30"/>
       <use xlink:href="#DejaVuSans-2e" transform="translate(63.623047 0)"/>
       <use xlink:href="#DejaVuSans-30" transform="translate(95.410156 0)"/>
      </g>
     </g>
    </g>
    <g id="ytick_2">
     <g id="line2d_10">
      <g>
       <use xlink:href="#mdcb1ccce2f" x="57.6" y="257.712615" style="stroke: #000000; stroke-width: 0.8"/>
      </g>
     </g>
     <g id="text_11">
      <!-- 0.1 -->
      <g transform="translate(34.696875 261.511834) scale(0.1 -0.1)">
       <use xlink:href="#DejaVuSans-30"/>
       <use xlink:href="#DejaVuSans-2e" transform="translate(63.623047 0)"/>
       <use xlink:href="#DejaVuSans-31" transform="translate(95.410156 0)"/>
      </g>
     </g>
    </g>
    <g id="ytick_3">
     <g id="line2d_11">
      <g>
       <use xlink:href="#mdcb1ccce2f" x="57.6" y="219.93723" style="stroke: #000000; stroke-width: 0.8"/>
      </g>
     </g>
     <g id="text_12">
      <!-- 0.2 -->
      <g transform="translate(34.696875 223.736449) scale(0.1 -0.1)">
       <use xlink:href="#DejaVuSans-30"/>
       <use xlink:href="#DejaVuSans-2e" transform="translate(63.623047 0)"/>
       <use xlink:href="#DejaVuSans-32" transform="translate(95.410156 0)"/>
      </g>
     </g>
    </g>
    <g id="ytick_4">
     <g id="line2d_12">
      <g>
       <use xlink:href="#mdcb1ccce2f" x="57.6" y="182.161846" style="stroke: #000000; stroke-width: 0.8"/>
      </g>
     </g>
     <g id="text_13">
      <!-- 0.3 -->
      <g transform="translate(34.696875 185.961064) scale(0.1 -0.1)">
       <defs>
        <path id="DejaVuSans-33" d="M 2597 2516 
Q 3050 2419 3304 2112 
Q 3559 1806 3559 1356 
Q 3559 666 3084 287 
Q 2609 -91 1734 -91 
Q 1441 -91 1130 -33 
Q 819 25 488 141 
L 488 750 
Q 750 597 1062 519 
Q 1375 441 1716 441 
Q 2309 441 2620 675 
Q 2931 909 2931 1356 
Q 2931 1769 2642 2001 
Q 2353 2234 1838 2234 
L 1294 2234 
L 1294 2753 
L 1863 2753 
Q 2328 2753 2575 2939 
Q 2822 3125 2822 3475 
Q 2822 3834 2567 4026 
Q 2313 4219 1838 4219 
Q 1578 4219 1281 4162 
Q 984 4106 628 3988 
L 628 4550 
Q 988 4650 1302 4700 
Q 1616 4750 1894 4750 
Q 2613 4750 3031 4423 
Q 3450 4097 3450 3541 
Q 3450 3153 3228 2886 
Q 3006 2619 2597 2516 
z
" transform="scale(0.015625)"/>
       </defs>
       <use xlink:href="#DejaVuSans-30"/>
       <use xlink:href="#DejaVuSans-2e" transform="translate(63.623047 0)"/>
       <use xlink:href="#DejaVuSans-33" transform="translate(95.410156 0)"/>
      </g>
     </g>
    </g>
    <g id="ytick_5">
     <g id="line2d_13">
      <g>
       <use xlink:href="#mdcb1ccce2f" x="57.6" y="144.386461" style="stroke: #000000; stroke-width: 0.8"/>
      </g>
     </g>
     <g id="text_14">
      <!-- 0.4 -->
      <g transform="translate(34.696875 148.185679) scale(0.1 -0.1)">
       <use xlink:href="#DejaVuSans-30"/>
       <use xlink:href="#DejaVuSans-2e" transform="translate(63.623047 0)"/>
       <use xlink:href="#DejaVuSans-34" transform="translate(95.410156 0)"/>
      </g>
     </g>
    </g>
    <g id="ytick_6">
     <g id="line2d_14">
      <g>
       <use xlink:href="#mdcb1ccce2f" x="57.6" y="106.611076" style="stroke: #000000; stroke-width: 0.8"/>
      </g>
     </g>
     <g id="text_15">
      <!-- 0.5 -->
      <g transform="translate(34.696875 110.410295) scale(0.1 -0.1)">
       <defs>
        <path id="DejaVuSans-35" d="M 691 4666 
L 3169 4666 
L 3169 4134 
L 1269 4134 
L 1269 2991 
Q 1406 3038 1543 3061 
Q 1681 3084 1819 3084 
Q 2600 3084 3056 2656 
Q 3513 2228 3513 1497 
Q 3513 744 3044 326 
Q 2575 -91 1722 -91 
Q 1428 -91 1123 -41 
Q 819 9 494 109 
L 494 744 
Q 775 591 1075 516 
Q 1375 441 1709 441 
Q 2250 441 2565 725 
Q 2881 1009 2881 1497 
Q 2881 1984 2565 2268 
Q 2250 2553 1709 2553 
Q 1456 2553 1204 2497 
Q 953 2441 691 2322 
L 691 4666 
z
" transform="scale(0.015625)"/>
       </defs>
       <use xlink:href="#DejaVuSans-30"/>
       <use xlink:href="#DejaVuSans-2e" transform="translate(63.623047 0)"/>
       <use xlink:href="#DejaVuSans-35" transform="translate(95.410156 0)"/>
      </g>
     </g>
    </g>
    <g id="ytick_7">
     <g id="line2d_15">
      <g>
       <use xlink:href="#mdcb1ccce2f" x="57.6" y="68.835691" style="stroke: #000000; stroke-width: 0.8"/>
      </g>
     </g>
     <g id="text_16">
      <!-- 0.6 -->
      <g transform="translate(34.696875 72.63491) scale(0.1 -0.1)">
       <use xlink:href="#DejaVuSans-30"/>
       <use xlink:href="#DejaVuSans-2e" transform="translate(63.623047 0)"/>
       <use xlink:href="#DejaVuSans-36" transform="translate(95.410156 0)"/>
      </g>
     </g>
    </g>
    <g id="text_17">
     <!-- Q / (E+I+A+Q) -->
     <g transform="translate(28.617187 211.788156) rotate(-90) scale(0.1 -0.1)">
      <defs>
       <path id="DejaVuSans-51" d="M 2522 4238 
Q 1834 4238 1429 3725 
Q 1025 3213 1025 2328 
Q 1025 1447 1429 934 
Q 1834 422 2522 422 
Q 3209 422 3611 934 
Q 4013 1447 4013 2328 
Q 4013 3213 3611 3725 
Q 3209 4238 2522 4238 
z
M 3406 84 
L 4238 -825 
L 3475 -825 
L 2784 -78 
Q 2681 -84 2626 -87 
Q 2572 -91 2522 -91 
Q 1538 -91 948 567 
Q 359 1225 359 2328 
Q 359 3434 948 4092 
Q 1538 4750 2522 4750 
Q 3503 4750 4090 4092 
Q 4678 3434 4678 2328 
Q 4678 1516 4351 937 
Q 4025 359 3406 84 
z
" transform="scale(0.015625)"/>
       <path id="DejaVuSans-20" transform="scale(0.015625)"/>
       <path id="DejaVuSans-2f" d="M 1625 4666 
L 2156 4666 
L 531 -594 
L 0 -594 
L 1625 4666 
z
" transform="scale(0.015625)"/>
       <path id="DejaVuSans-28" d="M 1984 4856 
Q 1566 4138 1362 3434 
Q 1159 2731 1159 2009 
Q 1159 1288 1364 580 
Q 1569 -128 1984 -844 
L 1484 -844 
Q 1016 -109 783 600 
Q 550 1309 550 2009 
Q 550 2706 781 3412 
Q 1013 4119 1484 4856 
L 1984 4856 
z
" transform="scale(0.015625)"/>
       <path id="DejaVuSans-45" d="M 628 4666 
L 3578 4666 
L 3578 4134 
L 1259 4134 
L 1259 2753 
L 3481 2753 
L 3481 2222 
L 1259 2222 
L 1259 531 
L 3634 531 
L 3634 0 
L 628 0 
L 628 4666 
z
" transform="scale(0.015625)"/>
       <path id="DejaVuSans-2b" d="M 2944 4013 
L 2944 2272 
L 4684 2272 
L 4684 1741 
L 2944 1741 
L 2944 0 
L 2419 0 
L 2419 1741 
L 678 1741 
L 678 2272 
L 2419 2272 
L 2419 4013 
L 2944 4013 
z
" transform="scale(0.015625)"/>
       <path id="DejaVuSans-49" d="M 628 4666 
L 1259 4666 
L 1259 0 
L 628 0 
L 628 4666 
z
" transform="scale(0.015625)"/>
       <path id="DejaVuSans-41" d="M 2188 4044 
L 1331 1722 
L 3047 1722 
L 2188 4044 
z
M 1831 4666 
L 2547 4666 
L 4325 0 
L 3669 0 
L 3244 1197 
L 1141 1197 
L 716 0 
L 50 0 
L 1831 4666 
z
" transform="scale(0.015625)"/>
       <path id="DejaVuSans-29" d="M 513 4856 
L 1013 4856 
Q 1481 4119 1714 3412 
Q 1947 2706 1947 2009 
Q 1947 1309 1714 600 
Q 1481 -109 1013 -844 
L 513 -844 
Q 928 -128 1133 580 
Q 1338 1288 1338 2009 
Q 1338 2731 1133 3434 
Q 928 4138 513 4856 
z
" transform="scale(0.015625)"/>
      </defs>
      <use xlink:href="#DejaVuSans-51"/>
      <use xlink:href="#DejaVuSans-20" transform="translate(78.710938 0)"/>
      <use xlink:href="#DejaVuSans-2f" transform="translate(110.498047 0)"/>
      <use xlink:href="#DejaVuSans-20" transform="translate(144.189453 0)"/>
      <use xlink:href="#DejaVuSans-28" transform="translate(175.976562 0)"/>
      <use xlink:href="#DejaVuSans-45" transform="translate(214.990234 0)"/>
      <use xlink:href="#DejaVuSans-2b" transform="translate(278.173828 0)"/>
      <use xlink:href="#DejaVuSans-49" transform="translate(361.962891 0)"/>
      <use xlink:href="#DejaVuSans-2b" transform="translate(391.455078 0)"/>
      <use xlink:href="#DejaVuSans-41" transform="translate(475.244141 0)"/>
      <use xlink:href="#DejaVuSans-2b" transform="translate(543.652344 0)"/>
      <use xlink:href="#DejaVuSans-51" transform="translate(627.441406 0)"/>
      <use xlink:href="#DejaVuSans-29" transform="translate(706.152344 0)"/>
     </g>
    </g>
   </g>
   <g id="line2d_16">
    <path d="M 73.832727 295.488 
L 115.231629 295.488 
L 117.410519 287.847544 
L 119.589408 277.151554 
L 123.947187 258.37473 
L 126.126077 250.197891 
L 128.304966 243.218698 
L 130.483856 236.669007 
L 137.020525 216.136215 
L 139.199414 210.464714 
L 143.557193 197.182433 
L 147.914973 185.720209 
L 158.80942 152.904595 
L 160.98831 134.440486 
L 163.1672 122.37698 
L 165.346089 112.275734 
L 167.524979 102.758025 
L 171.882758 86.050554 
L 174.061647 75.475001 
L 176.240537 68.709595 
L 178.419426 63.949883 
L 180.598316 62.513496 
L 182.777206 59.624739 
L 184.956095 58.116902 
L 187.134985 58.241759 
L 189.313874 56.536405 
L 191.492764 55.327101 
L 193.671653 54.956129 
L 195.850543 53.568 
L 198.029433 57.391314 
L 200.208322 58.371017 
L 202.387212 57.699128 
L 204.566101 58.179729 
L 206.744991 59.476417 
L 208.92388 59.795428 
L 211.10277 58.870173 
L 213.28166 58.921668 
L 215.460549 58.805822 
L 217.639439 57.384933 
L 219.818328 59.652725 
L 221.997218 62.264579 
L 226.354997 66.029086 
L 228.533887 67.470799 
L 230.712776 66.781314 
L 232.891666 67.016794 
L 235.070555 64.5092 
L 237.249445 63.851099 
L 239.428334 61.419665 
L 241.607224 61.19879 
L 243.786113 59.712579 
L 245.965003 62.343047 
L 248.143893 67.351879 
L 250.322782 68.835691 
L 252.501672 70.125417 
L 254.680561 69.610932 
L 256.859451 71.219936 
L 259.03834 66.569949 
L 261.21723 69.241878 
L 263.39612 68.500654 
L 265.575009 72.766078 
L 267.753899 70.939405 
L 269.932788 74.410684 
L 272.111678 74.749247 
L 274.290567 73.465543 
L 278.648347 72.665454 
L 280.827236 75.379458 
L 283.006126 75.340062 
L 285.185015 83.080954 
L 287.363905 86.433331 
L 289.542794 86.803758 
L 291.721684 86.748302 
L 293.900574 85.871649 
L 296.079463 86.055682 
L 298.258353 81.769226 
L 300.437242 76.702149 
L 302.616132 79.750475 
L 304.795021 87.723383 
L 306.973911 94.302243 
L 309.1528 95.698187 
L 311.33169 97.855192 
L 313.51058 101.16673 
L 315.689469 107.901807 
L 317.868359 107.045276 
L 320.047248 97.785051 
L 322.226138 96.041321 
L 324.405027 92.433873 
L 326.583917 98.643563 
L 328.762807 95.777736 
L 330.941696 89.703934 
L 333.120586 88.11282 
L 335.299475 101.403943 
L 337.478365 113.254988 
L 339.657254 118.15612 
L 341.836144 116.696737 
L 344.015034 114.27434 
L 346.193923 116.274546 
L 348.372813 119.145242 
L 350.551702 114.517552 
L 352.730592 108.833157 
L 354.909481 109.766538 
L 357.088371 103.912834 
L 359.267261 101.214592 
L 361.44615 103.470604 
L 363.62504 100.665797 
L 365.803929 97.007164 
L 367.982819 88.845425 
L 370.161708 81.36515 
L 372.340598 85.415411 
L 374.519487 85.201853 
L 376.698377 84.873322 
L 378.877267 81.591016 
L 381.056156 85.301884 
L 383.235046 77.6663 
L 385.413935 83.380224 
L 387.592825 87.317197 
L 389.771714 90.165328 
L 391.950604 94.555102 
L 394.129494 88.622797 
L 396.308383 96.510706 
L 398.487273 96.832706 
L 398.487273 96.832706 
" clip-path="url(#p20dfc69278)" style="fill: none; stroke: #1f77b4; stroke-width: 1.5; stroke-linecap: square"/>
   </g>
   <g id="line2d_17">
    <path d="M 73.832727 295.488 
L 115.231629 295.488 
L 117.410519 294.435324 
L 123.947187 292.229261 
L 130.483856 290.665937 
L 139.199414 288.711258 
L 141.378304 288.011118 
L 143.557193 287.58296 
L 147.914973 286.47538 
L 150.093862 286.113411 
L 152.272752 285.865002 
L 154.451641 285.022865 
L 158.80942 283.76813 
L 160.98831 281.240929 
L 163.1672 278.311299 
L 165.346089 275.780312 
L 167.524979 273.020873 
L 169.703868 270.464242 
L 171.882758 267.429685 
L 176.240537 262.309908 
L 178.419426 259.433864 
L 189.313874 243.639433 
L 191.492764 239.824832 
L 195.850543 232.822169 
L 198.029433 229.079579 
L 202.387212 220.052928 
L 204.566101 212.996299 
L 206.744991 204.852429 
L 208.92388 196.159899 
L 211.10277 186.985731 
L 215.460549 165.422349 
L 217.639439 153.891978 
L 221.997218 138.905147 
L 224.176107 128.60229 
L 226.354997 121.556727 
L 228.533887 114.887705 
L 230.712776 103.859078 
L 232.891666 103.30573 
L 235.070555 101.157936 
L 237.249445 95.585599 
L 241.607224 87.672591 
L 243.786113 86.251714 
L 245.965003 85.393448 
L 248.143893 84.79473 
L 250.322782 83.409304 
L 252.501672 81.586073 
L 254.680561 83.188344 
L 256.859451 79.568295 
L 259.03834 78.835058 
L 261.21723 82.300185 
L 263.39612 87.257928 
L 265.575009 86.078203 
L 267.753899 88.812547 
L 269.932788 87.958271 
L 272.111678 91.414082 
L 274.290567 92.407531 
L 276.469457 95.183228 
L 278.648347 99.760617 
L 280.827236 102.202817 
L 283.006126 99.041917 
L 285.185015 98.558184 
L 287.363905 101.023001 
L 289.542794 103.752192 
L 291.721684 103.86805 
L 293.900574 101.430907 
L 296.079463 101.24994 
L 298.258353 102.450791 
L 300.437242 105.524327 
L 302.616132 109.482889 
L 304.795021 110.141486 
L 306.973911 109.572958 
L 309.1528 102.329231 
L 311.33169 99.742824 
L 313.51058 101.243802 
L 315.689469 100.349962 
L 317.868359 94.906027 
L 320.047248 92.980782 
L 322.226138 94.555102 
L 324.405027 89.980403 
L 326.583917 91.280157 
L 328.762807 89.954708 
L 330.941696 94.363084 
L 333.120586 94.952006 
L 335.299475 94.952006 
L 339.657254 102.840393 
L 341.836144 103.863775 
L 344.015034 100.268194 
L 346.193923 96.137977 
L 348.372813 98.725558 
L 350.551702 106.611076 
L 352.730592 106.611076 
L 354.909481 109.899069 
L 357.088371 112.583469 
L 359.267261 112.155408 
L 361.44615 108.092463 
L 363.62504 114.758708 
L 365.803929 126.150068 
L 367.982819 122.044599 
L 370.161708 118.508835 
L 374.519487 105.081708 
L 376.698377 102.772114 
L 378.877267 104.326274 
L 383.235046 114.415907 
L 385.413935 114.415907 
L 387.592825 108.159247 
L 389.771714 109.282063 
L 391.950604 111.126062 
L 394.129494 120.641933 
L 396.308383 123.907497 
L 398.487273 126.601699 
L 398.487273 126.601699 
" clip-path="url(#p20dfc69278)" style="fill: none; stroke: #ff7f0e; stroke-width: 1.5; stroke-linecap: square"/>
   </g>
   <g id="line2d_18">
    <path d="M 73.832727 295.488 
L 115.231629 295.488 
L 117.410519 294.401264 
L 119.589408 293.472055 
L 123.947187 292.134026 
L 128.304966 291.118525 
L 134.841635 289.287495 
L 143.557193 286.388335 
L 145.736083 286.050738 
L 150.093862 284.63113 
L 152.272752 284.082563 
L 154.451641 283.190193 
L 158.80942 282.165562 
L 160.98831 279.526959 
L 169.703868 268.171832 
L 171.882758 265.236315 
L 176.240537 258.562459 
L 178.419426 255.230454 
L 182.777206 247.853725 
L 187.134985 239.874368 
L 189.313874 235.140825 
L 193.671653 226.592182 
L 195.850543 223.120079 
L 200.208322 213.107782 
L 202.387212 207.262384 
L 211.10277 166.861588 
L 215.460549 142.383869 
L 217.639439 128.950394 
L 219.818328 117.543316 
L 221.997218 105.205293 
L 224.176107 98.052341 
L 228.533887 89.625311 
L 230.712776 88.595896 
L 232.891666 85.845196 
L 235.070555 85.269443 
L 237.249445 83.405357 
L 239.428334 83.011132 
L 241.607224 80.977198 
L 243.786113 81.639161 
L 245.965003 84.155909 
L 248.143893 83.157023 
L 250.322782 84.36647 
L 252.501672 82.401555 
L 254.680561 83.364685 
L 256.859451 81.647293 
L 259.03834 80.623402 
L 261.21723 82.143812 
L 263.39612 85.745972 
L 265.575009 83.922723 
L 267.753899 83.191554 
L 269.932788 81.934469 
L 272.111678 82.631919 
L 274.290567 81.989927 
L 276.469457 83.859171 
L 278.648347 80.820652 
L 280.827236 80.301816 
L 283.006126 79.331167 
L 285.185015 80.3345 
L 287.363905 77.965131 
L 289.542794 83.518016 
L 291.721684 83.540203 
L 293.900574 89.488342 
L 296.079463 89.491474 
L 298.258353 92.214969 
L 300.437242 86.298469 
L 302.616132 84.371836 
L 304.795021 83.870042 
L 306.973911 92.632233 
L 309.1528 90.81649 
L 311.33169 90.558245 
L 313.51058 92.515783 
L 315.689469 93.484494 
L 317.868359 89.646083 
L 320.047248 85.362422 
L 322.226138 81.649368 
L 324.405027 79.879075 
L 326.583917 75.207443 
L 328.762807 79.216713 
L 330.941696 75.466477 
L 333.120586 80.083418 
L 335.299475 93.234523 
L 337.478365 94.531738 
L 339.657254 88.406071 
L 341.836144 84.703721 
L 344.015034 84.534552 
L 346.193923 79.628658 
L 348.372813 72.883054 
L 350.551702 72.857405 
L 352.730592 74.742953 
L 354.909481 79.180817 
L 357.088371 76.093844 
L 359.267261 76.425266 
L 361.44615 76.319494 
L 363.62504 76.788404 
L 365.803929 84.390261 
L 367.982819 86.270484 
L 370.161708 89.622146 
L 372.340598 84.741116 
L 374.519487 81.974955 
L 378.877267 53.901237 
L 381.056156 55.099187 
L 383.235046 58.465978 
L 385.413935 60.382458 
L 387.592825 64.947048 
L 389.771714 68.26764 
L 391.950604 80.855132 
L 394.129494 87.576967 
L 396.308383 85.952662 
L 398.487273 79.628658 
L 398.487273 79.628658 
" clip-path="url(#p20dfc69278)" style="fill: none; stroke: #2ca02c; stroke-width: 1.5; stroke-linecap: square"/>
   </g>
   <g id="line2d_19">
    <path d="M 73.832727 295.488 
L 115.231629 295.488 
L 117.410519 294.424035 
L 119.589408 293.523291 
L 121.768298 292.756375 
L 137.020525 288.315071 
L 141.378304 287.465916 
L 143.557193 286.783994 
L 147.914973 285.723582 
L 152.272752 284.491987 
L 158.80942 282.093036 
L 160.98831 279.514628 
L 163.1672 276.734061 
L 165.346089 274.199004 
L 167.524979 271.95549 
L 169.703868 269.024034 
L 174.061647 263.691829 
L 176.240537 260.348107 
L 178.419426 257.297086 
L 180.598316 254.668877 
L 182.777206 250.718388 
L 184.956095 248.018198 
L 187.134985 244.33337 
L 193.671653 235.081643 
L 198.029433 227.914709 
L 200.208322 224.734286 
L 202.387212 220.854513 
L 204.566101 215.292359 
L 206.744991 208.164097 
L 208.92388 202.634189 
L 211.10277 195.886174 
L 213.28166 191.086271 
L 215.460549 185.58897 
L 217.639439 180.960964 
L 219.818328 175.835182 
L 221.997218 170.326489 
L 224.176107 166.598714 
L 226.354997 163.231581 
L 228.533887 158.926791 
L 230.712776 156.283087 
L 232.891666 154.097686 
L 235.070555 151.698545 
L 237.249445 148.661597 
L 239.428334 147.8161 
L 241.607224 148.144561 
L 243.786113 145.670223 
L 248.143893 138.98787 
L 250.322782 132.625909 
L 252.501672 129.205548 
L 254.680561 123.965512 
L 256.859451 120.724573 
L 259.03834 115.570738 
L 261.21723 112.419791 
L 263.39612 109.471353 
L 267.753899 101.856737 
L 269.932788 95.889801 
L 272.111678 91.231784 
L 274.290567 88.616805 
L 276.469457 87.697114 
L 280.827236 90.023361 
L 283.006126 87.694281 
L 285.185015 86.130446 
L 287.363905 83.654534 
L 289.542794 84.602808 
L 291.721684 90.313794 
L 296.079463 90.855886 
L 298.258353 88.231748 
L 300.437242 88.293271 
L 302.616132 86.795863 
L 304.795021 86.25049 
L 306.973911 91.544593 
L 309.1528 92.679404 
L 311.33169 92.009618 
L 313.51058 97.571626 
L 315.689469 100.518272 
L 317.868359 105.366827 
L 320.047248 106.100598 
L 322.226138 108.658522 
L 324.405027 108.686646 
L 326.583917 108.981916 
L 328.762807 111.28111 
L 330.941696 115.856799 
L 333.120586 119.525737 
L 335.299475 118.761053 
L 337.478365 124.300455 
L 339.657254 114.747313 
L 341.836144 112.666672 
L 344.015034 109.628279 
L 346.193923 112.112345 
L 348.372813 117.036101 
L 350.551702 112.886057 
L 352.730592 107.563396 
L 354.909481 105.347685 
L 357.088371 102.384914 
L 359.267261 96.463442 
L 361.44615 99.029629 
L 363.62504 103.580965 
L 365.803929 99.438534 
L 367.982819 101.768078 
L 370.161708 99.537034 
L 372.340598 96.411019 
L 374.519487 92.082082 
L 376.698377 86.788349 
L 378.877267 86.729294 
L 381.056156 90.002267 
L 383.235046 88.358264 
L 385.413935 89.732712 
L 387.592825 93.628405 
L 389.771714 107.850968 
L 391.950604 110.397028 
L 394.129494 116.200853 
L 396.308383 116.200853 
L 398.487273 121.856747 
L 398.487273 121.856747 
" clip-path="url(#p20dfc69278)" style="fill: none; stroke: #d62728; stroke-width: 1.5; stroke-linecap: square"/>
   </g>
   <g id="line2d_20">
    <path d="M 73.832727 295.488 
L 115.231629 295.488 
L 117.410519 294.603641 
L 119.589408 293.851045 
L 121.768298 293.406201 
L 126.126077 292.194679 
L 128.304966 291.46913 
L 130.483856 290.983607 
L 132.662746 290.692452 
L 137.020525 289.767233 
L 143.557193 287.790652 
L 147.914973 286.896988 
L 150.093862 286.169994 
L 152.272752 285.575105 
L 154.451641 285.168627 
L 156.630531 284.294147 
L 158.80942 283.571135 
L 163.1672 278.876004 
L 178.419426 259.095983 
L 180.598316 256.424165 
L 184.956095 250.437653 
L 187.134985 247.895494 
L 189.313874 244.471609 
L 191.492764 241.537557 
L 193.671653 237.842204 
L 195.850543 234.498203 
L 198.029433 231.669713 
L 200.208322 229.11775 
L 202.387212 225.723778 
L 204.566101 218.611087 
L 206.744991 212.312212 
L 208.92388 206.520874 
L 211.10277 201.235807 
L 213.28166 196.808811 
L 215.460549 189.63612 
L 217.639439 184.825932 
L 219.818328 181.966578 
L 224.176107 172.065376 
L 226.354997 169.503286 
L 228.533887 163.773938 
L 230.712776 159.592056 
L 232.891666 156.511614 
L 237.249445 150.700857 
L 239.428334 150.884082 
L 241.607224 148.635037 
L 243.786113 146.768193 
L 248.143893 138.25498 
L 250.322782 132.302144 
L 252.501672 130.753239 
L 254.680561 125.331776 
L 256.859451 122.251732 
L 259.03834 118.397916 
L 261.21723 115.758388 
L 263.39612 110.277572 
L 265.575009 107.916677 
L 267.753899 108.091124 
L 272.111678 101.214592 
L 274.290567 99.58618 
L 276.469457 100.136083 
L 278.648347 98.123842 
L 280.827236 95.903093 
L 283.006126 98.223449 
L 285.185015 95.060463 
L 287.363905 93.6835 
L 289.542794 93.8778 
L 291.721684 91.515649 
L 293.900574 91.816037 
L 296.079463 92.859865 
L 298.258353 92.114879 
L 300.437242 93.485353 
L 302.616132 96.182289 
L 304.795021 98.543469 
L 306.973911 98.700001 
L 309.1528 98.509117 
L 311.33169 96.670185 
L 313.51058 94.381635 
L 315.689469 103.586846 
L 317.868359 107.453024 
L 320.047248 114.69755 
L 322.226138 113.984649 
L 324.405027 111.48347 
L 326.583917 111.260354 
L 328.762807 112.685219 
L 330.941696 118.96751 
L 333.120586 117.188184 
L 335.299475 124.116742 
L 337.478365 117.016649 
L 341.836144 113.557513 
L 344.015034 108.337556 
L 346.193923 102.004322 
L 348.372813 104.102274 
L 350.551702 105.146914 
L 352.730592 105.510822 
L 354.909481 105.475543 
L 357.088371 108.134277 
L 359.267261 114.528073 
L 361.44615 122.192472 
L 365.803929 139.503467 
L 367.982819 138.090563 
L 370.161708 139.314148 
L 372.340598 134.44557 
L 374.519487 138.971108 
L 376.698377 144.90571 
L 378.877267 146.523504 
L 381.056156 146.505872 
L 383.235046 151.052705 
L 385.413935 147.61725 
L 387.592825 145.973149 
L 389.771714 148.318914 
L 391.950604 144.849962 
L 394.129494 145.283206 
L 396.308383 146.404137 
L 398.487273 138.73677 
L 398.487273 138.73677 
" clip-path="url(#p20dfc69278)" style="fill: none; stroke: #9467bd; stroke-width: 1.5; stroke-linecap: square"/>
   </g>
   <g id="patch_3">
    <path d="M 57.6 307.584 
L 57.6 41.472 
" style="fill: none; stroke: #000000; stroke-width: 0.8; stroke-linejoin: miter; stroke-linecap: square"/>
   </g>
   <g id="patch_4">
    <path d="M 414.72 307.584 
L 414.72 41.472 
" style="fill: none; stroke: #000000; stroke-width: 0.8; stroke-linejoin: miter; stroke-linecap: square"/>
   </g>
   <g id="patch_5">
    <path d="M 57.6 307.584 
L 414.72 307.584 
" style="fill: none; stroke: #000000; stroke-width: 0.8; stroke-linejoin: miter; stroke-linecap: square"/>
   </g>
   <g id="patch_6">
    <path d="M 57.6 41.472 
L 414.72 41.472 
" style="fill: none; stroke: #000000; stroke-width: 0.8; stroke-linejoin: miter; stroke-linecap: square"/>
   </g>
   <g id="text_18">
    <!-- Quarantine Efficiency vs Time (Youtube) -->
    <g transform="translate(115.839375 35.472) scale(0.12 -0.12)">
     <defs>
      <path id="DejaVuSans-75" d="M 544 1381 
L 544 3500 
L 1119 3500 
L 1119 1403 
Q 1119 906 1312 657 
Q 1506 409 1894 409 
Q 2359 409 2629 706 
Q 2900 1003 2900 1516 
L 2900 3500 
L 3475 3500 
L 3475 0 
L 2900 0 
L 2900 538 
Q 2691 219 2414 64 
Q 2138 -91 1772 -91 
Q 1169 -91 856 284 
Q 544 659 544 1381 
z
M 1991 3584 
L 1991 3584 
z
" transform="scale(0.015625)"/>
      <path id="DejaVuSans-72" d="M 2631 2963 
Q 2534 3019 2420 3045 
Q 2306 3072 2169 3072 
Q 1681 3072 1420 2755 
Q 1159 2438 1159 1844 
L 1159 0 
L 581 0 
L 581 3500 
L 1159 3500 
L 1159 2956 
Q 1341 3275 1631 3429 
Q 1922 3584 2338 3584 
Q 2397 3584 2469 3576 
Q 2541 3569 2628 3553 
L 2631 2963 
z
" transform="scale(0.015625)"/>
      <path id="DejaVuSans-6e" d="M 3513 2113 
L 3513 0 
L 2938 0 
L 2938 2094 
Q 2938 2591 2744 2837 
Q 2550 3084 2163 3084 
Q 1697 3084 1428 2787 
Q 1159 2491 1159 1978 
L 1159 0 
L 581 0 
L 581 3500 
L 1159 3500 
L 1159 2956 
Q 1366 3272 1645 3428 
Q 1925 3584 2291 3584 
Q 2894 3584 3203 3211 
Q 3513 2838 3513 2113 
z
" transform="scale(0.015625)"/>
      <path id="DejaVuSans-74" d="M 1172 4494 
L 1172 3500 
L 2356 3500 
L 2356 3053 
L 1172 3053 
L 1172 1153 
Q 1172 725 1289 603 
Q 1406 481 1766 481 
L 2356 481 
L 2356 0 
L 1766 0 
Q 1100 0 847 248 
Q 594 497 594 1153 
L 594 3053 
L 172 3053 
L 172 3500 
L 594 3500 
L 594 4494 
L 1172 4494 
z
" transform="scale(0.015625)"/>
      <path id="DejaVuSans-69" d="M 603 3500 
L 1178 3500 
L 1178 0 
L 603 0 
L 603 3500 
z
M 603 4863 
L 1178 4863 
L 1178 4134 
L 603 4134 
L 603 4863 
z
" transform="scale(0.015625)"/>
      <path id="DejaVuSans-65" d="M 3597 1894 
L 3597 1613 
L 953 1613 
Q 991 1019 1311 708 
Q 1631 397 2203 397 
Q 2534 397 2845 478 
Q 3156 559 3463 722 
L 3463 178 
Q 3153 47 2828 -22 
Q 2503 -91 2169 -91 
Q 1331 -91 842 396 
Q 353 884 353 1716 
Q 353 2575 817 3079 
Q 1281 3584 2069 3584 
Q 2775 3584 3186 3129 
Q 3597 2675 3597 1894 
z
M 3022 2063 
Q 3016 2534 2758 2815 
Q 2500 3097 2075 3097 
Q 1594 3097 1305 2825 
Q 1016 2553 972 2059 
L 3022 2063 
z
" transform="scale(0.015625)"/>
      <path id="DejaVuSans-66" d="M 2375 4863 
L 2375 4384 
L 1825 4384 
Q 1516 4384 1395 4259 
Q 1275 4134 1275 3809 
L 1275 3500 
L 2222 3500 
L 2222 3053 
L 1275 3053 
L 1275 0 
L 697 0 
L 697 3053 
L 147 3053 
L 147 3500 
L 697 3500 
L 697 3744 
Q 697 4328 969 4595 
Q 1241 4863 1831 4863 
L 2375 4863 
z
" transform="scale(0.015625)"/>
      <path id="DejaVuSans-63" d="M 3122 3366 
L 3122 2828 
Q 2878 2963 2633 3030 
Q 2388 3097 2138 3097 
Q 1578 3097 1268 2742 
Q 959 2388 959 1747 
Q 959 1106 1268 751 
Q 1578 397 2138 397 
Q 2388 397 2633 464 
Q 2878 531 3122 666 
L 3122 134 
Q 2881 22 2623 -34 
Q 2366 -91 2075 -91 
Q 1284 -91 818 406 
Q 353 903 353 1747 
Q 353 2603 823 3093 
Q 1294 3584 2113 3584 
Q 2378 3584 2631 3529 
Q 2884 3475 3122 3366 
z
" transform="scale(0.015625)"/>
      <path id="DejaVuSans-76" d="M 191 3500 
L 800 3500 
L 1894 563 
L 2988 3500 
L 3597 3500 
L 2284 0 
L 1503 0 
L 191 3500 
z
" transform="scale(0.015625)"/>
      <path id="DejaVuSans-73" d="M 2834 3397 
L 2834 2853 
Q 2591 2978 2328 3040 
Q 2066 3103 1784 3103 
Q 1356 3103 1142 2972 
Q 928 2841 928 2578 
Q 928 2378 1081 2264 
Q 1234 2150 1697 2047 
L 1894 2003 
Q 2506 1872 2764 1633 
Q 3022 1394 3022 966 
Q 3022 478 2636 193 
Q 2250 -91 1575 -91 
Q 1294 -91 989 -36 
Q 684 19 347 128 
L 347 722 
Q 666 556 975 473 
Q 1284 391 1588 391 
Q 1994 391 2212 530 
Q 2431 669 2431 922 
Q 2431 1156 2273 1281 
Q 2116 1406 1581 1522 
L 1381 1569 
Q 847 1681 609 1914 
Q 372 2147 372 2553 
Q 372 3047 722 3315 
Q 1072 3584 1716 3584 
Q 2034 3584 2315 3537 
Q 2597 3491 2834 3397 
z
" transform="scale(0.015625)"/>
      <path id="DejaVuSans-54" d="M -19 4666 
L 3928 4666 
L 3928 4134 
L 2272 4134 
L 2272 0 
L 1638 0 
L 1638 4134 
L -19 4134 
L -19 4666 
z
" transform="scale(0.015625)"/>
      <path id="DejaVuSans-6d" d="M 3328 2828 
Q 3544 3216 3844 3400 
Q 4144 3584 4550 3584 
Q 5097 3584 5394 3201 
Q 5691 2819 5691 2113 
L 5691 0 
L 5113 0 
L 5113 2094 
Q 5113 2597 4934 2840 
Q 4756 3084 4391 3084 
Q 3944 3084 3684 2787 
Q 3425 2491 3425 1978 
L 3425 0 
L 2847 0 
L 2847 2094 
Q 2847 2600 2669 2842 
Q 2491 3084 2119 3084 
Q 1678 3084 1418 2786 
Q 1159 2488 1159 1978 
L 1159 0 
L 581 0 
L 581 3500 
L 1159 3500 
L 1159 2956 
Q 1356 3278 1631 3431 
Q 1906 3584 2284 3584 
Q 2666 3584 2933 3390 
Q 3200 3197 3328 2828 
z
" transform="scale(0.015625)"/>
      <path id="DejaVuSans-59" d="M -13 4666 
L 666 4666 
L 1959 2747 
L 3244 4666 
L 3922 4666 
L 2272 2222 
L 2272 0 
L 1638 0 
L 1638 2222 
L -13 4666 
z
" transform="scale(0.015625)"/>
      <path id="DejaVuSans-6f" d="M 1959 3097 
Q 1497 3097 1228 2736 
Q 959 2375 959 1747 
Q 959 1119 1226 758 
Q 1494 397 1959 397 
Q 2419 397 2687 759 
Q 2956 1122 2956 1747 
Q 2956 2369 2687 2733 
Q 2419 3097 1959 3097 
z
M 1959 3584 
Q 2709 3584 3137 3096 
Q 3566 2609 3566 1747 
Q 3566 888 3137 398 
Q 2709 -91 1959 -91 
Q 1206 -91 779 398 
Q 353 888 353 1747 
Q 353 2609 779 3096 
Q 1206 3584 1959 3584 
z
" transform="scale(0.015625)"/>
      <path id="DejaVuSans-62" d="M 3116 1747 
Q 3116 2381 2855 2742 
Q 2594 3103 2138 3103 
Q 1681 3103 1420 2742 
Q 1159 2381 1159 1747 
Q 1159 1113 1420 752 
Q 1681 391 2138 391 
Q 2594 391 2855 752 
Q 3116 1113 3116 1747 
z
M 1159 2969 
Q 1341 3281 1617 3432 
Q 1894 3584 2278 3584 
Q 2916 3584 3314 3078 
Q 3713 2572 3713 1747 
Q 3713 922 3314 415 
Q 2916 -91 2278 -91 
Q 1894 -91 1617 61 
Q 1341 213 1159 525 
L 1159 0 
L 581 0 
L 581 4863 
L 1159 4863 
L 1159 2969 
z
" transform="scale(0.015625)"/>
     </defs>
     <use xlink:href="#DejaVuSans-51"/>
     <use xlink:href="#DejaVuSans-75" transform="translate(78.710938 0)"/>
     <use xlink:href="#DejaVuSans-61" transform="translate(142.089844 0)"/>
     <use xlink:href="#DejaVuSans-72" transform="translate(203.369141 0)"/>
     <use xlink:href="#DejaVuSans-61" transform="translate(244.482422 0)"/>
     <use xlink:href="#DejaVuSans-6e" transform="translate(305.761719 0)"/>
     <use xlink:href="#DejaVuSans-74" transform="translate(369.140625 0)"/>
     <use xlink:href="#DejaVuSans-69" transform="translate(408.349609 0)"/>
     <use xlink:href="#DejaVuSans-6e" transform="translate(436.132812 0)"/>
     <use xlink:href="#DejaVuSans-65" transform="translate(499.511719 0)"/>
     <use xlink:href="#DejaVuSans-20" transform="translate(561.035156 0)"/>
     <use xlink:href="#DejaVuSans-45" transform="translate(592.822266 0)"/>
     <use xlink:href="#DejaVuSans-66" transform="translate(656.005859 0)"/>
     <use xlink:href="#DejaVuSans-66" transform="translate(691.210938 0)"/>
     <use xlink:href="#DejaVuSans-69" transform="translate(726.416016 0)"/>
     <use xlink:href="#DejaVuSans-63" transform="translate(754.199219 0)"/>
     <use xlink:href="#DejaVuSans-69" transform="translate(809.179688 0)"/>
     <use xlink:href="#DejaVuSans-65" transform="translate(836.962891 0)"/>
     <use xlink:href="#DejaVuSans-6e" transform="translate(898.486328 0)"/>
     <use xlink:href="#DejaVuSans-63" transform="translate(961.865234 0)"/>
     <use xlink:href="#DejaVuSans-79" transform="translate(1016.845703 0)"/>
     <use xlink:href="#DejaVuSans-20" transform="translate(1076.025391 0)"/>
     <use xlink:href="#DejaVuSans-76" transform="translate(1107.8125 0)"/>
     <use xlink:href="#DejaVuSans-73" transform="translate(1166.992188 0)"/>
     <use xlink:href="#DejaVuSans-20" transform="translate(1219.091797 0)"/>
     <use xlink:href="#DejaVuSans-54" transform="translate(1250.878906 0)"/>
     <use xlink:href="#DejaVuSans-69" transform="translate(1308.837891 0)"/>
     <use xlink:href="#DejaVuSans-6d" transform="translate(1336.621094 0)"/>
     <use xlink:href="#DejaVuSans-65" transform="translate(1434.033203 0)"/>
     <use xlink:href="#DejaVuSans-20" transform="translate(1495.556641 0)"/>
     <use xlink:href="#DejaVuSans-28" transform="translate(1527.34375 0)"/>
     <use xlink:href="#DejaVuSans-59" transform="translate(1566.357422 0)"/>
     <use xlink:href="#DejaVuSans-6f" transform="translate(1614.191406 0)"/>
     <use xlink:href="#DejaVuSans-75" transform="translate(1675.373047 0)"/>
     <use xlink:href="#DejaVuSans-74" transform="translate(1738.751953 0)"/>
     <use xlink:href="#DejaVuSans-75" transform="translate(1777.960938 0)"/>
     <use xlink:href="#DejaVuSans-62" transform="translate(1841.339844 0)"/>
     <use xlink:href="#DejaVuSans-65" transform="translate(1904.816406 0)"/>
     <use xlink:href="#DejaVuSans-29" transform="translate(1966.339844 0)"/>
    </g>
   </g>
   <g id="legend_1">
    <g id="patch_7">
     <path d="M 289.559063 302.584 
L 407.72 302.584 
Q 409.72 302.584 409.72 300.584 
L 409.72 228.193375 
Q 409.72 226.193375 407.72 226.193375 
L 289.559063 226.193375 
Q 287.559063 226.193375 287.559063 228.193375 
L 287.559063 300.584 
Q 287.559063 302.584 289.559063 302.584 
z
" style="fill: #ffffff; opacity: 0.8; stroke: #cccccc; stroke-linejoin: miter"/>
    </g>
    <g id="line2d_21">
     <path d="M 291.559063 234.291812 
L 301.559063 234.291812 
L 311.559063 234.291812 
" style="fill: none; stroke: #1f77b4; stroke-width: 1.5; stroke-linecap: square"/>
    </g>
    <g id="text_19">
     <!-- LocalGNTS-14 -->
     <g transform="translate(319.559063 237.791812) scale(0.1 -0.1)">
      <defs>
       <path id="DejaVuSans-4c" d="M 628 4666 
L 1259 4666 
L 1259 531 
L 3531 531 
L 3531 0 
L 628 0 
L 628 4666 
z
" transform="scale(0.015625)"/>
       <path id="DejaVuSans-6c" d="M 603 4863 
L 1178 4863 
L 1178 0 
L 603 0 
L 603 4863 
z
" transform="scale(0.015625)"/>
       <path id="DejaVuSans-47" d="M 3809 666 
L 3809 1919 
L 2778 1919 
L 2778 2438 
L 4434 2438 
L 4434 434 
Q 4069 175 3628 42 
Q 3188 -91 2688 -91 
Q 1594 -91 976 548 
Q 359 1188 359 2328 
Q 359 3472 976 4111 
Q 1594 4750 2688 4750 
Q 3144 4750 3555 4637 
Q 3966 4525 4313 4306 
L 4313 3634 
Q 3963 3931 3569 4081 
Q 3175 4231 2741 4231 
Q 1884 4231 1454 3753 
Q 1025 3275 1025 2328 
Q 1025 1384 1454 906 
Q 1884 428 2741 428 
Q 3075 428 3337 486 
Q 3600 544 3809 666 
z
" transform="scale(0.015625)"/>
       <path id="DejaVuSans-4e" d="M 628 4666 
L 1478 4666 
L 3547 763 
L 3547 4666 
L 4159 4666 
L 4159 0 
L 3309 0 
L 1241 3903 
L 1241 0 
L 628 0 
L 628 4666 
z
" transform="scale(0.015625)"/>
       <path id="DejaVuSans-53" d="M 3425 4513 
L 3425 3897 
Q 3066 4069 2747 4153 
Q 2428 4238 2131 4238 
Q 1616 4238 1336 4038 
Q 1056 3838 1056 3469 
Q 1056 3159 1242 3001 
Q 1428 2844 1947 2747 
L 2328 2669 
Q 3034 2534 3370 2195 
Q 3706 1856 3706 1288 
Q 3706 609 3251 259 
Q 2797 -91 1919 -91 
Q 1588 -91 1214 -16 
Q 841 59 441 206 
L 441 856 
Q 825 641 1194 531 
Q 1563 422 1919 422 
Q 2459 422 2753 634 
Q 3047 847 3047 1241 
Q 3047 1584 2836 1778 
Q 2625 1972 2144 2069 
L 1759 2144 
Q 1053 2284 737 2584 
Q 422 2884 422 3419 
Q 422 4038 858 4394 
Q 1294 4750 2059 4750 
Q 2388 4750 2728 4690 
Q 3069 4631 3425 4513 
z
" transform="scale(0.015625)"/>
       <path id="DejaVuSans-2d" d="M 313 2009 
L 1997 2009 
L 1997 1497 
L 313 1497 
L 313 2009 
z
" transform="scale(0.015625)"/>
      </defs>
      <use xlink:href="#DejaVuSans-4c"/>
      <use xlink:href="#DejaVuSans-6f" transform="translate(53.962891 0)"/>
      <use xlink:href="#DejaVuSans-63" transform="translate(115.144531 0)"/>
      <use xlink:href="#DejaVuSans-61" transform="translate(170.125 0)"/>
      <use xlink:href="#DejaVuSans-6c" transform="translate(231.404297 0)"/>
      <use xlink:href="#DejaVuSans-47" transform="translate(259.1875 0)"/>
      <use xlink:href="#DejaVuSans-4e" transform="translate(336.677734 0)"/>
      <use xlink:href="#DejaVuSans-54" transform="translate(411.482422 0)"/>
      <use xlink:href="#DejaVuSans-53" transform="translate(472.566406 0)"/>
      <use xlink:href="#DejaVuSans-2d" transform="translate(536.042969 0)"/>
      <use xlink:href="#DejaVuSans-31" transform="translate(572.126953 0)"/>
      <use xlink:href="#DejaVuSans-34" transform="translate(635.75 0)"/>
     </g>
    </g>
    <g id="line2d_22">
     <path d="M 291.559063 248.969937 
L 301.559063 248.969937 
L 311.559063 248.969937 
" style="fill: none; stroke: #ff7f0e; stroke-width: 1.5; stroke-linecap: square"/>
    </g>
    <g id="text_20">
     <!-- Beta-Binomial-14 -->
     <g transform="translate(319.559063 252.469937) scale(0.1 -0.1)">
      <defs>
       <path id="DejaVuSans-42" d="M 1259 2228 
L 1259 519 
L 2272 519 
Q 2781 519 3026 730 
Q 3272 941 3272 1375 
Q 3272 1813 3026 2020 
Q 2781 2228 2272 2228 
L 1259 2228 
z
M 1259 4147 
L 1259 2741 
L 2194 2741 
Q 2656 2741 2882 2914 
Q 3109 3088 3109 3444 
Q 3109 3797 2882 3972 
Q 2656 4147 2194 4147 
L 1259 4147 
z
M 628 4666 
L 2241 4666 
Q 2963 4666 3353 4366 
Q 3744 4066 3744 3513 
Q 3744 3084 3544 2831 
Q 3344 2578 2956 2516 
Q 3422 2416 3680 2098 
Q 3938 1781 3938 1306 
Q 3938 681 3513 340 
Q 3088 0 2303 0 
L 628 0 
L 628 4666 
z
" transform="scale(0.015625)"/>
      </defs>
      <use xlink:href="#DejaVuSans-42"/>
      <use xlink:href="#DejaVuSans-65" transform="translate(68.603516 0)"/>
      <use xlink:href="#DejaVuSans-74" transform="translate(130.126953 0)"/>
      <use xlink:href="#DejaVuSans-61" transform="translate(169.335938 0)"/>
      <use xlink:href="#DejaVuSans-2d" transform="translate(230.615234 0)"/>
      <use xlink:href="#DejaVuSans-42" transform="translate(263.074219 0)"/>
      <use xlink:href="#DejaVuSans-69" transform="translate(331.677734 0)"/>
      <use xlink:href="#DejaVuSans-6e" transform="translate(359.460938 0)"/>
      <use xlink:href="#DejaVuSans-6f" transform="translate(422.839844 0)"/>
      <use xlink:href="#DejaVuSans-6d" transform="translate(484.021484 0)"/>
      <use xlink:href="#DejaVuSans-69" transform="translate(581.433594 0)"/>
      <use xlink:href="#DejaVuSans-61" transform="translate(609.216797 0)"/>
      <use xlink:href="#DejaVuSans-6c" transform="translate(670.496094 0)"/>
      <use xlink:href="#DejaVuSans-2d" transform="translate(698.279297 0)"/>
      <use xlink:href="#DejaVuSans-31" transform="translate(734.363281 0)"/>
      <use xlink:href="#DejaVuSans-34" transform="translate(797.986328 0)"/>
     </g>
    </g>
    <g id="line2d_23">
     <path d="M 291.559063 263.648062 
L 301.559063 263.648062 
L 311.559063 263.648062 
" style="fill: none; stroke: #2ca02c; stroke-width: 1.5; stroke-linecap: square"/>
    </g>
    <g id="text_21">
     <!-- Proportional -->
     <g transform="translate(319.559063 267.148062) scale(0.1 -0.1)">
      <defs>
       <path id="DejaVuSans-50" d="M 1259 4147 
L 1259 2394 
L 2053 2394 
Q 2494 2394 2734 2622 
Q 2975 2850 2975 3272 
Q 2975 3691 2734 3919 
Q 2494 4147 2053 4147 
L 1259 4147 
z
M 628 4666 
L 2053 4666 
Q 2838 4666 3239 4311 
Q 3641 3956 3641 3272 
Q 3641 2581 3239 2228 
Q 2838 1875 2053 1875 
L 1259 1875 
L 1259 0 
L 628 0 
L 628 4666 
z
" transform="scale(0.015625)"/>
       <path id="DejaVuSans-70" d="M 1159 525 
L 1159 -1331 
L 581 -1331 
L 581 3500 
L 1159 3500 
L 1159 2969 
Q 1341 3281 1617 3432 
Q 1894 3584 2278 3584 
Q 2916 3584 3314 3078 
Q 3713 2572 3713 1747 
Q 3713 922 3314 415 
Q 2916 -91 2278 -91 
Q 1894 -91 1617 61 
Q 1341 213 1159 525 
z
M 3116 1747 
Q 3116 2381 2855 2742 
Q 2594 3103 2138 3103 
Q 1681 3103 1420 2742 
Q 1159 2381 1159 1747 
Q 1159 1113 1420 752 
Q 1681 391 2138 391 
Q 2594 391 2855 752 
Q 3116 1113 3116 1747 
z
" transform="scale(0.015625)"/>
      </defs>
      <use xlink:href="#DejaVuSans-50"/>
      <use xlink:href="#DejaVuSans-72" transform="translate(58.552734 0)"/>
      <use xlink:href="#DejaVuSans-6f" transform="translate(97.416016 0)"/>
      <use xlink:href="#DejaVuSans-70" transform="translate(158.597656 0)"/>
      <use xlink:href="#DejaVuSans-6f" transform="translate(222.074219 0)"/>
      <use xlink:href="#DejaVuSans-72" transform="translate(283.255859 0)"/>
      <use xlink:href="#DejaVuSans-74" transform="translate(324.369141 0)"/>
      <use xlink:href="#DejaVuSans-69" transform="translate(363.578125 0)"/>
      <use xlink:href="#DejaVuSans-6f" transform="translate(391.361328 0)"/>
      <use xlink:href="#DejaVuSans-6e" transform="translate(452.542969 0)"/>
      <use xlink:href="#DejaVuSans-61" transform="translate(515.921875 0)"/>
      <use xlink:href="#DejaVuSans-6c" transform="translate(577.201172 0)"/>
     </g>
    </g>
    <g id="line2d_24">
     <path d="M 291.559063 278.326188 
L 301.559063 278.326188 
L 311.559063 278.326188 
" style="fill: none; stroke: #d62728; stroke-width: 1.5; stroke-linecap: square"/>
    </g>
    <g id="text_22">
     <!-- Uniform -->
     <g transform="translate(319.559063 281.826188) scale(0.1 -0.1)">
      <defs>
       <path id="DejaVuSans-55" d="M 556 4666 
L 1191 4666 
L 1191 1831 
Q 1191 1081 1462 751 
Q 1734 422 2344 422 
Q 2950 422 3222 751 
Q 3494 1081 3494 1831 
L 3494 4666 
L 4128 4666 
L 4128 1753 
Q 4128 841 3676 375 
Q 3225 -91 2344 -91 
Q 1459 -91 1007 375 
Q 556 841 556 1753 
L 556 4666 
z
" transform="scale(0.015625)"/>
      </defs>
      <use xlink:href="#DejaVuSans-55"/>
      <use xlink:href="#DejaVuSans-6e" transform="translate(73.193359 0)"/>
      <use xlink:href="#DejaVuSans-69" transform="translate(136.572266 0)"/>
      <use xlink:href="#DejaVuSans-66" transform="translate(164.355469 0)"/>
      <use xlink:href="#DejaVuSans-6f" transform="translate(199.560547 0)"/>
      <use xlink:href="#DejaVuSans-72" transform="translate(260.742188 0)"/>
      <use xlink:href="#DejaVuSans-6d" transform="translate(300.105469 0)"/>
     </g>
    </g>
    <g id="line2d_25">
     <path d="M 291.559063 293.004312 
L 301.559063 293.004312 
L 311.559063 293.004312 
" style="fill: none; stroke: #9467bd; stroke-width: 1.5; stroke-linecap: square"/>
    </g>
    <g id="text_23">
     <!-- Random -->
     <g transform="translate(319.559063 296.504312) scale(0.1 -0.1)">
      <defs>
       <path id="DejaVuSans-52" d="M 2841 2188 
Q 3044 2119 3236 1894 
Q 3428 1669 3622 1275 
L 4263 0 
L 3584 0 
L 2988 1197 
Q 2756 1666 2539 1819 
Q 2322 1972 1947 1972 
L 1259 1972 
L 1259 0 
L 628 0 
L 628 4666 
L 2053 4666 
Q 2853 4666 3247 4331 
Q 3641 3997 3641 3322 
Q 3641 2881 3436 2590 
Q 3231 2300 2841 2188 
z
M 1259 4147 
L 1259 2491 
L 2053 2491 
Q 2509 2491 2742 2702 
Q 2975 2913 2975 3322 
Q 2975 3731 2742 3939 
Q 2509 4147 2053 4147 
L 1259 4147 
z
" transform="scale(0.015625)"/>
       <path id="DejaVuSans-64" d="M 2906 2969 
L 2906 4863 
L 3481 4863 
L 3481 0 
L 2906 0 
L 2906 525 
Q 2725 213 2448 61 
Q 2172 -91 1784 -91 
Q 1150 -91 751 415 
Q 353 922 353 1747 
Q 353 2572 751 3078 
Q 1150 3584 1784 3584 
Q 2172 3584 2448 3432 
Q 2725 3281 2906 2969 
z
M 947 1747 
Q 947 1113 1208 752 
Q 1469 391 1925 391 
Q 2381 391 2643 752 
Q 2906 1113 2906 1747 
Q 2906 2381 2643 2742 
Q 2381 3103 1925 3103 
Q 1469 3103 1208 2742 
Q 947 2381 947 1747 
z
" transform="scale(0.015625)"/>
      </defs>
      <use xlink:href="#DejaVuSans-52"/>
      <use xlink:href="#DejaVuSans-61" transform="translate(67.232422 0)"/>
      <use xlink:href="#DejaVuSans-6e" transform="translate(128.511719 0)"/>
      <use xlink:href="#DejaVuSans-64" transform="translate(191.890625 0)"/>
      <use xlink:href="#DejaVuSans-6f" transform="translate(255.367188 0)"/>
      <use xlink:href="#DejaVuSans-6d" transform="translate(316.548828 0)"/>
     </g>
    </g>
   </g>
  </g>
 </g>
 <defs>
  <clipPath id="p20dfc69278">
   <rect x="57.6" y="41.472" width="357.12" height="266.112"/>
  </clipPath>
 </defs>
</svg>
