<?xml version="1.0" encoding="utf-8" standalone="no"?>
<!DOCTYPE svg PUBLIC "-//W3C//DTD SVG 1.1//EN"
  "http://www.w3.org/Graphics/SVG/1.1/DTD/svg11.dtd">
<svg xmlns:xlink="http://www.w3.org/1999/xlink" width="460.8pt" height="345.6pt" viewBox="0 0 460.8 345.6" xmlns="http://www.w3.org/2000/svg" version="1.1">
 <metadata>
  <rdf:RDF xmlns:dc="http://purl.org/dc/elements/1.1/" xmlns:cc="http://creativecommons.org/ns#" xmlns:rdf="http://www.w3.org/1999/02/22-rdf-syntax-ns#">
   <cc:Work>
    <dc:type rdf:resource="http://purl.org/dc/dcmitype/StillImage"/>
    <dc:date>2026-04-06T19:14:01.719137</dc:date>
    <dc:format>image/svg+xml</dc:format>
    <dc:creator>
     <cc:Agent>
      <dc:title>Matplotlib v3.10.8, https://matplotlib.org/</dc:title>
     </cc:Agent>
    </dc:creator>
   </cc:Work>
  </rdf:RDF>
 </metadata>
 <defs>
  <style type="text/css">*{stroke-linejoin: round; stroke-linecap: butt}</style>
 </defs>
 <g id="figure_1">
  <g id="patch_1">
   <path d="M 0 345.6 
L 460.8 345.6 
L 460.8 0 
L 0 0 
z
" style="fill: #ffffff"/>
  </g>
  <g id="axes_1">
   <g id="patch_2">
    <path d="M 57.6 307.584 
L 414.72 307.584 
L 414.72 41.472 
L 57.6 41.472 
z
" style="fill: #ffffff"/>
   </g>
   <g id="matplotlib.axis_1">
    <g id="xtick_1">
     <g id="line2d_1">
      <defs>
       <path id="m1c833b03a4" d="M 0 0 
L 0 3.5 
" style="stroke: #000000; stroke-width: 0.8"/>
      </defs>
      <g>
       <use xlink:href="#m1c833b03a4" x="73.832727" y="307.584" style="stroke: #000000; stroke-width: 0.8"/>
      </g>
     </g>
     <g id="text_1">
      <!-- 0 -->
      <g transform="translate(70.651477 322.182437) scale(0.1 -0.1)">
       <defs>
        <path id="DejaVuSans-30" d="M 2034 4250 
Q 1547 4250 1301 3770 
Q 1056 3291 1056 2328 
Q 1056 1369 1301 889 
Q 1547 409 2034 409 
Q 2525 409 2770 889 
Q 3016 1369 3016 2328 
Q 3016 3291 2770 3770 
Q 2525 4250 2034 4250 
z
M 2034 4750 
Q 2819 4750 3233 4129 
Q 3647 3509 3647 2328 
Q 3647 1150 3233 529 
Q 2819 -91 2034 -91 
Q 1250 -91 836 529 
Q 422 1150 422 2328 
Q 422 3509 836 4129 
Q 1250 4750 2034 4750 
z
" transform="scale(0.015625)"/>
       </defs>
       <use xlink:href="#DejaVuSans-30"/>
      </g>
     </g>
    </g>
    <g id="xtick_2">
     <g id="line2d_2">
      <g>
       <use xlink:href="#m1c833b03a4" x="117.410519" y="307.584" style="stroke: #000000; stroke-width: 0.8"/>
      </g>
     </g>
     <g id="text_2">
      <!-- 20 -->
      <g transform="translate(111.048019 322.182437) scale(0.1 -0.1)">
       <defs>
        <path id="DejaVuSans-32" d="M 1228 531 
L 3431 531 
L 3431 0 
L 469 0 
L 469 531 
Q 828 903 1448 1529 
Q 2069 2156 2228 2338 
Q 2531 2678 2651 2914 
Q 2772 3150 2772 3378 
Q 2772 3750 2511 3984 
Q 2250 4219 1831 4219 
Q 1534 4219 1204 4116 
Q 875 4013 500 3803 
L 500 4441 
Q 881 4594 1212 4672 
Q 1544 4750 1819 4750 
Q 2544 4750 2975 4387 
Q 3406 4025 3406 3419 
Q 3406 3131 3298 2873 
Q 3191 2616 2906 2266 
Q 2828 2175 2409 1742 
Q 1991 1309 1228 531 
z
" transform="scale(0.015625)"/>
       </defs>
       <use xlink:href="#DejaVuSans-32"/>
       <use xlink:href="#DejaVuSans-30" transform="translate(63.623047 0)"/>
      </g>
     </g>
    </g>
    <g id="xtick_3">
     <g id="line2d_3">
      <g>
       <use xlink:href="#m1c833b03a4" x="160.98831" y="307.584" style="stroke: #000000; stroke-width: 0.8"/>
      </g>
     </g>
     <g id="text_3">
      <!-- 40 -->
      <g transform="translate(154.62581 322.182437) scale(0.1 -0.1)">
       <defs>
        <path id="DejaVuSans-34" d="M 2419 4116 
L 825 1625 
L 2419 1625 
L 2419 4116 
z
M 2253 4666 
L 3047 4666 
L 3047 1625 
L 3713 1625 
L 3713 1100 
L 3047 1100 
L 3047 0 
L 2419 0 
L 2419 1100 
L 313 1100 
L 313 1709 
L 2253 4666 
z
" transform="scale(0.015625)"/>
       </defs>
       <use xlink:href="#DejaVuSans-34"/>
       <use xlink:href="#DejaVuSans-30" transform="translate(63.623047 0)"/>
      </g>
     </g>
    </g>
    <g id="xtick_4">
     <g id="line2d_4">
      <g>
       <use xlink:href="#m1c833b03a4" x="204.566101" y="307.584" style="stroke: #000000; stroke-width: 0.8"/>
      </g>
     </g>
     <g id="text_4">
      <!-- 60 -->
      <g transform="translate(198.203601 322.182437) scale(0.1 -0.1)">
       <defs>
        <path id="DejaVuSans-36" d="M 2113 2584 
Q 1688 2584 1439 2293 
Q 1191 2003 1191 1497 
Q 1191 994 1439 701 
Q 1688 409 2113 409 
Q 2538 409 2786 701 
Q 3034 994 3034 1497 
Q 3034 2003 2786 2293 
Q 2538 2584 2113 2584 
z
M 3366 4563 
L 3366 3988 
Q 3128 4100 2886 4159 
Q 2644 4219 2406 4219 
Q 1781 4219 1451 3797 
Q 1122 3375 1075 2522 
Q 1259 2794 1537 2939 
Q 1816 3084 2150 3084 
Q 2853 3084 3261 2657 
Q 3669 2231 3669 1497 
Q 3669 778 3244 343 
Q 2819 -91 2113 -91 
Q 1303 -91 875 529 
Q 447 1150 447 2328 
Q 447 3434 972 4092 
Q 1497 4750 2381 4750 
Q 2619 4750 2861 4703 
Q 3103 4656 3366 4563 
z
" transform="scale(0.015625)"/>
       </defs>
       <use xlink:href="#DejaVuSans-36"/>
       <use xlink:href="#DejaVuSans-30" transform="translate(63.623047 0)"/>
      </g>
     </g>
    </g>
    <g id="xtick_5">
     <g id="line2d_5">
      <g>
       <use xlink:href="#m1c833b03a4" x="248.143893" y="307.584" style="stroke: #000000; stroke-width: 0.8"/>
      </g>
     </g>
     <g id="text_5">
      <!-- 80 -->
      <g transform="translate(241.781393 322.182437) scale(0.1 -0.1)">
       <defs>
        <path id="DejaVuSans-38" d="M 2034 2216 
Q 1584 2216 1326 1975 
Q 1069 1734 1069 1313 
Q 1069 891 1326 650 
Q 1584 409 2034 409 
Q 2484 409 2743 651 
Q 3003 894 3003 1313 
Q 3003 1734 2745 1975 
Q 2488 2216 2034 2216 
z
M 1403 2484 
Q 997 2584 770 2862 
Q 544 3141 544 3541 
Q 544 4100 942 4425 
Q 1341 4750 2034 4750 
Q 2731 4750 3128 4425 
Q 3525 4100 3525 3541 
Q 3525 3141 3298 2862 
Q 3072 2584 2669 2484 
Q 3125 2378 3379 2068 
Q 3634 1759 3634 1313 
Q 3634 634 3220 271 
Q 2806 -91 2034 -91 
Q 1263 -91 848 271 
Q 434 634 434 1313 
Q 434 1759 690 2068 
Q 947 2378 1403 2484 
z
M 1172 3481 
Q 1172 3119 1398 2916 
Q 1625 2713 2034 2713 
Q 2441 2713 2670 2916 
Q 2900 3119 2900 3481 
Q 2900 3844 2670 4047 
Q 2441 4250 2034 4250 
Q 1625 4250 1398 4047 
Q 1172 3844 1172 3481 
z
" transform="scale(0.015625)"/>
       </defs>
       <use xlink:href="#DejaVuSans-38"/>
       <use xlink:href="#DejaVuSans-30" transform="translate(63.623047 0)"/>
      </g>
     </g>
    </g>
    <g id="xtick_6">
     <g id="line2d_6">
      <g>
       <use xlink:href="#m1c833b03a4" x="291.721684" y="307.584" style="stroke: #000000; stroke-width: 0.8"/>
      </g>
     </g>
     <g id="text_6">
      <!-- 100 -->
      <g transform="translate(282.177934 322.182437) scale(0.1 -0.1)">
       <defs>
        <path id="DejaVuSans-31" d="M 794 531 
L 1825 531 
L 1825 4091 
L 703 3866 
L 703 4441 
L 1819 4666 
L 2450 4666 
L 2450 531 
L 3481 531 
L 3481 0 
L 794 0 
L 794 531 
z
" transform="scale(0.015625)"/>
       </defs>
       <use xlink:href="#DejaVuSans-31"/>
       <use xlink:href="#DejaVuSans-30" transform="translate(63.623047 0)"/>
       <use xlink:href="#DejaVuSans-30" transform="translate(127.246094 0)"/>
      </g>
     </g>
    </g>
    <g id="xtick_7">
     <g id="line2d_7">
      <g>
       <use xlink:href="#m1c833b03a4" x="335.299475" y="307.584" style="stroke: #000000; stroke-width: 0.8"/>
      </g>
     </g>
     <g id="text_7">
      <!-- 120 -->
      <g transform="translate(325.755725 322.182437) scale(0.1 -0.1)">
       <use xlink:href="#DejaVuSans-31"/>
       <use xlink:href="#DejaVuSans-32" transform="translate(63.623047 0)"/>
       <use xlink:href="#DejaVuSans-30" transform="translate(127.246094 0)"/>
      </g>
     </g>
    </g>
    <g id="xtick_8">
     <g id="line2d_8">
      <g>
       <use xlink:href="#m1c833b03a4" x="378.877267" y="307.584" style="stroke: #000000; stroke-width: 0.8"/>
      </g>
     </g>
     <g id="text_8">
      <!-- 140 -->
      <g transform="translate(369.333517 322.182437) scale(0.1 -0.1)">
       <use xlink:href="#DejaVuSans-31"/>
       <use xlink:href="#DejaVuSans-34" transform="translate(63.623047 0)"/>
       <use xlink:href="#DejaVuSans-30" transform="translate(127.246094 0)"/>
      </g>
     </g>
    </g>
    <g id="text_9">
     <!-- Day -->
     <g transform="translate(226.286563 335.860562) scale(0.1 -0.1)">
      <defs>
       <path id="DejaVuSans-44" d="M 1259 4147 
L 1259 519 
L 2022 519 
Q 2988 519 3436 956 
Q 3884 1394 3884 2338 
Q 3884 3275 3436 3711 
Q 2988 4147 2022 4147 
L 1259 4147 
z
M 628 4666 
L 1925 4666 
Q 3281 4666 3915 4102 
Q 4550 3538 4550 2338 
Q 4550 1131 3912 565 
Q 3275 0 1925 0 
L 628 0 
L 628 4666 
z
" transform="scale(0.015625)"/>
       <path id="DejaVuSans-61" d="M 2194 1759 
Q 1497 1759 1228 1600 
Q 959 1441 959 1056 
Q 959 750 1161 570 
Q 1363 391 1709 391 
Q 2188 391 2477 730 
Q 2766 1069 2766 1631 
L 2766 1759 
L 2194 1759 
z
M 3341 1997 
L 3341 0 
L 2766 0 
L 2766 531 
Q 2569 213 2275 61 
Q 1981 -91 1556 -91 
Q 1019 -91 701 211 
Q 384 513 384 1019 
Q 384 1609 779 1909 
Q 1175 2209 1959 2209 
L 2766 2209 
L 2766 2266 
Q 2766 2663 2505 2880 
Q 2244 3097 1772 3097 
Q 1472 3097 1187 3025 
Q 903 2953 641 2809 
L 641 3341 
Q 956 3463 1253 3523 
Q 1550 3584 1831 3584 
Q 2591 3584 2966 3190 
Q 3341 2797 3341 1997 
z
" transform="scale(0.015625)"/>
       <path id="DejaVuSans-79" d="M 2059 -325 
Q 1816 -950 1584 -1140 
Q 1353 -1331 966 -1331 
L 506 -1331 
L 506 -850 
L 844 -850 
Q 1081 -850 1212 -737 
Q 1344 -625 1503 -206 
L 1606 56 
L 191 3500 
L 800 3500 
L 1894 763 
L 2988 3500 
L 3597 3500 
L 2059 -325 
z
" transform="scale(0.015625)"/>
      </defs>
      <use xlink:href="#DejaVuSans-44"/>
      <use xlink:href="#DejaVuSans-61" transform="translate(77.001953 0)"/>
      <use xlink:href="#DejaVuSans-79" transform="translate(138.28125 0)"/>
     </g>
    </g>
   </g>
   <g id="matplotlib.axis_2">
    <g id="ytick_1">
     <g id="line2d_9">
      <defs>
       <path id="mf59d3b73aa" d="M 0 0 
L -3.5 0 
" style="stroke: #000000; stroke-width: 0.8"/>
      </defs>
      <g>
       <use xlink:href="#mf59d3b73aa" x="57.6" y="295.488" style="stroke: #000000; stroke-width: 0.8"/>
      </g>
     </g>
     <g id="text_10">
      <!-- 0.0 -->
      <g transform="translate(34.696875 299.287219) scale(0.1 -0.1)">
       <defs>
        <path id="DejaVuSans-2e" d="M 684 794 
L 1344 794 
L 1344 0 
L 684 0 
L 684 794 
z
" transform="scale(0.015625)"/>
       </defs>
       <use xlink:href="#DejaVuSans-30"/>
       <use xlink:href="#DejaVuSans-2e" transform="translate(63.623047 0)"/>
       <use xlink:href="#DejaVuSans-30" transform="translate(95.410156 0)"/>
      </g>
     </g>
    </g>
    <g id="ytick_2">
     <g id="line2d_10">
      <g>
       <use xlink:href="#mf59d3b73aa" x="57.6" y="243.032854" style="stroke: #000000; stroke-width: 0.8"/>
      </g>
     </g>
     <g id="text_11">
      <!-- 0.2 -->
      <g transform="translate(34.696875 246.832073) scale(0.1 -0.1)">
       <use xlink:href="#DejaVuSans-30"/>
       <use xlink:href="#DejaVuSans-2e" transform="translate(63.623047 0)"/>
       <use xlink:href="#DejaVuSans-32" transform="translate(95.410156 0)"/>
      </g>
     </g>
    </g>
    <g id="ytick_3">
     <g id="line2d_11">
      <g>
       <use xlink:href="#mf59d3b73aa" x="57.6" y="190.577709" style="stroke: #000000; stroke-width: 0.8"/>
      </g>
     </g>
     <g id="text_12">
      <!-- 0.4 -->
      <g transform="translate(34.696875 194.376927) scale(0.1 -0.1)">
       <use xlink:href="#DejaVuSans-30"/>
       <use xlink:href="#DejaVuSans-2e" transform="translate(63.623047 0)"/>
       <use xlink:href="#DejaVuSans-34" transform="translate(95.410156 0)"/>
      </g>
     </g>
    </g>
    <g id="ytick_4">
     <g id="line2d_12">
      <g>
       <use xlink:href="#mf59d3b73aa" x="57.6" y="138.122563" style="stroke: #000000; stroke-width: 0.8"/>
      </g>
     </g>
     <g id="text_13">
      <!-- 0.6 -->
      <g transform="translate(34.696875 141.921782) scale(0.1 -0.1)">
       <use xlink:href="#DejaVuSans-30"/>
       <use xlink:href="#DejaVuSans-2e" transform="translate(63.623047 0)"/>
       <use xlink:href="#DejaVuSans-36" transform="translate(95.410156 0)"/>
      </g>
     </g>
    </g>
    <g id="ytick_5">
     <g id="line2d_13">
      <g>
       <use xlink:href="#mf59d3b73aa" x="57.6" y="85.667417" style="stroke: #000000; stroke-width: 0.8"/>
      </g>
     </g>
     <g id="text_14">
      <!-- 0.8 -->
      <g transform="translate(34.696875 89.466636) scale(0.1 -0.1)">
       <use xlink:href="#DejaVuSans-30"/>
       <use xlink:href="#DejaVuSans-2e" transform="translate(63.623047 0)"/>
       <use xlink:href="#DejaVuSans-38" transform="translate(95.410156 0)"/>
      </g>
     </g>
    </g>
    <g id="text_15">
     <!-- Q / (E+I+A+Q) -->
     <g transform="translate(28.617187 211.788156) rotate(-90) scale(0.1 -0.1)">
      <defs>
       <path id="DejaVuSans-51" d="M 2522 4238 
Q 1834 4238 1429 3725 
Q 1025 3213 1025 2328 
Q 1025 1447 1429 934 
Q 1834 422 2522 422 
Q 3209 422 3611 934 
Q 4013 1447 4013 2328 
Q 4013 3213 3611 3725 
Q 3209 4238 2522 4238 
z
M 3406 84 
L 4238 -825 
L 3475 -825 
L 2784 -78 
Q 2681 -84 2626 -87 
Q 2572 -91 2522 -91 
Q 1538 -91 948 567 
Q 359 1225 359 2328 
Q 359 3434 948 4092 
Q 1538 4750 2522 4750 
Q 3503 4750 4090 4092 
Q 4678 3434 4678 2328 
Q 4678 1516 4351 937 
Q 4025 359 3406 84 
z
" transform="scale(0.015625)"/>
       <path id="DejaVuSans-20" transform="scale(0.015625)"/>
       <path id="DejaVuSans-2f" d="M 1625 4666 
L 2156 4666 
L 531 -594 
L 0 -594 
L 1625 4666 
z
" transform="scale(0.015625)"/>
       <path id="DejaVuSans-28" d="M 1984 4856 
Q 1566 4138 1362 3434 
Q 1159 2731 1159 2009 
Q 1159 1288 1364 580 
Q 1569 -128 1984 -844 
L 1484 -844 
Q 1016 -109 783 600 
Q 550 1309 550 2009 
Q 550 2706 781 3412 
Q 1013 4119 1484 4856 
L 1984 4856 
z
" transform="scale(0.015625)"/>
       <path id="DejaVuSans-45" d="M 628 4666 
L 3578 4666 
L 3578 4134 
L 1259 4134 
L 1259 2753 
L 3481 2753 
L 3481 2222 
L 1259 2222 
L 1259 531 
L 3634 531 
L 3634 0 
L 628 0 
L 628 4666 
z
" transform="scale(0.015625)"/>
       <path id="DejaVuSans-2b" d="M 2944 4013 
L 2944 2272 
L 4684 2272 
L 4684 1741 
L 2944 1741 
L 2944 0 
L 2419 0 
L 2419 1741 
L 678 1741 
L 678 2272 
L 2419 2272 
L 2419 4013 
L 2944 4013 
z
" transform="scale(0.015625)"/>
       <path id="DejaVuSans-49" d="M 628 4666 
L 1259 4666 
L 1259 0 
L 628 0 
L 628 4666 
z
" transform="scale(0.015625)"/>
       <path id="DejaVuSans-41" d="M 2188 4044 
L 1331 1722 
L 3047 1722 
L 2188 4044 
z
M 1831 4666 
L 2547 4666 
L 4325 0 
L 3669 0 
L 3244 1197 
L 1141 1197 
L 716 0 
L 50 0 
L 1831 4666 
z
" transform="scale(0.015625)"/>
       <path id="DejaVuSans-29" d="M 513 4856 
L 1013 4856 
Q 1481 4119 1714 3412 
Q 1947 2706 1947 2009 
Q 1947 1309 1714 600 
Q 1481 -109 1013 -844 
L 513 -844 
Q 928 -128 1133 580 
Q 1338 1288 1338 2009 
Q 1338 2731 1133 3434 
Q 928 4138 513 4856 
z
" transform="scale(0.015625)"/>
      </defs>
      <use xlink:href="#DejaVuSans-51"/>
      <use xlink:href="#DejaVuSans-20" transform="translate(78.710938 0)"/>
      <use xlink:href="#DejaVuSans-2f" transform="translate(110.498047 0)"/>
      <use xlink:href="#DejaVuSans-20" transform="translate(144.189453 0)"/>
      <use xlink:href="#DejaVuSans-28" transform="translate(175.976562 0)"/>
      <use xlink:href="#DejaVuSans-45" transform="translate(214.990234 0)"/>
      <use xlink:href="#DejaVuSans-2b" transform="translate(278.173828 0)"/>
      <use xlink:href="#DejaVuSans-49" transform="translate(361.962891 0)"/>
      <use xlink:href="#DejaVuSans-2b" transform="translate(391.455078 0)"/>
      <use xlink:href="#DejaVuSans-41" transform="translate(475.244141 0)"/>
      <use xlink:href="#DejaVuSans-2b" transform="translate(543.652344 0)"/>
      <use xlink:href="#DejaVuSans-51" transform="translate(627.441406 0)"/>
      <use xlink:href="#DejaVuSans-29" transform="translate(706.152344 0)"/>
     </g>
    </g>
   </g>
   <g id="line2d_14">
    <path d="M 73.832727 295.488 
L 115.231629 295.488 
L 117.410519 293.016274 
L 119.589408 288.734408 
L 123.947187 278.869207 
L 126.126077 273.404114 
L 132.662746 255.62192 
L 137.020525 241.798783 
L 139.199414 234.132106 
L 145.736083 208.372209 
L 147.914973 199.150219 
L 150.093862 189.170969 
L 152.272752 180.01162 
L 154.451641 171.763685 
L 156.630531 165.020554 
L 158.80942 159.057771 
L 163.1672 130.047985 
L 169.703868 83.67545 
L 171.882758 71.4851 
L 174.061647 63.728849 
L 176.240537 58.584193 
L 178.419426 56.286149 
L 180.598316 55.615168 
L 182.777206 55.373838 
L 184.956095 56.63502 
L 187.134985 57.420713 
L 189.313874 58.73651 
L 191.492764 59.548573 
L 193.671653 61.056613 
L 198.029433 63.153738 
L 200.208322 63.677082 
L 202.387212 65.253513 
L 204.566101 64.884646 
L 206.744991 65.856032 
L 208.92388 66.196643 
L 211.10277 68.3801 
L 213.28166 67.882196 
L 215.460549 68.791381 
L 217.639439 68.523541 
L 219.818328 69.184583 
L 221.997218 68.911712 
L 224.176107 68.991286 
L 226.354997 69.910673 
L 228.533887 70.680233 
L 230.712776 73.591413 
L 232.891666 71.758856 
L 235.070555 72.744918 
L 237.249445 72.303628 
L 239.428334 70.125152 
L 241.607224 72.678524 
L 243.786113 77.53322 
L 245.965003 78.637346 
L 248.143893 80.688231 
L 250.322782 79.97951 
L 252.501672 80.000153 
L 254.680561 83.435284 
L 256.859451 83.649912 
L 259.03834 84.146978 
L 261.21723 85.351423 
L 263.39612 89.876781 
L 265.575009 93.73744 
L 267.753899 95.700784 
L 269.932788 101.276907 
L 272.111678 105.003073 
L 274.290567 108.430971 
L 276.469457 115.298568 
L 278.648347 112.813466 
L 283.006126 119.516678 
L 285.185015 121.772907 
L 287.363905 121.803184 
L 289.542794 129.840172 
L 291.721684 129.256905 
L 293.900574 131.725594 
L 296.079463 134.487058 
L 298.258353 138.388833 
L 300.437242 141.831513 
L 302.616132 140.263589 
L 304.795021 133.572882 
L 306.973911 125.864024 
L 309.1528 124.501614 
L 313.51058 130.460576 
L 315.689469 135.710832 
L 317.868359 133.852958 
L 320.047248 138.122563 
L 322.226138 144.480763 
L 324.405027 152.562463 
L 326.583917 153.918715 
L 328.762807 152.151265 
L 330.941696 158.2507 
L 333.120586 165.117024 
L 335.299475 160.423853 
L 337.478365 159.104621 
L 339.657254 155.200983 
L 341.836144 149.779262 
L 344.015034 147.859746 
L 346.193923 151.710342 
L 348.372813 149.956956 
L 350.551702 138.122563 
L 352.730592 128.114673 
L 354.909481 127.494396 
L 357.088371 131.56567 
L 359.267261 134.504967 
L 361.44615 139.931361 
L 363.62504 143.742757 
L 365.803929 145.065156 
L 367.982819 155.859195 
L 370.161708 164.350136 
L 372.340598 165.196187 
L 374.519487 165.218599 
L 376.698377 168.526501 
L 378.877267 178.196991 
L 381.056156 180.149879 
L 383.235046 181.123584 
L 385.413935 185.836001 
L 387.592825 188.380635 
L 389.771714 183.460679 
L 391.950604 190.063443 
L 394.129494 189.093129 
L 396.308383 192.704269 
L 398.487273 193.812828 
L 398.487273 193.812828 
" clip-path="url(#pd263230f89)" style="fill: none; stroke: #1f77b4; stroke-width: 1.5; stroke-linecap: square"/>
   </g>
   <g id="line2d_15">
    <path d="M 73.832727 295.488 
L 115.231629 295.488 
L 117.410519 292.831572 
L 119.589408 288.510161 
L 121.768298 283.871017 
L 123.947187 278.717953 
L 128.304966 267.474029 
L 130.483856 261.434951 
L 134.841635 248.171151 
L 137.020525 241.376021 
L 139.199414 233.718868 
L 145.736083 208.185459 
L 147.914973 198.766114 
L 152.272752 177.837764 
L 154.451641 168.79845 
L 156.630531 161.80638 
L 158.80942 156.995175 
L 160.98831 142.703758 
L 163.1672 126.725762 
L 165.346089 111.905639 
L 169.703868 81.049498 
L 171.882758 68.750633 
L 174.061647 60.256815 
L 176.240537 56.869406 
L 178.419426 53.943924 
L 180.598316 53.568 
L 182.777206 53.770264 
L 184.956095 54.797535 
L 187.134985 55.164866 
L 189.313874 55.979653 
L 191.492764 55.64776 
L 193.671653 56.805291 
L 195.850543 58.303132 
L 198.029433 59.141804 
L 200.208322 59.709578 
L 204.566101 61.133108 
L 206.744991 61.649494 
L 208.92388 61.918041 
L 211.10277 63.298764 
L 213.28166 61.553847 
L 215.460549 61.066743 
L 217.639439 60.125878 
L 219.818328 62.446828 
L 224.176107 65.106487 
L 226.354997 67.89609 
L 228.533887 69.447734 
L 230.712776 68.476235 
L 232.891666 70.00208 
L 235.070555 71.976295 
L 237.249445 73.294277 
L 239.428334 73.341891 
L 241.607224 75.27536 
L 243.786113 76.836227 
L 245.965003 79.529049 
L 248.143893 79.669183 
L 250.322782 85.299741 
L 252.501672 85.409653 
L 254.680561 88.249407 
L 256.859451 87.401472 
L 259.03834 88.664854 
L 261.21723 86.148657 
L 263.39612 86.840536 
L 265.575009 87.711124 
L 267.753899 94.016679 
L 269.932788 93.592296 
L 272.111678 99.745453 
L 274.290567 102.022254 
L 276.469457 107.266595 
L 278.648347 112.210985 
L 280.827236 113.321595 
L 283.006126 113.03532 
L 285.185015 112.477825 
L 287.363905 111.41375 
L 289.542794 107.793048 
L 291.721684 109.234222 
L 296.079463 122.834129 
L 298.258353 126.406693 
L 300.437242 122.440097 
L 302.616132 120.162377 
L 304.795021 122.094602 
L 306.973911 125.082866 
L 309.1528 134.546076 
L 311.33169 142.750958 
L 313.51058 151.611029 
L 315.689469 151.611029 
L 317.868359 147.309623 
L 320.047248 153.798814 
L 322.226138 157.756612 
L 324.405027 166.453952 
L 326.583917 171.400559 
L 328.762807 165.76022 
L 330.941696 158.828542 
L 333.120586 157.900733 
L 335.299475 152.16793 
L 337.478365 153.798814 
L 339.657254 148.738485 
L 341.836144 140.650522 
L 344.015034 130.954779 
L 346.193923 130.954779 
L 348.372813 128.287223 
L 350.551702 134.330625 
L 352.730592 135.910599 
L 354.909481 140.650522 
L 357.088371 148.679574 
L 359.267261 155.914367 
L 361.44615 153.550547 
L 363.62504 156.107184 
L 365.803929 165.08275 
L 367.982819 170.114438 
L 370.161708 169.366338 
L 372.340598 172.064128 
L 374.519487 171.040843 
L 376.698377 172.218408 
L 378.877267 179.77812 
L 381.056156 184.992207 
L 383.235046 183.247732 
L 385.413935 183.698345 
L 387.592825 180.606896 
L 389.771714 184.31763 
L 391.950604 179.381749 
L 394.129494 183.226041 
L 396.308383 181.412683 
L 398.487273 180.5048 
L 398.487273 180.5048 
" clip-path="url(#pd263230f89)" style="fill: none; stroke: #ff7f0e; stroke-width: 1.5; stroke-linecap: square"/>
   </g>
   <g id="line2d_16">
    <path d="M 73.832727 295.488 
L 115.231629 295.488 
L 119.589408 293.949577 
L 123.947187 292.493465 
L 126.126077 291.917033 
L 130.483856 290.278277 
L 132.662746 289.518111 
L 137.020525 287.573897 
L 139.199414 286.545074 
L 141.378304 285.332141 
L 147.914973 281.302337 
L 150.093862 280.273854 
L 156.630531 276.142727 
L 158.80942 274.408131 
L 160.98831 269.724001 
L 165.346089 259.566652 
L 169.703868 248.574202 
L 176.240537 232.720605 
L 178.419426 226.765896 
L 180.598316 219.197443 
L 184.956095 206.857976 
L 187.134985 199.823872 
L 189.313874 192.253647 
L 191.492764 186.772672 
L 195.850543 173.499289 
L 200.208322 160.176569 
L 202.387212 153.493782 
L 204.566101 140.127988 
L 206.744991 132.00956 
L 208.92388 124.76889 
L 211.10277 119.416754 
L 213.28166 115.369137 
L 215.460549 113.685003 
L 217.639439 113.581757 
L 219.818328 108.771414 
L 221.997218 106.314656 
L 224.176107 107.026399 
L 226.354997 105.008421 
L 228.533887 102.034835 
L 230.712776 104.02206 
L 232.891666 104.520012 
L 235.070555 107.450945 
L 237.249445 109.234222 
L 239.428334 110.619054 
L 241.607224 112.193031 
L 243.786113 114.222881 
L 245.965003 112.572455 
L 248.143893 112.868959 
L 250.322782 112.073409 
L 252.501672 115.406944 
L 254.680561 115.563728 
L 256.859451 112.304796 
L 259.03834 110.828829 
L 261.21723 110.692708 
L 263.39612 112.831689 
L 265.575009 111.599191 
L 267.753899 114.416872 
L 269.932788 119.626818 
L 272.111678 120.81342 
L 274.290567 121.358547 
L 276.469457 125.229176 
L 278.648347 123.53239 
L 280.827236 122.638092 
L 283.006126 127.782847 
L 285.185015 131.066414 
L 287.363905 137.989089 
L 289.542794 141.453049 
L 291.721684 139.673656 
L 293.900574 143.528804 
L 296.079463 142.864271 
L 298.258353 140.541244 
L 300.437242 144.504346 
L 302.616132 142.096438 
L 304.795021 137.48091 
L 306.973911 140.620427 
L 309.1528 140.315222 
L 311.33169 141.982139 
L 313.51058 148.122373 
L 315.689469 147.130012 
L 317.868359 151.190973 
L 320.047248 152.765519 
L 322.226138 153.585087 
L 324.405027 154.112607 
L 326.583917 150.679393 
L 328.762807 159.027197 
L 330.941696 163.364137 
L 333.120586 160.315125 
L 335.299475 161.798816 
L 337.478365 159.146252 
L 339.657254 157.33453 
L 341.836144 159.41189 
L 344.015034 156.905628 
L 346.193923 152.00083 
L 348.372813 161.409825 
L 350.551702 151.23635 
L 352.730592 152.00083 
L 354.909481 160.080531 
L 357.088371 163.728629 
L 359.267261 169.3939 
L 361.44615 164.983652 
L 363.62504 162.412138 
L 365.803929 170.16413 
L 367.982819 170.778463 
L 370.161708 173.262418 
L 372.340598 176.035688 
L 374.519487 180.742369 
L 376.698377 176.386945 
L 378.877267 172.353855 
L 383.235046 172.353855 
L 385.413935 167.399854 
L 387.592825 164.965807 
L 389.771714 166.778615 
L 391.950604 166.163102 
L 394.129494 167.371746 
L 396.308383 177.229748 
L 398.487273 183.931808 
L 398.487273 183.931808 
" clip-path="url(#pd263230f89)" style="fill: none; stroke: #2ca02c; stroke-width: 1.5; stroke-linecap: square"/>
   </g>
   <g id="line2d_17">
    <path d="M 73.832727 295.488 
L 115.231629 295.488 
L 119.589408 293.973997 
L 123.947187 292.619033 
L 126.126077 291.865907 
L 134.841635 288.274524 
L 137.020525 287.113483 
L 139.199414 286.120115 
L 143.557193 283.843206 
L 145.736083 282.794355 
L 147.914973 281.309223 
L 150.093862 279.630251 
L 152.272752 278.491642 
L 154.451641 277.054506 
L 158.80942 273.828658 
L 165.346089 259.042486 
L 167.524979 253.377035 
L 171.882758 240.458001 
L 176.240537 227.001947 
L 182.777206 206.821583 
L 184.956095 199.363864 
L 187.134985 191.387095 
L 191.492764 174.249112 
L 195.850543 158.115291 
L 198.029433 152.339985 
L 200.208322 147.57537 
L 202.387212 143.707507 
L 206.744991 137.087788 
L 208.92388 134.206739 
L 211.10277 130.841254 
L 213.28166 129.380039 
L 215.460549 129.719236 
L 217.639439 130.223109 
L 219.818328 130.951388 
L 221.997218 132.49827 
L 224.176107 132.737434 
L 228.533887 129.2415 
L 230.712776 131.021648 
L 232.891666 132.161751 
L 235.070555 132.901909 
L 237.249445 134.423474 
L 239.428334 133.191346 
L 241.607224 131.635573 
L 243.786113 132.475339 
L 245.965003 132.72824 
L 248.143893 132.594041 
L 250.322782 130.787147 
L 252.501672 131.833663 
L 254.680561 131.842722 
L 256.859451 132.379299 
L 259.03834 130.028123 
L 261.21723 128.734986 
L 263.39612 128.740342 
L 265.575009 132.059908 
L 267.753899 135.959464 
L 269.932788 130.160621 
L 272.111678 128.495963 
L 274.290567 133.701057 
L 276.469457 133.152015 
L 278.648347 139.409806 
L 280.827236 142.539839 
L 283.006126 136.065499 
L 285.185015 142.642508 
L 287.363905 143.417331 
L 289.542794 140.812571 
L 291.721684 144.874216 
L 293.900574 136.295767 
L 296.079463 135.354829 
L 298.258353 133.931559 
L 300.437242 124.972651 
L 302.616132 126.615309 
L 304.795021 133.674612 
L 306.973911 136.111009 
L 309.1528 140.506888 
L 311.33169 146.561719 
L 313.51058 142.832158 
L 315.689469 146.080155 
L 320.047248 135.15998 
L 322.226138 136.902676 
L 324.405027 136.374058 
L 326.583917 142.939872 
L 328.762807 145.481379 
L 330.941696 147.120344 
L 333.120586 152.07131 
L 335.299475 150.441575 
L 337.478365 156.755279 
L 339.657254 156.280114 
L 341.836144 157.916958 
L 344.015034 160.283846 
L 346.193923 165.880928 
L 348.372813 163.325621 
L 350.551702 168.385147 
L 352.730592 178.079371 
L 354.909481 176.185683 
L 357.088371 173.280671 
L 359.267261 174.859442 
L 361.44615 177.279221 
L 363.62504 174.298526 
L 365.803929 179.700722 
L 367.982819 174.437664 
L 370.161708 177.946369 
L 372.340598 172.271215 
L 374.519487 171.585328 
L 376.698377 183.084117 
L 378.877267 179.011512 
L 383.235046 167.54862 
L 385.413935 167.510084 
L 387.592825 171.572221 
L 389.771714 177.965543 
L 391.950604 174.982936 
L 394.129494 179.920595 
L 396.308383 177.869503 
L 398.487273 170.821875 
L 398.487273 170.821875 
" clip-path="url(#pd263230f89)" style="fill: none; stroke: #d62728; stroke-width: 1.5; stroke-linecap: square"/>
   </g>
   <g id="line2d_18">
    <path d="M 73.832727 295.488 
L 115.231629 295.488 
L 119.589408 293.977485 
L 123.947187 292.6423 
L 126.126077 292.01343 
L 130.483856 290.475857 
L 134.841635 288.447189 
L 137.020525 287.581365 
L 143.557193 284.216045 
L 145.736083 283.250257 
L 150.093862 280.487301 
L 154.451641 277.552019 
L 156.630531 275.592894 
L 158.80942 274.209672 
L 163.1672 263.644686 
L 165.346089 259.347044 
L 167.524979 253.714785 
L 171.882758 241.821803 
L 174.061647 235.908538 
L 178.419426 223.542385 
L 182.777206 209.879851 
L 187.134985 197.893057 
L 189.313874 193.785529 
L 191.492764 188.253988 
L 193.671653 184.552051 
L 195.850543 181.870155 
L 198.029433 176.381133 
L 200.208322 171.977078 
L 202.387212 169.277453 
L 204.566101 160.330585 
L 206.744991 153.32734 
L 208.92388 146.780754 
L 211.10277 140.714395 
L 213.28166 136.734045 
L 215.460549 133.265605 
L 217.639439 127.913403 
L 219.818328 125.304981 
L 221.997218 125.824287 
L 224.176107 125.50529 
L 226.354997 128.844229 
L 228.533887 126.48488 
L 230.712776 124.6148 
L 232.891666 124.118701 
L 235.070555 126.132816 
L 237.249445 123.270805 
L 239.428334 123.454752 
L 241.607224 125.409635 
L 243.786113 124.72467 
L 245.965003 125.998496 
L 248.143893 126.414993 
L 250.322782 125.898701 
L 252.501672 125.165515 
L 254.680561 126.243226 
L 256.859451 129.626307 
L 259.03834 126.449019 
L 261.21723 127.423949 
L 263.39612 128.773302 
L 265.575009 129.523359 
L 267.753899 131.06977 
L 269.932788 131.736719 
L 272.111678 131.857867 
L 274.290567 133.380308 
L 276.469457 135.236037 
L 278.648347 136.156788 
L 280.827236 138.54389 
L 283.006126 138.231391 
L 285.185015 139.436679 
L 287.363905 140.148728 
L 289.542794 139.153341 
L 291.721684 139.17635 
L 293.900574 136.678844 
L 296.079463 141.134342 
L 298.258353 144.422323 
L 300.437242 151.596079 
L 302.616132 160.416 
L 304.795021 167.278773 
L 306.973911 162.014347 
L 309.1528 166.409893 
L 311.33169 170.465373 
L 313.51058 169.406866 
L 315.689469 161.632253 
L 317.868359 165.382718 
L 320.047248 166.053225 
L 322.226138 167.801132 
L 324.405027 172.810643 
L 326.583917 172.350589 
L 328.762807 173.945589 
L 330.941696 170.561929 
L 333.120586 169.540289 
L 335.299475 167.155224 
L 337.478365 171.102492 
L 339.657254 175.549237 
L 341.836144 178.154122 
L 344.015034 179.069692 
L 346.193923 170.201432 
L 348.372813 167.783064 
L 350.551702 166.378041 
L 352.730592 170.081097 
L 354.909481 166.759493 
L 357.088371 165.033146 
L 359.267261 169.87173 
L 361.44615 172.393258 
L 363.62504 171.075155 
L 365.803929 173.137725 
L 367.982819 178.698554 
L 370.161708 178.031185 
L 372.340598 169.800854 
L 374.519487 165.635801 
L 376.698377 157.921809 
L 378.877267 153.368147 
L 381.056156 158.818266 
L 383.235046 158.478291 
L 385.413935 154.770796 
L 387.592825 156.050271 
L 389.771714 159.783146 
L 391.950604 159.936842 
L 396.308383 160.040441 
L 398.487273 159.655463 
L 398.487273 159.655463 
" clip-path="url(#pd263230f89)" style="fill: none; stroke: #9467bd; stroke-width: 1.5; stroke-linecap: square"/>
   </g>
   <g id="line2d_19">
    <path d="M 73.832727 295.488 
L 115.231629 295.488 
L 119.589408 293.931869 
L 126.126077 291.820692 
L 130.483856 290.209944 
L 137.020525 287.612418 
L 139.199414 286.747141 
L 141.378304 285.521097 
L 143.557193 284.532856 
L 150.093862 280.442462 
L 154.451641 277.146771 
L 158.80942 274.72613 
L 160.98831 269.768412 
L 165.346089 258.553521 
L 167.524979 253.632038 
L 171.882758 241.958688 
L 174.061647 235.908387 
L 176.240537 230.510964 
L 178.419426 225.838301 
L 180.598316 219.093496 
L 182.777206 212.921128 
L 184.956095 207.902638 
L 187.134985 203.653582 
L 189.313874 200.235835 
L 193.671653 192.465004 
L 198.029433 182.886276 
L 200.208322 179.598725 
L 202.387212 175.25853 
L 206.744991 160.805869 
L 211.10277 148.04651 
L 213.28166 140.554062 
L 215.460549 136.04421 
L 217.639439 133.537209 
L 219.818328 132.479301 
L 221.997218 129.68972 
L 224.176107 128.258879 
L 226.354997 124.644231 
L 228.533887 124.348964 
L 230.712776 124.738946 
L 232.891666 127.076982 
L 235.070555 127.745258 
L 237.249445 127.147028 
L 239.428334 129.894305 
L 241.607224 129.272106 
L 243.786113 129.276744 
L 245.965003 127.947317 
L 248.143893 128.279581 
L 250.322782 129.958588 
L 252.501672 130.609976 
L 254.680561 130.835217 
L 256.859451 132.051039 
L 259.03834 133.831451 
L 261.21723 132.815518 
L 263.39612 134.984909 
L 265.575009 135.300609 
L 267.753899 134.555961 
L 269.932788 134.938102 
L 272.111678 138.939339 
L 274.290567 141.046892 
L 276.469457 138.498586 
L 278.648347 137.532074 
L 280.827236 133.007434 
L 283.006126 136.997794 
L 285.185015 140.026177 
L 287.363905 148.953383 
L 289.542794 152.716938 
L 291.721684 148.725199 
L 293.900574 156.100682 
L 296.079463 154.625306 
L 298.258353 160.883937 
L 300.437242 158.443025 
L 304.795021 159.581486 
L 306.973911 155.449376 
L 309.1528 154.309418 
L 311.33169 153.447938 
L 313.51058 148.866388 
L 315.689469 145.523413 
L 317.868359 147.216546 
L 320.047248 142.891213 
L 322.226138 144.731085 
L 324.405027 150.54615 
L 326.583917 149.232366 
L 328.762807 147.593631 
L 330.941696 144.771807 
L 333.120586 150.103961 
L 335.299475 154.931394 
L 337.478365 155.084961 
L 339.657254 156.467532 
L 341.836144 155.084961 
L 344.015034 152.757839 
L 346.193923 155.217973 
L 348.372813 157.925514 
L 350.551702 157.128051 
L 352.730592 157.812471 
L 354.909481 156.956606 
L 357.088371 154.262608 
L 359.267261 153.131853 
L 361.44615 152.860716 
L 363.62504 155.979634 
L 365.803929 157.874192 
L 367.982819 154.63622 
L 370.161708 150.985768 
L 372.340598 147.73934 
L 374.519487 143.597679 
L 376.698377 142.638569 
L 378.877267 144.764611 
L 381.056156 147.798755 
L 383.235046 147.690928 
L 385.413935 149.487845 
L 387.592825 152.042699 
L 389.771714 151.19391 
L 391.950604 151.821041 
L 394.129494 152.656314 
L 396.308383 148.748525 
L 398.487273 160.173771 
L 398.487273 160.173771 
" clip-path="url(#pd263230f89)" style="fill: none; stroke: #8c564b; stroke-width: 1.5; stroke-linecap: square"/>
   </g>
   <g id="patch_3">
    <path d="M 57.6 307.584 
L 57.6 41.472 
" style="fill: none; stroke: #000000; stroke-width: 0.8; stroke-linejoin: miter; stroke-linecap: square"/>
   </g>
   <g id="patch_4">
    <path d="M 414.72 307.584 
L 414.72 41.472 
" style="fill: none; stroke: #000000; stroke-width: 0.8; stroke-linejoin: miter; stroke-linecap: square"/>
   </g>
   <g id="patch_5">
    <path d="M 57.6 307.584 
L 414.72 307.584 
" style="fill: none; stroke: #000000; stroke-width: 0.8; stroke-linejoin: miter; stroke-linecap: square"/>
   </g>
   <g id="patch_6">
    <path d="M 57.6 41.472 
L 414.72 41.472 
" style="fill: none; stroke: #000000; stroke-width: 0.8; stroke-linejoin: miter; stroke-linecap: square"/>
   </g>
   <g id="text_16">
    <!-- Quarantine Efficiency vs Time (SBM-4k) -->
    <g transform="translate(117.279375 35.472) scale(0.12 -0.12)">
     <defs>
      <path id="DejaVuSans-75" d="M 544 1381 
L 544 3500 
L 1119 3500 
L 1119 1403 
Q 1119 906 1312 657 
Q 1506 409 1894 409 
Q 2359 409 2629 706 
Q 2900 1003 2900 1516 
L 2900 3500 
L 3475 3500 
L 3475 0 
L 2900 0 
L 2900 538 
Q 2691 219 2414 64 
Q 2138 -91 1772 -91 
Q 1169 -91 856 284 
Q 544 659 544 1381 
z
M 1991 3584 
L 1991 3584 
z
" transform="scale(0.015625)"/>
      <path id="DejaVuSans-72" d="M 2631 2963 
Q 2534 3019 2420 3045 
Q 2306 3072 2169 3072 
Q 1681 3072 1420 2755 
Q 1159 2438 1159 1844 
L 1159 0 
L 581 0 
L 581 3500 
L 1159 3500 
L 1159 2956 
Q 1341 3275 1631 3429 
Q 1922 3584 2338 3584 
Q 2397 3584 2469 3576 
Q 2541 3569 2628 3553 
L 2631 2963 
z
" transform="scale(0.015625)"/>
      <path id="DejaVuSans-6e" d="M 3513 2113 
L 3513 0 
L 2938 0 
L 2938 2094 
Q 2938 2591 2744 2837 
Q 2550 3084 2163 3084 
Q 1697 3084 1428 2787 
Q 1159 2491 1159 1978 
L 1159 0 
L 581 0 
L 581 3500 
L 1159 3500 
L 1159 2956 
Q 1366 3272 1645 3428 
Q 1925 3584 2291 3584 
Q 2894 3584 3203 3211 
Q 3513 2838 3513 2113 
z
" transform="scale(0.015625)"/>
      <path id="DejaVuSans-74" d="M 1172 4494 
L 1172 3500 
L 2356 3500 
L 2356 3053 
L 1172 3053 
L 1172 1153 
Q 1172 725 1289 603 
Q 1406 481 1766 481 
L 2356 481 
L 2356 0 
L 1766 0 
Q 1100 0 847 248 
Q 594 497 594 1153 
L 594 3053 
L 172 3053 
L 172 3500 
L 594 3500 
L 594 4494 
L 1172 4494 
z
" transform="scale(0.015625)"/>
      <path id="DejaVuSans-69" d="M 603 3500 
L 1178 3500 
L 1178 0 
L 603 0 
L 603 3500 
z
M 603 4863 
L 1178 4863 
L 1178 4134 
L 603 4134 
L 603 4863 
z
" transform="scale(0.015625)"/>
      <path id="DejaVuSans-65" d="M 3597 1894 
L 3597 1613 
L 953 1613 
Q 991 1019 1311 708 
Q 1631 397 2203 397 
Q 2534 397 2845 478 
Q 3156 559 3463 722 
L 3463 178 
Q 3153 47 2828 -22 
Q 2503 -91 2169 -91 
Q 1331 -91 842 396 
Q 353 884 353 1716 
Q 353 2575 817 3079 
Q 1281 3584 2069 3584 
Q 2775 3584 3186 3129 
Q 3597 2675 3597 1894 
z
M 3022 2063 
Q 3016 2534 2758 2815 
Q 2500 3097 2075 3097 
Q 1594 3097 1305 2825 
Q 1016 2553 972 2059 
L 3022 2063 
z
" transform="scale(0.015625)"/>
      <path id="DejaVuSans-66" d="M 2375 4863 
L 2375 4384 
L 1825 4384 
Q 1516 4384 1395 4259 
Q 1275 4134 1275 3809 
L 1275 3500 
L 2222 3500 
L 2222 3053 
L 1275 3053 
L 1275 0 
L 697 0 
L 697 3053 
L 147 3053 
L 147 3500 
L 697 3500 
L 697 3744 
Q 697 4328 969 4595 
Q 1241 4863 1831 4863 
L 2375 4863 
z
" transform="scale(0.015625)"/>
      <path id="DejaVuSans-63" d="M 3122 3366 
L 3122 2828 
Q 2878 2963 2633 3030 
Q 2388 3097 2138 3097 
Q 1578 3097 1268 2742 
Q 959 2388 959 1747 
Q 959 1106 1268 751 
Q 1578 397 2138 397 
Q 2388 397 2633 464 
Q 2878 531 3122 666 
L 3122 134 
Q 2881 22 2623 -34 
Q 2366 -91 2075 -91 
Q 1284 -91 818 406 
Q 353 903 353 1747 
Q 353 2603 823 3093 
Q 1294 3584 2113 3584 
Q 2378 3584 2631 3529 
Q 2884 3475 3122 3366 
z
" transform="scale(0.015625)"/>
      <path id="DejaVuSans-76" d="M 191 3500 
L 800 3500 
L 1894 563 
L 2988 3500 
L 3597 3500 
L 2284 0 
L 1503 0 
L 191 3500 
z
" transform="scale(0.015625)"/>
      <path id="DejaVuSans-73" d="M 2834 3397 
L 2834 2853 
Q 2591 2978 2328 3040 
Q 2066 3103 1784 3103 
Q 1356 3103 1142 2972 
Q 928 2841 928 2578 
Q 928 2378 1081 2264 
Q 1234 2150 1697 2047 
L 1894 2003 
Q 2506 1872 2764 1633 
Q 3022 1394 3022 966 
Q 3022 478 2636 193 
Q 2250 -91 1575 -91 
Q 1294 -91 989 -36 
Q 684 19 347 128 
L 347 722 
Q 666 556 975 473 
Q 1284 391 1588 391 
Q 1994 391 2212 530 
Q 2431 669 2431 922 
Q 2431 1156 2273 1281 
Q 2116 1406 1581 1522 
L 1381 1569 
Q 847 1681 609 1914 
Q 372 2147 372 2553 
Q 372 3047 722 3315 
Q 1072 3584 1716 3584 
Q 2034 3584 2315 3537 
Q 2597 3491 2834 3397 
z
" transform="scale(0.015625)"/>
      <path id="DejaVuSans-54" d="M -19 4666 
L 3928 4666 
L 3928 4134 
L 2272 4134 
L 2272 0 
L 1638 0 
L 1638 4134 
L -19 4134 
L -19 4666 
z
" transform="scale(0.015625)"/>
      <path id="DejaVuSans-6d" d="M 3328 2828 
Q 3544 3216 3844 3400 
Q 4144 3584 4550 3584 
Q 5097 3584 5394 3201 
Q 5691 2819 5691 2113 
L 5691 0 
L 5113 0 
L 5113 2094 
Q 5113 2597 4934 2840 
Q 4756 3084 4391 3084 
Q 3944 3084 3684 2787 
Q 3425 2491 3425 1978 
L 3425 0 
L 2847 0 
L 2847 2094 
Q 2847 2600 2669 2842 
Q 2491 3084 2119 3084 
Q 1678 3084 1418 2786 
Q 1159 2488 1159 1978 
L 1159 0 
L 581 0 
L 581 3500 
L 1159 3500 
L 1159 2956 
Q 1356 3278 1631 3431 
Q 1906 3584 2284 3584 
Q 2666 3584 2933 3390 
Q 3200 3197 3328 2828 
z
" transform="scale(0.015625)"/>
      <path id="DejaVuSans-53" d="M 3425 4513 
L 3425 3897 
Q 3066 4069 2747 4153 
Q 2428 4238 2131 4238 
Q 1616 4238 1336 4038 
Q 1056 3838 1056 3469 
Q 1056 3159 1242 3001 
Q 1428 2844 1947 2747 
L 2328 2669 
Q 3034 2534 3370 2195 
Q 3706 1856 3706 1288 
Q 3706 609 3251 259 
Q 2797 -91 1919 -91 
Q 1588 -91 1214 -16 
Q 841 59 441 206 
L 441 856 
Q 825 641 1194 531 
Q 1563 422 1919 422 
Q 2459 422 2753 634 
Q 3047 847 3047 1241 
Q 3047 1584 2836 1778 
Q 2625 1972 2144 2069 
L 1759 2144 
Q 1053 2284 737 2584 
Q 422 2884 422 3419 
Q 422 4038 858 4394 
Q 1294 4750 2059 4750 
Q 2388 4750 2728 4690 
Q 3069 4631 3425 4513 
z
" transform="scale(0.015625)"/>
      <path id="DejaVuSans-42" d="M 1259 2228 
L 1259 519 
L 2272 519 
Q 2781 519 3026 730 
Q 3272 941 3272 1375 
Q 3272 1813 3026 2020 
Q 2781 2228 2272 2228 
L 1259 2228 
z
M 1259 4147 
L 1259 2741 
L 2194 2741 
Q 2656 2741 2882 2914 
Q 3109 3088 3109 3444 
Q 3109 3797 2882 3972 
Q 2656 4147 2194 4147 
L 1259 4147 
z
M 628 4666 
L 2241 4666 
Q 2963 4666 3353 4366 
Q 3744 4066 3744 3513 
Q 3744 3084 3544 2831 
Q 3344 2578 2956 2516 
Q 3422 2416 3680 2098 
Q 3938 1781 3938 1306 
Q 3938 681 3513 340 
Q 3088 0 2303 0 
L 628 0 
L 628 4666 
z
" transform="scale(0.015625)"/>
      <path id="DejaVuSans-4d" d="M 628 4666 
L 1569 4666 
L 2759 1491 
L 3956 4666 
L 4897 4666 
L 4897 0 
L 4281 0 
L 4281 4097 
L 3078 897 
L 2444 897 
L 1241 4097 
L 1241 0 
L 628 0 
L 628 4666 
z
" transform="scale(0.015625)"/>
      <path id="DejaVuSans-2d" d="M 313 2009 
L 1997 2009 
L 1997 1497 
L 313 1497 
L 313 2009 
z
" transform="scale(0.015625)"/>
      <path id="DejaVuSans-6b" d="M 581 4863 
L 1159 4863 
L 1159 1991 
L 2875 3500 
L 3609 3500 
L 1753 1863 
L 3688 0 
L 2938 0 
L 1159 1709 
L 1159 0 
L 581 0 
L 581 4863 
z
" transform="scale(0.015625)"/>
     </defs>
     <use xlink:href="#DejaVuSans-51"/>
     <use xlink:href="#DejaVuSans-75" transform="translate(78.710938 0)"/>
     <use xlink:href="#DejaVuSans-61" transform="translate(142.089844 0)"/>
     <use xlink:href="#DejaVuSans-72" transform="translate(203.369141 0)"/>
     <use xlink:href="#DejaVuSans-61" transform="translate(244.482422 0)"/>
     <use xlink:href="#DejaVuSans-6e" transform="translate(305.761719 0)"/>
     <use xlink:href="#DejaVuSans-74" transform="translate(369.140625 0)"/>
     <use xlink:href="#DejaVuSans-69" transform="translate(408.349609 0)"/>
     <use xlink:href="#DejaVuSans-6e" transform="translate(436.132812 0)"/>
     <use xlink:href="#DejaVuSans-65" transform="translate(499.511719 0)"/>
     <use xlink:href="#DejaVuSans-20" transform="translate(561.035156 0)"/>
     <use xlink:href="#DejaVuSans-45" transform="translate(592.822266 0)"/>
     <use xlink:href="#DejaVuSans-66" transform="translate(656.005859 0)"/>
     <use xlink:href="#DejaVuSans-66" transform="translate(691.210938 0)"/>
     <use xlink:href="#DejaVuSans-69" transform="translate(726.416016 0)"/>
     <use xlink:href="#DejaVuSans-63" transform="translate(754.199219 0)"/>
     <use xlink:href="#DejaVuSans-69" transform="translate(809.179688 0)"/>
     <use xlink:href="#DejaVuSans-65" transform="translate(836.962891 0)"/>
     <use xlink:href="#DejaVuSans-6e" transform="translate(898.486328 0)"/>
     <use xlink:href="#DejaVuSans-63" transform="translate(961.865234 0)"/>
     <use xlink:href="#DejaVuSans-79" transform="translate(1016.845703 0)"/>
     <use xlink:href="#DejaVuSans-20" transform="translate(1076.025391 0)"/>
     <use xlink:href="#DejaVuSans-76" transform="translate(1107.8125 0)"/>
     <use xlink:href="#DejaVuSans-73" transform="translate(1166.992188 0)"/>
     <use xlink:href="#DejaVuSans-20" transform="translate(1219.091797 0)"/>
     <use xlink:href="#DejaVuSans-54" transform="translate(1250.878906 0)"/>
     <use xlink:href="#DejaVuSans-69" transform="translate(1308.837891 0)"/>
     <use xlink:href="#DejaVuSans-6d" transform="translate(1336.621094 0)"/>
     <use xlink:href="#DejaVuSans-65" transform="translate(1434.033203 0)"/>
     <use xlink:href="#DejaVuSans-20" transform="translate(1495.556641 0)"/>
     <use xlink:href="#DejaVuSans-28" transform="translate(1527.34375 0)"/>
     <use xlink:href="#DejaVuSans-53" transform="translate(1566.357422 0)"/>
     <use xlink:href="#DejaVuSans-42" transform="translate(1629.833984 0)"/>
     <use xlink:href="#DejaVuSans-4d" transform="translate(1698.4375 0)"/>
     <use xlink:href="#DejaVuSans-2d" transform="translate(1784.716797 0)"/>
     <use xlink:href="#DejaVuSans-34" transform="translate(1820.800781 0)"/>
     <use xlink:href="#DejaVuSans-6b" transform="translate(1884.423828 0)"/>
     <use xlink:href="#DejaVuSans-29" transform="translate(1942.333984 0)"/>
    </g>
   </g>
   <g id="legend_1">
    <g id="patch_7">
     <path d="M 289.559063 302.584 
L 407.72 302.584 
Q 409.72 302.584 409.72 300.584 
L 409.72 213.51525 
Q 409.72 211.51525 407.72 211.51525 
L 289.559063 211.51525 
Q 287.559063 211.51525 287.559063 213.51525 
L 287.559063 300.584 
Q 287.559063 302.584 289.559063 302.584 
z
" style="fill: #ffffff; opacity: 0.8; stroke: #cccccc; stroke-linejoin: miter"/>
    </g>
    <g id="line2d_20">
     <path d="M 291.559063 219.613687 
L 301.559063 219.613687 
L 311.559063 219.613687 
" style="fill: none; stroke: #1f77b4; stroke-width: 1.5; stroke-linecap: square"/>
    </g>
    <g id="text_17">
     <!-- LocalGNTS-14 -->
     <g transform="translate(319.559063 223.113687) scale(0.1 -0.1)">
      <defs>
       <path id="DejaVuSans-4c" d="M 628 4666 
L 1259 4666 
L 1259 531 
L 3531 531 
L 3531 0 
L 628 0 
L 628 4666 
z
" transform="scale(0.015625)"/>
       <path id="DejaVuSans-6f" d="M 1959 3097 
Q 1497 3097 1228 2736 
Q 959 2375 959 1747 
Q 959 1119 1226 758 
Q 1494 397 1959 397 
Q 2419 397 2687 759 
Q 2956 1122 2956 1747 
Q 2956 2369 2687 2733 
Q 2419 3097 1959 3097 
z
M 1959 3584 
Q 2709 3584 3137 3096 
Q 3566 2609 3566 1747 
Q 3566 888 3137 398 
Q 2709 -91 1959 -91 
Q 1206 -91 779 398 
Q 353 888 353 1747 
Q 353 2609 779 3096 
Q 1206 3584 1959 3584 
z
" transform="scale(0.015625)"/>
       <path id="DejaVuSans-6c" d="M 603 4863 
L 1178 4863 
L 1178 0 
L 603 0 
L 603 4863 
z
" transform="scale(0.015625)"/>
       <path id="DejaVuSans-47" d="M 3809 666 
L 3809 1919 
L 2778 1919 
L 2778 2438 
L 4434 2438 
L 4434 434 
Q 4069 175 3628 42 
Q 3188 -91 2688 -91 
Q 1594 -91 976 548 
Q 359 1188 359 2328 
Q 359 3472 976 4111 
Q 1594 4750 2688 4750 
Q 3144 4750 3555 4637 
Q 3966 4525 4313 4306 
L 4313 3634 
Q 3963 3931 3569 4081 
Q 3175 4231 2741 4231 
Q 1884 4231 1454 3753 
Q 1025 3275 1025 2328 
Q 1025 1384 1454 906 
Q 1884 428 2741 428 
Q 3075 428 3337 486 
Q 3600 544 3809 666 
z
" transform="scale(0.015625)"/>
       <path id="DejaVuSans-4e" d="M 628 4666 
L 1478 4666 
L 3547 763 
L 3547 4666 
L 4159 4666 
L 4159 0 
L 3309 0 
L 1241 3903 
L 1241 0 
L 628 0 
L 628 4666 
z
" transform="scale(0.015625)"/>
      </defs>
      <use xlink:href="#DejaVuSans-4c"/>
      <use xlink:href="#DejaVuSans-6f" transform="translate(53.962891 0)"/>
      <use xlink:href="#DejaVuSans-63" transform="translate(115.144531 0)"/>
      <use xlink:href="#DejaVuSans-61" transform="translate(170.125 0)"/>
      <use xlink:href="#DejaVuSans-6c" transform="translate(231.404297 0)"/>
      <use xlink:href="#DejaVuSans-47" transform="translate(259.1875 0)"/>
      <use xlink:href="#DejaVuSans-4e" transform="translate(336.677734 0)"/>
      <use xlink:href="#DejaVuSans-54" transform="translate(411.482422 0)"/>
      <use xlink:href="#DejaVuSans-53" transform="translate(472.566406 0)"/>
      <use xlink:href="#DejaVuSans-2d" transform="translate(536.042969 0)"/>
      <use xlink:href="#DejaVuSans-31" transform="translate(572.126953 0)"/>
      <use xlink:href="#DejaVuSans-34" transform="translate(635.75 0)"/>
     </g>
    </g>
    <g id="line2d_21">
     <path d="M 291.559063 234.291812 
L 301.559063 234.291812 
L 311.559063 234.291812 
" style="fill: none; stroke: #ff7f0e; stroke-width: 1.5; stroke-linecap: square"/>
    </g>
    <g id="text_18">
     <!-- GlobalGNTS-14 -->
     <g transform="translate(319.559063 237.791812) scale(0.1 -0.1)">
      <defs>
       <path id="DejaVuSans-62" d="M 3116 1747 
Q 3116 2381 2855 2742 
Q 2594 3103 2138 3103 
Q 1681 3103 1420 2742 
Q 1159 2381 1159 1747 
Q 1159 1113 1420 752 
Q 1681 391 2138 391 
Q 2594 391 2855 752 
Q 3116 1113 3116 1747 
z
M 1159 2969 
Q 1341 3281 1617 3432 
Q 1894 3584 2278 3584 
Q 2916 3584 3314 3078 
Q 3713 2572 3713 1747 
Q 3713 922 3314 415 
Q 2916 -91 2278 -91 
Q 1894 -91 1617 61 
Q 1341 213 1159 525 
L 1159 0 
L 581 0 
L 581 4863 
L 1159 4863 
L 1159 2969 
z
" transform="scale(0.015625)"/>
      </defs>
      <use xlink:href="#DejaVuSans-47"/>
      <use xlink:href="#DejaVuSans-6c" transform="translate(77.490234 0)"/>
      <use xlink:href="#DejaVuSans-6f" transform="translate(105.273438 0)"/>
      <use xlink:href="#DejaVuSans-62" transform="translate(166.455078 0)"/>
      <use xlink:href="#DejaVuSans-61" transform="translate(229.931641 0)"/>
      <use xlink:href="#DejaVuSans-6c" transform="translate(291.210938 0)"/>
      <use xlink:href="#DejaVuSans-47" transform="translate(318.994141 0)"/>
      <use xlink:href="#DejaVuSans-4e" transform="translate(396.484375 0)"/>
      <use xlink:href="#DejaVuSans-54" transform="translate(471.289062 0)"/>
      <use xlink:href="#DejaVuSans-53" transform="translate(532.373047 0)"/>
      <use xlink:href="#DejaVuSans-2d" transform="translate(595.849609 0)"/>
      <use xlink:href="#DejaVuSans-31" transform="translate(631.933594 0)"/>
      <use xlink:href="#DejaVuSans-34" transform="translate(695.556641 0)"/>
     </g>
    </g>
    <g id="line2d_22">
     <path d="M 291.559063 248.969937 
L 301.559063 248.969937 
L 311.559063 248.969937 
" style="fill: none; stroke: #2ca02c; stroke-width: 1.5; stroke-linecap: square"/>
    </g>
    <g id="text_19">
     <!-- Beta-Binomial-14 -->
     <g transform="translate(319.559063 252.469937) scale(0.1 -0.1)">
      <use xlink:href="#DejaVuSans-42"/>
      <use xlink:href="#DejaVuSans-65" transform="translate(68.603516 0)"/>
      <use xlink:href="#DejaVuSans-74" transform="translate(130.126953 0)"/>
      <use xlink:href="#DejaVuSans-61" transform="translate(169.335938 0)"/>
      <use xlink:href="#DejaVuSans-2d" transform="translate(230.615234 0)"/>
      <use xlink:href="#DejaVuSans-42" transform="translate(263.074219 0)"/>
      <use xlink:href="#DejaVuSans-69" transform="translate(331.677734 0)"/>
      <use xlink:href="#DejaVuSans-6e" transform="translate(359.460938 0)"/>
      <use xlink:href="#DejaVuSans-6f" transform="translate(422.839844 0)"/>
      <use xlink:href="#DejaVuSans-6d" transform="translate(484.021484 0)"/>
      <use xlink:href="#DejaVuSans-69" transform="translate(581.433594 0)"/>
      <use xlink:href="#DejaVuSans-61" transform="translate(609.216797 0)"/>
      <use xlink:href="#DejaVuSans-6c" transform="translate(670.496094 0)"/>
      <use xlink:href="#DejaVuSans-2d" transform="translate(698.279297 0)"/>
      <use xlink:href="#DejaVuSans-31" transform="translate(734.363281 0)"/>
      <use xlink:href="#DejaVuSans-34" transform="translate(797.986328 0)"/>
     </g>
    </g>
    <g id="line2d_23">
     <path d="M 291.559063 263.648062 
L 301.559063 263.648062 
L 311.559063 263.648062 
" style="fill: none; stroke: #d62728; stroke-width: 1.5; stroke-linecap: square"/>
    </g>
    <g id="text_20">
     <!-- Proportional -->
     <g transform="translate(319.559063 267.148062) scale(0.1 -0.1)">
      <defs>
       <path id="DejaVuSans-50" d="M 1259 4147 
L 1259 2394 
L 2053 2394 
Q 2494 2394 2734 2622 
Q 2975 2850 2975 3272 
Q 2975 3691 2734 3919 
Q 2494 4147 2053 4147 
L 1259 4147 
z
M 628 4666 
L 2053 4666 
Q 2838 4666 3239 4311 
Q 3641 3956 3641 3272 
Q 3641 2581 3239 2228 
Q 2838 1875 2053 1875 
L 1259 1875 
L 1259 0 
L 628 0 
L 628 4666 
z
" transform="scale(0.015625)"/>
       <path id="DejaVuSans-70" d="M 1159 525 
L 1159 -1331 
L 581 -1331 
L 581 3500 
L 1159 3500 
L 1159 2969 
Q 1341 3281 1617 3432 
Q 1894 3584 2278 3584 
Q 2916 3584 3314 3078 
Q 3713 2572 3713 1747 
Q 3713 922 3314 415 
Q 2916 -91 2278 -91 
Q 1894 -91 1617 61 
Q 1341 213 1159 525 
z
M 3116 1747 
Q 3116 2381 2855 2742 
Q 2594 3103 2138 3103 
Q 1681 3103 1420 2742 
Q 1159 2381 1159 1747 
Q 1159 1113 1420 752 
Q 1681 391 2138 391 
Q 2594 391 2855 752 
Q 3116 1113 3116 1747 
z
" transform="scale(0.015625)"/>
      </defs>
      <use xlink:href="#DejaVuSans-50"/>
      <use xlink:href="#DejaVuSans-72" transform="translate(58.552734 0)"/>
      <use xlink:href="#DejaVuSans-6f" transform="translate(97.416016 0)"/>
      <use xlink:href="#DejaVuSans-70" transform="translate(158.597656 0)"/>
      <use xlink:href="#DejaVuSans-6f" transform="translate(222.074219 0)"/>
      <use xlink:href="#DejaVuSans-72" transform="translate(283.255859 0)"/>
      <use xlink:href="#DejaVuSans-74" transform="translate(324.369141 0)"/>
      <use xlink:href="#DejaVuSans-69" transform="translate(363.578125 0)"/>
      <use xlink:href="#DejaVuSans-6f" transform="translate(391.361328 0)"/>
      <use xlink:href="#DejaVuSans-6e" transform="translate(452.542969 0)"/>
      <use xlink:href="#DejaVuSans-61" transform="translate(515.921875 0)"/>
      <use xlink:href="#DejaVuSans-6c" transform="translate(577.201172 0)"/>
     </g>
    </g>
    <g id="line2d_24">
     <path d="M 291.559063 278.326188 
L 301.559063 278.326188 
L 311.559063 278.326188 
" style="fill: none; stroke: #9467bd; stroke-width: 1.5; stroke-linecap: square"/>
    </g>
    <g id="text_21">
     <!-- Uniform -->
     <g transform="translate(319.559063 281.826188) scale(0.1 -0.1)">
      <defs>
       <path id="DejaVuSans-55" d="M 556 4666 
L 1191 4666 
L 1191 1831 
Q 1191 1081 1462 751 
Q 1734 422 2344 422 
Q 2950 422 3222 751 
Q 3494 1081 3494 1831 
L 3494 4666 
L 4128 4666 
L 4128 1753 
Q 4128 841 3676 375 
Q 3225 -91 2344 -91 
Q 1459 -91 1007 375 
Q 556 841 556 1753 
L 556 4666 
z
" transform="scale(0.015625)"/>
      </defs>
      <use xlink:href="#DejaVuSans-55"/>
      <use xlink:href="#DejaVuSans-6e" transform="translate(73.193359 0)"/>
      <use xlink:href="#DejaVuSans-69" transform="translate(136.572266 0)"/>
      <use xlink:href="#DejaVuSans-66" transform="translate(164.355469 0)"/>
      <use xlink:href="#DejaVuSans-6f" transform="translate(199.560547 0)"/>
      <use xlink:href="#DejaVuSans-72" transform="translate(260.742188 0)"/>
      <use xlink:href="#DejaVuSans-6d" transform="translate(300.105469 0)"/>
     </g>
    </g>
    <g id="line2d_25">
     <path d="M 291.559063 293.004312 
L 301.559063 293.004312 
L 311.559063 293.004312 
" style="fill: none; stroke: #8c564b; stroke-width: 1.5; stroke-linecap: square"/>
    </g>
    <g id="text_22">
     <!-- Random -->
     <g transform="translate(319.559063 296.504312) scale(0.1 -0.1)">
      <defs>
       <path id="DejaVuSans-52" d="M 2841 2188 
Q 3044 2119 3236 1894 
Q 3428 1669 3622 1275 
L 4263 0 
L 3584 0 
L 2988 1197 
Q 2756 1666 2539 1819 
Q 2322 1972 1947 1972 
L 1259 1972 
L 1259 0 
L 628 0 
L 628 4666 
L 2053 4666 
Q 2853 4666 3247 4331 
Q 3641 3997 3641 3322 
Q 3641 2881 3436 2590 
Q 3231 2300 2841 2188 
z
M 1259 4147 
L 1259 2491 
L 2053 2491 
Q 2509 2491 2742 2702 
Q 2975 2913 2975 3322 
Q 2975 3731 2742 3939 
Q 2509 4147 2053 4147 
L 1259 4147 
z
" transform="scale(0.015625)"/>
       <path id="DejaVuSans-64" d="M 2906 2969 
L 2906 4863 
L 3481 4863 
L 3481 0 
L 2906 0 
L 2906 525 
Q 2725 213 2448 61 
Q 2172 -91 1784 -91 
Q 1150 -91 751 415 
Q 353 922 353 1747 
Q 353 2572 751 3078 
Q 1150 3584 1784 3584 
Q 2172 3584 2448 3432 
Q 2725 3281 2906 2969 
z
M 947 1747 
Q 947 1113 1208 752 
Q 1469 391 1925 391 
Q 2381 391 2643 752 
Q 2906 1113 2906 1747 
Q 2906 2381 2643 2742 
Q 2381 3103 1925 3103 
Q 1469 3103 1208 2742 
Q 947 2381 947 1747 
z
" transform="scale(0.015625)"/>
      </defs>
      <use xlink:href="#DejaVuSans-52"/>
      <use xlink:href="#DejaVuSans-61" transform="translate(67.232422 0)"/>
      <use xlink:href="#DejaVuSans-6e" transform="translate(128.511719 0)"/>
      <use xlink:href="#DejaVuSans-64" transform="translate(191.890625 0)"/>
      <use xlink:href="#DejaVuSans-6f" transform="translate(255.367188 0)"/>
      <use xlink:href="#DejaVuSans-6d" transform="translate(316.548828 0)"/>
     </g>
    </g>
   </g>
  </g>
 </g>
 <defs>
  <clipPath id="pd263230f89">
   <rect x="57.6" y="41.472" width="357.12" height="266.112"/>
  </clipPath>
 </defs>
</svg>
