<?xml version="1.0" encoding="utf-8" standalone="no"?>
<!DOCTYPE svg PUBLIC "-//W3C//DTD SVG 1.1//EN"
  "http://www.w3.org/Graphics/SVG/1.1/DTD/svg11.dtd">
<svg xmlns:xlink="http://www.w3.org/1999/xlink" width="460.8pt" height="345.6pt" viewBox="0 0 460.8 345.6" xmlns="http://www.w3.org/2000/svg" version="1.1">
 <metadata>
  <rdf:RDF xmlns:dc="http://purl.org/dc/elements/1.1/" xmlns:cc="http://creativecommons.org/ns#" xmlns:rdf="http://www.w3.org/1999/02/22-rdf-syntax-ns#">
   <cc:Work>
    <dc:type rdf:resource="http://purl.org/dc/dcmitype/StillImage"/>
    <dc:date>2026-04-06T19:14:02.099554</dc:date>
    <dc:format>image/svg+xml</dc:format>
    <dc:creator>
     <cc:Agent>
      <dc:title>Matplotlib v3.10.8, https://matplotlib.org/</dc:title>
     </cc:Agent>
    </dc:creator>
   </cc:Work>
  </rdf:RDF>
 </metadata>
 <defs>
  <style type="text/css">*{stroke-linejoin: round; stroke-linecap: butt}</style>
 </defs>
 <g id="figure_1">
  <g id="patch_1">
   <path d="M 0 345.6 
L 460.8 345.6 
L 460.8 0 
L 0 0 
z
" style="fill: #ffffff"/>
  </g>
  <g id="axes_1">
   <g id="patch_2">
    <path d="M 57.6 307.584 
L 414.72 307.584 
L 414.72 41.472 
L 57.6 41.472 
z
" style="fill: #ffffff"/>
   </g>
   <g id="matplotlib.axis_1">
    <g id="xtick_1">
     <g id="line2d_1">
      <defs>
       <path id="m48cf005d5c" d="M 0 0 
L 0 3.5 
" style="stroke: #000000; stroke-width: 0.8"/>
      </defs>
      <g>
       <use xlink:href="#m48cf005d5c" x="73.832727" y="307.584" style="stroke: #000000; stroke-width: 0.8"/>
      </g>
     </g>
     <g id="text_1">
      <!-- 0 -->
      <g transform="translate(70.651477 322.182437) scale(0.1 -0.1)">
       <defs>
        <path id="DejaVuSans-30" d="M 2034 4250 
Q 1547 4250 1301 3770 
Q 1056 3291 1056 2328 
Q 1056 1369 1301 889 
Q 1547 409 2034 409 
Q 2525 409 2770 889 
Q 3016 1369 3016 2328 
Q 3016 3291 2770 3770 
Q 2525 4250 2034 4250 
z
M 2034 4750 
Q 2819 4750 3233 4129 
Q 3647 3509 3647 2328 
Q 3647 1150 3233 529 
Q 2819 -91 2034 -91 
Q 1250 -91 836 529 
Q 422 1150 422 2328 
Q 422 3509 836 4129 
Q 1250 4750 2034 4750 
z
" transform="scale(0.015625)"/>
       </defs>
       <use xlink:href="#DejaVuSans-30"/>
      </g>
     </g>
    </g>
    <g id="xtick_2">
     <g id="line2d_2">
      <g>
       <use xlink:href="#m48cf005d5c" x="117.410519" y="307.584" style="stroke: #000000; stroke-width: 0.8"/>
      </g>
     </g>
     <g id="text_2">
      <!-- 20 -->
      <g transform="translate(111.048019 322.182437) scale(0.1 -0.1)">
       <defs>
        <path id="DejaVuSans-32" d="M 1228 531 
L 3431 531 
L 3431 0 
L 469 0 
L 469 531 
Q 828 903 1448 1529 
Q 2069 2156 2228 2338 
Q 2531 2678 2651 2914 
Q 2772 3150 2772 3378 
Q 2772 3750 2511 3984 
Q 2250 4219 1831 4219 
Q 1534 4219 1204 4116 
Q 875 4013 500 3803 
L 500 4441 
Q 881 4594 1212 4672 
Q 1544 4750 1819 4750 
Q 2544 4750 2975 4387 
Q 3406 4025 3406 3419 
Q 3406 3131 3298 2873 
Q 3191 2616 2906 2266 
Q 2828 2175 2409 1742 
Q 1991 1309 1228 531 
z
" transform="scale(0.015625)"/>
       </defs>
       <use xlink:href="#DejaVuSans-32"/>
       <use xlink:href="#DejaVuSans-30" transform="translate(63.623047 0)"/>
      </g>
     </g>
    </g>
    <g id="xtick_3">
     <g id="line2d_3">
      <g>
       <use xlink:href="#m48cf005d5c" x="160.98831" y="307.584" style="stroke: #000000; stroke-width: 0.8"/>
      </g>
     </g>
     <g id="text_3">
      <!-- 40 -->
      <g transform="translate(154.62581 322.182437) scale(0.1 -0.1)">
       <defs>
        <path id="DejaVuSans-34" d="M 2419 4116 
L 825 1625 
L 2419 1625 
L 2419 4116 
z
M 2253 4666 
L 3047 4666 
L 3047 1625 
L 3713 1625 
L 3713 1100 
L 3047 1100 
L 3047 0 
L 2419 0 
L 2419 1100 
L 313 1100 
L 313 1709 
L 2253 4666 
z
" transform="scale(0.015625)"/>
       </defs>
       <use xlink:href="#DejaVuSans-34"/>
       <use xlink:href="#DejaVuSans-30" transform="translate(63.623047 0)"/>
      </g>
     </g>
    </g>
    <g id="xtick_4">
     <g id="line2d_4">
      <g>
       <use xlink:href="#m48cf005d5c" x="204.566101" y="307.584" style="stroke: #000000; stroke-width: 0.8"/>
      </g>
     </g>
     <g id="text_4">
      <!-- 60 -->
      <g transform="translate(198.203601 322.182437) scale(0.1 -0.1)">
       <defs>
        <path id="DejaVuSans-36" d="M 2113 2584 
Q 1688 2584 1439 2293 
Q 1191 2003 1191 1497 
Q 1191 994 1439 701 
Q 1688 409 2113 409 
Q 2538 409 2786 701 
Q 3034 994 3034 1497 
Q 3034 2003 2786 2293 
Q 2538 2584 2113 2584 
z
M 3366 4563 
L 3366 3988 
Q 3128 4100 2886 4159 
Q 2644 4219 2406 4219 
Q 1781 4219 1451 3797 
Q 1122 3375 1075 2522 
Q 1259 2794 1537 2939 
Q 1816 3084 2150 3084 
Q 2853 3084 3261 2657 
Q 3669 2231 3669 1497 
Q 3669 778 3244 343 
Q 2819 -91 2113 -91 
Q 1303 -91 875 529 
Q 447 1150 447 2328 
Q 447 3434 972 4092 
Q 1497 4750 2381 4750 
Q 2619 4750 2861 4703 
Q 3103 4656 3366 4563 
z
" transform="scale(0.015625)"/>
       </defs>
       <use xlink:href="#DejaVuSans-36"/>
       <use xlink:href="#DejaVuSans-30" transform="translate(63.623047 0)"/>
      </g>
     </g>
    </g>
    <g id="xtick_5">
     <g id="line2d_5">
      <g>
       <use xlink:href="#m48cf005d5c" x="248.143893" y="307.584" style="stroke: #000000; stroke-width: 0.8"/>
      </g>
     </g>
     <g id="text_5">
      <!-- 80 -->
      <g transform="translate(241.781393 322.182437) scale(0.1 -0.1)">
       <defs>
        <path id="DejaVuSans-38" d="M 2034 2216 
Q 1584 2216 1326 1975 
Q 1069 1734 1069 1313 
Q 1069 891 1326 650 
Q 1584 409 2034 409 
Q 2484 409 2743 651 
Q 3003 894 3003 1313 
Q 3003 1734 2745 1975 
Q 2488 2216 2034 2216 
z
M 1403 2484 
Q 997 2584 770 2862 
Q 544 3141 544 3541 
Q 544 4100 942 4425 
Q 1341 4750 2034 4750 
Q 2731 4750 3128 4425 
Q 3525 4100 3525 3541 
Q 3525 3141 3298 2862 
Q 3072 2584 2669 2484 
Q 3125 2378 3379 2068 
Q 3634 1759 3634 1313 
Q 3634 634 3220 271 
Q 2806 -91 2034 -91 
Q 1263 -91 848 271 
Q 434 634 434 1313 
Q 434 1759 690 2068 
Q 947 2378 1403 2484 
z
M 1172 3481 
Q 1172 3119 1398 2916 
Q 1625 2713 2034 2713 
Q 2441 2713 2670 2916 
Q 2900 3119 2900 3481 
Q 2900 3844 2670 4047 
Q 2441 4250 2034 4250 
Q 1625 4250 1398 4047 
Q 1172 3844 1172 3481 
z
" transform="scale(0.015625)"/>
       </defs>
       <use xlink:href="#DejaVuSans-38"/>
       <use xlink:href="#DejaVuSans-30" transform="translate(63.623047 0)"/>
      </g>
     </g>
    </g>
    <g id="xtick_6">
     <g id="line2d_6">
      <g>
       <use xlink:href="#m48cf005d5c" x="291.721684" y="307.584" style="stroke: #000000; stroke-width: 0.8"/>
      </g>
     </g>
     <g id="text_6">
      <!-- 100 -->
      <g transform="translate(282.177934 322.182437) scale(0.1 -0.1)">
       <defs>
        <path id="DejaVuSans-31" d="M 794 531 
L 1825 531 
L 1825 4091 
L 703 3866 
L 703 4441 
L 1819 4666 
L 2450 4666 
L 2450 531 
L 3481 531 
L 3481 0 
L 794 0 
L 794 531 
z
" transform="scale(0.015625)"/>
       </defs>
       <use xlink:href="#DejaVuSans-31"/>
       <use xlink:href="#DejaVuSans-30" transform="translate(63.623047 0)"/>
       <use xlink:href="#DejaVuSans-30" transform="translate(127.246094 0)"/>
      </g>
     </g>
    </g>
    <g id="xtick_7">
     <g id="line2d_7">
      <g>
       <use xlink:href="#m48cf005d5c" x="335.299475" y="307.584" style="stroke: #000000; stroke-width: 0.8"/>
      </g>
     </g>
     <g id="text_7">
      <!-- 120 -->
      <g transform="translate(325.755725 322.182437) scale(0.1 -0.1)">
       <use xlink:href="#DejaVuSans-31"/>
       <use xlink:href="#DejaVuSans-32" transform="translate(63.623047 0)"/>
       <use xlink:href="#DejaVuSans-30" transform="translate(127.246094 0)"/>
      </g>
     </g>
    </g>
    <g id="xtick_8">
     <g id="line2d_8">
      <g>
       <use xlink:href="#m48cf005d5c" x="378.877267" y="307.584" style="stroke: #000000; stroke-width: 0.8"/>
      </g>
     </g>
     <g id="text_8">
      <!-- 140 -->
      <g transform="translate(369.333517 322.182437) scale(0.1 -0.1)">
       <use xlink:href="#DejaVuSans-31"/>
       <use xlink:href="#DejaVuSans-34" transform="translate(63.623047 0)"/>
       <use xlink:href="#DejaVuSans-30" transform="translate(127.246094 0)"/>
      </g>
     </g>
    </g>
    <g id="text_9">
     <!-- Day -->
     <g transform="translate(226.286563 335.860562) scale(0.1 -0.1)">
      <defs>
       <path id="DejaVuSans-44" d="M 1259 4147 
L 1259 519 
L 2022 519 
Q 2988 519 3436 956 
Q 3884 1394 3884 2338 
Q 3884 3275 3436 3711 
Q 2988 4147 2022 4147 
L 1259 4147 
z
M 628 4666 
L 1925 4666 
Q 3281 4666 3915 4102 
Q 4550 3538 4550 2338 
Q 4550 1131 3912 565 
Q 3275 0 1925 0 
L 628 0 
L 628 4666 
z
" transform="scale(0.015625)"/>
       <path id="DejaVuSans-61" d="M 2194 1759 
Q 1497 1759 1228 1600 
Q 959 1441 959 1056 
Q 959 750 1161 570 
Q 1363 391 1709 391 
Q 2188 391 2477 730 
Q 2766 1069 2766 1631 
L 2766 1759 
L 2194 1759 
z
M 3341 1997 
L 3341 0 
L 2766 0 
L 2766 531 
Q 2569 213 2275 61 
Q 1981 -91 1556 -91 
Q 1019 -91 701 211 
Q 384 513 384 1019 
Q 384 1609 779 1909 
Q 1175 2209 1959 2209 
L 2766 2209 
L 2766 2266 
Q 2766 2663 2505 2880 
Q 2244 3097 1772 3097 
Q 1472 3097 1187 3025 
Q 903 2953 641 2809 
L 641 3341 
Q 956 3463 1253 3523 
Q 1550 3584 1831 3584 
Q 2591 3584 2966 3190 
Q 3341 2797 3341 1997 
z
" transform="scale(0.015625)"/>
       <path id="DejaVuSans-79" d="M 2059 -325 
Q 1816 -950 1584 -1140 
Q 1353 -1331 966 -1331 
L 506 -1331 
L 506 -850 
L 844 -850 
Q 1081 -850 1212 -737 
Q 1344 -625 1503 -206 
L 1606 56 
L 191 3500 
L 800 3500 
L 1894 763 
L 2988 3500 
L 3597 3500 
L 2059 -325 
z
" transform="scale(0.015625)"/>
      </defs>
      <use xlink:href="#DejaVuSans-44"/>
      <use xlink:href="#DejaVuSans-61" transform="translate(77.001953 0)"/>
      <use xlink:href="#DejaVuSans-79" transform="translate(138.28125 0)"/>
     </g>
    </g>
   </g>
   <g id="matplotlib.axis_2">
    <g id="ytick_1">
     <g id="line2d_9">
      <defs>
       <path id="ma175453827" d="M 0 0 
L -3.5 0 
" style="stroke: #000000; stroke-width: 0.8"/>
      </defs>
      <g>
       <use xlink:href="#ma175453827" x="57.6" y="295.488" style="stroke: #000000; stroke-width: 0.8"/>
      </g>
     </g>
     <g id="text_10">
      <!-- 0.0 -->
      <g transform="translate(34.696875 299.287219) scale(0.1 -0.1)">
       <defs>
        <path id="DejaVuSans-2e" d="M 684 794 
L 1344 794 
L 1344 0 
L 684 0 
L 684 794 
z
" transform="scale(0.015625)"/>
       </defs>
       <use xlink:href="#DejaVuSans-30"/>
       <use xlink:href="#DejaVuSans-2e" transform="translate(63.623047 0)"/>
       <use xlink:href="#DejaVuSans-30" transform="translate(95.410156 0)"/>
      </g>
     </g>
    </g>
    <g id="ytick_2">
     <g id="line2d_10">
      <g>
       <use xlink:href="#ma175453827" x="57.6" y="239.412277" style="stroke: #000000; stroke-width: 0.8"/>
      </g>
     </g>
     <g id="text_11">
      <!-- 0.2 -->
      <g transform="translate(34.696875 243.211496) scale(0.1 -0.1)">
       <use xlink:href="#DejaVuSans-30"/>
       <use xlink:href="#DejaVuSans-2e" transform="translate(63.623047 0)"/>
       <use xlink:href="#DejaVuSans-32" transform="translate(95.410156 0)"/>
      </g>
     </g>
    </g>
    <g id="ytick_3">
     <g id="line2d_11">
      <g>
       <use xlink:href="#ma175453827" x="57.6" y="183.336554" style="stroke: #000000; stroke-width: 0.8"/>
      </g>
     </g>
     <g id="text_12">
      <!-- 0.4 -->
      <g transform="translate(34.696875 187.135773) scale(0.1 -0.1)">
       <use xlink:href="#DejaVuSans-30"/>
       <use xlink:href="#DejaVuSans-2e" transform="translate(63.623047 0)"/>
       <use xlink:href="#DejaVuSans-34" transform="translate(95.410156 0)"/>
      </g>
     </g>
    </g>
    <g id="ytick_4">
     <g id="line2d_12">
      <g>
       <use xlink:href="#ma175453827" x="57.6" y="127.260831" style="stroke: #000000; stroke-width: 0.8"/>
      </g>
     </g>
     <g id="text_13">
      <!-- 0.6 -->
      <g transform="translate(34.696875 131.06005) scale(0.1 -0.1)">
       <use xlink:href="#DejaVuSans-30"/>
       <use xlink:href="#DejaVuSans-2e" transform="translate(63.623047 0)"/>
       <use xlink:href="#DejaVuSans-36" transform="translate(95.410156 0)"/>
      </g>
     </g>
    </g>
    <g id="ytick_5">
     <g id="line2d_13">
      <g>
       <use xlink:href="#ma175453827" x="57.6" y="71.185108" style="stroke: #000000; stroke-width: 0.8"/>
      </g>
     </g>
     <g id="text_14">
      <!-- 0.8 -->
      <g transform="translate(34.696875 74.984327) scale(0.1 -0.1)">
       <use xlink:href="#DejaVuSans-30"/>
       <use xlink:href="#DejaVuSans-2e" transform="translate(63.623047 0)"/>
       <use xlink:href="#DejaVuSans-38" transform="translate(95.410156 0)"/>
      </g>
     </g>
    </g>
    <g id="text_15">
     <!-- Q / (E+I+A+Q) -->
     <g transform="translate(28.617187 211.788156) rotate(-90) scale(0.1 -0.1)">
      <defs>
       <path id="DejaVuSans-51" d="M 2522 4238 
Q 1834 4238 1429 3725 
Q 1025 3213 1025 2328 
Q 1025 1447 1429 934 
Q 1834 422 2522 422 
Q 3209 422 3611 934 
Q 4013 1447 4013 2328 
Q 4013 3213 3611 3725 
Q 3209 4238 2522 4238 
z
M 3406 84 
L 4238 -825 
L 3475 -825 
L 2784 -78 
Q 2681 -84 2626 -87 
Q 2572 -91 2522 -91 
Q 1538 -91 948 567 
Q 359 1225 359 2328 
Q 359 3434 948 4092 
Q 1538 4750 2522 4750 
Q 3503 4750 4090 4092 
Q 4678 3434 4678 2328 
Q 4678 1516 4351 937 
Q 4025 359 3406 84 
z
" transform="scale(0.015625)"/>
       <path id="DejaVuSans-20" transform="scale(0.015625)"/>
       <path id="DejaVuSans-2f" d="M 1625 4666 
L 2156 4666 
L 531 -594 
L 0 -594 
L 1625 4666 
z
" transform="scale(0.015625)"/>
       <path id="DejaVuSans-28" d="M 1984 4856 
Q 1566 4138 1362 3434 
Q 1159 2731 1159 2009 
Q 1159 1288 1364 580 
Q 1569 -128 1984 -844 
L 1484 -844 
Q 1016 -109 783 600 
Q 550 1309 550 2009 
Q 550 2706 781 3412 
Q 1013 4119 1484 4856 
L 1984 4856 
z
" transform="scale(0.015625)"/>
       <path id="DejaVuSans-45" d="M 628 4666 
L 3578 4666 
L 3578 4134 
L 1259 4134 
L 1259 2753 
L 3481 2753 
L 3481 2222 
L 1259 2222 
L 1259 531 
L 3634 531 
L 3634 0 
L 628 0 
L 628 4666 
z
" transform="scale(0.015625)"/>
       <path id="DejaVuSans-2b" d="M 2944 4013 
L 2944 2272 
L 4684 2272 
L 4684 1741 
L 2944 1741 
L 2944 0 
L 2419 0 
L 2419 1741 
L 678 1741 
L 678 2272 
L 2419 2272 
L 2419 4013 
L 2944 4013 
z
" transform="scale(0.015625)"/>
       <path id="DejaVuSans-49" d="M 628 4666 
L 1259 4666 
L 1259 0 
L 628 0 
L 628 4666 
z
" transform="scale(0.015625)"/>
       <path id="DejaVuSans-41" d="M 2188 4044 
L 1331 1722 
L 3047 1722 
L 2188 4044 
z
M 1831 4666 
L 2547 4666 
L 4325 0 
L 3669 0 
L 3244 1197 
L 1141 1197 
L 716 0 
L 50 0 
L 1831 4666 
z
" transform="scale(0.015625)"/>
       <path id="DejaVuSans-29" d="M 513 4856 
L 1013 4856 
Q 1481 4119 1714 3412 
Q 1947 2706 1947 2009 
Q 1947 1309 1714 600 
Q 1481 -109 1013 -844 
L 513 -844 
Q 928 -128 1133 580 
Q 1338 1288 1338 2009 
Q 1338 2731 1133 3434 
Q 928 4138 513 4856 
z
" transform="scale(0.015625)"/>
      </defs>
      <use xlink:href="#DejaVuSans-51"/>
      <use xlink:href="#DejaVuSans-20" transform="translate(78.710938 0)"/>
      <use xlink:href="#DejaVuSans-2f" transform="translate(110.498047 0)"/>
      <use xlink:href="#DejaVuSans-20" transform="translate(144.189453 0)"/>
      <use xlink:href="#DejaVuSans-28" transform="translate(175.976562 0)"/>
      <use xlink:href="#DejaVuSans-45" transform="translate(214.990234 0)"/>
      <use xlink:href="#DejaVuSans-2b" transform="translate(278.173828 0)"/>
      <use xlink:href="#DejaVuSans-49" transform="translate(361.962891 0)"/>
      <use xlink:href="#DejaVuSans-2b" transform="translate(391.455078 0)"/>
      <use xlink:href="#DejaVuSans-41" transform="translate(475.244141 0)"/>
      <use xlink:href="#DejaVuSans-2b" transform="translate(543.652344 0)"/>
      <use xlink:href="#DejaVuSans-51" transform="translate(627.441406 0)"/>
      <use xlink:href="#DejaVuSans-29" transform="translate(706.152344 0)"/>
     </g>
    </g>
   </g>
   <g id="line2d_14">
    <path d="M 73.832727 295.488 
L 115.231629 295.488 
L 117.410519 293.95648 
L 119.589408 291.129264 
L 123.947187 284.253349 
L 126.126077 280.25888 
L 128.304966 275.975705 
L 130.483856 271.382646 
L 139.199414 251.144291 
L 141.378304 245.913107 
L 143.557193 239.866202 
L 150.093862 219.937104 
L 154.451641 205.125396 
L 158.80942 190.956931 
L 163.1672 142.768403 
L 167.524979 101.972015 
L 169.703868 85.869795 
L 171.882758 74.722753 
L 174.061647 65.523342 
L 176.240537 59.013988 
L 178.419426 56.054345 
L 180.598316 55.026216 
L 182.777206 54.789136 
L 184.956095 54.82307 
L 187.134985 54.044981 
L 189.313874 56.104983 
L 191.492764 58.568672 
L 193.671653 59.525799 
L 195.850543 58.593414 
L 198.029433 57.821663 
L 200.208322 59.993902 
L 202.387212 63.857031 
L 204.566101 66.69637 
L 206.744991 70.397829 
L 208.92388 70.656092 
L 213.28166 74.444353 
L 215.460549 74.750362 
L 217.639439 76.051183 
L 219.818328 76.900142 
L 228.533887 82.516472 
L 230.712776 88.577578 
L 232.891666 90.61974 
L 235.070555 93.027816 
L 237.249445 98.889185 
L 239.428334 100.305378 
L 241.607224 101.351498 
L 243.786113 106.938086 
L 245.965003 109.601625 
L 248.143893 111.352824 
L 250.322782 110.324666 
L 252.501672 112.131897 
L 254.680561 117.635893 
L 256.859451 121.313406 
L 259.03834 123.280147 
L 261.21723 127.260831 
L 263.39612 129.191451 
L 265.575009 127.789017 
L 267.753899 125.65612 
L 269.932788 126.900215 
L 272.111678 134.044185 
L 274.290567 138.604044 
L 276.469457 140.590306 
L 278.648347 142.386519 
L 280.827236 143.256499 
L 283.006126 143.334066 
L 285.185015 145.074189 
L 287.363905 145.445131 
L 289.542794 146.974952 
L 291.721684 146.040908 
L 293.900574 146.795764 
L 296.079463 148.103907 
L 298.258353 150.971862 
L 300.437242 155.511423 
L 302.616132 157.61066 
L 304.795021 158.597264 
L 306.973911 158.134892 
L 309.1528 152.121598 
L 311.33169 153.357012 
L 313.51058 148.202927 
L 315.689469 150.739691 
L 317.868359 154.005774 
L 320.047248 160.318258 
L 322.226138 162.29962 
L 324.405027 167.894465 
L 326.583917 169.160107 
L 328.762807 164.501492 
L 330.941696 167.964667 
L 333.120586 171.216602 
L 335.299475 169.357792 
L 337.478365 171.957385 
L 339.657254 173.239954 
L 341.836144 173.741482 
L 344.015034 177.530851 
L 346.193923 176.849188 
L 348.372813 177.467666 
L 350.551702 176.63411 
L 352.730592 174.864682 
L 354.909481 170.918945 
L 357.088371 168.736281 
L 359.267261 169.588475 
L 361.44615 168.51025 
L 363.62504 166.1647 
L 365.803929 162.72251 
L 370.161708 163.757684 
L 372.340598 164.633916 
L 374.519487 163.888144 
L 376.698377 163.690035 
L 378.877267 165.612347 
L 381.056156 166.457673 
L 383.235046 167.821984 
L 385.413935 165.457338 
L 387.592825 164.726628 
L 389.771714 161.18218 
L 391.950604 160.943019 
L 394.129494 161.650519 
L 396.308383 161.562737 
L 398.487273 161.208455 
L 398.487273 161.208455 
" clip-path="url(#p263442aba4)" style="fill: none; stroke: #1f77b4; stroke-width: 1.5; stroke-linecap: square"/>
   </g>
   <g id="line2d_15">
    <path d="M 73.832727 295.488 
L 115.231629 295.488 
L 117.410519 294.057415 
L 119.589408 291.379764 
L 121.768298 288.08354 
L 126.126077 280.185753 
L 132.662746 266.631941 
L 137.020525 256.151545 
L 139.199414 250.300483 
L 141.378304 245.026052 
L 145.736083 232.165439 
L 147.914973 224.93037 
L 150.093862 218.390737 
L 152.272752 210.747477 
L 154.451641 204.018208 
L 158.80942 189.011996 
L 160.98831 164.623924 
L 163.1672 141.556794 
L 165.346089 120.388749 
L 167.524979 100.502959 
L 169.703868 82.516807 
L 171.882758 70.359453 
L 174.061647 62.204802 
L 176.240537 56.265157 
L 178.419426 54.838807 
L 180.598316 53.568 
L 182.777206 54.093535 
L 184.956095 54.800927 
L 187.134985 58.664384 
L 189.313874 60.339092 
L 191.492764 61.52018 
L 193.671653 61.902217 
L 195.850543 61.614492 
L 198.029433 64.865508 
L 200.208322 67.861425 
L 202.387212 66.745378 
L 204.566101 67.542059 
L 206.744991 67.422839 
L 208.92388 69.357793 
L 211.10277 70.507576 
L 213.28166 72.227408 
L 215.460549 73.722075 
L 219.818328 75.259814 
L 221.997218 76.217545 
L 224.176107 80.513192 
L 226.354997 87.079713 
L 228.533887 87.5961 
L 230.712776 89.897201 
L 232.891666 92.627664 
L 235.070555 94.850092 
L 237.249445 97.61314 
L 239.428334 99.668015 
L 241.607224 99.997885 
L 243.786113 102.681708 
L 245.965003 107.429173 
L 248.143893 109.214362 
L 250.322782 114.573307 
L 252.501672 112.178948 
L 254.680561 112.43431 
L 259.03834 121.399562 
L 261.21723 125.854543 
L 263.39612 125.57501 
L 265.575009 135.147834 
L 267.753899 135.087351 
L 269.932788 143.008694 
L 272.111678 138.375691 
L 274.290567 138.375691 
L 276.469457 140.839706 
L 278.648347 139.863067 
L 280.827236 140.331112 
L 283.006126 141.5301 
L 285.185015 141.364213 
L 287.363905 144.420166 
L 289.542794 145.843109 
L 291.721684 143.599146 
L 293.900574 146.932227 
L 296.079463 148.699196 
L 298.258353 149.596743 
L 300.437242 155.874025 
L 302.616132 154.158942 
L 304.795021 157.55981 
L 306.973911 154.920824 
L 309.1528 150.477367 
L 311.33169 154.032466 
L 313.51058 154.594224 
L 315.689469 152.820599 
L 317.868359 149.677066 
L 320.047248 154.952546 
L 322.226138 159.875611 
L 324.405027 159.75701 
L 326.583917 162.094792 
L 328.762807 163.509346 
L 330.941696 166.618326 
L 333.120586 164.240809 
L 335.299475 165.014783 
L 337.478365 160.862837 
L 339.657254 159.985059 
L 341.836144 164.469956 
L 344.015034 163.320424 
L 346.193923 165.321053 
L 348.372813 167.800423 
L 350.551702 169.106988 
L 352.730592 170.875282 
L 354.909481 170.602226 
L 359.267261 165.463476 
L 361.44615 167.556244 
L 363.62504 167.450408 
L 365.803929 164.462667 
L 367.982819 163.578713 
L 370.161708 164.136107 
L 372.340598 162.609739 
L 374.519487 161.5864 
L 376.698377 161.267824 
L 378.877267 161.488435 
L 381.056156 158.494124 
L 383.235046 159.667198 
L 385.413935 160.479434 
L 387.592825 162.716513 
L 391.950604 161.892464 
L 394.129494 164.32736 
L 396.308383 164.232325 
L 398.487273 166.815661 
L 398.487273 166.815661 
" clip-path="url(#p263442aba4)" style="fill: none; stroke: #ff7f0e; stroke-width: 1.5; stroke-linecap: square"/>
   </g>
   <g id="line2d_16">
    <path d="M 73.832727 295.488 
L 115.231629 295.488 
L 121.768298 293.302556 
L 130.483856 289.741631 
L 134.841635 287.662899 
L 137.020525 286.427243 
L 139.199414 285.381723 
L 143.557193 282.823071 
L 145.736083 281.751579 
L 147.914973 280.255512 
L 150.093862 278.560055 
L 154.451641 275.448722 
L 158.80942 272.443833 
L 163.1672 261.785604 
L 165.346089 256.872319 
L 167.524979 251.63152 
L 169.703868 245.503219 
L 174.061647 234.541977 
L 180.598316 215.314 
L 184.956095 201.414698 
L 187.134985 196.181787 
L 189.313874 189.913336 
L 191.492764 184.10729 
L 195.850543 168.924664 
L 198.029433 160.392626 
L 200.208322 154.360048 
L 202.387212 148.83197 
L 204.566101 137.977312 
L 206.744991 129.633746 
L 208.92388 122.038992 
L 211.10277 116.855307 
L 213.28166 112.731089 
L 215.460549 111.158106 
L 217.639439 110.475209 
L 219.818328 111.469392 
L 224.176107 110.814716 
L 226.354997 109.355824 
L 228.533887 110.597896 
L 230.712776 110.848424 
L 232.891666 114.066543 
L 235.070555 116.665493 
L 237.249445 118.787734 
L 239.428334 120.360547 
L 241.607224 121.337025 
L 243.786113 120.759298 
L 245.965003 124.413415 
L 248.143893 123.500787 
L 250.322782 124.740039 
L 252.501672 125.450358 
L 254.680561 127.4109 
L 256.859451 130.752911 
L 259.03834 128.03966 
L 265.575009 135.115796 
L 267.753899 133.998827 
L 272.111678 130.807789 
L 276.469457 128.080309 
L 278.648347 131.615084 
L 280.827236 131.654141 
L 283.006126 132.940915 
L 285.185015 131.933808 
L 287.363905 136.020735 
L 291.721684 133.477512 
L 293.900574 134.028591 
L 298.258353 144.663642 
L 300.437242 146.187187 
L 302.616132 148.27326 
L 304.795021 145.033114 
L 309.1528 151.38279 
L 311.33169 150.175495 
L 313.51058 147.196148 
L 315.689469 149.074643 
L 317.868359 153.707276 
L 320.047248 156.903357 
L 322.226138 164.798173 
L 324.405027 162.398647 
L 326.583917 164.53437 
L 328.762807 165.141206 
L 330.941696 162.07364 
L 333.120586 166.895234 
L 335.299475 167.860458 
L 337.478365 172.18897 
L 339.657254 170.663536 
L 341.836144 170.043144 
L 344.015034 176.395142 
L 346.193923 174.818723 
L 348.372813 170.315061 
L 350.551702 171.703824 
L 352.730592 172.900009 
L 354.909481 170.293816 
L 359.267261 170.070509 
L 361.44615 168.895649 
L 365.803929 169.801035 
L 367.982819 173.476307 
L 370.161708 172.756888 
L 372.340598 171.540137 
L 374.519487 172.468132 
L 376.698377 173.979771 
L 378.877267 174.885097 
L 381.056156 174.721146 
L 383.235046 179.339421 
L 385.413935 177.553213 
L 387.592825 178.825032 
L 389.771714 178.663577 
L 391.950604 178.67449 
L 394.129494 178.366206 
L 396.308383 176.993146 
L 398.487273 179.057484 
L 398.487273 179.057484 
" clip-path="url(#p263442aba4)" style="fill: none; stroke: #2ca02c; stroke-width: 1.5; stroke-linecap: square"/>
   </g>
   <g id="line2d_17">
    <path d="M 73.832727 295.488 
L 115.231629 295.488 
L 121.768298 293.200751 
L 128.304966 290.646395 
L 130.483856 289.813566 
L 132.662746 288.841644 
L 137.020525 286.472357 
L 143.557193 282.721865 
L 145.736083 281.644222 
L 147.914973 280.196565 
L 152.272752 276.713005 
L 154.451641 275.545997 
L 156.630531 273.290046 
L 158.80942 271.526044 
L 160.98831 265.945522 
L 163.1672 260.965334 
L 167.524979 249.700131 
L 171.882758 237.437156 
L 176.240537 226.569663 
L 178.419426 220.489605 
L 180.598316 213.757897 
L 182.777206 206.181065 
L 184.956095 199.641799 
L 187.134985 193.508982 
L 189.313874 186.656827 
L 191.492764 180.97236 
L 193.671653 173.438586 
L 195.850543 167.408896 
L 200.208322 152.898564 
L 202.387212 149.891472 
L 204.566101 140.491645 
L 206.744991 132.791519 
L 208.92388 129.366238 
L 211.10277 125.36313 
L 213.28166 122.210964 
L 215.460549 119.689303 
L 217.639439 115.985552 
L 221.997218 112.942247 
L 224.176107 114.614674 
L 226.354997 115.806339 
L 228.533887 117.914877 
L 230.712776 116.367372 
L 232.891666 115.137365 
L 235.070555 116.061188 
L 237.249445 119.329723 
L 239.428334 123.479074 
L 241.607224 122.109738 
L 243.786113 121.459894 
L 245.965003 118.441933 
L 248.143893 119.532594 
L 250.322782 121.676527 
L 252.501672 122.198439 
L 254.680561 120.565974 
L 256.859451 115.98361 
L 259.03834 118.518988 
L 261.21723 121.554495 
L 263.39612 119.193599 
L 265.575009 120.934339 
L 267.753899 126.970283 
L 269.932788 129.141778 
L 272.111678 128.768243 
L 274.290567 132.364147 
L 276.469457 134.705051 
L 278.648347 138.082462 
L 280.827236 137.755623 
L 283.006126 136.167713 
L 285.185015 134.174276 
L 287.363905 133.077544 
L 289.542794 129.289241 
L 291.721684 130.420974 
L 293.900574 128.34573 
L 296.079463 129.224836 
L 298.258353 129.701854 
L 300.437242 135.223039 
L 302.616132 134.926355 
L 304.795021 137.299078 
L 306.973911 137.709723 
L 309.1528 139.375956 
L 311.33169 140.027152 
L 313.51058 141.501203 
L 315.689469 139.570136 
L 317.868359 145.862874 
L 320.047248 147.445418 
L 322.226138 147.032813 
L 324.405027 141.939277 
L 326.583917 142.463286 
L 328.762807 147.052263 
L 330.941696 157.729721 
L 333.120586 157.04907 
L 335.299475 152.938603 
L 337.478365 150.836025 
L 339.657254 152.231093 
L 341.836144 150.922492 
L 344.015034 152.995788 
L 346.193923 149.840502 
L 348.372813 144.62438 
L 350.551702 141.193403 
L 352.730592 142.449209 
L 354.909481 145.914824 
L 357.088371 149.034026 
L 359.267261 152.62842 
L 361.44615 149.169486 
L 363.62504 150.535603 
L 365.803929 147.920308 
L 367.982819 146.629742 
L 370.161708 151.293284 
L 372.340598 155.179787 
L 374.519487 154.946163 
L 376.698377 150.679605 
L 378.877267 150.182294 
L 381.056156 146.312198 
L 383.235046 149.540522 
L 385.413935 147.206642 
L 387.592825 145.569466 
L 389.771714 147.759283 
L 391.950604 149.110732 
L 394.129494 150.967297 
L 396.308383 150.729559 
L 398.487273 151.99039 
L 398.487273 151.99039 
" clip-path="url(#p263442aba4)" style="fill: none; stroke: #d62728; stroke-width: 1.5; stroke-linecap: square"/>
   </g>
   <g id="line2d_18">
    <path d="M 73.832727 295.488 
L 115.231629 295.488 
L 123.947187 292.473176 
L 134.841635 287.570416 
L 137.020525 286.318249 
L 143.557193 281.909876 
L 145.736083 280.806704 
L 150.093862 277.93094 
L 152.272752 276.186427 
L 154.451641 274.752467 
L 158.80942 271.482657 
L 165.346089 254.701648 
L 174.061647 229.192559 
L 176.240537 223.446273 
L 180.598316 210.627644 
L 182.777206 205.408411 
L 184.956095 199.809106 
L 187.134985 195.286003 
L 191.492764 184.68134 
L 193.671653 178.012543 
L 195.850543 173.097335 
L 198.029433 167.883104 
L 200.208322 164.070615 
L 202.387212 159.733997 
L 206.744991 140.969291 
L 208.92388 134.637268 
L 211.10277 129.041422 
L 213.28166 124.764401 
L 215.460549 122.659462 
L 217.639439 120.753066 
L 219.818328 120.083853 
L 221.997218 118.855676 
L 224.176107 115.010644 
L 226.354997 112.822172 
L 228.533887 113.2419 
L 230.712776 112.275706 
L 232.891666 109.917824 
L 235.070555 109.308531 
L 237.249445 108.216246 
L 239.428334 112.281101 
L 241.607224 110.605572 
L 243.786113 113.03056 
L 245.965003 110.836572 
L 248.143893 111.575664 
L 250.322782 108.740882 
L 252.501672 111.572349 
L 254.680561 113.269016 
L 256.859451 116.630629 
L 261.21723 118.281579 
L 263.39612 119.5701 
L 265.575009 123.162273 
L 267.753899 124.697369 
L 269.932788 124.509452 
L 272.111678 124.808347 
L 274.290567 124.500801 
L 276.469457 125.82998 
L 278.648347 126.502119 
L 280.827236 126.114967 
L 283.006126 124.165982 
L 285.185015 125.069192 
L 287.363905 130.471558 
L 289.542794 132.72423 
L 291.721684 129.861888 
L 293.900574 130.876138 
L 296.079463 128.976639 
L 298.258353 132.486246 
L 300.437242 137.064279 
L 302.616132 140.207492 
L 304.795021 139.368089 
L 306.973911 140.16462 
L 309.1528 137.725104 
L 311.33169 139.897614 
L 313.51058 143.159395 
L 315.689469 144.60305 
L 317.868359 142.867171 
L 320.047248 141.607577 
L 322.226138 139.850835 
L 324.405027 142.79896 
L 326.583917 148.926451 
L 328.762807 154.560854 
L 330.941696 155.48291 
L 333.120586 158.958988 
L 335.299475 157.854227 
L 337.478365 160.083915 
L 339.657254 160.144743 
L 341.836144 165.695507 
L 344.015034 169.83445 
L 346.193923 167.441073 
L 348.372813 168.325133 
L 350.551702 170.095605 
L 352.730592 168.070176 
L 354.909481 168.043175 
L 357.088371 170.383228 
L 359.267261 170.994529 
L 361.44615 171.926986 
L 363.62504 171.435591 
L 365.803929 169.208762 
L 367.982819 165.714124 
L 370.161708 168.894884 
L 372.340598 169.175576 
L 374.519487 170.038955 
L 376.698377 173.768558 
L 378.877267 175.466277 
L 381.056156 175.434801 
L 383.235046 175.561503 
L 385.413935 176.818592 
L 387.592825 176.335503 
L 389.771714 177.340017 
L 391.950604 177.567316 
L 394.129494 177.433846 
L 398.487273 172.162469 
L 398.487273 172.162469 
" clip-path="url(#p263442aba4)" style="fill: none; stroke: #9467bd; stroke-width: 1.5; stroke-linecap: square"/>
   </g>
   <g id="line2d_19">
    <path d="M 73.832727 295.488 
L 115.231629 295.488 
L 119.589408 294.074354 
L 128.304966 290.742494 
L 130.483856 289.824898 
L 132.662746 288.707663 
L 134.841635 287.348457 
L 137.020525 286.349812 
L 139.199414 284.816538 
L 147.914973 280.125758 
L 152.272752 276.798743 
L 154.451641 275.325374 
L 156.630531 273.500133 
L 158.80942 271.923215 
L 160.98831 266.481603 
L 163.1672 261.736311 
L 167.524979 250.232083 
L 169.703868 244.532129 
L 171.882758 238.482352 
L 176.240537 227.43561 
L 178.419426 220.062406 
L 180.598316 215.123751 
L 182.777206 209.847061 
L 187.134985 198.213787 
L 189.313874 193.24467 
L 191.492764 186.86541 
L 193.671653 181.882249 
L 195.850543 178.15883 
L 200.208322 167.717865 
L 202.387212 164.168695 
L 206.744991 146.696695 
L 208.92388 142.345104 
L 211.10277 137.095572 
L 213.28166 131.025173 
L 215.460549 125.476845 
L 217.639439 122.947314 
L 219.818328 119.295365 
L 221.997218 118.145518 
L 224.176107 117.603345 
L 226.354997 119.689967 
L 228.533887 118.713108 
L 230.712776 117.522093 
L 232.891666 119.132358 
L 235.070555 119.62261 
L 237.249445 119.86623 
L 239.428334 118.532627 
L 241.607224 115.657533 
L 243.786113 118.506929 
L 245.965003 119.868633 
L 248.143893 123.700468 
L 250.322782 122.163038 
L 252.501672 123.620164 
L 254.680561 122.312973 
L 256.859451 122.342797 
L 259.03834 123.047349 
L 261.21723 121.162124 
L 263.39612 120.834916 
L 267.753899 114.083617 
L 269.932788 114.819402 
L 272.111678 112.223766 
L 274.290567 109.211257 
L 276.469457 111.387888 
L 278.648347 112.137784 
L 280.827236 112.617294 
L 283.006126 113.331193 
L 285.185015 115.140297 
L 287.363905 116.619274 
L 289.542794 120.962746 
L 291.721684 120.438784 
L 293.900574 120.489136 
L 296.079463 124.402977 
L 298.258353 127.644911 
L 300.437242 130.559403 
L 302.616132 131.615485 
L 304.795021 136.797519 
L 306.973911 139.935481 
L 309.1528 137.463391 
L 311.33169 138.632831 
L 313.51058 137.89723 
L 315.689469 136.857949 
L 317.868359 138.020458 
L 320.047248 135.438541 
L 322.226138 136.102646 
L 324.405027 135.605897 
L 326.583917 132.130151 
L 328.762807 134.700264 
L 330.941696 131.900477 
L 333.120586 137.356038 
L 335.299475 142.235155 
L 337.478365 141.259989 
L 339.657254 143.338486 
L 341.836144 142.340017 
L 344.015034 145.088827 
L 346.193923 144.663642 
L 348.372813 147.520937 
L 350.551702 151.960852 
L 352.730592 149.219524 
L 354.909481 154.02919 
L 357.088371 157.27319 
L 359.267261 155.82506 
L 363.62504 159.069065 
L 365.803929 161.601249 
L 367.982819 168.66558 
L 370.161708 170.047291 
L 372.340598 172.096976 
L 374.519487 171.410675 
L 376.698377 177.585198 
L 378.877267 176.834215 
L 381.056156 171.381596 
L 383.235046 173.04743 
L 385.413935 175.702958 
L 387.592825 179.548902 
L 389.771714 179.057684 
L 391.950604 179.328066 
L 394.129494 178.458622 
L 396.308383 177.371886 
L 398.487273 174.19213 
L 398.487273 174.19213 
" clip-path="url(#p263442aba4)" style="fill: none; stroke: #8c564b; stroke-width: 1.5; stroke-linecap: square"/>
   </g>
   <g id="patch_3">
    <path d="M 57.6 307.584 
L 57.6 41.472 
" style="fill: none; stroke: #000000; stroke-width: 0.8; stroke-linejoin: miter; stroke-linecap: square"/>
   </g>
   <g id="patch_4">
    <path d="M 414.72 307.584 
L 414.72 41.472 
" style="fill: none; stroke: #000000; stroke-width: 0.8; stroke-linejoin: miter; stroke-linecap: square"/>
   </g>
   <g id="patch_5">
    <path d="M 57.6 307.584 
L 414.72 307.584 
" style="fill: none; stroke: #000000; stroke-width: 0.8; stroke-linejoin: miter; stroke-linecap: square"/>
   </g>
   <g id="patch_6">
    <path d="M 57.6 41.472 
L 414.72 41.472 
" style="fill: none; stroke: #000000; stroke-width: 0.8; stroke-linejoin: miter; stroke-linecap: square"/>
   </g>
   <g id="text_16">
    <!-- Quarantine Efficiency vs Time (SBM-5k-Low) -->
    <g transform="translate(103.298438 35.472) scale(0.12 -0.12)">
     <defs>
      <path id="DejaVuSans-75" d="M 544 1381 
L 544 3500 
L 1119 3500 
L 1119 1403 
Q 1119 906 1312 657 
Q 1506 409 1894 409 
Q 2359 409 2629 706 
Q 2900 1003 2900 1516 
L 2900 3500 
L 3475 3500 
L 3475 0 
L 2900 0 
L 2900 538 
Q 2691 219 2414 64 
Q 2138 -91 1772 -91 
Q 1169 -91 856 284 
Q 544 659 544 1381 
z
M 1991 3584 
L 1991 3584 
z
" transform="scale(0.015625)"/>
      <path id="DejaVuSans-72" d="M 2631 2963 
Q 2534 3019 2420 3045 
Q 2306 3072 2169 3072 
Q 1681 3072 1420 2755 
Q 1159 2438 1159 1844 
L 1159 0 
L 581 0 
L 581 3500 
L 1159 3500 
L 1159 2956 
Q 1341 3275 1631 3429 
Q 1922 3584 2338 3584 
Q 2397 3584 2469 3576 
Q 2541 3569 2628 3553 
L 2631 2963 
z
" transform="scale(0.015625)"/>
      <path id="DejaVuSans-6e" d="M 3513 2113 
L 3513 0 
L 2938 0 
L 2938 2094 
Q 2938 2591 2744 2837 
Q 2550 3084 2163 3084 
Q 1697 3084 1428 2787 
Q 1159 2491 1159 1978 
L 1159 0 
L 581 0 
L 581 3500 
L 1159 3500 
L 1159 2956 
Q 1366 3272 1645 3428 
Q 1925 3584 2291 3584 
Q 2894 3584 3203 3211 
Q 3513 2838 3513 2113 
z
" transform="scale(0.015625)"/>
      <path id="DejaVuSans-74" d="M 1172 4494 
L 1172 3500 
L 2356 3500 
L 2356 3053 
L 1172 3053 
L 1172 1153 
Q 1172 725 1289 603 
Q 1406 481 1766 481 
L 2356 481 
L 2356 0 
L 1766 0 
Q 1100 0 847 248 
Q 594 497 594 1153 
L 594 3053 
L 172 3053 
L 172 3500 
L 594 3500 
L 594 4494 
L 1172 4494 
z
" transform="scale(0.015625)"/>
      <path id="DejaVuSans-69" d="M 603 3500 
L 1178 3500 
L 1178 0 
L 603 0 
L 603 3500 
z
M 603 4863 
L 1178 4863 
L 1178 4134 
L 603 4134 
L 603 4863 
z
" transform="scale(0.015625)"/>
      <path id="DejaVuSans-65" d="M 3597 1894 
L 3597 1613 
L 953 1613 
Q 991 1019 1311 708 
Q 1631 397 2203 397 
Q 2534 397 2845 478 
Q 3156 559 3463 722 
L 3463 178 
Q 3153 47 2828 -22 
Q 2503 -91 2169 -91 
Q 1331 -91 842 396 
Q 353 884 353 1716 
Q 353 2575 817 3079 
Q 1281 3584 2069 3584 
Q 2775 3584 3186 3129 
Q 3597 2675 3597 1894 
z
M 3022 2063 
Q 3016 2534 2758 2815 
Q 2500 3097 2075 3097 
Q 1594 3097 1305 2825 
Q 1016 2553 972 2059 
L 3022 2063 
z
" transform="scale(0.015625)"/>
      <path id="DejaVuSans-66" d="M 2375 4863 
L 2375 4384 
L 1825 4384 
Q 1516 4384 1395 4259 
Q 1275 4134 1275 3809 
L 1275 3500 
L 2222 3500 
L 2222 3053 
L 1275 3053 
L 1275 0 
L 697 0 
L 697 3053 
L 147 3053 
L 147 3500 
L 697 3500 
L 697 3744 
Q 697 4328 969 4595 
Q 1241 4863 1831 4863 
L 2375 4863 
z
" transform="scale(0.015625)"/>
      <path id="DejaVuSans-63" d="M 3122 3366 
L 3122 2828 
Q 2878 2963 2633 3030 
Q 2388 3097 2138 3097 
Q 1578 3097 1268 2742 
Q 959 2388 959 1747 
Q 959 1106 1268 751 
Q 1578 397 2138 397 
Q 2388 397 2633 464 
Q 2878 531 3122 666 
L 3122 134 
Q 2881 22 2623 -34 
Q 2366 -91 2075 -91 
Q 1284 -91 818 406 
Q 353 903 353 1747 
Q 353 2603 823 3093 
Q 1294 3584 2113 3584 
Q 2378 3584 2631 3529 
Q 2884 3475 3122 3366 
z
" transform="scale(0.015625)"/>
      <path id="DejaVuSans-76" d="M 191 3500 
L 800 3500 
L 1894 563 
L 2988 3500 
L 3597 3500 
L 2284 0 
L 1503 0 
L 191 3500 
z
" transform="scale(0.015625)"/>
      <path id="DejaVuSans-73" d="M 2834 3397 
L 2834 2853 
Q 2591 2978 2328 3040 
Q 2066 3103 1784 3103 
Q 1356 3103 1142 2972 
Q 928 2841 928 2578 
Q 928 2378 1081 2264 
Q 1234 2150 1697 2047 
L 1894 2003 
Q 2506 1872 2764 1633 
Q 3022 1394 3022 966 
Q 3022 478 2636 193 
Q 2250 -91 1575 -91 
Q 1294 -91 989 -36 
Q 684 19 347 128 
L 347 722 
Q 666 556 975 473 
Q 1284 391 1588 391 
Q 1994 391 2212 530 
Q 2431 669 2431 922 
Q 2431 1156 2273 1281 
Q 2116 1406 1581 1522 
L 1381 1569 
Q 847 1681 609 1914 
Q 372 2147 372 2553 
Q 372 3047 722 3315 
Q 1072 3584 1716 3584 
Q 2034 3584 2315 3537 
Q 2597 3491 2834 3397 
z
" transform="scale(0.015625)"/>
      <path id="DejaVuSans-54" d="M -19 4666 
L 3928 4666 
L 3928 4134 
L 2272 4134 
L 2272 0 
L 1638 0 
L 1638 4134 
L -19 4134 
L -19 4666 
z
" transform="scale(0.015625)"/>
      <path id="DejaVuSans-6d" d="M 3328 2828 
Q 3544 3216 3844 3400 
Q 4144 3584 4550 3584 
Q 5097 3584 5394 3201 
Q 5691 2819 5691 2113 
L 5691 0 
L 5113 0 
L 5113 2094 
Q 5113 2597 4934 2840 
Q 4756 3084 4391 3084 
Q 3944 3084 3684 2787 
Q 3425 2491 3425 1978 
L 3425 0 
L 2847 0 
L 2847 2094 
Q 2847 2600 2669 2842 
Q 2491 3084 2119 3084 
Q 1678 3084 1418 2786 
Q 1159 2488 1159 1978 
L 1159 0 
L 581 0 
L 581 3500 
L 1159 3500 
L 1159 2956 
Q 1356 3278 1631 3431 
Q 1906 3584 2284 3584 
Q 2666 3584 2933 3390 
Q 3200 3197 3328 2828 
z
" transform="scale(0.015625)"/>
      <path id="DejaVuSans-53" d="M 3425 4513 
L 3425 3897 
Q 3066 4069 2747 4153 
Q 2428 4238 2131 4238 
Q 1616 4238 1336 4038 
Q 1056 3838 1056 3469 
Q 1056 3159 1242 3001 
Q 1428 2844 1947 2747 
L 2328 2669 
Q 3034 2534 3370 2195 
Q 3706 1856 3706 1288 
Q 3706 609 3251 259 
Q 2797 -91 1919 -91 
Q 1588 -91 1214 -16 
Q 841 59 441 206 
L 441 856 
Q 825 641 1194 531 
Q 1563 422 1919 422 
Q 2459 422 2753 634 
Q 3047 847 3047 1241 
Q 3047 1584 2836 1778 
Q 2625 1972 2144 2069 
L 1759 2144 
Q 1053 2284 737 2584 
Q 422 2884 422 3419 
Q 422 4038 858 4394 
Q 1294 4750 2059 4750 
Q 2388 4750 2728 4690 
Q 3069 4631 3425 4513 
z
" transform="scale(0.015625)"/>
      <path id="DejaVuSans-42" d="M 1259 2228 
L 1259 519 
L 2272 519 
Q 2781 519 3026 730 
Q 3272 941 3272 1375 
Q 3272 1813 3026 2020 
Q 2781 2228 2272 2228 
L 1259 2228 
z
M 1259 4147 
L 1259 2741 
L 2194 2741 
Q 2656 2741 2882 2914 
Q 3109 3088 3109 3444 
Q 3109 3797 2882 3972 
Q 2656 4147 2194 4147 
L 1259 4147 
z
M 628 4666 
L 2241 4666 
Q 2963 4666 3353 4366 
Q 3744 4066 3744 3513 
Q 3744 3084 3544 2831 
Q 3344 2578 2956 2516 
Q 3422 2416 3680 2098 
Q 3938 1781 3938 1306 
Q 3938 681 3513 340 
Q 3088 0 2303 0 
L 628 0 
L 628 4666 
z
" transform="scale(0.015625)"/>
      <path id="DejaVuSans-4d" d="M 628 4666 
L 1569 4666 
L 2759 1491 
L 3956 4666 
L 4897 4666 
L 4897 0 
L 4281 0 
L 4281 4097 
L 3078 897 
L 2444 897 
L 1241 4097 
L 1241 0 
L 628 0 
L 628 4666 
z
" transform="scale(0.015625)"/>
      <path id="DejaVuSans-2d" d="M 313 2009 
L 1997 2009 
L 1997 1497 
L 313 1497 
L 313 2009 
z
" transform="scale(0.015625)"/>
      <path id="DejaVuSans-35" d="M 691 4666 
L 3169 4666 
L 3169 4134 
L 1269 4134 
L 1269 2991 
Q 1406 3038 1543 3061 
Q 1681 3084 1819 3084 
Q 2600 3084 3056 2656 
Q 3513 2228 3513 1497 
Q 3513 744 3044 326 
Q 2575 -91 1722 -91 
Q 1428 -91 1123 -41 
Q 819 9 494 109 
L 494 744 
Q 775 591 1075 516 
Q 1375 441 1709 441 
Q 2250 441 2565 725 
Q 2881 1009 2881 1497 
Q 2881 1984 2565 2268 
Q 2250 2553 1709 2553 
Q 1456 2553 1204 2497 
Q 953 2441 691 2322 
L 691 4666 
z
" transform="scale(0.015625)"/>
      <path id="DejaVuSans-6b" d="M 581 4863 
L 1159 4863 
L 1159 1991 
L 2875 3500 
L 3609 3500 
L 1753 1863 
L 3688 0 
L 2938 0 
L 1159 1709 
L 1159 0 
L 581 0 
L 581 4863 
z
" transform="scale(0.015625)"/>
      <path id="DejaVuSans-4c" d="M 628 4666 
L 1259 4666 
L 1259 531 
L 3531 531 
L 3531 0 
L 628 0 
L 628 4666 
z
" transform="scale(0.015625)"/>
      <path id="DejaVuSans-6f" d="M 1959 3097 
Q 1497 3097 1228 2736 
Q 959 2375 959 1747 
Q 959 1119 1226 758 
Q 1494 397 1959 397 
Q 2419 397 2687 759 
Q 2956 1122 2956 1747 
Q 2956 2369 2687 2733 
Q 2419 3097 1959 3097 
z
M 1959 3584 
Q 2709 3584 3137 3096 
Q 3566 2609 3566 1747 
Q 3566 888 3137 398 
Q 2709 -91 1959 -91 
Q 1206 -91 779 398 
Q 353 888 353 1747 
Q 353 2609 779 3096 
Q 1206 3584 1959 3584 
z
" transform="scale(0.015625)"/>
      <path id="DejaVuSans-77" d="M 269 3500 
L 844 3500 
L 1563 769 
L 2278 3500 
L 2956 3500 
L 3675 769 
L 4391 3500 
L 4966 3500 
L 4050 0 
L 3372 0 
L 2619 2869 
L 1863 0 
L 1184 0 
L 269 3500 
z
" transform="scale(0.015625)"/>
     </defs>
     <use xlink:href="#DejaVuSans-51"/>
     <use xlink:href="#DejaVuSans-75" transform="translate(78.710938 0)"/>
     <use xlink:href="#DejaVuSans-61" transform="translate(142.089844 0)"/>
     <use xlink:href="#DejaVuSans-72" transform="translate(203.369141 0)"/>
     <use xlink:href="#DejaVuSans-61" transform="translate(244.482422 0)"/>
     <use xlink:href="#DejaVuSans-6e" transform="translate(305.761719 0)"/>
     <use xlink:href="#DejaVuSans-74" transform="translate(369.140625 0)"/>
     <use xlink:href="#DejaVuSans-69" transform="translate(408.349609 0)"/>
     <use xlink:href="#DejaVuSans-6e" transform="translate(436.132812 0)"/>
     <use xlink:href="#DejaVuSans-65" transform="translate(499.511719 0)"/>
     <use xlink:href="#DejaVuSans-20" transform="translate(561.035156 0)"/>
     <use xlink:href="#DejaVuSans-45" transform="translate(592.822266 0)"/>
     <use xlink:href="#DejaVuSans-66" transform="translate(656.005859 0)"/>
     <use xlink:href="#DejaVuSans-66" transform="translate(691.210938 0)"/>
     <use xlink:href="#DejaVuSans-69" transform="translate(726.416016 0)"/>
     <use xlink:href="#DejaVuSans-63" transform="translate(754.199219 0)"/>
     <use xlink:href="#DejaVuSans-69" transform="translate(809.179688 0)"/>
     <use xlink:href="#DejaVuSans-65" transform="translate(836.962891 0)"/>
     <use xlink:href="#DejaVuSans-6e" transform="translate(898.486328 0)"/>
     <use xlink:href="#DejaVuSans-63" transform="translate(961.865234 0)"/>
     <use xlink:href="#DejaVuSans-79" transform="translate(1016.845703 0)"/>
     <use xlink:href="#DejaVuSans-20" transform="translate(1076.025391 0)"/>
     <use xlink:href="#DejaVuSans-76" transform="translate(1107.8125 0)"/>
     <use xlink:href="#DejaVuSans-73" transform="translate(1166.992188 0)"/>
     <use xlink:href="#DejaVuSans-20" transform="translate(1219.091797 0)"/>
     <use xlink:href="#DejaVuSans-54" transform="translate(1250.878906 0)"/>
     <use xlink:href="#DejaVuSans-69" transform="translate(1308.837891 0)"/>
     <use xlink:href="#DejaVuSans-6d" transform="translate(1336.621094 0)"/>
     <use xlink:href="#DejaVuSans-65" transform="translate(1434.033203 0)"/>
     <use xlink:href="#DejaVuSans-20" transform="translate(1495.556641 0)"/>
     <use xlink:href="#DejaVuSans-28" transform="translate(1527.34375 0)"/>
     <use xlink:href="#DejaVuSans-53" transform="translate(1566.357422 0)"/>
     <use xlink:href="#DejaVuSans-42" transform="translate(1629.833984 0)"/>
     <use xlink:href="#DejaVuSans-4d" transform="translate(1698.4375 0)"/>
     <use xlink:href="#DejaVuSans-2d" transform="translate(1784.716797 0)"/>
     <use xlink:href="#DejaVuSans-35" transform="translate(1820.800781 0)"/>
     <use xlink:href="#DejaVuSans-6b" transform="translate(1884.423828 0)"/>
     <use xlink:href="#DejaVuSans-2d" transform="translate(1942.333984 0)"/>
     <use xlink:href="#DejaVuSans-4c" transform="translate(1978.417969 0)"/>
     <use xlink:href="#DejaVuSans-6f" transform="translate(2032.380859 0)"/>
     <use xlink:href="#DejaVuSans-77" transform="translate(2093.5625 0)"/>
     <use xlink:href="#DejaVuSans-29" transform="translate(2175.349609 0)"/>
    </g>
   </g>
   <g id="legend_1">
    <g id="patch_7">
     <path d="M 289.559063 302.584 
L 407.72 302.584 
Q 409.72 302.584 409.72 300.584 
L 409.72 213.51525 
Q 409.72 211.51525 407.72 211.51525 
L 289.559063 211.51525 
Q 287.559063 211.51525 287.559063 213.51525 
L 287.559063 300.584 
Q 287.559063 302.584 289.559063 302.584 
z
" style="fill: #ffffff; opacity: 0.8; stroke: #cccccc; stroke-linejoin: miter"/>
    </g>
    <g id="line2d_20">
     <path d="M 291.559063 219.613687 
L 301.559063 219.613687 
L 311.559063 219.613687 
" style="fill: none; stroke: #1f77b4; stroke-width: 1.5; stroke-linecap: square"/>
    </g>
    <g id="text_17">
     <!-- LocalGNTS-14 -->
     <g transform="translate(319.559063 223.113687) scale(0.1 -0.1)">
      <defs>
       <path id="DejaVuSans-6c" d="M 603 4863 
L 1178 4863 
L 1178 0 
L 603 0 
L 603 4863 
z
" transform="scale(0.015625)"/>
       <path id="DejaVuSans-47" d="M 3809 666 
L 3809 1919 
L 2778 1919 
L 2778 2438 
L 4434 2438 
L 4434 434 
Q 4069 175 3628 42 
Q 3188 -91 2688 -91 
Q 1594 -91 976 548 
Q 359 1188 359 2328 
Q 359 3472 976 4111 
Q 1594 4750 2688 4750 
Q 3144 4750 3555 4637 
Q 3966 4525 4313 4306 
L 4313 3634 
Q 3963 3931 3569 4081 
Q 3175 4231 2741 4231 
Q 1884 4231 1454 3753 
Q 1025 3275 1025 2328 
Q 1025 1384 1454 906 
Q 1884 428 2741 428 
Q 3075 428 3337 486 
Q 3600 544 3809 666 
z
" transform="scale(0.015625)"/>
       <path id="DejaVuSans-4e" d="M 628 4666 
L 1478 4666 
L 3547 763 
L 3547 4666 
L 4159 4666 
L 4159 0 
L 3309 0 
L 1241 3903 
L 1241 0 
L 628 0 
L 628 4666 
z
" transform="scale(0.015625)"/>
      </defs>
      <use xlink:href="#DejaVuSans-4c"/>
      <use xlink:href="#DejaVuSans-6f" transform="translate(53.962891 0)"/>
      <use xlink:href="#DejaVuSans-63" transform="translate(115.144531 0)"/>
      <use xlink:href="#DejaVuSans-61" transform="translate(170.125 0)"/>
      <use xlink:href="#DejaVuSans-6c" transform="translate(231.404297 0)"/>
      <use xlink:href="#DejaVuSans-47" transform="translate(259.1875 0)"/>
      <use xlink:href="#DejaVuSans-4e" transform="translate(336.677734 0)"/>
      <use xlink:href="#DejaVuSans-54" transform="translate(411.482422 0)"/>
      <use xlink:href="#DejaVuSans-53" transform="translate(472.566406 0)"/>
      <use xlink:href="#DejaVuSans-2d" transform="translate(536.042969 0)"/>
      <use xlink:href="#DejaVuSans-31" transform="translate(572.126953 0)"/>
      <use xlink:href="#DejaVuSans-34" transform="translate(635.75 0)"/>
     </g>
    </g>
    <g id="line2d_21">
     <path d="M 291.559063 234.291812 
L 301.559063 234.291812 
L 311.559063 234.291812 
" style="fill: none; stroke: #ff7f0e; stroke-width: 1.5; stroke-linecap: square"/>
    </g>
    <g id="text_18">
     <!-- GlobalGNTS-14 -->
     <g transform="translate(319.559063 237.791812) scale(0.1 -0.1)">
      <defs>
       <path id="DejaVuSans-62" d="M 3116 1747 
Q 3116 2381 2855 2742 
Q 2594 3103 2138 3103 
Q 1681 3103 1420 2742 
Q 1159 2381 1159 1747 
Q 1159 1113 1420 752 
Q 1681 391 2138 391 
Q 2594 391 2855 752 
Q 3116 1113 3116 1747 
z
M 1159 2969 
Q 1341 3281 1617 3432 
Q 1894 3584 2278 3584 
Q 2916 3584 3314 3078 
Q 3713 2572 3713 1747 
Q 3713 922 3314 415 
Q 2916 -91 2278 -91 
Q 1894 -91 1617 61 
Q 1341 213 1159 525 
L 1159 0 
L 581 0 
L 581 4863 
L 1159 4863 
L 1159 2969 
z
" transform="scale(0.015625)"/>
      </defs>
      <use xlink:href="#DejaVuSans-47"/>
      <use xlink:href="#DejaVuSans-6c" transform="translate(77.490234 0)"/>
      <use xlink:href="#DejaVuSans-6f" transform="translate(105.273438 0)"/>
      <use xlink:href="#DejaVuSans-62" transform="translate(166.455078 0)"/>
      <use xlink:href="#DejaVuSans-61" transform="translate(229.931641 0)"/>
      <use xlink:href="#DejaVuSans-6c" transform="translate(291.210938 0)"/>
      <use xlink:href="#DejaVuSans-47" transform="translate(318.994141 0)"/>
      <use xlink:href="#DejaVuSans-4e" transform="translate(396.484375 0)"/>
      <use xlink:href="#DejaVuSans-54" transform="translate(471.289062 0)"/>
      <use xlink:href="#DejaVuSans-53" transform="translate(532.373047 0)"/>
      <use xlink:href="#DejaVuSans-2d" transform="translate(595.849609 0)"/>
      <use xlink:href="#DejaVuSans-31" transform="translate(631.933594 0)"/>
      <use xlink:href="#DejaVuSans-34" transform="translate(695.556641 0)"/>
     </g>
    </g>
    <g id="line2d_22">
     <path d="M 291.559063 248.969937 
L 301.559063 248.969937 
L 311.559063 248.969937 
" style="fill: none; stroke: #2ca02c; stroke-width: 1.5; stroke-linecap: square"/>
    </g>
    <g id="text_19">
     <!-- Beta-Binomial-14 -->
     <g transform="translate(319.559063 252.469937) scale(0.1 -0.1)">
      <use xlink:href="#DejaVuSans-42"/>
      <use xlink:href="#DejaVuSans-65" transform="translate(68.603516 0)"/>
      <use xlink:href="#DejaVuSans-74" transform="translate(130.126953 0)"/>
      <use xlink:href="#DejaVuSans-61" transform="translate(169.335938 0)"/>
      <use xlink:href="#DejaVuSans-2d" transform="translate(230.615234 0)"/>
      <use xlink:href="#DejaVuSans-42" transform="translate(263.074219 0)"/>
      <use xlink:href="#DejaVuSans-69" transform="translate(331.677734 0)"/>
      <use xlink:href="#DejaVuSans-6e" transform="translate(359.460938 0)"/>
      <use xlink:href="#DejaVuSans-6f" transform="translate(422.839844 0)"/>
      <use xlink:href="#DejaVuSans-6d" transform="translate(484.021484 0)"/>
      <use xlink:href="#DejaVuSans-69" transform="translate(581.433594 0)"/>
      <use xlink:href="#DejaVuSans-61" transform="translate(609.216797 0)"/>
      <use xlink:href="#DejaVuSans-6c" transform="translate(670.496094 0)"/>
      <use xlink:href="#DejaVuSans-2d" transform="translate(698.279297 0)"/>
      <use xlink:href="#DejaVuSans-31" transform="translate(734.363281 0)"/>
      <use xlink:href="#DejaVuSans-34" transform="translate(797.986328 0)"/>
     </g>
    </g>
    <g id="line2d_23">
     <path d="M 291.559063 263.648062 
L 301.559063 263.648062 
L 311.559063 263.648062 
" style="fill: none; stroke: #d62728; stroke-width: 1.5; stroke-linecap: square"/>
    </g>
    <g id="text_20">
     <!-- Proportional -->
     <g transform="translate(319.559063 267.148062) scale(0.1 -0.1)">
      <defs>
       <path id="DejaVuSans-50" d="M 1259 4147 
L 1259 2394 
L 2053 2394 
Q 2494 2394 2734 2622 
Q 2975 2850 2975 3272 
Q 2975 3691 2734 3919 
Q 2494 4147 2053 4147 
L 1259 4147 
z
M 628 4666 
L 2053 4666 
Q 2838 4666 3239 4311 
Q 3641 3956 3641 3272 
Q 3641 2581 3239 2228 
Q 2838 1875 2053 1875 
L 1259 1875 
L 1259 0 
L 628 0 
L 628 4666 
z
" transform="scale(0.015625)"/>
       <path id="DejaVuSans-70" d="M 1159 525 
L 1159 -1331 
L 581 -1331 
L 581 3500 
L 1159 3500 
L 1159 2969 
Q 1341 3281 1617 3432 
Q 1894 3584 2278 3584 
Q 2916 3584 3314 3078 
Q 3713 2572 3713 1747 
Q 3713 922 3314 415 
Q 2916 -91 2278 -91 
Q 1894 -91 1617 61 
Q 1341 213 1159 525 
z
M 3116 1747 
Q 3116 2381 2855 2742 
Q 2594 3103 2138 3103 
Q 1681 3103 1420 2742 
Q 1159 2381 1159 1747 
Q 1159 1113 1420 752 
Q 1681 391 2138 391 
Q 2594 391 2855 752 
Q 3116 1113 3116 1747 
z
" transform="scale(0.015625)"/>
      </defs>
      <use xlink:href="#DejaVuSans-50"/>
      <use xlink:href="#DejaVuSans-72" transform="translate(58.552734 0)"/>
      <use xlink:href="#DejaVuSans-6f" transform="translate(97.416016 0)"/>
      <use xlink:href="#DejaVuSans-70" transform="translate(158.597656 0)"/>
      <use xlink:href="#DejaVuSans-6f" transform="translate(222.074219 0)"/>
      <use xlink:href="#DejaVuSans-72" transform="translate(283.255859 0)"/>
      <use xlink:href="#DejaVuSans-74" transform="translate(324.369141 0)"/>
      <use xlink:href="#DejaVuSans-69" transform="translate(363.578125 0)"/>
      <use xlink:href="#DejaVuSans-6f" transform="translate(391.361328 0)"/>
      <use xlink:href="#DejaVuSans-6e" transform="translate(452.542969 0)"/>
      <use xlink:href="#DejaVuSans-61" transform="translate(515.921875 0)"/>
      <use xlink:href="#DejaVuSans-6c" transform="translate(577.201172 0)"/>
     </g>
    </g>
    <g id="line2d_24">
     <path d="M 291.559063 278.326188 
L 301.559063 278.326188 
L 311.559063 278.326188 
" style="fill: none; stroke: #9467bd; stroke-width: 1.5; stroke-linecap: square"/>
    </g>
    <g id="text_21">
     <!-- Uniform -->
     <g transform="translate(319.559063 281.826188) scale(0.1 -0.1)">
      <defs>
       <path id="DejaVuSans-55" d="M 556 4666 
L 1191 4666 
L 1191 1831 
Q 1191 1081 1462 751 
Q 1734 422 2344 422 
Q 2950 422 3222 751 
Q 3494 1081 3494 1831 
L 3494 4666 
L 4128 4666 
L 4128 1753 
Q 4128 841 3676 375 
Q 3225 -91 2344 -91 
Q 1459 -91 1007 375 
Q 556 841 556 1753 
L 556 4666 
z
" transform="scale(0.015625)"/>
      </defs>
      <use xlink:href="#DejaVuSans-55"/>
      <use xlink:href="#DejaVuSans-6e" transform="translate(73.193359 0)"/>
      <use xlink:href="#DejaVuSans-69" transform="translate(136.572266 0)"/>
      <use xlink:href="#DejaVuSans-66" transform="translate(164.355469 0)"/>
      <use xlink:href="#DejaVuSans-6f" transform="translate(199.560547 0)"/>
      <use xlink:href="#DejaVuSans-72" transform="translate(260.742188 0)"/>
      <use xlink:href="#DejaVuSans-6d" transform="translate(300.105469 0)"/>
     </g>
    </g>
    <g id="line2d_25">
     <path d="M 291.559063 293.004312 
L 301.559063 293.004312 
L 311.559063 293.004312 
" style="fill: none; stroke: #8c564b; stroke-width: 1.5; stroke-linecap: square"/>
    </g>
    <g id="text_22">
     <!-- Random -->
     <g transform="translate(319.559063 296.504312) scale(0.1 -0.1)">
      <defs>
       <path id="DejaVuSans-52" d="M 2841 2188 
Q 3044 2119 3236 1894 
Q 3428 1669 3622 1275 
L 4263 0 
L 3584 0 
L 2988 1197 
Q 2756 1666 2539 1819 
Q 2322 1972 1947 1972 
L 1259 1972 
L 1259 0 
L 628 0 
L 628 4666 
L 2053 4666 
Q 2853 4666 3247 4331 
Q 3641 3997 3641 3322 
Q 3641 2881 3436 2590 
Q 3231 2300 2841 2188 
z
M 1259 4147 
L 1259 2491 
L 2053 2491 
Q 2509 2491 2742 2702 
Q 2975 2913 2975 3322 
Q 2975 3731 2742 3939 
Q 2509 4147 2053 4147 
L 1259 4147 
z
" transform="scale(0.015625)"/>
       <path id="DejaVuSans-64" d="M 2906 2969 
L 2906 4863 
L 3481 4863 
L 3481 0 
L 2906 0 
L 2906 525 
Q 2725 213 2448 61 
Q 2172 -91 1784 -91 
Q 1150 -91 751 415 
Q 353 922 353 1747 
Q 353 2572 751 3078 
Q 1150 3584 1784 3584 
Q 2172 3584 2448 3432 
Q 2725 3281 2906 2969 
z
M 947 1747 
Q 947 1113 1208 752 
Q 1469 391 1925 391 
Q 2381 391 2643 752 
Q 2906 1113 2906 1747 
Q 2906 2381 2643 2742 
Q 2381 3103 1925 3103 
Q 1469 3103 1208 2742 
Q 947 2381 947 1747 
z
" transform="scale(0.015625)"/>
      </defs>
      <use xlink:href="#DejaVuSans-52"/>
      <use xlink:href="#DejaVuSans-61" transform="translate(67.232422 0)"/>
      <use xlink:href="#DejaVuSans-6e" transform="translate(128.511719 0)"/>
      <use xlink:href="#DejaVuSans-64" transform="translate(191.890625 0)"/>
      <use xlink:href="#DejaVuSans-6f" transform="translate(255.367188 0)"/>
      <use xlink:href="#DejaVuSans-6d" transform="translate(316.548828 0)"/>
     </g>
    </g>
   </g>
  </g>
 </g>
 <defs>
  <clipPath id="p263442aba4">
   <rect x="57.6" y="41.472" width="357.12" height="266.112"/>
  </clipPath>
 </defs>
</svg>
