<?xml version="1.0" encoding="utf-8" standalone="no"?>
<!DOCTYPE svg PUBLIC "-//W3C//DTD SVG 1.1//EN"
  "http://www.w3.org/Graphics/SVG/1.1/DTD/svg11.dtd">
<svg xmlns:xlink="http://www.w3.org/1999/xlink" width="460.8pt" height="345.6pt" viewBox="0 0 460.8 345.6" xmlns="http://www.w3.org/2000/svg" version="1.1">
 <metadata>
  <rdf:RDF xmlns:dc="http://purl.org/dc/elements/1.1/" xmlns:cc="http://creativecommons.org/ns#" xmlns:rdf="http://www.w3.org/1999/02/22-rdf-syntax-ns#">
   <cc:Work>
    <dc:type rdf:resource="http://purl.org/dc/dcmitype/StillImage"/>
    <dc:date>2026-04-06T19:14:01.933428</dc:date>
    <dc:format>image/svg+xml</dc:format>
    <dc:creator>
     <cc:Agent>
      <dc:title>Matplotlib v3.10.8, https://matplotlib.org/</dc:title>
     </cc:Agent>
    </dc:creator>
   </cc:Work>
  </rdf:RDF>
 </metadata>
 <defs>
  <style type="text/css">*{stroke-linejoin: round; stroke-linecap: butt}</style>
 </defs>
 <g id="figure_1">
  <g id="patch_1">
   <path d="M 0 345.6 
L 460.8 345.6 
L 460.8 0 
L 0 0 
z
" style="fill: #ffffff"/>
  </g>
  <g id="axes_1">
   <g id="patch_2">
    <path d="M 57.6 307.584 
L 414.72 307.584 
L 414.72 41.472 
L 57.6 41.472 
z
" style="fill: #ffffff"/>
   </g>
   <g id="matplotlib.axis_1">
    <g id="xtick_1">
     <g id="line2d_1">
      <defs>
       <path id="m14c4d32b13" d="M 0 0 
L 0 3.5 
" style="stroke: #000000; stroke-width: 0.8"/>
      </defs>
      <g>
       <use xlink:href="#m14c4d32b13" x="73.832727" y="307.584" style="stroke: #000000; stroke-width: 0.8"/>
      </g>
     </g>
     <g id="text_1">
      <!-- 0 -->
      <g transform="translate(70.651477 322.182437) scale(0.1 -0.1)">
       <defs>
        <path id="DejaVuSans-30" d="M 2034 4250 
Q 1547 4250 1301 3770 
Q 1056 3291 1056 2328 
Q 1056 1369 1301 889 
Q 1547 409 2034 409 
Q 2525 409 2770 889 
Q 3016 1369 3016 2328 
Q 3016 3291 2770 3770 
Q 2525 4250 2034 4250 
z
M 2034 4750 
Q 2819 4750 3233 4129 
Q 3647 3509 3647 2328 
Q 3647 1150 3233 529 
Q 2819 -91 2034 -91 
Q 1250 -91 836 529 
Q 422 1150 422 2328 
Q 422 3509 836 4129 
Q 1250 4750 2034 4750 
z
" transform="scale(0.015625)"/>
       </defs>
       <use xlink:href="#DejaVuSans-30"/>
      </g>
     </g>
    </g>
    <g id="xtick_2">
     <g id="line2d_2">
      <g>
       <use xlink:href="#m14c4d32b13" x="117.410519" y="307.584" style="stroke: #000000; stroke-width: 0.8"/>
      </g>
     </g>
     <g id="text_2">
      <!-- 20 -->
      <g transform="translate(111.048019 322.182437) scale(0.1 -0.1)">
       <defs>
        <path id="DejaVuSans-32" d="M 1228 531 
L 3431 531 
L 3431 0 
L 469 0 
L 469 531 
Q 828 903 1448 1529 
Q 2069 2156 2228 2338 
Q 2531 2678 2651 2914 
Q 2772 3150 2772 3378 
Q 2772 3750 2511 3984 
Q 2250 4219 1831 4219 
Q 1534 4219 1204 4116 
Q 875 4013 500 3803 
L 500 4441 
Q 881 4594 1212 4672 
Q 1544 4750 1819 4750 
Q 2544 4750 2975 4387 
Q 3406 4025 3406 3419 
Q 3406 3131 3298 2873 
Q 3191 2616 2906 2266 
Q 2828 2175 2409 1742 
Q 1991 1309 1228 531 
z
" transform="scale(0.015625)"/>
       </defs>
       <use xlink:href="#DejaVuSans-32"/>
       <use xlink:href="#DejaVuSans-30" transform="translate(63.623047 0)"/>
      </g>
     </g>
    </g>
    <g id="xtick_3">
     <g id="line2d_3">
      <g>
       <use xlink:href="#m14c4d32b13" x="160.98831" y="307.584" style="stroke: #000000; stroke-width: 0.8"/>
      </g>
     </g>
     <g id="text_3">
      <!-- 40 -->
      <g transform="translate(154.62581 322.182437) scale(0.1 -0.1)">
       <defs>
        <path id="DejaVuSans-34" d="M 2419 4116 
L 825 1625 
L 2419 1625 
L 2419 4116 
z
M 2253 4666 
L 3047 4666 
L 3047 1625 
L 3713 1625 
L 3713 1100 
L 3047 1100 
L 3047 0 
L 2419 0 
L 2419 1100 
L 313 1100 
L 313 1709 
L 2253 4666 
z
" transform="scale(0.015625)"/>
       </defs>
       <use xlink:href="#DejaVuSans-34"/>
       <use xlink:href="#DejaVuSans-30" transform="translate(63.623047 0)"/>
      </g>
     </g>
    </g>
    <g id="xtick_4">
     <g id="line2d_4">
      <g>
       <use xlink:href="#m14c4d32b13" x="204.566101" y="307.584" style="stroke: #000000; stroke-width: 0.8"/>
      </g>
     </g>
     <g id="text_4">
      <!-- 60 -->
      <g transform="translate(198.203601 322.182437) scale(0.1 -0.1)">
       <defs>
        <path id="DejaVuSans-36" d="M 2113 2584 
Q 1688 2584 1439 2293 
Q 1191 2003 1191 1497 
Q 1191 994 1439 701 
Q 1688 409 2113 409 
Q 2538 409 2786 701 
Q 3034 994 3034 1497 
Q 3034 2003 2786 2293 
Q 2538 2584 2113 2584 
z
M 3366 4563 
L 3366 3988 
Q 3128 4100 2886 4159 
Q 2644 4219 2406 4219 
Q 1781 4219 1451 3797 
Q 1122 3375 1075 2522 
Q 1259 2794 1537 2939 
Q 1816 3084 2150 3084 
Q 2853 3084 3261 2657 
Q 3669 2231 3669 1497 
Q 3669 778 3244 343 
Q 2819 -91 2113 -91 
Q 1303 -91 875 529 
Q 447 1150 447 2328 
Q 447 3434 972 4092 
Q 1497 4750 2381 4750 
Q 2619 4750 2861 4703 
Q 3103 4656 3366 4563 
z
" transform="scale(0.015625)"/>
       </defs>
       <use xlink:href="#DejaVuSans-36"/>
       <use xlink:href="#DejaVuSans-30" transform="translate(63.623047 0)"/>
      </g>
     </g>
    </g>
    <g id="xtick_5">
     <g id="line2d_5">
      <g>
       <use xlink:href="#m14c4d32b13" x="248.143893" y="307.584" style="stroke: #000000; stroke-width: 0.8"/>
      </g>
     </g>
     <g id="text_5">
      <!-- 80 -->
      <g transform="translate(241.781393 322.182437) scale(0.1 -0.1)">
       <defs>
        <path id="DejaVuSans-38" d="M 2034 2216 
Q 1584 2216 1326 1975 
Q 1069 1734 1069 1313 
Q 1069 891 1326 650 
Q 1584 409 2034 409 
Q 2484 409 2743 651 
Q 3003 894 3003 1313 
Q 3003 1734 2745 1975 
Q 2488 2216 2034 2216 
z
M 1403 2484 
Q 997 2584 770 2862 
Q 544 3141 544 3541 
Q 544 4100 942 4425 
Q 1341 4750 2034 4750 
Q 2731 4750 3128 4425 
Q 3525 4100 3525 3541 
Q 3525 3141 3298 2862 
Q 3072 2584 2669 2484 
Q 3125 2378 3379 2068 
Q 3634 1759 3634 1313 
Q 3634 634 3220 271 
Q 2806 -91 2034 -91 
Q 1263 -91 848 271 
Q 434 634 434 1313 
Q 434 1759 690 2068 
Q 947 2378 1403 2484 
z
M 1172 3481 
Q 1172 3119 1398 2916 
Q 1625 2713 2034 2713 
Q 2441 2713 2670 2916 
Q 2900 3119 2900 3481 
Q 2900 3844 2670 4047 
Q 2441 4250 2034 4250 
Q 1625 4250 1398 4047 
Q 1172 3844 1172 3481 
z
" transform="scale(0.015625)"/>
       </defs>
       <use xlink:href="#DejaVuSans-38"/>
       <use xlink:href="#DejaVuSans-30" transform="translate(63.623047 0)"/>
      </g>
     </g>
    </g>
    <g id="xtick_6">
     <g id="line2d_6">
      <g>
       <use xlink:href="#m14c4d32b13" x="291.721684" y="307.584" style="stroke: #000000; stroke-width: 0.8"/>
      </g>
     </g>
     <g id="text_6">
      <!-- 100 -->
      <g transform="translate(282.177934 322.182437) scale(0.1 -0.1)">
       <defs>
        <path id="DejaVuSans-31" d="M 794 531 
L 1825 531 
L 1825 4091 
L 703 3866 
L 703 4441 
L 1819 4666 
L 2450 4666 
L 2450 531 
L 3481 531 
L 3481 0 
L 794 0 
L 794 531 
z
" transform="scale(0.015625)"/>
       </defs>
       <use xlink:href="#DejaVuSans-31"/>
       <use xlink:href="#DejaVuSans-30" transform="translate(63.623047 0)"/>
       <use xlink:href="#DejaVuSans-30" transform="translate(127.246094 0)"/>
      </g>
     </g>
    </g>
    <g id="xtick_7">
     <g id="line2d_7">
      <g>
       <use xlink:href="#m14c4d32b13" x="335.299475" y="307.584" style="stroke: #000000; stroke-width: 0.8"/>
      </g>
     </g>
     <g id="text_7">
      <!-- 120 -->
      <g transform="translate(325.755725 322.182437) scale(0.1 -0.1)">
       <use xlink:href="#DejaVuSans-31"/>
       <use xlink:href="#DejaVuSans-32" transform="translate(63.623047 0)"/>
       <use xlink:href="#DejaVuSans-30" transform="translate(127.246094 0)"/>
      </g>
     </g>
    </g>
    <g id="xtick_8">
     <g id="line2d_8">
      <g>
       <use xlink:href="#m14c4d32b13" x="378.877267" y="307.584" style="stroke: #000000; stroke-width: 0.8"/>
      </g>
     </g>
     <g id="text_8">
      <!-- 140 -->
      <g transform="translate(369.333517 322.182437) scale(0.1 -0.1)">
       <use xlink:href="#DejaVuSans-31"/>
       <use xlink:href="#DejaVuSans-34" transform="translate(63.623047 0)"/>
       <use xlink:href="#DejaVuSans-30" transform="translate(127.246094 0)"/>
      </g>
     </g>
    </g>
    <g id="text_9">
     <!-- Day -->
     <g transform="translate(226.286563 335.860562) scale(0.1 -0.1)">
      <defs>
       <path id="DejaVuSans-44" d="M 1259 4147 
L 1259 519 
L 2022 519 
Q 2988 519 3436 956 
Q 3884 1394 3884 2338 
Q 3884 3275 3436 3711 
Q 2988 4147 2022 4147 
L 1259 4147 
z
M 628 4666 
L 1925 4666 
Q 3281 4666 3915 4102 
Q 4550 3538 4550 2338 
Q 4550 1131 3912 565 
Q 3275 0 1925 0 
L 628 0 
L 628 4666 
z
" transform="scale(0.015625)"/>
       <path id="DejaVuSans-61" d="M 2194 1759 
Q 1497 1759 1228 1600 
Q 959 1441 959 1056 
Q 959 750 1161 570 
Q 1363 391 1709 391 
Q 2188 391 2477 730 
Q 2766 1069 2766 1631 
L 2766 1759 
L 2194 1759 
z
M 3341 1997 
L 3341 0 
L 2766 0 
L 2766 531 
Q 2569 213 2275 61 
Q 1981 -91 1556 -91 
Q 1019 -91 701 211 
Q 384 513 384 1019 
Q 384 1609 779 1909 
Q 1175 2209 1959 2209 
L 2766 2209 
L 2766 2266 
Q 2766 2663 2505 2880 
Q 2244 3097 1772 3097 
Q 1472 3097 1187 3025 
Q 903 2953 641 2809 
L 641 3341 
Q 956 3463 1253 3523 
Q 1550 3584 1831 3584 
Q 2591 3584 2966 3190 
Q 3341 2797 3341 1997 
z
" transform="scale(0.015625)"/>
       <path id="DejaVuSans-79" d="M 2059 -325 
Q 1816 -950 1584 -1140 
Q 1353 -1331 966 -1331 
L 506 -1331 
L 506 -850 
L 844 -850 
Q 1081 -850 1212 -737 
Q 1344 -625 1503 -206 
L 1606 56 
L 191 3500 
L 800 3500 
L 1894 763 
L 2988 3500 
L 3597 3500 
L 2059 -325 
z
" transform="scale(0.015625)"/>
      </defs>
      <use xlink:href="#DejaVuSans-44"/>
      <use xlink:href="#DejaVuSans-61" transform="translate(77.001953 0)"/>
      <use xlink:href="#DejaVuSans-79" transform="translate(138.28125 0)"/>
     </g>
    </g>
   </g>
   <g id="matplotlib.axis_2">
    <g id="ytick_1">
     <g id="line2d_9">
      <defs>
       <path id="md2cf0fdea9" d="M 0 0 
L -3.5 0 
" style="stroke: #000000; stroke-width: 0.8"/>
      </defs>
      <g>
       <use xlink:href="#md2cf0fdea9" x="57.6" y="295.488" style="stroke: #000000; stroke-width: 0.8"/>
      </g>
     </g>
     <g id="text_10">
      <!-- 0.0 -->
      <g transform="translate(34.696875 299.287219) scale(0.1 -0.1)">
       <defs>
        <path id="DejaVuSans-2e" d="M 684 794 
L 1344 794 
L 1344 0 
L 684 0 
L 684 794 
z
" transform="scale(0.015625)"/>
       </defs>
       <use xlink:href="#DejaVuSans-30"/>
       <use xlink:href="#DejaVuSans-2e" transform="translate(63.623047 0)"/>
       <use xlink:href="#DejaVuSans-30" transform="translate(95.410156 0)"/>
      </g>
     </g>
    </g>
    <g id="ytick_2">
     <g id="line2d_10">
      <g>
       <use xlink:href="#md2cf0fdea9" x="57.6" y="240.031193" style="stroke: #000000; stroke-width: 0.8"/>
      </g>
     </g>
     <g id="text_11">
      <!-- 0.2 -->
      <g transform="translate(34.696875 243.830412) scale(0.1 -0.1)">
       <use xlink:href="#DejaVuSans-30"/>
       <use xlink:href="#DejaVuSans-2e" transform="translate(63.623047 0)"/>
       <use xlink:href="#DejaVuSans-32" transform="translate(95.410156 0)"/>
      </g>
     </g>
    </g>
    <g id="ytick_3">
     <g id="line2d_11">
      <g>
       <use xlink:href="#md2cf0fdea9" x="57.6" y="184.574387" style="stroke: #000000; stroke-width: 0.8"/>
      </g>
     </g>
     <g id="text_12">
      <!-- 0.4 -->
      <g transform="translate(34.696875 188.373606) scale(0.1 -0.1)">
       <use xlink:href="#DejaVuSans-30"/>
       <use xlink:href="#DejaVuSans-2e" transform="translate(63.623047 0)"/>
       <use xlink:href="#DejaVuSans-34" transform="translate(95.410156 0)"/>
      </g>
     </g>
    </g>
    <g id="ytick_4">
     <g id="line2d_12">
      <g>
       <use xlink:href="#md2cf0fdea9" x="57.6" y="129.11758" style="stroke: #000000; stroke-width: 0.8"/>
      </g>
     </g>
     <g id="text_13">
      <!-- 0.6 -->
      <g transform="translate(34.696875 132.916799) scale(0.1 -0.1)">
       <use xlink:href="#DejaVuSans-30"/>
       <use xlink:href="#DejaVuSans-2e" transform="translate(63.623047 0)"/>
       <use xlink:href="#DejaVuSans-36" transform="translate(95.410156 0)"/>
      </g>
     </g>
    </g>
    <g id="ytick_5">
     <g id="line2d_13">
      <g>
       <use xlink:href="#md2cf0fdea9" x="57.6" y="73.660774" style="stroke: #000000; stroke-width: 0.8"/>
      </g>
     </g>
     <g id="text_14">
      <!-- 0.8 -->
      <g transform="translate(34.696875 77.459993) scale(0.1 -0.1)">
       <use xlink:href="#DejaVuSans-30"/>
       <use xlink:href="#DejaVuSans-2e" transform="translate(63.623047 0)"/>
       <use xlink:href="#DejaVuSans-38" transform="translate(95.410156 0)"/>
      </g>
     </g>
    </g>
    <g id="text_15">
     <!-- Q / (E+I+A+Q) -->
     <g transform="translate(28.617187 211.788156) rotate(-90) scale(0.1 -0.1)">
      <defs>
       <path id="DejaVuSans-51" d="M 2522 4238 
Q 1834 4238 1429 3725 
Q 1025 3213 1025 2328 
Q 1025 1447 1429 934 
Q 1834 422 2522 422 
Q 3209 422 3611 934 
Q 4013 1447 4013 2328 
Q 4013 3213 3611 3725 
Q 3209 4238 2522 4238 
z
M 3406 84 
L 4238 -825 
L 3475 -825 
L 2784 -78 
Q 2681 -84 2626 -87 
Q 2572 -91 2522 -91 
Q 1538 -91 948 567 
Q 359 1225 359 2328 
Q 359 3434 948 4092 
Q 1538 4750 2522 4750 
Q 3503 4750 4090 4092 
Q 4678 3434 4678 2328 
Q 4678 1516 4351 937 
Q 4025 359 3406 84 
z
" transform="scale(0.015625)"/>
       <path id="DejaVuSans-20" transform="scale(0.015625)"/>
       <path id="DejaVuSans-2f" d="M 1625 4666 
L 2156 4666 
L 531 -594 
L 0 -594 
L 1625 4666 
z
" transform="scale(0.015625)"/>
       <path id="DejaVuSans-28" d="M 1984 4856 
Q 1566 4138 1362 3434 
Q 1159 2731 1159 2009 
Q 1159 1288 1364 580 
Q 1569 -128 1984 -844 
L 1484 -844 
Q 1016 -109 783 600 
Q 550 1309 550 2009 
Q 550 2706 781 3412 
Q 1013 4119 1484 4856 
L 1984 4856 
z
" transform="scale(0.015625)"/>
       <path id="DejaVuSans-45" d="M 628 4666 
L 3578 4666 
L 3578 4134 
L 1259 4134 
L 1259 2753 
L 3481 2753 
L 3481 2222 
L 1259 2222 
L 1259 531 
L 3634 531 
L 3634 0 
L 628 0 
L 628 4666 
z
" transform="scale(0.015625)"/>
       <path id="DejaVuSans-2b" d="M 2944 4013 
L 2944 2272 
L 4684 2272 
L 4684 1741 
L 2944 1741 
L 2944 0 
L 2419 0 
L 2419 1741 
L 678 1741 
L 678 2272 
L 2419 2272 
L 2419 4013 
L 2944 4013 
z
" transform="scale(0.015625)"/>
       <path id="DejaVuSans-49" d="M 628 4666 
L 1259 4666 
L 1259 0 
L 628 0 
L 628 4666 
z
" transform="scale(0.015625)"/>
       <path id="DejaVuSans-41" d="M 2188 4044 
L 1331 1722 
L 3047 1722 
L 2188 4044 
z
M 1831 4666 
L 2547 4666 
L 4325 0 
L 3669 0 
L 3244 1197 
L 1141 1197 
L 716 0 
L 50 0 
L 1831 4666 
z
" transform="scale(0.015625)"/>
       <path id="DejaVuSans-29" d="M 513 4856 
L 1013 4856 
Q 1481 4119 1714 3412 
Q 1947 2706 1947 2009 
Q 1947 1309 1714 600 
Q 1481 -109 1013 -844 
L 513 -844 
Q 928 -128 1133 580 
Q 1338 1288 1338 2009 
Q 1338 2731 1133 3434 
Q 928 4138 513 4856 
z
" transform="scale(0.015625)"/>
      </defs>
      <use xlink:href="#DejaVuSans-51"/>
      <use xlink:href="#DejaVuSans-20" transform="translate(78.710938 0)"/>
      <use xlink:href="#DejaVuSans-2f" transform="translate(110.498047 0)"/>
      <use xlink:href="#DejaVuSans-20" transform="translate(144.189453 0)"/>
      <use xlink:href="#DejaVuSans-28" transform="translate(175.976562 0)"/>
      <use xlink:href="#DejaVuSans-45" transform="translate(214.990234 0)"/>
      <use xlink:href="#DejaVuSans-2b" transform="translate(278.173828 0)"/>
      <use xlink:href="#DejaVuSans-49" transform="translate(361.962891 0)"/>
      <use xlink:href="#DejaVuSans-2b" transform="translate(391.455078 0)"/>
      <use xlink:href="#DejaVuSans-41" transform="translate(475.244141 0)"/>
      <use xlink:href="#DejaVuSans-2b" transform="translate(543.652344 0)"/>
      <use xlink:href="#DejaVuSans-51" transform="translate(627.441406 0)"/>
      <use xlink:href="#DejaVuSans-29" transform="translate(706.152344 0)"/>
     </g>
    </g>
   </g>
   <g id="line2d_14">
    <path d="M 73.832727 295.488 
L 115.231629 295.488 
L 117.410519 293.43643 
L 119.589408 290.411121 
L 121.768298 287.138719 
L 123.947187 283.145739 
L 126.126077 278.802727 
L 128.304966 274.069593 
L 134.841635 258.568768 
L 137.020525 252.089336 
L 139.199414 246.293972 
L 143.557193 233.809803 
L 145.736083 226.895691 
L 147.914973 219.49134 
L 150.093862 212.492566 
L 154.451641 196.609333 
L 156.630531 188.065373 
L 158.80942 180.224421 
L 160.98831 153.166702 
L 163.1672 129.994137 
L 165.346089 108.679566 
L 167.524979 89.688676 
L 169.703868 74.235819 
L 171.882758 65.110688 
L 174.061647 59.359592 
L 176.240537 58.693834 
L 178.419426 59.095823 
L 180.598316 59.744646 
L 182.777206 60.05248 
L 184.956095 61.99125 
L 187.134985 63.481709 
L 189.313874 64.417973 
L 191.492764 68.040152 
L 193.671653 68.726614 
L 195.850543 69.563117 
L 198.029433 72.58479 
L 200.208322 74.917672 
L 202.387212 78.419764 
L 204.566101 79.54102 
L 206.744991 79.744046 
L 211.10277 87.95259 
L 213.28166 90.202611 
L 215.460549 92.873184 
L 217.639439 94.430312 
L 219.818328 97.205437 
L 221.997218 98.961775 
L 224.176107 98.439347 
L 226.354997 98.705783 
L 228.533887 104.376832 
L 230.712776 105.608717 
L 232.891666 105.997705 
L 235.070555 108.452072 
L 237.249445 111.895642 
L 239.428334 116.977782 
L 241.607224 118.171423 
L 243.786113 118.854102 
L 245.965003 120.269936 
L 248.143893 123.106322 
L 250.322782 124.555429 
L 252.501672 125.036344 
L 256.859451 126.679919 
L 259.03834 128.570309 
L 261.21723 130.803564 
L 263.39612 133.489445 
L 265.575009 139.350332 
L 267.753899 139.733266 
L 269.932788 137.205031 
L 272.111678 138.37008 
L 274.290567 137.415648 
L 276.469457 135.092529 
L 278.648347 136.957628 
L 280.827236 142.169594 
L 283.006126 142.93877 
L 285.185015 143.447213 
L 287.363905 144.777954 
L 289.542794 148.284425 
L 291.721684 149.210626 
L 293.900574 155.403162 
L 296.079463 155.458302 
L 298.258353 155.36582 
L 300.437242 156.724687 
L 302.616132 160.664008 
L 304.795021 162.37285 
L 306.973911 160.780732 
L 309.1528 161.688881 
L 311.33169 164.235813 
L 313.51058 166.030471 
L 315.689469 165.356255 
L 317.868359 165.458594 
L 320.047248 166.675846 
L 322.226138 163.994555 
L 324.405027 163.693728 
L 326.583917 165.035401 
L 328.762807 167.93368 
L 330.941696 168.111202 
L 333.120586 166.566273 
L 335.299475 166.396146 
L 337.478365 164.907494 
L 339.657254 164.431024 
L 341.836144 163.137302 
L 344.015034 160.733143 
L 348.372813 162.756249 
L 350.551702 162.806819 
L 352.730592 161.304822 
L 354.909481 159.559135 
L 357.088371 158.447239 
L 359.267261 154.26752 
L 361.44615 154.745347 
L 363.62504 154.222672 
L 365.803929 153.53726 
L 370.161708 157.346496 
L 372.340598 154.340773 
L 374.519487 152.144211 
L 381.056156 151.898592 
L 383.235046 147.984329 
L 385.413935 147.972443 
L 387.592825 147.220411 
L 389.771714 147.476005 
L 391.950604 146.368838 
L 394.129494 145.920687 
L 396.308383 144.628906 
L 398.487273 145.337719 
L 398.487273 145.337719 
" clip-path="url(#p8c828931a9)" style="fill: none; stroke: #1f77b4; stroke-width: 1.5; stroke-linecap: square"/>
   </g>
   <g id="line2d_15">
    <path d="M 73.832727 295.488 
L 115.231629 295.488 
L 117.410519 293.710428 
L 119.589408 290.762504 
L 121.768298 286.967505 
L 123.947187 282.946065 
L 128.304966 273.812131 
L 130.483856 268.988522 
L 137.020525 253.245626 
L 143.557193 234.749593 
L 147.914973 220.582445 
L 150.093862 214.155772 
L 154.451641 199.613835 
L 158.80942 182.857522 
L 163.1672 133.239291 
L 165.346089 111.84516 
L 167.524979 92.541086 
L 169.703868 76.791961 
L 171.882758 64.847813 
L 174.061647 57.760243 
L 176.240537 55.312918 
L 178.419426 54.302712 
L 180.598316 53.568 
L 182.777206 54.293643 
L 184.956095 55.238119 
L 187.134985 57.815972 
L 189.313874 57.61725 
L 191.492764 57.710152 
L 193.671653 60.543356 
L 195.850543 63.914652 
L 198.029433 68.357212 
L 200.208322 70.280376 
L 202.387212 70.396708 
L 204.566101 73.287898 
L 206.744991 74.832397 
L 208.92388 79.284668 
L 211.10277 82.71574 
L 213.28166 85.596573 
L 215.460549 89.313226 
L 219.818328 94.31675 
L 221.997218 98.809791 
L 224.176107 102.20755 
L 226.354997 104.639754 
L 228.533887 111.128903 
L 230.712776 114.837074 
L 232.891666 117.872882 
L 235.070555 119.55427 
L 237.249445 123.299333 
L 239.428334 126.124173 
L 241.607224 126.247257 
L 243.786113 128.25444 
L 245.965003 132.083484 
L 248.143893 136.197173 
L 250.322782 137.901112 
L 252.501672 136.581798 
L 254.680561 138.000019 
L 256.859451 139.736969 
L 259.03834 138.507093 
L 261.21723 143.761 
L 263.39612 143.607344 
L 265.575009 141.441315 
L 267.753899 141.880552 
L 269.932788 143.429014 
L 272.111678 145.444965 
L 274.290567 142.532739 
L 276.469457 141.441315 
L 278.648347 141.96195 
L 283.006126 148.002283 
L 285.185015 152.382131 
L 287.363905 156.46051 
L 289.542794 158.236195 
L 291.721684 159.790593 
L 293.900574 164.658444 
L 296.079463 165.496881 
L 298.258353 164.061141 
L 300.437242 163.668051 
L 302.616132 166.359584 
L 304.795021 165.32593 
L 306.973911 165.498533 
L 309.1528 163.778085 
L 311.33169 161.337204 
L 313.51058 161.685643 
L 315.689469 162.977347 
L 317.868359 165.50553 
L 320.047248 162.546003 
L 322.226138 161.626743 
L 324.405027 161.713561 
L 326.583917 159.586582 
L 330.941696 158.783407 
L 333.120586 160.564922 
L 335.299475 158.018432 
L 337.478365 158.624357 
L 339.657254 160.604352 
L 341.836144 158.921463 
L 344.015034 156.440598 
L 346.193923 154.607699 
L 348.372813 155.999414 
L 350.551702 150.101938 
L 352.730592 149.065705 
L 354.909481 148.399173 
L 357.088371 149.542408 
L 359.267261 149.7858 
L 361.44615 149.477337 
L 363.62504 149.670651 
L 365.803929 150.382064 
L 367.982819 150.639931 
L 370.161708 152.77532 
L 372.340598 150.170846 
L 374.519487 146.016436 
L 378.877267 141.679225 
L 381.056156 143.005645 
L 383.235046 143.931223 
L 385.413935 141.665335 
L 387.592825 140.866904 
L 389.771714 140.788914 
L 391.950604 136.536144 
L 394.129494 133.587161 
L 396.308383 131.810847 
L 398.487273 133.106751 
L 398.487273 133.106751 
" clip-path="url(#p8c828931a9)" style="fill: none; stroke: #ff7f0e; stroke-width: 1.5; stroke-linecap: square"/>
   </g>
   <g id="line2d_16">
    <path d="M 73.832727 295.488 
L 115.231629 295.488 
L 119.589408 293.916277 
L 126.126077 291.177662 
L 130.483856 289.094019 
L 134.841635 287.005596 
L 137.020525 285.630827 
L 139.199414 284.420135 
L 143.557193 281.369168 
L 145.736083 279.672759 
L 150.093862 276.775581 
L 156.630531 271.386887 
L 158.80942 269.313845 
L 163.1672 258.164546 
L 167.524979 246.357728 
L 169.703868 241.246721 
L 171.882758 235.080672 
L 174.061647 228.392814 
L 176.240537 222.285015 
L 180.598316 208.531471 
L 182.777206 201.698302 
L 184.956095 195.686486 
L 187.134985 189.075751 
L 189.313874 183.392459 
L 191.492764 176.111255 
L 193.671653 171.442502 
L 195.850543 165.852769 
L 198.029433 159.832788 
L 200.208322 154.478925 
L 202.387212 150.01604 
L 204.566101 140.150872 
L 206.744991 133.654495 
L 208.92388 128.828195 
L 211.10277 125.221061 
L 213.28166 124.439821 
L 215.460549 121.875196 
L 217.639439 120.066497 
L 219.818328 119.568096 
L 221.997218 119.377384 
L 224.176107 115.022451 
L 226.354997 116.657349 
L 228.533887 115.746572 
L 230.712776 116.345938 
L 232.891666 114.812468 
L 235.070555 116.489612 
L 237.249445 120.207853 
L 239.428334 119.05399 
L 241.607224 119.896839 
L 243.786113 125.999527 
L 245.965003 125.081022 
L 248.143893 123.858341 
L 250.322782 125.903388 
L 252.501672 129.068634 
L 254.680561 131.089378 
L 256.859451 130.449728 
L 259.03834 132.052338 
L 261.21723 136.858108 
L 263.39612 137.003405 
L 265.575009 141.357366 
L 267.753899 144.150749 
L 269.932788 141.95056 
L 272.111678 143.611389 
L 274.290567 139.925624 
L 276.469457 140.356686 
L 278.648347 142.540588 
L 280.827236 142.928252 
L 283.006126 144.632602 
L 285.185015 146.037511 
L 287.363905 149.732695 
L 289.542794 151.90878 
L 291.721684 152.330822 
L 293.900574 155.674361 
L 296.079463 150.965785 
L 298.258353 154.107054 
L 302.616132 159.973247 
L 304.795021 158.776931 
L 306.973911 160.964063 
L 309.1528 162.164099 
L 311.33169 164.029508 
L 313.51058 164.741844 
L 315.689469 168.552512 
L 317.868359 167.770659 
L 320.047248 174.58178 
L 322.226138 175.240489 
L 324.405027 170.884384 
L 326.583917 172.361159 
L 328.762807 165.370263 
L 330.941696 164.682692 
L 333.120586 164.453227 
L 335.299475 169.31643 
L 337.478365 175.432373 
L 339.657254 179.794225 
L 341.836144 181.183868 
L 344.015034 180.8168 
L 346.193923 173.888885 
L 348.372813 173.525873 
L 350.551702 177.657258 
L 352.730592 174.602018 
L 354.909481 175.289509 
L 357.088371 176.574505 
L 359.267261 181.418729 
L 361.44615 185.04436 
L 363.62504 184.07284 
L 365.803929 184.105408 
L 367.982819 185.004109 
L 370.161708 183.482191 
L 374.519487 182.785458 
L 378.877267 179.808727 
L 381.056156 179.91165 
L 383.235046 183.511626 
L 385.413935 184.838287 
L 387.592825 182.433488 
L 389.771714 181.898435 
L 394.129494 182.207328 
L 396.308383 176.979984 
L 398.487273 172.534654 
L 398.487273 172.534654 
" clip-path="url(#p8c828931a9)" style="fill: none; stroke: #2ca02c; stroke-width: 1.5; stroke-linecap: square"/>
   </g>
   <g id="line2d_17">
    <path d="M 73.832727 295.488 
L 115.231629 295.488 
L 123.947187 292.137258 
L 130.483856 289.071751 
L 137.020525 285.180476 
L 139.199414 283.637723 
L 143.557193 280.901433 
L 147.914973 277.736493 
L 150.093862 275.968005 
L 154.451641 272.851624 
L 156.630531 270.830765 
L 158.80942 269.210291 
L 163.1672 257.451704 
L 165.346089 251.531234 
L 169.703868 240.095904 
L 171.882758 235.12685 
L 174.061647 228.178578 
L 176.240537 221.701137 
L 178.419426 215.67987 
L 180.598316 208.812116 
L 182.777206 201.557317 
L 184.956095 195.127102 
L 187.134985 187.773138 
L 189.313874 181.784222 
L 191.492764 174.85144 
L 193.671653 168.769496 
L 195.850543 161.750399 
L 198.029433 155.626909 
L 200.208322 150.753092 
L 202.387212 147.117766 
L 204.566101 140.801722 
L 206.744991 138.679969 
L 208.92388 133.452622 
L 211.10277 132.371635 
L 213.28166 130.137736 
L 215.460549 130.251132 
L 217.639439 128.456665 
L 219.818328 128.838279 
L 224.176107 124.185124 
L 226.354997 123.949319 
L 228.533887 124.811604 
L 230.712776 126.026663 
L 232.891666 124.338737 
L 235.070555 123.556768 
L 237.249445 125.367832 
L 239.428334 127.455498 
L 241.607224 129.034561 
L 243.786113 128.905913 
L 245.965003 129.942056 
L 248.143893 130.501768 
L 250.322782 130.317145 
L 252.501672 129.77666 
L 256.859451 132.262296 
L 259.03834 132.260471 
L 261.21723 134.435356 
L 263.39612 135.130969 
L 265.575009 137.754728 
L 267.753899 142.188389 
L 269.932788 143.385594 
L 272.111678 139.978557 
L 274.290567 139.463584 
L 276.469457 142.427214 
L 278.648347 146.033823 
L 280.827236 146.667899 
L 283.006126 149.288688 
L 285.185015 149.418733 
L 287.363905 145.326364 
L 289.542794 148.484306 
L 291.721684 149.881029 
L 293.900574 155.29112 
L 296.079463 155.042091 
L 300.437242 150.898519 
L 302.616132 147.42879 
L 304.795021 152.289673 
L 306.973911 153.238199 
L 309.1528 154.943303 
L 311.33169 155.855684 
L 313.51058 157.81891 
L 315.689469 151.657466 
L 317.868359 148.240617 
L 320.047248 147.905183 
L 322.226138 149.486562 
L 324.405027 149.051799 
L 326.583917 146.867515 
L 328.762807 149.292144 
L 330.941696 152.838989 
L 333.120586 156.165254 
L 335.299475 158.948297 
L 337.478365 159.551722 
L 339.657254 163.942252 
L 341.836144 165.883389 
L 344.015034 163.88214 
L 346.193923 166.036639 
L 348.372813 162.182101 
L 350.551702 158.567057 
L 352.730592 159.759816 
L 354.909481 160.091783 
L 357.088371 157.752141 
L 359.267261 158.350077 
L 361.44615 160.269243 
L 363.62504 159.610447 
L 365.803929 160.505157 
L 367.982819 161.032894 
L 370.161708 158.466174 
L 372.340598 157.751155 
L 374.519487 158.913064 
L 376.698377 156.700198 
L 378.877267 158.840833 
L 381.056156 157.55624 
L 383.235046 154.787295 
L 385.413935 156.845984 
L 387.592825 158.632253 
L 389.771714 158.619947 
L 394.129494 159.584913 
L 396.308383 158.514823 
L 398.487273 160.384704 
L 398.487273 160.384704 
" clip-path="url(#p8c828931a9)" style="fill: none; stroke: #d62728; stroke-width: 1.5; stroke-linecap: square"/>
   </g>
   <g id="line2d_18">
    <path d="M 73.832727 295.488 
L 115.231629 295.488 
L 121.768298 293.200459 
L 128.304966 290.447711 
L 132.662746 288.240424 
L 137.020525 286.045339 
L 139.199414 284.521965 
L 141.378304 283.430756 
L 147.914973 278.189333 
L 150.093862 276.560762 
L 152.272752 274.630737 
L 158.80942 269.698896 
L 165.346089 253.077093 
L 171.882758 236.027236 
L 176.240537 223.687391 
L 178.419426 216.825337 
L 180.598316 210.538818 
L 182.777206 203.140222 
L 189.313874 186.781083 
L 191.492764 180.603777 
L 193.671653 175.403591 
L 195.850543 171.391698 
L 198.029433 168.126568 
L 200.208322 165.146298 
L 202.387212 160.915492 
L 204.566101 152.049282 
L 208.92388 139.225718 
L 211.10277 136.465088 
L 213.28166 133.346196 
L 215.460549 133.398654 
L 217.639439 133.224428 
L 219.818328 130.297513 
L 221.997218 129.843692 
L 224.176107 129.52466 
L 226.354997 127.224411 
L 228.533887 126.309213 
L 230.712776 126.315334 
L 232.891666 125.840908 
L 235.070555 123.380669 
L 239.428334 119.98936 
L 241.607224 119.231459 
L 243.786113 121.379421 
L 245.965003 121.38423 
L 248.143893 119.839636 
L 250.322782 122.746675 
L 252.501672 118.550151 
L 254.680561 122.270501 
L 256.859451 123.633361 
L 259.03834 125.500832 
L 261.21723 125.722266 
L 263.39612 127.382961 
L 265.575009 124.969841 
L 267.753899 124.337707 
L 269.932788 125.694981 
L 272.111678 127.299325 
L 276.469457 131.479729 
L 278.648347 136.116983 
L 280.827236 135.027818 
L 283.006126 136.722768 
L 285.185015 141.379387 
L 287.363905 142.332114 
L 289.542794 139.028536 
L 291.721684 140.364066 
L 293.900574 141.137775 
L 296.079463 140.922742 
L 298.258353 142.494097 
L 300.437242 144.612865 
L 302.616132 148.439394 
L 304.795021 148.281226 
L 306.973911 147.018868 
L 309.1528 146.02069 
L 311.33169 147.346438 
L 313.51058 149.736137 
L 315.689469 149.443378 
L 317.868359 154.334353 
L 320.047248 155.243898 
L 322.226138 160.146984 
L 324.405027 157.196385 
L 326.583917 156.960469 
L 328.762807 160.211081 
L 330.941696 159.62996 
L 333.120586 161.269581 
L 335.299475 160.691217 
L 337.478365 164.916191 
L 339.657254 163.447984 
L 341.836144 167.014369 
L 344.015034 168.76201 
L 346.193923 168.001088 
L 348.372813 166.125904 
L 350.551702 161.036215 
L 352.730592 161.335686 
L 354.909481 164.907596 
L 357.088371 169.746916 
L 359.267261 168.992867 
L 361.44615 170.162807 
L 363.62504 165.084474 
L 365.803929 163.58659 
L 367.982819 166.05858 
L 372.340598 167.086175 
L 374.519487 167.190259 
L 376.698377 169.640481 
L 378.877267 168.904773 
L 381.056156 168.410562 
L 383.235046 167.691683 
L 385.413935 167.336793 
L 387.592825 165.538469 
L 389.771714 165.01585 
L 391.950604 163.670332 
L 394.129494 165.828757 
L 396.308383 166.010951 
L 398.487273 165.39988 
L 398.487273 165.39988 
" clip-path="url(#p8c828931a9)" style="fill: none; stroke: #9467bd; stroke-width: 1.5; stroke-linecap: square"/>
   </g>
   <g id="line2d_19">
    <path d="M 73.832727 295.488 
L 115.231629 295.488 
L 119.589408 293.889771 
L 121.768298 293.026899 
L 132.662746 287.900563 
L 141.378304 282.747134 
L 143.557193 281.114375 
L 147.914973 278.482571 
L 150.093862 276.655591 
L 154.451641 273.50651 
L 156.630531 271.781127 
L 158.80942 270.381393 
L 160.98831 264.583938 
L 165.346089 253.974219 
L 167.524979 247.96932 
L 169.703868 242.507058 
L 171.882758 236.511406 
L 174.061647 229.454668 
L 176.240537 223.105207 
L 178.419426 217.263905 
L 180.598316 212.166984 
L 182.777206 206.129049 
L 187.134985 194.810656 
L 189.313874 189.72932 
L 193.671653 179.172622 
L 195.850543 174.182591 
L 198.029433 168.771614 
L 200.208322 165.316426 
L 202.387212 160.025326 
L 204.566101 152.70918 
L 206.744991 144.73402 
L 208.92388 138.773232 
L 211.10277 135.197563 
L 213.28166 132.604059 
L 215.460549 131.504329 
L 217.639439 129.984093 
L 219.818328 129.266658 
L 221.997218 127.399892 
L 224.176107 126.781893 
L 228.533887 127.36178 
L 230.712776 126.942804 
L 232.891666 125.336435 
L 235.070555 125.656037 
L 237.249445 127.063625 
L 239.428334 127.854589 
L 241.607224 127.937648 
L 245.965003 130.698586 
L 248.143893 130.566079 
L 250.322782 131.677125 
L 252.501672 131.300919 
L 256.859451 134.66781 
L 259.03834 133.429857 
L 263.39612 132.817905 
L 265.575009 134.000874 
L 269.932788 131.162301 
L 272.111678 131.365829 
L 274.290567 130.036754 
L 276.469457 130.383718 
L 278.648347 129.57844 
L 280.827236 129.854898 
L 283.006126 129.921302 
L 285.185015 129.008414 
L 289.542794 134.466761 
L 291.721684 136.33681 
L 293.900574 134.679783 
L 296.079463 135.53773 
L 298.258353 139.584231 
L 300.437242 143.18871 
L 302.616132 148.642314 
L 304.795021 151.041109 
L 306.973911 149.225352 
L 309.1528 150.532116 
L 311.33169 155.424677 
L 313.51058 157.233613 
L 315.689469 161.661703 
L 317.868359 160.221398 
L 320.047248 161.541524 
L 322.226138 159.926917 
L 324.405027 162.169063 
L 326.583917 159.709502 
L 328.762807 159.628098 
L 330.941696 158.646529 
L 333.120586 160.457023 
L 337.478365 164.320231 
L 339.657254 162.375281 
L 341.836144 164.39383 
L 344.015034 163.196746 
L 346.193923 164.463677 
L 348.372813 163.740815 
L 350.551702 163.281621 
L 352.730592 164.219591 
L 354.909481 164.067851 
L 357.088371 161.341052 
L 359.267261 162.776733 
L 361.44615 162.411904 
L 363.62504 162.284566 
L 365.803929 161.908295 
L 367.982819 163.879136 
L 370.161708 165.624799 
L 372.340598 166.036859 
L 374.519487 169.614649 
L 376.698377 167.465372 
L 378.877267 167.510754 
L 381.056156 165.351205 
L 383.235046 164.673098 
L 385.413935 164.660597 
L 387.592825 164.267371 
L 389.771714 164.081727 
L 391.950604 161.334856 
L 394.129494 161.915162 
L 396.308383 159.965741 
L 398.487273 159.362284 
L 398.487273 159.362284 
" clip-path="url(#p8c828931a9)" style="fill: none; stroke: #8c564b; stroke-width: 1.5; stroke-linecap: square"/>
   </g>
   <g id="patch_3">
    <path d="M 57.6 307.584 
L 57.6 41.472 
" style="fill: none; stroke: #000000; stroke-width: 0.8; stroke-linejoin: miter; stroke-linecap: square"/>
   </g>
   <g id="patch_4">
    <path d="M 414.72 307.584 
L 414.72 41.472 
" style="fill: none; stroke: #000000; stroke-width: 0.8; stroke-linejoin: miter; stroke-linecap: square"/>
   </g>
   <g id="patch_5">
    <path d="M 57.6 307.584 
L 414.72 307.584 
" style="fill: none; stroke: #000000; stroke-width: 0.8; stroke-linejoin: miter; stroke-linecap: square"/>
   </g>
   <g id="patch_6">
    <path d="M 57.6 41.472 
L 414.72 41.472 
" style="fill: none; stroke: #000000; stroke-width: 0.8; stroke-linejoin: miter; stroke-linecap: square"/>
   </g>
   <g id="text_16">
    <!-- Quarantine Efficiency vs Time (SBM-5k-Zero) -->
    <g transform="translate(101.31 35.472) scale(0.12 -0.12)">
     <defs>
      <path id="DejaVuSans-75" d="M 544 1381 
L 544 3500 
L 1119 3500 
L 1119 1403 
Q 1119 906 1312 657 
Q 1506 409 1894 409 
Q 2359 409 2629 706 
Q 2900 1003 2900 1516 
L 2900 3500 
L 3475 3500 
L 3475 0 
L 2900 0 
L 2900 538 
Q 2691 219 2414 64 
Q 2138 -91 1772 -91 
Q 1169 -91 856 284 
Q 544 659 544 1381 
z
M 1991 3584 
L 1991 3584 
z
" transform="scale(0.015625)"/>
      <path id="DejaVuSans-72" d="M 2631 2963 
Q 2534 3019 2420 3045 
Q 2306 3072 2169 3072 
Q 1681 3072 1420 2755 
Q 1159 2438 1159 1844 
L 1159 0 
L 581 0 
L 581 3500 
L 1159 3500 
L 1159 2956 
Q 1341 3275 1631 3429 
Q 1922 3584 2338 3584 
Q 2397 3584 2469 3576 
Q 2541 3569 2628 3553 
L 2631 2963 
z
" transform="scale(0.015625)"/>
      <path id="DejaVuSans-6e" d="M 3513 2113 
L 3513 0 
L 2938 0 
L 2938 2094 
Q 2938 2591 2744 2837 
Q 2550 3084 2163 3084 
Q 1697 3084 1428 2787 
Q 1159 2491 1159 1978 
L 1159 0 
L 581 0 
L 581 3500 
L 1159 3500 
L 1159 2956 
Q 1366 3272 1645 3428 
Q 1925 3584 2291 3584 
Q 2894 3584 3203 3211 
Q 3513 2838 3513 2113 
z
" transform="scale(0.015625)"/>
      <path id="DejaVuSans-74" d="M 1172 4494 
L 1172 3500 
L 2356 3500 
L 2356 3053 
L 1172 3053 
L 1172 1153 
Q 1172 725 1289 603 
Q 1406 481 1766 481 
L 2356 481 
L 2356 0 
L 1766 0 
Q 1100 0 847 248 
Q 594 497 594 1153 
L 594 3053 
L 172 3053 
L 172 3500 
L 594 3500 
L 594 4494 
L 1172 4494 
z
" transform="scale(0.015625)"/>
      <path id="DejaVuSans-69" d="M 603 3500 
L 1178 3500 
L 1178 0 
L 603 0 
L 603 3500 
z
M 603 4863 
L 1178 4863 
L 1178 4134 
L 603 4134 
L 603 4863 
z
" transform="scale(0.015625)"/>
      <path id="DejaVuSans-65" d="M 3597 1894 
L 3597 1613 
L 953 1613 
Q 991 1019 1311 708 
Q 1631 397 2203 397 
Q 2534 397 2845 478 
Q 3156 559 3463 722 
L 3463 178 
Q 3153 47 2828 -22 
Q 2503 -91 2169 -91 
Q 1331 -91 842 396 
Q 353 884 353 1716 
Q 353 2575 817 3079 
Q 1281 3584 2069 3584 
Q 2775 3584 3186 3129 
Q 3597 2675 3597 1894 
z
M 3022 2063 
Q 3016 2534 2758 2815 
Q 2500 3097 2075 3097 
Q 1594 3097 1305 2825 
Q 1016 2553 972 2059 
L 3022 2063 
z
" transform="scale(0.015625)"/>
      <path id="DejaVuSans-66" d="M 2375 4863 
L 2375 4384 
L 1825 4384 
Q 1516 4384 1395 4259 
Q 1275 4134 1275 3809 
L 1275 3500 
L 2222 3500 
L 2222 3053 
L 1275 3053 
L 1275 0 
L 697 0 
L 697 3053 
L 147 3053 
L 147 3500 
L 697 3500 
L 697 3744 
Q 697 4328 969 4595 
Q 1241 4863 1831 4863 
L 2375 4863 
z
" transform="scale(0.015625)"/>
      <path id="DejaVuSans-63" d="M 3122 3366 
L 3122 2828 
Q 2878 2963 2633 3030 
Q 2388 3097 2138 3097 
Q 1578 3097 1268 2742 
Q 959 2388 959 1747 
Q 959 1106 1268 751 
Q 1578 397 2138 397 
Q 2388 397 2633 464 
Q 2878 531 3122 666 
L 3122 134 
Q 2881 22 2623 -34 
Q 2366 -91 2075 -91 
Q 1284 -91 818 406 
Q 353 903 353 1747 
Q 353 2603 823 3093 
Q 1294 3584 2113 3584 
Q 2378 3584 2631 3529 
Q 2884 3475 3122 3366 
z
" transform="scale(0.015625)"/>
      <path id="DejaVuSans-76" d="M 191 3500 
L 800 3500 
L 1894 563 
L 2988 3500 
L 3597 3500 
L 2284 0 
L 1503 0 
L 191 3500 
z
" transform="scale(0.015625)"/>
      <path id="DejaVuSans-73" d="M 2834 3397 
L 2834 2853 
Q 2591 2978 2328 3040 
Q 2066 3103 1784 3103 
Q 1356 3103 1142 2972 
Q 928 2841 928 2578 
Q 928 2378 1081 2264 
Q 1234 2150 1697 2047 
L 1894 2003 
Q 2506 1872 2764 1633 
Q 3022 1394 3022 966 
Q 3022 478 2636 193 
Q 2250 -91 1575 -91 
Q 1294 -91 989 -36 
Q 684 19 347 128 
L 347 722 
Q 666 556 975 473 
Q 1284 391 1588 391 
Q 1994 391 2212 530 
Q 2431 669 2431 922 
Q 2431 1156 2273 1281 
Q 2116 1406 1581 1522 
L 1381 1569 
Q 847 1681 609 1914 
Q 372 2147 372 2553 
Q 372 3047 722 3315 
Q 1072 3584 1716 3584 
Q 2034 3584 2315 3537 
Q 2597 3491 2834 3397 
z
" transform="scale(0.015625)"/>
      <path id="DejaVuSans-54" d="M -19 4666 
L 3928 4666 
L 3928 4134 
L 2272 4134 
L 2272 0 
L 1638 0 
L 1638 4134 
L -19 4134 
L -19 4666 
z
" transform="scale(0.015625)"/>
      <path id="DejaVuSans-6d" d="M 3328 2828 
Q 3544 3216 3844 3400 
Q 4144 3584 4550 3584 
Q 5097 3584 5394 3201 
Q 5691 2819 5691 2113 
L 5691 0 
L 5113 0 
L 5113 2094 
Q 5113 2597 4934 2840 
Q 4756 3084 4391 3084 
Q 3944 3084 3684 2787 
Q 3425 2491 3425 1978 
L 3425 0 
L 2847 0 
L 2847 2094 
Q 2847 2600 2669 2842 
Q 2491 3084 2119 3084 
Q 1678 3084 1418 2786 
Q 1159 2488 1159 1978 
L 1159 0 
L 581 0 
L 581 3500 
L 1159 3500 
L 1159 2956 
Q 1356 3278 1631 3431 
Q 1906 3584 2284 3584 
Q 2666 3584 2933 3390 
Q 3200 3197 3328 2828 
z
" transform="scale(0.015625)"/>
      <path id="DejaVuSans-53" d="M 3425 4513 
L 3425 3897 
Q 3066 4069 2747 4153 
Q 2428 4238 2131 4238 
Q 1616 4238 1336 4038 
Q 1056 3838 1056 3469 
Q 1056 3159 1242 3001 
Q 1428 2844 1947 2747 
L 2328 2669 
Q 3034 2534 3370 2195 
Q 3706 1856 3706 1288 
Q 3706 609 3251 259 
Q 2797 -91 1919 -91 
Q 1588 -91 1214 -16 
Q 841 59 441 206 
L 441 856 
Q 825 641 1194 531 
Q 1563 422 1919 422 
Q 2459 422 2753 634 
Q 3047 847 3047 1241 
Q 3047 1584 2836 1778 
Q 2625 1972 2144 2069 
L 1759 2144 
Q 1053 2284 737 2584 
Q 422 2884 422 3419 
Q 422 4038 858 4394 
Q 1294 4750 2059 4750 
Q 2388 4750 2728 4690 
Q 3069 4631 3425 4513 
z
" transform="scale(0.015625)"/>
      <path id="DejaVuSans-42" d="M 1259 2228 
L 1259 519 
L 2272 519 
Q 2781 519 3026 730 
Q 3272 941 3272 1375 
Q 3272 1813 3026 2020 
Q 2781 2228 2272 2228 
L 1259 2228 
z
M 1259 4147 
L 1259 2741 
L 2194 2741 
Q 2656 2741 2882 2914 
Q 3109 3088 3109 3444 
Q 3109 3797 2882 3972 
Q 2656 4147 2194 4147 
L 1259 4147 
z
M 628 4666 
L 2241 4666 
Q 2963 4666 3353 4366 
Q 3744 4066 3744 3513 
Q 3744 3084 3544 2831 
Q 3344 2578 2956 2516 
Q 3422 2416 3680 2098 
Q 3938 1781 3938 1306 
Q 3938 681 3513 340 
Q 3088 0 2303 0 
L 628 0 
L 628 4666 
z
" transform="scale(0.015625)"/>
      <path id="DejaVuSans-4d" d="M 628 4666 
L 1569 4666 
L 2759 1491 
L 3956 4666 
L 4897 4666 
L 4897 0 
L 4281 0 
L 4281 4097 
L 3078 897 
L 2444 897 
L 1241 4097 
L 1241 0 
L 628 0 
L 628 4666 
z
" transform="scale(0.015625)"/>
      <path id="DejaVuSans-2d" d="M 313 2009 
L 1997 2009 
L 1997 1497 
L 313 1497 
L 313 2009 
z
" transform="scale(0.015625)"/>
      <path id="DejaVuSans-35" d="M 691 4666 
L 3169 4666 
L 3169 4134 
L 1269 4134 
L 1269 2991 
Q 1406 3038 1543 3061 
Q 1681 3084 1819 3084 
Q 2600 3084 3056 2656 
Q 3513 2228 3513 1497 
Q 3513 744 3044 326 
Q 2575 -91 1722 -91 
Q 1428 -91 1123 -41 
Q 819 9 494 109 
L 494 744 
Q 775 591 1075 516 
Q 1375 441 1709 441 
Q 2250 441 2565 725 
Q 2881 1009 2881 1497 
Q 2881 1984 2565 2268 
Q 2250 2553 1709 2553 
Q 1456 2553 1204 2497 
Q 953 2441 691 2322 
L 691 4666 
z
" transform="scale(0.015625)"/>
      <path id="DejaVuSans-6b" d="M 581 4863 
L 1159 4863 
L 1159 1991 
L 2875 3500 
L 3609 3500 
L 1753 1863 
L 3688 0 
L 2938 0 
L 1159 1709 
L 1159 0 
L 581 0 
L 581 4863 
z
" transform="scale(0.015625)"/>
      <path id="DejaVuSans-5a" d="M 359 4666 
L 4025 4666 
L 4025 4184 
L 1075 531 
L 4097 531 
L 4097 0 
L 288 0 
L 288 481 
L 3238 4134 
L 359 4134 
L 359 4666 
z
" transform="scale(0.015625)"/>
      <path id="DejaVuSans-6f" d="M 1959 3097 
Q 1497 3097 1228 2736 
Q 959 2375 959 1747 
Q 959 1119 1226 758 
Q 1494 397 1959 397 
Q 2419 397 2687 759 
Q 2956 1122 2956 1747 
Q 2956 2369 2687 2733 
Q 2419 3097 1959 3097 
z
M 1959 3584 
Q 2709 3584 3137 3096 
Q 3566 2609 3566 1747 
Q 3566 888 3137 398 
Q 2709 -91 1959 -91 
Q 1206 -91 779 398 
Q 353 888 353 1747 
Q 353 2609 779 3096 
Q 1206 3584 1959 3584 
z
" transform="scale(0.015625)"/>
     </defs>
     <use xlink:href="#DejaVuSans-51"/>
     <use xlink:href="#DejaVuSans-75" transform="translate(78.710938 0)"/>
     <use xlink:href="#DejaVuSans-61" transform="translate(142.089844 0)"/>
     <use xlink:href="#DejaVuSans-72" transform="translate(203.369141 0)"/>
     <use xlink:href="#DejaVuSans-61" transform="translate(244.482422 0)"/>
     <use xlink:href="#DejaVuSans-6e" transform="translate(305.761719 0)"/>
     <use xlink:href="#DejaVuSans-74" transform="translate(369.140625 0)"/>
     <use xlink:href="#DejaVuSans-69" transform="translate(408.349609 0)"/>
     <use xlink:href="#DejaVuSans-6e" transform="translate(436.132812 0)"/>
     <use xlink:href="#DejaVuSans-65" transform="translate(499.511719 0)"/>
     <use xlink:href="#DejaVuSans-20" transform="translate(561.035156 0)"/>
     <use xlink:href="#DejaVuSans-45" transform="translate(592.822266 0)"/>
     <use xlink:href="#DejaVuSans-66" transform="translate(656.005859 0)"/>
     <use xlink:href="#DejaVuSans-66" transform="translate(691.210938 0)"/>
     <use xlink:href="#DejaVuSans-69" transform="translate(726.416016 0)"/>
     <use xlink:href="#DejaVuSans-63" transform="translate(754.199219 0)"/>
     <use xlink:href="#DejaVuSans-69" transform="translate(809.179688 0)"/>
     <use xlink:href="#DejaVuSans-65" transform="translate(836.962891 0)"/>
     <use xlink:href="#DejaVuSans-6e" transform="translate(898.486328 0)"/>
     <use xlink:href="#DejaVuSans-63" transform="translate(961.865234 0)"/>
     <use xlink:href="#DejaVuSans-79" transform="translate(1016.845703 0)"/>
     <use xlink:href="#DejaVuSans-20" transform="translate(1076.025391 0)"/>
     <use xlink:href="#DejaVuSans-76" transform="translate(1107.8125 0)"/>
     <use xlink:href="#DejaVuSans-73" transform="translate(1166.992188 0)"/>
     <use xlink:href="#DejaVuSans-20" transform="translate(1219.091797 0)"/>
     <use xlink:href="#DejaVuSans-54" transform="translate(1250.878906 0)"/>
     <use xlink:href="#DejaVuSans-69" transform="translate(1308.837891 0)"/>
     <use xlink:href="#DejaVuSans-6d" transform="translate(1336.621094 0)"/>
     <use xlink:href="#DejaVuSans-65" transform="translate(1434.033203 0)"/>
     <use xlink:href="#DejaVuSans-20" transform="translate(1495.556641 0)"/>
     <use xlink:href="#DejaVuSans-28" transform="translate(1527.34375 0)"/>
     <use xlink:href="#DejaVuSans-53" transform="translate(1566.357422 0)"/>
     <use xlink:href="#DejaVuSans-42" transform="translate(1629.833984 0)"/>
     <use xlink:href="#DejaVuSans-4d" transform="translate(1698.4375 0)"/>
     <use xlink:href="#DejaVuSans-2d" transform="translate(1784.716797 0)"/>
     <use xlink:href="#DejaVuSans-35" transform="translate(1820.800781 0)"/>
     <use xlink:href="#DejaVuSans-6b" transform="translate(1884.423828 0)"/>
     <use xlink:href="#DejaVuSans-2d" transform="translate(1942.333984 0)"/>
     <use xlink:href="#DejaVuSans-5a" transform="translate(1978.417969 0)"/>
     <use xlink:href="#DejaVuSans-65" transform="translate(2046.923828 0)"/>
     <use xlink:href="#DejaVuSans-72" transform="translate(2108.447266 0)"/>
     <use xlink:href="#DejaVuSans-6f" transform="translate(2147.310547 0)"/>
     <use xlink:href="#DejaVuSans-29" transform="translate(2208.492188 0)"/>
    </g>
   </g>
   <g id="legend_1">
    <g id="patch_7">
     <path d="M 289.559063 302.584 
L 407.72 302.584 
Q 409.72 302.584 409.72 300.584 
L 409.72 213.51525 
Q 409.72 211.51525 407.72 211.51525 
L 289.559063 211.51525 
Q 287.559063 211.51525 287.559063 213.51525 
L 287.559063 300.584 
Q 287.559063 302.584 289.559063 302.584 
z
" style="fill: #ffffff; opacity: 0.8; stroke: #cccccc; stroke-linejoin: miter"/>
    </g>
    <g id="line2d_20">
     <path d="M 291.559063 219.613687 
L 301.559063 219.613687 
L 311.559063 219.613687 
" style="fill: none; stroke: #1f77b4; stroke-width: 1.5; stroke-linecap: square"/>
    </g>
    <g id="text_17">
     <!-- LocalGNTS-14 -->
     <g transform="translate(319.559063 223.113687) scale(0.1 -0.1)">
      <defs>
       <path id="DejaVuSans-4c" d="M 628 4666 
L 1259 4666 
L 1259 531 
L 3531 531 
L 3531 0 
L 628 0 
L 628 4666 
z
" transform="scale(0.015625)"/>
       <path id="DejaVuSans-6c" d="M 603 4863 
L 1178 4863 
L 1178 0 
L 603 0 
L 603 4863 
z
" transform="scale(0.015625)"/>
       <path id="DejaVuSans-47" d="M 3809 666 
L 3809 1919 
L 2778 1919 
L 2778 2438 
L 4434 2438 
L 4434 434 
Q 4069 175 3628 42 
Q 3188 -91 2688 -91 
Q 1594 -91 976 548 
Q 359 1188 359 2328 
Q 359 3472 976 4111 
Q 1594 4750 2688 4750 
Q 3144 4750 3555 4637 
Q 3966 4525 4313 4306 
L 4313 3634 
Q 3963 3931 3569 4081 
Q 3175 4231 2741 4231 
Q 1884 4231 1454 3753 
Q 1025 3275 1025 2328 
Q 1025 1384 1454 906 
Q 1884 428 2741 428 
Q 3075 428 3337 486 
Q 3600 544 3809 666 
z
" transform="scale(0.015625)"/>
       <path id="DejaVuSans-4e" d="M 628 4666 
L 1478 4666 
L 3547 763 
L 3547 4666 
L 4159 4666 
L 4159 0 
L 3309 0 
L 1241 3903 
L 1241 0 
L 628 0 
L 628 4666 
z
" transform="scale(0.015625)"/>
      </defs>
      <use xlink:href="#DejaVuSans-4c"/>
      <use xlink:href="#DejaVuSans-6f" transform="translate(53.962891 0)"/>
      <use xlink:href="#DejaVuSans-63" transform="translate(115.144531 0)"/>
      <use xlink:href="#DejaVuSans-61" transform="translate(170.125 0)"/>
      <use xlink:href="#DejaVuSans-6c" transform="translate(231.404297 0)"/>
      <use xlink:href="#DejaVuSans-47" transform="translate(259.1875 0)"/>
      <use xlink:href="#DejaVuSans-4e" transform="translate(336.677734 0)"/>
      <use xlink:href="#DejaVuSans-54" transform="translate(411.482422 0)"/>
      <use xlink:href="#DejaVuSans-53" transform="translate(472.566406 0)"/>
      <use xlink:href="#DejaVuSans-2d" transform="translate(536.042969 0)"/>
      <use xlink:href="#DejaVuSans-31" transform="translate(572.126953 0)"/>
      <use xlink:href="#DejaVuSans-34" transform="translate(635.75 0)"/>
     </g>
    </g>
    <g id="line2d_21">
     <path d="M 291.559063 234.291812 
L 301.559063 234.291812 
L 311.559063 234.291812 
" style="fill: none; stroke: #ff7f0e; stroke-width: 1.5; stroke-linecap: square"/>
    </g>
    <g id="text_18">
     <!-- GlobalGNTS-14 -->
     <g transform="translate(319.559063 237.791812) scale(0.1 -0.1)">
      <defs>
       <path id="DejaVuSans-62" d="M 3116 1747 
Q 3116 2381 2855 2742 
Q 2594 3103 2138 3103 
Q 1681 3103 1420 2742 
Q 1159 2381 1159 1747 
Q 1159 1113 1420 752 
Q 1681 391 2138 391 
Q 2594 391 2855 752 
Q 3116 1113 3116 1747 
z
M 1159 2969 
Q 1341 3281 1617 3432 
Q 1894 3584 2278 3584 
Q 2916 3584 3314 3078 
Q 3713 2572 3713 1747 
Q 3713 922 3314 415 
Q 2916 -91 2278 -91 
Q 1894 -91 1617 61 
Q 1341 213 1159 525 
L 1159 0 
L 581 0 
L 581 4863 
L 1159 4863 
L 1159 2969 
z
" transform="scale(0.015625)"/>
      </defs>
      <use xlink:href="#DejaVuSans-47"/>
      <use xlink:href="#DejaVuSans-6c" transform="translate(77.490234 0)"/>
      <use xlink:href="#DejaVuSans-6f" transform="translate(105.273438 0)"/>
      <use xlink:href="#DejaVuSans-62" transform="translate(166.455078 0)"/>
      <use xlink:href="#DejaVuSans-61" transform="translate(229.931641 0)"/>
      <use xlink:href="#DejaVuSans-6c" transform="translate(291.210938 0)"/>
      <use xlink:href="#DejaVuSans-47" transform="translate(318.994141 0)"/>
      <use xlink:href="#DejaVuSans-4e" transform="translate(396.484375 0)"/>
      <use xlink:href="#DejaVuSans-54" transform="translate(471.289062 0)"/>
      <use xlink:href="#DejaVuSans-53" transform="translate(532.373047 0)"/>
      <use xlink:href="#DejaVuSans-2d" transform="translate(595.849609 0)"/>
      <use xlink:href="#DejaVuSans-31" transform="translate(631.933594 0)"/>
      <use xlink:href="#DejaVuSans-34" transform="translate(695.556641 0)"/>
     </g>
    </g>
    <g id="line2d_22">
     <path d="M 291.559063 248.969937 
L 301.559063 248.969937 
L 311.559063 248.969937 
" style="fill: none; stroke: #2ca02c; stroke-width: 1.5; stroke-linecap: square"/>
    </g>
    <g id="text_19">
     <!-- Beta-Binomial-14 -->
     <g transform="translate(319.559063 252.469937) scale(0.1 -0.1)">
      <use xlink:href="#DejaVuSans-42"/>
      <use xlink:href="#DejaVuSans-65" transform="translate(68.603516 0)"/>
      <use xlink:href="#DejaVuSans-74" transform="translate(130.126953 0)"/>
      <use xlink:href="#DejaVuSans-61" transform="translate(169.335938 0)"/>
      <use xlink:href="#DejaVuSans-2d" transform="translate(230.615234 0)"/>
      <use xlink:href="#DejaVuSans-42" transform="translate(263.074219 0)"/>
      <use xlink:href="#DejaVuSans-69" transform="translate(331.677734 0)"/>
      <use xlink:href="#DejaVuSans-6e" transform="translate(359.460938 0)"/>
      <use xlink:href="#DejaVuSans-6f" transform="translate(422.839844 0)"/>
      <use xlink:href="#DejaVuSans-6d" transform="translate(484.021484 0)"/>
      <use xlink:href="#DejaVuSans-69" transform="translate(581.433594 0)"/>
      <use xlink:href="#DejaVuSans-61" transform="translate(609.216797 0)"/>
      <use xlink:href="#DejaVuSans-6c" transform="translate(670.496094 0)"/>
      <use xlink:href="#DejaVuSans-2d" transform="translate(698.279297 0)"/>
      <use xlink:href="#DejaVuSans-31" transform="translate(734.363281 0)"/>
      <use xlink:href="#DejaVuSans-34" transform="translate(797.986328 0)"/>
     </g>
    </g>
    <g id="line2d_23">
     <path d="M 291.559063 263.648062 
L 301.559063 263.648062 
L 311.559063 263.648062 
" style="fill: none; stroke: #d62728; stroke-width: 1.5; stroke-linecap: square"/>
    </g>
    <g id="text_20">
     <!-- Proportional -->
     <g transform="translate(319.559063 267.148062) scale(0.1 -0.1)">
      <defs>
       <path id="DejaVuSans-50" d="M 1259 4147 
L 1259 2394 
L 2053 2394 
Q 2494 2394 2734 2622 
Q 2975 2850 2975 3272 
Q 2975 3691 2734 3919 
Q 2494 4147 2053 4147 
L 1259 4147 
z
M 628 4666 
L 2053 4666 
Q 2838 4666 3239 4311 
Q 3641 3956 3641 3272 
Q 3641 2581 3239 2228 
Q 2838 1875 2053 1875 
L 1259 1875 
L 1259 0 
L 628 0 
L 628 4666 
z
" transform="scale(0.015625)"/>
       <path id="DejaVuSans-70" d="M 1159 525 
L 1159 -1331 
L 581 -1331 
L 581 3500 
L 1159 3500 
L 1159 2969 
Q 1341 3281 1617 3432 
Q 1894 3584 2278 3584 
Q 2916 3584 3314 3078 
Q 3713 2572 3713 1747 
Q 3713 922 3314 415 
Q 2916 -91 2278 -91 
Q 1894 -91 1617 61 
Q 1341 213 1159 525 
z
M 3116 1747 
Q 3116 2381 2855 2742 
Q 2594 3103 2138 3103 
Q 1681 3103 1420 2742 
Q 1159 2381 1159 1747 
Q 1159 1113 1420 752 
Q 1681 391 2138 391 
Q 2594 391 2855 752 
Q 3116 1113 3116 1747 
z
" transform="scale(0.015625)"/>
      </defs>
      <use xlink:href="#DejaVuSans-50"/>
      <use xlink:href="#DejaVuSans-72" transform="translate(58.552734 0)"/>
      <use xlink:href="#DejaVuSans-6f" transform="translate(97.416016 0)"/>
      <use xlink:href="#DejaVuSans-70" transform="translate(158.597656 0)"/>
      <use xlink:href="#DejaVuSans-6f" transform="translate(222.074219 0)"/>
      <use xlink:href="#DejaVuSans-72" transform="translate(283.255859 0)"/>
      <use xlink:href="#DejaVuSans-74" transform="translate(324.369141 0)"/>
      <use xlink:href="#DejaVuSans-69" transform="translate(363.578125 0)"/>
      <use xlink:href="#DejaVuSans-6f" transform="translate(391.361328 0)"/>
      <use xlink:href="#DejaVuSans-6e" transform="translate(452.542969 0)"/>
      <use xlink:href="#DejaVuSans-61" transform="translate(515.921875 0)"/>
      <use xlink:href="#DejaVuSans-6c" transform="translate(577.201172 0)"/>
     </g>
    </g>
    <g id="line2d_24">
     <path d="M 291.559063 278.326188 
L 301.559063 278.326188 
L 311.559063 278.326188 
" style="fill: none; stroke: #9467bd; stroke-width: 1.5; stroke-linecap: square"/>
    </g>
    <g id="text_21">
     <!-- Uniform -->
     <g transform="translate(319.559063 281.826188) scale(0.1 -0.1)">
      <defs>
       <path id="DejaVuSans-55" d="M 556 4666 
L 1191 4666 
L 1191 1831 
Q 1191 1081 1462 751 
Q 1734 422 2344 422 
Q 2950 422 3222 751 
Q 3494 1081 3494 1831 
L 3494 4666 
L 4128 4666 
L 4128 1753 
Q 4128 841 3676 375 
Q 3225 -91 2344 -91 
Q 1459 -91 1007 375 
Q 556 841 556 1753 
L 556 4666 
z
" transform="scale(0.015625)"/>
      </defs>
      <use xlink:href="#DejaVuSans-55"/>
      <use xlink:href="#DejaVuSans-6e" transform="translate(73.193359 0)"/>
      <use xlink:href="#DejaVuSans-69" transform="translate(136.572266 0)"/>
      <use xlink:href="#DejaVuSans-66" transform="translate(164.355469 0)"/>
      <use xlink:href="#DejaVuSans-6f" transform="translate(199.560547 0)"/>
      <use xlink:href="#DejaVuSans-72" transform="translate(260.742188 0)"/>
      <use xlink:href="#DejaVuSans-6d" transform="translate(300.105469 0)"/>
     </g>
    </g>
    <g id="line2d_25">
     <path d="M 291.559063 293.004312 
L 301.559063 293.004312 
L 311.559063 293.004312 
" style="fill: none; stroke: #8c564b; stroke-width: 1.5; stroke-linecap: square"/>
    </g>
    <g id="text_22">
     <!-- Random -->
     <g transform="translate(319.559063 296.504312) scale(0.1 -0.1)">
      <defs>
       <path id="DejaVuSans-52" d="M 2841 2188 
Q 3044 2119 3236 1894 
Q 3428 1669 3622 1275 
L 4263 0 
L 3584 0 
L 2988 1197 
Q 2756 1666 2539 1819 
Q 2322 1972 1947 1972 
L 1259 1972 
L 1259 0 
L 628 0 
L 628 4666 
L 2053 4666 
Q 2853 4666 3247 4331 
Q 3641 3997 3641 3322 
Q 3641 2881 3436 2590 
Q 3231 2300 2841 2188 
z
M 1259 4147 
L 1259 2491 
L 2053 2491 
Q 2509 2491 2742 2702 
Q 2975 2913 2975 3322 
Q 2975 3731 2742 3939 
Q 2509 4147 2053 4147 
L 1259 4147 
z
" transform="scale(0.015625)"/>
       <path id="DejaVuSans-64" d="M 2906 2969 
L 2906 4863 
L 3481 4863 
L 3481 0 
L 2906 0 
L 2906 525 
Q 2725 213 2448 61 
Q 2172 -91 1784 -91 
Q 1150 -91 751 415 
Q 353 922 353 1747 
Q 353 2572 751 3078 
Q 1150 3584 1784 3584 
Q 2172 3584 2448 3432 
Q 2725 3281 2906 2969 
z
M 947 1747 
Q 947 1113 1208 752 
Q 1469 391 1925 391 
Q 2381 391 2643 752 
Q 2906 1113 2906 1747 
Q 2906 2381 2643 2742 
Q 2381 3103 1925 3103 
Q 1469 3103 1208 2742 
Q 947 2381 947 1747 
z
" transform="scale(0.015625)"/>
      </defs>
      <use xlink:href="#DejaVuSans-52"/>
      <use xlink:href="#DejaVuSans-61" transform="translate(67.232422 0)"/>
      <use xlink:href="#DejaVuSans-6e" transform="translate(128.511719 0)"/>
      <use xlink:href="#DejaVuSans-64" transform="translate(191.890625 0)"/>
      <use xlink:href="#DejaVuSans-6f" transform="translate(255.367188 0)"/>
      <use xlink:href="#DejaVuSans-6d" transform="translate(316.548828 0)"/>
     </g>
    </g>
   </g>
  </g>
 </g>
 <defs>
  <clipPath id="p8c828931a9">
   <rect x="57.6" y="41.472" width="357.12" height="266.112"/>
  </clipPath>
 </defs>
</svg>
