<?xml version="1.0" encoding="utf-8" standalone="no"?>
<!DOCTYPE svg PUBLIC "-//W3C//DTD SVG 1.1//EN"
  "http://www.w3.org/Graphics/SVG/1.1/DTD/svg11.dtd">
<svg xmlns:xlink="http://www.w3.org/1999/xlink" width="1008pt" height="576pt" viewBox="0 0 1008 576" xmlns="http://www.w3.org/2000/svg" version="1.1">
 <metadata>
  <rdf:RDF xmlns:dc="http://purl.org/dc/elements/1.1/" xmlns:cc="http://creativecommons.org/ns#" xmlns:rdf="http://www.w3.org/1999/02/22-rdf-syntax-ns#">
   <cc:Work>
    <dc:type rdf:resource="http://purl.org/dc/dcmitype/StillImage"/>
    <dc:date>2026-04-05T07:48:30.242363</dc:date>
    <dc:format>image/svg+xml</dc:format>
    <dc:creator>
     <cc:Agent>
      <dc:title>Matplotlib v3.10.0, https://matplotlib.org/</dc:title>
     </cc:Agent>
    </dc:creator>
   </cc:Work>
  </rdf:RDF>
 </metadata>
 <defs>
  <style type="text/css">*{stroke-linejoin: round; stroke-linecap: butt}</style>
 </defs>
 <g id="figure_1">
  <g id="patch_1">
   <path d="M 0 576 
L 1008 576 
L 1008 0 
L 0 0 
z
" style="fill: #ffffff"/>
  </g>
  <g id="axes_1">
   <g id="patch_2">
    <path d="M 44.49 535.38 
L 997.2 535.38 
L 997.2 10.8 
L 44.49 10.8 
z
" style="fill: #ffffff"/>
   </g>
   <g id="matplotlib.axis_1">
    <g id="xtick_1">
     <g id="line2d_1">
      <path d="M 87.795 535.38 
L 87.795 10.8 
" clip-path="url(#pdda5de7c53)" style="fill: none; stroke: #cccccc; stroke-width: 0.8; stroke-linecap: round"/>
     </g>
     <g id="line2d_2"/>
     <g id="text_1">
      <!-- 0 -->
      <g style="fill: #262626" transform="translate(85.014531 546.126875) scale(0.1 -0.1)">
       <defs>
        <path id="LiberationSans-30" d="M 3309 2203 
Q 3309 1569 3189 1136 
Q 3069 703 2861 436 
Q 2653 169 2372 53 
Q 2091 -63 1772 -63 
Q 1450 -63 1172 53 
Q 894 169 689 434 
Q 484 700 367 1133 
Q 250 1566 250 2203 
Q 250 2869 367 3305 
Q 484 3741 690 4000 
Q 897 4259 1178 4364 
Q 1459 4469 1791 4469 
Q 2106 4469 2382 4364 
Q 2659 4259 2865 4000 
Q 3072 3741 3190 3305 
Q 3309 2869 3309 2203 
z
M 2738 2203 
Q 2738 2728 2675 3076 
Q 2613 3425 2491 3633 
Q 2369 3841 2192 3927 
Q 2016 4013 1791 4013 
Q 1553 4013 1372 3925 
Q 1191 3838 1067 3630 
Q 944 3422 881 3073 
Q 819 2725 819 2203 
Q 819 1697 883 1350 
Q 947 1003 1070 792 
Q 1194 581 1372 489 
Q 1550 397 1778 397 
Q 2000 397 2178 489 
Q 2356 581 2479 792 
Q 2603 1003 2670 1350 
Q 2738 1697 2738 2203 
z
" transform="scale(0.015625)"/>
       </defs>
       <use xlink:href="#LiberationSans-30"/>
      </g>
     </g>
    </g>
    <g id="xtick_2">
     <g id="line2d_3">
      <path d="M 204.050034 535.38 
L 204.050034 10.8 
" clip-path="url(#pdda5de7c53)" style="fill: none; stroke: #cccccc; stroke-width: 0.8; stroke-linecap: round"/>
     </g>
     <g id="line2d_4"/>
     <g id="text_2">
      <!-- 20 -->
      <g style="fill: #262626" transform="translate(198.489096 546.126875) scale(0.1 -0.1)">
       <defs>
        <path id="LiberationSans-32" d="M 322 0 
L 322 397 
Q 481 763 711 1042 
Q 941 1322 1194 1548 
Q 1447 1775 1695 1969 
Q 1944 2163 2144 2356 
Q 2344 2550 2467 2762 
Q 2591 2975 2591 3244 
Q 2591 3431 2534 3573 
Q 2478 3716 2372 3812 
Q 2266 3909 2117 3957 
Q 1969 4006 1788 4006 
Q 1619 4006 1470 3959 
Q 1322 3913 1206 3819 
Q 1091 3725 1017 3586 
Q 944 3447 922 3263 
L 347 3316 
Q 375 3553 478 3762 
Q 581 3972 762 4130 
Q 944 4288 1198 4378 
Q 1453 4469 1788 4469 
Q 2116 4469 2372 4391 
Q 2628 4313 2804 4159 
Q 2981 4006 3075 3781 
Q 3169 3556 3169 3263 
Q 3169 3041 3089 2841 
Q 3009 2641 2876 2459 
Q 2744 2278 2569 2109 
Q 2394 1941 2203 1780 
Q 2013 1619 1819 1461 
Q 1625 1303 1454 1143 
Q 1284 984 1150 820 
Q 1016 656 941 478 
L 3238 478 
L 3238 0 
L 322 0 
z
" transform="scale(0.015625)"/>
       </defs>
       <use xlink:href="#LiberationSans-32"/>
       <use xlink:href="#LiberationSans-30" transform="translate(55.615234 0)"/>
      </g>
     </g>
    </g>
    <g id="xtick_3">
     <g id="line2d_5">
      <path d="M 320.305067 535.38 
L 320.305067 10.8 
" clip-path="url(#pdda5de7c53)" style="fill: none; stroke: #cccccc; stroke-width: 0.8; stroke-linecap: round"/>
     </g>
     <g id="line2d_6"/>
     <g id="text_3">
      <!-- 40 -->
      <g style="fill: #262626" transform="translate(314.74413 546.126875) scale(0.1 -0.1)">
       <defs>
        <path id="LiberationSans-34" d="M 2753 997 
L 2753 0 
L 2222 0 
L 2222 997 
L 147 997 
L 147 1434 
L 2163 4403 
L 2753 4403 
L 2753 1441 
L 3372 1441 
L 3372 997 
L 2753 997 
z
M 2222 3769 
Q 2216 3753 2191 3708 
Q 2166 3663 2134 3606 
Q 2103 3550 2070 3492 
Q 2038 3434 2013 3397 
L 884 1734 
Q 869 1709 839 1668 
Q 809 1628 778 1586 
Q 747 1544 715 1503 
Q 684 1463 666 1441 
L 2222 1441 
L 2222 3769 
z
" transform="scale(0.015625)"/>
       </defs>
       <use xlink:href="#LiberationSans-34"/>
       <use xlink:href="#LiberationSans-30" transform="translate(55.615234 0)"/>
      </g>
     </g>
    </g>
    <g id="xtick_4">
     <g id="line2d_7">
      <path d="M 436.560101 535.38 
L 436.560101 10.8 
" clip-path="url(#pdda5de7c53)" style="fill: none; stroke: #cccccc; stroke-width: 0.8; stroke-linecap: round"/>
     </g>
     <g id="line2d_8"/>
     <g id="text_4">
      <!-- 60 -->
      <g style="fill: #262626" transform="translate(430.999163 546.126875) scale(0.1 -0.1)">
       <defs>
        <path id="LiberationSans-36" d="M 3278 1441 
Q 3278 1109 3186 832 
Q 3094 556 2914 357 
Q 2734 159 2468 48 
Q 2203 -63 1856 -63 
Q 1472 -63 1184 84 
Q 897 231 706 507 
Q 516 784 420 1186 
Q 325 1588 325 2100 
Q 325 2688 433 3131 
Q 541 3575 744 3872 
Q 947 4169 1239 4319 
Q 1531 4469 1900 4469 
Q 2125 4469 2322 4422 
Q 2519 4375 2680 4270 
Q 2841 4166 2962 3994 
Q 3084 3822 3156 3572 
L 2619 3475 
Q 2531 3759 2339 3886 
Q 2147 4013 1894 4013 
Q 1663 4013 1475 3903 
Q 1288 3794 1156 3576 
Q 1025 3359 954 3031 
Q 884 2703 884 2266 
Q 1038 2550 1316 2698 
Q 1594 2847 1953 2847 
Q 2253 2847 2497 2750 
Q 2741 2653 2914 2470 
Q 3088 2288 3183 2027 
Q 3278 1766 3278 1441 
z
M 2706 1416 
Q 2706 1644 2650 1828 
Q 2594 2013 2481 2142 
Q 2369 2272 2203 2342 
Q 2038 2413 1819 2413 
Q 1666 2413 1509 2367 
Q 1353 2322 1226 2220 
Q 1100 2119 1020 1953 
Q 941 1788 941 1550 
Q 941 1306 1003 1095 
Q 1066 884 1183 728 
Q 1300 572 1465 481 
Q 1631 391 1838 391 
Q 2041 391 2202 461 
Q 2363 531 2475 664 
Q 2588 797 2647 987 
Q 2706 1178 2706 1416 
z
" transform="scale(0.015625)"/>
       </defs>
       <use xlink:href="#LiberationSans-36"/>
       <use xlink:href="#LiberationSans-30" transform="translate(55.615234 0)"/>
      </g>
     </g>
    </g>
    <g id="xtick_5">
     <g id="line2d_9">
      <path d="M 552.815134 535.38 
L 552.815134 10.8 
" clip-path="url(#pdda5de7c53)" style="fill: none; stroke: #cccccc; stroke-width: 0.8; stroke-linecap: round"/>
     </g>
     <g id="line2d_10"/>
     <g id="text_5">
      <!-- 80 -->
      <g style="fill: #262626" transform="translate(547.254197 546.126875) scale(0.1 -0.1)">
       <defs>
        <path id="LiberationSans-38" d="M 3281 1228 
Q 3281 947 3192 711 
Q 3103 475 2920 303 
Q 2738 131 2453 34 
Q 2169 -63 1781 -63 
Q 1394 -63 1111 34 
Q 828 131 642 301 
Q 456 472 367 708 
Q 278 944 278 1222 
Q 278 1463 351 1650 
Q 425 1838 548 1973 
Q 672 2109 830 2192 
Q 988 2275 1156 2303 
L 1156 2316 
Q 972 2359 826 2456 
Q 681 2553 582 2689 
Q 484 2825 432 2990 
Q 381 3156 381 3341 
Q 381 3572 470 3776 
Q 559 3981 734 4136 
Q 909 4291 1168 4380 
Q 1428 4469 1769 4469 
Q 2128 4469 2392 4378 
Q 2656 4288 2829 4133 
Q 3003 3978 3087 3772 
Q 3172 3566 3172 3334 
Q 3172 3153 3120 2987 
Q 3069 2822 2970 2686 
Q 2872 2550 2726 2454 
Q 2581 2359 2391 2322 
L 2391 2309 
Q 2581 2278 2743 2195 
Q 2906 2113 3025 1977 
Q 3144 1841 3212 1653 
Q 3281 1466 3281 1228 
z
M 2588 3303 
Q 2588 3469 2545 3606 
Q 2503 3744 2406 3842 
Q 2309 3941 2153 3995 
Q 1997 4050 1769 4050 
Q 1547 4050 1394 3995 
Q 1241 3941 1142 3842 
Q 1044 3744 1000 3606 
Q 956 3469 956 3303 
Q 956 3172 990 3034 
Q 1025 2897 1115 2784 
Q 1206 2672 1365 2600 
Q 1525 2528 1775 2528 
Q 2041 2528 2202 2600 
Q 2363 2672 2448 2784 
Q 2534 2897 2561 3034 
Q 2588 3172 2588 3303 
z
M 2697 1281 
Q 2697 1441 2653 1589 
Q 2609 1738 2503 1852 
Q 2397 1966 2217 2036 
Q 2038 2106 1769 2106 
Q 1522 2106 1348 2036 
Q 1175 1966 1067 1850 
Q 959 1734 909 1582 
Q 859 1431 859 1269 
Q 859 1066 909 898 
Q 959 731 1068 611 
Q 1178 491 1356 425 
Q 1534 359 1788 359 
Q 2044 359 2219 425 
Q 2394 491 2500 611 
Q 2606 731 2651 901 
Q 2697 1072 2697 1281 
z
" transform="scale(0.015625)"/>
       </defs>
       <use xlink:href="#LiberationSans-38"/>
       <use xlink:href="#LiberationSans-30" transform="translate(55.615234 0)"/>
      </g>
     </g>
    </g>
    <g id="xtick_6">
     <g id="line2d_11">
      <path d="M 669.070168 535.38 
L 669.070168 10.8 
" clip-path="url(#pdda5de7c53)" style="fill: none; stroke: #cccccc; stroke-width: 0.8; stroke-linecap: round"/>
     </g>
     <g id="line2d_12"/>
     <g id="text_6">
      <!-- 100 -->
      <g style="fill: #262626" transform="translate(660.728762 546.126875) scale(0.1 -0.1)">
       <defs>
        <path id="LiberationSans-31" d="M 488 0 
L 488 478 
L 1609 478 
L 1609 3866 
L 616 3156 
L 616 3688 
L 1656 4403 
L 2175 4403 
L 2175 478 
L 3247 478 
L 3247 0 
L 488 0 
z
" transform="scale(0.015625)"/>
       </defs>
       <use xlink:href="#LiberationSans-31"/>
       <use xlink:href="#LiberationSans-30" transform="translate(55.615234 0)"/>
       <use xlink:href="#LiberationSans-30" transform="translate(111.230469 0)"/>
      </g>
     </g>
    </g>
    <g id="xtick_7">
     <g id="line2d_13">
      <path d="M 785.325201 535.38 
L 785.325201 10.8 
" clip-path="url(#pdda5de7c53)" style="fill: none; stroke: #cccccc; stroke-width: 0.8; stroke-linecap: round"/>
     </g>
     <g id="line2d_14"/>
     <g id="text_7">
      <!-- 120 -->
      <g style="fill: #262626" transform="translate(776.983795 546.126875) scale(0.1 -0.1)">
       <use xlink:href="#LiberationSans-31"/>
       <use xlink:href="#LiberationSans-32" transform="translate(55.615234 0)"/>
       <use xlink:href="#LiberationSans-30" transform="translate(111.230469 0)"/>
      </g>
     </g>
    </g>
    <g id="xtick_8">
     <g id="line2d_15">
      <path d="M 901.580235 535.38 
L 901.580235 10.8 
" clip-path="url(#pdda5de7c53)" style="fill: none; stroke: #cccccc; stroke-width: 0.8; stroke-linecap: round"/>
     </g>
     <g id="line2d_16"/>
     <g id="text_8">
      <!-- 140 -->
      <g style="fill: #262626" transform="translate(893.238829 546.126875) scale(0.1 -0.1)">
       <use xlink:href="#LiberationSans-31"/>
       <use xlink:href="#LiberationSans-34" transform="translate(55.615234 0)"/>
       <use xlink:href="#LiberationSans-30" transform="translate(111.230469 0)"/>
      </g>
     </g>
    </g>
    <g id="text_9">
     <!-- Day -->
     <g style="fill: #262626" transform="translate(508.397031 562.3475) scale(0.14 -0.14)">
      <defs>
       <path id="LiberationSans-44" d="M 4316 2247 
Q 4316 1697 4150 1276 
Q 3984 856 3696 573 
Q 3409 291 3017 145 
Q 2625 0 2172 0 
L 525 0 
L 525 4403 
L 1981 4403 
Q 2491 4403 2920 4276 
Q 3350 4150 3659 3886 
Q 3969 3622 4142 3215 
Q 4316 2809 4316 2247 
z
M 3716 2247 
Q 3716 2694 3587 3011 
Q 3459 3328 3228 3531 
Q 2997 3734 2675 3829 
Q 2353 3925 1969 3925 
L 1122 3925 
L 1122 478 
L 2103 478 
Q 2450 478 2745 590 
Q 3041 703 3256 925 
Q 3472 1147 3594 1478 
Q 3716 1809 3716 2247 
z
" transform="scale(0.015625)"/>
       <path id="LiberationSans-61" d="M 1294 -63 
Q 784 -63 528 206 
Q 272 475 272 944 
Q 272 1278 398 1492 
Q 525 1706 729 1828 
Q 934 1950 1196 1997 
Q 1459 2044 1731 2050 
L 2491 2063 
L 2491 2247 
Q 2491 2456 2447 2603 
Q 2403 2750 2312 2840 
Q 2222 2931 2086 2973 
Q 1950 3016 1766 3016 
Q 1603 3016 1472 2992 
Q 1341 2969 1244 2908 
Q 1147 2847 1087 2742 
Q 1028 2638 1009 2478 
L 422 2531 
Q 453 2731 540 2898 
Q 628 3066 789 3187 
Q 950 3309 1192 3376 
Q 1434 3444 1778 3444 
Q 2416 3444 2737 3151 
Q 3059 2859 3059 2306 
L 3059 850 
Q 3059 600 3125 473 
Q 3191 347 3375 347 
Q 3422 347 3469 353 
Q 3516 359 3559 369 
L 3559 19 
Q 3453 -6 3348 -18 
Q 3244 -31 3125 -31 
Q 2966 -31 2852 11 
Q 2738 53 2666 139 
Q 2594 225 2556 351 
Q 2519 478 2509 647 
L 2491 647 
Q 2400 484 2292 353 
Q 2184 222 2040 130 
Q 1897 38 1714 -12 
Q 1531 -63 1294 -63 
z
M 1422 359 
Q 1691 359 1892 457 
Q 2094 556 2226 709 
Q 2359 863 2425 1044 
Q 2491 1225 2491 1391 
L 2491 1669 
L 1875 1656 
Q 1669 1653 1483 1626 
Q 1297 1600 1156 1522 
Q 1016 1444 933 1303 
Q 850 1163 850 934 
Q 850 659 998 509 
Q 1147 359 1422 359 
z
" transform="scale(0.015625)"/>
       <path id="LiberationSans-79" d="M 1888 0 
Q 1769 -306 1645 -551 
Q 1522 -797 1369 -970 
Q 1216 -1144 1028 -1236 
Q 841 -1328 597 -1328 
Q 491 -1328 400 -1322 
Q 309 -1316 209 -1294 
L 209 -872 
Q 269 -881 344 -886 
Q 419 -891 472 -891 
Q 719 -891 931 -706 
Q 1144 -522 1303 -119 
L 1356 16 
L 16 3381 
L 616 3381 
L 1328 1513 
Q 1359 1428 1407 1287 
Q 1456 1147 1504 1006 
Q 1553 866 1590 753 
Q 1628 641 1634 613 
Q 1644 647 1680 748 
Q 1716 850 1761 975 
Q 1806 1100 1853 1228 
Q 1900 1356 1931 1450 
L 2594 3381 
L 3188 3381 
L 1888 0 
z
" transform="scale(0.015625)"/>
      </defs>
      <use xlink:href="#LiberationSans-44"/>
      <use xlink:href="#LiberationSans-61" transform="translate(72.216797 0)"/>
      <use xlink:href="#LiberationSans-79" transform="translate(127.832031 0)"/>
     </g>
    </g>
   </g>
   <g id="matplotlib.axis_2">
    <g id="ytick_1">
     <g id="line2d_17">
      <path d="M 44.49 511.535455 
L 997.2 511.535455 
" clip-path="url(#pdda5de7c53)" style="fill: none; stroke: #cccccc; stroke-width: 0.8; stroke-linecap: round"/>
     </g>
     <g id="line2d_18"/>
     <g id="text_10">
      <!-- 0.0 -->
      <g style="fill: #262626" transform="translate(27.09 515.158892) scale(0.1 -0.1)">
       <defs>
        <path id="LiberationSans-2e" d="M 584 0 
L 584 684 
L 1194 684 
L 1194 0 
L 584 0 
z
" transform="scale(0.015625)"/>
       </defs>
       <use xlink:href="#LiberationSans-30"/>
       <use xlink:href="#LiberationSans-2e" transform="translate(55.615234 0)"/>
       <use xlink:href="#LiberationSans-30" transform="translate(83.398438 0)"/>
      </g>
     </g>
    </g>
    <g id="ytick_2">
     <g id="line2d_19">
      <path d="M 44.49 416.157273 
L 997.2 416.157273 
" clip-path="url(#pdda5de7c53)" style="fill: none; stroke: #cccccc; stroke-width: 0.8; stroke-linecap: round"/>
     </g>
     <g id="line2d_20"/>
     <g id="text_11">
      <!-- 0.2 -->
      <g style="fill: #262626" transform="translate(27.09 419.78071) scale(0.1 -0.1)">
       <use xlink:href="#LiberationSans-30"/>
       <use xlink:href="#LiberationSans-2e" transform="translate(55.615234 0)"/>
       <use xlink:href="#LiberationSans-32" transform="translate(83.398438 0)"/>
      </g>
     </g>
    </g>
    <g id="ytick_3">
     <g id="line2d_21">
      <path d="M 44.49 320.779091 
L 997.2 320.779091 
" clip-path="url(#pdda5de7c53)" style="fill: none; stroke: #cccccc; stroke-width: 0.8; stroke-linecap: round"/>
     </g>
     <g id="line2d_22"/>
     <g id="text_12">
      <!-- 0.4 -->
      <g style="fill: #262626" transform="translate(27.09 324.402528) scale(0.1 -0.1)">
       <use xlink:href="#LiberationSans-30"/>
       <use xlink:href="#LiberationSans-2e" transform="translate(55.615234 0)"/>
       <use xlink:href="#LiberationSans-34" transform="translate(83.398438 0)"/>
      </g>
     </g>
    </g>
    <g id="ytick_4">
     <g id="line2d_23">
      <path d="M 44.49 225.400909 
L 997.2 225.400909 
" clip-path="url(#pdda5de7c53)" style="fill: none; stroke: #cccccc; stroke-width: 0.8; stroke-linecap: round"/>
     </g>
     <g id="line2d_24"/>
     <g id="text_13">
      <!-- 0.6 -->
      <g style="fill: #262626" transform="translate(27.09 229.024347) scale(0.1 -0.1)">
       <use xlink:href="#LiberationSans-30"/>
       <use xlink:href="#LiberationSans-2e" transform="translate(55.615234 0)"/>
       <use xlink:href="#LiberationSans-36" transform="translate(83.398438 0)"/>
      </g>
     </g>
    </g>
    <g id="ytick_5">
     <g id="line2d_25">
      <path d="M 44.49 130.022727 
L 997.2 130.022727 
" clip-path="url(#pdda5de7c53)" style="fill: none; stroke: #cccccc; stroke-width: 0.8; stroke-linecap: round"/>
     </g>
     <g id="line2d_26"/>
     <g id="text_14">
      <!-- 0.8 -->
      <g style="fill: #262626" transform="translate(27.09 133.646165) scale(0.1 -0.1)">
       <use xlink:href="#LiberationSans-30"/>
       <use xlink:href="#LiberationSans-2e" transform="translate(55.615234 0)"/>
       <use xlink:href="#LiberationSans-38" transform="translate(83.398438 0)"/>
      </g>
     </g>
    </g>
    <g id="ytick_6">
     <g id="line2d_27">
      <path d="M 44.49 34.644545 
L 997.2 34.644545 
" clip-path="url(#pdda5de7c53)" style="fill: none; stroke: #cccccc; stroke-width: 0.8; stroke-linecap: round"/>
     </g>
     <g id="line2d_28"/>
     <g id="text_15">
      <!-- 1.0 -->
      <g style="fill: #262626" transform="translate(27.09 38.267983) scale(0.1 -0.1)">
       <use xlink:href="#LiberationSans-31"/>
       <use xlink:href="#LiberationSans-2e" transform="translate(55.615234 0)"/>
       <use xlink:href="#LiberationSans-30" transform="translate(83.398438 0)"/>
      </g>
     </g>
    </g>
    <g id="text_16">
     <!-- Avg. Quarantine Efficiency (Q / (I+E+A+Q)) -->
     <g style="fill: #262626" transform="translate(20.185 406.866563) rotate(-90) scale(0.14 -0.14)">
      <defs>
       <path id="LiberationSans-41" d="M 3647 0 
L 3144 1288 
L 1138 1288 
L 631 0 
L 13 0 
L 1809 4403 
L 2488 4403 
L 4256 0 
L 3647 0 
z
M 2400 3206 
Q 2350 3331 2304 3459 
Q 2259 3588 2225 3692 
Q 2191 3797 2167 3867 
Q 2144 3938 2141 3953 
Q 2134 3938 2112 3866 
Q 2091 3794 2055 3687 
Q 2019 3581 1973 3453 
Q 1928 3325 1881 3200 
L 1319 1753 
L 2966 1753 
L 2400 3206 
z
" transform="scale(0.015625)"/>
       <path id="LiberationSans-76" d="M 1916 0 
L 1250 0 
L 22 3381 
L 622 3381 
L 1366 1181 
Q 1388 1113 1417 1014 
Q 1447 916 1478 809 
Q 1509 703 1536 604 
Q 1563 506 1581 441 
Q 1600 506 1629 604 
Q 1659 703 1690 806 
Q 1722 909 1755 1007 
Q 1788 1106 1813 1175 
L 2581 3381 
L 3178 3381 
L 1916 0 
z
" transform="scale(0.015625)"/>
       <path id="LiberationSans-67" d="M 1713 -1328 
Q 1422 -1328 1197 -1268 
Q 972 -1209 812 -1098 
Q 653 -988 553 -834 
Q 453 -681 409 -494 
L 975 -413 
Q 1031 -647 1223 -773 
Q 1416 -900 1728 -900 
Q 1919 -900 2075 -847 
Q 2231 -794 2340 -676 
Q 2450 -559 2509 -371 
Q 2569 -184 2569 84 
L 2569 628 
L 2563 628 
Q 2500 500 2408 383 
Q 2316 266 2183 175 
Q 2050 84 1875 29 
Q 1700 -25 1475 -25 
Q 1153 -25 923 83 
Q 694 191 548 406 
Q 403 622 336 942 
Q 269 1263 269 1684 
Q 269 2091 336 2416 
Q 403 2741 554 2967 
Q 706 3194 948 3314 
Q 1191 3434 1538 3434 
Q 1897 3434 2161 3270 
Q 2425 3106 2569 2803 
L 2575 2803 
Q 2575 2881 2579 2978 
Q 2584 3075 2589 3161 
Q 2594 3247 2600 3309 
Q 2606 3372 2613 3381 
L 3147 3381 
Q 3144 3353 3141 3286 
Q 3138 3219 3134 3125 
Q 3131 3031 3129 2917 
Q 3128 2803 3128 2681 
L 3128 97 
Q 3128 -613 2779 -970 
Q 2431 -1328 1713 -1328 
z
M 2569 1691 
Q 2569 2044 2492 2295 
Q 2416 2547 2291 2706 
Q 2166 2866 2005 2941 
Q 1844 3016 1675 3016 
Q 1459 3016 1304 2941 
Q 1150 2866 1048 2705 
Q 947 2544 898 2292 
Q 850 2041 850 1691 
Q 850 1325 898 1076 
Q 947 828 1047 675 
Q 1147 522 1300 456 
Q 1453 391 1666 391 
Q 1834 391 1995 462 
Q 2156 534 2284 690 
Q 2413 847 2491 1094 
Q 2569 1341 2569 1691 
z
" transform="scale(0.015625)"/>
       <path id="LiberationSans-20" transform="scale(0.015625)"/>
       <path id="LiberationSans-51" d="M 4672 2222 
Q 4672 1756 4551 1370 
Q 4431 984 4204 693 
Q 3978 403 3648 220 
Q 3319 38 2900 -19 
Q 2966 -219 3048 -359 
Q 3131 -500 3237 -589 
Q 3344 -678 3473 -720 
Q 3603 -763 3763 -763 
Q 3850 -763 3950 -750 
Q 4050 -738 4122 -722 
L 4122 -1141 
Q 4003 -1169 3861 -1189 
Q 3719 -1209 3566 -1209 
Q 3297 -1209 3097 -1129 
Q 2897 -1050 2745 -901 
Q 2594 -753 2484 -537 
Q 2375 -322 2291 -50 
Q 1797 -25 1423 154 
Q 1050 334 801 636 
Q 553 938 428 1342 
Q 303 1747 303 2222 
Q 303 2738 447 3153 
Q 591 3569 869 3861 
Q 1147 4153 1555 4311 
Q 1963 4469 2491 4469 
Q 3016 4469 3423 4309 
Q 3831 4150 4107 3856 
Q 4384 3563 4528 3147 
Q 4672 2731 4672 2222 
z
M 4063 2222 
Q 4063 2619 3961 2944 
Q 3859 3269 3661 3500 
Q 3463 3731 3169 3856 
Q 2875 3981 2491 3981 
Q 2097 3981 1800 3856 
Q 1503 3731 1304 3500 
Q 1106 3269 1007 2944 
Q 909 2619 909 2222 
Q 909 1825 1011 1495 
Q 1113 1166 1311 927 
Q 1509 688 1804 555 
Q 2100 422 2484 422 
Q 2897 422 3195 556 
Q 3494 691 3686 930 
Q 3878 1169 3970 1500 
Q 4063 1831 4063 2222 
z
" transform="scale(0.015625)"/>
       <path id="LiberationSans-75" d="M 981 3381 
L 981 1238 
Q 981 991 1017 825 
Q 1053 659 1134 557 
Q 1216 456 1348 414 
Q 1481 372 1678 372 
Q 1878 372 2039 442 
Q 2200 513 2314 645 
Q 2428 778 2490 973 
Q 2553 1169 2553 1422 
L 2553 3381 
L 3116 3381 
L 3116 722 
Q 3116 616 3117 498 
Q 3119 381 3122 276 
Q 3125 172 3128 97 
Q 3131 22 3134 0 
L 2603 0 
Q 2600 16 2597 84 
Q 2594 153 2589 242 
Q 2584 331 2581 423 
Q 2578 516 2578 578 
L 2569 578 
Q 2488 431 2391 312 
Q 2294 194 2166 111 
Q 2038 28 1872 -17 
Q 1706 -63 1488 -63 
Q 1206 -63 1003 6 
Q 800 75 669 219 
Q 538 363 477 588 
Q 416 813 416 1128 
L 416 3381 
L 981 3381 
z
" transform="scale(0.015625)"/>
       <path id="LiberationSans-72" d="M 444 0 
L 444 2594 
Q 444 2700 442 2811 
Q 441 2922 437 3025 
Q 434 3128 431 3218 
Q 428 3309 425 3381 
L 956 3381 
Q 959 3309 964 3217 
Q 969 3125 973 3028 
Q 978 2931 979 2842 
Q 981 2753 981 2691 
L 994 2691 
Q 1053 2884 1120 3026 
Q 1188 3169 1278 3261 
Q 1369 3353 1494 3398 
Q 1619 3444 1797 3444 
Q 1866 3444 1928 3433 
Q 1991 3422 2025 3413 
L 2025 2897 
Q 1969 2913 1894 2920 
Q 1819 2928 1725 2928 
Q 1531 2928 1395 2840 
Q 1259 2753 1173 2598 
Q 1088 2444 1047 2230 
Q 1006 2016 1006 1763 
L 1006 0 
L 444 0 
z
" transform="scale(0.015625)"/>
       <path id="LiberationSans-6e" d="M 2578 0 
L 2578 2144 
Q 2578 2391 2542 2556 
Q 2506 2722 2425 2823 
Q 2344 2925 2211 2967 
Q 2078 3009 1881 3009 
Q 1681 3009 1520 2939 
Q 1359 2869 1245 2736 
Q 1131 2603 1068 2408 
Q 1006 2213 1006 1959 
L 1006 0 
L 444 0 
L 444 2659 
Q 444 2766 442 2883 
Q 441 3000 437 3104 
Q 434 3209 431 3284 
Q 428 3359 425 3381 
L 956 3381 
Q 959 3366 962 3297 
Q 966 3228 970 3139 
Q 975 3050 978 2958 
Q 981 2866 981 2803 
L 991 2803 
Q 1072 2950 1169 3069 
Q 1266 3188 1394 3270 
Q 1522 3353 1687 3398 
Q 1853 3444 2072 3444 
Q 2353 3444 2556 3375 
Q 2759 3306 2890 3162 
Q 3022 3019 3083 2792 
Q 3144 2566 3144 2253 
L 3144 0 
L 2578 0 
z
" transform="scale(0.015625)"/>
       <path id="LiberationSans-74" d="M 1731 25 
Q 1603 -9 1470 -29 
Q 1338 -50 1163 -50 
Q 488 -50 488 716 
L 488 2972 
L 97 2972 
L 97 3381 
L 509 3381 
L 675 4138 
L 1050 4138 
L 1050 3381 
L 1675 3381 
L 1675 2972 
L 1050 2972 
L 1050 838 
Q 1050 594 1129 495 
Q 1209 397 1406 397 
Q 1488 397 1564 409 
Q 1641 422 1731 441 
L 1731 25 
z
" transform="scale(0.015625)"/>
       <path id="LiberationSans-69" d="M 428 4100 
L 428 4638 
L 991 4638 
L 991 4100 
L 428 4100 
z
M 428 0 
L 428 3381 
L 991 3381 
L 991 0 
L 428 0 
z
" transform="scale(0.015625)"/>
       <path id="LiberationSans-65" d="M 863 1572 
Q 863 1306 917 1082 
Q 972 859 1086 698 
Q 1200 538 1378 448 
Q 1556 359 1806 359 
Q 2172 359 2392 506 
Q 2613 653 2691 878 
L 3184 738 
Q 3131 597 3036 455 
Q 2941 313 2781 198 
Q 2622 84 2383 10 
Q 2144 -63 1806 -63 
Q 1056 -63 664 384 
Q 272 831 272 1713 
Q 272 2188 390 2517 
Q 509 2847 715 3053 
Q 922 3259 1197 3351 
Q 1472 3444 1784 3444 
Q 2209 3444 2495 3306 
Q 2781 3169 2954 2926 
Q 3128 2684 3201 2356 
Q 3275 2028 3275 1647 
L 3275 1572 
L 863 1572 
z
M 2694 2003 
Q 2647 2538 2422 2783 
Q 2197 3028 1775 3028 
Q 1634 3028 1479 2983 
Q 1325 2938 1194 2822 
Q 1063 2706 972 2507 
Q 881 2309 869 2003 
L 2694 2003 
z
" transform="scale(0.015625)"/>
       <path id="LiberationSans-45" d="M 525 0 
L 525 4403 
L 3866 4403 
L 3866 3916 
L 1122 3916 
L 1122 2503 
L 3678 2503 
L 3678 2022 
L 1122 2022 
L 1122 488 
L 3994 488 
L 3994 0 
L 525 0 
z
" transform="scale(0.015625)"/>
       <path id="LiberationSans-66" d="M 1128 2972 
L 1128 0 
L 566 0 
L 566 2972 
L 91 2972 
L 91 3381 
L 566 3381 
L 566 3763 
Q 566 3947 600 4105 
Q 634 4263 726 4380 
Q 819 4497 978 4564 
Q 1138 4631 1391 4631 
Q 1491 4631 1598 4622 
Q 1706 4613 1788 4594 
L 1788 4166 
Q 1734 4175 1664 4183 
Q 1594 4191 1538 4191 
Q 1413 4191 1333 4156 
Q 1253 4122 1208 4058 
Q 1163 3994 1145 3900 
Q 1128 3806 1128 3684 
L 1128 3381 
L 1788 3381 
L 1788 2972 
L 1128 2972 
z
" transform="scale(0.015625)"/>
       <path id="LiberationSans-63" d="M 859 1706 
Q 859 1416 901 1172 
Q 944 928 1044 751 
Q 1144 575 1308 478 
Q 1472 381 1713 381 
Q 2013 381 2214 543 
Q 2416 706 2463 1044 
L 3031 1006 
Q 3003 797 2909 603 
Q 2816 409 2655 262 
Q 2494 116 2262 26 
Q 2031 -63 1728 -63 
Q 1331 -63 1053 71 
Q 775 206 601 442 
Q 428 678 350 998 
Q 272 1319 272 1694 
Q 272 2034 328 2295 
Q 384 2556 486 2751 
Q 588 2947 725 3080 
Q 863 3213 1023 3292 
Q 1184 3372 1362 3408 
Q 1541 3444 1722 3444 
Q 2006 3444 2228 3366 
Q 2450 3288 2611 3152 
Q 2772 3016 2872 2831 
Q 2972 2647 3013 2434 
L 2434 2391 
Q 2391 2672 2212 2837 
Q 2034 3003 1706 3003 
Q 1466 3003 1305 2923 
Q 1144 2844 1044 2683 
Q 944 2522 901 2278 
Q 859 2034 859 1706 
z
" transform="scale(0.015625)"/>
       <path id="LiberationSans-28" d="M 397 1663 
Q 397 2097 462 2494 
Q 528 2891 668 3256 
Q 809 3622 1028 3965 
Q 1247 4309 1550 4638 
L 2094 4638 
Q 1800 4309 1586 3964 
Q 1372 3619 1234 3251 
Q 1097 2884 1030 2487 
Q 963 2091 963 1656 
Q 963 1222 1030 825 
Q 1097 428 1234 59 
Q 1372 -309 1586 -653 
Q 1800 -997 2094 -1325 
L 1550 -1325 
Q 1247 -997 1028 -653 
Q 809 -309 668 56 
Q 528 422 462 817 
Q 397 1213 397 1650 
L 397 1663 
z
" transform="scale(0.015625)"/>
       <path id="LiberationSans-2f" d="M 0 -63 
L 1284 4638 
L 1778 4638 
L 506 -63 
L 0 -63 
z
" transform="scale(0.015625)"/>
       <path id="LiberationSans-49" d="M 591 0 
L 591 4403 
L 1188 4403 
L 1188 0 
L 591 0 
z
" transform="scale(0.015625)"/>
       <path id="LiberationSans-2b" d="M 2097 1900 
L 2097 563 
L 1638 563 
L 1638 1900 
L 313 1900 
L 313 2356 
L 1638 2356 
L 1638 3694 
L 2097 3694 
L 2097 2356 
L 3422 2356 
L 3422 1900 
L 2097 1900 
z
" transform="scale(0.015625)"/>
       <path id="LiberationSans-29" d="M 1734 1650 
Q 1734 1213 1668 817 
Q 1603 422 1462 56 
Q 1322 -309 1103 -653 
Q 884 -997 581 -1325 
L 38 -1325 
Q 331 -997 545 -653 
Q 759 -309 896 59 
Q 1034 428 1101 825 
Q 1169 1222 1169 1656 
Q 1169 2091 1101 2487 
Q 1034 2884 896 3251 
Q 759 3619 545 3964 
Q 331 4309 38 4638 
L 581 4638 
Q 884 4309 1103 3965 
Q 1322 3622 1462 3256 
Q 1603 2891 1668 2494 
Q 1734 2097 1734 1663 
L 1734 1650 
z
" transform="scale(0.015625)"/>
      </defs>
      <use xlink:href="#LiberationSans-41"/>
      <use xlink:href="#LiberationSans-76" transform="translate(64.949219 0)"/>
      <use xlink:href="#LiberationSans-67" transform="translate(114.949219 0)"/>
      <use xlink:href="#LiberationSans-2e" transform="translate(170.564453 0)"/>
      <use xlink:href="#LiberationSans-20" transform="translate(198.347656 0)"/>
      <use xlink:href="#LiberationSans-51" transform="translate(226.130859 0)"/>
      <use xlink:href="#LiberationSans-75" transform="translate(303.914062 0)"/>
      <use xlink:href="#LiberationSans-61" transform="translate(359.529297 0)"/>
      <use xlink:href="#LiberationSans-72" transform="translate(415.144531 0)"/>
      <use xlink:href="#LiberationSans-61" transform="translate(448.445312 0)"/>
      <use xlink:href="#LiberationSans-6e" transform="translate(504.060547 0)"/>
      <use xlink:href="#LiberationSans-74" transform="translate(559.675781 0)"/>
      <use xlink:href="#LiberationSans-69" transform="translate(587.458984 0)"/>
      <use xlink:href="#LiberationSans-6e" transform="translate(609.675781 0)"/>
      <use xlink:href="#LiberationSans-65" transform="translate(665.291016 0)"/>
      <use xlink:href="#LiberationSans-20" transform="translate(720.90625 0)"/>
      <use xlink:href="#LiberationSans-45" transform="translate(748.689453 0)"/>
      <use xlink:href="#LiberationSans-66" transform="translate(815.388672 0)"/>
      <use xlink:href="#LiberationSans-66" transform="translate(841.421875 0)"/>
      <use xlink:href="#LiberationSans-69" transform="translate(869.205078 0)"/>
      <use xlink:href="#LiberationSans-63" transform="translate(891.421875 0)"/>
      <use xlink:href="#LiberationSans-69" transform="translate(941.421875 0)"/>
      <use xlink:href="#LiberationSans-65" transform="translate(963.638672 0)"/>
      <use xlink:href="#LiberationSans-6e" transform="translate(1019.253906 0)"/>
      <use xlink:href="#LiberationSans-63" transform="translate(1074.869141 0)"/>
      <use xlink:href="#LiberationSans-79" transform="translate(1124.869141 0)"/>
      <use xlink:href="#LiberationSans-20" transform="translate(1174.869141 0)"/>
      <use xlink:href="#LiberationSans-28" transform="translate(1202.652344 0)"/>
      <use xlink:href="#LiberationSans-51" transform="translate(1235.953125 0)"/>
      <use xlink:href="#LiberationSans-20" transform="translate(1313.736328 0)"/>
      <use xlink:href="#LiberationSans-2f" transform="translate(1341.519531 0)"/>
      <use xlink:href="#LiberationSans-20" transform="translate(1369.302734 0)"/>
      <use xlink:href="#LiberationSans-28" transform="translate(1397.085938 0)"/>
      <use xlink:href="#LiberationSans-49" transform="translate(1430.386719 0)"/>
      <use xlink:href="#LiberationSans-2b" transform="translate(1458.169922 0)"/>
      <use xlink:href="#LiberationSans-45" transform="translate(1516.568359 0)"/>
      <use xlink:href="#LiberationSans-2b" transform="translate(1583.267578 0)"/>
      <use xlink:href="#LiberationSans-41" transform="translate(1641.666016 0)"/>
      <use xlink:href="#LiberationSans-2b" transform="translate(1708.365234 0)"/>
      <use xlink:href="#LiberationSans-51" transform="translate(1766.763672 0)"/>
      <use xlink:href="#LiberationSans-29" transform="translate(1844.546875 0)"/>
      <use xlink:href="#LiberationSans-29" transform="translate(1877.847656 0)"/>
     </g>
    </g>
   </g>
   <g id="line2d_29">
    <path d="M 87.795 511.535455 
L 198.237282 511.535455 
L 204.050034 493.426683 
L 209.862785 469.289518 
L 215.675537 454.232186 
L 221.488289 441.042612 
L 227.30104 432.357974 
L 233.113792 425.389489 
L 238.926544 418.76851 
L 244.739295 411.803723 
L 250.552047 406.137122 
L 256.364799 401.348324 
L 262.17755 396.273188 
L 267.990302 390.227732 
L 273.803054 382.871655 
L 279.615805 375.025796 
L 285.428557 368.573861 
L 291.241309 360.295298 
L 297.05406 352.234443 
L 302.866812 346.369448 
L 314.492315 330.77589 
L 320.305067 301.454343 
L 326.117819 278.799258 
L 331.93057 260.480749 
L 337.743322 243.58436 
L 343.556074 229.392341 
L 349.368826 212.977261 
L 355.181577 198.651937 
L 360.994329 185.666998 
L 366.807081 173.13577 
L 372.619832 165.001422 
L 378.432584 158.011271 
L 384.245336 152.289581 
L 395.870839 142.285339 
L 401.683591 139.745549 
L 407.496342 140.877471 
L 413.309094 140.401071 
L 419.121846 142.301668 
L 424.934597 142.601525 
L 430.747349 142.645144 
L 436.560101 138.67644 
L 442.372852 136.688518 
L 448.185604 137.721403 
L 453.998356 138.532986 
L 459.811107 137.4084 
L 465.623859 137.105951 
L 471.436611 134.702263 
L 477.249362 140.142639 
L 483.062114 141.828058 
L 488.874866 143.97212 
L 494.687617 148.455434 
L 500.500369 143.187878 
L 506.313121 141.445252 
L 512.125872 138.755661 
L 517.938624 144.557888 
L 523.751376 147.603727 
L 529.564128 142.781265 
L 535.376879 137.667595 
L 541.189631 146.853328 
L 547.002383 145.811387 
L 552.815134 148.776218 
L 558.627886 145.683265 
L 564.440638 149.482281 
L 570.253389 145.265859 
L 576.066141 138.839583 
L 581.878893 141.14018 
L 587.691644 142.218825 
L 593.504396 146.886036 
L 599.317148 156.596259 
L 610.942651 166.252045 
L 622.568154 157.862282 
L 628.380906 171.256931 
L 634.193658 170.508624 
L 640.006409 174.03248 
L 645.819161 164.938898 
L 651.631913 158.694473 
L 657.444664 159.443429 
L 663.257416 168.853817 
L 669.070168 168.837804 
L 674.882919 185.501989 
L 680.695671 192.562452 
L 686.508423 180.298074 
L 692.321174 165.172451 
L 698.133926 189.262488 
L 703.946678 185.249281 
L 709.75943 180.417351 
L 715.572181 176.122182 
L 721.384933 180.046869 
L 727.197685 192.399865 
L 733.010436 184.205821 
L 738.823188 192.715754 
L 744.63594 176.900201 
L 750.448691 169.733066 
L 756.261443 180.060145 
L 762.074195 188.065893 
L 767.886946 184.561706 
L 773.699698 159.286488 
L 779.51245 162.469651 
L 785.325201 170.217818 
L 791.137953 168.016783 
L 796.950705 176.401678 
L 802.763456 173.805855 
L 808.576208 170.121582 
L 814.38896 173.809983 
L 820.201711 170.660354 
L 826.014463 169.393092 
L 831.827215 156.333618 
L 837.639966 161.430088 
L 843.452718 143.813339 
L 849.26547 132.190413 
L 855.078221 219.802625 
L 860.890973 214.803333 
L 866.703725 207.25832 
L 872.516477 233.349091 
L 878.329228 248.702411 
L 884.14198 259.662016 
L 889.954732 257.400083 
L 895.767483 262.870909 
L 901.580235 257.611962 
L 907.392987 257.988455 
L 913.205738 226.593136 
L 919.01849 227.671818 
L 924.831242 212.357739 
L 930.643993 204.205758 
L 936.456745 181.685909 
L 942.269497 183.131033 
L 948.082248 175.327364 
L 953.895 181.950848 
L 953.895 181.950848 
" clip-path="url(#pdda5de7c53)" style="fill: none; stroke: #1f77b4; stroke-width: 2; stroke-linecap: round"/>
   </g>
   <g id="line2d_30">
    <path d="M 87.795 511.535455 
L 198.237282 511.535455 
L 204.050034 504.877171 
L 209.862785 500.322934 
L 215.675537 496.368598 
L 221.488289 493.397818 
L 227.30104 490.791721 
L 233.113792 488.450755 
L 238.926544 487.044328 
L 244.739295 485.779892 
L 250.552047 484.678736 
L 256.364799 484.049147 
L 262.17755 482.461369 
L 273.803054 479.067126 
L 279.615805 477.747703 
L 297.05406 469.769733 
L 302.866812 467.420654 
L 314.492315 462.102449 
L 326.117819 441.009701 
L 331.93057 429.711987 
L 337.743322 418.124721 
L 343.556074 405.916775 
L 349.368826 392.690664 
L 355.181577 379.749869 
L 366.807081 350.420644 
L 372.619832 333.723579 
L 378.432584 317.858108 
L 384.245336 302.860394 
L 390.058087 283.806253 
L 395.870839 263.688003 
L 401.683591 245.677405 
L 407.496342 224.291545 
L 413.309094 205.968128 
L 419.121846 185.721745 
L 424.934597 170.344467 
L 430.747349 158.522869 
L 436.560101 134.708146 
L 442.372852 121.969886 
L 448.185604 115.851323 
L 453.998356 110.436051 
L 459.811107 108.712719 
L 465.623859 106.059458 
L 471.436611 105.203155 
L 477.249362 100.499724 
L 483.062114 97.975872 
L 488.874866 99.677031 
L 494.687617 100.704798 
L 500.500369 96.569845 
L 506.313121 101.475246 
L 512.125872 99.937578 
L 517.938624 95.43978 
L 523.751376 94.94602 
L 529.564128 92.321077 
L 535.376879 91.793069 
L 541.189631 95.407513 
L 547.002383 96.470986 
L 552.815134 100.694767 
L 558.627886 99.953606 
L 564.440638 101.109113 
L 570.253389 96.205088 
L 576.066141 95.911807 
L 581.878893 89.939296 
L 587.691644 91.638314 
L 593.504396 86.56574 
L 599.317148 94.557259 
L 605.129899 93.890283 
L 610.942651 92.596268 
L 616.755403 98.148972 
L 622.568154 86.66439 
L 628.380906 85.382277 
L 634.193658 76.202044 
L 640.006409 84.042392 
L 645.819161 91.175542 
L 651.631913 98.611477 
L 657.444664 99.561579 
L 663.257416 97.038407 
L 669.070168 104.631127 
L 674.882919 107.227862 
L 680.695671 109.622394 
L 686.508423 106.973 
L 692.321174 91.626435 
L 698.133926 77.481062 
L 703.946678 82.049773 
L 709.75943 91.046066 
L 715.572181 96.395804 
L 721.384933 93.316579 
L 727.197685 77.791818 
L 733.010436 77.791818 
L 738.823188 69.616545 
L 744.63594 79.732413 
L 750.448691 89.270231 
L 756.261443 84.501322 
L 762.074195 87.907686 
L 767.886946 76.883455 
L 773.699698 85.512909 
L 779.51245 77.564727 
L 785.325201 66.437273 
L 791.137953 66.437273 
L 796.950705 75.520909 
L 802.763456 75.520909 
L 814.38896 89.146364 
L 820.201711 98.23 
L 826.014463 87.632424 
L 831.827215 66.437273 
L 837.639966 70.411364 
L 843.452718 70.411364 
L 849.26547 82.333636 
L 855.078221 82.333636 
L 860.890973 66.437273 
L 866.703725 34.644545 
L 878.329228 34.644545 
L 884.14198 130.022727 
L 930.643993 130.022727 
L 936.456745 225.400909 
L 953.895 225.400909 
L 953.895 225.400909 
" clip-path="url(#pdda5de7c53)" style="fill: none; stroke: #ff7f0e; stroke-width: 2; stroke-linecap: round"/>
   </g>
   <g id="line2d_31">
    <path d="M 87.795 511.535455 
L 198.237282 511.535455 
L 204.050034 503.943879 
L 209.862785 499.403163 
L 221.488289 494.588391 
L 227.30104 492.602921 
L 233.113792 491.747238 
L 238.926544 490.49904 
L 244.739295 489.591706 
L 262.17755 487.542751 
L 267.990302 487.241475 
L 273.803054 486.302602 
L 279.615805 484.971061 
L 285.428557 483.09068 
L 291.241309 481.043997 
L 297.05406 478.468227 
L 302.866812 476.427005 
L 308.679564 473.997631 
L 314.492315 471.070353 
L 320.305067 462.436641 
L 326.117819 456.12646 
L 331.93057 450.544032 
L 337.743322 447.018039 
L 343.556074 441.394421 
L 355.181577 430.904207 
L 360.994329 425.101607 
L 366.807081 420.500355 
L 372.619832 416.146117 
L 378.432584 409.813976 
L 384.245336 406.078638 
L 390.058087 400.242803 
L 395.870839 396.450643 
L 401.683591 393.869599 
L 407.496342 394.934721 
L 413.309094 394.449253 
L 419.121846 396.754963 
L 424.934597 399.818214 
L 430.747349 401.0531 
L 436.560101 401.330252 
L 442.372852 405.116444 
L 448.185604 405.28929 
L 453.998356 406.297121 
L 459.811107 404.390672 
L 465.623859 405.273054 
L 471.436611 404.181334 
L 477.249362 406.734388 
L 483.062114 407.877197 
L 488.874866 407.960082 
L 494.687617 408.755755 
L 500.500369 411.467189 
L 506.313121 408.555656 
L 512.125872 407.861475 
L 517.938624 408.998719 
L 523.751376 408.264602 
L 535.376879 414.521144 
L 541.189631 415.873558 
L 547.002383 418.243708 
L 552.815134 420.169026 
L 558.627886 414.522819 
L 564.440638 413.467201 
L 570.253389 409.220438 
L 576.066141 401.769524 
L 581.878893 395.495139 
L 587.691644 388.74045 
L 593.504396 392.189554 
L 599.317148 386.597321 
L 605.129899 390.332416 
L 610.942651 392.762975 
L 616.755403 388.962286 
L 622.568154 395.606113 
L 628.380906 392.586074 
L 634.193658 390.042898 
L 640.006409 392.478375 
L 645.819161 400.236782 
L 651.631913 399.439359 
L 657.444664 408.599177 
L 663.257416 407.596166 
L 669.070168 407.62941 
L 674.882919 394.640838 
L 680.695671 387.91076 
L 686.508423 378.493597 
L 692.321174 355.434389 
L 698.133926 351.257646 
L 703.946678 361.277297 
L 709.75943 363.110318 
L 715.572181 366.61339 
L 721.384933 360.282322 
L 727.197685 356.029832 
L 733.010436 356.022882 
L 738.823188 354.074489 
L 744.63594 350.478936 
L 750.448691 357.783016 
L 756.261443 356.941488 
L 762.074195 369.333639 
L 767.886946 364.189425 
L 773.699698 365.876321 
L 779.51245 344.013369 
L 785.325201 334.077708 
L 791.137953 338.277667 
L 796.950705 344.162171 
L 802.763456 344.668073 
L 808.576208 336.873779 
L 814.38896 341.595892 
L 820.201711 334.260276 
L 826.014463 330.263165 
L 831.827215 316.937123 
L 837.639966 332.690009 
L 843.452718 332.286486 
L 849.26547 340.515463 
L 855.078221 324.751301 
L 860.890973 332.938746 
L 866.703725 338.188332 
L 872.516477 337.930906 
L 878.329228 339.869228 
L 884.14198 342.996613 
L 889.954732 339.03205 
L 895.767483 340.889107 
L 901.580235 334.426461 
L 907.392987 320.550247 
L 913.205738 308.310733 
L 919.01849 276.817896 
L 924.831242 281.705017 
L 930.643993 275.263363 
L 936.456745 288.611565 
L 942.269497 293.020215 
L 948.082248 284.087434 
L 953.895 272.872133 
L 953.895 272.872133 
" clip-path="url(#pdda5de7c53)" style="fill: none; stroke: #2ca02c; stroke-width: 2; stroke-linecap: round"/>
   </g>
   <g id="line2d_32">
    <path d="M 87.795 511.535455 
L 198.237282 511.535455 
L 204.050034 504.361298 
L 209.862785 499.818711 
L 215.675537 496.136367 
L 221.488289 493.774315 
L 227.30104 491.683265 
L 233.113792 490.401301 
L 238.926544 489.288725 
L 244.739295 488.873442 
L 250.552047 486.994344 
L 256.364799 485.263506 
L 262.17755 484.144576 
L 273.803054 481.360222 
L 279.615805 479.716643 
L 285.428557 477.439848 
L 291.241309 474.666609 
L 302.866812 469.719389 
L 308.679564 466.944725 
L 314.492315 463.759864 
L 320.305067 453.666509 
L 326.117819 442.998513 
L 331.93057 431.141358 
L 337.743322 418.051085 
L 343.556074 403.519872 
L 349.368826 391.205592 
L 355.181577 376.616858 
L 360.994329 360.947933 
L 366.807081 346.945975 
L 372.619832 330.538383 
L 384.245336 294.865537 
L 395.870839 253.46024 
L 401.683591 234.458878 
L 407.496342 217.287548 
L 413.309094 203.332778 
L 419.121846 193.171314 
L 424.934597 184.728238 
L 430.747349 176.815829 
L 436.560101 157.864774 
L 442.372852 150.572704 
L 448.185604 147.713267 
L 453.998356 148.825836 
L 459.811107 149.774012 
L 465.623859 148.584125 
L 471.436611 146.976317 
L 477.249362 146.135276 
L 483.062114 146.858191 
L 488.874866 148.796437 
L 494.687617 140.223575 
L 500.500369 137.935542 
L 506.313121 148.363185 
L 517.938624 154.606875 
L 523.751376 152.284479 
L 529.564128 153.305775 
L 535.376879 145.388561 
L 541.189631 149.48673 
L 547.002383 152.419203 
L 552.815134 145.313999 
L 558.627886 141.174764 
L 564.440638 142.772661 
L 570.253389 145.464309 
L 576.066141 139.702357 
L 581.878893 139.822334 
L 587.691644 138.569757 
L 593.504396 132.871421 
L 599.317148 126.425467 
L 605.129899 129.32122 
L 610.942651 136.952993 
L 616.755403 138.703501 
L 622.568154 133.996818 
L 628.380906 140.980115 
L 634.193658 141.004768 
L 640.006409 149.034312 
L 645.819161 153.406181 
L 651.631913 162.459735 
L 657.444664 165.224972 
L 663.257416 161.128158 
L 669.070168 174.777987 
L 674.882919 195.70916 
L 680.695671 160.417061 
L 686.508423 160.128978 
L 692.321174 169.568462 
L 698.133926 164.8281 
L 703.946678 153.264232 
L 709.75943 162.468146 
L 715.572181 168.995244 
L 721.384933 170.658642 
L 727.197685 184.046459 
L 733.010436 184.272144 
L 738.823188 173.399849 
L 744.63594 174.27634 
L 750.448691 176.008636 
L 756.261443 183.127997 
L 762.074195 157.273636 
L 767.886946 170.76146 
L 773.699698 186.912846 
L 779.51245 196.547005 
L 785.325201 201.845793 
L 791.137953 191.712846 
L 796.950705 155.701469 
L 802.763456 155.19197 
L 808.576208 149.789959 
L 814.38896 152.969231 
L 820.201711 153.072455 
L 826.014463 147.962909 
L 831.827215 164.994727 
L 837.639966 149.325455 
L 843.452718 149.325455 
L 849.26547 153.867273 
L 855.078221 153.867273 
L 860.890973 126.616364 
L 866.703725 102.771818 
L 872.516477 91.417273 
L 878.329228 91.417273 
L 884.14198 94.596545 
L 889.954732 106.178182 
L 895.767483 106.178182 
L 901.580235 108.827576 
L 907.392987 124.723939 
L 913.205738 114.126364 
L 919.01849 124.723939 
L 924.831242 107.313636 
L 930.643993 85.512909 
L 936.456745 66.437273 
L 942.269497 66.437273 
L 948.082248 82.333636 
L 953.895 82.333636 
L 953.895 82.333636 
" clip-path="url(#pdda5de7c53)" style="fill: none; stroke: #d62728; stroke-width: 2; stroke-linecap: round"/>
   </g>
   <g id="line2d_33">
    <path d="M 87.795 511.535455 
L 198.237282 511.535455 
L 204.050034 505.632637 
L 209.862785 501.298502 
L 221.488289 494.893099 
L 227.30104 492.550572 
L 233.113792 490.641532 
L 238.926544 488.468232 
L 244.739295 486.572159 
L 250.552047 485.04241 
L 262.17755 482.389577 
L 267.990302 480.281644 
L 273.803054 478.38166 
L 279.615805 475.911442 
L 285.428557 474.216813 
L 291.241309 471.835011 
L 297.05406 469.631259 
L 302.866812 466.487108 
L 308.679564 462.885228 
L 314.492315 458.294426 
L 320.305067 446.384049 
L 326.117819 435.247459 
L 331.93057 422.892398 
L 337.743322 411.351141 
L 343.556074 397.671838 
L 349.368826 381.889234 
L 355.181577 365.040749 
L 360.994329 350.008567 
L 366.807081 336.709166 
L 372.619832 319.025497 
L 378.432584 307.036396 
L 384.245336 290.371612 
L 390.058087 276.779017 
L 395.870839 267.658239 
L 401.683591 259.527918 
L 407.496342 250.519638 
L 413.309094 240.474016 
L 419.121846 231.90213 
L 424.934597 226.847764 
L 430.747349 222.509424 
L 436.560101 207.231452 
L 442.372852 189.555526 
L 448.185604 180.006153 
L 453.998356 173.949944 
L 459.811107 170.088533 
L 465.623859 167.982307 
L 471.436611 161.516446 
L 477.249362 166.319169 
L 483.062114 164.183338 
L 488.874866 165.917599 
L 494.687617 166.578355 
L 500.500369 166.865851 
L 506.313121 168.937218 
L 512.125872 174.501093 
L 517.938624 180.976216 
L 523.751376 177.179718 
L 529.564128 178.429259 
L 535.376879 176.129589 
L 541.189631 162.846905 
L 547.002383 159.218954 
L 552.815134 149.805338 
L 558.627886 152.507507 
L 564.440638 154.382598 
L 570.253389 153.532952 
L 576.066141 163.17588 
L 581.878893 166.09043 
L 587.691644 166.765454 
L 593.504396 171.63731 
L 599.317148 175.149458 
L 605.129899 174.095006 
L 610.942651 180.769426 
L 616.755403 177.481276 
L 622.568154 181.615128 
L 628.380906 174.08572 
L 634.193658 171.778277 
L 640.006409 166.478817 
L 645.819161 168.811828 
L 651.631913 166.206408 
L 657.444664 170.767791 
L 663.257416 166.480698 
L 669.070168 167.091233 
L 674.882919 158.453877 
L 680.695671 164.60501 
L 686.508423 170.225144 
L 692.321174 172.106802 
L 698.133926 148.86275 
L 703.946678 132.23417 
L 709.75943 144.691625 
L 715.572181 147.56007 
L 721.384933 146.827455 
L 727.197685 151.025196 
L 733.010436 148.470876 
L 738.823188 134.412462 
L 744.63594 129.587366 
L 750.448691 123.103134 
L 756.261443 108.677396 
L 762.074195 102.656046 
L 767.886946 97.037773 
L 773.699698 84.150364 
L 779.51245 84.150364 
L 785.325201 93.8585 
L 791.137953 94.255909 
L 796.950705 101.348133 
L 802.763456 100.500909 
L 808.576208 118.120834 
L 814.38896 140.138595 
L 820.201711 130.600777 
L 826.014463 145.511492 
L 831.827215 152.848275 
L 837.639966 152.181295 
L 843.452718 156.516667 
L 849.26547 177.711818 
L 855.078221 208.203934 
L 860.890973 219.331388 
L 866.703725 226.749691 
L 872.516477 201.989901 
L 878.329228 172.41303 
L 884.14198 188.309394 
L 889.954732 196.053776 
L 895.767483 203.390559 
L 901.580235 197.276573 
L 907.392987 189.93979 
L 913.205738 194.481608 
L 919.01849 200.211287 
L 924.831242 204.962727 
L 930.643993 198.15 
L 936.456745 200.537366 
L 942.269497 190.227507 
L 948.082248 285.958485 
L 953.895 287.074019 
L 953.895 287.074019 
" clip-path="url(#pdda5de7c53)" style="fill: none; stroke: #9467bd; stroke-width: 2; stroke-linecap: round"/>
   </g>
   <g id="line2d_34">
    <path d="M 87.795 511.535455 
L 198.237282 511.535455 
L 204.050034 505.249393 
L 209.862785 500.769084 
L 215.675537 497.2483 
L 221.488289 494.611957 
L 227.30104 493.100319 
L 238.926544 488.933903 
L 244.739295 487.444864 
L 250.552047 485.71561 
L 256.364799 484.216933 
L 262.17755 482.998746 
L 267.990302 481.094439 
L 273.803054 478.806083 
L 279.615805 476.20062 
L 285.428557 473.395768 
L 297.05406 467.19401 
L 302.866812 464.642223 
L 308.679564 462.254276 
L 314.492315 458.777115 
L 337.743322 415.703516 
L 343.556074 401.898892 
L 349.368826 387.750726 
L 355.181577 375.33257 
L 360.994329 360.925835 
L 366.807081 345.96987 
L 372.619832 332.575423 
L 378.432584 318.736648 
L 384.245336 303.121606 
L 390.058087 287.910113 
L 395.870839 274.085889 
L 401.683591 257.65295 
L 407.496342 249.373865 
L 419.121846 231.226174 
L 424.934597 223.31312 
L 430.747349 222.088854 
L 442.372852 197.232182 
L 448.185604 186.896945 
L 453.998356 180.629617 
L 459.811107 168.747461 
L 465.623859 159.961684 
L 471.436611 143.904652 
L 477.249362 137.108876 
L 483.062114 135.858136 
L 488.874866 136.599272 
L 494.687617 135.005095 
L 500.500369 134.95956 
L 506.313121 134.787951 
L 512.125872 138.674573 
L 517.938624 140.989802 
L 523.751376 136.475666 
L 529.564128 136.527538 
L 535.376879 136.196057 
L 541.189631 136.304747 
L 547.002383 137.748424 
L 552.815134 138.504668 
L 558.627886 128.031065 
L 564.440638 122.097643 
L 570.253389 124.417637 
L 576.066141 120.742279 
L 587.691644 120.733054 
L 593.504396 121.703882 
L 599.317148 128.593111 
L 605.129899 125.085844 
L 610.942651 117.098715 
L 616.755403 112.74946 
L 622.568154 111.616849 
L 628.380906 112.631834 
L 634.193658 113.987587 
L 640.006409 119.228763 
L 645.819161 128.336749 
L 651.631913 133.007141 
L 657.444664 132.729263 
L 663.257416 135.698023 
L 669.070168 135.110819 
L 674.882919 162.104884 
L 680.695671 165.097226 
L 686.508423 169.589807 
L 692.321174 167.360001 
L 698.133926 159.00865 
L 703.946678 154.297564 
L 709.75943 139.226588 
L 715.572181 139.560545 
L 721.384933 132.899519 
L 727.197685 122.517478 
L 733.010436 130.292103 
L 738.823188 121.677136 
L 744.63594 117.873364 
L 750.448691 126.502818 
L 756.261443 141.831455 
L 762.074195 166.706643 
L 767.886946 152.958909 
L 773.699698 156.487552 
L 779.51245 135.7 
L 785.325201 158.409091 
L 791.137953 169.091098 
L 796.950705 155.780077 
L 802.763456 161.570895 
L 808.576208 181.668441 
L 814.38896 167.234669 
L 820.201711 134.874215 
L 826.014463 141.150182 
L 837.639966 145.437383 
L 849.26547 190.717934 
L 855.078221 202.640207 
L 860.890973 205.24143 
L 866.703725 224.87103 
L 872.516477 237.628881 
L 878.329228 248.226457 
L 884.14198 229.375 
L 889.954732 245.839091 
L 895.767483 264.646876 
L 901.580235 255.796154 
L 907.392987 349.427483 
L 913.205738 356.453008 
L 919.01849 334.15681 
L 930.643993 296.934545 
L 936.456745 306.472364 
L 942.269497 322.368727 
L 948.082248 277.064091 
L 953.895 269.115909 
L 953.895 269.115909 
" clip-path="url(#pdda5de7c53)" style="fill: none; stroke: #8c564b; stroke-width: 2; stroke-linecap: round"/>
   </g>
   <g id="line2d_35">
    <path d="M 204.050034 535.38 
L 204.050034 10.8 
" clip-path="url(#pdda5de7c53)" style="fill: none; stroke-dasharray: 5.55,2.4; stroke-dashoffset: 0; stroke: #000000; stroke-width: 1.5"/>
   </g>
   <g id="patch_3">
    <path d="M 44.49 535.38 
L 44.49 10.8 
" style="fill: none; stroke: #cccccc; stroke-linejoin: miter; stroke-linecap: square"/>
   </g>
   <g id="patch_4">
    <path d="M 997.2 535.38 
L 997.2 10.8 
" style="fill: none; stroke: #cccccc; stroke-linejoin: miter; stroke-linecap: square"/>
   </g>
   <g id="patch_5">
    <path d="M 44.49 535.38 
L 997.2 535.38 
" style="fill: none; stroke: #cccccc; stroke-linejoin: miter; stroke-linecap: square"/>
   </g>
   <g id="patch_6">
    <path d="M 44.49 10.8 
L 997.2 10.8 
" style="fill: none; stroke: #cccccc; stroke-linejoin: miter; stroke-linecap: square"/>
   </g>
   <g id="legend_1">
    <g id="patch_7">
     <path d="M 52.89 138.839375 
L 155.990625 138.839375 
Q 158.390625 138.839375 158.390625 136.439375 
L 158.390625 19.2 
Q 158.390625 16.8 155.990625 16.8 
L 52.89 16.8 
Q 50.49 16.8 50.49 19.2 
L 50.49 136.439375 
Q 50.49 138.839375 52.89 138.839375 
z
" style="fill: #ffffff; opacity: 0.8; stroke: #cccccc; stroke-linejoin: miter"/>
    </g>
    <g id="text_17">
     <!-- Strategy -->
     <g style="fill: #262626" transform="translate(85.820781 28.846875) scale(0.1 -0.1)">
      <defs>
       <path id="LiberationSans-53" d="M 3975 1216 
Q 3975 938 3867 703 
Q 3759 469 3534 298 
Q 3309 128 2967 32 
Q 2625 -63 2156 -63 
Q 1334 -63 875 225 
Q 416 513 291 1056 
L 869 1172 
Q 913 1000 1003 859 
Q 1094 719 1248 617 
Q 1403 516 1631 459 
Q 1859 403 2178 403 
Q 2444 403 2666 448 
Q 2888 494 3047 587 
Q 3206 681 3295 829 
Q 3384 978 3384 1184 
Q 3384 1400 3286 1534 
Q 3188 1669 3009 1756 
Q 2831 1844 2584 1903 
Q 2338 1963 2038 2031 
Q 1853 2072 1667 2120 
Q 1481 2169 1311 2236 
Q 1141 2303 991 2393 
Q 841 2484 731 2611 
Q 622 2738 559 2905 
Q 497 3072 497 3291 
Q 497 3603 623 3826 
Q 750 4050 975 4194 
Q 1200 4338 1506 4403 
Q 1813 4469 2169 4469 
Q 2578 4469 2868 4405 
Q 3159 4341 3359 4212 
Q 3559 4084 3679 3895 
Q 3800 3706 3872 3456 
L 3284 3353 
Q 3241 3513 3158 3638 
Q 3075 3763 2940 3847 
Q 2806 3931 2614 3975 
Q 2422 4019 2163 4019 
Q 1856 4019 1648 3964 
Q 1441 3909 1314 3815 
Q 1188 3722 1133 3595 
Q 1078 3469 1078 3322 
Q 1078 3125 1176 2998 
Q 1275 2872 1444 2787 
Q 1613 2703 1834 2647 
Q 2056 2591 2306 2534 
Q 2509 2488 2711 2439 
Q 2913 2391 3097 2323 
Q 3281 2256 3442 2165 
Q 3603 2075 3722 1944 
Q 3841 1813 3908 1634 
Q 3975 1456 3975 1216 
z
" transform="scale(0.015625)"/>
      </defs>
      <use xlink:href="#LiberationSans-53"/>
      <use xlink:href="#LiberationSans-74" transform="translate(66.699219 0)"/>
      <use xlink:href="#LiberationSans-72" transform="translate(94.482422 0)"/>
      <use xlink:href="#LiberationSans-61" transform="translate(127.783203 0)"/>
      <use xlink:href="#LiberationSans-74" transform="translate(183.398438 0)"/>
      <use xlink:href="#LiberationSans-65" transform="translate(211.181641 0)"/>
      <use xlink:href="#LiberationSans-67" transform="translate(266.796875 0)"/>
      <use xlink:href="#LiberationSans-79" transform="translate(322.412109 0)"/>
     </g>
    </g>
    <g id="line2d_36">
     <path d="M 55.29 41.418125 
L 67.29 41.418125 
L 79.29 41.418125 
" style="fill: none; stroke: #1f77b4; stroke-width: 2; stroke-linecap: round"/>
    </g>
    <g id="text_18">
     <!-- GNTS -->
     <g style="fill: #262626" transform="translate(88.89 45.618125) scale(0.12 -0.12)">
      <defs>
       <path id="LiberationSans-47" d="M 322 2222 
Q 322 2738 461 3153 
Q 600 3569 876 3861 
Q 1153 4153 1562 4311 
Q 1972 4469 2513 4469 
Q 2919 4469 3225 4397 
Q 3531 4325 3756 4190 
Q 3981 4056 4137 3864 
Q 4294 3672 4403 3431 
L 3834 3263 
Q 3753 3425 3639 3558 
Q 3525 3691 3362 3784 
Q 3200 3878 2986 3929 
Q 2772 3981 2497 3981 
Q 2097 3981 1801 3856 
Q 1506 3731 1312 3500 
Q 1119 3269 1023 2944 
Q 928 2619 928 2222 
Q 928 1825 1031 1495 
Q 1134 1166 1337 927 
Q 1541 688 1842 555 
Q 2144 422 2541 422 
Q 2800 422 3019 465 
Q 3238 509 3414 579 
Q 3591 650 3725 736 
Q 3859 822 3950 909 
L 3950 1703 
L 2634 1703 
L 2634 2203 
L 4500 2203 
L 4500 684 
Q 4353 534 4154 398 
Q 3956 263 3709 159 
Q 3463 56 3169 -3 
Q 2875 -63 2541 -63 
Q 1984 -63 1568 107 
Q 1153 278 876 583 
Q 600 888 461 1306 
Q 322 1725 322 2222 
z
" transform="scale(0.015625)"/>
       <path id="LiberationSans-4e" d="M 3381 0 
L 1025 3750 
Q 1031 3597 1041 3447 
Q 1047 3319 1051 3176 
Q 1056 3034 1056 2925 
L 1056 0 
L 525 0 
L 525 4403 
L 1219 4403 
L 3600 628 
Q 3591 781 3581 934 
Q 3575 1066 3569 1220 
Q 3563 1375 3563 1516 
L 3563 4403 
L 4100 4403 
L 4100 0 
L 3381 0 
z
" transform="scale(0.015625)"/>
       <path id="LiberationSans-54" d="M 2250 3916 
L 2250 0 
L 1656 0 
L 1656 3916 
L 144 3916 
L 144 4403 
L 3763 4403 
L 3763 3916 
L 2250 3916 
z
" transform="scale(0.015625)"/>
      </defs>
      <use xlink:href="#LiberationSans-47"/>
      <use xlink:href="#LiberationSans-4e" transform="translate(77.783203 0)"/>
      <use xlink:href="#LiberationSans-54" transform="translate(150 0)"/>
      <use xlink:href="#LiberationSans-53" transform="translate(211.083984 0)"/>
     </g>
    </g>
    <g id="line2d_37">
     <path d="M 55.29 58.604375 
L 67.29 58.604375 
L 79.29 58.604375 
" style="fill: none; stroke: #ff7f0e; stroke-width: 2; stroke-linecap: round"/>
    </g>
    <g id="text_19">
     <!-- BBTS -->
     <g style="fill: #262626" transform="translate(88.89 62.804375) scale(0.12 -0.12)">
      <defs>
       <path id="LiberationSans-42" d="M 3931 1241 
Q 3931 906 3800 670 
Q 3669 434 3447 286 
Q 3225 138 2931 69 
Q 2638 0 2313 0 
L 525 0 
L 525 4403 
L 2125 4403 
Q 2491 4403 2778 4342 
Q 3066 4281 3266 4150 
Q 3466 4019 3570 3817 
Q 3675 3616 3675 3334 
Q 3675 3150 3623 2987 
Q 3572 2825 3467 2692 
Q 3363 2559 3205 2464 
Q 3047 2369 2838 2322 
Q 3103 2291 3308 2200 
Q 3513 2109 3650 1968 
Q 3788 1828 3859 1642 
Q 3931 1456 3931 1241 
z
M 3075 3263 
Q 3075 3619 2831 3772 
Q 2588 3925 2125 3925 
L 1122 3925 
L 1122 2531 
L 2125 2531 
Q 2388 2531 2569 2582 
Q 2750 2634 2862 2729 
Q 2975 2825 3025 2959 
Q 3075 3094 3075 3263 
z
M 3328 1288 
Q 3328 1497 3251 1644 
Q 3175 1791 3031 1884 
Q 2888 1978 2686 2022 
Q 2484 2066 2234 2066 
L 1122 2066 
L 1122 478 
L 2281 478 
Q 2509 478 2701 515 
Q 2894 553 3033 647 
Q 3172 741 3250 897 
Q 3328 1053 3328 1288 
z
" transform="scale(0.015625)"/>
      </defs>
      <use xlink:href="#LiberationSans-42"/>
      <use xlink:href="#LiberationSans-42" transform="translate(66.699219 0)"/>
      <use xlink:href="#LiberationSans-54" transform="translate(133.398438 0)"/>
      <use xlink:href="#LiberationSans-53" transform="translate(194.482422 0)"/>
     </g>
    </g>
    <g id="line2d_38">
     <path d="M 55.29 75.790625 
L 67.29 75.790625 
L 79.29 75.790625 
" style="fill: none; stroke: #2ca02c; stroke-width: 2; stroke-linecap: round"/>
    </g>
    <g id="text_20">
     <!-- GPTS -->
     <g style="fill: #262626" transform="translate(88.89 79.990625) scale(0.12 -0.12)">
      <defs>
       <path id="LiberationSans-50" d="M 3931 3078 
Q 3931 2791 3836 2542 
Q 3741 2294 3552 2111 
Q 3363 1928 3078 1822 
Q 2794 1716 2416 1716 
L 1122 1716 
L 1122 0 
L 525 0 
L 525 4403 
L 2378 4403 
Q 2769 4403 3059 4308 
Q 3350 4213 3544 4039 
Q 3738 3866 3834 3620 
Q 3931 3375 3931 3078 
z
M 3331 3072 
Q 3331 3491 3075 3708 
Q 2819 3925 2306 3925 
L 1122 3925 
L 1122 2188 
L 2331 2188 
Q 2847 2188 3089 2416 
Q 3331 2644 3331 3072 
z
" transform="scale(0.015625)"/>
      </defs>
      <use xlink:href="#LiberationSans-47"/>
      <use xlink:href="#LiberationSans-50" transform="translate(77.783203 0)"/>
      <use xlink:href="#LiberationSans-54" transform="translate(144.482422 0)"/>
      <use xlink:href="#LiberationSans-53" transform="translate(205.566406 0)"/>
     </g>
    </g>
    <g id="line2d_39">
     <path d="M 55.29 92.976875 
L 67.29 92.976875 
L 79.29 92.976875 
" style="fill: none; stroke: #d62728; stroke-width: 2; stroke-linecap: round"/>
    </g>
    <g id="text_21">
     <!-- Proportional -->
     <g style="fill: #262626" transform="translate(88.89 97.176875) scale(0.12 -0.12)">
      <defs>
       <path id="LiberationSans-6f" d="M 3291 1694 
Q 3291 806 2900 371 
Q 2509 -63 1766 -63 
Q 1413 -63 1134 43 
Q 856 150 664 369 
Q 472 588 370 917 
Q 269 1247 269 1694 
Q 269 3444 1784 3444 
Q 2178 3444 2464 3334 
Q 2750 3225 2933 3006 
Q 3116 2788 3203 2459 
Q 3291 2131 3291 1694 
z
M 2700 1694 
Q 2700 2088 2639 2344 
Q 2578 2600 2461 2753 
Q 2344 2906 2175 2967 
Q 2006 3028 1794 3028 
Q 1578 3028 1404 2964 
Q 1231 2900 1109 2745 
Q 988 2591 923 2334 
Q 859 2078 859 1694 
Q 859 1300 928 1042 
Q 997 784 1117 631 
Q 1238 478 1402 415 
Q 1566 353 1759 353 
Q 1975 353 2150 414 
Q 2325 475 2447 628 
Q 2569 781 2634 1040 
Q 2700 1300 2700 1694 
z
" transform="scale(0.015625)"/>
       <path id="LiberationSans-70" d="M 3291 1706 
Q 3291 1322 3228 997 
Q 3166 672 3020 437 
Q 2875 203 2636 70 
Q 2397 -63 2047 -63 
Q 1684 -63 1412 75 
Q 1141 213 997 525 
L 981 525 
Q 984 519 986 469 
Q 988 419 989 344 
Q 991 269 992 176 
Q 994 84 994 -6 
L 994 -1328 
L 431 -1328 
L 431 2691 
Q 431 2813 429 2925 
Q 428 3038 425 3130 
Q 422 3222 419 3287 
Q 416 3353 413 3381 
L 956 3381 
Q 959 3372 964 3315 
Q 969 3259 973 3179 
Q 978 3100 983 3009 
Q 988 2919 988 2838 
L 1000 2838 
Q 1078 3000 1178 3114 
Q 1278 3228 1406 3301 
Q 1534 3375 1692 3408 
Q 1850 3441 2047 3441 
Q 2397 3441 2636 3316 
Q 2875 3191 3020 2964 
Q 3166 2738 3228 2417 
Q 3291 2097 3291 1706 
z
M 2700 1694 
Q 2700 2006 2662 2250 
Q 2625 2494 2533 2662 
Q 2441 2831 2287 2918 
Q 2134 3006 1903 3006 
Q 1716 3006 1550 2953 
Q 1384 2900 1261 2750 
Q 1138 2600 1066 2336 
Q 994 2072 994 1650 
Q 994 1291 1053 1042 
Q 1113 794 1227 641 
Q 1341 488 1509 420 
Q 1678 353 1897 353 
Q 2131 353 2286 443 
Q 2441 534 2533 706 
Q 2625 878 2662 1126 
Q 2700 1375 2700 1694 
z
" transform="scale(0.015625)"/>
       <path id="LiberationSans-6c" d="M 431 0 
L 431 4638 
L 994 4638 
L 994 0 
L 431 0 
z
" transform="scale(0.015625)"/>
      </defs>
      <use xlink:href="#LiberationSans-50"/>
      <use xlink:href="#LiberationSans-72" transform="translate(66.699219 0)"/>
      <use xlink:href="#LiberationSans-6f" transform="translate(100 0)"/>
      <use xlink:href="#LiberationSans-70" transform="translate(155.615234 0)"/>
      <use xlink:href="#LiberationSans-6f" transform="translate(211.230469 0)"/>
      <use xlink:href="#LiberationSans-72" transform="translate(266.845703 0)"/>
      <use xlink:href="#LiberationSans-74" transform="translate(300.146484 0)"/>
      <use xlink:href="#LiberationSans-69" transform="translate(327.929688 0)"/>
      <use xlink:href="#LiberationSans-6f" transform="translate(350.146484 0)"/>
      <use xlink:href="#LiberationSans-6e" transform="translate(405.761719 0)"/>
      <use xlink:href="#LiberationSans-61" transform="translate(461.376953 0)"/>
      <use xlink:href="#LiberationSans-6c" transform="translate(516.992188 0)"/>
     </g>
    </g>
    <g id="line2d_40">
     <path d="M 55.29 110.163125 
L 67.29 110.163125 
L 79.29 110.163125 
" style="fill: none; stroke: #9467bd; stroke-width: 2; stroke-linecap: round"/>
    </g>
    <g id="text_22">
     <!-- Uniform -->
     <g style="fill: #262626" transform="translate(88.89 114.363125) scale(0.12 -0.12)">
      <defs>
       <path id="LiberationSans-55" d="M 2284 -63 
Q 1922 -63 1597 34 
Q 1272 131 1026 336 
Q 781 541 637 855 
Q 494 1169 494 1600 
L 494 4403 
L 1091 4403 
L 1091 1650 
Q 1091 1316 1180 1083 
Q 1269 850 1428 703 
Q 1588 556 1805 489 
Q 2022 422 2281 422 
Q 2538 422 2766 490 
Q 2994 559 3166 709 
Q 3338 859 3436 1101 
Q 3534 1344 3534 1691 
L 3534 4403 
L 4128 4403 
L 4128 1656 
Q 4128 1216 3983 892 
Q 3838 569 3588 356 
Q 3338 144 3002 40 
Q 2666 -63 2284 -63 
z
" transform="scale(0.015625)"/>
       <path id="LiberationSans-6d" d="M 2400 0 
L 2400 2144 
Q 2400 2391 2369 2556 
Q 2338 2722 2264 2823 
Q 2191 2925 2072 2967 
Q 1953 3009 1781 3009 
Q 1603 3009 1459 2939 
Q 1316 2869 1214 2736 
Q 1113 2603 1058 2408 
Q 1003 2213 1003 1959 
L 1003 0 
L 444 0 
L 444 2659 
Q 444 2766 442 2883 
Q 441 3000 437 3104 
Q 434 3209 431 3284 
Q 428 3359 425 3381 
L 956 3381 
Q 959 3366 962 3297 
Q 966 3228 970 3139 
Q 975 3050 978 2958 
Q 981 2866 981 2803 
L 991 2803 
Q 1066 2950 1153 3069 
Q 1241 3188 1358 3270 
Q 1475 3353 1626 3398 
Q 1778 3444 1978 3444 
Q 2363 3444 2586 3291 
Q 2809 3138 2897 2803 
L 2906 2803 
Q 2981 2950 3075 3069 
Q 3169 3188 3294 3270 
Q 3419 3353 3575 3398 
Q 3731 3444 3931 3444 
Q 4188 3444 4373 3375 
Q 4559 3306 4678 3162 
Q 4797 3019 4853 2792 
Q 4909 2566 4909 2253 
L 4909 0 
L 4353 0 
L 4353 2144 
Q 4353 2391 4322 2556 
Q 4291 2722 4217 2823 
Q 4144 2925 4025 2967 
Q 3906 3009 3734 3009 
Q 3556 3009 3412 2942 
Q 3269 2875 3167 2744 
Q 3066 2613 3011 2416 
Q 2956 2219 2956 1959 
L 2956 0 
L 2400 0 
z
" transform="scale(0.015625)"/>
      </defs>
      <use xlink:href="#LiberationSans-55"/>
      <use xlink:href="#LiberationSans-6e" transform="translate(72.216797 0)"/>
      <use xlink:href="#LiberationSans-69" transform="translate(127.832031 0)"/>
      <use xlink:href="#LiberationSans-66" transform="translate(150.048828 0)"/>
      <use xlink:href="#LiberationSans-6f" transform="translate(177.832031 0)"/>
      <use xlink:href="#LiberationSans-72" transform="translate(233.447266 0)"/>
      <use xlink:href="#LiberationSans-6d" transform="translate(266.748047 0)"/>
     </g>
    </g>
    <g id="line2d_41">
     <path d="M 55.29 127.349375 
L 67.29 127.349375 
L 79.29 127.349375 
" style="fill: none; stroke: #8c564b; stroke-width: 2; stroke-linecap: round"/>
    </g>
    <g id="text_23">
     <!-- Random -->
     <g style="fill: #262626" transform="translate(88.89 131.549375) scale(0.12 -0.12)">
      <defs>
       <path id="LiberationSans-52" d="M 3638 0 
L 2494 1828 
L 1122 1828 
L 1122 0 
L 525 0 
L 525 4403 
L 2597 4403 
Q 2972 4403 3261 4317 
Q 3550 4231 3747 4068 
Q 3944 3906 4047 3672 
Q 4150 3438 4150 3144 
Q 4150 2934 4089 2731 
Q 4028 2528 3897 2359 
Q 3766 2191 3562 2069 
Q 3359 1947 3075 1897 
L 4325 0 
L 3638 0 
z
M 3550 3138 
Q 3550 3338 3481 3484 
Q 3413 3631 3281 3729 
Q 3150 3828 2962 3876 
Q 2775 3925 2538 3925 
L 1122 3925 
L 1122 2300 
L 2563 2300 
Q 2819 2300 3006 2364 
Q 3194 2428 3314 2540 
Q 3434 2653 3492 2806 
Q 3550 2959 3550 3138 
z
" transform="scale(0.015625)"/>
       <path id="LiberationSans-64" d="M 2566 544 
Q 2409 219 2151 78 
Q 1894 -63 1513 -63 
Q 872 -63 570 368 
Q 269 800 269 1675 
Q 269 3444 1513 3444 
Q 1897 3444 2153 3303 
Q 2409 3163 2566 2856 
L 2572 2856 
Q 2572 2888 2570 2955 
Q 2569 3022 2567 3095 
Q 2566 3169 2566 3234 
Q 2566 3300 2566 3328 
L 2566 4638 
L 3128 4638 
L 3128 697 
Q 3128 575 3129 462 
Q 3131 350 3134 256 
Q 3138 163 3141 95 
Q 3144 28 3147 0 
L 2609 0 
Q 2603 31 2598 89 
Q 2594 147 2589 222 
Q 2584 297 2581 380 
Q 2578 463 2578 544 
L 2566 544 
z
M 859 1694 
Q 859 1344 903 1094 
Q 947 844 1044 683 
Q 1141 522 1291 447 
Q 1441 372 1656 372 
Q 1878 372 2048 444 
Q 2219 516 2333 677 
Q 2447 838 2506 1097 
Q 2566 1356 2566 1731 
Q 2566 2091 2506 2339 
Q 2447 2588 2331 2741 
Q 2216 2894 2048 2961 
Q 1881 3028 1663 3028 
Q 1456 3028 1306 2956 
Q 1156 2884 1056 2725 
Q 956 2566 907 2311 
Q 859 2056 859 1694 
z
" transform="scale(0.015625)"/>
      </defs>
      <use xlink:href="#LiberationSans-52"/>
      <use xlink:href="#LiberationSans-61" transform="translate(72.216797 0)"/>
      <use xlink:href="#LiberationSans-6e" transform="translate(127.832031 0)"/>
      <use xlink:href="#LiberationSans-64" transform="translate(183.447266 0)"/>
      <use xlink:href="#LiberationSans-6f" transform="translate(239.0625 0)"/>
      <use xlink:href="#LiberationSans-6d" transform="translate(294.677734 0)"/>
     </g>
    </g>
   </g>
  </g>
 </g>
 <defs>
  <clipPath id="pdda5de7c53">
   <rect x="44.49" y="10.8" width="952.71" height="524.58"/>
  </clipPath>
 </defs>
</svg>
