<?xml version="1.0" encoding="utf-8" standalone="no"?>
<!DOCTYPE svg PUBLIC "-//W3C//DTD SVG 1.1//EN"
  "http://www.w3.org/Graphics/SVG/1.1/DTD/svg11.dtd">
<svg xmlns:xlink="http://www.w3.org/1999/xlink" width="1008pt" height="576pt" viewBox="0 0 1008 576" xmlns="http://www.w3.org/2000/svg" version="1.1">
 <metadata>
  <rdf:RDF xmlns:dc="http://purl.org/dc/elements/1.1/" xmlns:cc="http://creativecommons.org/ns#" xmlns:rdf="http://www.w3.org/1999/02/22-rdf-syntax-ns#">
   <cc:Work>
    <dc:type rdf:resource="http://purl.org/dc/dcmitype/StillImage"/>
    <dc:date>2026-04-05T10:46:51.962014</dc:date>
    <dc:format>image/svg+xml</dc:format>
    <dc:creator>
     <cc:Agent>
      <dc:title>Matplotlib v3.10.0, https://matplotlib.org/</dc:title>
     </cc:Agent>
    </dc:creator>
   </cc:Work>
  </rdf:RDF>
 </metadata>
 <defs>
  <style type="text/css">*{stroke-linejoin: round; stroke-linecap: butt}</style>
 </defs>
 <g id="figure_1">
  <g id="patch_1">
   <path d="M 0 576 
L 1008 576 
L 1008 0 
L 0 0 
z
" style="fill: #ffffff"/>
  </g>
  <g id="axes_1">
   <g id="patch_2">
    <path d="M 44.49 535.38 
L 997.2 535.38 
L 997.2 10.8 
L 44.49 10.8 
z
" style="fill: #ffffff"/>
   </g>
   <g id="matplotlib.axis_1">
    <g id="xtick_1">
     <g id="line2d_1">
      <path d="M 87.795 535.38 
L 87.795 10.8 
" clip-path="url(#pc6cf747c37)" style="fill: none; stroke: #cccccc; stroke-width: 0.8; stroke-linecap: round"/>
     </g>
     <g id="line2d_2"/>
     <g id="text_1">
      <!-- 0 -->
      <g style="fill: #262626" transform="translate(85.014531 546.126875) scale(0.1 -0.1)">
       <defs>
        <path id="LiberationSans-30" d="M 3309 2203 
Q 3309 1569 3189 1136 
Q 3069 703 2861 436 
Q 2653 169 2372 53 
Q 2091 -63 1772 -63 
Q 1450 -63 1172 53 
Q 894 169 689 434 
Q 484 700 367 1133 
Q 250 1566 250 2203 
Q 250 2869 367 3305 
Q 484 3741 690 4000 
Q 897 4259 1178 4364 
Q 1459 4469 1791 4469 
Q 2106 4469 2382 4364 
Q 2659 4259 2865 4000 
Q 3072 3741 3190 3305 
Q 3309 2869 3309 2203 
z
M 2738 2203 
Q 2738 2728 2675 3076 
Q 2613 3425 2491 3633 
Q 2369 3841 2192 3927 
Q 2016 4013 1791 4013 
Q 1553 4013 1372 3925 
Q 1191 3838 1067 3630 
Q 944 3422 881 3073 
Q 819 2725 819 2203 
Q 819 1697 883 1350 
Q 947 1003 1070 792 
Q 1194 581 1372 489 
Q 1550 397 1778 397 
Q 2000 397 2178 489 
Q 2356 581 2479 792 
Q 2603 1003 2670 1350 
Q 2738 1697 2738 2203 
z
" transform="scale(0.015625)"/>
       </defs>
       <use xlink:href="#LiberationSans-30"/>
      </g>
     </g>
    </g>
    <g id="xtick_2">
     <g id="line2d_3">
      <path d="M 204.050034 535.38 
L 204.050034 10.8 
" clip-path="url(#pc6cf747c37)" style="fill: none; stroke: #cccccc; stroke-width: 0.8; stroke-linecap: round"/>
     </g>
     <g id="line2d_4"/>
     <g id="text_2">
      <!-- 20 -->
      <g style="fill: #262626" transform="translate(198.489096 546.126875) scale(0.1 -0.1)">
       <defs>
        <path id="LiberationSans-32" d="M 322 0 
L 322 397 
Q 481 763 711 1042 
Q 941 1322 1194 1548 
Q 1447 1775 1695 1969 
Q 1944 2163 2144 2356 
Q 2344 2550 2467 2762 
Q 2591 2975 2591 3244 
Q 2591 3431 2534 3573 
Q 2478 3716 2372 3812 
Q 2266 3909 2117 3957 
Q 1969 4006 1788 4006 
Q 1619 4006 1470 3959 
Q 1322 3913 1206 3819 
Q 1091 3725 1017 3586 
Q 944 3447 922 3263 
L 347 3316 
Q 375 3553 478 3762 
Q 581 3972 762 4130 
Q 944 4288 1198 4378 
Q 1453 4469 1788 4469 
Q 2116 4469 2372 4391 
Q 2628 4313 2804 4159 
Q 2981 4006 3075 3781 
Q 3169 3556 3169 3263 
Q 3169 3041 3089 2841 
Q 3009 2641 2876 2459 
Q 2744 2278 2569 2109 
Q 2394 1941 2203 1780 
Q 2013 1619 1819 1461 
Q 1625 1303 1454 1143 
Q 1284 984 1150 820 
Q 1016 656 941 478 
L 3238 478 
L 3238 0 
L 322 0 
z
" transform="scale(0.015625)"/>
       </defs>
       <use xlink:href="#LiberationSans-32"/>
       <use xlink:href="#LiberationSans-30" transform="translate(55.615234 0)"/>
      </g>
     </g>
    </g>
    <g id="xtick_3">
     <g id="line2d_5">
      <path d="M 320.305067 535.38 
L 320.305067 10.8 
" clip-path="url(#pc6cf747c37)" style="fill: none; stroke: #cccccc; stroke-width: 0.8; stroke-linecap: round"/>
     </g>
     <g id="line2d_6"/>
     <g id="text_3">
      <!-- 40 -->
      <g style="fill: #262626" transform="translate(314.74413 546.126875) scale(0.1 -0.1)">
       <defs>
        <path id="LiberationSans-34" d="M 2753 997 
L 2753 0 
L 2222 0 
L 2222 997 
L 147 997 
L 147 1434 
L 2163 4403 
L 2753 4403 
L 2753 1441 
L 3372 1441 
L 3372 997 
L 2753 997 
z
M 2222 3769 
Q 2216 3753 2191 3708 
Q 2166 3663 2134 3606 
Q 2103 3550 2070 3492 
Q 2038 3434 2013 3397 
L 884 1734 
Q 869 1709 839 1668 
Q 809 1628 778 1586 
Q 747 1544 715 1503 
Q 684 1463 666 1441 
L 2222 1441 
L 2222 3769 
z
" transform="scale(0.015625)"/>
       </defs>
       <use xlink:href="#LiberationSans-34"/>
       <use xlink:href="#LiberationSans-30" transform="translate(55.615234 0)"/>
      </g>
     </g>
    </g>
    <g id="xtick_4">
     <g id="line2d_7">
      <path d="M 436.560101 535.38 
L 436.560101 10.8 
" clip-path="url(#pc6cf747c37)" style="fill: none; stroke: #cccccc; stroke-width: 0.8; stroke-linecap: round"/>
     </g>
     <g id="line2d_8"/>
     <g id="text_4">
      <!-- 60 -->
      <g style="fill: #262626" transform="translate(430.999163 546.126875) scale(0.1 -0.1)">
       <defs>
        <path id="LiberationSans-36" d="M 3278 1441 
Q 3278 1109 3186 832 
Q 3094 556 2914 357 
Q 2734 159 2468 48 
Q 2203 -63 1856 -63 
Q 1472 -63 1184 84 
Q 897 231 706 507 
Q 516 784 420 1186 
Q 325 1588 325 2100 
Q 325 2688 433 3131 
Q 541 3575 744 3872 
Q 947 4169 1239 4319 
Q 1531 4469 1900 4469 
Q 2125 4469 2322 4422 
Q 2519 4375 2680 4270 
Q 2841 4166 2962 3994 
Q 3084 3822 3156 3572 
L 2619 3475 
Q 2531 3759 2339 3886 
Q 2147 4013 1894 4013 
Q 1663 4013 1475 3903 
Q 1288 3794 1156 3576 
Q 1025 3359 954 3031 
Q 884 2703 884 2266 
Q 1038 2550 1316 2698 
Q 1594 2847 1953 2847 
Q 2253 2847 2497 2750 
Q 2741 2653 2914 2470 
Q 3088 2288 3183 2027 
Q 3278 1766 3278 1441 
z
M 2706 1416 
Q 2706 1644 2650 1828 
Q 2594 2013 2481 2142 
Q 2369 2272 2203 2342 
Q 2038 2413 1819 2413 
Q 1666 2413 1509 2367 
Q 1353 2322 1226 2220 
Q 1100 2119 1020 1953 
Q 941 1788 941 1550 
Q 941 1306 1003 1095 
Q 1066 884 1183 728 
Q 1300 572 1465 481 
Q 1631 391 1838 391 
Q 2041 391 2202 461 
Q 2363 531 2475 664 
Q 2588 797 2647 987 
Q 2706 1178 2706 1416 
z
" transform="scale(0.015625)"/>
       </defs>
       <use xlink:href="#LiberationSans-36"/>
       <use xlink:href="#LiberationSans-30" transform="translate(55.615234 0)"/>
      </g>
     </g>
    </g>
    <g id="xtick_5">
     <g id="line2d_9">
      <path d="M 552.815134 535.38 
L 552.815134 10.8 
" clip-path="url(#pc6cf747c37)" style="fill: none; stroke: #cccccc; stroke-width: 0.8; stroke-linecap: round"/>
     </g>
     <g id="line2d_10"/>
     <g id="text_5">
      <!-- 80 -->
      <g style="fill: #262626" transform="translate(547.254197 546.126875) scale(0.1 -0.1)">
       <defs>
        <path id="LiberationSans-38" d="M 3281 1228 
Q 3281 947 3192 711 
Q 3103 475 2920 303 
Q 2738 131 2453 34 
Q 2169 -63 1781 -63 
Q 1394 -63 1111 34 
Q 828 131 642 301 
Q 456 472 367 708 
Q 278 944 278 1222 
Q 278 1463 351 1650 
Q 425 1838 548 1973 
Q 672 2109 830 2192 
Q 988 2275 1156 2303 
L 1156 2316 
Q 972 2359 826 2456 
Q 681 2553 582 2689 
Q 484 2825 432 2990 
Q 381 3156 381 3341 
Q 381 3572 470 3776 
Q 559 3981 734 4136 
Q 909 4291 1168 4380 
Q 1428 4469 1769 4469 
Q 2128 4469 2392 4378 
Q 2656 4288 2829 4133 
Q 3003 3978 3087 3772 
Q 3172 3566 3172 3334 
Q 3172 3153 3120 2987 
Q 3069 2822 2970 2686 
Q 2872 2550 2726 2454 
Q 2581 2359 2391 2322 
L 2391 2309 
Q 2581 2278 2743 2195 
Q 2906 2113 3025 1977 
Q 3144 1841 3212 1653 
Q 3281 1466 3281 1228 
z
M 2588 3303 
Q 2588 3469 2545 3606 
Q 2503 3744 2406 3842 
Q 2309 3941 2153 3995 
Q 1997 4050 1769 4050 
Q 1547 4050 1394 3995 
Q 1241 3941 1142 3842 
Q 1044 3744 1000 3606 
Q 956 3469 956 3303 
Q 956 3172 990 3034 
Q 1025 2897 1115 2784 
Q 1206 2672 1365 2600 
Q 1525 2528 1775 2528 
Q 2041 2528 2202 2600 
Q 2363 2672 2448 2784 
Q 2534 2897 2561 3034 
Q 2588 3172 2588 3303 
z
M 2697 1281 
Q 2697 1441 2653 1589 
Q 2609 1738 2503 1852 
Q 2397 1966 2217 2036 
Q 2038 2106 1769 2106 
Q 1522 2106 1348 2036 
Q 1175 1966 1067 1850 
Q 959 1734 909 1582 
Q 859 1431 859 1269 
Q 859 1066 909 898 
Q 959 731 1068 611 
Q 1178 491 1356 425 
Q 1534 359 1788 359 
Q 2044 359 2219 425 
Q 2394 491 2500 611 
Q 2606 731 2651 901 
Q 2697 1072 2697 1281 
z
" transform="scale(0.015625)"/>
       </defs>
       <use xlink:href="#LiberationSans-38"/>
       <use xlink:href="#LiberationSans-30" transform="translate(55.615234 0)"/>
      </g>
     </g>
    </g>
    <g id="xtick_6">
     <g id="line2d_11">
      <path d="M 669.070168 535.38 
L 669.070168 10.8 
" clip-path="url(#pc6cf747c37)" style="fill: none; stroke: #cccccc; stroke-width: 0.8; stroke-linecap: round"/>
     </g>
     <g id="line2d_12"/>
     <g id="text_6">
      <!-- 100 -->
      <g style="fill: #262626" transform="translate(660.728762 546.126875) scale(0.1 -0.1)">
       <defs>
        <path id="LiberationSans-31" d="M 488 0 
L 488 478 
L 1609 478 
L 1609 3866 
L 616 3156 
L 616 3688 
L 1656 4403 
L 2175 4403 
L 2175 478 
L 3247 478 
L 3247 0 
L 488 0 
z
" transform="scale(0.015625)"/>
       </defs>
       <use xlink:href="#LiberationSans-31"/>
       <use xlink:href="#LiberationSans-30" transform="translate(55.615234 0)"/>
       <use xlink:href="#LiberationSans-30" transform="translate(111.230469 0)"/>
      </g>
     </g>
    </g>
    <g id="xtick_7">
     <g id="line2d_13">
      <path d="M 785.325201 535.38 
L 785.325201 10.8 
" clip-path="url(#pc6cf747c37)" style="fill: none; stroke: #cccccc; stroke-width: 0.8; stroke-linecap: round"/>
     </g>
     <g id="line2d_14"/>
     <g id="text_7">
      <!-- 120 -->
      <g style="fill: #262626" transform="translate(776.983795 546.126875) scale(0.1 -0.1)">
       <use xlink:href="#LiberationSans-31"/>
       <use xlink:href="#LiberationSans-32" transform="translate(55.615234 0)"/>
       <use xlink:href="#LiberationSans-30" transform="translate(111.230469 0)"/>
      </g>
     </g>
    </g>
    <g id="xtick_8">
     <g id="line2d_15">
      <path d="M 901.580235 535.38 
L 901.580235 10.8 
" clip-path="url(#pc6cf747c37)" style="fill: none; stroke: #cccccc; stroke-width: 0.8; stroke-linecap: round"/>
     </g>
     <g id="line2d_16"/>
     <g id="text_8">
      <!-- 140 -->
      <g style="fill: #262626" transform="translate(893.238829 546.126875) scale(0.1 -0.1)">
       <use xlink:href="#LiberationSans-31"/>
       <use xlink:href="#LiberationSans-34" transform="translate(55.615234 0)"/>
       <use xlink:href="#LiberationSans-30" transform="translate(111.230469 0)"/>
      </g>
     </g>
    </g>
    <g id="text_9">
     <!-- Day -->
     <g style="fill: #262626" transform="translate(508.397031 562.3475) scale(0.14 -0.14)">
      <defs>
       <path id="LiberationSans-44" d="M 4316 2247 
Q 4316 1697 4150 1276 
Q 3984 856 3696 573 
Q 3409 291 3017 145 
Q 2625 0 2172 0 
L 525 0 
L 525 4403 
L 1981 4403 
Q 2491 4403 2920 4276 
Q 3350 4150 3659 3886 
Q 3969 3622 4142 3215 
Q 4316 2809 4316 2247 
z
M 3716 2247 
Q 3716 2694 3587 3011 
Q 3459 3328 3228 3531 
Q 2997 3734 2675 3829 
Q 2353 3925 1969 3925 
L 1122 3925 
L 1122 478 
L 2103 478 
Q 2450 478 2745 590 
Q 3041 703 3256 925 
Q 3472 1147 3594 1478 
Q 3716 1809 3716 2247 
z
" transform="scale(0.015625)"/>
       <path id="LiberationSans-61" d="M 1294 -63 
Q 784 -63 528 206 
Q 272 475 272 944 
Q 272 1278 398 1492 
Q 525 1706 729 1828 
Q 934 1950 1196 1997 
Q 1459 2044 1731 2050 
L 2491 2063 
L 2491 2247 
Q 2491 2456 2447 2603 
Q 2403 2750 2312 2840 
Q 2222 2931 2086 2973 
Q 1950 3016 1766 3016 
Q 1603 3016 1472 2992 
Q 1341 2969 1244 2908 
Q 1147 2847 1087 2742 
Q 1028 2638 1009 2478 
L 422 2531 
Q 453 2731 540 2898 
Q 628 3066 789 3187 
Q 950 3309 1192 3376 
Q 1434 3444 1778 3444 
Q 2416 3444 2737 3151 
Q 3059 2859 3059 2306 
L 3059 850 
Q 3059 600 3125 473 
Q 3191 347 3375 347 
Q 3422 347 3469 353 
Q 3516 359 3559 369 
L 3559 19 
Q 3453 -6 3348 -18 
Q 3244 -31 3125 -31 
Q 2966 -31 2852 11 
Q 2738 53 2666 139 
Q 2594 225 2556 351 
Q 2519 478 2509 647 
L 2491 647 
Q 2400 484 2292 353 
Q 2184 222 2040 130 
Q 1897 38 1714 -12 
Q 1531 -63 1294 -63 
z
M 1422 359 
Q 1691 359 1892 457 
Q 2094 556 2226 709 
Q 2359 863 2425 1044 
Q 2491 1225 2491 1391 
L 2491 1669 
L 1875 1656 
Q 1669 1653 1483 1626 
Q 1297 1600 1156 1522 
Q 1016 1444 933 1303 
Q 850 1163 850 934 
Q 850 659 998 509 
Q 1147 359 1422 359 
z
" transform="scale(0.015625)"/>
       <path id="LiberationSans-79" d="M 1888 0 
Q 1769 -306 1645 -551 
Q 1522 -797 1369 -970 
Q 1216 -1144 1028 -1236 
Q 841 -1328 597 -1328 
Q 491 -1328 400 -1322 
Q 309 -1316 209 -1294 
L 209 -872 
Q 269 -881 344 -886 
Q 419 -891 472 -891 
Q 719 -891 931 -706 
Q 1144 -522 1303 -119 
L 1356 16 
L 16 3381 
L 616 3381 
L 1328 1513 
Q 1359 1428 1407 1287 
Q 1456 1147 1504 1006 
Q 1553 866 1590 753 
Q 1628 641 1634 613 
Q 1644 647 1680 748 
Q 1716 850 1761 975 
Q 1806 1100 1853 1228 
Q 1900 1356 1931 1450 
L 2594 3381 
L 3188 3381 
L 1888 0 
z
" transform="scale(0.015625)"/>
      </defs>
      <use xlink:href="#LiberationSans-44"/>
      <use xlink:href="#LiberationSans-61" transform="translate(72.216797 0)"/>
      <use xlink:href="#LiberationSans-79" transform="translate(127.832031 0)"/>
     </g>
    </g>
   </g>
   <g id="matplotlib.axis_2">
    <g id="ytick_1">
     <g id="line2d_17">
      <path d="M 44.49 511.535455 
L 997.2 511.535455 
" clip-path="url(#pc6cf747c37)" style="fill: none; stroke: #cccccc; stroke-width: 0.8; stroke-linecap: round"/>
     </g>
     <g id="line2d_18"/>
     <g id="text_10">
      <!-- 0.0 -->
      <g style="fill: #262626" transform="translate(27.09 515.158892) scale(0.1 -0.1)">
       <defs>
        <path id="LiberationSans-2e" d="M 584 0 
L 584 684 
L 1194 684 
L 1194 0 
L 584 0 
z
" transform="scale(0.015625)"/>
       </defs>
       <use xlink:href="#LiberationSans-30"/>
       <use xlink:href="#LiberationSans-2e" transform="translate(55.615234 0)"/>
       <use xlink:href="#LiberationSans-30" transform="translate(83.398438 0)"/>
      </g>
     </g>
    </g>
    <g id="ytick_2">
     <g id="line2d_19">
      <path d="M 44.49 405.963605 
L 997.2 405.963605 
" clip-path="url(#pc6cf747c37)" style="fill: none; stroke: #cccccc; stroke-width: 0.8; stroke-linecap: round"/>
     </g>
     <g id="line2d_20"/>
     <g id="text_11">
      <!-- 0.2 -->
      <g style="fill: #262626" transform="translate(27.09 409.587042) scale(0.1 -0.1)">
       <use xlink:href="#LiberationSans-30"/>
       <use xlink:href="#LiberationSans-2e" transform="translate(55.615234 0)"/>
       <use xlink:href="#LiberationSans-32" transform="translate(83.398438 0)"/>
      </g>
     </g>
    </g>
    <g id="ytick_3">
     <g id="line2d_21">
      <path d="M 44.49 300.391755 
L 997.2 300.391755 
" clip-path="url(#pc6cf747c37)" style="fill: none; stroke: #cccccc; stroke-width: 0.8; stroke-linecap: round"/>
     </g>
     <g id="line2d_22"/>
     <g id="text_12">
      <!-- 0.4 -->
      <g style="fill: #262626" transform="translate(27.09 304.015193) scale(0.1 -0.1)">
       <use xlink:href="#LiberationSans-30"/>
       <use xlink:href="#LiberationSans-2e" transform="translate(55.615234 0)"/>
       <use xlink:href="#LiberationSans-34" transform="translate(83.398438 0)"/>
      </g>
     </g>
    </g>
    <g id="ytick_4">
     <g id="line2d_23">
      <path d="M 44.49 194.819905 
L 997.2 194.819905 
" clip-path="url(#pc6cf747c37)" style="fill: none; stroke: #cccccc; stroke-width: 0.8; stroke-linecap: round"/>
     </g>
     <g id="line2d_24"/>
     <g id="text_13">
      <!-- 0.6 -->
      <g style="fill: #262626" transform="translate(27.09 198.443343) scale(0.1 -0.1)">
       <use xlink:href="#LiberationSans-30"/>
       <use xlink:href="#LiberationSans-2e" transform="translate(55.615234 0)"/>
       <use xlink:href="#LiberationSans-36" transform="translate(83.398438 0)"/>
      </g>
     </g>
    </g>
    <g id="ytick_5">
     <g id="line2d_25">
      <path d="M 44.49 89.248056 
L 997.2 89.248056 
" clip-path="url(#pc6cf747c37)" style="fill: none; stroke: #cccccc; stroke-width: 0.8; stroke-linecap: round"/>
     </g>
     <g id="line2d_26"/>
     <g id="text_14">
      <!-- 0.8 -->
      <g style="fill: #262626" transform="translate(27.09 92.871493) scale(0.1 -0.1)">
       <use xlink:href="#LiberationSans-30"/>
       <use xlink:href="#LiberationSans-2e" transform="translate(55.615234 0)"/>
       <use xlink:href="#LiberationSans-38" transform="translate(83.398438 0)"/>
      </g>
     </g>
    </g>
    <g id="text_15">
     <!-- Avg. Quarantine Efficiency (Q / (I+E+A+Q)) -->
     <g style="fill: #262626" transform="translate(20.185 406.866563) rotate(-90) scale(0.14 -0.14)">
      <defs>
       <path id="LiberationSans-41" d="M 3647 0 
L 3144 1288 
L 1138 1288 
L 631 0 
L 13 0 
L 1809 4403 
L 2488 4403 
L 4256 0 
L 3647 0 
z
M 2400 3206 
Q 2350 3331 2304 3459 
Q 2259 3588 2225 3692 
Q 2191 3797 2167 3867 
Q 2144 3938 2141 3953 
Q 2134 3938 2112 3866 
Q 2091 3794 2055 3687 
Q 2019 3581 1973 3453 
Q 1928 3325 1881 3200 
L 1319 1753 
L 2966 1753 
L 2400 3206 
z
" transform="scale(0.015625)"/>
       <path id="LiberationSans-76" d="M 1916 0 
L 1250 0 
L 22 3381 
L 622 3381 
L 1366 1181 
Q 1388 1113 1417 1014 
Q 1447 916 1478 809 
Q 1509 703 1536 604 
Q 1563 506 1581 441 
Q 1600 506 1629 604 
Q 1659 703 1690 806 
Q 1722 909 1755 1007 
Q 1788 1106 1813 1175 
L 2581 3381 
L 3178 3381 
L 1916 0 
z
" transform="scale(0.015625)"/>
       <path id="LiberationSans-67" d="M 1713 -1328 
Q 1422 -1328 1197 -1268 
Q 972 -1209 812 -1098 
Q 653 -988 553 -834 
Q 453 -681 409 -494 
L 975 -413 
Q 1031 -647 1223 -773 
Q 1416 -900 1728 -900 
Q 1919 -900 2075 -847 
Q 2231 -794 2340 -676 
Q 2450 -559 2509 -371 
Q 2569 -184 2569 84 
L 2569 628 
L 2563 628 
Q 2500 500 2408 383 
Q 2316 266 2183 175 
Q 2050 84 1875 29 
Q 1700 -25 1475 -25 
Q 1153 -25 923 83 
Q 694 191 548 406 
Q 403 622 336 942 
Q 269 1263 269 1684 
Q 269 2091 336 2416 
Q 403 2741 554 2967 
Q 706 3194 948 3314 
Q 1191 3434 1538 3434 
Q 1897 3434 2161 3270 
Q 2425 3106 2569 2803 
L 2575 2803 
Q 2575 2881 2579 2978 
Q 2584 3075 2589 3161 
Q 2594 3247 2600 3309 
Q 2606 3372 2613 3381 
L 3147 3381 
Q 3144 3353 3141 3286 
Q 3138 3219 3134 3125 
Q 3131 3031 3129 2917 
Q 3128 2803 3128 2681 
L 3128 97 
Q 3128 -613 2779 -970 
Q 2431 -1328 1713 -1328 
z
M 2569 1691 
Q 2569 2044 2492 2295 
Q 2416 2547 2291 2706 
Q 2166 2866 2005 2941 
Q 1844 3016 1675 3016 
Q 1459 3016 1304 2941 
Q 1150 2866 1048 2705 
Q 947 2544 898 2292 
Q 850 2041 850 1691 
Q 850 1325 898 1076 
Q 947 828 1047 675 
Q 1147 522 1300 456 
Q 1453 391 1666 391 
Q 1834 391 1995 462 
Q 2156 534 2284 690 
Q 2413 847 2491 1094 
Q 2569 1341 2569 1691 
z
" transform="scale(0.015625)"/>
       <path id="LiberationSans-20" transform="scale(0.015625)"/>
       <path id="LiberationSans-51" d="M 4672 2222 
Q 4672 1756 4551 1370 
Q 4431 984 4204 693 
Q 3978 403 3648 220 
Q 3319 38 2900 -19 
Q 2966 -219 3048 -359 
Q 3131 -500 3237 -589 
Q 3344 -678 3473 -720 
Q 3603 -763 3763 -763 
Q 3850 -763 3950 -750 
Q 4050 -738 4122 -722 
L 4122 -1141 
Q 4003 -1169 3861 -1189 
Q 3719 -1209 3566 -1209 
Q 3297 -1209 3097 -1129 
Q 2897 -1050 2745 -901 
Q 2594 -753 2484 -537 
Q 2375 -322 2291 -50 
Q 1797 -25 1423 154 
Q 1050 334 801 636 
Q 553 938 428 1342 
Q 303 1747 303 2222 
Q 303 2738 447 3153 
Q 591 3569 869 3861 
Q 1147 4153 1555 4311 
Q 1963 4469 2491 4469 
Q 3016 4469 3423 4309 
Q 3831 4150 4107 3856 
Q 4384 3563 4528 3147 
Q 4672 2731 4672 2222 
z
M 4063 2222 
Q 4063 2619 3961 2944 
Q 3859 3269 3661 3500 
Q 3463 3731 3169 3856 
Q 2875 3981 2491 3981 
Q 2097 3981 1800 3856 
Q 1503 3731 1304 3500 
Q 1106 3269 1007 2944 
Q 909 2619 909 2222 
Q 909 1825 1011 1495 
Q 1113 1166 1311 927 
Q 1509 688 1804 555 
Q 2100 422 2484 422 
Q 2897 422 3195 556 
Q 3494 691 3686 930 
Q 3878 1169 3970 1500 
Q 4063 1831 4063 2222 
z
" transform="scale(0.015625)"/>
       <path id="LiberationSans-75" d="M 981 3381 
L 981 1238 
Q 981 991 1017 825 
Q 1053 659 1134 557 
Q 1216 456 1348 414 
Q 1481 372 1678 372 
Q 1878 372 2039 442 
Q 2200 513 2314 645 
Q 2428 778 2490 973 
Q 2553 1169 2553 1422 
L 2553 3381 
L 3116 3381 
L 3116 722 
Q 3116 616 3117 498 
Q 3119 381 3122 276 
Q 3125 172 3128 97 
Q 3131 22 3134 0 
L 2603 0 
Q 2600 16 2597 84 
Q 2594 153 2589 242 
Q 2584 331 2581 423 
Q 2578 516 2578 578 
L 2569 578 
Q 2488 431 2391 312 
Q 2294 194 2166 111 
Q 2038 28 1872 -17 
Q 1706 -63 1488 -63 
Q 1206 -63 1003 6 
Q 800 75 669 219 
Q 538 363 477 588 
Q 416 813 416 1128 
L 416 3381 
L 981 3381 
z
" transform="scale(0.015625)"/>
       <path id="LiberationSans-72" d="M 444 0 
L 444 2594 
Q 444 2700 442 2811 
Q 441 2922 437 3025 
Q 434 3128 431 3218 
Q 428 3309 425 3381 
L 956 3381 
Q 959 3309 964 3217 
Q 969 3125 973 3028 
Q 978 2931 979 2842 
Q 981 2753 981 2691 
L 994 2691 
Q 1053 2884 1120 3026 
Q 1188 3169 1278 3261 
Q 1369 3353 1494 3398 
Q 1619 3444 1797 3444 
Q 1866 3444 1928 3433 
Q 1991 3422 2025 3413 
L 2025 2897 
Q 1969 2913 1894 2920 
Q 1819 2928 1725 2928 
Q 1531 2928 1395 2840 
Q 1259 2753 1173 2598 
Q 1088 2444 1047 2230 
Q 1006 2016 1006 1763 
L 1006 0 
L 444 0 
z
" transform="scale(0.015625)"/>
       <path id="LiberationSans-6e" d="M 2578 0 
L 2578 2144 
Q 2578 2391 2542 2556 
Q 2506 2722 2425 2823 
Q 2344 2925 2211 2967 
Q 2078 3009 1881 3009 
Q 1681 3009 1520 2939 
Q 1359 2869 1245 2736 
Q 1131 2603 1068 2408 
Q 1006 2213 1006 1959 
L 1006 0 
L 444 0 
L 444 2659 
Q 444 2766 442 2883 
Q 441 3000 437 3104 
Q 434 3209 431 3284 
Q 428 3359 425 3381 
L 956 3381 
Q 959 3366 962 3297 
Q 966 3228 970 3139 
Q 975 3050 978 2958 
Q 981 2866 981 2803 
L 991 2803 
Q 1072 2950 1169 3069 
Q 1266 3188 1394 3270 
Q 1522 3353 1687 3398 
Q 1853 3444 2072 3444 
Q 2353 3444 2556 3375 
Q 2759 3306 2890 3162 
Q 3022 3019 3083 2792 
Q 3144 2566 3144 2253 
L 3144 0 
L 2578 0 
z
" transform="scale(0.015625)"/>
       <path id="LiberationSans-74" d="M 1731 25 
Q 1603 -9 1470 -29 
Q 1338 -50 1163 -50 
Q 488 -50 488 716 
L 488 2972 
L 97 2972 
L 97 3381 
L 509 3381 
L 675 4138 
L 1050 4138 
L 1050 3381 
L 1675 3381 
L 1675 2972 
L 1050 2972 
L 1050 838 
Q 1050 594 1129 495 
Q 1209 397 1406 397 
Q 1488 397 1564 409 
Q 1641 422 1731 441 
L 1731 25 
z
" transform="scale(0.015625)"/>
       <path id="LiberationSans-69" d="M 428 4100 
L 428 4638 
L 991 4638 
L 991 4100 
L 428 4100 
z
M 428 0 
L 428 3381 
L 991 3381 
L 991 0 
L 428 0 
z
" transform="scale(0.015625)"/>
       <path id="LiberationSans-65" d="M 863 1572 
Q 863 1306 917 1082 
Q 972 859 1086 698 
Q 1200 538 1378 448 
Q 1556 359 1806 359 
Q 2172 359 2392 506 
Q 2613 653 2691 878 
L 3184 738 
Q 3131 597 3036 455 
Q 2941 313 2781 198 
Q 2622 84 2383 10 
Q 2144 -63 1806 -63 
Q 1056 -63 664 384 
Q 272 831 272 1713 
Q 272 2188 390 2517 
Q 509 2847 715 3053 
Q 922 3259 1197 3351 
Q 1472 3444 1784 3444 
Q 2209 3444 2495 3306 
Q 2781 3169 2954 2926 
Q 3128 2684 3201 2356 
Q 3275 2028 3275 1647 
L 3275 1572 
L 863 1572 
z
M 2694 2003 
Q 2647 2538 2422 2783 
Q 2197 3028 1775 3028 
Q 1634 3028 1479 2983 
Q 1325 2938 1194 2822 
Q 1063 2706 972 2507 
Q 881 2309 869 2003 
L 2694 2003 
z
" transform="scale(0.015625)"/>
       <path id="LiberationSans-45" d="M 525 0 
L 525 4403 
L 3866 4403 
L 3866 3916 
L 1122 3916 
L 1122 2503 
L 3678 2503 
L 3678 2022 
L 1122 2022 
L 1122 488 
L 3994 488 
L 3994 0 
L 525 0 
z
" transform="scale(0.015625)"/>
       <path id="LiberationSans-66" d="M 1128 2972 
L 1128 0 
L 566 0 
L 566 2972 
L 91 2972 
L 91 3381 
L 566 3381 
L 566 3763 
Q 566 3947 600 4105 
Q 634 4263 726 4380 
Q 819 4497 978 4564 
Q 1138 4631 1391 4631 
Q 1491 4631 1598 4622 
Q 1706 4613 1788 4594 
L 1788 4166 
Q 1734 4175 1664 4183 
Q 1594 4191 1538 4191 
Q 1413 4191 1333 4156 
Q 1253 4122 1208 4058 
Q 1163 3994 1145 3900 
Q 1128 3806 1128 3684 
L 1128 3381 
L 1788 3381 
L 1788 2972 
L 1128 2972 
z
" transform="scale(0.015625)"/>
       <path id="LiberationSans-63" d="M 859 1706 
Q 859 1416 901 1172 
Q 944 928 1044 751 
Q 1144 575 1308 478 
Q 1472 381 1713 381 
Q 2013 381 2214 543 
Q 2416 706 2463 1044 
L 3031 1006 
Q 3003 797 2909 603 
Q 2816 409 2655 262 
Q 2494 116 2262 26 
Q 2031 -63 1728 -63 
Q 1331 -63 1053 71 
Q 775 206 601 442 
Q 428 678 350 998 
Q 272 1319 272 1694 
Q 272 2034 328 2295 
Q 384 2556 486 2751 
Q 588 2947 725 3080 
Q 863 3213 1023 3292 
Q 1184 3372 1362 3408 
Q 1541 3444 1722 3444 
Q 2006 3444 2228 3366 
Q 2450 3288 2611 3152 
Q 2772 3016 2872 2831 
Q 2972 2647 3013 2434 
L 2434 2391 
Q 2391 2672 2212 2837 
Q 2034 3003 1706 3003 
Q 1466 3003 1305 2923 
Q 1144 2844 1044 2683 
Q 944 2522 901 2278 
Q 859 2034 859 1706 
z
" transform="scale(0.015625)"/>
       <path id="LiberationSans-28" d="M 397 1663 
Q 397 2097 462 2494 
Q 528 2891 668 3256 
Q 809 3622 1028 3965 
Q 1247 4309 1550 4638 
L 2094 4638 
Q 1800 4309 1586 3964 
Q 1372 3619 1234 3251 
Q 1097 2884 1030 2487 
Q 963 2091 963 1656 
Q 963 1222 1030 825 
Q 1097 428 1234 59 
Q 1372 -309 1586 -653 
Q 1800 -997 2094 -1325 
L 1550 -1325 
Q 1247 -997 1028 -653 
Q 809 -309 668 56 
Q 528 422 462 817 
Q 397 1213 397 1650 
L 397 1663 
z
" transform="scale(0.015625)"/>
       <path id="LiberationSans-2f" d="M 0 -63 
L 1284 4638 
L 1778 4638 
L 506 -63 
L 0 -63 
z
" transform="scale(0.015625)"/>
       <path id="LiberationSans-49" d="M 591 0 
L 591 4403 
L 1188 4403 
L 1188 0 
L 591 0 
z
" transform="scale(0.015625)"/>
       <path id="LiberationSans-2b" d="M 2097 1900 
L 2097 563 
L 1638 563 
L 1638 1900 
L 313 1900 
L 313 2356 
L 1638 2356 
L 1638 3694 
L 2097 3694 
L 2097 2356 
L 3422 2356 
L 3422 1900 
L 2097 1900 
z
" transform="scale(0.015625)"/>
       <path id="LiberationSans-29" d="M 1734 1650 
Q 1734 1213 1668 817 
Q 1603 422 1462 56 
Q 1322 -309 1103 -653 
Q 884 -997 581 -1325 
L 38 -1325 
Q 331 -997 545 -653 
Q 759 -309 896 59 
Q 1034 428 1101 825 
Q 1169 1222 1169 1656 
Q 1169 2091 1101 2487 
Q 1034 2884 896 3251 
Q 759 3619 545 3964 
Q 331 4309 38 4638 
L 581 4638 
Q 884 4309 1103 3965 
Q 1322 3622 1462 3256 
Q 1603 2891 1668 2494 
Q 1734 2097 1734 1663 
L 1734 1650 
z
" transform="scale(0.015625)"/>
      </defs>
      <use xlink:href="#LiberationSans-41"/>
      <use xlink:href="#LiberationSans-76" transform="translate(64.949219 0)"/>
      <use xlink:href="#LiberationSans-67" transform="translate(114.949219 0)"/>
      <use xlink:href="#LiberationSans-2e" transform="translate(170.564453 0)"/>
      <use xlink:href="#LiberationSans-20" transform="translate(198.347656 0)"/>
      <use xlink:href="#LiberationSans-51" transform="translate(226.130859 0)"/>
      <use xlink:href="#LiberationSans-75" transform="translate(303.914062 0)"/>
      <use xlink:href="#LiberationSans-61" transform="translate(359.529297 0)"/>
      <use xlink:href="#LiberationSans-72" transform="translate(415.144531 0)"/>
      <use xlink:href="#LiberationSans-61" transform="translate(448.445312 0)"/>
      <use xlink:href="#LiberationSans-6e" transform="translate(504.060547 0)"/>
      <use xlink:href="#LiberationSans-74" transform="translate(559.675781 0)"/>
      <use xlink:href="#LiberationSans-69" transform="translate(587.458984 0)"/>
      <use xlink:href="#LiberationSans-6e" transform="translate(609.675781 0)"/>
      <use xlink:href="#LiberationSans-65" transform="translate(665.291016 0)"/>
      <use xlink:href="#LiberationSans-20" transform="translate(720.90625 0)"/>
      <use xlink:href="#LiberationSans-45" transform="translate(748.689453 0)"/>
      <use xlink:href="#LiberationSans-66" transform="translate(815.388672 0)"/>
      <use xlink:href="#LiberationSans-66" transform="translate(841.421875 0)"/>
      <use xlink:href="#LiberationSans-69" transform="translate(869.205078 0)"/>
      <use xlink:href="#LiberationSans-63" transform="translate(891.421875 0)"/>
      <use xlink:href="#LiberationSans-69" transform="translate(941.421875 0)"/>
      <use xlink:href="#LiberationSans-65" transform="translate(963.638672 0)"/>
      <use xlink:href="#LiberationSans-6e" transform="translate(1019.253906 0)"/>
      <use xlink:href="#LiberationSans-63" transform="translate(1074.869141 0)"/>
      <use xlink:href="#LiberationSans-79" transform="translate(1124.869141 0)"/>
      <use xlink:href="#LiberationSans-20" transform="translate(1174.869141 0)"/>
      <use xlink:href="#LiberationSans-28" transform="translate(1202.652344 0)"/>
      <use xlink:href="#LiberationSans-51" transform="translate(1235.953125 0)"/>
      <use xlink:href="#LiberationSans-20" transform="translate(1313.736328 0)"/>
      <use xlink:href="#LiberationSans-2f" transform="translate(1341.519531 0)"/>
      <use xlink:href="#LiberationSans-20" transform="translate(1369.302734 0)"/>
      <use xlink:href="#LiberationSans-28" transform="translate(1397.085938 0)"/>
      <use xlink:href="#LiberationSans-49" transform="translate(1430.386719 0)"/>
      <use xlink:href="#LiberationSans-2b" transform="translate(1458.169922 0)"/>
      <use xlink:href="#LiberationSans-45" transform="translate(1516.568359 0)"/>
      <use xlink:href="#LiberationSans-2b" transform="translate(1583.267578 0)"/>
      <use xlink:href="#LiberationSans-41" transform="translate(1641.666016 0)"/>
      <use xlink:href="#LiberationSans-2b" transform="translate(1708.365234 0)"/>
      <use xlink:href="#LiberationSans-51" transform="translate(1766.763672 0)"/>
      <use xlink:href="#LiberationSans-29" transform="translate(1844.546875 0)"/>
      <use xlink:href="#LiberationSans-29" transform="translate(1877.847656 0)"/>
     </g>
    </g>
   </g>
   <g id="line2d_27">
    <path d="M 87.795 511.535455 
L 198.237282 511.535455 
L 204.050034 506.813332 
L 209.862785 498.302484 
L 221.488289 478.708767 
L 233.113792 457.078806 
L 238.926544 445.888039 
L 244.739295 433.344073 
L 250.552047 420.4896 
L 256.364799 406.297304 
L 267.990302 376.297751 
L 273.803054 359.308576 
L 279.615805 341.714788 
L 291.241309 303.923392 
L 297.05406 284.603656 
L 302.866812 266.892919 
L 308.679564 251.058819 
L 314.492315 239.872301 
L 337.743322 123.289525 
L 343.556074 97.492101 
L 349.368826 70.452785 
L 355.181577 50.541047 
L 360.994329 39.10966 
L 366.807081 34.94782 
L 372.619832 34.644545 
L 378.432584 36.547125 
L 384.245336 35.155027 
L 390.058087 36.08212 
L 395.870839 36.601576 
L 407.496342 40.443784 
L 413.309094 41.84131 
L 419.121846 42.058628 
L 424.934597 42.933573 
L 430.747349 45.595781 
L 436.560101 45.769183 
L 442.372852 46.774855 
L 448.185604 47.977066 
L 453.998356 48.057127 
L 459.811107 50.380547 
L 465.623859 52.964106 
L 471.436611 54.614616 
L 477.249362 50.898034 
L 483.062114 52.134151 
L 488.874866 54.480208 
L 494.687617 58.920173 
L 500.500369 64.601362 
L 506.313121 66.210603 
L 512.125872 64.910903 
L 517.938624 64.571294 
L 523.751376 67.091726 
L 529.564128 70.877436 
L 535.376879 67.481409 
L 541.189631 74.13049 
L 547.002383 83.0411 
L 552.815134 84.497739 
L 558.627886 81.327096 
L 564.440638 88.468173 
L 570.253389 91.783368 
L 576.066141 92.5744 
L 581.878893 97.14252 
L 587.691644 89.16381 
L 593.504396 81.510541 
L 599.317148 70.831898 
L 605.129899 70.260053 
L 610.942651 73.890124 
L 616.755403 68.751982 
L 622.568154 69.905785 
L 628.380906 72.997799 
L 634.193658 75.684895 
L 640.006409 76.063456 
L 645.819161 79.832892 
L 651.631913 84.004156 
L 657.444664 80.557705 
L 663.257416 91.648601 
L 669.070168 85.864893 
L 674.882919 85.079843 
L 680.695671 86.618943 
L 686.508423 91.823279 
L 692.321174 84.141518 
L 698.133926 85.622909 
L 703.946678 92.43695 
L 709.75943 102.503879 
L 715.572181 108.122626 
L 721.384933 103.699243 
L 727.197685 108.935114 
L 733.010436 122.034521 
L 738.823188 134.585832 
L 744.63594 155.590743 
L 750.448691 140.96663 
L 756.261443 131.073028 
L 762.074195 124.939709 
L 767.886946 121.631126 
L 773.699698 127.691586 
L 779.51245 119.52701 
L 785.325201 140.190663 
L 791.137953 147.274569 
L 796.950705 123.471897 
L 802.763456 132.54821 
L 808.576208 114.998051 
L 814.38896 98.433551 
L 820.201711 106.30197 
L 826.014463 104.430293 
L 831.827215 123.762281 
L 837.639966 135.354443 
L 843.452718 154.326355 
L 855.078221 178.497942 
L 860.890973 170.826303 
L 866.703725 193.087034 
L 872.516477 193.488681 
L 878.329228 184.032306 
L 884.14198 188.524483 
L 889.954732 191.998919 
L 895.767483 203.460459 
L 901.580235 201.373706 
L 907.392987 202.536529 
L 913.205738 209.668693 
L 919.01849 217.312693 
L 924.831242 208.693129 
L 930.643993 220.28283 
L 936.456745 224.84502 
L 942.269497 226.395982 
L 948.082248 231.26733 
L 953.895 228.577571 
L 953.895 228.577571 
" clip-path="url(#pc6cf747c37)" style="fill: none; stroke: #1f77b4; stroke-width: 2; stroke-linecap: round"/>
   </g>
   <g id="line2d_28">
    <path d="M 87.795 511.535455 
L 198.237282 511.535455 
L 215.675537 507.178797 
L 227.30104 504.459318 
L 233.113792 502.836929 
L 244.739295 499.36345 
L 267.990302 490.717957 
L 273.803054 488.441894 
L 279.615805 485.450898 
L 285.428557 482.743967 
L 297.05406 477.014997 
L 302.866812 473.870364 
L 314.492315 467.21076 
L 320.305067 456.519481 
L 326.117819 446.927317 
L 343.556074 414.3077 
L 349.368826 402.168585 
L 355.181577 389.708651 
L 360.994329 375.826057 
L 366.807081 362.735017 
L 372.619832 350.423002 
L 378.432584 334.0501 
L 390.058087 307.613101 
L 395.870839 290.255433 
L 407.496342 264.063361 
L 413.309094 247.842513 
L 419.121846 234.22519 
L 424.934597 217.348216 
L 430.747349 204.579075 
L 436.560101 173.769616 
L 442.372852 153.616122 
L 448.185604 141.38756 
L 453.998356 131.541328 
L 459.811107 123.720509 
L 465.623859 124.777637 
L 471.436611 124.933745 
L 477.249362 126.0956 
L 483.062114 126.219929 
L 488.874866 125.581519 
L 494.687617 125.185453 
L 500.500369 129.876426 
L 506.313121 127.051095 
L 512.125872 126.227228 
L 517.938624 126.89092 
L 523.751376 129.783504 
L 529.564128 128.480189 
L 535.376879 133.379955 
L 541.189631 137.830453 
L 547.002383 137.38604 
L 552.815134 138.063087 
L 558.627886 141.863039 
L 564.440638 141.398441 
L 570.253389 140.806712 
L 581.878893 122.342995 
L 587.691644 122.112986 
L 593.504396 124.637721 
L 599.317148 123.717689 
L 605.129899 122.502277 
L 610.942651 124.061498 
L 616.755403 122.567185 
L 622.568154 124.890005 
L 628.380906 129.389708 
L 634.193658 125.955782 
L 640.006409 131.049484 
L 645.819161 130.614764 
L 651.631913 131.226933 
L 657.444664 132.389322 
L 663.257416 143.406827 
L 669.070168 145.532188 
L 674.882919 150.05984 
L 680.695671 152.166582 
L 686.508423 163.857839 
L 692.321174 179.187233 
L 698.133926 181.913405 
L 703.946678 174.385436 
L 709.75943 177.617977 
L 715.572181 182.537275 
L 721.384933 183.820279 
L 727.197685 193.146788 
L 733.010436 186.351029 
L 738.823188 191.556603 
L 744.63594 212.897423 
L 750.448691 207.125151 
L 756.261443 205.633349 
L 762.074195 208.384804 
L 767.886946 198.805382 
L 773.699698 193.755465 
L 779.51245 196.262443 
L 785.325201 202.867482 
L 791.137953 203.344937 
L 796.950705 216.103831 
L 802.763456 213.248371 
L 808.576208 190.077862 
L 814.38896 185.05 
L 820.201711 177.236738 
L 826.014463 170.186474 
L 831.827215 178.788422 
L 837.639966 190.706717 
L 843.452718 189.380097 
L 849.26547 191.156937 
L 855.078221 207.074392 
L 860.890973 196.837416 
L 866.703725 196.885566 
L 872.516477 184.60259 
L 878.329228 177.643341 
L 884.14198 165.63465 
L 895.767483 173.62896 
L 901.580235 170.881026 
L 907.392987 178.84595 
L 913.205738 181.195005 
L 919.01849 183.759237 
L 924.831242 168.618437 
L 930.643993 172.950932 
L 936.456745 156.953763 
L 942.269497 147.752061 
L 948.082248 145.456261 
L 953.895 139.320858 
L 953.895 139.320858 
" clip-path="url(#pc6cf747c37)" style="fill: none; stroke: #ff7f0e; stroke-width: 2; stroke-linecap: round"/>
   </g>
   <g id="line2d_29">
    <path d="M 87.795 511.535455 
L 198.237282 511.535455 
L 204.050034 509.962524 
L 209.862785 508.517194 
L 215.675537 506.907458 
L 221.488289 505.737628 
L 227.30104 504.270351 
L 250.552047 497.645029 
L 256.364799 495.771224 
L 262.17755 493.776023 
L 267.990302 491.63388 
L 273.803054 489.623299 
L 279.615805 487.397657 
L 291.241309 481.992686 
L 297.05406 479.97213 
L 302.866812 477.146722 
L 308.679564 476.158036 
L 314.492315 474.548957 
L 320.305067 469.13704 
L 326.117819 462.773406 
L 331.93057 456.664741 
L 337.743322 451.753327 
L 343.556074 447.324002 
L 349.368826 444.957456 
L 355.181577 444.027515 
L 360.994329 443.579294 
L 366.807081 445.96343 
L 372.619832 445.978233 
L 378.432584 444.592381 
L 384.245336 444.71296 
L 390.058087 443.800355 
L 395.870839 444.115709 
L 401.683591 445.018616 
L 407.496342 446.361413 
L 413.309094 447.080317 
L 419.121846 447.146643 
L 424.934597 447.856418 
L 430.747349 448.904083 
L 436.560101 450.945546 
L 442.372852 451.061717 
L 448.185604 452.162654 
L 453.998356 448.736596 
L 459.811107 446.116764 
L 465.623859 446.662332 
L 471.436611 446.455227 
L 477.249362 444.872466 
L 483.062114 447.23506 
L 488.874866 449.167502 
L 494.687617 449.09856 
L 500.500369 448.153504 
L 506.313121 448.208555 
L 512.125872 445.65766 
L 517.938624 445.983983 
L 523.751376 447.183911 
L 529.564128 445.840211 
L 535.376879 444.21756 
L 541.189631 445.081981 
L 547.002383 446.17551 
L 558.627886 447.986545 
L 564.440638 445.013914 
L 570.253389 447.984691 
L 576.066141 448.026593 
L 581.878893 447.829813 
L 587.691644 450.687425 
L 593.504396 454.741311 
L 599.317148 453.268462 
L 605.129899 452.79176 
L 610.942651 453.955976 
L 616.755403 455.735077 
L 622.568154 456.665518 
L 628.380906 455.146166 
L 634.193658 456.468003 
L 640.006409 456.753222 
L 645.819161 456.833233 
L 651.631913 457.77197 
L 657.444664 462.412162 
L 663.257416 461.881612 
L 669.070168 463.559727 
L 674.882919 463.757145 
L 680.695671 465.263661 
L 686.508423 463.733471 
L 692.321174 465.106776 
L 698.133926 464.822655 
L 703.946678 461.900389 
L 709.75943 464.021639 
L 715.572181 462.344694 
L 721.384933 460.875092 
L 727.197685 463.379551 
L 738.823188 463.691321 
L 744.63594 465.532235 
L 750.448691 464.290143 
L 756.261443 462.92552 
L 762.074195 462.718582 
L 767.886946 462.065974 
L 779.51245 464.239871 
L 785.325201 465.775427 
L 791.137953 467.665513 
L 796.950705 470.493755 
L 802.763456 470.037956 
L 808.576208 471.643596 
L 814.38896 468.990697 
L 820.201711 470.076062 
L 826.014463 470.039933 
L 831.827215 465.666478 
L 837.639966 466.698418 
L 843.452718 467.8491 
L 849.26547 469.276801 
L 860.890973 469.173539 
L 866.703725 468.753878 
L 872.516477 467.584776 
L 878.329228 464.957427 
L 884.14198 464.579352 
L 889.954732 461.832629 
L 895.767483 463.854975 
L 901.580235 465.245246 
L 907.392987 464.858741 
L 919.01849 467.263781 
L 924.831242 467.231781 
L 930.643993 469.419997 
L 936.456745 469.264146 
L 942.269497 471.727508 
L 948.082248 471.524054 
L 953.895 470.669805 
L 953.895 470.669805 
" clip-path="url(#pc6cf747c37)" style="fill: none; stroke: #2ca02c; stroke-width: 2; stroke-linecap: round"/>
   </g>
   <g id="line2d_30">
    <path d="M 87.795 511.535455 
L 198.237282 511.535455 
L 215.675537 506.645065 
L 227.30104 503.606308 
L 238.926544 500.513058 
L 244.739295 498.63232 
L 250.552047 496.469628 
L 256.364799 494.465374 
L 262.17755 491.846239 
L 267.990302 489.983034 
L 279.615805 485.409724 
L 291.241309 479.64196 
L 297.05406 476.53327 
L 302.866812 473.072631 
L 308.679564 469.965946 
L 314.492315 466.530877 
L 320.305067 456.290596 
L 326.117819 446.280249 
L 331.93057 435.336477 
L 337.743322 423.765863 
L 343.556074 411.350351 
L 349.368826 400.11468 
L 355.181577 385.659655 
L 360.994329 372.680977 
L 366.807081 358.82674 
L 372.619832 343.452947 
L 378.432584 327.661455 
L 384.245336 310.060076 
L 390.058087 293.724943 
L 395.870839 275.708006 
L 407.496342 243.704399 
L 413.309094 228.108877 
L 419.121846 217.222399 
L 424.934597 204.473244 
L 430.747349 194.692713 
L 436.560101 177.406839 
L 442.372852 166.209019 
L 448.185604 162.087765 
L 453.998356 161.701345 
L 459.811107 160.971935 
L 465.623859 159.684903 
L 471.436611 160.508779 
L 477.249362 160.378957 
L 483.062114 157.608226 
L 488.874866 162.171674 
L 494.687617 165.189142 
L 500.500369 162.047188 
L 506.313121 162.934846 
L 512.125872 160.724337 
L 517.938624 162.716312 
L 523.751376 160.553764 
L 529.564128 154.585738 
L 535.376879 155.738724 
L 541.189631 157.108408 
L 547.002383 160.639533 
L 552.815134 163.339805 
L 558.627886 160.590299 
L 564.440638 162.38194 
L 570.253389 168.876941 
L 576.066141 171.840205 
L 581.878893 177.535626 
L 587.691644 185.492414 
L 593.504396 173.129402 
L 599.317148 170.583751 
L 605.129899 172.894772 
L 610.942651 179.115907 
L 616.755403 187.434308 
L 622.568154 183.710956 
L 628.380906 182.188263 
L 634.193658 187.616363 
L 640.006409 190.896958 
L 645.819161 192.254588 
L 651.631913 193.927704 
L 657.444664 191.798431 
L 663.257416 199.803354 
L 674.882919 197.102192 
L 680.695671 198.633967 
L 686.508423 201.006981 
L 692.321174 194.323871 
L 698.133926 200.980559 
L 703.946678 207.309392 
L 709.75943 217.1285 
L 715.572181 215.101784 
L 721.384933 220.594115 
L 727.197685 223.696787 
L 733.010436 216.10429 
L 738.823188 220.626262 
L 744.63594 219.744327 
L 750.448691 213.918772 
L 756.261443 221.658955 
L 762.074195 223.312019 
L 767.886946 224.737814 
L 773.699698 220.625875 
L 779.51245 226.029622 
L 785.325201 234.500406 
L 791.137953 233.07763 
L 796.950705 224.038237 
L 802.763456 217.979542 
L 808.576208 212.743957 
L 814.38896 218.588014 
L 820.201711 232.698778 
L 826.014463 231.086087 
L 831.827215 208.825763 
L 837.639966 209.783664 
L 843.452718 227.122821 
L 849.26547 235.336017 
L 855.078221 241.894337 
L 860.890973 234.769204 
L 866.703725 235.807619 
L 872.516477 232.608681 
L 878.329228 230.087216 
L 884.14198 236.530841 
L 889.954732 247.302263 
L 895.767483 254.502431 
L 901.580235 259.093336 
L 907.392987 250.346416 
L 913.205738 260.655542 
L 919.01849 272.56736 
L 924.831242 288.51892 
L 930.643993 271.653578 
L 936.456745 268.614283 
L 942.269497 248.642912 
L 948.082248 268.218462 
L 953.895 269.419633 
L 953.895 269.419633 
" clip-path="url(#pc6cf747c37)" style="fill: none; stroke: #d62728; stroke-width: 2; stroke-linecap: round"/>
   </g>
   <g id="line2d_31">
    <path d="M 87.795 511.535455 
L 198.237282 511.535455 
L 204.050034 509.943583 
L 221.488289 505.498286 
L 244.739295 498.389709 
L 250.552047 496.483603 
L 256.364799 494.377425 
L 262.17755 491.681028 
L 267.990302 489.402137 
L 273.803054 486.876841 
L 279.615805 484.188468 
L 285.428557 481.254309 
L 291.241309 478.791443 
L 297.05406 476.130337 
L 302.866812 472.654399 
L 308.679564 469.577309 
L 314.492315 466.093387 
L 320.305067 455.217174 
L 326.117819 444.947539 
L 331.93057 434.250536 
L 343.556074 408.782755 
L 349.368826 394.283006 
L 355.181577 380.435195 
L 360.994329 367.082435 
L 366.807081 357.08466 
L 372.619832 346.246152 
L 378.432584 335.967731 
L 384.245336 323.837516 
L 395.870839 306.300393 
L 401.683591 298.863966 
L 407.496342 293.423079 
L 413.309094 288.263327 
L 419.121846 282.11761 
L 424.934597 274.634936 
L 430.747349 266.637069 
L 436.560101 249.983642 
L 442.372852 234.878627 
L 448.185604 217.847626 
L 453.998356 207.592582 
L 459.811107 203.138271 
L 465.623859 198.146112 
L 471.436611 189.104001 
L 483.062114 176.789218 
L 488.874866 171.992632 
L 494.687617 170.964236 
L 500.500369 173.689116 
L 506.313121 178.301701 
L 512.125872 174.592787 
L 517.938624 169.624555 
L 523.751376 172.025762 
L 529.564128 176.554026 
L 535.376879 166.379846 
L 541.189631 170.307271 
L 547.002383 171.645575 
L 552.815134 166.74056 
L 558.627886 172.69089 
L 564.440638 175.308202 
L 570.253389 173.263529 
L 576.066141 169.611418 
L 581.878893 175.428137 
L 587.691644 178.969638 
L 593.504396 177.042726 
L 599.317148 171.283417 
L 605.129899 177.437535 
L 610.942651 180.269065 
L 616.755403 181.744137 
L 622.568154 182.965885 
L 628.380906 177.713462 
L 634.193658 168.758933 
L 640.006409 173.526605 
L 645.819161 182.181579 
L 651.631913 180.977378 
L 657.444664 178.994292 
L 663.257416 183.334821 
L 669.070168 180.567007 
L 674.882919 187.874111 
L 680.695671 189.772325 
L 686.508423 191.220758 
L 692.321174 203.467309 
L 698.133926 198.952603 
L 703.946678 193.756377 
L 709.75943 191.442604 
L 715.572181 196.787451 
L 721.384933 207.631051 
L 727.197685 202.308512 
L 733.010436 201.073706 
L 738.823188 206.476776 
L 744.63594 193.255878 
L 750.448691 198.537263 
L 756.261443 208.279933 
L 762.074195 211.573262 
L 767.886946 215.377751 
L 773.699698 227.783783 
L 779.51245 233.447022 
L 785.325201 220.293264 
L 791.137953 219.18526 
L 796.950705 216.456428 
L 802.763456 219.253789 
L 808.576208 217.932983 
L 814.38896 231.304533 
L 820.201711 235.125837 
L 826.014463 236.863188 
L 831.827215 247.51756 
L 837.639966 238.161992 
L 843.452718 238.71998 
L 849.26547 245.885824 
L 855.078221 254.427259 
L 860.890973 259.787383 
L 866.703725 253.226172 
L 872.516477 242.851523 
L 878.329228 239.319821 
L 884.14198 226.329605 
L 889.954732 234.044987 
L 895.767483 240.768758 
L 901.580235 245.312186 
L 907.392987 235.374606 
L 913.205738 231.784924 
L 919.01849 237.007489 
L 924.831242 245.222177 
L 930.643993 242.955561 
L 936.456745 238.313722 
L 942.269497 240.4317 
L 948.082248 246.677501 
L 953.895 233.109452 
L 953.895 233.109452 
" clip-path="url(#pc6cf747c37)" style="fill: none; stroke: #9467bd; stroke-width: 2; stroke-linecap: round"/>
   </g>
   <g id="line2d_32">
    <path d="M 87.795 511.535455 
L 198.237282 511.535455 
L 204.050034 509.911741 
L 209.862785 508.405697 
L 221.488289 505.533818 
L 227.30104 504.079225 
L 233.113792 502.374206 
L 238.926544 500.992215 
L 244.739295 499.473835 
L 250.552047 497.768513 
L 256.364799 496.616735 
L 262.17755 494.637097 
L 273.803054 490.112299 
L 279.615805 487.750547 
L 285.428557 485.677599 
L 291.241309 483.024859 
L 297.05406 479.798104 
L 302.866812 477.095678 
L 308.679564 474.088861 
L 314.492315 470.487394 
L 320.305067 461.701578 
L 326.117819 451.939799 
L 331.93057 441.477796 
L 337.743322 431.320352 
L 349.368826 407.059034 
L 360.994329 384.752618 
L 366.807081 374.198282 
L 372.619832 362.193511 
L 378.432584 349.030586 
L 384.245336 338.943146 
L 390.058087 330.533079 
L 395.870839 321.257242 
L 407.496342 301.881744 
L 413.309094 296.244241 
L 419.121846 287.180039 
L 424.934597 278.888605 
L 430.747349 270.929218 
L 436.560101 254.572237 
L 442.372852 240.609432 
L 448.185604 227.258315 
L 459.811107 203.013832 
L 465.623859 187.301749 
L 471.436611 181.423936 
L 477.249362 180.156123 
L 483.062114 170.955381 
L 488.874866 165.557959 
L 494.687617 158.236344 
L 500.500369 155.243612 
L 506.313121 153.007066 
L 512.125872 149.823459 
L 517.938624 151.739435 
L 523.751376 156.1126 
L 529.564128 160.820658 
L 535.376879 166.19083 
L 541.189631 161.730188 
L 547.002383 165.311343 
L 552.815134 159.959015 
L 558.627886 163.417177 
L 564.440638 162.201537 
L 570.253389 167.987421 
L 576.066141 167.126969 
L 581.878893 169.565713 
L 587.691644 169.729821 
L 593.504396 175.488647 
L 599.317148 182.427249 
L 605.129899 190.064021 
L 610.942651 196.243805 
L 616.755403 191.066384 
L 622.568154 199.176102 
L 628.380906 192.980959 
L 634.193658 188.858593 
L 640.006409 192.047208 
L 645.819161 193.876385 
L 651.631913 188.142103 
L 657.444664 179.643748 
L 663.257416 189.98847 
L 669.070168 190.88828 
L 674.882919 196.65505 
L 680.695671 199.406074 
L 686.508423 204.817774 
L 692.321174 212.579417 
L 698.133926 218.245105 
L 703.946678 207.20695 
L 709.75943 216.388572 
L 715.572181 211.005142 
L 721.384933 209.757147 
L 727.197685 210.450769 
L 733.010436 215.034962 
L 738.823188 222.395684 
L 744.63594 225.780751 
L 750.448691 217.99201 
L 756.261443 216.566897 
L 762.074195 217.796851 
L 767.886946 217.410537 
L 773.699698 219.560587 
L 779.51245 215.155487 
L 785.325201 208.491072 
L 791.137953 208.797367 
L 796.950705 195.503897 
L 802.763456 215.535623 
L 808.576208 220.931508 
L 814.38896 207.88719 
L 820.201711 217.781762 
L 826.014463 211.210172 
L 831.827215 209.290877 
L 837.639966 200.892494 
L 843.452718 195.685109 
L 849.26547 197.294031 
L 855.078221 200.137468 
L 860.890973 209.960445 
L 866.703725 212.358356 
L 872.516477 212.410646 
L 878.329228 211.000546 
L 884.14198 199.384345 
L 889.954732 196.585321 
L 895.767483 202.293078 
L 901.580235 201.910514 
L 907.392987 207.099291 
L 913.205738 207.353067 
L 919.01849 207.491911 
L 924.831242 227.291105 
L 930.643993 226.250157 
L 936.456745 229.57283 
L 942.269497 242.00561 
L 948.082248 253.755343 
L 953.895 255.94 
L 953.895 255.94 
" clip-path="url(#pc6cf747c37)" style="fill: none; stroke: #8c564b; stroke-width: 2; stroke-linecap: round"/>
   </g>
   <g id="line2d_33">
    <path d="M 204.050034 535.38 
L 204.050034 10.8 
" clip-path="url(#pc6cf747c37)" style="fill: none; stroke-dasharray: 5.55,2.4; stroke-dashoffset: 0; stroke: #000000; stroke-width: 1.5"/>
   </g>
   <g id="patch_3">
    <path d="M 44.49 535.38 
L 44.49 10.8 
" style="fill: none; stroke: #cccccc; stroke-linejoin: miter; stroke-linecap: square"/>
   </g>
   <g id="patch_4">
    <path d="M 997.2 535.38 
L 997.2 10.8 
" style="fill: none; stroke: #cccccc; stroke-linejoin: miter; stroke-linecap: square"/>
   </g>
   <g id="patch_5">
    <path d="M 44.49 535.38 
L 997.2 535.38 
" style="fill: none; stroke: #cccccc; stroke-linejoin: miter; stroke-linecap: square"/>
   </g>
   <g id="patch_6">
    <path d="M 44.49 10.8 
L 997.2 10.8 
" style="fill: none; stroke: #cccccc; stroke-linejoin: miter; stroke-linecap: square"/>
   </g>
   <g id="legend_1">
    <g id="patch_7">
     <path d="M 885.699375 138.839375 
L 988.8 138.839375 
Q 991.2 138.839375 991.2 136.439375 
L 991.2 19.2 
Q 991.2 16.8 988.8 16.8 
L 885.699375 16.8 
Q 883.299375 16.8 883.299375 19.2 
L 883.299375 136.439375 
Q 883.299375 138.839375 885.699375 138.839375 
z
" style="fill: #ffffff; opacity: 0.8; stroke: #cccccc; stroke-linejoin: miter"/>
    </g>
    <g id="text_16">
     <!-- Strategy -->
     <g style="fill: #262626" transform="translate(918.630156 28.846875) scale(0.1 -0.1)">
      <defs>
       <path id="LiberationSans-53" d="M 3975 1216 
Q 3975 938 3867 703 
Q 3759 469 3534 298 
Q 3309 128 2967 32 
Q 2625 -63 2156 -63 
Q 1334 -63 875 225 
Q 416 513 291 1056 
L 869 1172 
Q 913 1000 1003 859 
Q 1094 719 1248 617 
Q 1403 516 1631 459 
Q 1859 403 2178 403 
Q 2444 403 2666 448 
Q 2888 494 3047 587 
Q 3206 681 3295 829 
Q 3384 978 3384 1184 
Q 3384 1400 3286 1534 
Q 3188 1669 3009 1756 
Q 2831 1844 2584 1903 
Q 2338 1963 2038 2031 
Q 1853 2072 1667 2120 
Q 1481 2169 1311 2236 
Q 1141 2303 991 2393 
Q 841 2484 731 2611 
Q 622 2738 559 2905 
Q 497 3072 497 3291 
Q 497 3603 623 3826 
Q 750 4050 975 4194 
Q 1200 4338 1506 4403 
Q 1813 4469 2169 4469 
Q 2578 4469 2868 4405 
Q 3159 4341 3359 4212 
Q 3559 4084 3679 3895 
Q 3800 3706 3872 3456 
L 3284 3353 
Q 3241 3513 3158 3638 
Q 3075 3763 2940 3847 
Q 2806 3931 2614 3975 
Q 2422 4019 2163 4019 
Q 1856 4019 1648 3964 
Q 1441 3909 1314 3815 
Q 1188 3722 1133 3595 
Q 1078 3469 1078 3322 
Q 1078 3125 1176 2998 
Q 1275 2872 1444 2787 
Q 1613 2703 1834 2647 
Q 2056 2591 2306 2534 
Q 2509 2488 2711 2439 
Q 2913 2391 3097 2323 
Q 3281 2256 3442 2165 
Q 3603 2075 3722 1944 
Q 3841 1813 3908 1634 
Q 3975 1456 3975 1216 
z
" transform="scale(0.015625)"/>
      </defs>
      <use xlink:href="#LiberationSans-53"/>
      <use xlink:href="#LiberationSans-74" transform="translate(66.699219 0)"/>
      <use xlink:href="#LiberationSans-72" transform="translate(94.482422 0)"/>
      <use xlink:href="#LiberationSans-61" transform="translate(127.783203 0)"/>
      <use xlink:href="#LiberationSans-74" transform="translate(183.398438 0)"/>
      <use xlink:href="#LiberationSans-65" transform="translate(211.181641 0)"/>
      <use xlink:href="#LiberationSans-67" transform="translate(266.796875 0)"/>
      <use xlink:href="#LiberationSans-79" transform="translate(322.412109 0)"/>
     </g>
    </g>
    <g id="line2d_34">
     <path d="M 888.099375 41.418125 
L 900.099375 41.418125 
L 912.099375 41.418125 
" style="fill: none; stroke: #1f77b4; stroke-width: 2; stroke-linecap: round"/>
    </g>
    <g id="text_17">
     <!-- GNTS -->
     <g style="fill: #262626" transform="translate(921.699375 45.618125) scale(0.12 -0.12)">
      <defs>
       <path id="LiberationSans-47" d="M 322 2222 
Q 322 2738 461 3153 
Q 600 3569 876 3861 
Q 1153 4153 1562 4311 
Q 1972 4469 2513 4469 
Q 2919 4469 3225 4397 
Q 3531 4325 3756 4190 
Q 3981 4056 4137 3864 
Q 4294 3672 4403 3431 
L 3834 3263 
Q 3753 3425 3639 3558 
Q 3525 3691 3362 3784 
Q 3200 3878 2986 3929 
Q 2772 3981 2497 3981 
Q 2097 3981 1801 3856 
Q 1506 3731 1312 3500 
Q 1119 3269 1023 2944 
Q 928 2619 928 2222 
Q 928 1825 1031 1495 
Q 1134 1166 1337 927 
Q 1541 688 1842 555 
Q 2144 422 2541 422 
Q 2800 422 3019 465 
Q 3238 509 3414 579 
Q 3591 650 3725 736 
Q 3859 822 3950 909 
L 3950 1703 
L 2634 1703 
L 2634 2203 
L 4500 2203 
L 4500 684 
Q 4353 534 4154 398 
Q 3956 263 3709 159 
Q 3463 56 3169 -3 
Q 2875 -63 2541 -63 
Q 1984 -63 1568 107 
Q 1153 278 876 583 
Q 600 888 461 1306 
Q 322 1725 322 2222 
z
" transform="scale(0.015625)"/>
       <path id="LiberationSans-4e" d="M 3381 0 
L 1025 3750 
Q 1031 3597 1041 3447 
Q 1047 3319 1051 3176 
Q 1056 3034 1056 2925 
L 1056 0 
L 525 0 
L 525 4403 
L 1219 4403 
L 3600 628 
Q 3591 781 3581 934 
Q 3575 1066 3569 1220 
Q 3563 1375 3563 1516 
L 3563 4403 
L 4100 4403 
L 4100 0 
L 3381 0 
z
" transform="scale(0.015625)"/>
       <path id="LiberationSans-54" d="M 2250 3916 
L 2250 0 
L 1656 0 
L 1656 3916 
L 144 3916 
L 144 4403 
L 3763 4403 
L 3763 3916 
L 2250 3916 
z
" transform="scale(0.015625)"/>
      </defs>
      <use xlink:href="#LiberationSans-47"/>
      <use xlink:href="#LiberationSans-4e" transform="translate(77.783203 0)"/>
      <use xlink:href="#LiberationSans-54" transform="translate(150 0)"/>
      <use xlink:href="#LiberationSans-53" transform="translate(211.083984 0)"/>
     </g>
    </g>
    <g id="line2d_35">
     <path d="M 888.099375 58.604375 
L 900.099375 58.604375 
L 912.099375 58.604375 
" style="fill: none; stroke: #ff7f0e; stroke-width: 2; stroke-linecap: round"/>
    </g>
    <g id="text_18">
     <!-- BBTS -->
     <g style="fill: #262626" transform="translate(921.699375 62.804375) scale(0.12 -0.12)">
      <defs>
       <path id="LiberationSans-42" d="M 3931 1241 
Q 3931 906 3800 670 
Q 3669 434 3447 286 
Q 3225 138 2931 69 
Q 2638 0 2313 0 
L 525 0 
L 525 4403 
L 2125 4403 
Q 2491 4403 2778 4342 
Q 3066 4281 3266 4150 
Q 3466 4019 3570 3817 
Q 3675 3616 3675 3334 
Q 3675 3150 3623 2987 
Q 3572 2825 3467 2692 
Q 3363 2559 3205 2464 
Q 3047 2369 2838 2322 
Q 3103 2291 3308 2200 
Q 3513 2109 3650 1968 
Q 3788 1828 3859 1642 
Q 3931 1456 3931 1241 
z
M 3075 3263 
Q 3075 3619 2831 3772 
Q 2588 3925 2125 3925 
L 1122 3925 
L 1122 2531 
L 2125 2531 
Q 2388 2531 2569 2582 
Q 2750 2634 2862 2729 
Q 2975 2825 3025 2959 
Q 3075 3094 3075 3263 
z
M 3328 1288 
Q 3328 1497 3251 1644 
Q 3175 1791 3031 1884 
Q 2888 1978 2686 2022 
Q 2484 2066 2234 2066 
L 1122 2066 
L 1122 478 
L 2281 478 
Q 2509 478 2701 515 
Q 2894 553 3033 647 
Q 3172 741 3250 897 
Q 3328 1053 3328 1288 
z
" transform="scale(0.015625)"/>
      </defs>
      <use xlink:href="#LiberationSans-42"/>
      <use xlink:href="#LiberationSans-42" transform="translate(66.699219 0)"/>
      <use xlink:href="#LiberationSans-54" transform="translate(133.398438 0)"/>
      <use xlink:href="#LiberationSans-53" transform="translate(194.482422 0)"/>
     </g>
    </g>
    <g id="line2d_36">
     <path d="M 888.099375 75.790625 
L 900.099375 75.790625 
L 912.099375 75.790625 
" style="fill: none; stroke: #2ca02c; stroke-width: 2; stroke-linecap: round"/>
    </g>
    <g id="text_19">
     <!-- GPTS -->
     <g style="fill: #262626" transform="translate(921.699375 79.990625) scale(0.12 -0.12)">
      <defs>
       <path id="LiberationSans-50" d="M 3931 3078 
Q 3931 2791 3836 2542 
Q 3741 2294 3552 2111 
Q 3363 1928 3078 1822 
Q 2794 1716 2416 1716 
L 1122 1716 
L 1122 0 
L 525 0 
L 525 4403 
L 2378 4403 
Q 2769 4403 3059 4308 
Q 3350 4213 3544 4039 
Q 3738 3866 3834 3620 
Q 3931 3375 3931 3078 
z
M 3331 3072 
Q 3331 3491 3075 3708 
Q 2819 3925 2306 3925 
L 1122 3925 
L 1122 2188 
L 2331 2188 
Q 2847 2188 3089 2416 
Q 3331 2644 3331 3072 
z
" transform="scale(0.015625)"/>
      </defs>
      <use xlink:href="#LiberationSans-47"/>
      <use xlink:href="#LiberationSans-50" transform="translate(77.783203 0)"/>
      <use xlink:href="#LiberationSans-54" transform="translate(144.482422 0)"/>
      <use xlink:href="#LiberationSans-53" transform="translate(205.566406 0)"/>
     </g>
    </g>
    <g id="line2d_37">
     <path d="M 888.099375 92.976875 
L 900.099375 92.976875 
L 912.099375 92.976875 
" style="fill: none; stroke: #d62728; stroke-width: 2; stroke-linecap: round"/>
    </g>
    <g id="text_20">
     <!-- Proportional -->
     <g style="fill: #262626" transform="translate(921.699375 97.176875) scale(0.12 -0.12)">
      <defs>
       <path id="LiberationSans-6f" d="M 3291 1694 
Q 3291 806 2900 371 
Q 2509 -63 1766 -63 
Q 1413 -63 1134 43 
Q 856 150 664 369 
Q 472 588 370 917 
Q 269 1247 269 1694 
Q 269 3444 1784 3444 
Q 2178 3444 2464 3334 
Q 2750 3225 2933 3006 
Q 3116 2788 3203 2459 
Q 3291 2131 3291 1694 
z
M 2700 1694 
Q 2700 2088 2639 2344 
Q 2578 2600 2461 2753 
Q 2344 2906 2175 2967 
Q 2006 3028 1794 3028 
Q 1578 3028 1404 2964 
Q 1231 2900 1109 2745 
Q 988 2591 923 2334 
Q 859 2078 859 1694 
Q 859 1300 928 1042 
Q 997 784 1117 631 
Q 1238 478 1402 415 
Q 1566 353 1759 353 
Q 1975 353 2150 414 
Q 2325 475 2447 628 
Q 2569 781 2634 1040 
Q 2700 1300 2700 1694 
z
" transform="scale(0.015625)"/>
       <path id="LiberationSans-70" d="M 3291 1706 
Q 3291 1322 3228 997 
Q 3166 672 3020 437 
Q 2875 203 2636 70 
Q 2397 -63 2047 -63 
Q 1684 -63 1412 75 
Q 1141 213 997 525 
L 981 525 
Q 984 519 986 469 
Q 988 419 989 344 
Q 991 269 992 176 
Q 994 84 994 -6 
L 994 -1328 
L 431 -1328 
L 431 2691 
Q 431 2813 429 2925 
Q 428 3038 425 3130 
Q 422 3222 419 3287 
Q 416 3353 413 3381 
L 956 3381 
Q 959 3372 964 3315 
Q 969 3259 973 3179 
Q 978 3100 983 3009 
Q 988 2919 988 2838 
L 1000 2838 
Q 1078 3000 1178 3114 
Q 1278 3228 1406 3301 
Q 1534 3375 1692 3408 
Q 1850 3441 2047 3441 
Q 2397 3441 2636 3316 
Q 2875 3191 3020 2964 
Q 3166 2738 3228 2417 
Q 3291 2097 3291 1706 
z
M 2700 1694 
Q 2700 2006 2662 2250 
Q 2625 2494 2533 2662 
Q 2441 2831 2287 2918 
Q 2134 3006 1903 3006 
Q 1716 3006 1550 2953 
Q 1384 2900 1261 2750 
Q 1138 2600 1066 2336 
Q 994 2072 994 1650 
Q 994 1291 1053 1042 
Q 1113 794 1227 641 
Q 1341 488 1509 420 
Q 1678 353 1897 353 
Q 2131 353 2286 443 
Q 2441 534 2533 706 
Q 2625 878 2662 1126 
Q 2700 1375 2700 1694 
z
" transform="scale(0.015625)"/>
       <path id="LiberationSans-6c" d="M 431 0 
L 431 4638 
L 994 4638 
L 994 0 
L 431 0 
z
" transform="scale(0.015625)"/>
      </defs>
      <use xlink:href="#LiberationSans-50"/>
      <use xlink:href="#LiberationSans-72" transform="translate(66.699219 0)"/>
      <use xlink:href="#LiberationSans-6f" transform="translate(100 0)"/>
      <use xlink:href="#LiberationSans-70" transform="translate(155.615234 0)"/>
      <use xlink:href="#LiberationSans-6f" transform="translate(211.230469 0)"/>
      <use xlink:href="#LiberationSans-72" transform="translate(266.845703 0)"/>
      <use xlink:href="#LiberationSans-74" transform="translate(300.146484 0)"/>
      <use xlink:href="#LiberationSans-69" transform="translate(327.929688 0)"/>
      <use xlink:href="#LiberationSans-6f" transform="translate(350.146484 0)"/>
      <use xlink:href="#LiberationSans-6e" transform="translate(405.761719 0)"/>
      <use xlink:href="#LiberationSans-61" transform="translate(461.376953 0)"/>
      <use xlink:href="#LiberationSans-6c" transform="translate(516.992188 0)"/>
     </g>
    </g>
    <g id="line2d_38">
     <path d="M 888.099375 110.163125 
L 900.099375 110.163125 
L 912.099375 110.163125 
" style="fill: none; stroke: #9467bd; stroke-width: 2; stroke-linecap: round"/>
    </g>
    <g id="text_21">
     <!-- Uniform -->
     <g style="fill: #262626" transform="translate(921.699375 114.363125) scale(0.12 -0.12)">
      <defs>
       <path id="LiberationSans-55" d="M 2284 -63 
Q 1922 -63 1597 34 
Q 1272 131 1026 336 
Q 781 541 637 855 
Q 494 1169 494 1600 
L 494 4403 
L 1091 4403 
L 1091 1650 
Q 1091 1316 1180 1083 
Q 1269 850 1428 703 
Q 1588 556 1805 489 
Q 2022 422 2281 422 
Q 2538 422 2766 490 
Q 2994 559 3166 709 
Q 3338 859 3436 1101 
Q 3534 1344 3534 1691 
L 3534 4403 
L 4128 4403 
L 4128 1656 
Q 4128 1216 3983 892 
Q 3838 569 3588 356 
Q 3338 144 3002 40 
Q 2666 -63 2284 -63 
z
" transform="scale(0.015625)"/>
       <path id="LiberationSans-6d" d="M 2400 0 
L 2400 2144 
Q 2400 2391 2369 2556 
Q 2338 2722 2264 2823 
Q 2191 2925 2072 2967 
Q 1953 3009 1781 3009 
Q 1603 3009 1459 2939 
Q 1316 2869 1214 2736 
Q 1113 2603 1058 2408 
Q 1003 2213 1003 1959 
L 1003 0 
L 444 0 
L 444 2659 
Q 444 2766 442 2883 
Q 441 3000 437 3104 
Q 434 3209 431 3284 
Q 428 3359 425 3381 
L 956 3381 
Q 959 3366 962 3297 
Q 966 3228 970 3139 
Q 975 3050 978 2958 
Q 981 2866 981 2803 
L 991 2803 
Q 1066 2950 1153 3069 
Q 1241 3188 1358 3270 
Q 1475 3353 1626 3398 
Q 1778 3444 1978 3444 
Q 2363 3444 2586 3291 
Q 2809 3138 2897 2803 
L 2906 2803 
Q 2981 2950 3075 3069 
Q 3169 3188 3294 3270 
Q 3419 3353 3575 3398 
Q 3731 3444 3931 3444 
Q 4188 3444 4373 3375 
Q 4559 3306 4678 3162 
Q 4797 3019 4853 2792 
Q 4909 2566 4909 2253 
L 4909 0 
L 4353 0 
L 4353 2144 
Q 4353 2391 4322 2556 
Q 4291 2722 4217 2823 
Q 4144 2925 4025 2967 
Q 3906 3009 3734 3009 
Q 3556 3009 3412 2942 
Q 3269 2875 3167 2744 
Q 3066 2613 3011 2416 
Q 2956 2219 2956 1959 
L 2956 0 
L 2400 0 
z
" transform="scale(0.015625)"/>
      </defs>
      <use xlink:href="#LiberationSans-55"/>
      <use xlink:href="#LiberationSans-6e" transform="translate(72.216797 0)"/>
      <use xlink:href="#LiberationSans-69" transform="translate(127.832031 0)"/>
      <use xlink:href="#LiberationSans-66" transform="translate(150.048828 0)"/>
      <use xlink:href="#LiberationSans-6f" transform="translate(177.832031 0)"/>
      <use xlink:href="#LiberationSans-72" transform="translate(233.447266 0)"/>
      <use xlink:href="#LiberationSans-6d" transform="translate(266.748047 0)"/>
     </g>
    </g>
    <g id="line2d_39">
     <path d="M 888.099375 127.349375 
L 900.099375 127.349375 
L 912.099375 127.349375 
" style="fill: none; stroke: #8c564b; stroke-width: 2; stroke-linecap: round"/>
    </g>
    <g id="text_22">
     <!-- Random -->
     <g style="fill: #262626" transform="translate(921.699375 131.549375) scale(0.12 -0.12)">
      <defs>
       <path id="LiberationSans-52" d="M 3638 0 
L 2494 1828 
L 1122 1828 
L 1122 0 
L 525 0 
L 525 4403 
L 2597 4403 
Q 2972 4403 3261 4317 
Q 3550 4231 3747 4068 
Q 3944 3906 4047 3672 
Q 4150 3438 4150 3144 
Q 4150 2934 4089 2731 
Q 4028 2528 3897 2359 
Q 3766 2191 3562 2069 
Q 3359 1947 3075 1897 
L 4325 0 
L 3638 0 
z
M 3550 3138 
Q 3550 3338 3481 3484 
Q 3413 3631 3281 3729 
Q 3150 3828 2962 3876 
Q 2775 3925 2538 3925 
L 1122 3925 
L 1122 2300 
L 2563 2300 
Q 2819 2300 3006 2364 
Q 3194 2428 3314 2540 
Q 3434 2653 3492 2806 
Q 3550 2959 3550 3138 
z
" transform="scale(0.015625)"/>
       <path id="LiberationSans-64" d="M 2566 544 
Q 2409 219 2151 78 
Q 1894 -63 1513 -63 
Q 872 -63 570 368 
Q 269 800 269 1675 
Q 269 3444 1513 3444 
Q 1897 3444 2153 3303 
Q 2409 3163 2566 2856 
L 2572 2856 
Q 2572 2888 2570 2955 
Q 2569 3022 2567 3095 
Q 2566 3169 2566 3234 
Q 2566 3300 2566 3328 
L 2566 4638 
L 3128 4638 
L 3128 697 
Q 3128 575 3129 462 
Q 3131 350 3134 256 
Q 3138 163 3141 95 
Q 3144 28 3147 0 
L 2609 0 
Q 2603 31 2598 89 
Q 2594 147 2589 222 
Q 2584 297 2581 380 
Q 2578 463 2578 544 
L 2566 544 
z
M 859 1694 
Q 859 1344 903 1094 
Q 947 844 1044 683 
Q 1141 522 1291 447 
Q 1441 372 1656 372 
Q 1878 372 2048 444 
Q 2219 516 2333 677 
Q 2447 838 2506 1097 
Q 2566 1356 2566 1731 
Q 2566 2091 2506 2339 
Q 2447 2588 2331 2741 
Q 2216 2894 2048 2961 
Q 1881 3028 1663 3028 
Q 1456 3028 1306 2956 
Q 1156 2884 1056 2725 
Q 956 2566 907 2311 
Q 859 2056 859 1694 
z
" transform="scale(0.015625)"/>
      </defs>
      <use xlink:href="#LiberationSans-52"/>
      <use xlink:href="#LiberationSans-61" transform="translate(72.216797 0)"/>
      <use xlink:href="#LiberationSans-6e" transform="translate(127.832031 0)"/>
      <use xlink:href="#LiberationSans-64" transform="translate(183.447266 0)"/>
      <use xlink:href="#LiberationSans-6f" transform="translate(239.0625 0)"/>
      <use xlink:href="#LiberationSans-6d" transform="translate(294.677734 0)"/>
     </g>
    </g>
   </g>
  </g>
 </g>
 <defs>
  <clipPath id="pc6cf747c37">
   <rect x="44.49" y="10.8" width="952.71" height="524.58"/>
  </clipPath>
 </defs>
</svg>
