<?xml version="1.0" encoding="utf-8" standalone="no"?>
<!DOCTYPE svg PUBLIC "-//W3C//DTD SVG 1.1//EN"
  "http://www.w3.org/Graphics/SVG/1.1/DTD/svg11.dtd">
<svg xmlns:xlink="http://www.w3.org/1999/xlink" width="1008pt" height="576pt" viewBox="0 0 1008 576" xmlns="http://www.w3.org/2000/svg" version="1.1">
 <metadata>
  <rdf:RDF xmlns:dc="http://purl.org/dc/elements/1.1/" xmlns:cc="http://creativecommons.org/ns#" xmlns:rdf="http://www.w3.org/1999/02/22-rdf-syntax-ns#">
   <cc:Work>
    <dc:type rdf:resource="http://purl.org/dc/dcmitype/StillImage"/>
    <dc:date>2026-04-05T06:50:27.390185</dc:date>
    <dc:format>image/svg+xml</dc:format>
    <dc:creator>
     <cc:Agent>
      <dc:title>Matplotlib v3.10.0, https://matplotlib.org/</dc:title>
     </cc:Agent>
    </dc:creator>
   </cc:Work>
  </rdf:RDF>
 </metadata>
 <defs>
  <style type="text/css">*{stroke-linejoin: round; stroke-linecap: butt}</style>
 </defs>
 <g id="figure_1">
  <g id="patch_1">
   <path d="M 0 576 
L 1008 576 
L 1008 0 
L 0 0 
z
" style="fill: #ffffff"/>
  </g>
  <g id="axes_1">
   <g id="patch_2">
    <path d="M 44.49 535.38 
L 997.2 535.38 
L 997.2 10.8 
L 44.49 10.8 
z
" style="fill: #ffffff"/>
   </g>
   <g id="matplotlib.axis_1">
    <g id="xtick_1">
     <g id="line2d_1">
      <path d="M 87.795 535.38 
L 87.795 10.8 
" clip-path="url(#p57400b2ce2)" style="fill: none; stroke: #cccccc; stroke-width: 0.8; stroke-linecap: round"/>
     </g>
     <g id="line2d_2"/>
     <g id="text_1">
      <!-- 0 -->
      <g style="fill: #262626" transform="translate(85.014531 546.126875) scale(0.1 -0.1)">
       <defs>
        <path id="LiberationSans-30" d="M 3309 2203 
Q 3309 1569 3189 1136 
Q 3069 703 2861 436 
Q 2653 169 2372 53 
Q 2091 -63 1772 -63 
Q 1450 -63 1172 53 
Q 894 169 689 434 
Q 484 700 367 1133 
Q 250 1566 250 2203 
Q 250 2869 367 3305 
Q 484 3741 690 4000 
Q 897 4259 1178 4364 
Q 1459 4469 1791 4469 
Q 2106 4469 2382 4364 
Q 2659 4259 2865 4000 
Q 3072 3741 3190 3305 
Q 3309 2869 3309 2203 
z
M 2738 2203 
Q 2738 2728 2675 3076 
Q 2613 3425 2491 3633 
Q 2369 3841 2192 3927 
Q 2016 4013 1791 4013 
Q 1553 4013 1372 3925 
Q 1191 3838 1067 3630 
Q 944 3422 881 3073 
Q 819 2725 819 2203 
Q 819 1697 883 1350 
Q 947 1003 1070 792 
Q 1194 581 1372 489 
Q 1550 397 1778 397 
Q 2000 397 2178 489 
Q 2356 581 2479 792 
Q 2603 1003 2670 1350 
Q 2738 1697 2738 2203 
z
" transform="scale(0.015625)"/>
       </defs>
       <use xlink:href="#LiberationSans-30"/>
      </g>
     </g>
    </g>
    <g id="xtick_2">
     <g id="line2d_3">
      <path d="M 204.050034 535.38 
L 204.050034 10.8 
" clip-path="url(#p57400b2ce2)" style="fill: none; stroke: #cccccc; stroke-width: 0.8; stroke-linecap: round"/>
     </g>
     <g id="line2d_4"/>
     <g id="text_2">
      <!-- 20 -->
      <g style="fill: #262626" transform="translate(198.489096 546.126875) scale(0.1 -0.1)">
       <defs>
        <path id="LiberationSans-32" d="M 322 0 
L 322 397 
Q 481 763 711 1042 
Q 941 1322 1194 1548 
Q 1447 1775 1695 1969 
Q 1944 2163 2144 2356 
Q 2344 2550 2467 2762 
Q 2591 2975 2591 3244 
Q 2591 3431 2534 3573 
Q 2478 3716 2372 3812 
Q 2266 3909 2117 3957 
Q 1969 4006 1788 4006 
Q 1619 4006 1470 3959 
Q 1322 3913 1206 3819 
Q 1091 3725 1017 3586 
Q 944 3447 922 3263 
L 347 3316 
Q 375 3553 478 3762 
Q 581 3972 762 4130 
Q 944 4288 1198 4378 
Q 1453 4469 1788 4469 
Q 2116 4469 2372 4391 
Q 2628 4313 2804 4159 
Q 2981 4006 3075 3781 
Q 3169 3556 3169 3263 
Q 3169 3041 3089 2841 
Q 3009 2641 2876 2459 
Q 2744 2278 2569 2109 
Q 2394 1941 2203 1780 
Q 2013 1619 1819 1461 
Q 1625 1303 1454 1143 
Q 1284 984 1150 820 
Q 1016 656 941 478 
L 3238 478 
L 3238 0 
L 322 0 
z
" transform="scale(0.015625)"/>
       </defs>
       <use xlink:href="#LiberationSans-32"/>
       <use xlink:href="#LiberationSans-30" transform="translate(55.615234 0)"/>
      </g>
     </g>
    </g>
    <g id="xtick_3">
     <g id="line2d_5">
      <path d="M 320.305067 535.38 
L 320.305067 10.8 
" clip-path="url(#p57400b2ce2)" style="fill: none; stroke: #cccccc; stroke-width: 0.8; stroke-linecap: round"/>
     </g>
     <g id="line2d_6"/>
     <g id="text_3">
      <!-- 40 -->
      <g style="fill: #262626" transform="translate(314.74413 546.126875) scale(0.1 -0.1)">
       <defs>
        <path id="LiberationSans-34" d="M 2753 997 
L 2753 0 
L 2222 0 
L 2222 997 
L 147 997 
L 147 1434 
L 2163 4403 
L 2753 4403 
L 2753 1441 
L 3372 1441 
L 3372 997 
L 2753 997 
z
M 2222 3769 
Q 2216 3753 2191 3708 
Q 2166 3663 2134 3606 
Q 2103 3550 2070 3492 
Q 2038 3434 2013 3397 
L 884 1734 
Q 869 1709 839 1668 
Q 809 1628 778 1586 
Q 747 1544 715 1503 
Q 684 1463 666 1441 
L 2222 1441 
L 2222 3769 
z
" transform="scale(0.015625)"/>
       </defs>
       <use xlink:href="#LiberationSans-34"/>
       <use xlink:href="#LiberationSans-30" transform="translate(55.615234 0)"/>
      </g>
     </g>
    </g>
    <g id="xtick_4">
     <g id="line2d_7">
      <path d="M 436.560101 535.38 
L 436.560101 10.8 
" clip-path="url(#p57400b2ce2)" style="fill: none; stroke: #cccccc; stroke-width: 0.8; stroke-linecap: round"/>
     </g>
     <g id="line2d_8"/>
     <g id="text_4">
      <!-- 60 -->
      <g style="fill: #262626" transform="translate(430.999163 546.126875) scale(0.1 -0.1)">
       <defs>
        <path id="LiberationSans-36" d="M 3278 1441 
Q 3278 1109 3186 832 
Q 3094 556 2914 357 
Q 2734 159 2468 48 
Q 2203 -63 1856 -63 
Q 1472 -63 1184 84 
Q 897 231 706 507 
Q 516 784 420 1186 
Q 325 1588 325 2100 
Q 325 2688 433 3131 
Q 541 3575 744 3872 
Q 947 4169 1239 4319 
Q 1531 4469 1900 4469 
Q 2125 4469 2322 4422 
Q 2519 4375 2680 4270 
Q 2841 4166 2962 3994 
Q 3084 3822 3156 3572 
L 2619 3475 
Q 2531 3759 2339 3886 
Q 2147 4013 1894 4013 
Q 1663 4013 1475 3903 
Q 1288 3794 1156 3576 
Q 1025 3359 954 3031 
Q 884 2703 884 2266 
Q 1038 2550 1316 2698 
Q 1594 2847 1953 2847 
Q 2253 2847 2497 2750 
Q 2741 2653 2914 2470 
Q 3088 2288 3183 2027 
Q 3278 1766 3278 1441 
z
M 2706 1416 
Q 2706 1644 2650 1828 
Q 2594 2013 2481 2142 
Q 2369 2272 2203 2342 
Q 2038 2413 1819 2413 
Q 1666 2413 1509 2367 
Q 1353 2322 1226 2220 
Q 1100 2119 1020 1953 
Q 941 1788 941 1550 
Q 941 1306 1003 1095 
Q 1066 884 1183 728 
Q 1300 572 1465 481 
Q 1631 391 1838 391 
Q 2041 391 2202 461 
Q 2363 531 2475 664 
Q 2588 797 2647 987 
Q 2706 1178 2706 1416 
z
" transform="scale(0.015625)"/>
       </defs>
       <use xlink:href="#LiberationSans-36"/>
       <use xlink:href="#LiberationSans-30" transform="translate(55.615234 0)"/>
      </g>
     </g>
    </g>
    <g id="xtick_5">
     <g id="line2d_9">
      <path d="M 552.815134 535.38 
L 552.815134 10.8 
" clip-path="url(#p57400b2ce2)" style="fill: none; stroke: #cccccc; stroke-width: 0.8; stroke-linecap: round"/>
     </g>
     <g id="line2d_10"/>
     <g id="text_5">
      <!-- 80 -->
      <g style="fill: #262626" transform="translate(547.254197 546.126875) scale(0.1 -0.1)">
       <defs>
        <path id="LiberationSans-38" d="M 3281 1228 
Q 3281 947 3192 711 
Q 3103 475 2920 303 
Q 2738 131 2453 34 
Q 2169 -63 1781 -63 
Q 1394 -63 1111 34 
Q 828 131 642 301 
Q 456 472 367 708 
Q 278 944 278 1222 
Q 278 1463 351 1650 
Q 425 1838 548 1973 
Q 672 2109 830 2192 
Q 988 2275 1156 2303 
L 1156 2316 
Q 972 2359 826 2456 
Q 681 2553 582 2689 
Q 484 2825 432 2990 
Q 381 3156 381 3341 
Q 381 3572 470 3776 
Q 559 3981 734 4136 
Q 909 4291 1168 4380 
Q 1428 4469 1769 4469 
Q 2128 4469 2392 4378 
Q 2656 4288 2829 4133 
Q 3003 3978 3087 3772 
Q 3172 3566 3172 3334 
Q 3172 3153 3120 2987 
Q 3069 2822 2970 2686 
Q 2872 2550 2726 2454 
Q 2581 2359 2391 2322 
L 2391 2309 
Q 2581 2278 2743 2195 
Q 2906 2113 3025 1977 
Q 3144 1841 3212 1653 
Q 3281 1466 3281 1228 
z
M 2588 3303 
Q 2588 3469 2545 3606 
Q 2503 3744 2406 3842 
Q 2309 3941 2153 3995 
Q 1997 4050 1769 4050 
Q 1547 4050 1394 3995 
Q 1241 3941 1142 3842 
Q 1044 3744 1000 3606 
Q 956 3469 956 3303 
Q 956 3172 990 3034 
Q 1025 2897 1115 2784 
Q 1206 2672 1365 2600 
Q 1525 2528 1775 2528 
Q 2041 2528 2202 2600 
Q 2363 2672 2448 2784 
Q 2534 2897 2561 3034 
Q 2588 3172 2588 3303 
z
M 2697 1281 
Q 2697 1441 2653 1589 
Q 2609 1738 2503 1852 
Q 2397 1966 2217 2036 
Q 2038 2106 1769 2106 
Q 1522 2106 1348 2036 
Q 1175 1966 1067 1850 
Q 959 1734 909 1582 
Q 859 1431 859 1269 
Q 859 1066 909 898 
Q 959 731 1068 611 
Q 1178 491 1356 425 
Q 1534 359 1788 359 
Q 2044 359 2219 425 
Q 2394 491 2500 611 
Q 2606 731 2651 901 
Q 2697 1072 2697 1281 
z
" transform="scale(0.015625)"/>
       </defs>
       <use xlink:href="#LiberationSans-38"/>
       <use xlink:href="#LiberationSans-30" transform="translate(55.615234 0)"/>
      </g>
     </g>
    </g>
    <g id="xtick_6">
     <g id="line2d_11">
      <path d="M 669.070168 535.38 
L 669.070168 10.8 
" clip-path="url(#p57400b2ce2)" style="fill: none; stroke: #cccccc; stroke-width: 0.8; stroke-linecap: round"/>
     </g>
     <g id="line2d_12"/>
     <g id="text_6">
      <!-- 100 -->
      <g style="fill: #262626" transform="translate(660.728762 546.126875) scale(0.1 -0.1)">
       <defs>
        <path id="LiberationSans-31" d="M 488 0 
L 488 478 
L 1609 478 
L 1609 3866 
L 616 3156 
L 616 3688 
L 1656 4403 
L 2175 4403 
L 2175 478 
L 3247 478 
L 3247 0 
L 488 0 
z
" transform="scale(0.015625)"/>
       </defs>
       <use xlink:href="#LiberationSans-31"/>
       <use xlink:href="#LiberationSans-30" transform="translate(55.615234 0)"/>
       <use xlink:href="#LiberationSans-30" transform="translate(111.230469 0)"/>
      </g>
     </g>
    </g>
    <g id="xtick_7">
     <g id="line2d_13">
      <path d="M 785.325201 535.38 
L 785.325201 10.8 
" clip-path="url(#p57400b2ce2)" style="fill: none; stroke: #cccccc; stroke-width: 0.8; stroke-linecap: round"/>
     </g>
     <g id="line2d_14"/>
     <g id="text_7">
      <!-- 120 -->
      <g style="fill: #262626" transform="translate(776.983795 546.126875) scale(0.1 -0.1)">
       <use xlink:href="#LiberationSans-31"/>
       <use xlink:href="#LiberationSans-32" transform="translate(55.615234 0)"/>
       <use xlink:href="#LiberationSans-30" transform="translate(111.230469 0)"/>
      </g>
     </g>
    </g>
    <g id="xtick_8">
     <g id="line2d_15">
      <path d="M 901.580235 535.38 
L 901.580235 10.8 
" clip-path="url(#p57400b2ce2)" style="fill: none; stroke: #cccccc; stroke-width: 0.8; stroke-linecap: round"/>
     </g>
     <g id="line2d_16"/>
     <g id="text_8">
      <!-- 140 -->
      <g style="fill: #262626" transform="translate(893.238829 546.126875) scale(0.1 -0.1)">
       <use xlink:href="#LiberationSans-31"/>
       <use xlink:href="#LiberationSans-34" transform="translate(55.615234 0)"/>
       <use xlink:href="#LiberationSans-30" transform="translate(111.230469 0)"/>
      </g>
     </g>
    </g>
    <g id="text_9">
     <!-- Day -->
     <g style="fill: #262626" transform="translate(508.397031 562.3475) scale(0.14 -0.14)">
      <defs>
       <path id="LiberationSans-44" d="M 4316 2247 
Q 4316 1697 4150 1276 
Q 3984 856 3696 573 
Q 3409 291 3017 145 
Q 2625 0 2172 0 
L 525 0 
L 525 4403 
L 1981 4403 
Q 2491 4403 2920 4276 
Q 3350 4150 3659 3886 
Q 3969 3622 4142 3215 
Q 4316 2809 4316 2247 
z
M 3716 2247 
Q 3716 2694 3587 3011 
Q 3459 3328 3228 3531 
Q 2997 3734 2675 3829 
Q 2353 3925 1969 3925 
L 1122 3925 
L 1122 478 
L 2103 478 
Q 2450 478 2745 590 
Q 3041 703 3256 925 
Q 3472 1147 3594 1478 
Q 3716 1809 3716 2247 
z
" transform="scale(0.015625)"/>
       <path id="LiberationSans-61" d="M 1294 -63 
Q 784 -63 528 206 
Q 272 475 272 944 
Q 272 1278 398 1492 
Q 525 1706 729 1828 
Q 934 1950 1196 1997 
Q 1459 2044 1731 2050 
L 2491 2063 
L 2491 2247 
Q 2491 2456 2447 2603 
Q 2403 2750 2312 2840 
Q 2222 2931 2086 2973 
Q 1950 3016 1766 3016 
Q 1603 3016 1472 2992 
Q 1341 2969 1244 2908 
Q 1147 2847 1087 2742 
Q 1028 2638 1009 2478 
L 422 2531 
Q 453 2731 540 2898 
Q 628 3066 789 3187 
Q 950 3309 1192 3376 
Q 1434 3444 1778 3444 
Q 2416 3444 2737 3151 
Q 3059 2859 3059 2306 
L 3059 850 
Q 3059 600 3125 473 
Q 3191 347 3375 347 
Q 3422 347 3469 353 
Q 3516 359 3559 369 
L 3559 19 
Q 3453 -6 3348 -18 
Q 3244 -31 3125 -31 
Q 2966 -31 2852 11 
Q 2738 53 2666 139 
Q 2594 225 2556 351 
Q 2519 478 2509 647 
L 2491 647 
Q 2400 484 2292 353 
Q 2184 222 2040 130 
Q 1897 38 1714 -12 
Q 1531 -63 1294 -63 
z
M 1422 359 
Q 1691 359 1892 457 
Q 2094 556 2226 709 
Q 2359 863 2425 1044 
Q 2491 1225 2491 1391 
L 2491 1669 
L 1875 1656 
Q 1669 1653 1483 1626 
Q 1297 1600 1156 1522 
Q 1016 1444 933 1303 
Q 850 1163 850 934 
Q 850 659 998 509 
Q 1147 359 1422 359 
z
" transform="scale(0.015625)"/>
       <path id="LiberationSans-79" d="M 1888 0 
Q 1769 -306 1645 -551 
Q 1522 -797 1369 -970 
Q 1216 -1144 1028 -1236 
Q 841 -1328 597 -1328 
Q 491 -1328 400 -1322 
Q 309 -1316 209 -1294 
L 209 -872 
Q 269 -881 344 -886 
Q 419 -891 472 -891 
Q 719 -891 931 -706 
Q 1144 -522 1303 -119 
L 1356 16 
L 16 3381 
L 616 3381 
L 1328 1513 
Q 1359 1428 1407 1287 
Q 1456 1147 1504 1006 
Q 1553 866 1590 753 
Q 1628 641 1634 613 
Q 1644 647 1680 748 
Q 1716 850 1761 975 
Q 1806 1100 1853 1228 
Q 1900 1356 1931 1450 
L 2594 3381 
L 3188 3381 
L 1888 0 
z
" transform="scale(0.015625)"/>
      </defs>
      <use xlink:href="#LiberationSans-44"/>
      <use xlink:href="#LiberationSans-61" transform="translate(72.216797 0)"/>
      <use xlink:href="#LiberationSans-79" transform="translate(127.832031 0)"/>
     </g>
    </g>
   </g>
   <g id="matplotlib.axis_2">
    <g id="ytick_1">
     <g id="line2d_17">
      <path d="M 44.49 511.535455 
L 997.2 511.535455 
" clip-path="url(#p57400b2ce2)" style="fill: none; stroke: #cccccc; stroke-width: 0.8; stroke-linecap: round"/>
     </g>
     <g id="line2d_18"/>
     <g id="text_10">
      <!-- 0.0 -->
      <g style="fill: #262626" transform="translate(27.09 515.158892) scale(0.1 -0.1)">
       <defs>
        <path id="LiberationSans-2e" d="M 584 0 
L 584 684 
L 1194 684 
L 1194 0 
L 584 0 
z
" transform="scale(0.015625)"/>
       </defs>
       <use xlink:href="#LiberationSans-30"/>
       <use xlink:href="#LiberationSans-2e" transform="translate(55.615234 0)"/>
       <use xlink:href="#LiberationSans-30" transform="translate(83.398438 0)"/>
      </g>
     </g>
    </g>
    <g id="ytick_2">
     <g id="line2d_19">
      <path d="M 44.49 438.599776 
L 997.2 438.599776 
" clip-path="url(#p57400b2ce2)" style="fill: none; stroke: #cccccc; stroke-width: 0.8; stroke-linecap: round"/>
     </g>
     <g id="line2d_20"/>
     <g id="text_11">
      <!-- 0.1 -->
      <g style="fill: #262626" transform="translate(27.09 442.223213) scale(0.1 -0.1)">
       <use xlink:href="#LiberationSans-30"/>
       <use xlink:href="#LiberationSans-2e" transform="translate(55.615234 0)"/>
       <use xlink:href="#LiberationSans-31" transform="translate(83.398438 0)"/>
      </g>
     </g>
    </g>
    <g id="ytick_3">
     <g id="line2d_21">
      <path d="M 44.49 365.664097 
L 997.2 365.664097 
" clip-path="url(#p57400b2ce2)" style="fill: none; stroke: #cccccc; stroke-width: 0.8; stroke-linecap: round"/>
     </g>
     <g id="line2d_22"/>
     <g id="text_12">
      <!-- 0.2 -->
      <g style="fill: #262626" transform="translate(27.09 369.287535) scale(0.1 -0.1)">
       <use xlink:href="#LiberationSans-30"/>
       <use xlink:href="#LiberationSans-2e" transform="translate(55.615234 0)"/>
       <use xlink:href="#LiberationSans-32" transform="translate(83.398438 0)"/>
      </g>
     </g>
    </g>
    <g id="ytick_4">
     <g id="line2d_23">
      <path d="M 44.49 292.728418 
L 997.2 292.728418 
" clip-path="url(#p57400b2ce2)" style="fill: none; stroke: #cccccc; stroke-width: 0.8; stroke-linecap: round"/>
     </g>
     <g id="line2d_24"/>
     <g id="text_13">
      <!-- 0.3 -->
      <g style="fill: #262626" transform="translate(27.09 296.351856) scale(0.1 -0.1)">
       <defs>
        <path id="LiberationSans-33" d="M 3278 1216 
Q 3278 913 3179 675 
Q 3081 438 2892 273 
Q 2703 109 2423 23 
Q 2144 -63 1784 -63 
Q 1375 -63 1095 39 
Q 816 141 634 308 
Q 453 475 362 689 
Q 272 903 244 1131 
L 825 1184 
Q 850 1009 917 865 
Q 984 722 1100 619 
Q 1216 516 1384 459 
Q 1553 403 1784 403 
Q 2209 403 2451 612 
Q 2694 822 2694 1234 
Q 2694 1478 2586 1626 
Q 2478 1775 2317 1858 
Q 2156 1941 1967 1969 
Q 1778 1997 1619 1997 
L 1300 1997 
L 1300 2484 
L 1606 2484 
Q 1766 2484 1937 2517 
Q 2109 2550 2251 2636 
Q 2394 2722 2486 2869 
Q 2578 3016 2578 3244 
Q 2578 3597 2370 3801 
Q 2163 4006 1753 4006 
Q 1381 4006 1151 3815 
Q 922 3625 884 3278 
L 319 3322 
Q 353 3613 478 3828 
Q 603 4044 795 4186 
Q 988 4328 1234 4398 
Q 1481 4469 1759 4469 
Q 2128 4469 2393 4376 
Q 2659 4284 2828 4126 
Q 2997 3969 3076 3756 
Q 3156 3544 3156 3303 
Q 3156 3109 3103 2940 
Q 3050 2772 2937 2637 
Q 2825 2503 2651 2406 
Q 2478 2309 2234 2259 
L 2234 2247 
Q 2500 2219 2697 2126 
Q 2894 2034 3022 1896 
Q 3150 1759 3214 1584 
Q 3278 1409 3278 1216 
z
" transform="scale(0.015625)"/>
       </defs>
       <use xlink:href="#LiberationSans-30"/>
       <use xlink:href="#LiberationSans-2e" transform="translate(55.615234 0)"/>
       <use xlink:href="#LiberationSans-33" transform="translate(83.398438 0)"/>
      </g>
     </g>
    </g>
    <g id="ytick_5">
     <g id="line2d_25">
      <path d="M 44.49 219.79274 
L 997.2 219.79274 
" clip-path="url(#p57400b2ce2)" style="fill: none; stroke: #cccccc; stroke-width: 0.8; stroke-linecap: round"/>
     </g>
     <g id="line2d_26"/>
     <g id="text_14">
      <!-- 0.4 -->
      <g style="fill: #262626" transform="translate(27.09 223.416177) scale(0.1 -0.1)">
       <use xlink:href="#LiberationSans-30"/>
       <use xlink:href="#LiberationSans-2e" transform="translate(55.615234 0)"/>
       <use xlink:href="#LiberationSans-34" transform="translate(83.398438 0)"/>
      </g>
     </g>
    </g>
    <g id="ytick_6">
     <g id="line2d_27">
      <path d="M 44.49 146.857061 
L 997.2 146.857061 
" clip-path="url(#p57400b2ce2)" style="fill: none; stroke: #cccccc; stroke-width: 0.8; stroke-linecap: round"/>
     </g>
     <g id="line2d_28"/>
     <g id="text_15">
      <!-- 0.5 -->
      <g style="fill: #262626" transform="translate(27.09 150.480499) scale(0.1 -0.1)">
       <defs>
        <path id="LiberationSans-35" d="M 3291 1434 
Q 3291 1103 3191 828 
Q 3091 553 2894 354 
Q 2697 156 2405 46 
Q 2113 -63 1728 -63 
Q 1381 -63 1123 18 
Q 866 100 687 242 
Q 509 384 404 575 
Q 300 766 256 984 
L 825 1050 
Q 859 925 921 808 
Q 984 691 1092 598 
Q 1200 506 1358 451 
Q 1516 397 1741 397 
Q 1959 397 2137 464 
Q 2316 531 2442 662 
Q 2569 794 2637 984 
Q 2706 1175 2706 1422 
Q 2706 1625 2640 1795 
Q 2575 1966 2453 2089 
Q 2331 2213 2154 2281 
Q 1978 2350 1753 2350 
Q 1613 2350 1494 2325 
Q 1375 2300 1273 2256 
Q 1172 2213 1089 2155 
Q 1006 2097 934 2034 
L 384 2034 
L 531 4403 
L 3034 4403 
L 3034 3925 
L 1044 3925 
L 959 2528 
Q 1109 2644 1334 2726 
Q 1559 2809 1869 2809 
Q 2197 2809 2459 2709 
Q 2722 2609 2906 2426 
Q 3091 2244 3191 1991 
Q 3291 1738 3291 1434 
z
" transform="scale(0.015625)"/>
       </defs>
       <use xlink:href="#LiberationSans-30"/>
       <use xlink:href="#LiberationSans-2e" transform="translate(55.615234 0)"/>
       <use xlink:href="#LiberationSans-35" transform="translate(83.398438 0)"/>
      </g>
     </g>
    </g>
    <g id="ytick_7">
     <g id="line2d_29">
      <path d="M 44.49 73.921382 
L 997.2 73.921382 
" clip-path="url(#p57400b2ce2)" style="fill: none; stroke: #cccccc; stroke-width: 0.8; stroke-linecap: round"/>
     </g>
     <g id="line2d_30"/>
     <g id="text_16">
      <!-- 0.6 -->
      <g style="fill: #262626" transform="translate(27.09 77.54482) scale(0.1 -0.1)">
       <use xlink:href="#LiberationSans-30"/>
       <use xlink:href="#LiberationSans-2e" transform="translate(55.615234 0)"/>
       <use xlink:href="#LiberationSans-36" transform="translate(83.398438 0)"/>
      </g>
     </g>
    </g>
    <g id="text_17">
     <!-- Avg. Quarantine Efficiency (Q / (I+E+A+Q)) -->
     <g style="fill: #262626" transform="translate(20.185 406.866563) rotate(-90) scale(0.14 -0.14)">
      <defs>
       <path id="LiberationSans-41" d="M 3647 0 
L 3144 1288 
L 1138 1288 
L 631 0 
L 13 0 
L 1809 4403 
L 2488 4403 
L 4256 0 
L 3647 0 
z
M 2400 3206 
Q 2350 3331 2304 3459 
Q 2259 3588 2225 3692 
Q 2191 3797 2167 3867 
Q 2144 3938 2141 3953 
Q 2134 3938 2112 3866 
Q 2091 3794 2055 3687 
Q 2019 3581 1973 3453 
Q 1928 3325 1881 3200 
L 1319 1753 
L 2966 1753 
L 2400 3206 
z
" transform="scale(0.015625)"/>
       <path id="LiberationSans-76" d="M 1916 0 
L 1250 0 
L 22 3381 
L 622 3381 
L 1366 1181 
Q 1388 1113 1417 1014 
Q 1447 916 1478 809 
Q 1509 703 1536 604 
Q 1563 506 1581 441 
Q 1600 506 1629 604 
Q 1659 703 1690 806 
Q 1722 909 1755 1007 
Q 1788 1106 1813 1175 
L 2581 3381 
L 3178 3381 
L 1916 0 
z
" transform="scale(0.015625)"/>
       <path id="LiberationSans-67" d="M 1713 -1328 
Q 1422 -1328 1197 -1268 
Q 972 -1209 812 -1098 
Q 653 -988 553 -834 
Q 453 -681 409 -494 
L 975 -413 
Q 1031 -647 1223 -773 
Q 1416 -900 1728 -900 
Q 1919 -900 2075 -847 
Q 2231 -794 2340 -676 
Q 2450 -559 2509 -371 
Q 2569 -184 2569 84 
L 2569 628 
L 2563 628 
Q 2500 500 2408 383 
Q 2316 266 2183 175 
Q 2050 84 1875 29 
Q 1700 -25 1475 -25 
Q 1153 -25 923 83 
Q 694 191 548 406 
Q 403 622 336 942 
Q 269 1263 269 1684 
Q 269 2091 336 2416 
Q 403 2741 554 2967 
Q 706 3194 948 3314 
Q 1191 3434 1538 3434 
Q 1897 3434 2161 3270 
Q 2425 3106 2569 2803 
L 2575 2803 
Q 2575 2881 2579 2978 
Q 2584 3075 2589 3161 
Q 2594 3247 2600 3309 
Q 2606 3372 2613 3381 
L 3147 3381 
Q 3144 3353 3141 3286 
Q 3138 3219 3134 3125 
Q 3131 3031 3129 2917 
Q 3128 2803 3128 2681 
L 3128 97 
Q 3128 -613 2779 -970 
Q 2431 -1328 1713 -1328 
z
M 2569 1691 
Q 2569 2044 2492 2295 
Q 2416 2547 2291 2706 
Q 2166 2866 2005 2941 
Q 1844 3016 1675 3016 
Q 1459 3016 1304 2941 
Q 1150 2866 1048 2705 
Q 947 2544 898 2292 
Q 850 2041 850 1691 
Q 850 1325 898 1076 
Q 947 828 1047 675 
Q 1147 522 1300 456 
Q 1453 391 1666 391 
Q 1834 391 1995 462 
Q 2156 534 2284 690 
Q 2413 847 2491 1094 
Q 2569 1341 2569 1691 
z
" transform="scale(0.015625)"/>
       <path id="LiberationSans-20" transform="scale(0.015625)"/>
       <path id="LiberationSans-51" d="M 4672 2222 
Q 4672 1756 4551 1370 
Q 4431 984 4204 693 
Q 3978 403 3648 220 
Q 3319 38 2900 -19 
Q 2966 -219 3048 -359 
Q 3131 -500 3237 -589 
Q 3344 -678 3473 -720 
Q 3603 -763 3763 -763 
Q 3850 -763 3950 -750 
Q 4050 -738 4122 -722 
L 4122 -1141 
Q 4003 -1169 3861 -1189 
Q 3719 -1209 3566 -1209 
Q 3297 -1209 3097 -1129 
Q 2897 -1050 2745 -901 
Q 2594 -753 2484 -537 
Q 2375 -322 2291 -50 
Q 1797 -25 1423 154 
Q 1050 334 801 636 
Q 553 938 428 1342 
Q 303 1747 303 2222 
Q 303 2738 447 3153 
Q 591 3569 869 3861 
Q 1147 4153 1555 4311 
Q 1963 4469 2491 4469 
Q 3016 4469 3423 4309 
Q 3831 4150 4107 3856 
Q 4384 3563 4528 3147 
Q 4672 2731 4672 2222 
z
M 4063 2222 
Q 4063 2619 3961 2944 
Q 3859 3269 3661 3500 
Q 3463 3731 3169 3856 
Q 2875 3981 2491 3981 
Q 2097 3981 1800 3856 
Q 1503 3731 1304 3500 
Q 1106 3269 1007 2944 
Q 909 2619 909 2222 
Q 909 1825 1011 1495 
Q 1113 1166 1311 927 
Q 1509 688 1804 555 
Q 2100 422 2484 422 
Q 2897 422 3195 556 
Q 3494 691 3686 930 
Q 3878 1169 3970 1500 
Q 4063 1831 4063 2222 
z
" transform="scale(0.015625)"/>
       <path id="LiberationSans-75" d="M 981 3381 
L 981 1238 
Q 981 991 1017 825 
Q 1053 659 1134 557 
Q 1216 456 1348 414 
Q 1481 372 1678 372 
Q 1878 372 2039 442 
Q 2200 513 2314 645 
Q 2428 778 2490 973 
Q 2553 1169 2553 1422 
L 2553 3381 
L 3116 3381 
L 3116 722 
Q 3116 616 3117 498 
Q 3119 381 3122 276 
Q 3125 172 3128 97 
Q 3131 22 3134 0 
L 2603 0 
Q 2600 16 2597 84 
Q 2594 153 2589 242 
Q 2584 331 2581 423 
Q 2578 516 2578 578 
L 2569 578 
Q 2488 431 2391 312 
Q 2294 194 2166 111 
Q 2038 28 1872 -17 
Q 1706 -63 1488 -63 
Q 1206 -63 1003 6 
Q 800 75 669 219 
Q 538 363 477 588 
Q 416 813 416 1128 
L 416 3381 
L 981 3381 
z
" transform="scale(0.015625)"/>
       <path id="LiberationSans-72" d="M 444 0 
L 444 2594 
Q 444 2700 442 2811 
Q 441 2922 437 3025 
Q 434 3128 431 3218 
Q 428 3309 425 3381 
L 956 3381 
Q 959 3309 964 3217 
Q 969 3125 973 3028 
Q 978 2931 979 2842 
Q 981 2753 981 2691 
L 994 2691 
Q 1053 2884 1120 3026 
Q 1188 3169 1278 3261 
Q 1369 3353 1494 3398 
Q 1619 3444 1797 3444 
Q 1866 3444 1928 3433 
Q 1991 3422 2025 3413 
L 2025 2897 
Q 1969 2913 1894 2920 
Q 1819 2928 1725 2928 
Q 1531 2928 1395 2840 
Q 1259 2753 1173 2598 
Q 1088 2444 1047 2230 
Q 1006 2016 1006 1763 
L 1006 0 
L 444 0 
z
" transform="scale(0.015625)"/>
       <path id="LiberationSans-6e" d="M 2578 0 
L 2578 2144 
Q 2578 2391 2542 2556 
Q 2506 2722 2425 2823 
Q 2344 2925 2211 2967 
Q 2078 3009 1881 3009 
Q 1681 3009 1520 2939 
Q 1359 2869 1245 2736 
Q 1131 2603 1068 2408 
Q 1006 2213 1006 1959 
L 1006 0 
L 444 0 
L 444 2659 
Q 444 2766 442 2883 
Q 441 3000 437 3104 
Q 434 3209 431 3284 
Q 428 3359 425 3381 
L 956 3381 
Q 959 3366 962 3297 
Q 966 3228 970 3139 
Q 975 3050 978 2958 
Q 981 2866 981 2803 
L 991 2803 
Q 1072 2950 1169 3069 
Q 1266 3188 1394 3270 
Q 1522 3353 1687 3398 
Q 1853 3444 2072 3444 
Q 2353 3444 2556 3375 
Q 2759 3306 2890 3162 
Q 3022 3019 3083 2792 
Q 3144 2566 3144 2253 
L 3144 0 
L 2578 0 
z
" transform="scale(0.015625)"/>
       <path id="LiberationSans-74" d="M 1731 25 
Q 1603 -9 1470 -29 
Q 1338 -50 1163 -50 
Q 488 -50 488 716 
L 488 2972 
L 97 2972 
L 97 3381 
L 509 3381 
L 675 4138 
L 1050 4138 
L 1050 3381 
L 1675 3381 
L 1675 2972 
L 1050 2972 
L 1050 838 
Q 1050 594 1129 495 
Q 1209 397 1406 397 
Q 1488 397 1564 409 
Q 1641 422 1731 441 
L 1731 25 
z
" transform="scale(0.015625)"/>
       <path id="LiberationSans-69" d="M 428 4100 
L 428 4638 
L 991 4638 
L 991 4100 
L 428 4100 
z
M 428 0 
L 428 3381 
L 991 3381 
L 991 0 
L 428 0 
z
" transform="scale(0.015625)"/>
       <path id="LiberationSans-65" d="M 863 1572 
Q 863 1306 917 1082 
Q 972 859 1086 698 
Q 1200 538 1378 448 
Q 1556 359 1806 359 
Q 2172 359 2392 506 
Q 2613 653 2691 878 
L 3184 738 
Q 3131 597 3036 455 
Q 2941 313 2781 198 
Q 2622 84 2383 10 
Q 2144 -63 1806 -63 
Q 1056 -63 664 384 
Q 272 831 272 1713 
Q 272 2188 390 2517 
Q 509 2847 715 3053 
Q 922 3259 1197 3351 
Q 1472 3444 1784 3444 
Q 2209 3444 2495 3306 
Q 2781 3169 2954 2926 
Q 3128 2684 3201 2356 
Q 3275 2028 3275 1647 
L 3275 1572 
L 863 1572 
z
M 2694 2003 
Q 2647 2538 2422 2783 
Q 2197 3028 1775 3028 
Q 1634 3028 1479 2983 
Q 1325 2938 1194 2822 
Q 1063 2706 972 2507 
Q 881 2309 869 2003 
L 2694 2003 
z
" transform="scale(0.015625)"/>
       <path id="LiberationSans-45" d="M 525 0 
L 525 4403 
L 3866 4403 
L 3866 3916 
L 1122 3916 
L 1122 2503 
L 3678 2503 
L 3678 2022 
L 1122 2022 
L 1122 488 
L 3994 488 
L 3994 0 
L 525 0 
z
" transform="scale(0.015625)"/>
       <path id="LiberationSans-66" d="M 1128 2972 
L 1128 0 
L 566 0 
L 566 2972 
L 91 2972 
L 91 3381 
L 566 3381 
L 566 3763 
Q 566 3947 600 4105 
Q 634 4263 726 4380 
Q 819 4497 978 4564 
Q 1138 4631 1391 4631 
Q 1491 4631 1598 4622 
Q 1706 4613 1788 4594 
L 1788 4166 
Q 1734 4175 1664 4183 
Q 1594 4191 1538 4191 
Q 1413 4191 1333 4156 
Q 1253 4122 1208 4058 
Q 1163 3994 1145 3900 
Q 1128 3806 1128 3684 
L 1128 3381 
L 1788 3381 
L 1788 2972 
L 1128 2972 
z
" transform="scale(0.015625)"/>
       <path id="LiberationSans-63" d="M 859 1706 
Q 859 1416 901 1172 
Q 944 928 1044 751 
Q 1144 575 1308 478 
Q 1472 381 1713 381 
Q 2013 381 2214 543 
Q 2416 706 2463 1044 
L 3031 1006 
Q 3003 797 2909 603 
Q 2816 409 2655 262 
Q 2494 116 2262 26 
Q 2031 -63 1728 -63 
Q 1331 -63 1053 71 
Q 775 206 601 442 
Q 428 678 350 998 
Q 272 1319 272 1694 
Q 272 2034 328 2295 
Q 384 2556 486 2751 
Q 588 2947 725 3080 
Q 863 3213 1023 3292 
Q 1184 3372 1362 3408 
Q 1541 3444 1722 3444 
Q 2006 3444 2228 3366 
Q 2450 3288 2611 3152 
Q 2772 3016 2872 2831 
Q 2972 2647 3013 2434 
L 2434 2391 
Q 2391 2672 2212 2837 
Q 2034 3003 1706 3003 
Q 1466 3003 1305 2923 
Q 1144 2844 1044 2683 
Q 944 2522 901 2278 
Q 859 2034 859 1706 
z
" transform="scale(0.015625)"/>
       <path id="LiberationSans-28" d="M 397 1663 
Q 397 2097 462 2494 
Q 528 2891 668 3256 
Q 809 3622 1028 3965 
Q 1247 4309 1550 4638 
L 2094 4638 
Q 1800 4309 1586 3964 
Q 1372 3619 1234 3251 
Q 1097 2884 1030 2487 
Q 963 2091 963 1656 
Q 963 1222 1030 825 
Q 1097 428 1234 59 
Q 1372 -309 1586 -653 
Q 1800 -997 2094 -1325 
L 1550 -1325 
Q 1247 -997 1028 -653 
Q 809 -309 668 56 
Q 528 422 462 817 
Q 397 1213 397 1650 
L 397 1663 
z
" transform="scale(0.015625)"/>
       <path id="LiberationSans-2f" d="M 0 -63 
L 1284 4638 
L 1778 4638 
L 506 -63 
L 0 -63 
z
" transform="scale(0.015625)"/>
       <path id="LiberationSans-49" d="M 591 0 
L 591 4403 
L 1188 4403 
L 1188 0 
L 591 0 
z
" transform="scale(0.015625)"/>
       <path id="LiberationSans-2b" d="M 2097 1900 
L 2097 563 
L 1638 563 
L 1638 1900 
L 313 1900 
L 313 2356 
L 1638 2356 
L 1638 3694 
L 2097 3694 
L 2097 2356 
L 3422 2356 
L 3422 1900 
L 2097 1900 
z
" transform="scale(0.015625)"/>
       <path id="LiberationSans-29" d="M 1734 1650 
Q 1734 1213 1668 817 
Q 1603 422 1462 56 
Q 1322 -309 1103 -653 
Q 884 -997 581 -1325 
L 38 -1325 
Q 331 -997 545 -653 
Q 759 -309 896 59 
Q 1034 428 1101 825 
Q 1169 1222 1169 1656 
Q 1169 2091 1101 2487 
Q 1034 2884 896 3251 
Q 759 3619 545 3964 
Q 331 4309 38 4638 
L 581 4638 
Q 884 4309 1103 3965 
Q 1322 3622 1462 3256 
Q 1603 2891 1668 2494 
Q 1734 2097 1734 1663 
L 1734 1650 
z
" transform="scale(0.015625)"/>
      </defs>
      <use xlink:href="#LiberationSans-41"/>
      <use xlink:href="#LiberationSans-76" transform="translate(64.949219 0)"/>
      <use xlink:href="#LiberationSans-67" transform="translate(114.949219 0)"/>
      <use xlink:href="#LiberationSans-2e" transform="translate(170.564453 0)"/>
      <use xlink:href="#LiberationSans-20" transform="translate(198.347656 0)"/>
      <use xlink:href="#LiberationSans-51" transform="translate(226.130859 0)"/>
      <use xlink:href="#LiberationSans-75" transform="translate(303.914062 0)"/>
      <use xlink:href="#LiberationSans-61" transform="translate(359.529297 0)"/>
      <use xlink:href="#LiberationSans-72" transform="translate(415.144531 0)"/>
      <use xlink:href="#LiberationSans-61" transform="translate(448.445312 0)"/>
      <use xlink:href="#LiberationSans-6e" transform="translate(504.060547 0)"/>
      <use xlink:href="#LiberationSans-74" transform="translate(559.675781 0)"/>
      <use xlink:href="#LiberationSans-69" transform="translate(587.458984 0)"/>
      <use xlink:href="#LiberationSans-6e" transform="translate(609.675781 0)"/>
      <use xlink:href="#LiberationSans-65" transform="translate(665.291016 0)"/>
      <use xlink:href="#LiberationSans-20" transform="translate(720.90625 0)"/>
      <use xlink:href="#LiberationSans-45" transform="translate(748.689453 0)"/>
      <use xlink:href="#LiberationSans-66" transform="translate(815.388672 0)"/>
      <use xlink:href="#LiberationSans-66" transform="translate(841.421875 0)"/>
      <use xlink:href="#LiberationSans-69" transform="translate(869.205078 0)"/>
      <use xlink:href="#LiberationSans-63" transform="translate(891.421875 0)"/>
      <use xlink:href="#LiberationSans-69" transform="translate(941.421875 0)"/>
      <use xlink:href="#LiberationSans-65" transform="translate(963.638672 0)"/>
      <use xlink:href="#LiberationSans-6e" transform="translate(1019.253906 0)"/>
      <use xlink:href="#LiberationSans-63" transform="translate(1074.869141 0)"/>
      <use xlink:href="#LiberationSans-79" transform="translate(1124.869141 0)"/>
      <use xlink:href="#LiberationSans-20" transform="translate(1174.869141 0)"/>
      <use xlink:href="#LiberationSans-28" transform="translate(1202.652344 0)"/>
      <use xlink:href="#LiberationSans-51" transform="translate(1235.953125 0)"/>
      <use xlink:href="#LiberationSans-20" transform="translate(1313.736328 0)"/>
      <use xlink:href="#LiberationSans-2f" transform="translate(1341.519531 0)"/>
      <use xlink:href="#LiberationSans-20" transform="translate(1369.302734 0)"/>
      <use xlink:href="#LiberationSans-28" transform="translate(1397.085938 0)"/>
      <use xlink:href="#LiberationSans-49" transform="translate(1430.386719 0)"/>
      <use xlink:href="#LiberationSans-2b" transform="translate(1458.169922 0)"/>
      <use xlink:href="#LiberationSans-45" transform="translate(1516.568359 0)"/>
      <use xlink:href="#LiberationSans-2b" transform="translate(1583.267578 0)"/>
      <use xlink:href="#LiberationSans-41" transform="translate(1641.666016 0)"/>
      <use xlink:href="#LiberationSans-2b" transform="translate(1708.365234 0)"/>
      <use xlink:href="#LiberationSans-51" transform="translate(1766.763672 0)"/>
      <use xlink:href="#LiberationSans-29" transform="translate(1844.546875 0)"/>
      <use xlink:href="#LiberationSans-29" transform="translate(1877.847656 0)"/>
     </g>
    </g>
   </g>
   <g id="line2d_31">
    <path d="M 87.795 511.535455 
L 198.237282 511.535455 
L 204.050034 495.135363 
L 215.675537 454.183172 
L 221.488289 435.087982 
L 227.30104 417.450352 
L 233.113792 401.898853 
L 238.926544 387.270531 
L 244.739295 374.015916 
L 250.552047 360.283135 
L 256.364799 347.100974 
L 262.17755 335.702127 
L 273.803054 311.536741 
L 279.615805 301.448172 
L 285.428557 290.066209 
L 291.241309 276.778389 
L 297.05406 264.307364 
L 302.866812 254.50053 
L 308.679564 245.898003 
L 314.492315 235.044452 
L 320.305067 201.261947 
L 326.117819 177.542027 
L 331.93057 156.981134 
L 337.743322 140.118266 
L 343.556074 119.352492 
L 355.181577 83.756765 
L 360.994329 74.615672 
L 372.619832 64.365534 
L 378.432584 63.517227 
L 384.245336 60.36256 
L 390.058087 59.022275 
L 395.870839 57.077591 
L 401.683591 54.678686 
L 407.496342 53.770821 
L 413.309094 54.065324 
L 419.121846 53.029772 
L 424.934597 53.242404 
L 430.747349 52.3732 
L 436.560101 51.147847 
L 448.185604 50.648197 
L 453.998356 47.404414 
L 459.811107 49.708975 
L 465.623859 55.297245 
L 471.436611 54.087863 
L 483.062114 62.156234 
L 494.687617 67.817284 
L 500.500369 65.086961 
L 506.313121 64.839015 
L 512.125872 61.329337 
L 517.938624 63.93455 
L 523.751376 62.354653 
L 529.564128 70.494075 
L 535.376879 69.648332 
L 541.189631 60.465746 
L 547.002383 64.396921 
L 552.815134 62.216548 
L 558.627886 65.917009 
L 564.440638 64.072057 
L 570.253389 69.063363 
L 576.066141 65.097808 
L 581.878893 69.131887 
L 587.691644 69.631164 
L 593.504396 73.780935 
L 599.317148 67.869272 
L 605.129899 68.233318 
L 610.942651 69.252266 
L 616.755403 91.00232 
L 622.568154 98.461283 
L 628.380906 102.971117 
L 634.193658 101.909423 
L 640.006409 95.696159 
L 645.819161 88.619421 
L 651.631913 92.713561 
L 657.444664 100.636581 
L 663.257416 96.32761 
L 669.070168 95.574877 
L 674.882919 91.94208 
L 680.695671 93.065525 
L 686.508423 98.020116 
L 692.321174 90.168569 
L 698.133926 78.813739 
L 703.946678 77.9118 
L 709.75943 71.711965 
L 715.572181 75.227836 
L 721.384933 75.361119 
L 727.197685 68.056547 
L 733.010436 70.557936 
L 738.823188 60.957944 
L 744.63594 51.089249 
L 750.448691 60.247377 
L 756.261443 65.158896 
L 762.074195 59.884532 
L 767.886946 93.567697 
L 773.699698 95.19289 
L 779.51245 97.554588 
L 785.325201 105.564859 
L 791.137953 94.100911 
L 796.950705 83.641604 
L 802.763456 96.478546 
L 808.576208 85.151315 
L 814.38896 101.231063 
L 820.201711 91.198849 
L 826.014463 116.490006 
L 831.827215 126.956736 
L 837.639966 128.611337 
L 843.452718 128.430395 
L 849.26547 119.591604 
L 855.078221 114.64687 
L 860.890973 89.361532 
L 866.703725 85.970035 
L 872.516477 77.910093 
L 878.329228 83.110282 
L 884.14198 85.307248 
L 889.954732 89.325708 
L 895.767483 88.233836 
L 901.580235 91.88947 
L 907.392987 86.951712 
L 913.205738 85.49084 
L 919.01849 85.518004 
L 924.831242 68.771612 
L 930.643993 67.928859 
L 936.456745 61.808545 
L 942.269497 48.047666 
L 948.082248 46.195127 
L 953.895 57.220927 
L 953.895 57.220927 
" clip-path="url(#p57400b2ce2)" style="fill: none; stroke: #1f77b4; stroke-width: 2; stroke-linecap: round"/>
   </g>
   <g id="line2d_32">
    <path d="M 87.795 511.535455 
L 198.237282 511.535455 
L 209.862785 508.052907 
L 238.926544 500.978612 
L 244.739295 500.26012 
L 250.552047 498.951227 
L 256.364799 497.369218 
L 262.17755 496.337033 
L 267.990302 494.841564 
L 279.615805 492.419977 
L 285.428557 491.399339 
L 297.05406 488.731843 
L 302.866812 487.489553 
L 308.679564 485.784584 
L 314.492315 484.600395 
L 320.305067 479.174038 
L 326.117819 473.457182 
L 331.93057 468.915337 
L 337.743322 463.859642 
L 343.556074 459.44078 
L 349.368826 453.879301 
L 360.994329 441.52715 
L 372.619832 428.125237 
L 384.245336 411.820795 
L 390.058087 403.783171 
L 395.870839 396.384271 
L 401.683591 390.110094 
L 407.496342 381.550407 
L 413.309094 372.24481 
L 424.934597 352.158707 
L 430.747349 344.20826 
L 436.560101 326.508034 
L 442.372852 306.648056 
L 448.185604 287.832228 
L 453.998356 270.31316 
L 459.811107 249.127674 
L 465.623859 226.867507 
L 471.436611 204.144322 
L 477.249362 190.816156 
L 483.062114 175.867915 
L 488.874866 161.867915 
L 494.687617 147.016884 
L 500.500369 134.391738 
L 506.313121 123.414032 
L 512.125872 115.802082 
L 517.938624 108.714481 
L 529.564128 104.982049 
L 535.376879 101.243156 
L 541.189631 102.008448 
L 547.002383 99.523049 
L 552.815134 92.28259 
L 558.627886 88.06754 
L 564.440638 88.560345 
L 570.253389 84.960894 
L 576.066141 75.841484 
L 581.878893 77.407915 
L 587.691644 80.956083 
L 593.504396 91.675248 
L 599.317148 99.253535 
L 605.129899 106.107961 
L 610.942651 112.166312 
L 616.755403 130.003179 
L 622.568154 128.52945 
L 628.380906 130.439455 
L 634.193658 132.1685 
L 640.006409 134.527779 
L 645.819161 123.598053 
L 651.631913 130.201134 
L 657.444664 141.216753 
L 663.257416 154.446382 
L 669.070168 158.554619 
L 674.882919 163.156912 
L 680.695671 162.110495 
L 686.508423 165.225469 
L 692.321174 161.925343 
L 698.133926 148.825895 
L 703.946678 153.752294 
L 709.75943 152.466798 
L 715.572181 156.005435 
L 721.384933 172.650793 
L 727.197685 169.130854 
L 733.010436 176.568067 
L 738.823188 174.863357 
L 744.63594 168.124153 
L 756.261443 150.517111 
L 762.074195 155.063599 
L 767.886946 158.696491 
L 773.699698 159.316067 
L 779.51245 144.352997 
L 785.325201 145.70153 
L 791.137953 130.284517 
L 796.950705 130.385221 
L 802.763456 121.629628 
L 808.576208 114.170477 
L 814.38896 118.007439 
L 820.201711 115.178127 
L 826.014463 118.971024 
L 831.827215 126.468121 
L 837.639966 109.859593 
L 843.452718 113.885113 
L 849.26547 118.504063 
L 855.078221 130.487575 
L 860.890973 132.379465 
L 866.703725 133.301702 
L 872.516477 133.719517 
L 878.329228 134.2849 
L 884.14198 126.978259 
L 889.954732 120.551274 
L 895.767483 126.15497 
L 901.580235 141.680531 
L 907.392987 161.160425 
L 913.205738 194.592461 
L 919.01849 204.691 
L 924.831242 209.334464 
L 930.643993 200.417633 
L 936.456745 202.887853 
L 942.269497 195.509254 
L 948.082248 173.581245 
L 953.895 183.947703 
L 953.895 183.947703 
" clip-path="url(#p57400b2ce2)" style="fill: none; stroke: #ff7f0e; stroke-width: 2; stroke-linecap: round"/>
   </g>
   <g id="line2d_33">
    <path d="M 87.795 511.535455 
L 198.237282 511.535455 
L 204.050034 509.699831 
L 215.675537 506.564937 
L 227.30104 503.900166 
L 238.926544 502.164765 
L 244.739295 501.200021 
L 250.552047 501.00128 
L 262.17755 499.797206 
L 267.990302 499.412427 
L 285.428557 499.160558 
L 291.241309 498.76948 
L 297.05406 498.986801 
L 302.866812 498.611018 
L 314.492315 499.008504 
L 320.305067 497.8328 
L 326.117819 497.999375 
L 331.93057 497.641928 
L 343.556074 497.453554 
L 349.368826 498.189095 
L 360.994329 498.761756 
L 372.619832 498.513415 
L 384.245336 498.176 
L 390.058087 498.069762 
L 395.870839 498.485532 
L 401.683591 498.297687 
L 413.309094 496.945789 
L 419.121846 495.351171 
L 424.934597 493.502437 
L 430.747349 492.287546 
L 436.560101 490.313826 
L 442.372852 490.09772 
L 448.185604 489.364125 
L 453.998356 486.990215 
L 459.811107 485.72866 
L 465.623859 486.030877 
L 471.436611 485.257496 
L 477.249362 486.019287 
L 483.062114 486.447338 
L 488.874866 485.504529 
L 494.687617 485.28676 
L 500.500369 484.932466 
L 506.313121 482.165153 
L 512.125872 479.966195 
L 517.938624 478.55707 
L 523.751376 476.971855 
L 529.564128 478.075515 
L 535.376879 477.717555 
L 541.189631 474.59825 
L 547.002383 470.614573 
L 552.815134 465.377982 
L 558.627886 465.827796 
L 564.440638 468.689308 
L 570.253389 470.526196 
L 576.066141 473.552418 
L 581.878893 475.561342 
L 587.691644 477.324992 
L 593.504396 477.606682 
L 605.129899 468.086305 
L 610.942651 462.429781 
L 616.755403 462.915476 
L 622.568154 460.925548 
L 628.380906 461.80737 
L 634.193658 461.154661 
L 640.006409 453.088788 
L 645.819161 445.492582 
L 651.631913 439.420666 
L 657.444664 438.029869 
L 663.257416 437.537798 
L 669.070168 440.773701 
L 674.882919 444.357815 
L 680.695671 447.264265 
L 686.508423 446.297443 
L 692.321174 449.353851 
L 698.133926 451.728491 
L 703.946678 449.7015 
L 709.75943 450.164171 
L 715.572181 442.711401 
L 721.384933 434.497796 
L 727.197685 433.712725 
L 733.010436 427.389087 
L 738.823188 425.305468 
L 744.63594 427.604361 
L 750.448691 430.462963 
L 756.261443 428.501601 
L 762.074195 429.3966 
L 767.886946 430.766554 
L 773.699698 433.61899 
L 779.51245 435.794067 
L 785.325201 434.863501 
L 791.137953 431.121322 
L 796.950705 424.925547 
L 808.576208 435.176243 
L 814.38896 439.14223 
L 820.201711 440.545727 
L 826.014463 446.963377 
L 831.827215 447.606184 
L 837.639966 450.839294 
L 843.452718 452.699555 
L 849.26547 454.318113 
L 855.078221 456.463042 
L 860.890973 455.961205 
L 866.703725 460.183963 
L 872.516477 460.589854 
L 878.329228 461.238313 
L 884.14198 462.118866 
L 889.954732 464.924385 
L 895.767483 466.849052 
L 901.580235 465.977073 
L 907.392987 465.969265 
L 913.205738 466.215991 
L 919.01849 466.269184 
L 924.831242 469.314982 
L 936.456745 470.239295 
L 942.269497 470.741854 
L 948.082248 468.770726 
L 953.895 467.436946 
L 953.895 467.436946 
" clip-path="url(#p57400b2ce2)" style="fill: none; stroke: #2ca02c; stroke-width: 2; stroke-linecap: round"/>
   </g>
   <g id="line2d_34">
    <path d="M 87.795 511.535455 
L 198.237282 511.535455 
L 209.862785 507.792018 
L 215.675537 506.343601 
L 227.30104 504.017941 
L 238.926544 501.544016 
L 244.739295 499.984939 
L 250.552047 499.391969 
L 256.364799 498.495831 
L 262.17755 497.057419 
L 279.615805 493.464374 
L 291.241309 490.485689 
L 297.05406 489.432768 
L 308.679564 486.289858 
L 314.492315 484.261618 
L 326.117819 473.500608 
L 337.743322 462.529824 
L 349.368826 449.030983 
L 355.181577 442.848055 
L 360.994329 436.411064 
L 366.807081 430.344598 
L 378.432584 416.407997 
L 384.245336 410.819637 
L 390.058087 404.294044 
L 395.870839 395.647695 
L 401.683591 389.343232 
L 407.496342 381.482549 
L 419.121846 359.77969 
L 424.934597 351.027357 
L 430.747349 339.23272 
L 436.560101 318.919924 
L 442.372852 299.022285 
L 448.185604 278.255893 
L 453.998356 259.483027 
L 459.811107 239.959757 
L 465.623859 219.080252 
L 471.436611 200.663571 
L 477.249362 182.980509 
L 483.062114 170.196032 
L 488.874866 155.04657 
L 494.687617 146.086757 
L 500.500369 134.58832 
L 506.313121 131.026754 
L 512.125872 128.428409 
L 517.938624 125.005371 
L 523.751376 117.353643 
L 529.564128 110.809775 
L 535.376879 113.912786 
L 541.189631 112.335835 
L 547.002383 109.705183 
L 552.815134 106.263346 
L 558.627886 106.351796 
L 564.440638 106.623927 
L 570.253389 101.64578 
L 576.066141 93.27811 
L 581.878893 93.107719 
L 587.691644 96.404959 
L 593.504396 98.038587 
L 599.317148 96.427845 
L 605.129899 95.833061 
L 610.942651 87.622075 
L 616.755403 88.859573 
L 622.568154 85.675345 
L 628.380906 89.215118 
L 634.193658 97.97166 
L 640.006409 93.780944 
L 645.819161 99.980596 
L 651.631913 93.56519 
L 657.444664 87.433466 
L 663.257416 96.778422 
L 669.070168 98.651235 
L 674.882919 95.435493 
L 680.695671 81.908801 
L 686.508423 80.189751 
L 692.321174 76.002081 
L 698.133926 75.641616 
L 703.946678 77.562225 
L 709.75943 90.163438 
L 715.572181 93.770515 
L 721.384933 104.071088 
L 727.197685 103.559312 
L 733.010436 101.693084 
L 738.823188 99.6233 
L 744.63594 94.688013 
L 750.448691 98.710341 
L 756.261443 88.033692 
L 762.074195 79.945384 
L 767.886946 82.141225 
L 773.699698 100.242103 
L 779.51245 106.967333 
L 785.325201 111.895071 
L 791.137953 125.362105 
L 796.950705 131.846102 
L 802.763456 144.238169 
L 808.576208 124.452928 
L 814.38896 97.576197 
L 820.201711 91.74833 
L 826.014463 85.68699 
L 831.827215 93.876518 
L 837.639966 103.129338 
L 843.452718 103.692518 
L 849.26547 89.572145 
L 855.078221 63.834066 
L 860.890973 67.641061 
L 866.703725 84.818042 
L 872.516477 90.800569 
L 878.329228 88.181428 
L 884.14198 88.343588 
L 889.954732 84.947245 
L 895.767483 103.908008 
L 901.580235 98.406932 
L 907.392987 81.42488 
L 913.205738 79.938932 
L 919.01849 102.202751 
L 924.831242 101.524498 
L 930.643993 105.081463 
L 936.456745 76.474897 
L 942.269497 65.307526 
L 948.082248 34.644545 
L 953.895 36.060402 
L 953.895 36.060402 
" clip-path="url(#p57400b2ce2)" style="fill: none; stroke: #d62728; stroke-width: 2; stroke-linecap: round"/>
   </g>
   <g id="line2d_35">
    <path d="M 87.795 511.535455 
L 198.237282 511.535455 
L 204.050034 509.534255 
L 209.862785 507.858 
L 215.675537 506.353327 
L 227.30104 503.91547 
L 233.113792 502.646404 
L 244.739295 500.868687 
L 256.364799 498.537467 
L 262.17755 497.116733 
L 267.990302 496.013739 
L 273.803054 494.580665 
L 279.615805 493.567412 
L 291.241309 491.004076 
L 297.05406 489.701847 
L 302.866812 488.015666 
L 308.679564 486.555567 
L 314.492315 485.223255 
L 320.305067 480.437167 
L 326.117819 475.930917 
L 331.93057 470.927865 
L 343.556074 459.958115 
L 349.368826 453.641828 
L 355.181577 448.965955 
L 360.994329 443.487411 
L 366.807081 437.227172 
L 378.432584 424.264438 
L 390.058087 408.694704 
L 395.870839 400.441305 
L 401.683591 393.061373 
L 407.496342 388.324724 
L 413.309094 378.928714 
L 424.934597 362.943002 
L 430.747349 356.271965 
L 436.560101 343.423824 
L 442.372852 331.921423 
L 448.185604 319.009524 
L 453.998356 306.902037 
L 459.811107 292.526936 
L 465.623859 282.209214 
L 471.436611 268.161916 
L 483.062114 238.633645 
L 488.874866 226.930313 
L 494.687617 216.884295 
L 500.500369 208.029734 
L 506.313121 202.7544 
L 512.125872 200.625983 
L 517.938624 197.399575 
L 523.751376 193.340392 
L 529.564128 188.88654 
L 535.376879 183.423654 
L 541.189631 176.327321 
L 547.002383 170.617183 
L 552.815134 164.004412 
L 558.627886 154.32185 
L 564.440638 146.473436 
L 570.253389 142.064136 
L 576.066141 131.993521 
L 581.878893 125.382518 
L 587.691644 113.385818 
L 593.504396 107.423882 
L 599.317148 106.95853 
L 605.129899 110.997526 
L 610.942651 116.661767 
L 616.755403 116.746389 
L 622.568154 112.530488 
L 628.380906 112.581065 
L 634.193658 114.071654 
L 640.006409 112.812154 
L 645.819161 106.282714 
L 651.631913 112.463159 
L 657.444664 124.537499 
L 663.257416 120.970987 
L 669.070168 112.210606 
L 674.882919 113.56909 
L 680.695671 114.124953 
L 686.508423 120.641339 
L 692.321174 117.244126 
L 698.133926 117.731671 
L 703.946678 124.43728 
L 709.75943 120.813858 
L 715.572181 117.757172 
L 721.384933 105.431327 
L 727.197685 99.326834 
L 733.010436 104.354137 
L 738.823188 119.552994 
L 744.63594 132.510045 
L 750.448691 120.380439 
L 756.261443 131.753479 
L 762.074195 148.8133 
L 767.886946 154.949648 
L 773.699698 139.125236 
L 779.51245 140.991103 
L 785.325201 128.053646 
L 791.137953 127.454201 
L 796.950705 127.036109 
L 802.763456 125.304755 
L 808.576208 143.057157 
L 814.38896 136.338088 
L 820.201711 136.303632 
L 826.014463 128.889644 
L 831.827215 140.896445 
L 837.639966 147.409143 
L 843.452718 151.544905 
L 849.26547 156.635167 
L 855.078221 156.569521 
L 860.890973 151.398083 
L 866.703725 172.098991 
L 872.516477 174.074359 
L 878.329228 173.542017 
L 884.14198 179.785708 
L 889.954732 193.604797 
L 895.767483 187.432455 
L 901.580235 173.056217 
L 907.392987 158.155566 
L 913.205738 158.22678 
L 919.01849 169.31894 
L 924.831242 179.682983 
L 930.643993 173.202269 
L 936.456745 152.020905 
L 942.269497 143.16033 
L 948.082248 149.898996 
L 953.895 156.287504 
L 953.895 156.287504 
" clip-path="url(#p57400b2ce2)" style="fill: none; stroke: #9467bd; stroke-width: 2; stroke-linecap: round"/>
   </g>
   <g id="line2d_36">
    <path d="M 87.795 511.535455 
L 198.237282 511.535455 
L 204.050034 509.755647 
L 209.862785 508.098275 
L 215.675537 506.737813 
L 221.488289 505.922742 
L 227.30104 504.555269 
L 238.926544 502.632133 
L 244.739295 501.300529 
L 250.552047 500.641714 
L 256.364799 499.600135 
L 262.17755 498.419216 
L 267.990302 497.692078 
L 273.803054 496.455053 
L 279.615805 495.687953 
L 285.428557 494.602303 
L 291.241309 493.339176 
L 297.05406 492.21915 
L 302.866812 491.335911 
L 308.679564 490.032379 
L 314.492315 488.363163 
L 320.305067 483.614475 
L 326.117819 479.316108 
L 331.93057 473.594121 
L 337.743322 468.880765 
L 343.556074 462.746955 
L 349.368826 457.554567 
L 355.181577 452.045649 
L 366.807081 441.277464 
L 372.619832 434.900982 
L 378.432584 429.012059 
L 384.245336 424.246245 
L 390.058087 418.404975 
L 395.870839 410.672024 
L 401.683591 403.881736 
L 407.496342 397.927057 
L 413.309094 392.759718 
L 419.121846 385.937986 
L 424.934597 380.50904 
L 430.747349 374.063627 
L 436.560101 360.852381 
L 442.372852 348.149477 
L 448.185604 336.933981 
L 453.998356 324.873691 
L 459.811107 317.1041 
L 465.623859 308.663197 
L 471.436611 297.525307 
L 477.249362 287.924002 
L 483.062114 276.898367 
L 488.874866 268.961918 
L 494.687617 260.125422 
L 500.500369 252.937826 
L 506.313121 243.107819 
L 512.125872 236.089719 
L 517.938624 230.129391 
L 523.751376 221.208684 
L 529.564128 211.344362 
L 535.376879 204.409926 
L 541.189631 197.282525 
L 547.002383 192.609452 
L 552.815134 189.208595 
L 558.627886 187.933461 
L 564.440638 187.41967 
L 570.253389 188.674512 
L 576.066141 188.551856 
L 581.878893 187.271452 
L 587.691644 182.656819 
L 593.504396 178.333489 
L 599.317148 180.185366 
L 605.129899 174.488824 
L 610.942651 173.819609 
L 616.755403 173.593562 
L 622.568154 163.55388 
L 628.380906 160.249091 
L 634.193658 150.223337 
L 645.819161 139.056216 
L 651.631913 135.637825 
L 657.444664 129.996576 
L 663.257416 125.663265 
L 669.070168 116.662743 
L 674.882919 118.011772 
L 680.695671 117.342634 
L 686.508423 120.533166 
L 692.321174 115.713406 
L 698.133926 123.047752 
L 703.946678 116.661879 
L 709.75943 122.757601 
L 715.572181 126.26819 
L 721.384933 124.101402 
L 727.197685 126.737866 
L 733.010436 111.058277 
L 738.823188 112.441429 
L 744.63594 120.836934 
L 750.448691 111.048912 
L 756.261443 99.261321 
L 762.074195 98.514013 
L 767.886946 93.331115 
L 773.699698 103.039382 
L 779.51245 118.746804 
L 785.325201 118.025123 
L 791.137953 121.348107 
L 796.950705 122.448044 
L 802.763456 124.905769 
L 808.576208 113.910429 
L 814.38896 118.655619 
L 820.201711 119.237012 
L 826.014463 116.4014 
L 831.827215 118.927267 
L 837.639966 124.632353 
L 843.452718 134.917507 
L 849.26547 128.364266 
L 855.078221 135.643193 
L 860.890973 145.971712 
L 866.703725 168.195383 
L 872.516477 166.675445 
L 878.329228 166.948261 
L 884.14198 163.526204 
L 889.954732 161.697029 
L 895.767483 169.845631 
L 901.580235 165.923707 
L 907.392987 159.463087 
L 913.205738 156.049961 
L 919.01849 155.033847 
L 924.831242 161.106233 
L 930.643993 142.325896 
L 936.456745 133.303388 
L 942.269497 114.769514 
L 948.082248 112.979182 
L 953.895 101.014597 
L 953.895 101.014597 
" clip-path="url(#p57400b2ce2)" style="fill: none; stroke: #8c564b; stroke-width: 2; stroke-linecap: round"/>
   </g>
   <g id="line2d_37">
    <path d="M 204.050034 535.38 
L 204.050034 10.8 
" clip-path="url(#p57400b2ce2)" style="fill: none; stroke-dasharray: 5.55,2.4; stroke-dashoffset: 0; stroke: #000000; stroke-width: 1.5"/>
   </g>
   <g id="patch_3">
    <path d="M 44.49 535.38 
L 44.49 10.8 
" style="fill: none; stroke: #cccccc; stroke-linejoin: miter; stroke-linecap: square"/>
   </g>
   <g id="patch_4">
    <path d="M 997.2 535.38 
L 997.2 10.8 
" style="fill: none; stroke: #cccccc; stroke-linejoin: miter; stroke-linecap: square"/>
   </g>
   <g id="patch_5">
    <path d="M 44.49 535.38 
L 997.2 535.38 
" style="fill: none; stroke: #cccccc; stroke-linejoin: miter; stroke-linecap: square"/>
   </g>
   <g id="patch_6">
    <path d="M 44.49 10.8 
L 997.2 10.8 
" style="fill: none; stroke: #cccccc; stroke-linejoin: miter; stroke-linecap: square"/>
   </g>
   <g id="legend_1">
    <g id="patch_7">
     <path d="M 52.89 138.839375 
L 155.990625 138.839375 
Q 158.390625 138.839375 158.390625 136.439375 
L 158.390625 19.2 
Q 158.390625 16.8 155.990625 16.8 
L 52.89 16.8 
Q 50.49 16.8 50.49 19.2 
L 50.49 136.439375 
Q 50.49 138.839375 52.89 138.839375 
z
" style="fill: #ffffff; opacity: 0.8; stroke: #cccccc; stroke-linejoin: miter"/>
    </g>
    <g id="text_18">
     <!-- Strategy -->
     <g style="fill: #262626" transform="translate(85.820781 28.846875) scale(0.1 -0.1)">
      <defs>
       <path id="LiberationSans-53" d="M 3975 1216 
Q 3975 938 3867 703 
Q 3759 469 3534 298 
Q 3309 128 2967 32 
Q 2625 -63 2156 -63 
Q 1334 -63 875 225 
Q 416 513 291 1056 
L 869 1172 
Q 913 1000 1003 859 
Q 1094 719 1248 617 
Q 1403 516 1631 459 
Q 1859 403 2178 403 
Q 2444 403 2666 448 
Q 2888 494 3047 587 
Q 3206 681 3295 829 
Q 3384 978 3384 1184 
Q 3384 1400 3286 1534 
Q 3188 1669 3009 1756 
Q 2831 1844 2584 1903 
Q 2338 1963 2038 2031 
Q 1853 2072 1667 2120 
Q 1481 2169 1311 2236 
Q 1141 2303 991 2393 
Q 841 2484 731 2611 
Q 622 2738 559 2905 
Q 497 3072 497 3291 
Q 497 3603 623 3826 
Q 750 4050 975 4194 
Q 1200 4338 1506 4403 
Q 1813 4469 2169 4469 
Q 2578 4469 2868 4405 
Q 3159 4341 3359 4212 
Q 3559 4084 3679 3895 
Q 3800 3706 3872 3456 
L 3284 3353 
Q 3241 3513 3158 3638 
Q 3075 3763 2940 3847 
Q 2806 3931 2614 3975 
Q 2422 4019 2163 4019 
Q 1856 4019 1648 3964 
Q 1441 3909 1314 3815 
Q 1188 3722 1133 3595 
Q 1078 3469 1078 3322 
Q 1078 3125 1176 2998 
Q 1275 2872 1444 2787 
Q 1613 2703 1834 2647 
Q 2056 2591 2306 2534 
Q 2509 2488 2711 2439 
Q 2913 2391 3097 2323 
Q 3281 2256 3442 2165 
Q 3603 2075 3722 1944 
Q 3841 1813 3908 1634 
Q 3975 1456 3975 1216 
z
" transform="scale(0.015625)"/>
      </defs>
      <use xlink:href="#LiberationSans-53"/>
      <use xlink:href="#LiberationSans-74" transform="translate(66.699219 0)"/>
      <use xlink:href="#LiberationSans-72" transform="translate(94.482422 0)"/>
      <use xlink:href="#LiberationSans-61" transform="translate(127.783203 0)"/>
      <use xlink:href="#LiberationSans-74" transform="translate(183.398438 0)"/>
      <use xlink:href="#LiberationSans-65" transform="translate(211.181641 0)"/>
      <use xlink:href="#LiberationSans-67" transform="translate(266.796875 0)"/>
      <use xlink:href="#LiberationSans-79" transform="translate(322.412109 0)"/>
     </g>
    </g>
    <g id="line2d_38">
     <path d="M 55.29 41.418125 
L 67.29 41.418125 
L 79.29 41.418125 
" style="fill: none; stroke: #1f77b4; stroke-width: 2; stroke-linecap: round"/>
    </g>
    <g id="text_19">
     <!-- GNTS -->
     <g style="fill: #262626" transform="translate(88.89 45.618125) scale(0.12 -0.12)">
      <defs>
       <path id="LiberationSans-47" d="M 322 2222 
Q 322 2738 461 3153 
Q 600 3569 876 3861 
Q 1153 4153 1562 4311 
Q 1972 4469 2513 4469 
Q 2919 4469 3225 4397 
Q 3531 4325 3756 4190 
Q 3981 4056 4137 3864 
Q 4294 3672 4403 3431 
L 3834 3263 
Q 3753 3425 3639 3558 
Q 3525 3691 3362 3784 
Q 3200 3878 2986 3929 
Q 2772 3981 2497 3981 
Q 2097 3981 1801 3856 
Q 1506 3731 1312 3500 
Q 1119 3269 1023 2944 
Q 928 2619 928 2222 
Q 928 1825 1031 1495 
Q 1134 1166 1337 927 
Q 1541 688 1842 555 
Q 2144 422 2541 422 
Q 2800 422 3019 465 
Q 3238 509 3414 579 
Q 3591 650 3725 736 
Q 3859 822 3950 909 
L 3950 1703 
L 2634 1703 
L 2634 2203 
L 4500 2203 
L 4500 684 
Q 4353 534 4154 398 
Q 3956 263 3709 159 
Q 3463 56 3169 -3 
Q 2875 -63 2541 -63 
Q 1984 -63 1568 107 
Q 1153 278 876 583 
Q 600 888 461 1306 
Q 322 1725 322 2222 
z
" transform="scale(0.015625)"/>
       <path id="LiberationSans-4e" d="M 3381 0 
L 1025 3750 
Q 1031 3597 1041 3447 
Q 1047 3319 1051 3176 
Q 1056 3034 1056 2925 
L 1056 0 
L 525 0 
L 525 4403 
L 1219 4403 
L 3600 628 
Q 3591 781 3581 934 
Q 3575 1066 3569 1220 
Q 3563 1375 3563 1516 
L 3563 4403 
L 4100 4403 
L 4100 0 
L 3381 0 
z
" transform="scale(0.015625)"/>
       <path id="LiberationSans-54" d="M 2250 3916 
L 2250 0 
L 1656 0 
L 1656 3916 
L 144 3916 
L 144 4403 
L 3763 4403 
L 3763 3916 
L 2250 3916 
z
" transform="scale(0.015625)"/>
      </defs>
      <use xlink:href="#LiberationSans-47"/>
      <use xlink:href="#LiberationSans-4e" transform="translate(77.783203 0)"/>
      <use xlink:href="#LiberationSans-54" transform="translate(150 0)"/>
      <use xlink:href="#LiberationSans-53" transform="translate(211.083984 0)"/>
     </g>
    </g>
    <g id="line2d_39">
     <path d="M 55.29 58.604375 
L 67.29 58.604375 
L 79.29 58.604375 
" style="fill: none; stroke: #ff7f0e; stroke-width: 2; stroke-linecap: round"/>
    </g>
    <g id="text_20">
     <!-- BBTS -->
     <g style="fill: #262626" transform="translate(88.89 62.804375) scale(0.12 -0.12)">
      <defs>
       <path id="LiberationSans-42" d="M 3931 1241 
Q 3931 906 3800 670 
Q 3669 434 3447 286 
Q 3225 138 2931 69 
Q 2638 0 2313 0 
L 525 0 
L 525 4403 
L 2125 4403 
Q 2491 4403 2778 4342 
Q 3066 4281 3266 4150 
Q 3466 4019 3570 3817 
Q 3675 3616 3675 3334 
Q 3675 3150 3623 2987 
Q 3572 2825 3467 2692 
Q 3363 2559 3205 2464 
Q 3047 2369 2838 2322 
Q 3103 2291 3308 2200 
Q 3513 2109 3650 1968 
Q 3788 1828 3859 1642 
Q 3931 1456 3931 1241 
z
M 3075 3263 
Q 3075 3619 2831 3772 
Q 2588 3925 2125 3925 
L 1122 3925 
L 1122 2531 
L 2125 2531 
Q 2388 2531 2569 2582 
Q 2750 2634 2862 2729 
Q 2975 2825 3025 2959 
Q 3075 3094 3075 3263 
z
M 3328 1288 
Q 3328 1497 3251 1644 
Q 3175 1791 3031 1884 
Q 2888 1978 2686 2022 
Q 2484 2066 2234 2066 
L 1122 2066 
L 1122 478 
L 2281 478 
Q 2509 478 2701 515 
Q 2894 553 3033 647 
Q 3172 741 3250 897 
Q 3328 1053 3328 1288 
z
" transform="scale(0.015625)"/>
      </defs>
      <use xlink:href="#LiberationSans-42"/>
      <use xlink:href="#LiberationSans-42" transform="translate(66.699219 0)"/>
      <use xlink:href="#LiberationSans-54" transform="translate(133.398438 0)"/>
      <use xlink:href="#LiberationSans-53" transform="translate(194.482422 0)"/>
     </g>
    </g>
    <g id="line2d_40">
     <path d="M 55.29 75.790625 
L 67.29 75.790625 
L 79.29 75.790625 
" style="fill: none; stroke: #2ca02c; stroke-width: 2; stroke-linecap: round"/>
    </g>
    <g id="text_21">
     <!-- GPTS -->
     <g style="fill: #262626" transform="translate(88.89 79.990625) scale(0.12 -0.12)">
      <defs>
       <path id="LiberationSans-50" d="M 3931 3078 
Q 3931 2791 3836 2542 
Q 3741 2294 3552 2111 
Q 3363 1928 3078 1822 
Q 2794 1716 2416 1716 
L 1122 1716 
L 1122 0 
L 525 0 
L 525 4403 
L 2378 4403 
Q 2769 4403 3059 4308 
Q 3350 4213 3544 4039 
Q 3738 3866 3834 3620 
Q 3931 3375 3931 3078 
z
M 3331 3072 
Q 3331 3491 3075 3708 
Q 2819 3925 2306 3925 
L 1122 3925 
L 1122 2188 
L 2331 2188 
Q 2847 2188 3089 2416 
Q 3331 2644 3331 3072 
z
" transform="scale(0.015625)"/>
      </defs>
      <use xlink:href="#LiberationSans-47"/>
      <use xlink:href="#LiberationSans-50" transform="translate(77.783203 0)"/>
      <use xlink:href="#LiberationSans-54" transform="translate(144.482422 0)"/>
      <use xlink:href="#LiberationSans-53" transform="translate(205.566406 0)"/>
     </g>
    </g>
    <g id="line2d_41">
     <path d="M 55.29 92.976875 
L 67.29 92.976875 
L 79.29 92.976875 
" style="fill: none; stroke: #d62728; stroke-width: 2; stroke-linecap: round"/>
    </g>
    <g id="text_22">
     <!-- Proportional -->
     <g style="fill: #262626" transform="translate(88.89 97.176875) scale(0.12 -0.12)">
      <defs>
       <path id="LiberationSans-6f" d="M 3291 1694 
Q 3291 806 2900 371 
Q 2509 -63 1766 -63 
Q 1413 -63 1134 43 
Q 856 150 664 369 
Q 472 588 370 917 
Q 269 1247 269 1694 
Q 269 3444 1784 3444 
Q 2178 3444 2464 3334 
Q 2750 3225 2933 3006 
Q 3116 2788 3203 2459 
Q 3291 2131 3291 1694 
z
M 2700 1694 
Q 2700 2088 2639 2344 
Q 2578 2600 2461 2753 
Q 2344 2906 2175 2967 
Q 2006 3028 1794 3028 
Q 1578 3028 1404 2964 
Q 1231 2900 1109 2745 
Q 988 2591 923 2334 
Q 859 2078 859 1694 
Q 859 1300 928 1042 
Q 997 784 1117 631 
Q 1238 478 1402 415 
Q 1566 353 1759 353 
Q 1975 353 2150 414 
Q 2325 475 2447 628 
Q 2569 781 2634 1040 
Q 2700 1300 2700 1694 
z
" transform="scale(0.015625)"/>
       <path id="LiberationSans-70" d="M 3291 1706 
Q 3291 1322 3228 997 
Q 3166 672 3020 437 
Q 2875 203 2636 70 
Q 2397 -63 2047 -63 
Q 1684 -63 1412 75 
Q 1141 213 997 525 
L 981 525 
Q 984 519 986 469 
Q 988 419 989 344 
Q 991 269 992 176 
Q 994 84 994 -6 
L 994 -1328 
L 431 -1328 
L 431 2691 
Q 431 2813 429 2925 
Q 428 3038 425 3130 
Q 422 3222 419 3287 
Q 416 3353 413 3381 
L 956 3381 
Q 959 3372 964 3315 
Q 969 3259 973 3179 
Q 978 3100 983 3009 
Q 988 2919 988 2838 
L 1000 2838 
Q 1078 3000 1178 3114 
Q 1278 3228 1406 3301 
Q 1534 3375 1692 3408 
Q 1850 3441 2047 3441 
Q 2397 3441 2636 3316 
Q 2875 3191 3020 2964 
Q 3166 2738 3228 2417 
Q 3291 2097 3291 1706 
z
M 2700 1694 
Q 2700 2006 2662 2250 
Q 2625 2494 2533 2662 
Q 2441 2831 2287 2918 
Q 2134 3006 1903 3006 
Q 1716 3006 1550 2953 
Q 1384 2900 1261 2750 
Q 1138 2600 1066 2336 
Q 994 2072 994 1650 
Q 994 1291 1053 1042 
Q 1113 794 1227 641 
Q 1341 488 1509 420 
Q 1678 353 1897 353 
Q 2131 353 2286 443 
Q 2441 534 2533 706 
Q 2625 878 2662 1126 
Q 2700 1375 2700 1694 
z
" transform="scale(0.015625)"/>
       <path id="LiberationSans-6c" d="M 431 0 
L 431 4638 
L 994 4638 
L 994 0 
L 431 0 
z
" transform="scale(0.015625)"/>
      </defs>
      <use xlink:href="#LiberationSans-50"/>
      <use xlink:href="#LiberationSans-72" transform="translate(66.699219 0)"/>
      <use xlink:href="#LiberationSans-6f" transform="translate(100 0)"/>
      <use xlink:href="#LiberationSans-70" transform="translate(155.615234 0)"/>
      <use xlink:href="#LiberationSans-6f" transform="translate(211.230469 0)"/>
      <use xlink:href="#LiberationSans-72" transform="translate(266.845703 0)"/>
      <use xlink:href="#LiberationSans-74" transform="translate(300.146484 0)"/>
      <use xlink:href="#LiberationSans-69" transform="translate(327.929688 0)"/>
      <use xlink:href="#LiberationSans-6f" transform="translate(350.146484 0)"/>
      <use xlink:href="#LiberationSans-6e" transform="translate(405.761719 0)"/>
      <use xlink:href="#LiberationSans-61" transform="translate(461.376953 0)"/>
      <use xlink:href="#LiberationSans-6c" transform="translate(516.992188 0)"/>
     </g>
    </g>
    <g id="line2d_42">
     <path d="M 55.29 110.163125 
L 67.29 110.163125 
L 79.29 110.163125 
" style="fill: none; stroke: #9467bd; stroke-width: 2; stroke-linecap: round"/>
    </g>
    <g id="text_23">
     <!-- Uniform -->
     <g style="fill: #262626" transform="translate(88.89 114.363125) scale(0.12 -0.12)">
      <defs>
       <path id="LiberationSans-55" d="M 2284 -63 
Q 1922 -63 1597 34 
Q 1272 131 1026 336 
Q 781 541 637 855 
Q 494 1169 494 1600 
L 494 4403 
L 1091 4403 
L 1091 1650 
Q 1091 1316 1180 1083 
Q 1269 850 1428 703 
Q 1588 556 1805 489 
Q 2022 422 2281 422 
Q 2538 422 2766 490 
Q 2994 559 3166 709 
Q 3338 859 3436 1101 
Q 3534 1344 3534 1691 
L 3534 4403 
L 4128 4403 
L 4128 1656 
Q 4128 1216 3983 892 
Q 3838 569 3588 356 
Q 3338 144 3002 40 
Q 2666 -63 2284 -63 
z
" transform="scale(0.015625)"/>
       <path id="LiberationSans-6d" d="M 2400 0 
L 2400 2144 
Q 2400 2391 2369 2556 
Q 2338 2722 2264 2823 
Q 2191 2925 2072 2967 
Q 1953 3009 1781 3009 
Q 1603 3009 1459 2939 
Q 1316 2869 1214 2736 
Q 1113 2603 1058 2408 
Q 1003 2213 1003 1959 
L 1003 0 
L 444 0 
L 444 2659 
Q 444 2766 442 2883 
Q 441 3000 437 3104 
Q 434 3209 431 3284 
Q 428 3359 425 3381 
L 956 3381 
Q 959 3366 962 3297 
Q 966 3228 970 3139 
Q 975 3050 978 2958 
Q 981 2866 981 2803 
L 991 2803 
Q 1066 2950 1153 3069 
Q 1241 3188 1358 3270 
Q 1475 3353 1626 3398 
Q 1778 3444 1978 3444 
Q 2363 3444 2586 3291 
Q 2809 3138 2897 2803 
L 2906 2803 
Q 2981 2950 3075 3069 
Q 3169 3188 3294 3270 
Q 3419 3353 3575 3398 
Q 3731 3444 3931 3444 
Q 4188 3444 4373 3375 
Q 4559 3306 4678 3162 
Q 4797 3019 4853 2792 
Q 4909 2566 4909 2253 
L 4909 0 
L 4353 0 
L 4353 2144 
Q 4353 2391 4322 2556 
Q 4291 2722 4217 2823 
Q 4144 2925 4025 2967 
Q 3906 3009 3734 3009 
Q 3556 3009 3412 2942 
Q 3269 2875 3167 2744 
Q 3066 2613 3011 2416 
Q 2956 2219 2956 1959 
L 2956 0 
L 2400 0 
z
" transform="scale(0.015625)"/>
      </defs>
      <use xlink:href="#LiberationSans-55"/>
      <use xlink:href="#LiberationSans-6e" transform="translate(72.216797 0)"/>
      <use xlink:href="#LiberationSans-69" transform="translate(127.832031 0)"/>
      <use xlink:href="#LiberationSans-66" transform="translate(150.048828 0)"/>
      <use xlink:href="#LiberationSans-6f" transform="translate(177.832031 0)"/>
      <use xlink:href="#LiberationSans-72" transform="translate(233.447266 0)"/>
      <use xlink:href="#LiberationSans-6d" transform="translate(266.748047 0)"/>
     </g>
    </g>
    <g id="line2d_43">
     <path d="M 55.29 127.349375 
L 67.29 127.349375 
L 79.29 127.349375 
" style="fill: none; stroke: #8c564b; stroke-width: 2; stroke-linecap: round"/>
    </g>
    <g id="text_24">
     <!-- Random -->
     <g style="fill: #262626" transform="translate(88.89 131.549375) scale(0.12 -0.12)">
      <defs>
       <path id="LiberationSans-52" d="M 3638 0 
L 2494 1828 
L 1122 1828 
L 1122 0 
L 525 0 
L 525 4403 
L 2597 4403 
Q 2972 4403 3261 4317 
Q 3550 4231 3747 4068 
Q 3944 3906 4047 3672 
Q 4150 3438 4150 3144 
Q 4150 2934 4089 2731 
Q 4028 2528 3897 2359 
Q 3766 2191 3562 2069 
Q 3359 1947 3075 1897 
L 4325 0 
L 3638 0 
z
M 3550 3138 
Q 3550 3338 3481 3484 
Q 3413 3631 3281 3729 
Q 3150 3828 2962 3876 
Q 2775 3925 2538 3925 
L 1122 3925 
L 1122 2300 
L 2563 2300 
Q 2819 2300 3006 2364 
Q 3194 2428 3314 2540 
Q 3434 2653 3492 2806 
Q 3550 2959 3550 3138 
z
" transform="scale(0.015625)"/>
       <path id="LiberationSans-64" d="M 2566 544 
Q 2409 219 2151 78 
Q 1894 -63 1513 -63 
Q 872 -63 570 368 
Q 269 800 269 1675 
Q 269 3444 1513 3444 
Q 1897 3444 2153 3303 
Q 2409 3163 2566 2856 
L 2572 2856 
Q 2572 2888 2570 2955 
Q 2569 3022 2567 3095 
Q 2566 3169 2566 3234 
Q 2566 3300 2566 3328 
L 2566 4638 
L 3128 4638 
L 3128 697 
Q 3128 575 3129 462 
Q 3131 350 3134 256 
Q 3138 163 3141 95 
Q 3144 28 3147 0 
L 2609 0 
Q 2603 31 2598 89 
Q 2594 147 2589 222 
Q 2584 297 2581 380 
Q 2578 463 2578 544 
L 2566 544 
z
M 859 1694 
Q 859 1344 903 1094 
Q 947 844 1044 683 
Q 1141 522 1291 447 
Q 1441 372 1656 372 
Q 1878 372 2048 444 
Q 2219 516 2333 677 
Q 2447 838 2506 1097 
Q 2566 1356 2566 1731 
Q 2566 2091 2506 2339 
Q 2447 2588 2331 2741 
Q 2216 2894 2048 2961 
Q 1881 3028 1663 3028 
Q 1456 3028 1306 2956 
Q 1156 2884 1056 2725 
Q 956 2566 907 2311 
Q 859 2056 859 1694 
z
" transform="scale(0.015625)"/>
      </defs>
      <use xlink:href="#LiberationSans-52"/>
      <use xlink:href="#LiberationSans-61" transform="translate(72.216797 0)"/>
      <use xlink:href="#LiberationSans-6e" transform="translate(127.832031 0)"/>
      <use xlink:href="#LiberationSans-64" transform="translate(183.447266 0)"/>
      <use xlink:href="#LiberationSans-6f" transform="translate(239.0625 0)"/>
      <use xlink:href="#LiberationSans-6d" transform="translate(294.677734 0)"/>
     </g>
    </g>
   </g>
  </g>
 </g>
 <defs>
  <clipPath id="p57400b2ce2">
   <rect x="44.49" y="10.8" width="952.71" height="524.58"/>
  </clipPath>
 </defs>
</svg>
